<?xml version="1.0" encoding="UTF-8" standalone="no"?>
<!-- Created with Inkscape (http://www.inkscape.org/) -->

<svg
   xmlns:dc="http://purl.org/dc/elements/1.1/"
   xmlns:cc="http://creativecommons.org/ns#"
   xmlns:rdf="http://www.w3.org/1999/02/22-rdf-syntax-ns#"
   xmlns:svg="http://www.w3.org/2000/svg"
   xmlns="http://www.w3.org/2000/svg"
   xmlns:sodipodi="http://sodipodi.sourceforge.net/DTD/sodipodi-0.dtd"
   xmlns:inkscape="http://www.inkscape.org/namespaces/inkscape"
   width="128px"
   height="128px"
   viewBox="0 0 128 128"
   version="1.1"
   id="SVGRoot"
   inkscape:version="0.92.4 (5da689c313, 2019-01-14)"
   sodipodi:docname="1010_klooni.svg">
  <defs
     id="defs815" />
  <sodipodi:namedview
     id="base"
     pagecolor="#ffffff"
     bordercolor="#666666"
     borderopacity="1.0"
     inkscape:pageopacity="0.0"
     inkscape:pageshadow="2"
     inkscape:zoom="6.78125"
     inkscape:cx="56.462216"
     inkscape:cy="63.533478"
     inkscape:document-units="px"
     inkscape:current-layer="layer1"
     showgrid="true"
     inkscape:window-width="1920"
     inkscape:window-height="1017"
     inkscape:window-x="-8"
     inkscape:window-y="-8"
     inkscape:window-maximized="1"
     inkscape:grid-bbox="true"
     inkscape:snap-global="false"
     showguides="true">
    <inkscape:grid
       type="xygrid"
       id="grid1382" />
  </sodipodi:namedview>
  <metadata
     id="metadata818">
    <rdf:RDF>
      <cc:Work
         rdf:about="">
        <dc:format>image/svg+xml</dc:format>
        <dc:type
           rdf:resource="http://purl.org/dc/dcmitype/StillImage" />
        <dc:title></dc:title>
      </cc:Work>
    </rdf:RDF>
  </metadata>
  <g
     inkscape:label="Layer 1"
     inkscape:groupmode="layer"
     id="layer1">
    <rect
       style="opacity:1;vector-effect:none;fill:#747474;fill-opacity:1;fill-rule:evenodd;stroke:none;paint-order:normal"
       id="rect1384"
       width="124"
       height="124"
       x="2"
       y="2"
       ry="62" />
    <rect
       style="opacity:1;vector-effect:none;fill:#ffffff;fill-opacity:1;fill-rule:evenodd;stroke:none;stroke-width:0.93548387;paint-order:normal"
       id="rect1384-6"
       width="116"
       height="116"
       x="6"
       y="6"
       ry="58" />
    <path
       style="color:#000000;font-style:normal;font-variant:normal;font-weight:normal;font-stretch:normal;font-size:medium;line-height:normal;font-family:sans-serif;font-variant-ligatures:normal;font-variant-position:normal;font-variant-caps:normal;font-variant-numeric:normal;font-variant-alternates:normal;font-feature-settings:normal;text-indent:0;text-align:start;text-decoration:none;text-decoration-line:none;text-decoration-style:solid;text-decoration-color:#000000;letter-spacing:normal;word-spacing:normal;text-transform:none;writing-mode:lr-tb;direction:ltr;text-orientation:mixed;dominant-baseline:auto;baseline-shift:baseline;text-anchor:start;white-space:normal;shape-padding:0;clip-rule:nonzero;display:inline;overflow:visible;visibility:visible;opacity:0.5;isolation:auto;mix-blend-mode:normal;color-interpolation:sRGB;color-interpolation-filters:linearRGB;solid-color:#000000;solid-opacity:1;vector-effect:none;fill:#747474;fill-opacity:1;fill-rule:nonzero;stroke:none;stroke-width:8;stroke-linecap:round;stroke-linejoin:round;stroke-miterlimit:4;stroke-dasharray:none;stroke-dashoffset:0;stroke-opacity:1;color-rendering:auto;image-rendering:auto;shape-rendering:auto;text-rendering:auto;enable-background:accumulate"
       d="m 66.128915,21.95349 c -3.583277,0 -6.726177,1.502018 -10.582031,3.380859 -3.855854,1.878842 -8.078641,4.308354 -12.039063,6.728516 -7.920842,4.840323 -14.800781,9.660156 -14.800781,9.660156 -1.145135,0.80365 -2.236184,1.928695 -2.873083,3.174305 -0.5745,1.123576 -0.698522,2.050526 -0.886682,3.298351 0,0 -1.008535,6.699127 -1.470704,15.128907 -0.462168,8.429779 -0.517806,18.542537 1.917969,26.380859 0.642644,2.068028 1.820387,3.251755 3.144531,4.50586 1.324145,1.254104 2.905734,2.462912 4.689454,3.695312 3.567438,2.464795 7.941651,4.990115 12.236328,7.308585 8.589354,4.63696 16.871093,8.42188 16.871094,8.42188 1.178142,0.53724 2.369209,0.74392 3.664062,0.74392 1.294853,0 2.48592,-0.20668 3.664062,-0.74392 0,0 8.28174,-3.78492 16.871094,-8.42188 4.294677,-2.31847 8.668889,-4.84379 12.236328,-7.308585 1.783717,-1.2324 3.365307,-2.441208 4.689457,-3.695312 1.32414,-1.254105 2.50188,-2.437834 3.14453,-4.50586 2.43577,-7.838322 2.38014,-17.95108 1.91797,-26.380859 -0.46217,-8.42978 -1.47071,-15.128907 -1.47071,-15.128907 -0.18831,-1.246719 -0.44668,-2.22273 -1.02171,-3.344829 -0.63528,-1.239688 -1.58557,-2.311145 -2.72243,-3.116108 0,0 -6.818122,-4.822304 -14.675779,-9.664063 C 84.703993,29.649798 80.513188,27.218603 76.679697,25.338256 72.846205,23.457909 69.712193,21.95349 66.128915,21.95349 Z"
       id="path889-0"
       inkscape:connector-curvature="0"
       sodipodi:nodetypes="ssscscssssccsccsccscscsss" />
    <path
       style="color:#000000;font-style:normal;font-variant:normal;font-weight:normal;font-stretch:normal;font-size:medium;line-height:normal;font-family:sans-serif;font-variant-ligatures:normal;font-variant-position:normal;font-variant-caps:normal;font-variant-numeric:normal;font-variant-alternates:normal;font-feature-settings:normal;text-indent:0;text-align:start;text-decoration:none;text-decoration-line:none;text-decoration-style:solid;text-decoration-color:#000000;letter-spacing:normal;word-spacing:normal;text-transform:none;writing-mode:lr-tb;direction:ltr;text-orientation:mixed;dominant-baseline:auto;baseline-shift:baseline;text-anchor:start;white-space:normal;shape-padding:0;clip-rule:nonzero;display:inline;overflow:visible;visibility:visible;opacity:1;isolation:auto;mix-blend-mode:normal;color-interpolation:sRGB;color-interpolation-filters:linearRGB;solid-color:#000000;solid-opacity:1;vector-effect:none;fill:#5598cc;fill-opacity:1;fill-rule:nonzero;stroke:none;stroke-width:8;stroke-linecap:round;stroke-linejoin:round;stroke-miterlimit:4;stroke-dasharray:none;stroke-dashoffset:0;stroke-opacity:1;color-rendering:auto;image-rendering:auto;shape-rendering:auto;text-rendering:auto;enable-background:accumulate"
       d="m 64.128906,17.953125 c -3.583277,0 -6.726177,1.502018 -10.582031,3.380859 -3.855854,1.878842 -8.078641,4.308354 -12.039063,6.728516 -7.920842,4.840323 -14.800781,9.660156 -14.800781,9.660156 -1.145135,0.80365 -2.236184,1.928695 -2.873083,3.174305 -0.5745,1.123576 -0.698522,2.050526 -0.886682,3.298351 0,0 -1.008535,6.699127 -1.470704,15.128907 -0.462168,8.429779 -0.517806,18.542537 1.917969,26.380859 0.642644,2.068028 1.820387,3.251755 3.144531,4.50586 1.324145,1.254104 2.905734,2.462912 4.689454,3.695312 3.567438,2.464799 7.941651,4.990118 12.236328,7.30859 8.589354,4.63696 16.871093,8.42188 16.871094,8.42188 1.178142,0.53724 2.369209,0.74392 3.664062,0.74392 1.294853,0 2.48592,-0.20668 3.664062,-0.74392 0,0 8.28174,-3.78492 16.871094,-8.42188 4.294677,-2.318472 8.668889,-4.843791 12.236328,-7.30859 1.78372,-1.2324 3.365306,-2.441208 4.689456,-3.695312 1.32414,-1.254105 2.50188,-2.437834 3.14453,-4.50586 2.43577,-7.838322 2.38014,-17.95108 1.91797,-26.380859 -0.46217,-8.42978 -1.47071,-15.128907 -1.47071,-15.128907 -0.18831,-1.246719 -0.44668,-2.22273 -1.02171,-3.344829 -0.63528,-1.239688 -1.58557,-2.311145 -2.72243,-3.116108 0,0 -6.818121,-4.822304 -14.675778,-9.664063 -3.928828,-2.420879 -8.119633,-4.852074 -11.953124,-6.732421 -3.833492,-1.880347 -6.967504,-3.384766 -10.550782,-3.384766 z"
       id="path889"
       inkscape:connector-curvature="0"
       sodipodi:nodetypes="ssscscssssccsccsccscscsss" />
    <path
       style="fill:#76ddfe;stroke:none;stroke-width:1px;stroke-linecap:butt;stroke-linejoin:miter;stroke-opacity:1"
       d="M 62,65 26.902643,44.789499 c 0,0 -3.921418,26.10254 0.312822,39.728322 C 29.234544,91.015215 62,106 62,106 Z"
       id="path840"
       inkscape:connector-curvature="0"
       sodipodi:nodetypes="ccscc" />
    <path
       style="fill:#76ddfe;stroke:none;stroke-width:1px;stroke-linecap:butt;stroke-linejoin:miter;stroke-opacity:1"
       d="m 66,65 35.09736,-20.210501 c 0,0 3.92142,26.10254 -0.31282,39.728322 C 98.765456,91.015215 66,106 66,106 Z"
       id="path840-2"
       inkscape:connector-curvature="0"
       sodipodi:nodetypes="ccscc" />
    <path
       style="fill:#76ddfe;stroke:none;stroke-width:1px;stroke-linecap:butt;stroke-linejoin:miter;stroke-opacity:1"
       d="M 29,41 64,61 99,41 C 99,41 72.048506,21.953534 64.128394,21.953534 56.208282,21.953534 29,41 29,41 Z"
       id="path857"
       inkscape:connector-curvature="0"
       sodipodi:nodetypes="ccczc" />
  </g>
</svg>
