<?xml version="1.0" encoding="UTF-8" standalone="no"?>
<!-- Created with Inkscape (http://www.inkscape.org/) -->

<svg
   enable-background="new"
   inkscape:export-ydpi="384"
   inkscape:export-xdpi="384"
   inkscape:export-filename="..\app\src\main\res\drawable-nodpi\amazon_alexa.png"
   sodipodi:docname="amazon_alexa.svg"
   inkscape:version="1.3 (0e150ed6c4, 2023-07-21)"
   id="svg8"
   version="1.1"
   viewBox="0 0 128 128"
   height="128"
   width="128"
   xml:space="preserve"
   xmlns:inkscape="http://www.inkscape.org/namespaces/inkscape"
   xmlns:sodipodi="http://sodipodi.sourceforge.net/DTD/sodipodi-0.dtd"
   xmlns="http://www.w3.org/2000/svg"
   xmlns:svg="http://www.w3.org/2000/svg"
   xmlns:rdf="http://www.w3.org/1999/02/22-rdf-syntax-ns#"
   xmlns:cc="http://creativecommons.org/ns#"
   xmlns:dc="http://purl.org/dc/elements/1.1/"><sodipodi:namedview
     id="base"
     pagecolor="#ffffff"
     bordercolor="#666666"
     borderopacity="1.0"
     inkscape:pageopacity="0.0"
     inkscape:pageshadow="2"
     inkscape:zoom="4"
     inkscape:cx="64.625"
     inkscape:cy="75.875"
     inkscape:document-units="px"
     inkscape:current-layer="g58"
     showgrid="true"
     units="px"
     inkscape:pagecheckerboard="true"
     borderlayer="true"
     gridtolerance="10"
     inkscape:snap-smooth-nodes="true"
     inkscape:snap-text-baseline="true"
     inkscape:snap-page="true"
     showguides="true"
     inkscape:guide-bbox="true"
     inkscape:snap-object-midpoints="true"
     inkscape:snap-center="true"
     inkscape:snap-global="true"
     inkscape:lockguides="false"
     inkscape:snap-bbox="true"
     inkscape:bbox-nodes="true"
     inkscape:showpageshadow="0"
     inkscape:deskcolor="#d1d1d1"
     inkscape:window-width="1124"
     inkscape:window-height="1048"
     inkscape:window-x="55"
     inkscape:window-y="0"
     inkscape:window-maximized="0"><inkscape:grid
       enabled="false"
       empspacing="4"
       id="grid4131"
       type="xygrid"
       spacingx="8"
       spacingy="8"
       originx="0"
       originy="0"
       units="px"
       visible="true" /><inkscape:grid
       empspacing="4"
       id="grid4167"
       type="xygrid"
       originx="0"
       originy="0"
       spacingy="1"
       spacingx="1"
       units="px"
       visible="true" /></sodipodi:namedview><defs
     id="defs2"><filter
       id="filter265"
       inkscape:label="Drop Shadow red"
       style="color-interpolation-filters:sRGB"
       x="0"
       y="0"
       width="1.0276462"
       height="1.0442031"><feFlood
         id="feFlood264"
         result="flood"
         flood-color="rgb(85,152,204)"
         flood-opacity="0.498039" /><feComposite
         id="feComposite264"
         result="composite1"
         operator="in"
         in2="SourceGraphic"
         in="flood" /><feOffset
         id="feOffset264"
         result="offset"
         dy="4"
         dx="2" /><feComposite
         id="feComposite265"
         result="composite2"
         operator="over"
         in2="offset"
         in="SourceGraphic" /></filter></defs><metadata
     id="metadata5"><rdf:RDF><cc:Work
         rdf:about=""><dc:format>image/svg+xml</dc:format><dc:type
           rdf:resource="http://purl.org/dc/dcmitype/StillImage" /></cc:Work></rdf:RDF></metadata><style
     id="style2296">.B{fill:#fc9abf}.C{fill:#ffc7df}.D{fill:#ed84cb}.E{fill-opacity:1}.F{stroke:none}</style><g
     inkscape:groupmode="layer"
     id="g58"
     inkscape:label="amazon appstore"
     style="display:inline"><circle
       r="60"
       cy="64"
       cx="64"
       id="circle57"
       style="display:inline;vector-effect:none;fill:#76ddfe;fill-opacity:1;fill-rule:nonzero;stroke:#5598cc;stroke-width:4;stroke-linecap:butt;stroke-linejoin:round;stroke-miterlimit:4;stroke-dasharray:none;stroke-dashoffset:0;stroke-opacity:1;paint-order:fill markers stroke" /><g
       id="g1"
       style="filter:url(#filter265)"
       transform="translate(0,-2)"><g
         id="g74"
         transform="translate(0,7.122757)"><path
           style="color:#000000;fill:#5598cc;fill-opacity:1;stroke-linejoin:round;-inkscape-stroke:none;paint-order:stroke fill markers"
           d="m 88.164062,72.15625 c -0.968024,0.0024 -1.968119,0.04415 -2.988281,0.128906 -4.078463,0.338898 -8.707742,1.330883 -12.535156,4.38086 a 4.0004,4.0004 0 0 0 -0.0098,0.0078 c -1.940783,1.556013 -2.395892,4.476499 -1.457031,6.425781 0.339533,0.704945 0.937408,1.296924 1.619141,1.802735 -3.262804,0.68529 -6.398805,0.939453 -9.3125,0.939453 -10.260366,0 -21.536186,-3.745617 -28.027344,-8.824219 a 4.0004,4.0004 0 0 0 -0.5,-0.333984 c -0.714179,-0.402778 -1.518224,-0.617404 -2.337891,-0.628907 -3.765117,-0.05321 -6.221463,4.667667 -4.050781,7.730469 5.957727,10.272686 19.401849,16.749996 31.46875,16.749996 5.246305,0 12.279765,0.19017 18.626953,-2.73632 1.415556,-0.65268 2.658819,-1.46177 3.841797,-2.33985 -0.20056,1.88575 0.601109,3.82892 1.947266,4.86719 1.696625,1.30858 4.593041,1.48429 6.519531,-0.043 a 4.0004,4.0004 0 0 0 0.0078,-0.006 c 3.373524,-2.68738 5.793745,-6.49832 7.363282,-10.574219 1.566076,-4.066939 2.405872,-8.626286 1.136718,-13.068359 -0.519339,-1.818557 -1.985713,-3.233097 -3.822265,-3.685547 a 4.0004,4.0004 0 0 0 -0.0059,-0.002 c -1.360304,-0.33314 -2.936455,-0.569039 -4.705078,-0.695313 -0.880846,-0.06289 -1.811247,-0.0981 -2.779297,-0.0957 z m -12.818359,6.003906 c 0.0019,-4.22e-4 0.004,0.0024 0.0059,0.002 -0.0059,0.0014 -0.01163,5.95e-4 -0.01758,0.002 z m 16.375,2.267578 c 0.05275,0.007 0.09676,0.01232 0.148438,0.01953 0.0042,0.05875 0.0066,0.118035 0.0098,0.177734 a 4.0004,4.0004 0 0 0 -0.158203,-0.197266 z m -61.197266,2.890625 c 0.165343,0.129362 0.382315,0.220333 0.550782,0.347657 -0.01563,-0.0085 -0.03528,-0.0049 -0.05078,-0.01367 z M 90.162109,97.2168 c -9.82e-4,0.002 9.92e-4,0.006 0,0.008 l -0.0059,0.0117 c 0.003,-0.007 0.0029,-0.0128 0.0059,-0.0195 z"
           id="path172" /><path
           style="color:#000000;fill:#ffffff;stroke-linejoin:round;-inkscape-stroke:none;paint-order:stroke fill markers"
           d="m 88.173547,76.156965 c -0.863851,0.0021 -1.757721,0.03802 -2.666541,0.113522 -3.635261,0.30207 -7.498914,1.233575 -10.373506,3.52427 -1.068843,0.856939 -0.244017,2.569459 1.092344,2.267945 5.039527,-1.151894 9.901424,-0.651794 12.757498,0.607981 0.598573,3.178524 -0.208902,7.807434 -2.484902,12.946707 -0.541173,1.23333 0.92998,2.36801 1.985398,1.53131 2.611704,-2.08051 4.764073,-5.35438 6.122701,-8.882573 1.358627,-3.528214 1.941908,-7.32057 1.024234,-10.53245 -0.126948,-0.445976 -0.48319,-0.789698 -0.93342,-0.900616 -1.074647,-0.263182 -2.464416,-0.477909 -4.038904,-0.590322 -0.787245,-0.05621 -1.621053,-0.0879 -2.484902,-0.08576 z m -55.615608,3.895056 c -0.74125,-0.01124 -1.177184,0.828604 -0.741391,1.428322 4.775925,8.571244 17.637563,15.054467 28.215754,15.054467 5.256861,0 11.771187,0.0208 16.952711,-2.36824 3.649481,-1.682693 6.08259,-4.157961 9.022001,-7.997183 0.580972,-0.762067 -0.273595,-1.783285 -1.126149,-1.345761 -7.599736,3.90844 -15.057457,5.01758 -21.399858,5.01758 -11.178774,0 -23.049687,-3.849963 -30.492635,-9.673233 -0.131478,-0.07415 -0.2795,-0.11402 -0.430433,-0.115945 z"
           id="path173" /></g><circle
         style="fill:#5598cc;fill-opacity:1;stroke:none;stroke-width:8;stroke-linejoin:round;stroke-opacity:1;paint-order:stroke fill markers"
         id="path1"
         cx="64"
         cy="50"
         r="32" /><path
         id="circle1"
         style="fill:#ffffff;stroke-width:8;stroke-linejoin:round;paint-order:stroke fill markers"
         d="M 58,72 C 47.036905,68.867822 42,59.237649 42,50 42,37.849736 51.849736,28 64,28 c 12.150264,0 22,9.849736 22,22 0,13.900265 -6,22 -26,31 -1.487551,0.669398 0,-8.428596 -2,-9 z"
         sodipodi:nodetypes="ssssss" /></g></g></svg>
