<?xml version="1.0" encoding="UTF-8" standalone="no"?>
<!-- Created with Inkscape (http://www.inkscape.org/) -->

<svg
   enable-background="new"
   inkscape:export-ydpi="384"
   inkscape:export-xdpi="384"
   inkscape:export-filename="..\app\src\main\res\drawable-nodpi\antennapod.png"
   sodipodi:docname="antennapod.svg"
   inkscape:version="1.3 (0e150ed6c4, 2023-07-21)"
   id="svg8"
   version="1.1"
   viewBox="0 0 128 128"
   height="128"
   width="128"
   xml:space="preserve"
   xmlns:inkscape="http://www.inkscape.org/namespaces/inkscape"
   xmlns:sodipodi="http://sodipodi.sourceforge.net/DTD/sodipodi-0.dtd"
   xmlns="http://www.w3.org/2000/svg"
   xmlns:svg="http://www.w3.org/2000/svg"
   xmlns:rdf="http://www.w3.org/1999/02/22-rdf-syntax-ns#"
   xmlns:cc="http://creativecommons.org/ns#"
   xmlns:dc="http://purl.org/dc/elements/1.1/"><sodipodi:namedview
     id="base"
     pagecolor="#ffffff"
     bordercolor="#666666"
     borderopacity="1.0"
     inkscape:pageopacity="0.0"
     inkscape:pageshadow="2"
     inkscape:zoom="2.8284271"
     inkscape:cx="39.244426"
     inkscape:cy="108.89444"
     inkscape:document-units="px"
     inkscape:current-layer="layer31"
     showgrid="true"
     units="px"
     inkscape:pagecheckerboard="true"
     borderlayer="true"
     gridtolerance="10"
     inkscape:snap-smooth-nodes="true"
     inkscape:snap-text-baseline="true"
     inkscape:snap-page="true"
     showguides="true"
     inkscape:guide-bbox="true"
     inkscape:snap-object-midpoints="true"
     inkscape:snap-center="true"
     inkscape:snap-global="true"
     inkscape:lockguides="false"
     inkscape:snap-bbox="true"
     inkscape:bbox-nodes="true"
     inkscape:showpageshadow="0"
     inkscape:deskcolor="#d1d1d1"
     inkscape:window-width="1852"
     inkscape:window-height="1057"
     inkscape:window-x="60"
     inkscape:window-y="-8"
     inkscape:window-maximized="1"><inkscape:grid
       enabled="false"
       empspacing="4"
       id="grid4131"
       type="xygrid"
       spacingx="8"
       spacingy="8"
       originx="0"
       originy="0"
       units="px"
       visible="true" /><inkscape:grid
       empspacing="4"
       id="grid4167"
       type="xygrid"
       originx="0"
       originy="0"
       spacingy="1"
       spacingx="1"
       units="px"
       visible="true" /></sodipodi:namedview><defs
     id="defs2"><filter
       id="filter265"
       inkscape:label="Drop Shadow red"
       style="color-interpolation-filters:sRGB"
       x="-0.060698198"
       y="-0.053264186"
       width="1.1518838"
       height="1.159797"
       inkscape:auto-region="true"><feFlood
         id="feFlood264"
         result="flood"
         flood-color="rgb(58,118,195)"
         flood-opacity="0.5" /><feComposite
         id="feComposite264"
         result="composite1"
         operator="in"
         in2="SourceGraphic"
         in="flood" /><feOffset
         id="feOffset264"
         result="offset"
         dy="4"
         dx="2" /><feComposite
         id="feComposite265"
         result="composite2"
         operator="over"
         in2="offset"
         in="SourceGraphic" /></filter><clipPath
       clipPathUnits="userSpaceOnUse"
       id="clipPath10"><path
         style="fill:#b0f0ff;fill-opacity:1;stroke:none;stroke-width:8;stroke-linecap:round;stroke-linejoin:round;stroke-opacity:1;-inkscape-stroke:none;paint-order:stroke fill markers"
         d="m 36,128 28,-64 28,64 h 32 L 128,0 H 0 v 128 z"
         id="path11"
         sodipodi:nodetypes="cccccccc" /></clipPath><clipPath
       clipPathUnits="userSpaceOnUse"
       id="clipPath11"><circle
         style="display:inline;opacity:1;vector-effect:none;fill:none;fill-opacity:1;fill-rule:nonzero;stroke:#3a76c3;stroke-width:4;stroke-linecap:butt;stroke-linejoin:round;stroke-miterlimit:4;stroke-dasharray:none;stroke-dashoffset:0;stroke-opacity:1;paint-order:fill markers stroke"
         id="circle12"
         cx="64"
         cy="64"
         r="60" /></clipPath></defs><metadata
     id="metadata5"><rdf:RDF><cc:Work
         rdf:about=""><dc:format>image/svg+xml</dc:format><dc:type
           rdf:resource="http://purl.org/dc/dcmitype/StillImage" /></cc:Work></rdf:RDF></metadata><style
     id="style2296">.B{fill:#fc9abf}.C{fill:#ffc7df}.D{fill:#ed84cb}.E{fill-opacity:1}.F{stroke:none}</style><g
     inkscape:groupmode="layer"
     id="layer31"
     inkscape:label="authy"
     style="display:inline;opacity:1"><circle
       style="display:inline;opacity:1;vector-effect:none;fill:#6d9fe9;fill-opacity:1;fill-rule:nonzero;stroke:none;stroke-width:4;stroke-linecap:butt;stroke-linejoin:round;stroke-miterlimit:4;stroke-dasharray:none;stroke-dashoffset:0;stroke-opacity:1;paint-order:fill markers stroke"
       id="circle6184-5"
       cx="64"
       cy="64"
       r="60" /><g
       inkscape:groupmode="maskhelper"
       id="g10"
       clip-path="url(#clipPath10)"><path
         id="circle3"
         style="color:#000000;fill:#b0f0ff;stroke-linecap:round;stroke-linejoin:round;-inkscape-stroke:none;paint-order:stroke fill markers;fill-opacity:1"
         d="M 64,35 C 48.031137,35 35,48.031137 35,64 35,79.968863 48.031137,93 64,93 79.968863,93 93,79.968863 93,64 93,48.031137 79.968863,35 64,35 Z m 0,8 C 75.645347,43 85,52.354653 85,64 85,75.645347 75.645347,85 64,85 52.354653,85 43,75.645347 43,64 43,52.354653 52.354653,43 64,43 Z m 0,-27 c -26.462263,0 -48,21.537737 -48,48 0,26.462263 21.537737,48 48,48 26.462263,0 48,-21.537737 48,-48 C 112,37.537737 90.462263,16 64,16 Z m 0,8 c 22.138746,0 40,17.861254 40,40 0,22.138746 -17.861254,40 -40,40 C 41.861254,104 24,86.138746 24,64 24,41.861254 41.861254,24 64,24 Z" /></g><g
       inkscape:groupmode="maskhelper"
       id="g11"
       clip-path="url(#clipPath11)"><path
         id="path1"
         style="fill:#ffffff;fill-opacity:1;stroke:#3a76c3;stroke-width:8;stroke-linecap:round;stroke-linejoin:round;stroke-opacity:1;-inkscape-stroke:none;paint-order:stroke fill markers;filter:url(#filter265)"
         d="M 64 54 A 10 10 0 0 0 54 64 A 10 10 0 0 0 56.609375 70.714844 C 49.383031 90.5145 39.359047 112.36241 31.708984 126.04883 C 30.630886 127.97697 31.319941 130.41402 33.248047 131.49219 C 35.176705 132.56997 37.613921 131.88 38.691406 129.95117 C 41.900003 124.21081 45.429376 117.19763 48.982422 109.58008 C 53.710545 111.14256 58.755748 112 64 112 C 69.244252 112 74.289455 111.14256 79.017578 109.58008 C 82.570624 117.19763 86.099997 124.21081 89.308594 129.95117 C 90.386079 131.88 92.823295 132.56997 94.751953 131.49219 C 96.680059 130.41402 97.369114 127.97697 96.291016 126.04883 C 88.640953 112.36241 78.616968 90.514502 71.390625 70.714844 A 10 10 0 0 0 74 64 A 10 10 0 0 0 64 54 z M 63.806641 73.986328 A 10 10 0 0 0 64 74 A 10 10 0 0 0 64.193359 73.986328 C 67.633834 83.392055 71.614163 93.11355 75.6875 102.26953 C 71.991704 103.39202 68.069163 104 64 104 C 59.930837 104 56.008296 103.39202 52.3125 102.26953 C 56.385837 93.11355 60.366166 83.392055 63.806641 73.986328 z " /></g><circle
       style="display:inline;opacity:1;vector-effect:none;fill:none;fill-opacity:1;fill-rule:nonzero;stroke:#3a76c3;stroke-width:4;stroke-linecap:butt;stroke-linejoin:round;stroke-miterlimit:4;stroke-dasharray:none;stroke-dashoffset:0;stroke-opacity:1;paint-order:fill markers stroke"
       id="circle1"
       cx="64"
       cy="64"
       r="60" /></g></svg>
