<?xml version="1.0" encoding="UTF-8" standalone="no"?>
<!-- Created with Inkscape (http://www.inkscape.org/) -->

<svg
   enable-background="new"
   inkscape:export-ydpi="384"
   inkscape:export-xdpi="384"
   inkscape:export-filename="..\app\src\main\res\drawable-nodpi\app_manager.png"
   sodipodi:docname="app_manager.svg"
   inkscape:version="1.3 (0e150ed6c4, 2023-07-21)"
   id="svg8"
   version="1.1"
   viewBox="0 0 128 128"
   height="128"
   width="128"
   xml:space="preserve"
   xmlns:inkscape="http://www.inkscape.org/namespaces/inkscape"
   xmlns:sodipodi="http://sodipodi.sourceforge.net/DTD/sodipodi-0.dtd"
   xmlns:xlink="http://www.w3.org/1999/xlink"
   xmlns="http://www.w3.org/2000/svg"
   xmlns:svg="http://www.w3.org/2000/svg"
   xmlns:rdf="http://www.w3.org/1999/02/22-rdf-syntax-ns#"
   xmlns:cc="http://creativecommons.org/ns#"
   xmlns:dc="http://purl.org/dc/elements/1.1/"><sodipodi:namedview
     id="base"
     pagecolor="#ffffff"
     bordercolor="#666666"
     borderopacity="1.0"
     inkscape:pageopacity="0.0"
     inkscape:pageshadow="2"
     inkscape:zoom="4"
     inkscape:cx="63.875"
     inkscape:cy="64"
     inkscape:document-units="px"
     inkscape:current-layer="g1216"
     showgrid="false"
     units="px"
     inkscape:pagecheckerboard="true"
     borderlayer="true"
     gridtolerance="10"
     inkscape:snap-smooth-nodes="true"
     inkscape:snap-text-baseline="true"
     inkscape:snap-page="true"
     showguides="true"
     inkscape:guide-bbox="true"
     inkscape:snap-object-midpoints="true"
     inkscape:snap-center="true"
     inkscape:snap-global="true"
     inkscape:lockguides="false"
     inkscape:snap-bbox="true"
     inkscape:bbox-nodes="true"
     inkscape:showpageshadow="0"
     inkscape:deskcolor="#d1d1d1"
     inkscape:window-width="1853"
     inkscape:window-height="1057"
     inkscape:window-x="59"
     inkscape:window-y="-8"
     inkscape:window-maximized="1"><inkscape:grid
       enabled="false"
       empspacing="4"
       id="grid4131"
       type="xygrid"
       spacingx="8"
       spacingy="8"
       originx="0"
       originy="0"
       units="px"
       visible="false" /><inkscape:grid
       empspacing="4"
       id="grid4167"
       type="xygrid"
       originx="0"
       originy="0"
       spacingy="1"
       spacingx="1"
       units="px"
       visible="false" /></sodipodi:namedview><defs
     id="defs2"><clipPath
       clipPathUnits="userSpaceOnUse"
       id="clipPath1210"><circle
         style="display:inline;opacity:1;vector-effect:none;fill:#68a955;fill-opacity:1;fill-rule:nonzero;stroke:none;stroke-width:4;stroke-linecap:butt;stroke-linejoin:round;stroke-miterlimit:4;stroke-dasharray:none;stroke-dashoffset:0;stroke-opacity:1;paint-order:fill markers stroke"
         id="circle1213"
         cx="84"
         cy="84"
         r="60" /></clipPath></defs><metadata
     id="metadata5"><rdf:RDF><cc:Work
         rdf:about=""><dc:format>image/svg+xml</dc:format><dc:type
           rdf:resource="http://purl.org/dc/dcmitype/StillImage" /></cc:Work></rdf:RDF></metadata><style
     id="style2296">.B{fill:#fc9abf}.C{fill:#ffc7df}.D{fill:#ed84cb}.E{fill-opacity:1}.F{stroke:none}</style><g
     inkscape:groupmode="layer"
     id="g1216"
     inkscape:label="settings"
     style="display:inline"><g
       transform="translate(-20,-20)"
       clip-path="url(#clipPath1210)"
       id="g1208"
       inkscape:groupmode="maskhelper"><path
         style="display:inline;opacity:1;vector-effect:none;fill:#f7ffff;fill-opacity:1;fill-rule:nonzero;stroke:#373737;stroke-width:1;stroke-linecap:butt;stroke-linejoin:round;stroke-miterlimit:4;stroke-dasharray:none;stroke-dashoffset:0;stroke-opacity:1;paint-order:fill markers stroke"
         d="m 90.48906,44.327691 c -1.07025,-0.286772 -2.16272,0.343968 -2.44949,1.414213 l -1.70052,6.346434 c -4.44051,-0.330296 -8.805393,0.275751 -12.858119,1.690619 l -3.28418,-5.688365 c -0.276999,-0.479779 -0.719977,-0.801547 -1.213722,-0.933846 -0.493745,-0.132298 -1.038258,-0.07513 -1.518037,0.201873 l -6.929855,4.000954 c -0.959556,0.554 -1.285973,1.772203 -0.731972,2.731759 l 3.284179,5.688366 c -3.251675,2.802329 -5.958968,6.279404 -7.893177,10.290145 l -6.346434,-1.700522 c -1.070246,-0.286771 -2.162718,0.343968 -2.44949,1.414214 l -2.070552,7.727407 c -0.286772,1.070245 0.343968,2.162718 1.414213,2.449489 l 6.346434,1.700519 c -0.330296,4.44051 0.275751,8.80539 1.69062,12.85812 l -5.688365,3.28418 c -0.959559,0.554 -1.285973,1.7722 -0.731974,2.73176 l 4.000954,6.92985 c 0.553999,0.95956 1.772202,1.28598 2.731759,0.73197 l 5.688366,-3.28417 c 2.802329,3.25167 6.279404,5.95896 10.290145,7.89318 l -1.700522,6.34643 c -0.286771,1.07024 0.343968,2.16272 1.414214,2.44949 l 7.727407,2.07055 c 1.070245,0.28677 2.162718,-0.34397 2.449489,-1.41421 l 1.700519,-6.34644 c 4.44051,0.3303 8.80539,-0.27575 12.85812,-1.69062 l 3.28418,5.68837 c 0.554,0.95956 1.7722,1.28597 2.73176,0.73197 l 6.92985,-4.00095 c 0.95956,-0.55401 1.28598,-1.7722 0.73198,-2.73177 l -3.28418,-5.68836 c 3.25167,-2.80233 5.95896,-6.2794 7.89318,-10.29014 l 6.34643,1.70052 c 1.07024,0.28677 2.16272,-0.34397 2.44949,-1.41421 l 2.07055,-7.72741 c 0.28677,-1.07025 -0.34397,-2.16272 -1.41421,-2.44949 l -6.34644,-1.70052 c 0.3303,-4.44051 -0.27575,-8.805393 -1.69062,-12.858119 l 5.68837,-3.28418 c 0.95956,-0.553998 1.28598,-1.772202 0.73197,-2.731759 l -4.00095,-6.929854 c -0.277,-0.47978 -0.71998,-0.801547 -1.21372,-0.933845 -0.49375,-0.1323 -1.03826,-0.07513 -1.51804,0.201871 l -5.68837,3.28418 c -2.80233,-3.251675 -6.2794,-5.958968 -10.29014,-7.893177 l 1.70052,-6.346434 c 0.28677,-1.070246 -0.34397,-2.162718 -1.41422,-2.44949 z m -1.31268,20.353792 c 5.10983,1.369174 9.20833,4.608379 11.79519,8.773649 L 87.33193,81.32998 a 4,4 0 0 0 -1.81369,-1.06427 4,4 0 0 0 -2.10284,0.0148 L 75.203571,66.057244 c 4.191158,-2.056917 9.108949,-2.679027 13.972809,-1.375761 z m -15.721248,2.34695 8.228408,14.252007 a 4,4 0 0 0 -1.06428,1.81369 4,4 0 0 0 0.0149,2.10284 l -14.252012,8.2284 c -2.313799,-4.32292 -3.069783,-9.49192 -1.70061,-14.601751 1.369174,-5.109827 4.608379,-9.208324 8.773649,-11.795186 z m 28.487628,8.175138 c 2.05691,4.191158 2.67902,9.108949 1.37576,13.972809 -1.30327,4.86386 -4.30093,8.81174 -8.17785,11.41293 L 87.28239,86.97838 a 4,4 0 0 0 1.06428,-1.81369 4,4 0 0 0 -0.0148,-2.10284 z M 81.634,86.92884 a 4,4 0 0 0 1.81369,1.06427 4,4 0 0 0 2.10284,-0.0148 l 7.87484,13.63964 c -4.32292,2.3138 -9.49192,3.06978 -14.601751,1.70061 -4.863857,-1.30327 -8.811738,-4.30093 -11.412928,-8.17785 z"
         id="path1774"
         inkscape:connector-curvature="0" /><path
         style="display:inline;opacity:1;vector-effect:none;fill:#d8dddf;fill-opacity:1;fill-rule:nonzero;stroke:#657580;stroke-width:1;stroke-linecap:butt;stroke-linejoin:round;stroke-miterlimit:4;stroke-dasharray:none;stroke-dashoffset:0;stroke-opacity:1;paint-order:fill markers stroke"
         d="m 135.37173,58.057501 c -1.07025,0.286772 -1.70099,1.379244 -1.41422,2.44949 l 1.77028,6.606782 a 22,22 0 0 0 -7.61949,7.612313 l -6.60045,-1.767934 c -1.07024,-0.286774 -2.16349,0.342535 -2.45026,1.412781 l -2.07017,7.728837 c -0.28677,1.07025 0.34392,2.1611 1.41416,2.44787 l 6.62902,1.77646 a 22,22 0 0 0 0.71903,5.36992 22,22 0 0 0 2.05573,5.0158 l -4.84613,4.84717 c -0.78347,0.78347 -0.78424,2.04352 -7.7e-4,2.827 l 5.65724,5.65828 c 0.78347,0.78348 2.0449,0.78185 2.82837,-0.002 l 4.84802,-4.84768 a 22,22 0 0 0 10.38496,2.78399 l 1.77433,6.62188 c 0.28677,1.07024 1.37924,1.70098 2.44949,1.41421 l 7.7274,-2.07055 c 1.07025,-0.28677 1.70099,-1.37925 1.41422,-2.44949 l -1.77028,-6.60678 a 22,22 0 0 0 7.61949,-7.61231 l 6.60045,1.76793 c 1.07024,0.28677 2.16349,-0.34254 2.45026,-1.41279 l 2.07017,-7.72883 c 0.28677,-1.07025 -0.34392,-2.16109 -1.41416,-2.44787 l -6.62902,-1.77645 a 22,22 0 0 0 -0.71903,-5.36993 22,22 0 0 0 -2.05573,-5.015799 l 4.84613,-4.847171 c 0.78347,-0.783472 0.78424,-2.043519 7.7e-4,-2.826994 l -5.65724,-5.658288 c -0.78347,-0.783474 -2.0449,-0.781848 -2.82837,0.0016 l -4.84802,4.847675 a 22,22 0 0 0 -10.38496,-2.78399 l -1.77433,-6.621874 c -0.28677,-1.070246 -1.37924,-1.700985 -2.44949,-1.414214 z m 9.04008,18.283241 a 10,10 0 0 1 12.24745,7.071068 10,10 0 0 1 -7.07107,12.24745 10,10 0 0 1 -12.24745,-7.07107 10,10 0 0 1 7.07107,-12.247448 z"
         id="path1802"
         inkscape:connector-curvature="0" /><path
         inkscape:connector-curvature="0"
         id="path1835"
         d="m 9.371724,54.057501 c -1.070246,0.286772 -1.700985,1.379244 -1.414214,2.44949 l 1.770283,6.606782 a 22,22 0 0 0 -7.619497,7.612313 l -6.60045,-1.767934 c -1.07024,-0.286774 -2.163484,0.342535 -2.450256,1.412781 l -2.070168,7.72884 c -0.286771,1.070246 0.343921,2.161097 1.41416,2.447867 l 6.629019,1.77646 a 22,22 0 0 0 0.719029,5.36992 22,22 0 0 0 2.055731,5.0158 l -4.846136,4.84717 c -0.783469,0.78347 -0.784241,2.04352 -7.66e-4,2.827 l 5.657237,5.65828 c 0.783475,0.78348 2.044906,0.78185 2.828374,-0.002 l 4.848023,-4.84768 a 22,22 0 0 0 10.384958,2.78399 l 1.774326,6.62188 c 0.286772,1.07024 1.379244,1.70098 2.44949,1.41421 l 7.727407,-2.07055 c 1.070245,-0.28677 1.700985,-1.37925 1.414213,-2.44949 l -1.770281,-6.60678 a 22,22 0 0 0 7.619497,-7.61231 l 6.600448,1.76793 c 1.07024,0.28677 2.163485,-0.34254 2.450256,-1.41279 l 2.07017,-7.72883 c 0.28677,-1.07025 -0.343921,-2.16109 -1.414161,-2.44787 l -6.629019,-1.77645 a 22,22 0 0 0 -0.71903,-5.369929 22,22 0 0 0 -2.055732,-5.0158 l 4.846138,-4.847171 c 0.783469,-0.783472 0.784241,-2.043519 7.67e-4,-2.826994 l -5.657239,-5.658288 c -0.783474,-0.783474 -2.044906,-0.781848 -2.828374,0.0016 l -4.848022,4.847675 A 22,22 0 0 0 21.322947,60.023037 l -1.774326,-6.621874 c -0.286772,-1.070246 -1.379244,-1.700985 -2.44949,-1.414214 z m 9.040085,18.283241 A 10,10 0 0 1 30.659257,79.41181 10,10 0 0 1 23.588189,91.65926 10,10 0 0 1 11.340741,84.58819 10,10 0 0 1 18.411809,72.340742 Z"
         style="display:inline;opacity:1;vector-effect:none;fill:#d8dddf;fill-opacity:1;fill-rule:nonzero;stroke:#657580;stroke-width:1;stroke-linecap:butt;stroke-linejoin:round;stroke-miterlimit:4;stroke-dasharray:none;stroke-dashoffset:0;stroke-opacity:1;paint-order:fill markers stroke" /><path
         inkscape:connector-curvature="0"
         id="path1837"
         d="m 70.551358,19.279885 c -0.286772,1.070245 0.343968,2.162718 1.414214,2.449489 l 6.606781,1.770283 a 22,22 0 0 0 2.782687,10.404838 l -4.831299,4.832191 c -0.783473,0.783468 -0.785098,2.044898 -0.0016,2.828374 l 5.658289,5.657238 c 0.78347,0.783475 2.04352,0.782702 2.82699,-7.66e-4 l 4.85297,-4.852671 a 22,22 0 0 0 5.01,2.062265 22,22 0 0 0 5.37169,0.727582 l 1.7747,6.620467 c 0.28677,1.07024 1.37761,1.700932 2.44787,1.41416 l 7.72883,-2.070172 c 1.07025,-0.286769 1.69955,-1.380013 1.41278,-2.450254 l -1.7742,-6.622345 a 22,22 0 0 0 7.60348,-7.601644 l 6.62188,1.774326 c 1.07025,0.28677 2.16272,-0.343968 2.44949,-1.414213 l 2.07055,-7.727405 c 0.28677,-1.070247 -0.34396,-2.162721 -1.41421,-2.449492 l -6.60678,-1.770281 a 22,22 0 0 0 -2.78278,-10.404819 l 4.83129,-4.832192 c 0.78347,-0.783468 0.78511,-2.044901 0.002,-2.828376 l -5.65828,-5.657236 c -0.78348,-0.783475 -2.04353,-0.782701 -2.827,7.66e-4 l -4.85297,4.852671 A 22,22 0 0 0 106.25845,1.93038 22,22 0 0 0 100.88677,1.202796 l -1.7747,-6.620464 C 98.8253,-6.487909 97.73445,-7.118602 96.66421,-6.83183 l -7.72885,2.070169 c -1.07025,0.286772 -1.69956,1.380017 -1.41278,2.450255 l 1.7742,6.622349 a 22,22 0 0 0 -7.6035,7.601647 L 75.0714,10.138264 c -1.070245,-0.286771 -2.162718,0.343968 -2.449489,1.414214 z m 20.353792,1.312676 a 10,10 0 0 1 12.24745,-7.071067 10,10 0 0 1 7.07106,12.247449 10,10 0 0 1 -12.24744,7.071068 10,10 0 0 1 -7.07107,-12.24745 z"
         style="display:inline;opacity:1;vector-effect:none;fill:#d8dddf;fill-opacity:1;fill-rule:nonzero;stroke:#657580;stroke-width:1;stroke-linecap:butt;stroke-linejoin:round;stroke-miterlimit:4;stroke-dasharray:none;stroke-dashoffset:0;stroke-opacity:1;paint-order:fill markers stroke" /><path
         style="display:inline;opacity:1;vector-effect:none;fill:#d8dddf;fill-opacity:1;fill-rule:nonzero;stroke:#657580;stroke-width:1;stroke-linecap:butt;stroke-linejoin:round;stroke-miterlimit:4;stroke-dasharray:none;stroke-dashoffset:0;stroke-opacity:1;paint-order:fill markers stroke"
         d="m 37.422524,140.91839 c -0.286774,1.07024 0.343966,2.16272 1.414212,2.44949 l 6.606781,1.77028 a 22,22 0 0 0 2.78269,10.40485 l -4.831301,4.83218 c -0.783474,0.78346 -0.7851,2.0449 -0.0016,2.82838 l 5.658291,5.65724 c 0.783473,0.78347 2.043518,0.7827 2.826993,-7.7e-4 l 4.852965,-4.85267 a 22,22 0 0 0 5.010024,2.06225 22,22 0 0 0 5.371673,0.72759 l 1.774708,6.62045 c 0.286775,1.07026 1.377619,1.70094 2.447869,1.41417 l 7.728833,-2.07017 c 1.070248,-0.28677 1.699558,-1.38001 1.412788,-2.45025 l -1.774201,-6.62235 a 22,22 0 0 0 7.603481,-7.60164 l 6.62188,1.77433 c 1.07024,0.28677 2.16272,-0.34397 2.44949,-1.41421 l 2.07055,-7.72742 c 0.28677,-1.07024 -0.34397,-2.16272 -1.41422,-2.44949 l -6.60677,-1.77028 a 22,22 0 0 0 -2.78269,-10.40484 l 4.83129,-4.8322 c 0.78348,-0.78346 0.7851,-2.04489 0.002,-2.82837 l -5.65827,-5.65722 c -0.78348,-0.78348 -2.04353,-0.78271 -2.827,7.5e-4 l -4.852967,4.85267 a 22,22 0 0 0 -5.010028,-2.06226 22,22 0 0 0 -5.371678,-0.72759 l -1.774702,-6.62046 c -0.286776,-1.07024 -1.377621,-1.70093 -2.447867,-1.41416 l -7.72884,2.07017 c -1.070245,0.28677 -1.699555,1.38001 -1.41278,2.45027 l 1.774198,6.62233 a 22,22 0 0 0 -7.603483,7.60166 l -6.621877,-1.77433 c -1.070245,-0.28677 -2.162718,0.34396 -2.449491,1.4142 z m 20.353792,1.31268 a 10,10 0 0 1 12.247446,-7.07107 10,10 0 0 1 7.07107,12.24745 10,10 0 0 1 -12.247451,7.07107 10,10 0 0 1 -7.071065,-12.24745 z"
         id="path1839"
         inkscape:connector-curvature="0" /><circle
         style="display:inline;opacity:1;vector-effect:none;fill:#cda949;fill-opacity:1;fill-rule:nonzero;stroke:none;stroke-width:4;stroke-linecap:butt;stroke-linejoin:round;stroke-miterlimit:4;stroke-dasharray:none;stroke-dashoffset:0;stroke-opacity:1;paint-order:fill markers stroke"
         id="circle1852"
         cx="84"
         cy="84"
         r="64" /><path
         style="display:inline;opacity:1;vector-effect:none;fill:#f7ffff;fill-opacity:1;fill-rule:nonzero;stroke:#373737;stroke-width:6;stroke-linecap:butt;stroke-linejoin:round;stroke-miterlimit:4;stroke-dasharray:none;stroke-dashoffset:0;stroke-opacity:1;paint-order:fill markers stroke"
         d="m 77.064453,-26.896484 c -0.132813,0.0081 -0.26661,0.02861 -0.400391,0.06445 l -7.728515,2.070312 c -1.07025,0.286772 -1.69889,1.380934 -1.412109,2.451172 l 1.773437,6.621094 a 22,22 0 0 0 -7.603516,7.6015624 l -6.621093,-1.7734375 c -1.070245,-0.2867709 -2.164401,0.3438165 -2.451172,1.4140625 l -2.070313,7.72656248 C 50.264009,0.34954187 50.894598,1.4417446 51.964844,1.7285156 L 58.572266,3.5 a 22,22 0 0 0 2.783203,10.404297 l -4.832031,4.832031 c -0.783474,0.783468 -0.785452,2.044649 -0.002,2.828125 l 5.658204,5.658203 c 0.783469,0.783475 2.044654,0.781515 2.828124,-0.002 l 4.853516,-4.851562 a 22,22 0 0 0 5.009766,2.0625 22,22 0 0 0 5.371094,0.726562 l 1.77539,6.621094 c 0.28677,1.07024 1.377006,1.700834 2.447266,1.414062 L 92.193313,31.123 c 1.07025,-0.286769 1.69888,-1.378978 1.41211,-2.449219 l -1.773438,-6.623047 a 22,22 0 0 0 7.603516,-7.601562 l 6.621089,1.773437 c 1.07025,0.28677 2.1644,-0.343817 2.45117,-1.414062 l 2.07031,-7.7265628 c 0.28677,-1.0702469 -0.34381,-2.1624477 -1.41406,-2.4492187 L 102.55664,2.8613281 A 22,22 0 0 0 99.773438,-7.5429688 L 104.60547,-12.375 c 0.78347,-0.783468 0.78506,-2.04465 0.002,-2.828125 l -5.658201,-5.658203 c -0.78348,-0.783475 -2.044655,-0.781514 -2.828125,0.002 l -4.851563,4.851563 a 22,22 0 0 0 -5.011719,-2.0625 22,22 0 0 0 -5.371093,-0.726563 l -1.775391,-6.621094 c -0.250924,-0.936461 -1.117181,-1.535279 -2.046875,-1.478515 z m 3.410156,20.0781246 A 10,10 0 0 1 83.152344,-6.4785156 10,10 0 0 1 90.224609,5.7695312 10,10 0 0 1 77.976562,12.839844 10,10 0 0 1 70.904297,0.59179688 10,10 0 0 1 80.474609,-6.8183594 Z M 70.087891,24.261719 c -0.930011,-0.05675 -1.797905,0.544004 -2.048829,1.480469 l -1.699218,6.345703 c -4.44051,-0.330296 -8.806649,0.276538 -12.859375,1.691406 l -3.283203,-5.689453 c -0.276999,-0.479779 -0.721099,-0.801295 -1.214844,-0.933594 -0.493745,-0.132298 -1.037799,-0.07388 -1.517578,0.203125 l -6.929688,4 c -0.959556,0.554 -1.286423,1.772866 -0.732422,2.732422 l 3.285157,5.6875 c -3.251675,2.802329 -5.960323,6.280275 -7.894532,10.291015 l -6.345703,-1.701171 c -1.070246,-0.286771 -2.162447,0.343816 -2.449218,1.414062 l -2.070313,7.728516 c -0.286772,1.070245 0.343817,2.162447 1.414063,2.449219 l 6.345703,1.699218 c -0.330296,4.44051 0.276537,8.806645 1.691406,12.859375 l -5.689453,3.283203 c -0.959559,0.554 -1.284468,1.772862 -0.730469,2.732422 l 4,6.929688 c 0.553999,0.95956 1.772865,1.286432 2.732422,0.732422 l 5.6875,-3.285157 c 2.802329,3.25167 6.280275,5.960312 10.291015,7.894532 l -1.701171,6.345703 c -0.286771,1.070236 0.343816,2.162446 1.414062,2.449216 l 7.728516,2.07032 c 1.070245,0.28677 2.162448,-0.34383 2.449219,-1.41407 l 1.699218,-6.345701 c 4.44051,0.3303 8.806645,-0.276536 12.859375,-1.691406 l 3.283203,5.689453 c 0.554,0.959564 1.772862,1.284464 2.732422,0.730464 l 6.929688,-3.999995 c 0.95956,-0.55401 1.286422,-1.772852 0.732422,-2.732422 l -3.285157,-5.6875 c 3.25167,-2.80233 5.960312,-6.280275 7.894532,-10.291015 l 6.345703,1.701171 c 1.070236,0.28677 2.162446,-0.343822 2.449216,-1.414062 l 2.07032,-7.728516 c 0.28677,-1.07025 -0.34383,-2.162449 -1.41407,-2.449219 l -6.345701,-1.699218 c 0.3303,-4.44051 -0.276536,-8.806649 -1.691406,-12.859375 l 5.689453,-3.283203 c 0.959564,-0.553998 1.284474,-1.772865 0.730464,-2.732422 l -3.999995,-6.929688 c -0.277,-0.47978 -0.721104,-0.801295 -1.214844,-0.933594 -0.49375,-0.1323 -1.037798,-0.07583 -1.517578,0.201172 l -5.6875,3.285157 c -2.80233,-3.251675 -6.280275,-5.960323 -10.291015,-7.894532 l 1.701171,-6.345703 c 0.28677,-1.070246 -0.343812,-2.162447 -1.414062,-2.449218 l -7.728516,-2.070313 c -0.133781,-0.03585 -0.267532,-0.0583 -0.40039,-0.06641 z M -2.5,31.921875 c -0.1328583,0.0081 -0.2666099,0.02861 -0.4003906,0.06445 l -7.7285154,2.070313 c -1.070246,0.286772 -1.700834,1.380926 -1.414063,2.451171 l 1.771485,6.605469 a 22,22 0 0 0 -7.621094,7.613281 l -6.59961,-1.767578 c -1.07024,-0.286774 -2.164399,0.341864 -2.451171,1.41211 l -2.06836,7.728515 c -0.286771,1.070246 0.343824,2.160496 1.414063,2.447266 l 6.628906,1.777344 a 22,22 0 0 0 0.71875,5.36914 22,22 0 0 0 2.054688,5.015625 l -4.845704,4.847657 c -0.783469,0.78347 -0.783475,2.044645 0,2.828125 l 5.65625,5.658203 c 0.783475,0.78348 2.044657,0.781897 2.828125,-0.002 l 4.8496098,-4.847657 a 22,22 0 0 0 10.38476558,2.783203 l 1.77343752,6.621094 c 0.286772,1.07024 1.3789727,1.700833 2.4492187,1.414063 l 7.7285154,-2.070313 c 1.070245,-0.28677 1.700835,-1.378978 1.414063,-2.449218 l -1.771485,-6.605469 a 22,22 0 0 0 7.621094,-7.613281 l 6.59961,1.767578 c 1.070239,0.28677 2.1644,-0.34186 2.451171,-1.41211 l 2.06836,-7.728515 c 0.28677,-1.07025 -0.343823,-2.162439 -1.414063,-2.449219 L 22.96875,61.675781 A 22,22 0 0 0 22.25,56.304688 22,22 0 0 0 20.195312,51.289062 l 4.845704,-4.845703 c 0.783469,-0.783472 0.783474,-2.04465 0,-2.828125 l -5.65625,-5.658203 c -0.783474,-0.783474 -2.044657,-0.781495 -2.828125,0.002 l -4.84961,4.847657 A 22,22 0 0 0 1.3222656,40.023438 L -0.45117188,33.400391 C -0.70209737,32.463925 -1.5699921,31.86512 -2.5,31.921875 Z m 126,4 c -0.13286,0.0081 -0.26661,0.02861 -0.40039,0.06445 l -7.72852,2.070313 c -1.07025,0.286772 -1.70083,1.380926 -1.41406,2.451171 l 1.77149,6.605469 a 22,22 0 0 0 -7.6211,7.613281 l -6.59961,-1.767578 c -1.07024,-0.286774 -2.164399,0.341864 -2.451169,1.41211 l -2.06836,7.728515 c -0.28677,1.07025 0.343823,2.160496 1.414063,2.447266 l 6.628906,1.777344 a 22,22 0 0 0 0.71875,5.36914 22,22 0 0 0 2.05469,5.015625 l -4.84571,4.847657 c -0.78347,0.78347 -0.78347,2.044645 0,2.828125 l 5.65625,5.658203 c 0.78347,0.78348 2.04466,0.781897 2.82813,-0.002 l 4.84961,-4.847657 a 22,22 0 0 0 10.38476,2.783203 l 1.77344,6.621094 c 0.28677,1.07024 1.37897,1.700833 2.44922,1.414063 l 7.72852,-2.070313 c 1.07025,-0.28677 1.70083,-1.378978 1.41406,-2.449218 l -1.77149,-6.605469 a 22,22 0 0 0 7.6211,-7.613281 l 6.59961,1.767578 c 1.07024,0.28677 2.1644,-0.34186 2.45117,-1.41211 l 2.06836,-7.728515 c 0.28677,-1.07025 -0.34382,-2.162439 -1.41406,-2.449219 l -6.62891,-1.775391 A 22,22 0 0 0 148.25,60.304688 22,22 0 0 0 146.19531,55.289062 l 4.84571,-4.845703 c 0.78347,-0.783472 0.78347,-2.04465 0,-2.828125 l -5.65625,-5.658203 c -0.78347,-0.783474 -2.04466,-0.781495 -2.82813,0.002 l -4.84961,4.847657 a 22,22 0 0 0 -10.38476,-2.783203 l -1.77344,-6.623047 C 125.2979,36.463925 124.43001,35.86512 123.5,35.921875 Z m -59.777344,8.080078 c 1.797953,-0.02692 3.629178,0.190963 5.453125,0.679688 5.10983,1.369174 9.208062,4.608167 11.794922,8.773437 l -13.638672,7.875 a 4,4 0 0 0 -1.814453,-1.064453 4,4 0 0 0 -2.101562,0.01563 L 55.203125,46.056641 c 2.619474,-1.285573 5.522943,-2.009826 8.519531,-2.054688 z m -10.267578,3.027344 8.228516,14.251953 a 4,4 0 0 0 -1.064453,1.8125 4,4 0 0 0 0.01563,2.103516 l -14.251954,8.228515 c -2.313799,-4.32292 -3.070344,-9.491731 -1.701171,-14.601562 1.369174,-5.109827 4.608167,-9.20806 8.773437,-11.794922 z M 1.3828125,52.007812 A 10,10 0 0 1 10.660156,59.412109 10,10 0 0 1 3.5878906,71.660156 10,10 0 0 1 -8.6601562,64.587891 10,10 0 0 1 -1.5878906,52.339844 10,10 0 0 1 1.3828125,52.007812 Z m 80.5605465,3.195313 c 2.05691,4.191158 2.67826,9.108796 1.375,13.972656 -1.30327,4.86386 -4.300814,8.812873 -8.177734,11.414063 L 67.283203,66.978516 a 4,4 0 0 0 1.0625,-1.814454 4,4 0 0 0 -0.01367,-2.101562 z m 45.439451,0.804687 a 10,10 0 0 1 9.27735,7.404297 10,10 0 0 1 -7.07227,12.248047 10,10 0 0 1 -12.24805,-7.072265 10,10 0 0 1 7.07227,-12.248047 10,10 0 0 1 2.9707,-0.332032 z M 61.634766,66.929688 a 4,4 0 0 0 1.8125,1.0625 4,4 0 0 0 2.103515,-0.01367 l 7.875,13.638672 c -4.32292,2.3138 -9.491731,3.070341 -14.601562,1.701171 -4.863857,-1.30327 -8.812873,-4.300814 -11.414063,-8.177734 z M 43.935547,94.740234 c -0.132814,0.0081 -0.26661,0.03056 -0.400391,0.06641 l -7.728515,2.070312 c -1.070245,0.28677 -1.698885,1.378959 -1.41211,2.449219 l 1.773438,6.623045 a 22,22 0 0 0 -7.603516,7.60156 l -6.621094,-1.77344 c -1.070245,-0.28677 -2.162445,0.34383 -2.449218,1.41407 l -2.072266,7.72656 c -0.286774,1.07024 0.343817,2.16245 1.414063,2.44922 l 6.607421,1.77148 a 22,22 0 0 0 2.783203,10.4043 l -4.832031,4.83203 c -0.783474,0.78346 -0.785453,2.04465 -0.002,2.82812 l 5.658203,5.65821 c 0.783473,0.78347 2.04465,0.78151 2.828125,-0.002 l 4.853516,-4.85157 a 22,22 0 0 0 5.009766,2.0625 22,22 0 0 0 5.371093,0.72657 l 1.775391,6.62109 c 0.286775,1.07026 1.377015,1.70083 2.447266,1.41406 l 7.728515,-2.07031 c 1.070248,-0.28677 1.698879,-1.38093 1.412109,-2.45117 l -1.773437,-6.6211 a 22,22 0 0 0 7.603516,-7.60156 l 6.621093,1.77344 c 1.07024,0.28677 2.164402,-0.34382 2.451172,-1.41406 l 2.070313,-7.72657 c 0.28677,-1.07024 -0.343813,-2.16245 -1.414063,-2.44922 L 69.427734,124.5 a 22,22 0 0 0 -2.783203,-10.4043 l 4.832031,-4.83203 c 0.78348,-0.78346 0.785054,-2.04464 0.002,-2.82812 l -5.658204,-5.65821 c -0.783479,-0.783476 -2.044655,-0.781503 -2.828124,0.002 l -4.851563,4.85156 a 22,22 0 0 0 -5.009766,-2.0625 22,22 0 0 0 -5.373047,-0.72656 l -1.773437,-6.621097 c -0.250929,-0.93646 -1.119132,-1.537232 -2.048828,-1.480469 z m 3.410156,20.080076 a 10,10 0 0 1 2.677735,0.33985 10,10 0 0 1 7.072265,12.24804 10,10 0 0 1 -12.248047,7.07032 10,10 0 0 1 -7.072265,-12.24805 10,10 0 0 1 9.570312,-7.41016 z"
         transform="translate(20,20)"
         id="path1890"
         inkscape:connector-curvature="0" /><path
         inkscape:connector-curvature="0"
         id="path1854"
         d="m 90.48906,44.327691 c -1.07025,-0.286772 -2.16272,0.343968 -2.44949,1.414213 l -1.70052,6.346434 c -4.44051,-0.330296 -8.805393,0.275751 -12.858119,1.690619 l -3.28418,-5.688365 c -0.276999,-0.479779 -0.719977,-0.801547 -1.213722,-0.933846 -0.493745,-0.132298 -1.038258,-0.07513 -1.518037,0.201873 l -6.929855,4.000954 c -0.959556,0.554 -1.285973,1.772203 -0.731972,2.731759 l 3.284179,5.688366 c -3.251675,2.802329 -5.958968,6.279404 -7.893177,10.290145 l -6.346434,-1.700522 c -1.070246,-0.286771 -2.162718,0.343968 -2.44949,1.414214 l -2.070552,7.727407 c -0.286772,1.070245 0.343968,2.162718 1.414213,2.449489 l 6.346434,1.700519 c -0.330296,4.44051 0.275751,8.80539 1.69062,12.85812 l -5.688365,3.28418 c -0.959559,0.554 -1.285973,1.7722 -0.731974,2.73176 l 4.000954,6.92985 c 0.553999,0.95956 1.772202,1.28598 2.731759,0.73197 l 5.688366,-3.28417 c 2.802329,3.25167 6.279404,5.95896 10.290145,7.89318 l -1.700522,6.34643 c -0.286771,1.07024 0.343968,2.16272 1.414214,2.44949 l 7.727407,2.07055 c 1.070245,0.28677 2.162718,-0.34397 2.449489,-1.41421 l 1.700519,-6.34644 c 4.44051,0.3303 8.80539,-0.27575 12.85812,-1.69062 l 3.28418,5.68837 c 0.554,0.95956 1.7722,1.28597 2.73176,0.73197 l 6.92985,-4.00095 c 0.95956,-0.55401 1.28598,-1.7722 0.73198,-2.73177 l -3.28418,-5.68836 c 3.25167,-2.80233 5.95896,-6.2794 7.89318,-10.29014 l 6.34643,1.70052 c 1.07024,0.28677 2.16272,-0.34397 2.44949,-1.41421 l 2.07055,-7.72741 c 0.28677,-1.07025 -0.34397,-2.16272 -1.41421,-2.44949 l -6.34644,-1.70052 c 0.3303,-4.44051 -0.27575,-8.805393 -1.69062,-12.858119 l 5.68837,-3.28418 c 0.95956,-0.553998 1.28598,-1.772202 0.73197,-2.731759 l -4.00095,-6.929854 c -0.277,-0.47978 -0.71998,-0.801547 -1.21372,-0.933845 -0.49375,-0.1323 -1.03826,-0.07513 -1.51804,0.201871 l -5.68837,3.28418 c -2.80233,-3.251675 -6.2794,-5.958968 -10.29014,-7.893177 l 1.70052,-6.346434 c 0.28677,-1.070246 -0.34397,-2.162718 -1.41422,-2.44949 z m -1.31268,20.353792 c 5.10983,1.369174 9.20833,4.608379 11.79519,8.773649 L 87.33193,81.32998 a 4,4 0 0 0 -1.81369,-1.06427 4,4 0 0 0 -2.10284,0.0148 L 75.203571,66.057244 c 4.191158,-2.056917 9.108949,-2.679027 13.972809,-1.375761 z m -15.721248,2.34695 8.228408,14.252007 a 4,4 0 0 0 -1.06428,1.81369 4,4 0 0 0 0.0149,2.10284 l -14.252012,8.2284 c -2.313799,-4.32292 -3.069783,-9.49192 -1.70061,-14.601751 1.369174,-5.109827 4.608379,-9.208324 8.773649,-11.795186 z m 28.487628,8.175138 c 2.05691,4.191158 2.67902,9.108949 1.37576,13.972809 -1.30327,4.86386 -4.30093,8.81174 -8.17785,11.41293 L 87.28239,86.97838 a 4,4 0 0 0 1.06428,-1.81369 4,4 0 0 0 -0.0148,-2.10284 z M 81.634,86.92884 a 4,4 0 0 0 1.81369,1.06427 4,4 0 0 0 2.10284,-0.0148 l 7.87484,13.63964 c -4.32292,2.3138 -9.49192,3.06978 -14.601751,1.70061 -4.863857,-1.30327 -8.811738,-4.30093 -11.412928,-8.17785 z"
         style="display:inline;opacity:1;vector-effect:none;fill:#4c4c4c;fill-opacity:1;fill-rule:nonzero;stroke:none;stroke-width:1;stroke-linecap:butt;stroke-linejoin:round;stroke-miterlimit:4;stroke-dasharray:none;stroke-dashoffset:0;stroke-opacity:1;paint-order:fill markers stroke" /><path
         id="path1862"
         style="display:inline;opacity:1;vector-effect:none;fill:#655b51;fill-opacity:1;fill-rule:nonzero;stroke:none;stroke-width:1;stroke-linecap:butt;stroke-linejoin:round;stroke-miterlimit:4;stroke-dasharray:none;stroke-dashoffset:0;stroke-opacity:1;paint-order:fill markers stroke"
         d="m 37.422524,140.91839 c -0.286774,1.07024 0.343966,2.16272 1.414212,2.44949 l 6.606781,1.77028 a 22,22 0 0 0 2.78269,10.40485 l -4.831301,4.83218 c -0.783474,0.78346 -0.7851,2.0449 -0.0016,2.82838 l 5.658291,5.65724 c 0.783473,0.78347 2.043518,0.7827 2.826993,-7.7e-4 l 4.852965,-4.85267 a 22,22 0 0 0 5.010024,2.06225 22,22 0 0 0 5.371673,0.72759 l 1.774708,6.62045 c 0.286775,1.07026 1.377619,1.70094 2.447869,1.41417 l 7.728833,-2.07017 c 1.070248,-0.28677 1.699558,-1.38001 1.412788,-2.45025 l -1.774201,-6.62235 a 22,22 0 0 0 7.603481,-7.60164 l 6.62188,1.77433 c 1.07024,0.28677 2.16272,-0.34397 2.44949,-1.41421 l 2.07055,-7.72742 c 0.28677,-1.07024 -0.34397,-2.16272 -1.41422,-2.44949 l -6.60677,-1.77028 a 22,22 0 0 0 -2.78269,-10.40484 l 4.83129,-4.8322 c 0.78348,-0.78346 0.7851,-2.04489 0.002,-2.82837 l -5.65827,-5.65722 c -0.78348,-0.78348 -2.04353,-0.78271 -2.827,7.5e-4 l -4.852967,4.85267 a 22,22 0 0 0 -5.010028,-2.06226 22,22 0 0 0 -5.371678,-0.72759 l -1.774702,-6.62046 c -0.286776,-1.07024 -1.377621,-1.70093 -2.447867,-1.41416 l -7.72884,2.07017 c -1.070245,0.28677 -1.699555,1.38001 -1.41278,2.45027 l 1.774198,6.62233 a 22,22 0 0 0 -7.603483,7.60166 l -6.621877,-1.77433 c -1.070245,-0.28677 -2.162718,0.34396 -2.449491,1.4142 z m 20.353792,1.31268 a 10,10 0 0 1 12.247446,-7.07107 10,10 0 0 1 7.07107,12.24745 10,10 0 0 1 -12.247451,7.07107 10,10 0 0 1 -7.071065,-12.24745 z M 70.551358,19.279885 c -0.286772,1.070245 0.343968,2.162718 1.414214,2.449489 l 6.606781,1.770283 a 22,22 0 0 0 2.782687,10.404838 l -4.831299,4.832191 c -0.783473,0.783468 -0.785098,2.044898 -0.0016,2.828374 l 5.658289,5.657238 c 0.78347,0.783475 2.04352,0.782702 2.82699,-7.66e-4 l 4.85297,-4.852671 a 22,22 0 0 0 5.01,2.062265 22,22 0 0 0 5.37169,0.727582 l 1.7747,6.620467 c 0.28677,1.07024 1.37761,1.700932 2.44787,1.41416 l 7.72883,-2.070172 c 1.07025,-0.286769 1.69955,-1.380013 1.41278,-2.450254 l -1.7742,-6.622345 a 22,22 0 0 0 7.60348,-7.601644 l 6.62188,1.774326 c 1.07025,0.28677 2.16272,-0.343968 2.44949,-1.414213 l 2.07055,-7.727405 c 0.28677,-1.070247 -0.34396,-2.162721 -1.41421,-2.449492 l -6.60678,-1.770281 a 22,22 0 0 0 -2.78278,-10.404819 l 4.83129,-4.832192 c 0.78347,-0.783468 0.78511,-2.044901 0.002,-2.828376 l -5.65828,-5.657236 c -0.78348,-0.783475 -2.04353,-0.782701 -2.827,7.66e-4 l -4.85297,4.852671 A 22,22 0 0 0 106.25845,1.93038 22,22 0 0 0 100.88677,1.202796 l -1.7747,-6.620464 C 98.8253,-6.487909 97.73445,-7.118602 96.66421,-6.83183 l -7.72885,2.070169 c -1.07025,0.286772 -1.69956,1.380017 -1.41278,2.450255 l 1.7742,6.622349 a 22,22 0 0 0 -7.6035,7.601647 L 75.0714,10.138264 c -1.070245,-0.286771 -2.162718,0.343968 -2.449489,1.414214 z m 20.353792,1.312676 a 10,10 0 0 1 12.24745,-7.071067 10,10 0 0 1 7.07106,12.247449 10,10 0 0 1 -12.24744,7.071068 10,10 0 0 1 -7.07107,-12.24745 z M 9.371724,54.057501 c -1.070246,0.286772 -1.700985,1.379244 -1.414214,2.44949 l 1.770283,6.606782 a 22,22 0 0 0 -7.619497,7.612313 l -6.60045,-1.767934 c -1.07024,-0.286774 -2.163484,0.342535 -2.450256,1.412781 l -2.070168,7.72884 c -0.286771,1.070246 0.343921,2.161097 1.41416,2.447867 l 6.629019,1.77646 a 22,22 0 0 0 0.719029,5.36992 22,22 0 0 0 2.055731,5.0158 l -4.846136,4.84717 c -0.783469,0.78347 -0.784241,2.04352 -7.66e-4,2.827 l 5.657237,5.65828 c 0.783475,0.78348 2.044906,0.78185 2.828374,-0.002 l 4.848023,-4.84768 a 22,22 0 0 0 10.384958,2.78399 l 1.774326,6.62188 c 0.286772,1.07024 1.379244,1.70098 2.44949,1.41421 l 7.727407,-2.07055 c 1.070245,-0.28677 1.700985,-1.37925 1.414213,-2.44949 l -1.770281,-6.60678 a 22,22 0 0 0 7.619497,-7.61231 l 6.600448,1.76793 c 1.07024,0.28677 2.163485,-0.34254 2.450256,-1.41279 l 2.07017,-7.72883 c 0.28677,-1.07025 -0.343921,-2.16109 -1.414161,-2.44787 l -6.629019,-1.77645 a 22,22 0 0 0 -0.71903,-5.369929 22,22 0 0 0 -2.055732,-5.0158 l 4.846138,-4.847171 c 0.783469,-0.783472 0.784241,-2.043519 7.67e-4,-2.826994 l -5.657239,-5.658288 c -0.783474,-0.783474 -2.044906,-0.781848 -2.828374,0.0016 l -4.848022,4.847675 A 22,22 0 0 0 21.322947,60.023037 l -1.774326,-6.621874 c -0.286772,-1.070246 -1.379244,-1.700985 -2.44949,-1.414214 z m 9.040085,18.283241 A 10,10 0 0 1 30.659257,79.41181 10,10 0 0 1 23.588189,91.65926 10,10 0 0 1 11.340741,84.58819 10,10 0 0 1 18.411809,72.340742 Z M 135.37173,58.057501 c -1.07025,0.286772 -1.70099,1.379244 -1.41422,2.44949 l 1.77028,6.606782 a 22,22 0 0 0 -7.61949,7.612313 l -6.60045,-1.767934 c -1.07024,-0.286774 -2.16349,0.342535 -2.45026,1.412781 l -2.07017,7.728837 c -0.28677,1.07025 0.34392,2.1611 1.41416,2.44787 l 6.62902,1.77646 a 22,22 0 0 0 0.71903,5.36992 22,22 0 0 0 2.05573,5.0158 l -4.84613,4.84717 c -0.78347,0.78347 -0.78424,2.04352 -7.7e-4,2.827 l 5.65724,5.65828 c 0.78347,0.78348 2.0449,0.78185 2.82837,-0.002 l 4.84802,-4.84768 a 22,22 0 0 0 10.38496,2.78399 l 1.77433,6.62188 c 0.28677,1.07024 1.37924,1.70098 2.44949,1.41421 l 7.7274,-2.07055 c 1.07025,-0.28677 1.70099,-1.37925 1.41422,-2.44949 l -1.77028,-6.60678 a 22,22 0 0 0 7.61949,-7.61231 l 6.60045,1.76793 c 1.07024,0.28677 2.16349,-0.34254 2.45026,-1.41279 l 2.07017,-7.72883 c 0.28677,-1.07025 -0.34392,-2.16109 -1.41416,-2.44787 l -6.62902,-1.77645 a 22,22 0 0 0 -0.71903,-5.36993 22,22 0 0 0 -2.05573,-5.015799 l 4.84613,-4.847171 c 0.78347,-0.783472 0.78424,-2.043519 7.7e-4,-2.826994 l -5.65724,-5.658288 c -0.78347,-0.783474 -2.0449,-0.781848 -2.82837,0.0016 l -4.84802,4.847675 a 22,22 0 0 0 -10.38496,-2.78399 l -1.77433,-6.621874 c -0.28677,-1.070246 -1.37924,-1.700985 -2.44949,-1.414214 z m 9.04008,18.283241 a 10,10 0 0 1 12.24745,7.071068 10,10 0 0 1 -7.07107,12.24745 10,10 0 0 1 -12.24745,-7.07107 10,10 0 0 1 7.07107,-12.247448 z" /><circle
         style="display:inline;opacity:0.5;vector-effect:none;fill:none;fill-opacity:1;fill-rule:nonzero;stroke:#937253;stroke-width:6;stroke-linecap:butt;stroke-linejoin:round;stroke-miterlimit:4;stroke-dasharray:none;stroke-dashoffset:0;stroke-opacity:1;paint-order:fill markers stroke"
         id="path1902"
         cx="84"
         cy="84"
         r="58" /></g><circle
       r="60"
       cy="64"
       cx="64"
       id="circle1210"
       style="display:inline;opacity:1;vector-effect:none;fill:none;fill-opacity:1;fill-rule:nonzero;stroke:#937253;stroke-width:4;stroke-linecap:butt;stroke-linejoin:round;stroke-miterlimit:4;stroke-dasharray:none;stroke-dashoffset:0;stroke-opacity:1;paint-order:fill markers stroke" /><image
       width="576"
       height="576"
       preserveAspectRatio="none"
       style="image-rendering:optimizeSpeed"
       xlink:href="../app/src/main/res/drawable-nodpi/a__0h_h1.png"
       id="image1"
       x="-541.14423"
       y="-696.7077" /></g></svg>
