<?xml version="1.0" encoding="UTF-8" standalone="no"?>
<!-- Created with Inkscape (http://www.inkscape.org/) -->

<svg
   enable-background="new"
   inkscape:export-ydpi="384"
   inkscape:export-xdpi="384"
   inkscape:export-filename="..\app\src\main\res\drawable-nodpi\auxio.png"
   sodipodi:docname="auxio.svg"
   inkscape:version="1.3 (0e150ed6c4, 2023-07-21)"
   id="svg8"
   version="1.1"
   viewBox="0 0 128 128"
   height="128"
   width="128"
   xml:space="preserve"
   xmlns:inkscape="http://www.inkscape.org/namespaces/inkscape"
   xmlns:sodipodi="http://sodipodi.sourceforge.net/DTD/sodipodi-0.dtd"
   xmlns="http://www.w3.org/2000/svg"
   xmlns:svg="http://www.w3.org/2000/svg"
   xmlns:rdf="http://www.w3.org/1999/02/22-rdf-syntax-ns#"
   xmlns:cc="http://creativecommons.org/ns#"
   xmlns:dc="http://purl.org/dc/elements/1.1/"><sodipodi:namedview
     id="base"
     pagecolor="#ffffff"
     bordercolor="#666666"
     borderopacity="1.0"
     inkscape:pageopacity="0.0"
     inkscape:pageshadow="2"
     inkscape:zoom="4"
     inkscape:cx="38.5"
     inkscape:cy="79.5"
     inkscape:document-units="px"
     inkscape:current-layer="layer64"
     showgrid="true"
     units="px"
     inkscape:pagecheckerboard="true"
     borderlayer="true"
     gridtolerance="10"
     inkscape:snap-smooth-nodes="true"
     inkscape:snap-text-baseline="true"
     inkscape:snap-page="true"
     showguides="true"
     inkscape:guide-bbox="true"
     inkscape:snap-object-midpoints="true"
     inkscape:snap-center="true"
     inkscape:snap-global="true"
     inkscape:lockguides="false"
     inkscape:snap-bbox="true"
     inkscape:bbox-nodes="true"
     inkscape:showpageshadow="0"
     inkscape:deskcolor="#d1d1d1"
     inkscape:window-width="1858"
     inkscape:window-height="1057"
     inkscape:window-x="54"
     inkscape:window-y="-8"
     inkscape:window-maximized="1"><inkscape:grid
       enabled="false"
       empspacing="4"
       id="grid4131"
       type="xygrid"
       spacingx="8"
       spacingy="8"
       originx="0"
       originy="0"
       units="px"
       visible="true" /><inkscape:grid
       empspacing="4"
       id="grid4167"
       type="xygrid"
       originx="0"
       originy="0"
       spacingy="1"
       spacingx="1"
       units="px"
       visible="true" /></sodipodi:namedview><defs
     id="defs2"><filter
       id="filter265"
       inkscape:label="Drop Shadow red"
       style="color-interpolation-filters:sRGB"
       x="-0.080451651"
       y="-0.052763327"
       width="1.200879"
       height="1.1582761"><feFlood
         id="feFlood264"
         result="flood"
         flood-color="rgb(58,118,195)"
         flood-opacity="0.498039" /><feComposite
         id="feComposite264"
         result="composite1"
         operator="in"
         in2="SourceGraphic"
         in="flood" /><feOffset
         id="feOffset264"
         result="offset"
         dy="4"
         dx="2" /><feComposite
         id="feComposite265"
         result="composite2"
         operator="over"
         in2="offset"
         in="SourceGraphic" /></filter></defs><metadata
     id="metadata5"><rdf:RDF><cc:Work
         rdf:about=""><dc:format>image/svg+xml</dc:format><dc:type
           rdf:resource="http://purl.org/dc/dcmitype/StillImage" /></cc:Work></rdf:RDF></metadata><style
     id="style2296">.B{fill:#fc9abf}.C{fill:#ffc7df}.D{fill:#ed84cb}.E{fill-opacity:1}.F{stroke:none}</style><g
     inkscape:groupmode="layer"
     id="layer64"
     inkscape:label="3d"
     style="display:inline"><circle
       r="60"
       cy="64"
       cx="64"
       id="circle3062-1-2"
       style="display:inline;opacity:1;vector-effect:none;fill:#6d9fe9;fill-opacity:1;fill-rule:nonzero;stroke:#3a76c3;stroke-width:4;stroke-linecap:butt;stroke-linejoin:round;stroke-miterlimit:4;stroke-dasharray:none;stroke-dashoffset:0;stroke-opacity:1;paint-order:fill markers stroke" /><path
       style="color:#000000;fill:#fdfefe;stroke-linecap:round;stroke-linejoin:round;paint-order:stroke fill markers;stroke:#3a76c3;stroke-opacity:1;stroke-width:8;stroke-dasharray:none;filter:url(#filter265)"
       d="m 69.228516,25.533203 a 4.0004,4.0004 0 0 0 -2.226563,3.453125 c -0.122244,3.705096 -0.03913,14.244575 0.02539,25.494141 0.0613,10.688131 0.09372,21.334452 -0.02344,26.99414 -1.850235,2.269051 -6.682187,7.09634 -9.884765,9.988282 C 54.391511,88.999829 51.119312,85.72763 48.65625,83 51.772451,79.549075 57.650018,73.654143 59.443359,72.373047 a 4,4 0 0 0 0.929688,-5.578125 4,4 0 0 0 -5.578125,-0.929688 C 50.50509,68.929731 43.048871,76.385952 39.984375,80.675781 a 4.0004,4.0004 0 0 0 0,4.648438 C 43.048871,89.61405 50.50509,97.07027 54.794922,100.13477 a 4.0004,4.0004 0 0 0 4.648437,0 C 63.733191,97.07027 71.18941,89.61405 74.253906,85.324219 a 4.0004,4.0004 0 0 0 0.744141,-2.216797 c 0.15184,-5.68305 0.09385,-17.418551 0.0293,-28.673828 -0.04144,-7.224748 -0.02163,-11.22019 -0.01953,-16.164063 2.930739,2.912486 5.801101,5.909556 6.619141,7.054688 a 4,4 0 0 0 5.578125,0.929687 4,4 0 0 0 0.929688,-5.578125 C 85.07027,36.385952 77.614051,28.929731 73.324219,25.865234 a 4.0004,4.0004 0 0 0 -4.095703,-0.332031 z"
       id="path1" /></g></svg>
