<?xml version="1.0" encoding="UTF-8" standalone="no"?>
<!-- Created with Inkscape (http://www.inkscape.org/) -->

<svg
   enable-background="new"
   inkscape:export-ydpi="384"
   inkscape:export-xdpi="384"
   inkscape:export-filename="..\app\src\main\res\drawable-nodpi\bitmoji.png"
   sodipodi:docname="bitmoji.svg"
   inkscape:version="1.3 (0e150ed6c4, 2023-07-21)"
   id="svg8"
   version="1.1"
   viewBox="0 0 128 128"
   height="128"
   width="128"
   xml:space="preserve"
   xmlns:inkscape="http://www.inkscape.org/namespaces/inkscape"
   xmlns:sodipodi="http://sodipodi.sourceforge.net/DTD/sodipodi-0.dtd"
   xmlns="http://www.w3.org/2000/svg"
   xmlns:svg="http://www.w3.org/2000/svg"
   xmlns:rdf="http://www.w3.org/1999/02/22-rdf-syntax-ns#"
   xmlns:cc="http://creativecommons.org/ns#"
   xmlns:dc="http://purl.org/dc/elements/1.1/"><sodipodi:namedview
     id="base"
     pagecolor="#ffffff"
     bordercolor="#666666"
     borderopacity="1.0"
     inkscape:pageopacity="0.0"
     inkscape:pageshadow="2"
     inkscape:zoom="4"
     inkscape:cx="30.125"
     inkscape:cy="88.25"
     inkscape:document-units="px"
     inkscape:current-layer="g1584"
     showgrid="true"
     units="px"
     inkscape:pagecheckerboard="true"
     borderlayer="true"
     gridtolerance="10"
     inkscape:snap-smooth-nodes="true"
     inkscape:snap-text-baseline="true"
     inkscape:snap-page="true"
     showguides="true"
     inkscape:guide-bbox="true"
     inkscape:snap-object-midpoints="true"
     inkscape:snap-center="true"
     inkscape:snap-global="true"
     inkscape:lockguides="false"
     inkscape:snap-bbox="true"
     inkscape:bbox-nodes="true"
     inkscape:showpageshadow="0"
     inkscape:deskcolor="#d1d1d1"
     inkscape:window-width="1852"
     inkscape:window-height="1057"
     inkscape:window-x="60"
     inkscape:window-y="-8"
     inkscape:window-maximized="1"><inkscape:grid
       enabled="false"
       empspacing="4"
       id="grid4131"
       type="xygrid"
       spacingx="8"
       spacingy="8"
       originx="0"
       originy="0"
       units="px"
       visible="true" /><inkscape:grid
       empspacing="4"
       id="grid4167"
       type="xygrid"
       originx="0"
       originy="0"
       spacingy="1"
       spacingx="1"
       units="px"
       visible="true" /></sodipodi:namedview><defs
     id="defs2"><filter
       id="filter265"
       inkscape:label="Drop Shadow red"
       style="color-interpolation-filters:sRGB"
       x="-0.051405402"
       y="-0.050501223"
       width="1.1313694"
       height="1.1572961"><feFlood
         id="feFlood264"
         result="flood"
         flood-color="rgb(91,147,35)"
         flood-opacity="0.498039" /><feComposite
         id="feComposite264"
         result="composite1"
         operator="in"
         in2="SourceGraphic"
         in="flood" /><feOffset
         id="feOffset264"
         result="offset"
         dy="4"
         dx="2" /><feComposite
         id="feComposite265"
         result="composite2"
         operator="over"
         in2="offset"
         in="SourceGraphic" /></filter></defs><metadata
     id="metadata5"><rdf:RDF><cc:Work
         rdf:about=""><dc:format>image/svg+xml</dc:format><dc:type
           rdf:resource="http://purl.org/dc/dcmitype/StillImage" /></cc:Work></rdf:RDF></metadata><style
     id="style2296">.B{fill:#fc9abf}.C{fill:#ffc7df}.D{fill:#ed84cb}.E{fill-opacity:1}.F{stroke:none}</style><g
     style="display:inline"
     inkscape:groupmode="layer"
     id="g1584"
     inkscape:label="message 3"><circle
       style="display:inline;opacity:1;vector-effect:none;fill:#b7ed50;fill-opacity:1;fill-rule:nonzero;stroke:#5b9323;stroke-width:4;stroke-linecap:butt;stroke-linejoin:round;stroke-miterlimit:4;stroke-dasharray:none;stroke-dashoffset:0;stroke-opacity:1;paint-order:fill markers stroke"
       id="circle1574"
       cx="64"
       cy="64"
       r="60" /><path
       style="opacity:1;vector-effect:none;fill:#fcfcfd;fill-opacity:1;fill-rule:nonzero;stroke:#5b9323;stroke-width:7.2;stroke-linecap:butt;stroke-linejoin:round;stroke-miterlimit:4;stroke-dasharray:none;stroke-dashoffset:0;stroke-opacity:1;paint-order:stroke fill markers;filter:url(#filter265)"
       d="M 64,30.164444 C 48,30.164444 35,31 32,34 c -4,4 -4,49 0,53 2,2 12.17394,3.154253 23.274561,3.507806 2.437644,2.378599 4.203846,6.263518 -1.333727,10.674344 9.563187,1.68625 16.915283,-4.916258 17.822507,-10.765732 C 82.38167,90.208209 93.871786,89.039826 96,87 100.08391,83.085705 100,38 96,34 93,31 80,30.164444 64,30.164444 Z"
       id="path1578"
       inkscape:connector-curvature="0"
       sodipodi:nodetypes="ssscccsss" /><path
       id="path1"
       style="color:#000000;fill:#5b9323;stroke-linecap:round;stroke-linejoin:round;-inkscape-stroke:none;paint-order:stroke fill markers"
       d="m 51,46 c -0.767649,0 -1.490882,0.341449 -2.121094,0.878906 -2.345155,1.999998 -4.321334,4.000002 -6,6 -1.065018,1.268885 -1.171395,3.070793 0,4.242188 1.171395,1.171395 2.990833,1.085562 4.242188,0 0.672863,-0.583716 2.398575,-2.726461 3.878906,-3.878906 1.480331,1.152445 3.206043,3.29519 3.878906,3.878906 1.251355,1.085562 3.070793,1.171395 4.242188,0 1.171395,-1.171395 1.065018,-2.973303 0,-4.242188 -1.678666,-1.999998 -3.654845,-4.000002 -6,-6 C 52.490882,46.341449 51.767649,46 51,46 Z" /><path
       id="path2"
       style="fill:#5b9323;stroke-width:6;stroke-linecap:round;stroke-linejoin:round;paint-order:stroke fill markers"
       d="m 86,50.999999 c 0,6.075132 -3.029437,9.999999 -8,9.999999 -4.970563,0 -8,-3.924867 -8,-9.999999 C 70,44.924867 73.029437,41 78,41 c 4.970563,0 8,3.924867 8,9.999999 z"
       sodipodi:nodetypes="sssss" /><path
       style="fill:#5b9323;fill-opacity:1;stroke:none;stroke-width:6;stroke-linecap:round;stroke-linejoin:round;stroke-dasharray:none;stroke-opacity:1;paint-order:stroke fill markers"
       d="m 44,66 c 8,-1 31.861481,-0.625 40,0 0,8 -6,17 -20,16.781993 C 50,83 44,74 44,66 Z"
       id="path3"
       sodipodi:nodetypes="cccc" /></g></svg>
