<svg xmlns="http://www.w3.org/2000/svg" height="128" width="128" xmlns:v="https://vecta.io/nano"><circle r="60" cy="64" cx="64" fill="#8af19d" paint-order="fill markers stroke" stroke="#00c853" stroke-width="4"/><path d="M84.568359 43.664062l-2.830078.140625c-.457015.04896-.894824.108869-1.404297.230469-.498259.118925-1.04769.04527-2.234375 1.121094-1.681824 1.48213-1.207667 1.842541-1.289062 2.169922-.08269.332593-.113125.552688-.144531.785156l-.140625 1.511719-.183594 4.396484-.111328 7.916016c-.275556-.317565-.504145-.681096-.804688-.972656-3.07138-2.979615-7.276065-4.5-11.666015-4.5-6.516592 0-11.597897 3.573733-14.275391 8.376953.666596-1.478779 1.078125-3.16228 1.078125-5.015625 0-4.874385-2.900675-8.947175-6.576172-10.892578s-7.915777-2.441407-12.212891-2.441407c-.724489 0-2.909099.04961-5.326171.150391-1.208538.05039-2.398157.112362-3.382813.195312-.492327.04148-.918502.08246-1.378906.158204-.230203.03787-.453856.07295-.847656.195312-.196901.06118-.434024.128894-.847657.359375s-1.251352.562846-1.83789 2.126953c-.41472 1.105915-.230315.940722-.242188 1.064453s-.01588.19395-.01953.265625c-.0073.143351-.01027.271703-.01367.423828l-.01367 1.171875v3.865235l.08398 11.482422.158203 11.451172.09375 3.84375.05273 1.1875c.01004.162098.01844.298043.04102.496093.01129.09903.02126.20227.06836.431641.02355.114686.04865.25403.148438.539062.04989.142516.116168.323916.267578.601563s1.014665 1.210171 1.015625 1.210937c.966302.773038 1.199379.670871 1.423828.736329s.351773.08965.466797.111328c.230048.04335.39069.06312.566406.08398.351433.04174.733185.07471 1.189453.109375.912538.06933 2.094046.136538 3.416016.199219 2.643938.125362 5.813569.226562 8.259765.226562 4.770622 0 8.94932-.715095 12.322266-2.9375 1.27866-.842497 2.293467-2.003036 3.154297-3.283203.498202.689897 1.006224 1.373203 1.607422 1.962891 1.600854 1.570205 3.530174 2.721027 5.628906 3.484375-1.201502 1.40197-2.007813 3.156978-2.007813 5.11914 0 4.370887 3.629115 8.000003 8 8.000003s8-3.629116 8-8.000003c0-2.003547-.82724-3.801112-2.074218-5.214843 2.621065-.993061 4.83454-2.574936 6.552734-4.564453l.06055 1.183593c.01466.19177.02631.36063.06445.615235.01907.127302.03706.264599.115234.550781s-.484263.714927 1.476563 2.185547l.136719.103515.144531.08984c1.10937.693357 1.275155.534857 1.527344.582031s.426494.0661.603515.08398c.354047.03579.69561.0555 1.076172.07227.761127.03353 1.652121.04928 2.529297.05859l3.439453.0059 3.71875-.0293.242188-3.710938c.02251-.346688.05179-2.300429.07617-2.896484.534 1.337695 1.284034 2.582823 2.341796 3.617187 2.294237 2.243483 5.563876 3.260527 9.101568 3.263672 3.18813.02627 5.68302-.749033 7.38085-1.642578s2.8711-2.1875 2.8711-2.1875l1.00781-1.199219-.0742-1.564453c-.0778-1.635342-.3972-2.584746-.79883-4.035156-.20081-.725204-.41499-1.425893-.70117-2.130859-.14308-.352484-.28928-.69869-.58008-1.166016s-.42388-1.449228-2.66601-2.009766l-.17969-.04492-.18359-.02734c-1.39484-.214596-2.07848.111329-2.55469.322265l.0606-2.802734c.50073-.0016.9959.0069 1.5039-.02539.41036-.02608.80708-.05279 1.35547-.171875s1.60119.288135 2.97461-2.066406l.46094-.789062.0723-.91211s.10449-1.316809.14454-2.771484c.02-.727337.0283-1.488081-.0156-2.25-.0219-.380961-.0528-.757945-.13477-1.212891s-.0306-.940891-.82617-2.054687l-.043-.05859-.043-.05664c-1.1796-1.533456-1.96059-1.465218-2.49219-1.613281s-.93974-.204644-1.35352-.251953c-.40381-.04617-.79097-.04178-1.1875-.06055l.043-1.394531c.003-.361474.002-.683043-.0195-1.048828-.0108-.182894-.0205-.366172-.0742-.679688s.48973-.625582-1.15234-2.267578c-.87819-.878466-1.35502-.908737-1.66992-1.007812s-.49871-.12777-.6543-.152344c-.31118-.04915-.49552-.05926-.6836-.06836-.37614-.01821-.72071-.01579-1.11132-.0078-1.18.02408-2.700563.122351-4.089848.263672-.694641.07066-1.339571.148377-1.949218.255859-.304825.05374-.593398.109317-.960938.214844s-.696992-.168239-2.005859 1.140625c-.329072.329074-.328918.468029-.503906.710937l-.0039-3.199218-.03711-1.28711c-.0091-.182181-.01695-.345663-.04102-.564453-.01203-.109394-.02645-.228497-.06641-.43164-.03122-.158741-.146228-.520143-.378906-1.011719-.996267-2.130727-1.945731-1.966652-2.335938-2.103516-.406188-.14247-.629031-.17995-.845703-.21875-.433341-.0776-.786262-.108998-1.183594-.138672-.79466-.05935-1.706788-.08299-2.658203-.07617zm6.292969 13.001954c-.03174.0053-.04119.02541-.07227.03125-.109921.01938-.02528-.02054-.240234.0332zm-41.753906 8.888671c-.123061.248218-.247015.496385-.357422.75-.0096-.0089-.0197-.01655-.0293-.02539.141355-.229233.258121-.482682.386719-.72461zm14.908203 6.378907c.430116.02971.573665.128266.533203.08984s.173828-.03237.173828 1.166016c0 1.014727-.236611 1.27146-.242187 1.277344s-.0016.154641-.902344.128906h-.01367l-.01367-.002c-.209116-.0044-.605468.370213-.605469-1.355469 0-.879377.218407-1.15828.236329-1.177734s.02502-.142742.833984-.126953z" fill="#00c853" paint-order="stroke fill markers" opacity=".5"/><path d="M82.5976566 43.664062c-1.713543.012284-3.493954.147427-3.837891.466797-.737007.638741-.736821 36.654415-.34375 36.949219.393071.245669 7.025391.195313 7.025391.195313.245668-3.783307.933781-36.752192.589843-37.341797-.0737-.171969-1.72005-.281815-3.433593-.269532zm-52.824219 2.826172c-.737007 0-9.727598.196774-9.875.589844s.146909 33.311277.392578 33.507813 8.156503.589843 12.824219.589843c8.647558 0 13.755859-2.89818 13.755859-9.53125 0-4.962519-3.242458-7.812431-6.33789-8.451172v-.294921c2.358424-1.228347 4.029296-3.09633 4.029296-7.076172 0-7.173542-6.927646-9.333985-14.789062-9.333985zm69.9375 3.619141c-2.031378.041456-5.928112.371471-6.259766.703125-.442204.442205-.14752 5.553464-.294922 5.75-.1474.147401-3.440184-.000302-3.636718.048828-.294804.04913-.24567 5.748472 0 5.994141s3.390625.19696 3.390625.246093-.294617 8.499304-.34375 10.808594c0 4.815117 2.751954 7.861328 8.402341 7.861328 5.10993.04913 7.17383-2.40625 7.17383-2.40625-.0491-1.031811-1.1311-5.502988-1.7207-5.65039-.63874-.09827-1.86625 1.080078-3.58594 1.080078-1.57228-.04913-2.4082-1.08006-2.4082-2.652344l.19726-8.697266c0-.39307 5.94513.146248 6.28906-.443359 0 0 .39177-4.962517-.0996-5.650391-.49134-.63874-5.89588-.392883-5.99415-.34375-.0983 0 .34525-6.338315.09961-6.583984-.06141-.061417-.53185-.078272-1.20898-.064453zm-69.052734 3.0625c2.161889 0 5.207031.883576 5.207031 3.585937 0 2.309292-1.817527 3.587891-5.404297 3.587891-.982677 0-1.572809.000302-2.113281-.048828l.050781-6.978516c.491338-.04913 1.277089-.146484 2.259766-.146484zm31.101562 3.291016c-7.66488 0-12.382812 6.043816-12.382812 12.185547 0 8.008817 5.503461 12.824218 12.480468 12.824218 7.861416-.147402 12.431641-5.84728 12.431641-12.185547 0-8.107086-5.55229-12.824218-12.529297-12.824218zm.392578 7.46875c2.309291.09827 4.570313 1.327104 4.570313 5.257812 0 3.43937-1.818443 5.502565-5.257813 5.404297-2.309292-.04913-4.519531-1.916099-4.519531-5.355469 0-3.193701 1.718528-5.404908 5.207031-5.30664zm-30.414062 2.605468c3.783306 0 5.896484 1.374728 5.896484 3.929688 0 2.211024-1.670854 3.832031-5.601562 3.832031-1.179212 0-2.209765-.047907-3.339844-.195312l.097656-7.419922c.884409-.04913 1.768053-.146485 2.947266-.146485zm30.082031 18.986329c-2.209138999323 0-4 1.790861000677-4 4s1.790861000677 4 4 4c1.060865959358 0 2.078281610954-.421427361462 2.828427124746-1.171572875254S65.8203126 90.584303959358 65.8203126 89.523438s-.421427361462-2.078281610954-1.171572875254-2.828427124746S62.881178559358 85.523438 61.8203126 85.523438z" fill="#fff" stroke="#00c853" stroke-width="8" paint-order="stroke fill markers"/></svg>