<svg xmlns="http://www.w3.org/2000/svg" viewBox="0 0 128 128" xmlns:v="https://vecta.io/nano"><circle cx="64" cy="64" r="60" fill="#fff" stroke="#747474" stroke-linejoin="round" stroke-width="4" paint-order="fill markers stroke"/><path d="M66 26.848c-7.101 0-13.562.222-18.607.557s-8.406.658-10.371 1.314a2 2 0 0 0-1.256 1.24c-.38 1.091-.564 2.437-.771 4.394s-.384 4.439-.531 7.381C34.17 47.619 34 55.34 34 64.204l.025 5.203h-.002c.049 10.022-.235 24.133 1.277 33.182.014.119.042.238.061.357l.074.447.014-.002c.193.897.524 1.786 1.08 2.602a6.18 6.18 0 0 0 4.613 2.631c3.447.263 15.144.467 26.895.518l16.439-.072c4.721-.079 8.116-.173 9.879-.467a2 2 0 0 0 1.652-1.705c.394-2.921 1.252-6.811 1.221-15.393l.309-4.834c.294-5.884.463-13.603.463-22.467s-.169-16.584-.463-22.469c-.147-2.942-.324-5.424-.531-7.381s-.392-3.304-.771-4.395a2 2 0 0 0-1.256-1.24c-1.965-.656-5.326-.979-10.371-1.314s-11.507-.557-18.607-.557z" dominant-baseline="auto" fill="#b9b9b9" paint-order="fill markers stroke"/><g stroke="#747474"><g fill="#ede0d7" stroke-linejoin="round" stroke-width="4"><path d="M35.403 99.027c-1.586-8.557-1.328-23.271-1.379-33.632" paint-order="fill markers stroke"/><path d="M37.419 93.79c-1.339 0-2.182 1.781-2.182 3.746 0 2.309 1.165 4.872 4.057 5.093 6.321.483 47.438.884 52.732 0 .442-3.276 1.361-7.098 1.194-16.82" paint-order="fill markers stroke"/></g><path d="M94 60.203c0-17.677-.676-30.775-1.654-33.587-2.647-.884-14.228-1.768-28.346-1.768s-25.699.884-28.346 1.768c-.979 2.812-1.654 15.91-1.654 33.587s.676 30.775 1.654 33.587L64 93.702l28.346.088C93.324 90.978 94 77.88 94 60.203z" fill="#fff" paint-order="fill markers stroke" stroke-linejoin="round" stroke-width="4"/></g><path d="M64.186 39.713c-5.883 0-15.543.539-15.543.539s-.648 6.218.107 8.326c0 0 4.264-.216 4.695.055.486.216-.701 20.491-.701 20.491s-3.563-.27-3.887.162c-.27.433-.484 6.001-.16 8.651 4.533.433 10.847.811 15.757.811 9.445 0 15.867-1.677 15.867-10.381 0-7.029-7.662-9.462-7.662-9.516 0-.27 6.098-2.379 6.098-8.975 0-9.461-11.388-10.162-14.572-10.162zm.541 8.643c1.746.024 4.06.595 3.992 3.467-.054 3.622-5.99 3.568-5.99 3.514l.107-6.813s.843-.182 1.891-.168zm-.711 15.132c1.928-.048 5.783.217 5.783 3.096 0 3.676-7.016 3.19-6.908 3.19l.055-6.217s.428-.052 1.07-.068z" fill="#373737" paint-order="stroke fill markers"/></svg>
