<svg xmlns="http://www.w3.org/2000/svg" height="128" width="128" xmlns:v="https://vecta.io/nano"><circle r="60" cy="64" cx="64" fill="#fff" paint-order="fill markers stroke" stroke="#747474" stroke-width="4"/><g fill-rule="evenodd"><path d="M72 26l-4.603516.06445-4.492187.193359-4.267578.324219-3.939453.453125-1.8125.277344-1.695313.316406-1.564453.351563-.923828.253906a2.0002 2.0002 0 0 0-.01367.0039l-.759766.230469a2.0002 2.0002 0 0 0-.0059.002l-1.933594.640625-2.488281.892578-2.787109 1.097656-2.833985 1.257813-1.361328.677734-1.285156.708985-1.185547.742187-1.068359.785156c-.334804.273308-.643852.556641-.927735.863282-.172422.18624-.095.110036-.08203.103515-.06177.05943.146952-.159604-.0293.02539-.358705.376504-.435083.575603-.480469.644531.149871-.227729.07676-.187408-.175781.25a2.0002 2.0002 0 0 0-.0039.02344c-.766482 1.331908-1.180548 2.990083-1.582031 5.146484-.402706 2.162958-.723536 4.778955-.978516 7.716797-.509958 5.875685-.745744 13.028324-.714844 20.146484s.326966 14.190829.900391 19.914063c.286712 2.861617.640458 5.382926 1.080078 7.441406s.845131 3.604923 1.798828 4.882813c.981446 1.31507 2.389455 2.08259 4.177734 2.89063s3.978054 1.5587 6.464844 2.26562c4.973582 1.41383 11.126772 2.64285 17.28711 3.53711s12.311784 1.45024 17.300781 1.48047c2.494497.0151 4.69359-.0957 6.519531-.39063s3.323275-.60924 4.527344-1.87304c1.038319-1.08984 1.426119-2.44085 1.78125-4.03516.109408-.0303.21901-.0526.328125-.0859a2.0002 2.0002 0 0 0 .002 0c.365005-.11168.72532-.24096 1.080078-.38867.360146-.14995.71245-.31918 1.056641-.50976s.68569-.40587 1.017578-.64649.649103-.49957.958984-.79102.602223-.6051.878906-.9414.541507-.70522.78711-1.0918.476776-.79919.689453-1.23633.40878-.897827.587891-1.386715h-.002c.07909-.215759.08744-.250531.0332-.09961.0038-.01065.006-.01869.0098-.0293.334343-.135793.662907-.276301.970703-.435547.361323-.186934.700029-.390363 1.019532-.625s.62141-.499208.890627-.822265.47252-.661156.65429-1.017578.33985-.736391.48438-1.138672.2782-.838476.4043-1.302735.24359-.959454.35547-1.482421.21922-1.078894.32031-1.664063.19797-1.194867.28906-1.837891c.18167-1.282457.34105-2.67118.48438-4.148437s.26988-3.045572.37695-4.681641l.26758-5.08789.16016-5.359375L104 64l-.0527-5.496094-.16016-5.359375-.26758-5.08789-.37695-4.681641c-.14333-1.477257-.30271-2.865978-.48438-4.148438-.0911-.643014-.18861-1.256416-.28906-1.83789s-.20829-1.140391-.32031-1.664063-.22895-1.016608-.35547-1.482422-.25887-.897948-.4043-1.302734-.30099-.779087-.48437-1.138672-.38508-.694518-.6543-1.017578-.570979-.587527-.890624-.822266-.658209-.438064-1.019532-.625-.748098-.358276-1.15039-.515625-.83501-.306039-1.28714-.445312-.928795-.270413-1.427734-.394531-1.019845-.24047-1.564453-.351563-1.107693-.217313-1.695313-.316406-1.190171-.190394-1.8125-.277344c-1.247659-.174319-2.566825-.323764-3.939453-.453125s-2.800596-.238229-4.267578-.324219-2.971143-.150503-4.492187-.193359L72 26z" fill="#747474" paint-order="fill markers stroke" opacity=".5"/><g stroke-width="4" stroke-linejoin="round"><path d="M70 24l-4.546875.06445-4.431641.189453-4.197265.31836-3.84961.443359-1.757812.269531-1.626953.302735-1.482422.333984L47.25 26.1582l-.71875.216797-.0059.002-1.886719.625-2.4375.875-2.720703 1.072266-2.740235 1.214843-1.296875.646485-1.203125.662109-1.076172.673828-.919921.675782c-.276045.225344-.519823.450514-.726563.673828s-.375445.444943-.501953.664062c0 42.540149 16.914438 60.824178 56.009807 60.824178.611979 0 1.192888-.174265 1.757812-.269531s1.10804-.196883 1.626953-.302735 1.014364-.217548 1.482422-.333984.909905-.238213 1.322266-.365234.794665-.258878 1.146484-.396485.67255-.279542.958984-.427734.539654-.302161.75586-.460938.395974-.322825.537109-.492187.277842-.385084.410156-.644531.25932-.562529.382813-.90625.24275-.728208.357422-1.150391.224227-.882121.330078-1.376953.207657-1.024268.304687-1.585938.191088-1.156601.279297-1.779297c.176419-1.245391.333475-2.605924.47461-4.060546s.265242-3.001784.371093-4.619141l.265625-5.039063.158204-5.316406L100 60l-.05273-5.457031-.158204-5.316407-.265625-5.039062-.371093-4.619141c-.141135-1.454622-.298191-2.815155-.47461-4.060547l-.279297-1.779296c-.09703-.56167-.198836-1.091106-.304687-1.585938s-.215406-.95477-.330078-1.376953-.233933-.80667-.357426-1.150391-.250498-.646802-.382813-.90625-.269021-.475169-.410156-.644531-.320903-.333411-.537109-.492187-.469425-.312746-.75586-.460938-.607165-.290128-.958984-.427734-.734124-.269463-1.146484-.396485-.854208-.248798-1.322266-.365234-.963509-.228133-1.482422-.333984-1.062028-.207469-1.626953-.302735l-1.757812-.269531c-1.212186-.169362-2.501812-.316338-3.84961-.443359s-2.752601-.233679-4.197265-.31836-2.928857-.147112-4.431641-.189453L70 24z" fill="#f8c365" stroke="#747474" paint-order="fill markers stroke"/><path d="M66 28l-4.546875.06445-4.431641.189453-4.197265.31836-3.84961.443359-1.193359.183594-.03516.0039-1.048828.316406-1.892579.626953-2.4375.875-2.509765.988282 1.117187-.0078 3.84961.115234 4.197265.292969 4.431641.453125 4.546875.597656 4.546875.722657 4.431641.833984 4.197265.925781 3.84961 1 3.384765 1.060547 1.482422.546875 1.322266.556641 1.146484.5625.958984.564453c.286435.189125.539653.37889.75586.568359s.395974.379248.537109.56836.277842.423648.410156.701172.25932.598834.382813.958984l.357422 1.197266.330078 1.417968.304687 1.623047.279297 1.810547.47461 4.113281.371093 4.654297.265625 5.054688.158204 5.316406L88 73.658203l-.05273 5.425781-.158204 5.271485-.265625 4.976562-.371093 4.546875-.47461 3.97461-.279297 1.728515-.208984 1.052739.462891-.084.933593-.24219.896485-.322262c.292722-.121879.578957-.25987.857422-.414062s.550015-.325322.8125-.515625.516939-.398697.761718-.628907.479727-.481948.705079-.755859.440331-.57117.644531-.892578.3968-.666363.578125-1.039063.351087-.771432.507812-1.199218l.02734-.08789.394531-1.253906.0078-.03125.314453-1.310547.304687-1.585938.279297-1.779297.47461-4.060546.371093-4.619141.265625-5.039063.158204-5.316406L96 64l-.05273-5.457031-.158204-5.316407-.265625-5.039062-.371093-4.619141-.47461-4.060547-.279297-1.779296-.304687-1.585938-.330078-1.376953-.357422-1.150391c-.123493-.343718-.250499-.646803-.382813-.90625s-.269021-.47517-.410156-.644531-.320904-.333412-.537109-.492187-.469426-.312747-.75586-.460938-.607166-.290128-.958984-.427734l-1.146484-.396485-1.322266-.365234-1.482422-.333984-1.626953-.302735-1.757812-.269531-3.84961-.443359-4.197265-.31836-4.431641-.189453L66 28z" fill="#ffeccc" paint-order="stroke fill markers" stroke="#f8c365"/></g><path transform="matrix(1.260908 .1830337 0 1.506495 .84043747 6.8151749)" d="M66.438087 57.078021c-3.581811 3.581811-38.630232 3.581811-42.212042 0s-3.581811-38.630231 0-42.212042 38.630231-3.58181 42.212041 0 3.581811 38.630231.000001 42.212042z" stroke="#747474" fill="#fff" stroke-width="2.90224793" stroke-linejoin="round" paint-order="fill markers stroke"/></g><path d="M53.695238588564 72.607823526063l3.401574472703.290568187237c4.365352420525.633675823595 6.80314727874 2.884125451693 6.80314727874 6.406342887651 0 3.048073278938-1.927558395643 5.00352121811-6.462989914803 4.345156663223-1.360630289081-.197509487433-2.551180646194-.438063579837-3.855117624619-.830549795387l.113385787979-10.211517942724zm-.453543151916-18.489744039218c.566928939895.014562112131 1.474015243727.010764126084 2.607873123517.175355264806 2.494488168871.362100626155 6.00944759622 2.091562268639 6.00944759622 5.816984058851 0 3.183543180321-2.097637494278 4.640158231181-6.236219172178 4.039400514363l-2.437794024882-.421604344998.05669164399-9.610133622707zm14.003145232073 15.241016506361c2.721258911496-1.298355532176 4.648817307139-3.592478722626 4.648817307139-9.079009230817 0-9.8893037966-7.993697635853-14.030009094531-17.064561507506-15.346738325273-.850392993176-.123443293558-11.225193009921-1.35851247058-11.395271275223-.841321475373s.170078265302 45.948987170444.453543151916 46.261074818374 9.411020402257 2.178925859689 14.796845747926 2.960733829101c9.977949342152 1.448402020752 15.87401031706-1.692086646514 15.87401031706-10.836305487687 0-6.841229522021-3.741731003307-11.313008415551-7.313383741312-12.712024424177z" fill="#373737" paint-order="stroke fill markers"/></svg>