<svg version="1.1" viewBox="0 0 128 128" xmlns="http://www.w3.org/2000/svg" xmlns:xlink="http://www.w3.org/1999/xlink"><defs><filter id="a" x="0" y="0" width="1" height="1" color-interpolation-filters="sRGB"><feComposite in="BackgroundImage" in2="SourceGraphic" operator="arithmetic" result="composite1"/></filter><clipPath id="b"><path d="m64 44c-15.98 13.982-35.946 33.948-51.17 51.164a60 60 0 0 0 51.17 28.836 60 60 0 0 0 51.17-28.836c-15.232-17.189-35.19-37.182-51.17-51.164z" color="#000000" fill="#748b9b" fill-rule="evenodd" stroke-linejoin="round" style="-inkscape-stroke:none;paint-order:stroke fill markers"/></clipPath></defs><g><circle cx="64" cy="64" r="60" fill="#4c4c4c" filter="url(#a)" stroke="#00c853" stroke-width="4" paint-order="fill markers stroke"/><circle cx="64" cy="64" r="60" fill="#4c4c4c" stroke="#00c853" stroke-width="4" paint-order="fill markers stroke"/><circle cx="64" cy="44" r="24" fill="#d5425d" fill-rule="evenodd" style="paint-order:stroke fill markers"/></g><path d="m61.365 40.99c-16.178 14.155-36.229 34.21-51.594 51.592l5.9941 5.2988c14.302-16.18 32.857-34.77 48.234-48.471 15.374 13.701 33.923 32.314 48.236 48.473l5.9883-5.3047c-15.369-17.35-35.41-37.43-51.59-51.588a4.0004 4.0004 0 0 0-5.2695 0z" color="#000000" fill="#657580" fill-rule="evenodd" stroke-linejoin="round" style="-inkscape-stroke:none;paint-order:stroke fill markers"/><g clip-path="url(#b)"><rect x="6.9814" y="45.322" width="117.45" height="82.678" fill="#748b9b" opacity=".99" style="paint-order:stroke fill markers"/><path d="m64 40 26.951 23.809c-5.403 6.4807-10.527 13.054-13.757 20.259-4.8241-4.2217-12.368-8.3278-18.804-10.854-2.8943 0.87159-5.3224 2.054-7.1787 3.6176-3.6813-2.9908-10.377-7.4804-17.292-9.9082z" fill="#fff" fill-rule="evenodd" stroke-linecap="round" stroke-linejoin="round" stroke-width="8" style="paint-order:stroke fill markers"/></g><g transform="translate(2.277 -1.6522)" fill-rule="evenodd"><path d="m79.183 66c0 1.3807-1.7909 2.5-4 2.5s-4-1.1193-4-2.5 1.7909-2.5 4-2.5 4 1.1193 4 2.5zm-34.92 0c0 1.3807 1.7909 2.5 4 2.5s4-1.1193 4-2.5-1.7909-2.5-4-2.5-4 1.1193-4 2.5z" fill="#d4d4d4" style="paint-order:stroke fill markers"/><path d="m55.32 63.973c0 1.3807-1.1193 2.5-2.5 2.5s-2.5-1.1193-2.5-2.5 1.1193-2.5 2.5-2.5 2.5 1.1193 2.5 2.5zm12.806 0c0 1.3807 1.1193 2.5 2.5 2.5s2.5-1.1193 2.5-2.5-1.1193-2.5-2.5-2.5-2.5 1.1193-2.5 2.5z" fill="#373737" style="paint-order:stroke fill markers"/></g><path d="m59 67.976c2.598 1.4351 7.2602 1.5111 10 0" fill="none" stroke="#373737" stroke-linecap="round" stroke-linejoin="round" stroke-width="4" style="paint-order:stroke fill markers"/><path d="m44.297 120.69c3.9924 1.3874 8.1765 2.365 12.502 2.8824-0.02326-0.11332-0.04991-0.22665-0.08-0.33987-0.01266-0.0477-0.37852-2.3962-0.58008-5.0898s-0.3691-6.0334-0.50195-9.4414c-0.02493-0.63958-0.04381-1.273-0.06641-1.9141 6.708 0.36215 14.072 0.36916 20.859 4e-3 -0.10188 2.8645-0.21169 5.46-0.33008 7.5938-0.2434 4.3868-0.64928 7.588-0.778 8.5486 4.3609-0.83274 8.5542-2.1375 12.525-3.8591 0.07753-1.1807 0.15126-2.5065 0.23554-4.0254 0.14696-2.6488 0.27994-5.8078 0.39844-9.4414 0.32282-0.0505 0.66379-0.0953 0.97656-0.14844 3.2667-0.55508 5.465-3.6532 4.9102-6.9199-0.30324-1.6975-1.3222-3.1825-2.7969-4.0762 0.02996-0.03063 0.05772-0.05255 0.08789-0.08398 0.18266-0.19296 0.35231-0.39784 0.50781-0.61328 0.67068-0.2771 1.4015-0.68342 2.2715-1.3359 2.6516-1.9879 3.1894-5.7491 1.2012-8.4004-1.9879-2.6516-5.7491-3.1894-8.4004-1.2012 1.3518-1.0138 0.50533-0.28616-0.70703-0.05273-1.2124 0.23341-3.0299 0.4681-5.1621 0.6543-4.2644 0.37219-9.8257 0.57021-15.369 0.57021s-11.105-0.19792-15.369-0.57031c-2.1322-0.18619-3.9497-0.42089-5.1621-0.6543-1.2124-0.23341-2.0588-0.96109-0.70703 0.05273-0.84223-0.63146-1.8358-1.0302-2.8809-1.1562-0.26033-0.03131-0.52157-0.04591-0.7832-0.04297-0.26163 0.0029-0.52364 0.0234-0.7832 0.06055-1.5759 0.22466-2.998 1.0664-3.9531 2.3398-1.9882 2.6513-1.4504 6.4125 1.2012 8.4004 0.90653 0.6799 1.664 1.0979 2.3574 1.375 0.12912 0.1996 0.27 0.39134 0.42188 0.57422 0.03017 0.03144 0.05793 0.05336 0.08789 0.08398-1.4747 0.89369-2.4936 2.3787-2.7969 4.0762-0.55486 3.2668 1.6434 6.3648 4.9102 6.9199 0.31261 0.0532 0.65603 0.0998 0.98047 0.1504 0.03858 1.1829 0.07654 2.3656 0.12305 3.5586 0.13615 3.4926 0.3059 6.9377 0.52539 9.8711 0.04337 0.57965 0.08363 1.1276 0.12487 1.6508z" color="#000000" fill="#657580" fill-rule="evenodd" opacity=".5" style="-inkscape-stroke:none;paint-order:stroke fill markers"/><path d="m42.662 120.09c3.7449 1.4254 7.6694 2.4865 11.73 3.14 0.54672-1.2135 0.69511-2.6158 0.3266-4.0024-0.01266-0.0477-0.37852-2.3962-0.58008-5.0898s-0.3691-6.0334-0.50195-9.4414c-0.02493-0.63958-0.04381-1.273-0.06641-1.9141 6.708 0.36215 14.072 0.36916 20.859 4e-3 -0.10188 2.8645-0.21169 5.46-0.33008 7.5938-0.29448 5.3075-0.82681 8.8795-0.81836 8.8476-0.36851 1.3866-0.22012 2.7889 0.3266 4.0024 4.0632-0.65397 7.99-1.7159 11.737-3.1426 0.35834-2.235 0.5092-4.9316 0.73734-9.0435 0.14696-2.6488 0.27994-5.8078 0.39844-9.4414 0.32282-0.0505 0.66379-0.0953 0.97656-0.14844 3.2667-0.55508 5.465-3.6532 4.9102-6.9199-0.30324-1.6975-1.3222-3.1825-2.7969-4.0762 0.02996-0.03063 0.05772-0.05255 0.08789-0.08398 0.18266-0.19296 0.35231-0.39784 0.50781-0.61328 0.67068-0.2771 1.4015-0.68342 2.2715-1.3359 2.6516-1.9879 3.1894-5.7491 1.2012-8.4004-1.9879-2.6516-5.7491-3.1894-8.4004-1.2012 1.3518-1.0138 0.50533-0.28616-0.70703-0.05273-1.2124 0.23341-3.0299 0.4681-5.1621 0.6543-4.2644 0.37219-9.8257 0.57021-15.369 0.57021s-11.105-0.19792-15.369-0.57031c-2.1322-0.18619-3.9497-0.42089-5.1621-0.6543-1.2124-0.23341-2.0588-0.96109-0.70703 0.05273-0.84223-0.63146-1.8358-1.0302-2.8809-1.1562-0.26033-0.03131-0.52157-0.04591-0.7832-0.04297-0.26163 0.0029-0.52364 0.0234-0.7832 0.06055-1.5759 0.22466-2.998 1.0664-3.9531 2.3398-1.9882 2.6513-1.4504 6.4125 1.2012 8.4004 0.90653 0.6799 1.664 1.0979 2.3574 1.375 0.12912 0.1996 0.27 0.39134 0.42188 0.57422 0.03017 0.03144 0.05793 0.05336 0.08789 0.08398-1.4747 0.89369-2.4936 2.3787-2.7969 4.0762-0.55486 3.2668 1.6434 6.3648 4.9102 6.9199 0.31261 0.0532 0.65603 0.0998 0.98047 0.1504 0.03858 1.1829 0.07654 2.3656 0.12305 3.5586 0.13615 3.4926 0.3059 6.9377 0.52539 9.8711 0.14639 1.9564 0.25732 3.5514 0.48998 5.0558z" color="#000000" fill="#d5425d" fill-rule="evenodd" style="-inkscape-stroke:none;paint-order:stroke fill markers"/><g fill="none" stroke="#ff8090" stroke-linecap="round" stroke-linejoin="round" stroke-width="4"><path d="m39.162 83.629c4.2152 3.1614 45.461 3.1614 49.676 0" style="paint-order:stroke fill markers"/><path d="m42.67 86.225c3.6198 3.7716 39.04 3.7716 42.66 0" style="paint-order:stroke fill markers"/><path d="m47.188 87.709c0.10682 6.3872 0.52681 28.528 1.732 33.065m30.16 0c0.71938-2.7082 1.3979-13.089 1.732-33.065" style="paint-order:stroke fill markers"/><path d="m41.549 95.544c11.026 1.8743 33.27 1.9775 44.903 0" style="paint-order:stroke fill markers"/></g><circle cx="64" cy="64" r="60" fill="none" stroke="#373737" stroke-width="4" paint-order="fill markers stroke"/><image x="2" y="2" width="124" height="124" display="none" opacity=".25" preserveAspectRatio="none" xlink:href="file:///D:/Users/lucy/Downloads/07032024_190033/nihonoari.png"/></svg>
