<?xml version="1.0" encoding="UTF-8" standalone="no"?>
<!-- Created with Inkscape (http://www.inkscape.org/) -->

<svg
   enable-background="new"
   inkscape:export-ydpi="384"
   inkscape:export-xdpi="384"
   inkscape:export-filename="..\app\src\main\res\drawable-nodpi\bromite.png"
   sodipodi:docname="bromite.svg"
   inkscape:version="1.3 (0e150ed6c4, 2023-07-21)"
   id="svg8"
   version="1.1"
   viewBox="0 0 128 128"
   height="128"
   width="128"
   xml:space="preserve"
   xmlns:inkscape="http://www.inkscape.org/namespaces/inkscape"
   xmlns:sodipodi="http://sodipodi.sourceforge.net/DTD/sodipodi-0.dtd"
   xmlns="http://www.w3.org/2000/svg"
   xmlns:svg="http://www.w3.org/2000/svg"
   xmlns:rdf="http://www.w3.org/1999/02/22-rdf-syntax-ns#"
   xmlns:cc="http://creativecommons.org/ns#"
   xmlns:dc="http://purl.org/dc/elements/1.1/"><sodipodi:namedview
     id="base"
     pagecolor="#ffffff"
     bordercolor="#666666"
     borderopacity="1.0"
     inkscape:pageopacity="0.0"
     inkscape:pageshadow="2"
     inkscape:zoom="4"
     inkscape:cx="64"
     inkscape:cy="117"
     inkscape:document-units="px"
     inkscape:current-layer="g7576"
     showgrid="false"
     units="px"
     inkscape:pagecheckerboard="true"
     borderlayer="true"
     gridtolerance="10"
     inkscape:snap-smooth-nodes="true"
     inkscape:snap-text-baseline="true"
     inkscape:snap-page="true"
     showguides="true"
     inkscape:guide-bbox="true"
     inkscape:snap-object-midpoints="true"
     inkscape:snap-center="true"
     inkscape:snap-global="true"
     inkscape:lockguides="false"
     inkscape:snap-bbox="true"
     inkscape:bbox-nodes="true"
     inkscape:showpageshadow="0"
     inkscape:deskcolor="#d1d1d1"
     inkscape:window-width="1858"
     inkscape:window-height="1057"
     inkscape:window-x="54"
     inkscape:window-y="-8"
     inkscape:window-maximized="1"><inkscape:grid
       enabled="false"
       empspacing="4"
       id="grid4131"
       type="xygrid"
       spacingx="8"
       spacingy="8"
       originx="0"
       originy="0"
       units="px"
       visible="false" /><inkscape:grid
       empspacing="4"
       id="grid4167"
       type="xygrid"
       originx="0"
       originy="0"
       spacingy="1"
       spacingx="1"
       units="px"
       visible="false" /><sodipodi:guide
       position="64,64"
       orientation="-0.8660254,0.5"
       id="guide16"
       inkscape:locked="false" /></sodipodi:namedview><defs
     id="defs2"><filter
       id="filter265"
       inkscape:label="Drop Shadow red"
       style="color-interpolation-filters:sRGB"
       x="-0.057103704"
       y="-0.047621591"
       width="1.1424255"
       height="1.1428663"><feFlood
         id="feFlood264"
         result="flood"
         flood-color="rgb(44,115,127)"
         flood-opacity="0.498039" /><feComposite
         id="feComposite264"
         result="composite1"
         operator="in"
         in2="SourceGraphic"
         in="flood" /><feOffset
         id="feOffset264"
         result="offset"
         dy="4"
         dx="2" /><feComposite
         id="feComposite265"
         result="composite2"
         operator="over"
         in2="offset"
         in="SourceGraphic" /></filter><clipPath
       clipPathUnits="userSpaceOnUse"
       id="clipPath13"><path
         style="color:#000000;fill:#b7e68f;stroke-linejoin:round;-inkscape-stroke:none;paint-order:stroke fill markers"
         d="M 62,37 C 78.615904,37 92,50.384096 92,67 92,83.615904 78.615904,97 62,97 45.384096,97 32,83.615904 32,67 32,50.384096 45.384096,37 62,37 Z"
         id="path14" /></clipPath></defs><metadata
     id="metadata5"><rdf:RDF><cc:Work
         rdf:about=""><dc:format>image/svg+xml</dc:format><dc:type
           rdf:resource="http://purl.org/dc/dcmitype/StillImage" /></cc:Work></rdf:RDF></metadata><style
     id="style2296">.B{fill:#fc9abf}.C{fill:#ffc7df}.D{fill:#ed84cb}.E{fill-opacity:1}.F{stroke:none}</style><g
     style="display:inline;opacity:1"
     inkscape:label="app cloner premiums and add-ons"
     id="g7576"
     inkscape:groupmode="layer"><circle
       r="60"
       cy="64"
       cx="64"
       id="circle7554"
       style="display:inline;opacity:1;vector-effect:none;fill:#40bfb3;fill-opacity:1;fill-rule:nonzero;stroke:#2c737f;stroke-width:4;stroke-linecap:butt;stroke-linejoin:round;stroke-miterlimit:4;stroke-dasharray:none;stroke-dashoffset:0;stroke-opacity:1;paint-order:fill markers stroke" /><path
       id="path1"
       style="color:#000000;fill:#abcfbf;fill-opacity:1;stroke:#2c737f;stroke-width:8;stroke-linejoin:round;stroke-dasharray:none;stroke-opacity:1;paint-order:stroke fill markers;filter:url(#filter265)"
       d="m 76.143736,20.003552 c -0.665989,-0.01802 -1.318068,0.322046 -1.675859,0.942774 l -2.567648,4.455623 c -0.520419,0.902878 -0.214467,2.048796 0.686943,2.570075 l 2.313356,1.337217 -4.2594,7.39184 c -3.204794,-0.994088 -6.608007,-1.531785 -10.132849,-1.531785 -18.93238,0 -34.35774,15.450568 -34.35774,34.41389 0,18.963321 15.42536,34.413884 34.35774,34.413884 18.932381,0 34.357744,-15.450563 34.357744,-34.413884 0,-9.786711 -4.11575,-18.630233 -10.694415,-24.904789 l 4.326504,-7.505044 2.311591,1.337217 c 0.9014,0.521275 2.04722,0.213044 2.56765,-0.689834 l 2.56764,-4.453853 c 0.52043,-0.902879 0.21446,-2.05057 -0.68694,-2.571845 L 77.033759,20.256492 c -0.281688,-0.1629 -0.587287,-0.244745 -0.890023,-0.25294 z" /><g
       inkscape:groupmode="maskhelper"
       id="g13"
       clip-path="url(#clipPath13)"
       transform="matrix(0.90415106,0,0,0.90562869,4.4509136,8.906063)"
       style="stroke-width:1.10511"><g
         id="g12"
         style="stroke-width:1.10511"><rect
           style="display:inline;opacity:1;fill:#40bfb3;fill-opacity:1;stroke:none;stroke-width:8.84086;stroke-linejoin:round;stroke-dasharray:none;stroke-opacity:1;paint-order:stroke fill markers"
           id="rect14"
           width="63.75"
           height="67.5"
           x="31"
           y="32.25"
           rx="7.99999"
           ry="7.99999" /><path
           style="fill:#b7ed50;fill-opacity:1;stroke:none;stroke-width:8.84086;stroke-linejoin:round;stroke-dasharray:none;stroke-opacity:1;paint-order:stroke fill markers"
           d="M 42.72481,62.584154 C 49.08877,57.811183 59.34182,51.977552 76.48916,61.700271 63.93801,71.776542 52.62431,73.897863 42.72481,62.584154 Z"
           id="path11" /><path
           style="fill:#6cd25c;fill-opacity:1;stroke:none;stroke-width:8.84086;stroke-linejoin:round;stroke-dasharray:none;stroke-opacity:1;paint-order:stroke fill markers"
           d="M 50.75,71 C 67.25,60.5 89.5,52.75 95.5,61 94.25,74 99.75,76 90.25,86 72,88 60.5,83.5 50.75,71 Z"
           id="path9" /><path
           style="fill:#68a955;fill-opacity:1;stroke:none;stroke-width:8.84086;stroke-linejoin:round;stroke-dasharray:none;stroke-opacity:1;paint-order:stroke fill markers"
           d="m 31.625,65.125 c 4.30698,-6.278778 22.69639,-7.858037 29.73235,3.546074 6.07091,9.839909 27.97185,9.203698 30.97844,1.813761 C 90.83579,90.234835 70.2116,106.1055 52.75,99.75 35.2884,93.394498 30.375,85.125 31.625,65.125 Z"
           id="path3"
           sodipodi:nodetypes="cscsc" /></g></g><path
       style="fill:#57985d;fill-opacity:1;stroke:none;stroke-width:8;stroke-linejoin:round;stroke-dasharray:none;stroke-opacity:1;paint-order:stroke fill markers"
       d="m 31.575445,71.394443 c 0,14.490059 5.726667,27.870777 24.186041,31.130987 C 74.220869,105.78564 86.954698,89.733424 87.406773,78.86588 83.903188,90.186239 71.21086,101.28533 56.4396,98.67651 41.668339,96.067679 31.801483,83.507227 31.575445,71.394443 Z"
       id="path2" /><path
       style="fill:#ffffff;fill-opacity:0.554661;stroke:none;stroke-width:8;stroke-linejoin:round;stroke-dasharray:none;stroke-opacity:1;paint-order:stroke fill markers"
       d="M 34.129962,53.73711 C 37.486451,46.532877 44.199429,42.690621 49.473911,41.249774 52.031239,45.572313 40.683104,57.099084 34.129962,53.73711 Z"
       id="path5" /><path
       style="fill:#ffffff;fill-opacity:0.787112;stroke:none;stroke-width:8;stroke-linejoin:round;stroke-dasharray:none;stroke-opacity:1;paint-order:stroke fill markers"
       d="M 64.338363,44.291561 C 54.910454,43.302057 52.488848,54.238662 63.21953,55.658238 71.690675,56.778897 76.587765,45.577196 64.338363,44.291561 Z"
       id="path6"
       sodipodi:nodetypes="sss" /><path
       style="fill:#ffffff;fill-opacity:0.554661;stroke:none;stroke-width:8;stroke-linejoin:round;stroke-dasharray:none;stroke-opacity:1;paint-order:stroke fill markers"
       d="m 74.727501,86.396296 c 4.042062,-0.192794 10.908791,-1.481073 14.864452,-5.443198 1.28195,-2.720046 2.71044,-7.38145 2.39749,-12.487336 -2.91667,2.921443 -8.444552,4.438861 -14.225124,5.92348 -0.353749,4.960596 -2.087947,10.329837 -3.036818,12.007054 z"
       id="path8"
       sodipodi:nodetypes="ccccc" /><path
       id="rect16"
       style="fill:#699d98;fill-opacity:1;stroke-width:8;stroke-linejoin:round;paint-order:stroke fill markers"
       d="m 73.598933,26.037191 18.44757,10.668114 c 0.52009,0.300765 1.17183,0.08832 1.53659,-0.389545 l -0.83694,1.451987 c -0.30027,0.52094 -0.96071,0.698191 -1.4808,0.397427 L 72.817789,27.49706 c -0.52009,-0.300765 -0.697054,-0.962281 -0.39678,-1.483221 l 0.836938,-1.451987 c -0.300822,0.520624 -0.179104,1.174574 0.340986,1.475339 z"
       sodipodi:nodetypes="cccsssscc" /><path
       style="fill:#fcfdfc;fill-opacity:0.79;stroke:none;stroke-width:8;stroke-linejoin:round;stroke-dasharray:none;stroke-opacity:1;paint-order:stroke fill markers"
       d="m 74.937195,21.033188 c 0.919039,-0.56033 1.038913,-0.520306 1.638286,-0.240141 0.599374,0.280164 18.101072,10.326066 18.460692,10.60623 0.35962,0.280165 0.63933,0.6804 0.35962,1.320777 -0.04,-0.320189 -0.39958,-0.520307 -0.91903,-0.800471 -0.51946,-0.280164 -10.868636,-6.323715 -11.587884,-6.443786 -0.719249,-0.12007 -2.637242,4.642728 -3.396448,4.642728 -0.759207,0 -3.995822,-1.761034 -3.995822,-2.441434 0,-0.6804 2.317576,-4.522657 2.197702,-4.882869 -0.119875,-0.360211 -2.117785,-2.001175 -2.757116,-1.761034 z"
       id="path16"
       sodipodi:nodetypes="csscsssssc" /><path
       style="fill:#699d98;fill-opacity:1;stroke:none;stroke-width:8;stroke-linejoin:round;stroke-dasharray:none;stroke-opacity:1;paint-order:stroke fill markers"
       d="m 73.985781,38.254093 c 3.289452,1.655919 6.081372,3.302055 8.702454,5.34887 l 4.125189,-7.216729 -8.758963,-5.06586 z"
       id="path17"
       sodipodi:nodetypes="ccccc" /></g></svg>
