<?xml version="1.0" encoding="UTF-8" standalone="no"?>
<svg
   height="128"
   width="128"
   version="1.1"
   id="svg2"
   sodipodi:docname="cpuz.svg"
   inkscape:version="1.3 (0e150ed6c4, 2023-07-21)"
   xml:space="preserve"
   inkscape:export-filename="..\app\src\main\res\drawable-nodpi\cpuz.png"
   inkscape:export-xdpi="384"
   inkscape:export-ydpi="384"
   xmlns:inkscape="http://www.inkscape.org/namespaces/inkscape"
   xmlns:sodipodi="http://sodipodi.sourceforge.net/DTD/sodipodi-0.dtd"
   xmlns="http://www.w3.org/2000/svg"
   xmlns:svg="http://www.w3.org/2000/svg"><defs
     id="defs2"><inkscape:path-effect
       effect="fillet_chamfer"
       id="path-effect162"
       is_visible="true"
       lpeversion="1"
       nodesatellites_param="F,0,0,1,0,4,0,1 @ F,0,0,1,0,4,0,1 @ F,0,0,1,0,4,0,1 @ F,0,0,1,0,4,0,1"
       radius="4"
       unit="px"
       method="arc"
       mode="F"
       chamfer_steps="1"
       flexible="false"
       use_knot_distance="true"
       apply_no_radius="true"
       apply_with_radius="true"
       only_selected="false"
       hide_knots="false" /><inkscape:path-effect
       effect="fillet_chamfer"
       id="path-effect161"
       is_visible="true"
       lpeversion="1"
       nodesatellites_param="F,0,0,1,0,0,0,1 @ F,0,0,1,0,0,0,1 @ F,0,0,1,0,0,0,1 @ F,0,0,1,0,0,0,1"
       radius="0"
       unit="px"
       method="auto"
       mode="F"
       chamfer_steps="1"
       flexible="false"
       use_knot_distance="true"
       apply_no_radius="true"
       apply_with_radius="true"
       only_selected="false"
       hide_knots="false" /><inkscape:path-effect
       effect="fillet_chamfer"
       id="path-effect160"
       is_visible="true"
       lpeversion="1"
       nodesatellites_param="F,0,0,1,0,4,0,1 @ F,0,0,1,0,4,0,1 @ F,0,0,1,0,4,0,1 @ F,0,0,1,0,4,0,1"
       radius="4"
       unit="px"
       method="arc"
       mode="F"
       chamfer_steps="1"
       flexible="false"
       use_knot_distance="true"
       apply_no_radius="true"
       apply_with_radius="true"
       only_selected="false"
       hide_knots="false" /><inkscape:path-effect
       effect="mirror_symmetry"
       start_point="64,-9.5645839"
       end_point="64,137.56458"
       center_point="64,64"
       id="path-effect159"
       is_visible="true"
       lpeversion="1.2"
       lpesatellites=""
       mode="vertical"
       discard_orig_path="false"
       fuse_paths="false"
       oposite_fuse="false"
       split_items="false"
       split_open="false"
       link_styles="false" /><inkscape:path-effect
       effect="fillet_chamfer"
       id="path-effect157"
       is_visible="true"
       lpeversion="1"
       nodesatellites_param="F,0,0,1,0,0,0,1 @ F,0,0,1,0,4,0,1 @ F,0,0,1,0,4,0,1"
       radius="4"
       unit="px"
       method="arc"
       mode="F"
       chamfer_steps="1"
       flexible="false"
       use_knot_distance="true"
       apply_no_radius="true"
       apply_with_radius="true"
       only_selected="false"
       hide_knots="false" /><inkscape:path-effect
       effect="copy_rotate"
       starting_point="0,0"
       origin="64,64"
       id="path-effect155"
       is_visible="true"
       lpeversion="1.2"
       lpesatellites=""
       method="normal"
       num_copies="3"
       starting_angle="-90"
       rotation_angle="90"
       gap="0"
       copies_to_360="false"
       mirror_copies="false"
       split_items="false"
       link_styles="false" /><inkscape:path-effect
       effect="mirror_symmetry"
       start_point="64,-9.5645839"
       end_point="64,137.56458"
       center_point="64,64"
       id="path-effect153"
       is_visible="true"
       lpeversion="1.2"
       lpesatellites=""
       mode="vertical"
       discard_orig_path="false"
       fuse_paths="false"
       oposite_fuse="false"
       split_items="false"
       split_open="false"
       link_styles="false" /><inkscape:path-effect
       effect="copy_rotate"
       starting_point="0,0"
       origin="64,64"
       id="path-effect151"
       is_visible="true"
       lpeversion="1.2"
       lpesatellites=""
       method="normal"
       num_copies="4"
       starting_angle="0"
       rotation_angle="90"
       gap="0"
       copies_to_360="true"
       mirror_copies="false"
       split_items="false"
       link_styles="false" /><inkscape:path-effect
       effect="mirror_symmetry"
       start_point="64,-9.5645839"
       end_point="64,137.56458"
       center_point="64,64"
       id="path-effect149"
       is_visible="true"
       lpeversion="1.2"
       lpesatellites=""
       mode="vertical"
       discard_orig_path="false"
       fuse_paths="false"
       oposite_fuse="false"
       split_items="false"
       split_open="false"
       link_styles="false" /><inkscape:path-effect
       effect="mirror_symmetry"
       start_point="64,-9.5645839"
       end_point="64,137.56458"
       center_point="64,64"
       id="path-effect10"
       is_visible="true"
       lpeversion="1.2"
       lpesatellites=""
       mode="vertical"
       discard_orig_path="false"
       fuse_paths="false"
       oposite_fuse="false"
       split_items="false"
       split_open="false"
       link_styles="false" /><inkscape:path-effect
       effect="fillet_chamfer"
       id="path-effect9"
       is_visible="true"
       lpeversion="1"
       nodesatellites_param="F,0,0,1,0,0,0,1 @ F,0,0,1,0,4,0,1 @ F,0,0,1,0,4,0,1"
       radius="4"
       unit="px"
       method="arc"
       mode="F"
       chamfer_steps="1"
       flexible="false"
       use_knot_distance="true"
       apply_no_radius="true"
       apply_with_radius="true"
       only_selected="false"
       hide_knots="false" /><inkscape:path-effect
       effect="copy_rotate"
       starting_point="0,0"
       origin="64,64"
       id="path-effect8"
       is_visible="true"
       lpeversion="1.2"
       lpesatellites=""
       method="normal"
       num_copies="3"
       starting_angle="-90"
       rotation_angle="90"
       gap="0"
       copies_to_360="false"
       mirror_copies="false"
       split_items="false"
       link_styles="false" /><inkscape:path-effect
       effect="mirror_symmetry"
       start_point="64,-9.5645839"
       end_point="64,137.56458"
       center_point="64,64"
       id="path-effect7"
       is_visible="true"
       lpeversion="1.2"
       lpesatellites=""
       mode="vertical"
       discard_orig_path="false"
       fuse_paths="false"
       oposite_fuse="false"
       split_items="false"
       split_open="false"
       link_styles="false" /><inkscape:path-effect
       effect="copy_rotate"
       starting_point="0,0"
       origin="64,64"
       id="path-effect6"
       is_visible="true"
       lpeversion="1.2"
       lpesatellites=""
       method="normal"
       num_copies="4"
       starting_angle="0"
       rotation_angle="90"
       gap="0"
       copies_to_360="true"
       mirror_copies="false"
       split_items="false"
       link_styles="false" /><inkscape:path-effect
       effect="mirror_symmetry"
       start_point="64,-9.5645839"
       end_point="64,137.56458"
       center_point="64,64"
       id="path-effect5"
       is_visible="true"
       lpeversion="1.2"
       lpesatellites=""
       mode="vertical"
       discard_orig_path="false"
       fuse_paths="false"
       oposite_fuse="false"
       split_items="false"
       split_open="false"
       link_styles="false" /><filter
       style="color-interpolation-filters:sRGB;"
       inkscape:label="Drop Shadow"
       id="filter146"
       x="-0.021885259"
       y="-0.021885311"
       width="1.0628111"
       height="1.0818519"><feFlood
         result="flood"
         in="SourceGraphic"
         flood-opacity="0.50000000000000011"
         flood-color="rgb(107,90,131)"
         id="feFlood145" /><feGaussianBlur
         result="blur"
         in="SourceGraphic"
         stdDeviation="0.000000"
         id="feGaussianBlur145" /><feOffset
         result="offset"
         in="blur"
         dx="2.000000"
         dy="4.000000"
         id="feOffset145" /><feComposite
         result="comp1"
         operator="in"
         in="flood"
         in2="offset"
         id="feComposite145" /><feComposite
         result="comp2"
         operator="over"
         in="SourceGraphic"
         in2="comp1"
         id="feComposite146" /></filter></defs><sodipodi:namedview
     id="namedview2"
     pagecolor="#ffffff"
     bordercolor="#666666"
     borderopacity="1.0"
     inkscape:showpageshadow="2"
     inkscape:pageopacity="0.0"
     inkscape:pagecheckerboard="0"
     inkscape:deskcolor="#d1d1d1"
     inkscape:zoom="1.3621705"
     inkscape:cx="39.275553"
     inkscape:cy="23.858981"
     inkscape:window-width="1920"
     inkscape:window-height="1057"
     inkscape:window-x="-8"
     inkscape:window-y="-8"
     inkscape:window-maximized="1"
     inkscape:current-layer="svg2"
     showguides="true" /><circle
     r="60"
     cy="64"
     cx="64"
     fill="#8af19d"
     paint-order="fill markers stroke"
     stroke="#00c853"
     stroke-width="4"
     id="circle1"
     style="fill:#9a6fc7;stroke:#6b5a83;opacity:1" /><g
     id="g4"
     style="display:inline;stroke-width:1.14945;filter:url(#filter146)"
     transform="matrix(0.86998385,0,0,0.86998385,8.3210337,8.3210335)"><path
       id="path99"
       style="display:none;stroke-width:9.19557;opacity:1;fill:#9a6fc7;fill-rule:evenodd;stroke:#ffffff;stroke-linecap:round;stroke-linejoin:round;stroke-miterlimit:9.5;stroke-dasharray:none;stroke-opacity:1"
       d="m 69.500002,16.077382 c 0,0 0.5,11.999549 0.5,47.922618 0,35.923069 -0.5,47.92262 -0.5,47.92262 m 11.5,-95.189414 c 0,0 1,12.027393 1,47.266791 0,35.239398 -1,47.266793 -1,47.266793 m 11.5,-92.946997 c 0,0 1.5,12.635204 1.5,45.680202 0,33.044998 -1.5,45.680205 -1.5,45.680205 m -57,-91.360407 c 0,0 -1.5,12.536208 -1.5,45.680202 0,33.143994 1.5,45.680205 1.5,45.680205 m 11.5,-92.946994 c 0,0 -1,12.027392 -1,47.266791 0,35.239399 1,47.266793 1,47.266793 m 11.5,-95.189408 c 0,0 -0.5,11.999549 -0.5,47.922618 0,35.923069 0.5,47.92262 0.5,47.92262 M 16.077384,58.5 c 0,0 11.999549,-0.5 47.922618,-0.5 35.923069,0 47.922618,0.5 47.922618,0.5 M 16.733208,47 c 0,0 12.027393,-1 47.266791,-1 35.239398,0 47.266791,1 47.266791,1 M 18.319795,35.5 c 0,0 12.635204,-1.5 45.680202,-1.5 33.044998,0 45.680203,1.5 45.680203,1.5 m -91.360405,57 c 0,0 12.536208,1.5 45.680202,1.5 33.143994,0 45.680203,-1.5 45.680203,-1.5 M 16.733208,81 c 0,0 12.027392,1 47.266791,1 35.239399,0 47.266791,-1 47.266791,-1 M 16.077384,69.5 c 0,0 11.999549,0.5 47.922618,0.5 35.923069,0 47.922618,-0.5 47.922618,-0.5"
       sodipodi:insensitive="true" /><path
       id="path143"
       style="display:inline;stroke-width:4.59779;color:#000000;fill:#ffffff;fill-rule:evenodd;stroke:#6b5a83;stroke-linecap:round;stroke-linejoin:miter;stroke-miterlimit:9.5;stroke-dasharray:none;stroke-opacity:1;paint-order:stroke fill markers"
       d="m 58.690544,11.484657 c -2.536699,-0.105095 -4.678447,1.865796 -4.784122,4.402471 0,0 -0.04991,2.650363 -0.06286,3.143018 3.00118,-0.130791 6.087368,-0.201491 9.197818,-0.213276 0.009,-0.332213 0.05164,-2.54809 0.05164,-2.54809 0.105095,-2.5367 -1.865795,-4.678448 -4.402471,-4.784123 z m 10.618911,0 c -2.536675,0.105676 -4.507565,2.247424 -4.40247,4.784123 0,0 0.0426,2.215877 0.05163,2.54809 3.110451,0.01178 6.196639,0.08248 9.197818,0.213276 -0.01295,-0.492655 -0.06286,-3.143018 -0.06286,-3.143018 -0.105675,-2.536676 -2.247423,-4.507566 -4.784123,-4.402471 z m -21.929286,0.666769 c -2.529795,-0.209558 -4.750755,1.670721 -4.961478,4.200419 0,0 -0.07172,1.247423 -0.177357,3.569571 1.576686,-0.187143 4.088521,-0.483525 9.233739,-0.770039 0.04727,-0.893807 0.10776,-2.038472 0.10776,-2.038472 0.209523,-2.530602 -1.672065,-4.751921 -4.202664,-4.961479 z m 33.239662,0 c -2.5306,0.209558 -4.412188,2.430876 -4.202665,4.961479 0,0 0.06049,1.144665 0.107761,2.038472 2.94128,0.163787 5.709349,0.35171 9.233738,0.770039 -0.105638,-2.322148 -0.177356,-3.569571 -0.177356,-3.569571 -0.210723,-2.529698 -2.431683,-4.409977 -4.961478,-4.200419 z m -44.572487,1.60294 c -2.521319,-0.301948 -4.810015,1.497246 -5.111895,4.018573 0,0 -0.156626,1.590713 -0.363692,4.487781 0.06337,-0.0221 3.355991,-1.161395 9.366194,-2.018267 0.04573,-0.478163 0.125721,-1.376193 0.125721,-1.376193 0.302003,-2.520541 -1.495908,-4.808883 -4.016328,-5.111894 z m 55.909802,0 c -2.521171,0.299678 -4.322225,2.586171 -4.023063,5.107404 0,0 0.07983,0.900045 0.125721,1.380683 5.927281,0.844892 9.220581,1.965263 9.366194,2.016022 -0.205676,-2.891129 -0.359203,-4.481046 -0.359203,-4.481046 -0.299647,-2.522156 -2.587594,-4.323563 -5.109649,-4.023063 z M 22.258474,30.574002 c -2.890656,0.205678 -4.481046,0.359203 -4.481046,0.359203 -2.522156,0.299647 -4.323563,2.587594 -4.023063,5.109649 0.299677,2.521172 2.586172,4.322226 5.107405,4.023063 0,0 0.900044,-0.07983 1.380683,-0.125721 0.84489,-5.927267 1.965258,-9.220569 2.016021,-9.366194 z m 83.483056,0 c 0.0169,0.04837 1.158,3.34696 2.01602,9.366194 0.48064,0.04589 1.38068,0.125721 1.38068,0.125721 2.52123,0.29916 4.80772,-1.501893 5.1074,-4.023063 0.3005,-2.522054 -1.50091,-4.81 -4.02306,-5.109649 0,0 -1.58992,-0.153527 -4.48104,-0.359203 z M 16.351845,42.418691 c -2.529698,0.210723 -4.409977,2.431683 -4.200419,4.961478 0.209558,2.5306 2.430876,4.412188 4.961479,4.202665 0,0 1.144482,-0.06049 2.038471,-0.107761 0.163753,-2.940672 0.351701,-5.709299 0.770037,-9.233738 -2.322145,0.105638 -3.569567,0.177356 -3.569568,0.177356 z m 91.726735,-0.177356 c 0.18722,1.577283 0.48352,4.0885 0.77004,9.233738 0.89381,0.04727 2.03848,0.107761 2.03848,0.107761 2.5306,0.209517 4.75191,-1.672069 4.96147,-4.202665 0.20956,-2.529795 -1.67072,-4.750755 -4.20042,-4.961478 0,0 -1.24742,-0.07172 -3.56957,-0.177356 z M 15.887128,53.906422 c -2.536676,0.105675 -4.507566,2.247423 -4.402471,4.784123 0.105676,2.536675 2.247424,4.507565 4.784123,4.40247 0,0 2.215877,-0.0426 2.548089,-0.05164 0.01179,-3.110451 0.08248,-6.196639 0.213277,-9.197816 -0.492655,0.01295 -3.143018,0.06286 -3.143018,0.06286 z m 93.082722,-0.06286 c 0.13079,3.001179 0.20149,6.087367 0.21328,9.197818 0.33221,0.009 2.54809,0.05164 2.54809,0.05164 2.5367,0.105094 4.67844,-1.865796 4.78412,-4.40247 0.1051,-2.536699 -1.86579,-4.678447 -4.40247,-4.784123 0,0 -2.65036,-0.04991 -3.14302,-0.06286 z M 11.484657,69.309456 c -0.105095,2.536699 1.865796,4.678447 4.402471,4.784122 0,0 2.650363,0.04991 3.143018,0.06286 -0.130792,-3.00118 -0.201491,-6.087368 -0.213277,-9.197818 -0.332212,-0.009 -2.548089,-0.05164 -2.548089,-0.05164 -2.5367,-0.105093 -4.678448,1.865797 -4.784123,4.402473 z m 97.698473,-4.350831 c -0.0118,3.11045 -0.0825,6.196638 -0.21328,9.197818 0.49266,-0.01295 3.14302,-0.06286 3.14302,-0.06286 2.53667,-0.105676 4.50756,-2.247423 4.40247,-4.784122 -0.10568,-2.536674 -2.24742,-4.507564 -4.78412,-4.402471 z M 12.151426,80.619831 c -0.209558,2.529795 1.670721,4.750755 4.200419,4.961478 0,0 1.247422,0.07172 3.569571,0.177357 -0.186945,-1.57495 -0.483474,-4.087692 -0.770035,-9.233739 -0.893989,-0.04727 -2.038474,-0.10776 -2.038474,-0.10776 -2.530604,-0.209523 -4.751923,1.672065 -4.961481,4.202664 z m 96.697194,-4.094904 c -0.16088,2.888976 -0.35317,5.737285 -0.77007,9.233739 2.32215,-0.105639 3.56957,-0.177357 3.56957,-0.177357 2.5297,-0.210723 4.40998,-2.431683 4.20042,-4.961478 -0.20956,-2.530596 -2.43087,-4.412181 -4.96147,-4.202664 z M 18.86626,87.936328 c -2.520541,-0.302004 -4.808884,1.495908 -5.111895,4.016328 -0.301948,2.521319 1.497246,4.810015 4.018573,5.111895 0,0 1.591186,0.156624 4.487781,0.363692 -0.02211,-0.06338 -1.161397,-3.356011 -2.018266,-9.366194 -0.478164,-0.04573 -1.376193,-0.125721 -1.376193,-0.125721 z m 90.26748,0 c 0,0 -0.89803,0.07999 -1.37619,0.125721 -0.0239,0.167796 -0.87698,6.094516 -2.01827,9.366194 2.89707,-0.207066 4.48778,-0.363692 4.48778,-0.363692 2.52133,-0.301882 4.32052,-2.590577 4.01857,-5.111895 -0.30301,-2.520418 -2.59135,-4.318329 -5.11189,-4.016328 z M 30.571757,105.73928 c 0.207068,2.89659 0.363692,4.48778 0.363692,4.48778 0.301882,2.52133 2.590577,4.32052 5.111895,4.01857 2.520418,-0.30301 4.318329,-2.59135 4.016328,-5.11189 0,0 -0.07999,-0.89803 -0.125721,-1.37619 -0.167332,-0.0239 -6.094356,-0.87692 -9.366194,-2.01827 z m 66.854241,0.002 c -0.04837,0.0169 -3.34696,1.158 -9.366194,2.01602 -0.04589,0.48064 -0.125721,1.38068 -0.125721,1.38068 -0.29916,2.52123 1.501893,4.80772 4.023063,5.1074 2.522054,0.3005 4.81,-1.50091 5.109649,-4.02306 0,0 0.153525,-1.59039 0.359203,-4.48104 z m -55.007307,5.90662 c 0.210723,2.5297 2.431683,4.40998 4.961478,4.20042 2.530596,-0.20956 4.412181,-2.43087 4.202664,-4.96147 0,0 -0.06049,-1.14449 -0.10776,-2.03848 -2.888973,-0.16088 -5.737284,-0.35317 -9.233739,-0.77006 0.105639,2.32217 0.177357,3.56959 0.177357,3.56959 z m 43.339974,-3.56957 c -1.702396,0.20115 -4.157884,0.48742 -9.233738,0.77007 -0.04727,0.89399 -0.107761,2.03848 -0.107761,2.03848 -0.209517,2.5306 1.672069,4.75191 4.202665,4.96147 2.529795,0.20956 4.750755,-1.67072 4.961478,-4.20042 0,0 0.07172,-1.24742 0.177356,-3.56957 z m -31.852244,4.03429 c 0.105676,2.53667 2.247423,4.50756 4.784122,4.40247 2.536674,-0.10568 4.507564,-2.24742 4.402471,-4.78412 0,0 -0.0426,-2.21588 -0.05164,-2.54809 -3.11045,-0.0118 -12.201846,-0.21328 -9.197816,-0.21328 0.01295,0.49266 0.06286,3.14302 0.06286,3.14302 z m 20.250017,-3.14302 c 0,0 -6.087367,0.2015 -9.197818,0.21328 -0.009,0.33221 -0.05163,2.54809 -0.05163,2.54809 -0.105094,2.5367 1.865796,4.67844 4.40247,4.78412 2.536699,0.1051 4.678447,-1.86579 4.784123,-4.40247 z"
       sodipodi:nodetypes="cccccccccccccccccccccccccccccccccccccccccsccccccccccsccccccccccccccccccccccccccccccsscccssccccsccccccccccsccccscccccccccccccccccccccccccccccccccccccccc" /><path
       sodipodi:type="star"
       style="display:inline;stroke-width:20.12229258;opacity:1;fill:none;fill-rule:evenodd;stroke:#6b5a83;stroke-linecap:round;stroke-linejoin:round;stroke-miterlimit:9.5;stroke-dasharray:none;fill-opacity:1"
       id="path146"
       inkscape:flatsided="true"
       sodipodi:sides="4"
       sodipodi:cx="64"
       sodipodi:cy="64"
       sodipodi:r1="49.414532"
       sodipodi:r2="34.941353"
       sodipodi:arg1="0.78539816"
       sodipodi:arg2="1.5707963"
       inkscape:rounded="0.12"
       inkscape:randomized="0"
       transform="matrix(0.91396872,0,0,0.91396872,5.5060014,5.5060016)"
       inkscape:path-effect="#path-effect162"
       d="m 95.361176,100.64556 c -12.495847,3.65747 -50.226564,3.65747 -62.722377,-1e-5 a 7.7845838,7.7845838 45.000096 0 1 -5.284355,-5.284374 c -3.657472,-12.495847 -3.65747,-50.226564 7e-6,-62.722377 a 7.7845838,7.7845838 135.0001 0 1 5.284373,-5.284355 c 12.495847,-3.657472 50.226564,-3.65747 62.722377,7e-6 a 7.7845838,7.7845838 45.000096 0 1 5.284359,5.284373 c 3.65747,12.495847 3.65747,50.226564 -1e-5,62.722377 a 7.7845838,7.7845838 135.0001 0 1 -5.284374,5.284359 z" /><path
       sodipodi:type="star"
       style="display:inline;stroke-width:10.13386849;opacity:1;fill:#ffffff;fill-rule:evenodd;stroke:#6b5a83;stroke-linecap:round;stroke-linejoin:round;stroke-miterlimit:9.5;stroke-dasharray:none;paint-order:stroke fill markers"
       id="path4"
       inkscape:flatsided="true"
       sodipodi:sides="4"
       sodipodi:cx="64"
       sodipodi:cy="64"
       sodipodi:r1="18.321344"
       sodipodi:r2="12.955147"
       sodipodi:arg1="0.78539816"
       sodipodi:arg2="1.5707963"
       inkscape:rounded="0.18"
       inkscape:randomized="0"
       d="m 76.955147,76.955147 c -3.297842,3.297842 -22.612452,3.297842 -25.910294,0 -3.297842,-3.297842 -3.297842,-22.612452 0,-25.910294 3.297842,-3.297842 22.612452,-3.297842 25.910294,0 3.297842,3.297842 3.297842,22.612452 0,25.910294 z"
       transform="matrix(0.90740994,0,0,0.90740994,5.9257644,5.9257634)" /><g
       id="g10"
       style="display:inline;stroke-width:1.14945"><path
         style="display:inline;stroke-width:9.195573;opacity:1;fill:none;fill-rule:evenodd;stroke:#6b5a83;stroke-linecap:butt;stroke-linejoin:round;stroke-miterlimit:9.5;stroke-dasharray:none"
         d="m 58.5,86.5 c -6.925685,0 -11.610008,-0.26232 -14.532149,-0.518254 -2.095694,-0.229762 -3.92734,1.409758 -3.930263,3.518008 C 40.219524,98.394507 41,98.493941 41,98.493941 M 69.5,86.5 c 6.925685,0 11.610008,-0.26232 14.532148,-0.518254 2.095695,-0.229762 3.927341,1.409758 3.930264,3.518008 C 87.780475,98.394507 87,98.493941 87,98.493941"
         id="path155"
         sodipodi:nodetypes="ccc"
         inkscape:path-effect="#path-effect157;#path-effect159"
         inkscape:original-d="m 58.5,86.5 c -13.522193,0 -18.5,-1 -18.5,-1 0,12.866539 1,12.993941 1,12.993941" /><path
         style="opacity:1;fill:#ffffff;fill-rule:evenodd;stroke:#6b5a83;stroke-width:4.5977865;stroke-linecap:round;stroke-linejoin:round;stroke-miterlimit:9.5;stroke-dasharray:none;stroke-opacity:1;paint-order:stroke fill markers"
         id="path3"
         inkscape:path-effect="#path-effect5;#path-effect6"
         sodipodi:type="arc"
         sodipodi:cx="58.5"
         sodipodi:cy="41.5"
         sodipodi:rx="4.5977864"
         sodipodi:ry="4.5977864"
         d="m 63.097786,41.5 c 0,2.539287 -2.058499,4.597786 -4.597786,4.597786 -2.539287,0 -4.597786,-2.058499 -4.597786,-4.597786 0,-2.539287 2.058499,-4.597786 4.597786,-4.597786 2.539287,0 4.597786,2.058499 4.597786,4.597786 z m 1.804427,0 c 0,2.539287 2.058499,4.597786 4.597787,4.597786 2.539287,0 4.597786,-2.058499 4.597786,-4.597786 0,-2.539287 -2.058499,-4.597786 -4.597786,-4.597786 -2.539288,0 -4.597787,2.058499 -4.597787,4.597786 z M 41.5,64.902214 c 2.539287,0 4.597786,2.058499 4.597786,4.597786 0,2.539287 -2.058499,4.597786 -4.597786,4.597786 -2.539287,0 -4.597786,-2.058499 -4.597786,-4.597786 0,-2.539287 2.058499,-4.597786 4.597786,-4.597786 z m 0,-1.804427 c 2.539287,0 4.597786,-2.058499 4.597786,-4.597787 0,-2.539287 -2.058499,-4.597786 -4.597786,-4.597786 -2.539287,0 -4.597786,2.058499 -4.597786,4.597786 0,2.539288 2.058499,4.597787 4.597786,4.597787 z M 64.902214,86.5 c 0,-2.539287 2.058499,-4.597786 4.597786,-4.597786 2.539287,0 4.597786,2.058499 4.597786,4.597786 0,2.539287 -2.058499,4.597786 -4.597786,4.597786 -2.539287,0 -4.597786,-2.058499 -4.597786,-4.597786 z m -1.804427,0 c 0,-2.539287 -2.058499,-4.597786 -4.597787,-4.597786 -2.539287,0 -4.597786,2.058499 -4.597786,4.597786 0,2.539287 2.058499,4.597786 4.597786,4.597786 2.539288,0 4.597787,-2.058499 4.597787,-4.597786 z M 86.5,63.097786 c -2.539287,0 -4.597786,-2.058499 -4.597786,-4.597786 0,-2.539287 2.058499,-4.597786 4.597786,-4.597786 2.539287,0 4.597786,2.058499 4.597786,4.597786 0,2.539287 -2.058499,4.597786 -4.597786,4.597786 z m 0,1.804427 c -2.539287,0 -4.597786,2.058499 -4.597786,4.597787 0,2.539287 2.058499,4.597786 4.597786,4.597786 2.539287,0 4.597786,-2.058499 4.597786,-4.597786 0,-2.539288 -2.058499,-4.597787 -4.597786,-4.597787 z" /><path
         style="opacity:1;fill:none;fill-rule:evenodd;stroke:#ffffff;stroke-width:4.59779;stroke-linecap:butt;stroke-linejoin:round;stroke-miterlimit:9.5;stroke-dasharray:none"
         d="m 99.956925,59.5 c 0,0 -0.02146,-1 -13.456925,-1 m 13.456925,10 c 0,0 -0.02146,1 -13.456925,1 m -27,-41.456925 c 0,0 -1,0.02146 -1,13.456925 m 10,-13.456925 c 0,0 1,0.02146 1,13.456925 m -41.456925,27 c 0,0 0.02146,1 13.456925,1 m -13.456925,-10 c 0,0 0.02146,-1 13.456925,-1"
         id="path5"
         sodipodi:nodetypes="cc"
         inkscape:path-effect="#path-effect7;#path-effect8"
         inkscape:original-d="m 59.5,28.043075 c 0,0 -1,0.02146 -1,13.456925" /><path
         style="opacity:1;fill:none;fill-rule:evenodd;stroke:#ffffff;stroke-width:4.59779;stroke-linecap:butt;stroke-linejoin:round;stroke-miterlimit:9.5;stroke-dasharray:none"
         d="m 58.5,86.5 c -6.925685,0 -11.610008,-0.26232 -14.532149,-0.518254 -2.095694,-0.229762 -3.92734,1.409758 -3.930263,3.518008 C 40.219524,98.394507 41,98.493941 41,98.493941 M 69.5,86.5 c 6.925685,0 11.610008,-0.26232 14.532148,-0.518254 2.095695,-0.229762 3.927341,1.409758 3.930264,3.518008 C 87.780475,98.394507 87,98.493941 87,98.493941"
         id="path8"
         sodipodi:nodetypes="ccc"
         inkscape:path-effect="#path-effect9;#path-effect10"
         inkscape:original-d="m 58.5,86.5 c -13.522193,0 -18.5,-1 -18.5,-1 0,12.866539 1,12.993941 1,12.993941" /></g><path
       sodipodi:type="star"
       style="display:inline;opacity:1;fill:none;fill-opacity:1;fill-rule:evenodd;stroke:#ffffff;stroke-width:10.06114618;stroke-linecap:round;stroke-linejoin:round;stroke-miterlimit:9.5;stroke-dasharray:none"
       id="path2"
       inkscape:flatsided="true"
       sodipodi:sides="4"
       sodipodi:cx="64"
       sodipodi:cy="64"
       sodipodi:r1="49.414532"
       sodipodi:r2="34.941353"
       sodipodi:arg1="0.78539816"
       sodipodi:arg2="1.5707963"
       inkscape:rounded="0.12"
       inkscape:randomized="0"
       d="m 95.361176,100.64556 c -12.495847,3.65747 -50.226564,3.65747 -62.722377,-1e-5 a 7.7845838,7.7845838 45.000096 0 1 -5.284355,-5.284374 c -3.657472,-12.495847 -3.65747,-50.226564 7e-6,-62.722377 a 7.7845838,7.7845838 135.0001 0 1 5.284373,-5.284355 c 12.495847,-3.657472 50.226564,-3.65747 62.722377,7e-6 a 7.7845838,7.7845838 45.000096 0 1 5.284359,5.284373 c 3.65747,12.495847 3.65747,50.226564 -1e-5,62.722377 a 7.7845838,7.7845838 135.0001 0 1 -5.284374,5.284359 z"
       transform="matrix(0.91396873,0,0,0.91396873,5.5060013,5.5060013)"
       inkscape:path-effect="#path-effect160" /></g></svg>
