<?xml version="1.0" encoding="UTF-8" standalone="no"?>
<!-- Created with Inkscape (http://www.inkscape.org/) -->

<svg
   xmlns:dc="http://purl.org/dc/elements/1.1/"
   xmlns:cc="http://creativecommons.org/ns#"
   xmlns:rdf="http://www.w3.org/1999/02/22-rdf-syntax-ns#"
   xmlns:svg="http://www.w3.org/2000/svg"
   xmlns="http://www.w3.org/2000/svg"
   xmlns:sodipodi="http://sodipodi.sourceforge.net/DTD/sodipodi-0.dtd"
   xmlns:inkscape="http://www.inkscape.org/namespaces/inkscape"
   width="128px"
   height="128px"
   viewBox="0 0 128 128"
   version="1.1"
   id="SVGRoot"
   inkscape:version="0.92.4 (5da689c313, 2019-01-14)"
   sodipodi:docname="delta_iconpack.svg">
  <defs
     id="defs815" />
  <sodipodi:namedview
     id="base"
     pagecolor="#ffffff"
     bordercolor="#666666"
     borderopacity="1.0"
     inkscape:pageopacity="0.0"
     inkscape:pageshadow="2"
     inkscape:zoom="4.8724714"
     inkscape:cx="27.36081"
     inkscape:cy="73.798322"
     inkscape:document-units="px"
     inkscape:current-layer="layer1"
     showgrid="true"
     inkscape:window-width="1920"
     inkscape:window-height="1017"
     inkscape:window-x="-8"
     inkscape:window-y="-8"
     inkscape:window-maximized="1"
     inkscape:grid-bbox="true"
     inkscape:snap-global="true"
     showguides="true">
    <inkscape:grid
       type="xygrid"
       id="grid1382" />
  </sodipodi:namedview>
  <metadata
     id="metadata818">
    <rdf:RDF>
      <cc:Work
         rdf:about="">
        <dc:format>image/svg+xml</dc:format>
        <dc:type
           rdf:resource="http://purl.org/dc/dcmitype/StillImage" />
        <dc:title />
      </cc:Work>
    </rdf:RDF>
  </metadata>
  <g
     inkscape:label="Layer 1"
     inkscape:groupmode="layer"
     id="layer1">
    <rect
       style="opacity:1;vector-effect:none;fill:#555255;fill-opacity:1;fill-rule:evenodd;stroke:none;paint-order:normal"
       id="rect1384"
       width="124"
       height="124"
       x="2"
       y="2"
       ry="62" />
    <rect
       style="opacity:1;vector-effect:none;fill:#696872;fill-opacity:1;fill-rule:evenodd;stroke:none;stroke-width:0.93548387;paint-order:normal"
       id="rect1384-6"
       width="116"
       height="116"
       x="6"
       y="6"
       ry="58" />
    <path
       style="opacity:0.5;vector-effect:none;fill:#555255;fill-opacity:1;fill-rule:evenodd;stroke:none;stroke-width:4.5714283;stroke-linecap:round;stroke-linejoin:round;stroke-miterlimit:4;stroke-dasharray:none;stroke-opacity:1;paint-order:stroke fill markers"
       d="m 66,32 c -4.432,0 -8,3.568 -8,8 0,4.432 3.568,8 8,8 4.432,0 8,-3.568 8,-8 0,-4.432 -3.568,-8 -8,-8 z M 52,46 c -4.432,0 -8,3.568 -8,8 0,4.432 3.568,8 8,8 4.432,0 8,-3.568 8,-8 0,-4.432 -3.568,-8 -8,-8 z m 28,0 c -4.432,0 -8,3.568 -8,8 0,4.432 3.568,8 8,8 4.432,0 8,-3.568 8,-8 0,-4.432 -3.568,-8 -8,-8 z M 39,60 c -4.432,0 -8,3.568 -8,8 0,4.432 3.568,8 8,8 4.432,0 8,-3.568 8,-8 0,-4.432 -3.568,-8 -8,-8 z m 27,0 c -4.432,0 -8,3.568 -8,8 0,4.432 3.568,8 8,8 4.432,0 8,-3.568 8,-8 0,-4.432 -3.568,-8 -8,-8 z m 27,0 c -4.432,0 -8,3.568 -8,8 0,4.432 3.568,8 8,8 4.432,0 8,-3.568 8,-8 0,-4.432 -3.568,-8 -8,-8 z M 52,74 c -4.432,0 -8,3.568 -8,8 0,4.432 3.568,8 8,8 4.432,0 8,-3.568 8,-8 0,-4.432 -3.568,-8 -8,-8 z m 28,0 c -4.432,0 -8,3.568 -8,8 0,4.432 3.568,8 8,8 4.432,0 8,-3.568 8,-8 0,-4.432 -3.568,-8 -8,-8 z M 66,87 c -4.432,0 -8,3.568 -8,8 0,4.432 3.568,8 8,8 4.432,0 8,-3.568 8,-8 0,-4.432 -3.568,-8 -8,-8 z"
       id="rect818-2"
       inkscape:connector-curvature="0" />
    <rect
       style="opacity:1;vector-effect:none;fill:#3a76c3;fill-opacity:1;fill-rule:evenodd;stroke:none;stroke-width:4.5714283;stroke-linecap:round;stroke-linejoin:round;stroke-miterlimit:4;stroke-dasharray:none;stroke-opacity:1;paint-order:stroke fill markers"
       id="rect818"
       width="16"
       height="16"
       x="56"
       y="56"
       ry="8" />
    <rect
       style="opacity:1;vector-effect:none;fill:#6d9fe9;fill-opacity:1;fill-rule:evenodd;stroke:none;stroke-width:3.19999981;stroke-linecap:round;stroke-linejoin:round;stroke-miterlimit:4;stroke-dasharray:none;stroke-opacity:1;paint-order:stroke fill markers"
       id="rect820"
       width="8"
       height="8"
       x="60"
       y="60"
       ry="4" />
    <rect
       style="opacity:1;vector-effect:none;fill:#74564d;fill-opacity:1;fill-rule:evenodd;stroke:none;stroke-width:4.5714283;stroke-linecap:round;stroke-linejoin:round;stroke-miterlimit:4;stroke-dasharray:none;stroke-opacity:1;paint-order:stroke fill markers"
       id="rect818-4"
       width="16"
       height="16"
       x="29"
       y="56"
       ry="8" />
    <rect
       style="opacity:1;vector-effect:none;fill:#af8f7c;fill-opacity:1;fill-rule:evenodd;stroke:none;stroke-width:3.19999981;stroke-linecap:round;stroke-linejoin:round;stroke-miterlimit:4;stroke-dasharray:none;stroke-opacity:1;paint-order:stroke fill markers"
       id="rect820-6"
       width="8"
       height="8"
       x="33"
       y="60"
       ry="4" />
    <rect
       style="opacity:1;vector-effect:none;fill:#b9a400;fill-opacity:1;fill-rule:evenodd;stroke:none;stroke-width:4.5714283;stroke-linecap:round;stroke-linejoin:round;stroke-miterlimit:4;stroke-dasharray:none;stroke-opacity:1;paint-order:stroke fill markers"
       id="rect818-3-4"
       width="16"
       height="16"
       x="83"
       y="56"
       ry="8" />
    <rect
       style="opacity:1;vector-effect:none;fill:#e2db53;fill-opacity:1;fill-rule:evenodd;stroke:none;stroke-width:3.19999981;stroke-linecap:round;stroke-linejoin:round;stroke-miterlimit:4;stroke-dasharray:none;stroke-opacity:1;paint-order:stroke fill markers"
       id="rect820-9-6"
       width="8"
       height="8"
       x="87"
       y="60"
       ry="4" />
    <rect
       style="opacity:1;vector-effect:none;fill:#5b9323;fill-opacity:1;fill-rule:evenodd;stroke:none;stroke-width:4.5714283;stroke-linecap:round;stroke-linejoin:round;stroke-miterlimit:4;stroke-dasharray:none;stroke-opacity:1;paint-order:stroke fill markers"
       id="rect818-4-2"
       width="16"
       height="16"
       x="42"
       y="42"
       ry="8" />
    <rect
       style="opacity:1;vector-effect:none;fill:#b7ed50;fill-opacity:1;fill-rule:evenodd;stroke:none;stroke-width:3.19999981;stroke-linecap:round;stroke-linejoin:round;stroke-miterlimit:4;stroke-dasharray:none;stroke-opacity:1;paint-order:stroke fill markers"
       id="rect820-6-09"
       width="8"
       height="8"
       x="46"
       y="46"
       ry="4" />
    <rect
       style="opacity:1;vector-effect:none;fill:#6b5a82;fill-opacity:1;fill-rule:evenodd;stroke:none;stroke-width:4.5714283;stroke-linecap:round;stroke-linejoin:round;stroke-miterlimit:4;stroke-dasharray:none;stroke-opacity:1;paint-order:stroke fill markers"
       id="rect818-3-5"
       width="16"
       height="16"
       x="70"
       y="70"
       ry="8" />
    <rect
       style="opacity:1;vector-effect:none;fill:#9a6fc7;fill-opacity:1;fill-rule:evenodd;stroke:none;stroke-width:3.19999981;stroke-linecap:round;stroke-linejoin:round;stroke-miterlimit:4;stroke-dasharray:none;stroke-opacity:1;paint-order:stroke fill markers"
       id="rect820-9-7"
       width="8"
       height="8"
       x="74"
       y="74"
       ry="4" />
    <rect
       style="opacity:1;vector-effect:none;fill:#f08117;fill-opacity:1;fill-rule:evenodd;stroke:none;stroke-width:4.5714283;stroke-linecap:round;stroke-linejoin:round;stroke-miterlimit:4;stroke-dasharray:none;stroke-opacity:1;paint-order:stroke fill markers"
       id="rect818-3-0"
       width="16"
       height="16"
       x="70"
       y="42"
       ry="8" />
    <rect
       style="opacity:1;vector-effect:none;fill:#f8c365;fill-opacity:1;fill-rule:evenodd;stroke:none;stroke-width:3.19999981;stroke-linecap:round;stroke-linejoin:round;stroke-miterlimit:4;stroke-dasharray:none;stroke-opacity:1;paint-order:stroke fill markers"
       id="rect820-9-9"
       width="8"
       height="8"
       x="74"
       y="46"
       ry="4" />
    <rect
       style="opacity:1;vector-effect:none;fill:#2c737f;fill-opacity:1;fill-rule:evenodd;stroke:none;stroke-width:4.5714283;stroke-linecap:round;stroke-linejoin:round;stroke-miterlimit:4;stroke-dasharray:none;stroke-opacity:1;paint-order:stroke fill markers"
       id="rect818-4-0"
       width="16"
       height="16"
       x="42"
       y="70"
       ry="8" />
    <rect
       style="opacity:1;vector-effect:none;fill:#40bfb3;fill-opacity:1;fill-rule:evenodd;stroke:none;stroke-width:3.19999981;stroke-linecap:round;stroke-linejoin:round;stroke-miterlimit:4;stroke-dasharray:none;stroke-opacity:1;paint-order:stroke fill markers"
       id="rect820-6-9"
       width="8"
       height="8"
       x="46"
       y="74"
       ry="4" />
    <rect
       style="opacity:1;vector-effect:none;fill:#d5425d;fill-opacity:1;fill-rule:evenodd;stroke:none;stroke-width:4.5714283;stroke-linecap:round;stroke-linejoin:round;stroke-miterlimit:4;stroke-dasharray:none;stroke-opacity:1;paint-order:stroke fill markers"
       id="rect818-3-9"
       width="16"
       height="16"
       x="56"
       y="28"
       ry="8" />
    <rect
       style="opacity:1;vector-effect:none;fill:#ff8090;fill-opacity:1;fill-rule:evenodd;stroke:none;stroke-width:3.19999981;stroke-linecap:round;stroke-linejoin:round;stroke-miterlimit:4;stroke-dasharray:none;stroke-opacity:1;paint-order:stroke fill markers"
       id="rect820-9-69"
       width="8"
       height="8"
       x="60"
       y="32"
       ry="4" />
    <rect
       style="opacity:1;vector-effect:none;fill:#555255;fill-opacity:1;fill-rule:evenodd;stroke:none;stroke-width:4.5714283;stroke-linecap:round;stroke-linejoin:round;stroke-miterlimit:4;stroke-dasharray:none;stroke-opacity:1;paint-order:stroke fill markers"
       id="rect818-4-4"
       width="16"
       height="16"
       x="56"
       y="83"
       ry="8" />
    <rect
       style="opacity:1;vector-effect:none;fill:#8c979d;fill-opacity:1;fill-rule:evenodd;stroke:none;stroke-width:3.19999981;stroke-linecap:round;stroke-linejoin:round;stroke-miterlimit:4;stroke-dasharray:none;stroke-opacity:1;paint-order:stroke fill markers"
       id="rect820-6-8"
       width="8"
       height="8"
       x="60"
       y="87"
       ry="4" />
  </g>
</svg>
