<?xml version="1.0" encoding="UTF-8" standalone="no"?>
<!-- Created with Inkscape (http://www.inkscape.org/) -->

<svg
   enable-background="new"
   inkscape:export-ydpi="384"
   inkscape:export-xdpi="384"
   inkscape:export-filename="..\app\src\main\res\drawable-nodpi\dijeweled.png"
   sodipodi:docname="dijeweled.svg"
   inkscape:version="1.3 (0e150ed6c4, 2023-07-21)"
   id="svg8"
   version="1.1"
   viewBox="0 0 128 128"
   height="128"
   width="128"
   xml:space="preserve"
   xmlns:inkscape="http://www.inkscape.org/namespaces/inkscape"
   xmlns:sodipodi="http://sodipodi.sourceforge.net/DTD/sodipodi-0.dtd"
   xmlns="http://www.w3.org/2000/svg"
   xmlns:svg="http://www.w3.org/2000/svg"
   xmlns:rdf="http://www.w3.org/1999/02/22-rdf-syntax-ns#"
   xmlns:cc="http://creativecommons.org/ns#"
   xmlns:dc="http://purl.org/dc/elements/1.1/"><sodipodi:namedview
     id="base"
     pagecolor="#ffffff"
     bordercolor="#666666"
     borderopacity="1.0"
     inkscape:pageopacity="0.0"
     inkscape:pageshadow="2"
     inkscape:zoom="1"
     inkscape:cx="22"
     inkscape:cy="121"
     inkscape:document-units="px"
     inkscape:current-layer="g4301"
     showgrid="false"
     units="px"
     inkscape:pagecheckerboard="true"
     borderlayer="true"
     gridtolerance="10"
     inkscape:snap-smooth-nodes="true"
     inkscape:snap-text-baseline="true"
     inkscape:snap-page="true"
     showguides="true"
     inkscape:guide-bbox="true"
     inkscape:snap-object-midpoints="true"
     inkscape:snap-center="true"
     inkscape:snap-global="true"
     inkscape:lockguides="false"
     inkscape:snap-bbox="true"
     inkscape:bbox-nodes="true"
     inkscape:showpageshadow="0"
     inkscape:deskcolor="#d1d1d1"
     inkscape:window-width="1852"
     inkscape:window-height="1057"
     inkscape:window-x="60"
     inkscape:window-y="-8"
     inkscape:window-maximized="1"><inkscape:grid
       enabled="false"
       empspacing="4"
       id="grid4131"
       type="xygrid"
       spacingx="8"
       spacingy="8"
       originx="0"
       originy="0"
       units="px"
       visible="false" /><inkscape:grid
       empspacing="4"
       id="grid4167"
       type="xygrid"
       originx="0"
       originy="0"
       spacingy="1"
       spacingx="1"
       units="px"
       visible="false" /></sodipodi:namedview><defs
     id="defs2"><clipPath
       clipPathUnits="userSpaceOnUse"
       id="clipPath4313"><circle
         r="60"
         cy="64"
         cx="64"
         id="circle4315"
         style="display:inline;opacity:1;vector-effect:none;fill:#76ddfe;fill-opacity:1;fill-rule:nonzero;stroke:none;stroke-width:4;stroke-linecap:butt;stroke-linejoin:round;stroke-miterlimit:4;stroke-dasharray:none;stroke-dashoffset:0;stroke-opacity:1;paint-order:fill markers stroke" /></clipPath><clipPath
       clipPathUnits="userSpaceOnUse"
       id="clipPath4434-0"><path
         id="path4437-1"
         d="M 249.05078,-28.820312 C 244.79669,-28.588426 220.86921,-25.177287 214.83984,-23.619141 209.80856,-21.50634 179.61046,1.4386228 175.42969,5.6640625 169.49608,12.328471 157.47576,29.668285 155.99805,34.400391 163.50791,55.713239 232.85342,136.22341 249.05078,147.13672 265.24814,136.22341 334.5917,55.713239 342.10156,34.400391 340.62385,29.668285 328.60549,12.328471 322.67188,5.6640625 318.49111,1.4386228 288.293,-21.50634 283.26172,-23.619141 277.23235,-25.177287 253.30487,-28.588426 249.05078,-28.820312 Z"
         style="opacity:0.5;vector-effect:none;fill:none;fill-opacity:1;fill-rule:nonzero;stroke:#74564d;stroke-width:1;stroke-linecap:round;stroke-linejoin:round;stroke-miterlimit:4;stroke-dasharray:none;stroke-dashoffset:0;stroke-opacity:1;paint-order:fill markers stroke"
         inkscape:connector-curvature="0" /></clipPath></defs><metadata
     id="metadata5"><rdf:RDF><cc:Work
         rdf:about=""><dc:format>image/svg+xml</dc:format><dc:type
           rdf:resource="http://purl.org/dc/dcmitype/StillImage" /></cc:Work></rdf:RDF></metadata><style
     id="style2296">.B{fill:#fc9abf}.C{fill:#ffc7df}.D{fill:#ed84cb}.E{fill-opacity:1}.F{stroke:none}</style><g
     style="display:inline"
     inkscape:label="bejeweled classic"
     id="g4301"
     inkscape:groupmode="layer"><g
       clip-path="url(#clipPath4313)"
       id="g4297"
       inkscape:groupmode="maskhelper"><g
         id="g4249"><circle
           r="60"
           cy="64"
           cx="64"
           id="circle4243"
           style="display:inline;opacity:1;vector-effect:none;fill:#4c4c4c;fill-opacity:1;fill-rule:nonzero;stroke:none;stroke-width:4;stroke-linecap:butt;stroke-linejoin:round;stroke-miterlimit:4;stroke-dasharray:none;stroke-dashoffset:0;stroke-opacity:1;paint-order:fill markers stroke" /></g><g
         style="display:inline;stroke-width:8.3138;stroke-miterlimit:4;stroke-dasharray:none"
         id="g4295"
         transform="matrix(0.48112751,0,0,0.48112751,-55.824713,35.537385)"><path
           sodipodi:nodetypes="ccccccsccc"
           id="path4252"
           d="m 253.20757,-5.9816958 c -3.75277,0.2045592 -24.86049,3.2137092 -30.17932,4.5882335 -4.43836,1.86381569 -31.07774,22.1048053 -34.76582,25.8322933 -5.23436,5.879035 -15.83813,21.17542 -17.1417,25.349866 6.62485,18.801213 67.79827,89.823573 82.08684,99.450793 14.28856,-9.62722 75.46026,-80.64958 82.08511,-99.450793 -0.53786,-1.722386 -2.65869,-5.33818 -5.33233,-9.404665 -3.8063,-5.789215 -8.73299,-12.49187 -11.80764,-15.945201 -3.68808,-3.727488 -30.32747,-23.96847761 -34.76583,-25.8322933 -5.31883,-1.3745243 -26.42655,-4.3836743 -30.17931,-4.5882335 z"
           style="opacity:0.5;vector-effect:none;fill:#373737;fill-opacity:1;fill-rule:nonzero;stroke:#373737;stroke-width:16.6276;stroke-linecap:round;stroke-linejoin:round;stroke-miterlimit:4;stroke-dasharray:none;stroke-dashoffset:0;stroke-opacity:1;paint-order:fill markers stroke"
           inkscape:connector-curvature="0" /><path
           inkscape:connector-curvature="0"
           style="opacity:1;vector-effect:none;fill:#45a9f3;fill-opacity:1;fill-rule:nonzero;stroke:#f78400;stroke-width:16.6276;stroke-linecap:round;stroke-linejoin:round;stroke-miterlimit:4;stroke-dasharray:none;stroke-dashoffset:0;stroke-opacity:1;paint-order:fill markers stroke"
           d="m 249.05067,-14.2955 c -3.75277,0.204559 -24.86049,3.213709 -30.17932,4.5882333 -4.43836,1.8638157 -31.07774,22.1048057 -34.76582,25.8322937 -5.23436,5.879035 -15.83813,21.17542 -17.1417,25.349866 6.62485,18.801213 67.79827,89.823577 82.08684,99.450797 14.28856,-9.62722 75.46026,-80.649584 82.08511,-99.450797 C 329.83221,37.300447 319.23017,22.004062 313.99581,16.125027 310.30773,12.397539 283.66834,-7.843451 279.22998,-9.7072667 273.91115,-11.081791 252.80343,-14.090941 249.05067,-14.2955 Z"
           id="path4254" /><g
           clip-path="url(#clipPath4434-0)"
           id="g4292"
           inkscape:groupmode="maskhelper"
           style="stroke-width:8.3138;stroke-miterlimit:4;stroke-dasharray:none"
           transform="matrix(0.88215396,0,0,0.88215396,29.349534,11.128452)"><g
             id="g4272"
             style="stroke-width:8.3138;stroke-miterlimit:4;stroke-dasharray:none"><rect
               y="-36.841801"
               x="153.0498"
               height="192"
               width="192"
               id="rect4256"
               style="opacity:1;vector-effect:none;fill:#0d6af0;fill-opacity:1;fill-rule:nonzero;stroke:none;stroke-width:8.3138;stroke-linecap:round;stroke-linejoin:round;stroke-miterlimit:4;stroke-dasharray:none;stroke-dashoffset:0;stroke-opacity:1;paint-order:fill markers stroke" /><path
               inkscape:connector-curvature="0"
               style="display:inline;opacity:1;vector-effect:none;fill:#7bf6fe;fill-opacity:1;fill-rule:nonzero;stroke:none;stroke-width:8.3138;stroke-linecap:round;stroke-linejoin:round;stroke-miterlimit:4;stroke-dasharray:none;stroke-dashoffset:0;stroke-opacity:1;paint-order:fill markers stroke"
               d="m 249.05078,6.302734 c -1.36166,0.630655 -3.197,1.674473 -5.28125,2.955078 -2.08425,1.280604 -4.41717,2.799322 -6.77148,4.378906 -4.70864,3.159167 -9.50438,6.565197 -12.57813,8.814453 -0.72941,0.829194 -1.48223,1.882689 -2.2832,3.21289 -0.80097,1.330202 -1.64993,2.936726 -2.57617,4.873047 -1.85249,3.872643 -4.00972,9.062431 -6.68555,15.990235 3.92999,0.317765 24.45267,0.64117 36.17578,0.662109 11.72311,-0.02094 32.24579,-0.344344 36.17578,-0.662109 -2.67583,-6.927804 -4.83306,-12.117592 -6.68554,-15.990235 -0.92625,-1.936321 -1.7752,-3.542845 -2.57618,-4.873047 -0.80097,-1.330201 -1.55379,-2.383696 -2.2832,-3.21289 -3.07375,-2.249254 -7.86949,-5.655285 -12.57812,-8.814453 -2.35432,-1.579584 -4.68724,-3.098301 -6.77149,-4.378906 -2.08425,-1.280605 -3.91959,-2.324424 -5.28125,-2.955078 z"
               id="path4258" /><path
               inkscape:connector-curvature="0"
               style="display:inline;opacity:1;vector-effect:none;fill:#0e3b74;fill-opacity:1;fill-rule:nonzero;stroke:none;stroke-width:8.3138;stroke-linecap:round;stroke-linejoin:round;stroke-miterlimit:4;stroke-dasharray:none;stroke-dashoffset:0;stroke-opacity:1;paint-order:fill markers stroke"
               d="m 249.05078,147.13672 c -1.89866,-4.2594 -4.93876,-11.92729 -8.47461,-21.2207 -3.53585,-9.29342 -7.56728,-20.21316 -11.44531,-30.97461 -3.87803,-10.761459 -7.60411,-21.363835 -10.5293,-30.027349 -2.92518,-8.663513 -5.04923,-15.387122 -5.72656,-18.386718 -2.85445,-0.411235 -15.04724,-2.444075 -27.53906,-4.873047 -6.24592,-1.214486 -12.56585,-2.5271 -17.83203,-3.787109 -2.63309,-0.630005 -5.00228,-1.24801 -6.9668,-1.832032 -1.96452,-0.584022 -3.52553,-1.134969 -4.53906,-1.634765 7.50986,21.312848 76.85537,101.82302 93.05273,112.73633 z"
               id="path4260" /><path
               inkscape:connector-curvature="0"
               style="display:inline;opacity:1;vector-effect:none;fill:#0e3b74;fill-opacity:1;fill-rule:nonzero;stroke:none;stroke-width:8.3138;stroke-linecap:round;stroke-linejoin:round;stroke-miterlimit:4;stroke-dasharray:none;stroke-dashoffset:0;stroke-opacity:1;paint-order:fill markers stroke"
               d="m 342.10156,34.40039 c -1.01356,0.499645 -2.57333,1.050966 -4.53711,1.634765 -1.96452,0.584022 -4.3337,1.202027 -6.96679,1.832032 -5.26618,1.260009 -11.58612,2.572623 -17.83204,3.787109 -12.49182,2.428972 -24.6846,4.461812 -27.53906,4.873047 -0.67733,2.999596 -2.80137,9.723206 -5.72656,18.386718 -2.92519,8.663514 -6.65127,19.26589 -10.5293,30.027349 -3.87802,10.76145 -7.90946,21.68119 -11.44531,30.97461 -3.53585,9.29341 -6.57595,16.9613 -8.47461,21.2207 16.19736,-10.91331 85.54092,-91.423482 93.05078,-112.73633 z"
               id="path4262" /><path
               inkscape:connector-curvature="0"
               style="display:inline;opacity:1;vector-effect:none;fill:#0e3b74;fill-opacity:1;fill-rule:nonzero;stroke:none;stroke-width:8.3138;stroke-linecap:round;stroke-linejoin:round;stroke-miterlimit:4;stroke-dasharray:none;stroke-dashoffset:0;stroke-opacity:1;paint-order:fill markers stroke"
               d="m 213.1543,-0.7910162 c 0.49207,1.8364445 1.26004,3.9212732 2.17968,6.0878902 0.91965,2.166618 1.99159,4.415347 3.09375,6.576172 2.20434,4.321651 4.52807,8.295431 5.99219,10.578125 3.07375,-2.249256 7.86949,-5.655286 12.57813,-8.814453 2.35431,-1.579584 4.68723,-3.098302 6.77148,-4.378906 2.08425,-1.280605 3.91959,-2.324423 5.28125,-2.955078 C 247.64816,6.29129 245.63126,6.098253 243.16406,5.749999 240.69687,5.401746 237.7798,4.898262 234.57227,4.269531 228.1572,3.012069 220.58528,1.2503672 213.1543,-0.7910162 Z"
               id="path4264" /><path
               inkscape:connector-curvature="0"
               style="display:inline;opacity:1;vector-effect:none;fill:#7bf6fe;fill-opacity:1;fill-rule:nonzero;stroke:none;stroke-width:8.3138;stroke-linecap:round;stroke-linejoin:round;stroke-miterlimit:4;stroke-dasharray:none;stroke-dashoffset:0;stroke-opacity:1;paint-order:fill markers stroke"
               d="m 192.16211,-7.72461 c -7.66371,5.8154973 -14.87,11.506351 -16.73242,13.388672 1.90698,-0.700428 4.83796,-1.453279 8.25781,-2.189453 3.41985,-0.736175 7.32818,-1.4563682 11.1875,-2.0878908 3.85932,-0.6315227 7.6711,-1.1740755 10.89648,-1.5605469 3.22539,-0.3864714 5.86478,-0.6161665 7.38282,-0.6171875 -3.7155,-1.0206917 -7.3958,-2.111966 -10.87891,-3.2441406 -3.48311,-1.1321747 -6.76882,-2.3048616 -9.69531,-3.4921876 -0.16211,-0.065772 -0.25809,-0.131416 -0.41797,-0.1972656 z"
               id="path4266" /><path
               inkscape:connector-curvature="0"
               style="display:inline;opacity:1;vector-effect:none;fill:#0e3b74;fill-opacity:1;fill-rule:nonzero;stroke:none;stroke-width:8.3138;stroke-linecap:round;stroke-linejoin:round;stroke-miterlimit:4;stroke-dasharray:none;stroke-dashoffset:0;stroke-opacity:1;paint-order:fill markers stroke"
               d="m 273.68164,22.451171 c 1.46412,-2.282694 3.78785,-6.256474 5.99219,-10.578125 1.10217,-2.160825 2.1741,-4.409554 3.09375,-6.576172 0.91965,-2.166617 1.68761,-4.2514457 2.17969,-6.0878902 -7.43099,2.0413839 -15.0029,3.8030842 -21.41797,5.0605472 -3.20754,0.628731 -6.1246,1.132215 -8.5918,1.480468 -2.4672,0.348254 -4.4841,0.541291 -5.88672,0.552735 1.36166,0.630654 3.197,1.674473 5.28125,2.955078 2.08425,1.280605 4.41717,2.799322 6.77149,4.378906 4.70863,3.159168 9.50437,6.565199 12.57812,8.814453 z"
               id="path4268" /><path
               inkscape:connector-curvature="0"
               style="display:inline;opacity:1;vector-effect:none;fill:#7bf6fe;fill-opacity:1;fill-rule:nonzero;stroke:none;stroke-width:8.3138;stroke-linecap:round;stroke-linejoin:round;stroke-miterlimit:4;stroke-dasharray:none;stroke-dashoffset:0;stroke-opacity:1;paint-order:fill markers stroke"
               d="m 305.93945,-7.72461 c -0.15988,0.06585 -0.25585,0.1314941 -0.41797,0.1972656 -2.92649,1.1873262 -6.2122,2.3600127 -9.69531,3.4921876 -3.48311,1.1321748 -7.16341,2.2234486 -10.8789,3.2441406 1.51804,0.001021 4.15743,0.2307161 7.38281,0.6171875 3.22538,0.3864714 7.03716,0.9290242 10.89648,1.5605469 3.85932,0.6315226 7.76765,1.3517158 11.1875,2.0878908 3.41986,0.736174 6.35083,1.489025 8.25782,2.189453 -1.86244,-1.882321 -9.06872,-7.5731747 -16.73243,-13.388672 z"
               id="path4270" /></g><g
             id="g4290"
             style="stroke-width:8.3138;stroke-miterlimit:4;stroke-dasharray:none"><path
               inkscape:connector-curvature="0"
               style="display:inline;opacity:1;vector-effect:none;fill:#76ddfe;fill-opacity:0.576531;fill-rule:nonzero;stroke:none;stroke-width:8.3138;stroke-linecap:round;stroke-linejoin:round;stroke-miterlimit:4;stroke-dasharray:none;stroke-dashoffset:0;stroke-opacity:1;paint-order:fill markers stroke"
               d="m 155.99805,34.400393 c 2.5272,-1.04412 5.91502,-2.180654 9.77539,-3.320313 3.86036,-1.139658 8.19394,-2.282764 12.61133,-3.33789 4.41739,-1.055127 8.9189,-2.021976 13.11718,-2.8125 4.19828,-0.790525 8.09384,-1.404148 11.29688,-1.75 0.37224,-1.692048 1.08866,-3.984367 1.99414,-6.550782 0.90547,-2.566414 2.0002,-5.407585 3.12305,-8.193359 2.24569,-5.571549 4.61005,-10.926364 5.83007,-13.445313 -0.16014,-1.613671 -0.0232,-5.741509 0.22266,-9.728515 0.24586,-3.987006 0.59968,-7.832185 0.87109,-8.88086 -5.03128,2.112801 -35.22938,25.057764 -39.41015,29.283204 -5.93361,6.664408 -17.95393,24.004222 -19.43164,28.736328 z"
               id="path4274" /><path
               inkscape:connector-curvature="0"
               style="display:inline;opacity:1;vector-effect:none;fill:#6d9fe9;fill-opacity:0.734694;fill-rule:nonzero;stroke:none;stroke-width:8.3138;stroke-linecap:round;stroke-linejoin:round;stroke-miterlimit:4;stroke-dasharray:none;stroke-dashoffset:0;stroke-opacity:1;paint-order:fill markers stroke"
               d="m 283.26172,-23.619139 c 0.27141,1.048675 0.62523,4.893853 0.87109,8.88086 0.24587,3.987006 0.3828,8.114845 0.22266,9.728515 1.22002,2.51895 3.58438,7.873764 5.83008,13.445313 1.12284,2.785774 2.21757,5.626945 3.12304,8.193359 0.90548,2.566414 1.6219,4.858734 1.99414,6.550782 3.20304,0.345852 7.0986,0.959475 11.29688,1.75 4.19828,0.790524 8.6998,1.757373 13.11719,2.8125 4.41739,1.055126 8.75096,2.198232 12.61132,3.33789 3.85968,1.139455 7.24638,2.276346 9.77344,3.320313 -1.47771,-4.732106 -13.49609,-22.07192 -19.42968,-28.736328 -4.18077,-4.22544 -34.37888,-27.170403 -39.41016,-29.283204 z"
               id="path4276" /><path
               inkscape:connector-curvature="0"
               style="display:inline;opacity:1;vector-effect:none;fill:#98e5fe;fill-opacity:0.627551;fill-rule:nonzero;stroke:none;stroke-width:8.3138;stroke-linecap:round;stroke-linejoin:round;stroke-miterlimit:4;stroke-dasharray:none;stroke-dashoffset:0;stroke-opacity:1;paint-order:fill markers stroke"
               d="m 249.05078,-28.82031 c -4.25409,0.231886 -28.18157,3.643025 -34.21094,5.201171 -0.27141,1.048675 -0.62523,4.893854 -0.87109,8.88086 -0.24586,3.987006 -0.3828,8.114844 -0.22266,9.728515 1.42262,-1.494901 3.90099,-3.532328 6.92969,-5.796875 3.0287,-2.264546 6.60739,-4.755934 10.22656,-7.160156 3.61918,-2.404221 7.27862,-4.720839 10.47266,-6.634765 3.19404,-1.913927 5.9225,-3.42509 7.67578,-4.21875 z"
               id="path4278" /><path
               inkscape:connector-curvature="0"
               style="display:inline;opacity:1;vector-effect:none;fill:#3a76c3;fill-opacity:0.806122;fill-rule:nonzero;stroke:none;stroke-width:8.3138;stroke-linecap:round;stroke-linejoin:round;stroke-miterlimit:4;stroke-dasharray:none;stroke-dashoffset:0;stroke-opacity:1;paint-order:fill markers stroke"
               d="m 295.30273,23.17969 c -0.31683,2.496463 -1.04766,5.884849 -2.11328,9.955078 -1.06561,4.070229 -2.46453,8.823294 -4.11914,14.048828 -3.30922,10.451068 -7.63721,22.79394 -12.34375,35.355464 -4.70654,12.56153 -9.79354,25.34171 -14.61914,36.66602 -2.4128,5.66215 -4.75999,10.96039 -6.96289,15.68554 -2.20289,4.72516 -4.26054,8.87639 -6.09375,12.2461 16.19736,-10.91331 85.54092,-91.423479 93.05078,-112.736327 -2.52706,-1.043967 -5.91376,-2.180858 -9.77344,-3.320313 -3.86036,-1.139658 -8.19393,-2.282765 -12.61132,-3.33789 -4.41739,-1.055127 -8.91891,-2.021976 -13.11719,-2.8125 -4.19828,-0.790525 -8.09384,-1.404148 -11.29688,-1.75 z"
               id="path4280" /><path
               inkscape:connector-curvature="0"
               style="display:inline;opacity:1;vector-effect:none;fill:#3a76c3;fill-opacity:0.622449;fill-rule:nonzero;stroke:none;stroke-width:8.3138;stroke-linecap:round;stroke-linejoin:round;stroke-miterlimit:4;stroke-dasharray:none;stroke-dashoffset:0;stroke-opacity:1;paint-order:fill markers stroke"
               d="m 249.05078,147.13672 c -1.83321,-3.36971 -3.89085,-7.52094 -6.09375,-12.2461 -2.20289,-4.72515 -4.55009,-10.02339 -6.96289,-15.68554 -4.8256,-11.32431 -9.9126,-24.10449 -14.61914,-36.66602 -4.70654,-12.561524 -9.03453,-24.904396 -12.34375,-35.355464 -1.65461,-5.225534 -3.05353,-9.978599 -4.11914,-14.048828 -1.06561,-4.070229 -1.79645,-7.458615 -2.11328,-9.955078 -3.20304,0.345852 -7.0986,0.959475 -11.29688,1.75 -4.19828,0.790524 -8.69979,1.757372 -13.11718,2.8125 -4.41739,1.055126 -8.75097,2.198232 -12.61133,3.33789 -3.86037,1.139659 -7.24819,2.276193 -9.77539,3.320313 7.50986,21.312848 76.85537,101.823017 93.05273,112.736327 z"
               id="path4282" /><path
               inkscape:connector-curvature="0"
               style="display:inline;opacity:1;vector-effect:none;fill:#6d9fe9;fill-opacity:0.755102;fill-rule:nonzero;stroke:none;stroke-width:8.3138;stroke-linecap:round;stroke-linejoin:round;stroke-miterlimit:4;stroke-dasharray:none;stroke-dashoffset:0;stroke-opacity:1;paint-order:fill markers stroke"
               d="m 249.55469,22.000002 c -7.79978,0 -18.17441,0.113768 -27.25586,0.318359 -9.08145,0.204591 -16.86967,0.499871 -19.5,0.861329 0.31683,2.496463 1.04767,5.884849 2.11328,9.955078 1.06561,4.070229 2.46453,8.823294 4.11914,14.048828 3.30922,10.451068 7.63721,22.79394 12.34375,35.355464 4.70654,12.56153 9.79354,25.34171 14.61914,36.66602 2.4128,5.66215 4.76,10.96039 6.96289,15.68554 2.2029,4.72516 4.26054,8.87639 6.09375,12.2461 1.83321,-3.36971 3.89086,-7.52093 6.09375,-12.2461 2.2029,-4.72515 4.55009,-10.02339 6.96289,-15.68554 4.8256,-11.32431 9.9126,-24.10449 14.61914,-36.66602 4.70654,-12.561523 9.03453,-24.904396 12.34375,-35.355464 1.65461,-5.225534 3.05353,-9.978599 4.11914,-14.048828 1.06562,-4.070229 1.79645,-7.458615 2.11328,-9.955078 -0.003,-0.0116 -0.0111,-0.03326 -0.0137,-0.04492 -2.99461,-0.335861 -9.87469,-0.622532 -18.48047,-0.816407 -9.08144,-0.204591 -19.45413,-0.318359 -27.2539,-0.318359 z"
               id="path4284" /><path
               inkscape:connector-curvature="0"
               style="display:inline;opacity:1;vector-effect:none;fill:#a7e9fe;fill-opacity:0.806122;fill-rule:nonzero;stroke:none;stroke-width:8.3138;stroke-linecap:round;stroke-linejoin:round;stroke-miterlimit:4;stroke-dasharray:none;stroke-dashoffset:0;stroke-opacity:1;paint-order:fill markers stroke"
               d="m 249.05078,-28.82031 c -1.75328,0.79366 -4.48174,2.304823 -7.67578,4.21875 -3.19404,1.913926 -6.85348,4.230544 -10.47266,6.634765 -3.61917,2.404222 -7.19786,4.89561 -10.22656,7.160156 -3.0287,2.264547 -5.50707,4.301974 -6.92969,5.796875 -1.22002,2.518949 -3.58438,7.873764 -5.83007,13.445313 -1.12285,2.785774 -2.21758,5.626945 -3.12305,8.193359 -0.90548,2.566415 -1.6219,4.858734 -1.99414,6.550782 2.63033,-0.361458 10.41855,-0.656738 19.5,-0.861329 9.08145,-0.204591 19.45608,-0.318359 27.25586,-0.318359 7.79977,0 18.17246,0.113768 27.2539,0.318359 8.60578,0.193875 15.48586,0.480546 18.48047,0.816407 -0.37437,-1.688606 -1.0812,-3.957045 -1.98047,-6.50586 -0.90547,-2.566414 -2.0002,-5.407585 -3.12304,-8.193359 -2.2457,-5.571549 -4.61006,-10.926363 -5.83008,-13.445313 -1.42261,-1.4949 -3.90099,-3.532328 -6.92969,-5.796875 -3.0287,-2.264546 -6.60739,-4.755935 -10.22656,-7.160156 -3.61918,-2.404221 -7.27862,-4.72084 -10.47266,-6.634765 -3.19403,-1.913927 -5.9225,-3.425091 -7.67578,-4.21875 z"
               id="path4286" /><path
               inkscape:connector-curvature="0"
               style="display:inline;opacity:1;vector-effect:none;fill:#6d9fe9;fill-opacity:0.530612;fill-rule:nonzero;stroke:none;stroke-width:8.3138;stroke-linecap:round;stroke-linejoin:round;stroke-miterlimit:4;stroke-dasharray:none;stroke-dashoffset:0;stroke-opacity:1;paint-order:fill markers stroke"
               d="m 249.05078,-28.82031 c 1.75328,0.793659 4.48175,2.304824 7.67578,4.21875 3.19404,1.913925 6.85348,4.230544 10.47266,6.634765 3.61917,2.404221 7.19786,4.89561 10.22656,7.160156 3.0287,2.264546 5.50708,4.301975 6.92969,5.796875 0.16014,-1.61367 0.0232,-5.741509 -0.22266,-9.728515 -0.24586,-3.987007 -0.59968,-7.832185 -0.87109,-8.88086 -6.02937,-1.558146 -29.95685,-4.969285 -34.21094,-5.201171 z"
               id="path4288" /></g></g></g></g><circle
       r="60"
       cy="64"
       cx="64"
       id="circle4299"
       style="display:inline;opacity:1;vector-effect:none;fill:none;fill-opacity:1;fill-rule:nonzero;stroke:#373737;stroke-width:4;stroke-linecap:butt;stroke-linejoin:round;stroke-miterlimit:4;stroke-dasharray:none;stroke-dashoffset:0;stroke-opacity:1;paint-order:fill markers stroke" /><path
       id="text1"
       style="font-style:italic;font-weight:900;font-size:40.811px;line-height:1;font-family:Mikado;-inkscape-font-specification:'Mikado Heavy Italic';text-align:center;letter-spacing:0px;word-spacing:0px;text-anchor:middle;fill:#ffab37;stroke:#945e1f;stroke-width:7.99998;stroke-linecap:round;stroke-linejoin:round;paint-order:stroke markers fill"
       d="m 50.569313,52.686395 c -0.86757,4.643488 -1.900486,11.134651 -2.625834,15.952468 -1.408911,2.012133 -3.082332,4.954198 -3.599069,6.388481 4.788854,0.418971 10.039736,0.576172 16.669261,0.576172 15.423999,0 21.382814,-9.256403 21.382814,-17.675781 0,-4.255784 -0.307314,-9.858848 -0.805038,-11.046705 C 80.177125,46.40769 73.013939,46.038 68.744,46.038 c -13.19727,0 -20.620165,0.281987 -21.51234,0.528407 0.535623,1.641037 2.178919,4.12423 3.337653,6.119988 z m 21.149437,6.018947 c 0,4.490058 -3.175097,5.398641 -8.946453,5.398641 -0.648855,0 -2.40306,-0.04085 -2.808593,-0.164063 0.770515,-4.148084 0.590566,-3.209074 1.239421,-7.357157 0.405534,-0.04107 3.150668,-0.1978 8.296875,-0.182104 0.886614,0.0027 1.786018,0.06639 2.045214,0.12343 0.08185,0.261195 0.173536,1.207526 0.173536,2.181253 z"
       sodipodi:nodetypes="cccsscsccssccscs" /></g></svg>
