<?xml version="1.0" encoding="UTF-8" standalone="no"?>
<!-- Created with Inkscape (http://www.inkscape.org/) -->

<svg
   enable-background="new"
   inkscape:export-ydpi="384"
   inkscape:export-xdpi="384"
   inkscape:export-filename="..\app\src\main\res\drawable-nodpi\disney_plus.png"
   sodipodi:docname="disney_plus.svg"
   inkscape:version="1.3 (0e150ed6c4, 2023-07-21)"
   id="svg8"
   version="1.1"
   viewBox="0 0 128 128"
   height="128"
   width="128"
   xml:space="preserve"
   xmlns:inkscape="http://www.inkscape.org/namespaces/inkscape"
   xmlns:sodipodi="http://sodipodi.sourceforge.net/DTD/sodipodi-0.dtd"
   xmlns:xlink="http://www.w3.org/1999/xlink"
   xmlns="http://www.w3.org/2000/svg"
   xmlns:svg="http://www.w3.org/2000/svg"
   xmlns:rdf="http://www.w3.org/1999/02/22-rdf-syntax-ns#"
   xmlns:cc="http://creativecommons.org/ns#"
   xmlns:dc="http://purl.org/dc/elements/1.1/"><sodipodi:namedview
     id="base"
     pagecolor="#ffffff"
     bordercolor="#666666"
     borderopacity="1.0"
     inkscape:pageopacity="0.0"
     inkscape:pageshadow="2"
     inkscape:zoom="2"
     inkscape:cx="136"
     inkscape:cy="140.5"
     inkscape:document-units="px"
     inkscape:current-layer="layer105"
     showgrid="false"
     units="px"
     inkscape:pagecheckerboard="true"
     borderlayer="true"
     gridtolerance="10"
     inkscape:snap-smooth-nodes="true"
     inkscape:snap-text-baseline="true"
     inkscape:snap-page="true"
     showguides="true"
     inkscape:guide-bbox="true"
     inkscape:snap-object-midpoints="true"
     inkscape:snap-center="true"
     inkscape:snap-global="true"
     inkscape:lockguides="false"
     inkscape:snap-bbox="true"
     inkscape:bbox-nodes="true"
     inkscape:showpageshadow="0"
     inkscape:deskcolor="#d1d1d1"
     inkscape:window-width="1858"
     inkscape:window-height="1057"
     inkscape:window-x="54"
     inkscape:window-y="-8"
     inkscape:window-maximized="1"><inkscape:grid
       enabled="false"
       empspacing="4"
       id="grid4131"
       type="xygrid"
       spacingx="8"
       spacingy="8"
       originx="0"
       originy="0"
       units="px"
       visible="false" /><inkscape:grid
       empspacing="4"
       id="grid4167"
       type="xygrid"
       originx="0"
       originy="0"
       spacingy="1"
       spacingx="1"
       units="px"
       visible="false" /></sodipodi:namedview><defs
     id="defs2"><linearGradient
       id="linearGradient6"
       inkscape:collect="always"><stop
         style="stop-color:#ffffff;stop-opacity:1;"
         offset="0"
         id="stop6" /><stop
         style="stop-color:#76ddfe;stop-opacity:1;"
         offset="0.28172043"
         id="stop8" /><stop
         style="stop-color:#6d9fe9;stop-opacity:1;"
         offset="0.659311"
         id="stop9" /><stop
         style="stop-color:#6d9fe9;stop-opacity:0;"
         offset="1"
         id="stop7" /></linearGradient><inkscape:path-effect
       effect="taper_stroke"
       id="path-effect4"
       is_visible="true"
       lpeversion="1"
       stroke_width="6"
       subpath="1"
       attach_start="0.31804898"
       end_offset="0.34781822"
       start_smoothing="0.5"
       end_smoothing="0.5"
       jointype="extrapolated"
       start_shape="center"
       end_shape="center"
       miter_limit="100" /><filter
       id="filter265"
       inkscape:label="Drop Shadow red"
       style="color-interpolation-filters:sRGB"
       x="-0.044947789"
       y="-0.074619258"
       width="1.1101228"
       height="1.2163094"><feFlood
         id="feFlood264"
         result="flood"
         flood-color="rgb(29,55,85)"
         flood-opacity="0.498039" /><feComposite
         id="feComposite264"
         result="composite1"
         operator="in"
         in2="SourceGraphic"
         in="flood" /><feOffset
         id="feOffset264"
         result="offset"
         dy="3.6000000000000001"
         dx="1.8" /><feComposite
         id="feComposite265"
         result="composite2"
         operator="over"
         in2="offset"
         in="SourceGraphic" /></filter><inkscape:path-effect
       effect="fill_between_many"
       method="bsplinespiro"
       autoreverse="false"
       close="false"
       join="false"
       linkedpaths="#path4,0,1"
       id="path-effect5" /><linearGradient
       inkscape:collect="always"
       xlink:href="#linearGradient6"
       id="linearGradient7"
       x1="91.266273"
       y1="48.724033"
       x2="36.416"
       y2="27.577164"
       gradientUnits="userSpaceOnUse" /></defs><metadata
     id="metadata5"><rdf:RDF><cc:Work
         rdf:about=""><dc:format>image/svg+xml</dc:format><dc:type
           rdf:resource="http://purl.org/dc/dcmitype/StillImage" /></cc:Work></rdf:RDF></metadata><style
     id="style2296">.B{fill:#fc9abf}.C{fill:#ffc7df}.D{fill:#ed84cb}.E{fill-opacity:1}.F{stroke:none}</style><g
     inkscape:groupmode="layer"
     id="layer105"
     inkscape:label="c.ai"
     style="display:inline"><circle
       r="60"
       cy="64"
       cx="64"
       id="circle170-1-9"
       style="display:inline;vector-effect:none;fill:#374d68;fill-opacity:1;fill-rule:nonzero;stroke:#1d3755;stroke-width:4;stroke-linecap:butt;stroke-linejoin:round;stroke-miterlimit:4;stroke-dasharray:none;stroke-dashoffset:0;stroke-opacity:1;paint-order:fill markers stroke" /><path
       style="opacity:1;fill:url(#linearGradient7);fill-opacity:1;stroke:none;stroke-width:8;stroke-linejoin:round;stroke-dasharray:none;stroke-opacity:1;paint-order:stroke fill markers"
       d="M 93.096484,54.02625 C 84.852814,24.218407 51.287086,18.614666 32.173359,25.455844 58.336309,10.429825 94.146593,23.485839 98.603703,54.080938"
       id="path6" /><path
       id="path3"
       style="color:#000000;fill:#ffffff;fill-opacity:1;stroke:#1d3755;stroke-width:8;stroke-linejoin:round;stroke-dasharray:none;stroke-opacity:1;paint-order:stroke fill markers;filter:url(#filter265)"
       d="m 36.058594,37.076172 c -8.361579,0.0032 -14.833985,2.560214 -14.833985,6.759766 0,2.060478 2.459032,4.166015 5.029297,4.166015 1.76805,0 2.024847,-1.814542 0.761719,-2.546875 -1.766988,-1.024459 -0.589649,-3.484375 8.785156,-3.484375 13.854852,0 35.449219,10.050536 35.449219,24.832031 0,11.74588 -8.810344,15.48178 -18.791016,15.414063 -3.328134,-0.02258 -6.383162,-0.555037 -9.113281,-1.402344 0.0776,-4.415718 0.412557,-8.830289 0.425781,-13.248047 5.572469,0.597477 7.824761,1.975702 5.829959,3.065411 -1.595828,0.871759 -0.94811,2.764686 2.671875,2.023437 C 59.753206,71.12363 61.299334,64.041647 43.71875,61.505859 43.521274,55.497664 41.913349,48.96661 40.875,48.927734 c -0.913667,-0.03421 -2.185011,6.519807 -2.820312,12.3125 -8.941743,0.341401 -12.748316,4.855406 -12.742188,7.8125 0.01101,5.313621 3.443522,11.694506 12.259766,15.423828 0.236799,5.021323 2.236071,6.065591 3.927734,6.201172 1.210165,0.09699 1.568074,-1.623756 1.507812,-4.226562 2.920955,0.789178 5.592504,1.25 9.283204,1.25 C 68.29979,87.701172 79,79.376798 79,67.177734 79,48.670084 58.655706,37.067416 36.058594,37.076172 Z m 59.039844,16.745 c -0.647719,0.01477 -1.308954,0.07908 -2.001954,0.205078 0.441365,3.732334 1.297155,7.404409 1.199696,10.974609 l -11.319618,0.167969 c -0.111999,0 0.278595,5.192875 0.558594,5.416875 0.28,0.28 10.424415,-0.223328 10.536415,-0.111328 0.02962,3.806975 -0.398697,8.288603 -0.638759,11.591797 0.112,0.615999 5.116562,0.167999 5.284562,0 0.440695,-2.356407 1.472776,-8.566597 1.535246,-11.3125 0.007,-0.326448 9.45507,-0.559844 9.73507,-0.839844 0.28,-0.224 0.22461,-5.360234 0.22461,-5.360234 H 99.803399 c 0.01094,-3.668375 -0.621406,-7.172075 -1.199696,-10.472656 -1.084999,-0.175 -2.425735,-0.284375 -3.505265,-0.259766 z M 36.494141,66.597656 c 0.386669,0 1.081697,0.05434 1.463656,0.06959 0.137628,4.293746 -0.140444,8.051656 -0.264438,11.723384 -5.355385,-2.991659 -8.486328,-7.01629 -8.486328,-9.337891 0,-2.283989 2.761846,-2.455078 7.28711,-2.455078 z"
       sodipodi:nodetypes="cssssssccsscscscscsscscccccccsccccssccsss" /></g></svg>
