<?xml version="1.0" encoding="UTF-8" standalone="no"?>
<!-- Created with Inkscape (http://www.inkscape.org/) -->

<svg
   enable-background="new"
   inkscape:export-ydpi="384"
   inkscape:export-xdpi="384"
   inkscape:export-filename="..\app\src\main\res\drawable-nodpi\droidify.png"
   sodipodi:docname="droidify.svg"
   inkscape:version="1.3 (0e150ed6c4, 2023-07-21)"
   id="svg8"
   version="1.1"
   viewBox="0 0 128 128"
   height="128"
   width="128"
   xml:space="preserve"
   xmlns:inkscape="http://www.inkscape.org/namespaces/inkscape"
   xmlns:sodipodi="http://sodipodi.sourceforge.net/DTD/sodipodi-0.dtd"
   xmlns="http://www.w3.org/2000/svg"
   xmlns:svg="http://www.w3.org/2000/svg"
   xmlns:rdf="http://www.w3.org/1999/02/22-rdf-syntax-ns#"
   xmlns:cc="http://creativecommons.org/ns#"
   xmlns:dc="http://purl.org/dc/elements/1.1/"><sodipodi:namedview
     id="base"
     pagecolor="#ffffff"
     bordercolor="#666666"
     borderopacity="1.0"
     inkscape:pageopacity="0.0"
     inkscape:pageshadow="2"
     inkscape:zoom="4"
     inkscape:cx="53"
     inkscape:cy="97.75"
     inkscape:document-units="px"
     inkscape:current-layer="g3116"
     showgrid="false"
     units="px"
     inkscape:pagecheckerboard="true"
     borderlayer="true"
     gridtolerance="10"
     inkscape:snap-smooth-nodes="true"
     inkscape:snap-text-baseline="true"
     inkscape:snap-page="true"
     showguides="true"
     inkscape:guide-bbox="true"
     inkscape:snap-object-midpoints="true"
     inkscape:snap-center="true"
     inkscape:snap-global="true"
     inkscape:lockguides="false"
     inkscape:snap-bbox="true"
     inkscape:bbox-nodes="true"
     inkscape:showpageshadow="0"
     inkscape:deskcolor="#d1d1d1"
     inkscape:window-width="1852"
     inkscape:window-height="1057"
     inkscape:window-x="60"
     inkscape:window-y="-8"
     inkscape:window-maximized="1"><inkscape:grid
       enabled="false"
       empspacing="4"
       id="grid4131"
       type="xygrid"
       spacingx="8"
       spacingy="8"
       originx="0"
       originy="0"
       units="px"
       visible="false" /><inkscape:grid
       empspacing="4"
       id="grid4167"
       type="xygrid"
       originx="0"
       originy="0"
       spacingy="1"
       spacingx="1"
       units="px"
       visible="false" /></sodipodi:namedview><defs
     id="defs2"><filter
       id="filter265"
       inkscape:label="Drop Shadow red"
       style="color-interpolation-filters:sRGB"
       x="-0.062077265"
       y="-0.056212774"
       width="1.1547088"
       height="1.1686371"><feFlood
         id="feFlood264"
         result="flood"
         flood-color="rgb(55,55,55)"
         flood-opacity="0.498039" /><feComposite
         id="feComposite264"
         result="composite1"
         operator="in"
         in2="SourceGraphic"
         in="flood" /><feOffset
         id="feOffset264"
         result="offset"
         dy="4"
         dx="2" /><feComposite
         id="feComposite265"
         result="composite2"
         operator="over"
         in2="offset"
         in="SourceGraphic" /></filter></defs><metadata
     id="metadata5"><rdf:RDF><cc:Work
         rdf:about=""><dc:format>image/svg+xml</dc:format><dc:type
           rdf:resource="http://purl.org/dc/dcmitype/StillImage" /></cc:Work></rdf:RDF></metadata><style
     id="style2296">.B{fill:#fc9abf}.C{fill:#ffc7df}.D{fill:#ed84cb}.E{fill-opacity:1}.F{stroke:none}</style><g
     style="display:inline;opacity:1"
     inkscape:label="code editor"
     id="g3116"
     inkscape:groupmode="layer"><circle
       r="60"
       cy="64"
       cx="64"
       id="circle3062"
       style="display:inline;opacity:1;vector-effect:none;fill:#4c4c4c;fill-opacity:1;fill-rule:nonzero;stroke:#373737;stroke-width:4;stroke-linecap:butt;stroke-linejoin:round;stroke-miterlimit:4;stroke-dasharray:none;stroke-dashoffset:0;stroke-opacity:1;paint-order:fill markers stroke" /><g
       id="path3"
       style="filter:url(#filter265)"><path
         id="path1"
         style="display:inline;opacity:1;color:#000000;fill:#90c845;fill-opacity:1;stroke:#373737;stroke-width:8;stroke-linejoin:round;stroke-dasharray:none;stroke-opacity:1;paint-order:stroke fill markers"
         d="m 64,28.341797 c -7.553237,0 -15.148519,2.472295 -21.287109,7.550781 -1.827266,-1.999969 -3.754317,-3.915765 -4.775391,-4.255859 -0.661456,0.255206 -2.760415,2.041669 -2.828125,2.828125 0.5967,1.101579 2.28045,3.009018 4.103516,4.822265 -10.319933,11.761151 -10.57656,30.538403 -0.800782,42.404297 2.063391,0.101847 5.672061,-2.970519 6.441407,-4.111328 -6.913846,-9.873994 -7.703922,-25.719793 1.15625,-33.892578 11.126033,-10.262858 26.532743,-9.947725 35.980468,-0.5 8.523411,8.523411 8.070096,24.518584 1.15625,34.392578 0.769346,1.140809 4.378016,4.213175 6.441407,4.111328 9.775778,-11.865894 9.519151,-30.643146 -0.800782,-42.404297 1.823066,-1.813247 3.506816,-3.720686 4.103516,-4.822265 -0.06771,-0.786456 -2.166669,-2.572919 -2.828125,-2.828125 -1.021074,0.340094 -2.948125,2.25589 -4.775391,4.255859 C 79.148519,30.814092 71.553237,28.341797 64,28.341797 Z m -9.007812,23.630859 c -1.708667,-8.7e-5 -3.093837,1.385083 -3.09375,3.09375 -8.7e-5,1.708667 1.385083,3.093837 3.09375,3.09375 1.707904,-9.92e-4 3.091883,-1.385846 3.091796,-3.09375 8.7e-5,-1.707904 -1.383892,-3.092758 -3.091796,-3.09375 z m 18.015624,0 c -1.707904,9.92e-4 -3.091883,1.385846 -3.091796,3.09375 -8.7e-5,1.707904 1.383892,3.092758 3.091796,3.09375 1.708667,8.7e-5 3.093837,-1.385083 3.09375,-3.09375 8.7e-5,-1.708667 -1.385083,-3.093837 -3.09375,-3.09375 z"
         sodipodi:nodetypes="sccccccssccccccscccccccccc" /><path
         id="path6"
         style="display:inline;opacity:1;fill:#f8c365;fill-opacity:1;stroke:#373737;stroke-width:8;stroke-linejoin:round;stroke-dasharray:none;stroke-opacity:1;paint-order:stroke fill markers"
         d="M 64 69 C 62.698544 69 61.640222 69.123899 61.222656 69.384766 C 60.976229 71.123725 60.963432 77.425342 61.044922 88.476562 C 58.582101 85.662476 55.243445 82.328323 53.091797 80.566406 C 51.997667 81.267231 49.840224 83.092145 49.246094 84.542969 C 50.414099 86.486815 61.394986 97.675949 64 99.5 C 66.605014 97.675949 77.585901 86.486815 78.753906 84.542969 C 78.159776 83.092145 76.002333 81.267231 74.908203 80.566406 C 72.756555 82.328323 69.417899 85.662476 66.955078 88.476562 C 67.036568 77.425342 67.023771 71.123725 66.777344 69.384766 C 66.359778 69.123899 65.301456 69 64 69 z " /></g></g></svg>
