<?xml version="1.0" encoding="UTF-8" standalone="no"?>
<svg
   height="128"
   width="128"
   version="1.1"
   id="svg2"
   sodipodi:docname="everyday_tasks.svg"
   inkscape:version="1.3 (0e150ed6c4, 2023-07-21)"
   inkscape:export-filename="..\app\src\main\res\drawable-nodpi\karma_fw.png"
   inkscape:export-xdpi="384"
   inkscape:export-ydpi="384"
   xml:space="preserve"
   xmlns:inkscape="http://www.inkscape.org/namespaces/inkscape"
   xmlns:sodipodi="http://sodipodi.sourceforge.net/DTD/sodipodi-0.dtd"
   xmlns="http://www.w3.org/2000/svg"
   xmlns:svg="http://www.w3.org/2000/svg"><defs
     id="defs2"><inkscape:perspective
       sodipodi:type="inkscape:persp3d"
       inkscape:vp_x="-60 : 21.333333 : 0"
       inkscape:vp_y="0 : 81.333333 : 0"
       inkscape:vp_z="63.679754 : 0 : 0"
       inkscape:persp3d-origin="64 : 42.666667 : 1"
       id="perspective22" /><inkscape:path-effect
       effect="bspline"
       id="path-effect32"
       is_visible="true"
       lpeversion="1.3"
       weight="33.333333"
       steps="2"
       helper_size="0"
       apply_no_weight="true"
       apply_with_weight="true"
       only_selected="false"
       uniform="false" /><inkscape:path-effect
       effect="spiro"
       id="path-effect28"
       is_visible="true"
       lpeversion="1" /></defs><sodipodi:namedview
     id="namedview2"
     pagecolor="#ffffff"
     bordercolor="#666666"
     borderopacity="1.0"
     inkscape:showpageshadow="2"
     inkscape:pageopacity="0.0"
     inkscape:pagecheckerboard="0"
     inkscape:deskcolor="#d1d1d1"
     inkscape:zoom="3.8528"
     inkscape:cx="90.194145"
     inkscape:cy="47.627699"
     inkscape:window-width="1920"
     inkscape:window-height="1057"
     inkscape:window-x="-8"
     inkscape:window-y="-8"
     inkscape:window-maximized="1"
     inkscape:current-layer="svg2"
     showguides="false"><sodipodi:guide
       position="64,128"
       orientation="1,0"
       id="guide33"
       inkscape:locked="false" /><sodipodi:guide
       position="94,128"
       orientation="-1,0"
       id="guide7"
       inkscape:locked="false"
       inkscape:label=""
       inkscape:color="rgb(0,134,229)" /><sodipodi:guide
       position="34,128"
       orientation="-1,0"
       id="guide8"
       inkscape:locked="false"
       inkscape:label=""
       inkscape:color="rgb(0,134,229)" /><sodipodi:guide
       position="70,128"
       orientation="-1,0"
       id="guide9"
       inkscape:locked="false"
       inkscape:label=""
       inkscape:color="rgb(0,134,229)" /><sodipodi:guide
       position="82,128"
       orientation="-1,0"
       id="guide10"
       inkscape:locked="false"
       inkscape:label=""
       inkscape:color="rgb(0,134,229)" /><sodipodi:guide
       position="46,128"
       orientation="-1,0"
       id="guide11"
       inkscape:label=""
       inkscape:locked="false"
       inkscape:color="rgb(0,134,229)" /><sodipodi:guide
       position="58,128"
       orientation="-1,0"
       id="guide12"
       inkscape:label=""
       inkscape:locked="false"
       inkscape:color="rgb(0,134,229)" /><sodipodi:guide
       position="64,64"
       orientation="0,-1"
       id="guide66"
       inkscape:locked="false" /></sodipodi:namedview><circle
     r="60"
     cy="64"
     cx="64"
     fill="#8af19d"
     paint-order="fill markers stroke"
     stroke="#00c853"
     stroke-width="4"
     id="circle1"
     style="display:inline;fill:#b7ed50;stroke:#5b9323" /><path
     id="path68"
     style="color:#000000;opacity:0.5;fill:#5b9323;fill-rule:evenodd;stroke:none;stroke-linecap:round;stroke-linejoin:round;-inkscape-stroke:none;paint-order:fill markers stroke"
     d="m 58.910156,18.193359 c -0.228261,0.0014 -0.451053,0.0371 -0.652344,0.121094 -0.805161,0.335996 -1.008079,0.801319 -1.171874,1.109375 -0.65518,1.232222 -0.653908,2.203573 -0.798829,3.757813 -0.08267,0.886598 -0.138436,1.891086 -0.171875,2.955078 -1.994938,0.09736 -3.94606,0.218215 -5.804687,0.376953 0.178767,-0.383303 0.231419,-0.81341 0.150391,-1.228516 -0.372916,-1.901578 -0.822823,-3.381678 -1.535157,-4.552734 -0.356166,-0.585528 -0.755932,-1.193374 -1.699219,-1.564453 -0.471643,-0.185539 -1.057227,-0.159426 -1.595703,-0.0078 -0.538475,0.151613 -1.029522,0.430643 -1.316406,0.751953 -1.147535,1.285242 -1.215695,2.572987 -1.376953,4.228516 -0.09676,0.993315 -0.128594,2.097028 -0.09375,3.261719 -1.009395,0.162404 -1.957026,0.339341 -2.851562,0.53125 0.02056,-0.271837 -0.01466,-0.545008 -0.103516,-0.802735 -0.66019,-1.906471 -1.45215,-3.411205 -2.591797,-4.490234 -0.569823,-0.539514 -1.270815,-1.009136 -2.191406,-1.144531 -0.460295,-0.0677 -0.955427,-0.01152 -1.417969,0.136718 -0.462542,0.148242 -0.893491,0.388858 -1.228516,0.691407 -1.340096,1.210196 -1.64677,2.78571 -1.820312,4.546875 -0.173542,1.761164 -0.05445,3.774994 0.359375,5.855468 0.06826,0.34317 0.145813,0.67789 0.226562,1.007813 -4.317769,12.290412 -4.534543,64.537355 1.498047,71.240222 6.243999,6.93777 60.310671,6.93779 66.554688,0 6.251906,-6.946589 5.614616,-59.643225 1.484376,-71.281251 0.0777,-0.319893 0.15265,-0.644283 0.21875,-0.976562 0.41383,-2.080474 0.53292,-4.094304 0.35937,-5.855469 -0.17354,-1.761165 -0.48021,-3.334726 -1.820309,-4.544922 -0.335024,-0.302549 -0.765974,-0.545117 -1.228515,-0.693359 -0.462542,-0.148242 -0.957673,-0.204417 -1.417969,-0.136719 -0.920591,0.135396 -1.621583,0.605017 -2.191406,1.144531 -1.139647,1.079029 -1.931608,2.585716 -2.591797,4.492188 -0.08437,0.260666 -0.114287,0.535888 -0.08789,0.808594 -0.892828,-0.191416 -1.838537,-0.367251 -2.845703,-0.529297 0.03175,-1.136319 8.8e-4,-2.214037 -0.09375,-3.185547 -0.161258,-1.655529 -0.229417,-2.943274 -1.376953,-4.228516 -0.286884,-0.32131 -0.777931,-0.60034 -1.316406,-0.751953 -0.538476,-0.151613 -1.12406,-0.177726 -1.595703,0.0078 -0.943287,0.371078 -1.345006,0.976972 -1.701172,1.5625 -0.712334,1.171055 -1.162241,2.653109 -1.535157,4.554687 -0.07137,0.387787 -0.02652,0.788018 0.128907,1.150391 -1.851735,-0.157841 -3.794443,-0.278032 -5.78125,-0.375 -0.03344,-1.063992 -0.08921,-2.06848 -0.171875,-2.955078 -0.144921,-1.55424 -0.143648,-2.525591 -0.798829,-3.757813 -0.163794,-0.308056 -0.366712,-0.773379 -1.171874,-1.109375 -0.402581,-0.167995 -0.894691,-0.145949 -1.333985,-0.0332 -0.439293,0.112746 -0.82673,0.31579 -1.023437,0.511719 -0.786832,0.783714 -0.723717,1.197488 -0.857422,1.738281 -0.267412,1.081588 -0.426181,2.511047 -0.525391,4.369141 -0.01508,0.364882 0.07002,0.726929 0.246094,1.046875 -1.411341,-0.02814 -2.825916,-0.05468 -4.248048,-0.05468 -1.41821,0 -2.828823,0.02669 -4.236328,0.05469 0.172003,-0.321103 0.253044,-0.683084 0.234375,-1.046875 -0.09921,-1.858094 -0.257979,-3.287553 -0.525391,-4.369141 -0.133705,-0.540793 -0.07059,-0.954567 -0.857422,-1.738281 -0.196707,-0.195929 -0.584144,-0.398973 -1.023437,-0.511719 -0.219647,-0.05637 -0.453379,-0.08928 -0.681641,-0.08789 z m 38.169922,7.998047 c 0.130986,0.34241 0.209895,0.376061 0.277344,1.060547 0.06711,0.681047 0.0741,1.484836 0.01367,2.347656 -0.527902,-0.268817 -1.108608,-0.494189 -1.736328,-0.701171 0.09835,-0.145293 0.177149,-0.302896 0.234375,-0.46875 0.405778,-1.171794 0.840905,-1.740186 1.210937,-2.238282 z m -62.179687,0.0098 c 0.370049,0.498048 0.803138,1.066295 1.208984,2.238281 0.05754,0.164497 0.136332,0.320769 0.234375,0.464844 -0.627543,0.20764 -1.206858,0.434722 -1.734375,0.705078 -0.06058,-0.863573 -0.05544,-1.666091 0.01172,-2.347656 0.06745,-0.684487 0.148311,-0.718137 0.279296,-1.060547 z"
     sodipodi:nodetypes="scsscccsscsscccsssssscssccssssscccssscscccssssssccsccssssssscccssccccsc" /><path
     sodipodi:type="star"
     style="display:inline;opacity:1;fill:#ffffff;fill-opacity:1;fill-rule:evenodd;stroke:none;stroke-width:4.0783;stroke-linecap:round;stroke-linejoin:round;stroke-dasharray:none;stroke-opacity:1;paint-order:fill markers stroke"
     id="path6"
     inkscape:flatsided="true"
     sodipodi:sides="4"
     sodipodi:cx="64"
     sodipodi:cy="64"
     sodipodi:r1="48.538265"
     sodipodi:r2="34.321735"
     sodipodi:arg1="2.3561945"
     sodipodi:arg2="3.1415927"
     inkscape:rounded="0.12"
     inkscape:randomized="0"
     d="m 29.678263,98.321736 c -5.824592,-5.824592 -5.824591,-62.818881 10e-7,-68.643473 5.824592,-5.824592 62.818881,-5.824591 68.643473,10e-7 5.824593,5.824592 5.824593,62.818881 -10e-7,68.643473 -5.824592,5.824593 -62.818881,5.824593 -68.643473,-10e-7 z"
     transform="matrix(0.93046865,0,0,1.0338541,4.4500064,-2.1666624)" /><path
     id="path67"
     style="display:inline;opacity:1;fill:none;fill-opacity:1;fill-rule:evenodd;stroke:#b5cee1;stroke-width:2;stroke-linecap:round;stroke-linejoin:round;stroke-dasharray:none;stroke-opacity:1;paint-order:fill markers stroke"
     d="m 28,64 h 72 m -69.959324,7.291796 c 10.372926,0.945501 57.54572,0.945501 67.918648,0 m -1.3e-5,-14.583558 C 92.772786,56.235652 78.386084,56 64,56 v 0 c -14.386084,0 -28.772786,0.235652 -33.959311,0.708238 m 0,0 C 35.227215,56.235652 49.61393,56 64,56 c 14.38607,0 28.772785,0.235652 33.959311,0.708238 M 97.700247,49.540553 C 93.235693,48.513576 78.618172,48 64,48 49.381828,48 34.764308,48.513576 30.299754,49.540552 m 6e-6,28.918894 c 8.929209,2.053922 58.471269,2.053922 67.40048,0 m 0.259085,-7.167651 c -10.372923,0.9455 -57.545726,0.9455 -67.918649,0 M 30.299753,49.540553 C 34.764307,48.513578 49.381843,48 64,48 c 14.618157,0 29.235692,0.513578 33.700247,1.540553 M 97.229571,42.462768 C 93.413794,40.820457 78.707076,40 64,40 49.292924,40 34.586206,40.820457 30.770429,42.462768 m 1e-6,43.074469 c 7.631591,3.284761 58.827542,3.284761 66.459138,0 m 0.470673,-7.077792 c -8.929205,2.053921 -58.471275,2.053921 -67.400481,0 M 30.770428,42.462769 C 34.586204,40.820458 49.292938,40 64,40 c 14.707062,0 29.413796,0.820458 33.229572,2.462769 m -0.9097,-7.198543 C 92.54943,33.088205 78.274725,32 64,32 49.725275,32 35.45057,33.088205 31.680128,35.264226 m 1e-6,57.471547 c 7.540889,4.352003 57.098856,4.352002 64.639743,-10e-7 m 0.909698,-7.198535 c -7.631585,3.284758 -58.827548,3.284758 -66.459139,0" /><path
     sodipodi:type="star"
     style="display:inline;opacity:1;fill:none;fill-opacity:1;fill-rule:evenodd;stroke:#5b9323;stroke-width:4.0783;stroke-linecap:round;stroke-linejoin:round;stroke-dasharray:none;stroke-opacity:1;paint-order:fill markers stroke"
     id="path66"
     inkscape:flatsided="true"
     sodipodi:sides="4"
     sodipodi:cx="64"
     sodipodi:cy="64"
     sodipodi:r1="48.538265"
     sodipodi:r2="34.321735"
     sodipodi:arg1="2.3561945"
     sodipodi:arg2="3.1415927"
     inkscape:rounded="0.12"
     inkscape:randomized="0"
     d="m 29.678263,98.321736 c -5.824592,-5.824592 -5.824591,-62.818881 10e-7,-68.643473 5.824592,-5.824592 62.818881,-5.824591 68.643473,10e-7 5.824593,5.824592 5.824593,62.818881 -10e-7,68.643473 -5.824592,5.824593 -62.818881,5.824593 -68.643473,-10e-7 z"
     transform="matrix(0.93046865,0,0,1.0338541,4.4500064,-2.1666624)" /><g
     id="g21"
     style="display:inline;stroke:#747474"><path
       style="opacity:1;fill:none;fill-opacity:1;fill-rule:evenodd;stroke:#747474;stroke-width:4;stroke-linecap:round;stroke-linejoin:round;stroke-dasharray:none;stroke-opacity:1;paint-order:fill markers stroke"
       id="path12"
       sodipodi:type="arc"
       sodipodi:cx="-70.919617"
       sodipodi:cy="24.150091"
       sodipodi:rx="1"
       sodipodi:ry="8"
       sodipodi:start="1.6854781"
       sodipodi:end="5.8794956"
       sodipodi:arc-type="arc"
       d="m -71.034047,32.097541 a 1,8 0 0 1 -0.883882,-7.482842 1,8 0 0 1 0.769459,-8.252296 1,8 0 0 1 1.148471,4.645175"
       sodipodi:open="true"
       transform="scale(-1,1)" /><path
       style="opacity:1;fill:none;fill-opacity:1;fill-rule:evenodd;stroke:#747474;stroke-width:4;stroke-linecap:round;stroke-linejoin:round;stroke-dasharray:none;stroke-opacity:1;paint-order:fill markers stroke"
       id="path13"
       sodipodi:type="arc"
       sodipodi:cx="-84.924416"
       sodipodi:cy="17.702824"
       sodipodi:rx="2"
       sodipodi:ry="8"
       sodipodi:start="1.6854781"
       sodipodi:end="5.8794956"
       sodipodi:arc-type="arc"
       d="m -85.153277,25.650274 a 2,8 0 0 1 -1.767763,-7.482842 2,8 0 0 1 1.538918,-8.2522964 2,8 0 0 1 2.296942,4.6451754"
       sodipodi:open="true"
       transform="matrix(-0.9961947,-0.08715574,-0.08715574,0.9961947,0,0)" /><path
       style="opacity:1;fill:none;fill-opacity:1;fill-rule:evenodd;stroke:#747474;stroke-width:4;stroke-linecap:round;stroke-linejoin:round;stroke-dasharray:none;stroke-opacity:1;paint-order:fill markers stroke"
       id="path14"
       sodipodi:type="arc"
       sodipodi:cx="-97.469055"
       sodipodi:cy="10.584833"
       sodipodi:rx="3"
       sodipodi:ry="8"
       sodipodi:start="1.6854781"
       sodipodi:end="5.8794956"
       sodipodi:arc-type="arc"
       d="m -97.812347,18.532283 a 3,8 0 0 1 -2.651643,-7.482842 3,8 0 0 1 2.308376,-8.2522959 3,8 0 0 1 3.445412,4.645175"
       sodipodi:open="true"
       transform="matrix(-0.98480775,-0.17364817,-0.17364817,0.98480775,0,0)" /><path
       style="opacity:1;fill:none;fill-opacity:1;fill-rule:evenodd;stroke:#747474;stroke-width:4;stroke-linecap:round;stroke-linejoin:round;stroke-dasharray:none;stroke-opacity:1;paint-order:fill markers stroke"
       id="path15"
       sodipodi:type="arc"
       sodipodi:cx="57.080383"
       sodipodi:cy="24.150091"
       sodipodi:rx="1"
       sodipodi:ry="8"
       sodipodi:start="1.6854781"
       sodipodi:end="5.8794956"
       sodipodi:arc-type="arc"
       d="m 56.965953,32.097541 a 1,8 0 0 1 -0.883882,-7.482842 1,8 0 0 1 0.769459,-8.252296 1,8 0 0 1 1.148471,4.645175"
       sodipodi:open="true" /><path
       style="opacity:1;fill:none;fill-opacity:1;fill-rule:evenodd;stroke:#747474;stroke-width:4;stroke-linecap:round;stroke-linejoin:round;stroke-dasharray:none;stroke-opacity:1;paint-order:fill markers stroke"
       id="path16"
       sodipodi:type="arc"
       sodipodi:cx="42.594601"
       sodipodi:cy="28.783497"
       sodipodi:rx="2"
       sodipodi:ry="8"
       sodipodi:start="1.6854781"
       sodipodi:end="5.8794956"
       sodipodi:arc-type="arc"
       d="m 42.36574,36.730947 a 2,8 0 0 1 -1.767764,-7.482842 2,8 0 0 1 1.538919,-8.252296 2,8 0 0 1 2.296941,4.645175"
       sodipodi:open="true"
       transform="rotate(-4.9999998)" /><path
       style="opacity:1;fill:none;fill-opacity:1;fill-rule:evenodd;stroke:#747474;stroke-width:4;stroke-linecap:round;stroke-linejoin:round;stroke-dasharray:none;stroke-opacity:1;paint-order:fill markers stroke"
       id="path17"
       sodipodi:type="arc"
       sodipodi:cx="28.563616"
       sodipodi:cy="32.817551"
       sodipodi:rx="3"
       sodipodi:ry="8"
       sodipodi:start="1.6854781"
       sodipodi:end="5.8794956"
       sodipodi:arc-type="arc"
       d="m 28.220324,40.765001 a 3,8 0 0 1 -2.651645,-7.482842 3,8 0 0 1 2.308378,-8.252296 3,8 0 0 1 3.445412,4.645175"
       sodipodi:open="true"
       transform="rotate(-9.9999996)" /></g><g
     id="g20"
     style="display:inline"><path
       style="opacity:1;fill:none;fill-opacity:1;fill-rule:evenodd;stroke:#373737;stroke-width:6;stroke-linecap:round;stroke-linejoin:round;stroke-dasharray:none;stroke-opacity:1;paint-order:fill markers stroke"
       id="path18"
       sodipodi:type="arc"
       sodipodi:cx="64"
       sodipodi:cy="66.000351"
       sodipodi:rx="24"
       sodipodi:ry="24"
       sodipodi:start="6.2414323"
       sodipodi:end="5.3246097"
       sodipodi:arc-type="arc"
       d="M 87.979083,64.99857 A 24,24 0 0 1 70.423726,89.124705 24,24 0 0 1 42.939909,77.510024 24,24 0 0 1 48.0064,48.106085 24,24 0 0 1 77.79247,46.359379"
       sodipodi:open="true" /><path
       style="opacity:1;fill:none;fill-opacity:1;fill-rule:evenodd;stroke:#373737;stroke-width:6;stroke-linecap:round;stroke-linejoin:round;stroke-dasharray:none;stroke-opacity:1;paint-order:fill markers stroke"
       d="M 50.969325,62.829526 C 56.437125,67.01463 64,75.8602 64,75.8602 c 0,0 17.986801,-22.399174 29.900156,-29.900152"
       id="path19"
       sodipodi:nodetypes="ccc" /></g></svg>
