<?xml version="1.0" encoding="UTF-8" standalone="no"?>
<!-- Created with Inkscape (http://www.inkscape.org/) -->

<svg
   enable-background="new"
   inkscape:export-ydpi="384"
   inkscape:export-xdpi="384"
   inkscape:export-filename="..\app\src\main\res\drawable-nodpi\fluffychat.png"
   sodipodi:docname="fluffychat.svg"
   inkscape:version="1.3 (0e150ed6c4, 2023-07-21)"
   id="svg8"
   version="1.1"
   viewBox="0 0 128 128"
   height="128"
   width="128"
   xml:space="preserve"
   xmlns:inkscape="http://www.inkscape.org/namespaces/inkscape"
   xmlns:sodipodi="http://sodipodi.sourceforge.net/DTD/sodipodi-0.dtd"
   xmlns:xlink="http://www.w3.org/1999/xlink"
   xmlns="http://www.w3.org/2000/svg"
   xmlns:svg="http://www.w3.org/2000/svg"
   xmlns:rdf="http://www.w3.org/1999/02/22-rdf-syntax-ns#"
   xmlns:cc="http://creativecommons.org/ns#"
   xmlns:dc="http://purl.org/dc/elements/1.1/"><sodipodi:namedview
     id="base"
     pagecolor="#ffffff"
     bordercolor="#666666"
     borderopacity="1.0"
     inkscape:pageopacity="0.0"
     inkscape:pageshadow="2"
     inkscape:zoom="4"
     inkscape:cx="76.625"
     inkscape:cy="96.5"
     inkscape:document-units="px"
     inkscape:current-layer="g1099"
     showgrid="false"
     units="px"
     inkscape:pagecheckerboard="true"
     borderlayer="true"
     gridtolerance="10"
     inkscape:snap-smooth-nodes="true"
     inkscape:snap-text-baseline="true"
     inkscape:snap-page="true"
     showguides="true"
     inkscape:guide-bbox="true"
     inkscape:snap-object-midpoints="true"
     inkscape:snap-center="true"
     inkscape:snap-global="true"
     inkscape:lockguides="false"
     inkscape:snap-bbox="true"
     inkscape:bbox-nodes="true"
     inkscape:showpageshadow="0"
     inkscape:deskcolor="#d1d1d1"
     inkscape:window-width="1853"
     inkscape:window-height="1057"
     inkscape:window-x="59"
     inkscape:window-y="-8"
     inkscape:window-maximized="1"><inkscape:grid
       enabled="false"
       empspacing="4"
       id="grid4131"
       type="xygrid"
       spacingx="8"
       spacingy="8"
       originx="0"
       originy="0"
       units="px"
       visible="false" /><inkscape:grid
       empspacing="4"
       id="grid4167"
       type="xygrid"
       originx="0"
       originy="0"
       spacingy="1"
       spacingx="1"
       units="px"
       visible="false" /></sodipodi:namedview><defs
     id="defs2"><filter
       id="filter265"
       inkscape:label="Drop Shadow red"
       style="color-interpolation-filters:sRGB"
       x="-0.051384321"
       y="-0.056127585"
       width="1.128441"
       height="1.1662303"><feFlood
         id="feFlood264"
         result="flood"
         flood-color="rgb(107,90,131)"
         flood-opacity="0.498039" /><feComposite
         id="feComposite264"
         result="composite1"
         operator="in"
         in2="SourceGraphic"
         in="flood" /><feOffset
         id="feOffset264"
         result="offset"
         dy="4"
         dx="2" /><feComposite
         id="feComposite265"
         result="composite2"
         operator="over"
         in2="offset"
         in="SourceGraphic" /></filter></defs><metadata
     id="metadata5"><rdf:RDF><cc:Work
         rdf:about=""><dc:format>image/svg+xml</dc:format><dc:type
           rdf:resource="http://purl.org/dc/dcmitype/StillImage" /></cc:Work></rdf:RDF></metadata><style
     id="style2296">.B{fill:#fc9abf}.C{fill:#ffc7df}.D{fill:#ed84cb}.E{fill-opacity:1}.F{stroke:none}</style><g
     style="display:inline"
     inkscape:groupmode="layer"
     id="g1099"
     inkscape:label="message 1"><circle
       style="display:inline;opacity:1;vector-effect:none;fill:#ffffff;fill-opacity:1;fill-rule:nonzero;stroke:#6b5a83;stroke-width:4;stroke-linecap:butt;stroke-linejoin:round;stroke-miterlimit:4;stroke-dasharray:none;stroke-dashoffset:0;stroke-opacity:1;paint-order:fill markers stroke"
       id="circle1091"
       cx="64"
       cy="64"
       r="60" /><g
       id="g7"
       style="filter:url(#filter265)"><path
         style="opacity:1;fill:none;fill-opacity:1;fill-rule:nonzero;stroke:#6b5a83;stroke-width:8;stroke-linecap:butt;stroke-linejoin:round;stroke-miterlimit:4;stroke-dasharray:none;stroke-dashoffset:0;stroke-opacity:1;paint-order:stroke fill markers"
         d="m 39.08093,101.18648 c 5.391633,2.69457 14.795699,-1.0733 18.15213,-5.381856 0.04563,2.126419 1.513561,3.520155 3.582687,3.848464 3.141411,0.498442 2.905571,-3.206679 4.305284,-3.005295 1.173711,0.168869 0.588061,2.605889 2.178511,3.102186 1.756696,0.548171 4.079086,0.115857 4.793498,-2.551006 0.309681,-1.156022 0.918028,-2.122098 1.393114,-0.828961 0.893951,2.43325 4.369141,2.370162 6.004532,0.470802 1.238576,-1.438493 0.272171,-4.019042 1.45995,-3.288073 1.912391,1.176901 4.234611,1.528192 5.82356,-0.153336 1.182809,-1.251723 -0.340184,-4.409185 0.628964,-4.724884 1.266611,-0.412596 3.743783,1.845421 5.303008,0.415835 1.499549,-1.374872 -0.539324,-3.967324 -0.308584,-4.828915 0.256226,-0.956753 3.621646,0.509136 5.136369,-1.430793 1.071751,-1.372619 0.518326,-3.308326 -0.463383,-4.785966 -1.134702,-1.707922 1.635659,-1.758761 2.643275,-1.902535 2.412535,-0.344243 2.772835,-4.984109 -0.05131,-5.925323 -1.032647,-0.344149 -1.216208,-1.363643 0.105047,-1.54804 3.045268,-0.425006 3.536768,-4.987393 0.865258,-6.389437 -0.633077,-0.332251 -2.262728,-1.119116 -1.737665,-1.487703 1.165935,-0.818486 2.371045,-2.762086 1.761745,-4.875937 -0.57365,-1.990178 -2.645265,-2.085945 -4.415918,-1.711236 -1.271469,0.26907 -1.51132,-0.103344 -0.159007,-1.918148 0.804922,-1.080206 1.535275,-3.938877 -0.755273,-5.263643 -1.121016,-0.648353 -2.269596,0.33644 -3.649678,0.305566 -1.295312,-0.02898 0.844293,-3.081508 0.07978,-4.612565 -0.599092,-1.199768 -2.057383,-2.242537 -3.414149,-2.031352 -1.273827,0.198275 -1.398213,1.167541 -2.729554,1.507096 -1.256096,0.320365 -0.136842,-2.362258 -0.760976,-3.944473 -0.463212,-1.174268 -1.796683,-1.893013 -3.352894,-1.593774 -1.262269,0.242718 -1.824339,1.365844 -3.024405,2.026616 -1.25716,0.69221 -0.14755,-1.931562 -1.137808,-3.586016 -1.00807,-1.684212 -4.064788,-2.011497 -5.435422,0.239951 -0.418779,0.687902 -1.799255,2.263941 -1.903531,1.01866 -0.174413,-2.082851 -1.263822,-3.484864 -3.313517,-3.484864 -3.182832,0 -2.917418,3.314789 -4.135416,3.418103 -1.175278,0.09969 -1.006668,-3.432852 -4.054817,-3.186841 -3.535993,0.285385 -2.692942,3.809415 -3.550561,4.058523 -1.131239,0.328586 -1.519533,-1.539004 -3.148837,-2.268798 -1.340644,-0.600499 -2.575852,-0.327308 -3.30292,0.49197 -1.456693,1.641437 -0.367874,3.661928 -1.46824,4.303238 -0.700195,0.408085 -2.305065,-2.123954 -4.449689,-1.510905 -3.92053,1.120698 -1.531354,4.819005 -2.162833,5.402367 -0.769008,0.71041 -3.253166,-2.177156 -5.286583,-0.07741 -2.206977,2.278974 0.482224,4.837801 -0.1036,5.438068 -0.612939,0.628052 -2.126236,0.07382 -3.22296,0.35038 -3.008959,0.75877 -3.178431,4.645179 -0.861295,6.845429 0.904081,0.858476 -2.312359,0.02952 -3.339588,1.312148 -1.557754,1.945065 -2.102823,5.238596 0.631479,5.894576 1.353,0.324595 1.277869,1.349758 0.169767,1.686686 -3.276734,0.996321 -3.414072,6.559117 0.346674,6.795391 1.285594,0.08076 0.902599,0.453109 -0.05377,0.972201 -3.696528,2.006382 -1.632509,7.225061 1.684975,6.778872 0.993911,-0.133677 2.127284,0.416985 1.04897,1.243031 -1.880993,1.440941 -1.466213,4.10079 0.160439,5.624375 1.34694,1.261597 4.126288,-0.94062 4.471585,-0.03457 0.515792,1.35342 -1.155749,3.352501 0.31641,5.194466 1.145781,1.433602 4.423081,1.496362 5.955414,0.211308 1.745447,2.613018 2.595874,6.455645 -3.248236,9.376347 z"
         id="path3"
         sodipodi:nodetypes="ccssssssssssssssssssssssssssssssssssssssssssssssssssssssscc"
         inkscape:transform-center-x="-0.15311847"
         inkscape:transform-center-y="1.4836572" /><g
         id="g6"
         inkscape:transform-center-x="-25.850388"
         inkscape:transform-center-y="-22.411016"
         transform="matrix(0.92292852,0,0,0.92250154,4.932575,6.9561946)"
         style="stroke-width:1.08376"><path
           style="fill:#9e7fb6;fill-opacity:1;stroke:#6b5a83;stroke-width:8.67007;stroke-linecap:round;stroke-linejoin:round;stroke-dasharray:none;stroke-dashoffset:0;stroke-opacity:1;paint-order:stroke markers fill"
           d="m 77.812889,39.570995 c 8.514536,-12.950268 21.398384,-17.450724 26.654771,-15.068359 4.17075,1.890322 0.11554,22.218518 -4.607559,31.017807"
           id="path5"
           sodipodi:nodetypes="csc" /><path
           style="fill:#ffffff;fill-opacity:1;stroke:none;stroke-width:8.67007;stroke-linecap:round;stroke-linejoin:round;stroke-dasharray:none;stroke-dashoffset:0;stroke-opacity:1;paint-order:stroke markers fill"
           d="m 80.110986,39.639543 c 6.586779,-9.070591 17.941871,-11.358643 20.388464,-9.487575 1.62695,1.244237 0.81356,14.427573 -3.157076,22.921745"
           id="path6"
           sodipodi:nodetypes="csc" /></g><use
         x="0"
         y="0"
         xlink:href="#g6"
         inkscape:transform-center-x="25.850388"
         inkscape:transform-center-y="-22.411016"
         id="use6"
         transform="matrix(-1,0,0,1,128,0)"
         style="stroke-width:1.08376" /><path
         style="opacity:1;fill:#9e7fb6;fill-opacity:1;fill-rule:nonzero;stroke:#6b5a83;stroke-width:4;stroke-linecap:butt;stroke-linejoin:round;stroke-miterlimit:4;stroke-dasharray:none;stroke-dashoffset:0;stroke-opacity:1;paint-order:stroke fill markers"
         d="m 39.08093,101.18648 c 5.391633,2.69457 14.795699,-1.0733 18.15213,-5.381856 0.04563,2.126419 1.513561,3.520155 3.582687,3.848464 3.141411,0.498442 2.905571,-3.206679 4.305284,-3.005295 1.173711,0.168869 0.588061,2.605889 2.178511,3.102186 1.756696,0.548171 4.079086,0.115857 4.793498,-2.551006 0.309681,-1.156022 0.918028,-2.122098 1.393114,-0.828961 0.893951,2.43325 4.369141,2.370162 6.004532,0.470802 1.238576,-1.438493 0.272171,-4.019042 1.45995,-3.288073 1.912391,1.176901 4.234611,1.528192 5.82356,-0.153336 1.182809,-1.251723 -0.340184,-4.409185 0.628964,-4.724884 1.266611,-0.412596 3.743783,1.845421 5.303008,0.415835 1.499549,-1.374872 -0.539324,-3.967324 -0.308584,-4.828915 0.256226,-0.956753 3.621646,0.509136 5.136369,-1.430793 1.071751,-1.372619 0.518326,-3.308326 -0.463383,-4.785966 -1.134702,-1.707922 1.635659,-1.758761 2.643275,-1.902535 2.412535,-0.344243 2.772835,-4.984109 -0.05131,-5.925323 -1.032647,-0.344149 -1.216208,-1.363643 0.105047,-1.54804 3.045268,-0.425006 3.536768,-4.987393 0.865258,-6.389437 -0.633077,-0.332251 -2.262728,-1.119116 -1.737665,-1.487703 1.165935,-0.818486 2.371045,-2.762086 1.761745,-4.875937 -0.57365,-1.990178 -2.645265,-2.085945 -4.415918,-1.711236 -1.271469,0.26907 -1.51132,-0.103344 -0.159007,-1.918148 0.804922,-1.080206 1.535275,-3.938877 -0.755273,-5.263643 -1.121016,-0.648353 -2.269596,0.33644 -3.649678,0.305566 -1.295312,-0.02898 0.844293,-3.081508 0.07978,-4.612565 -0.599092,-1.199768 -2.057383,-2.242537 -3.414149,-2.031352 -1.273827,0.198275 -1.398213,1.167541 -2.729554,1.507096 -1.256096,0.320365 -0.136842,-2.362258 -0.760976,-3.944473 -0.463212,-1.174268 -1.796683,-1.893013 -3.352894,-1.593774 -1.262269,0.242718 -1.824339,1.365844 -3.024405,2.026616 -1.25716,0.69221 -0.14755,-1.931562 -1.137808,-3.586016 -1.00807,-1.684212 -4.064788,-2.011497 -5.435422,0.239951 -0.418779,0.687902 -1.799255,2.263941 -1.903531,1.01866 -0.174413,-2.082851 -1.263822,-3.484864 -3.313517,-3.484864 -3.182832,0 -2.917418,3.314789 -4.135416,3.418103 -1.175278,0.09969 -1.006668,-3.432852 -4.054817,-3.186841 -3.535993,0.285385 -2.692942,3.809415 -3.550561,4.058523 -1.131239,0.328586 -1.519533,-1.539004 -3.148837,-2.268798 -1.340644,-0.600499 -2.575852,-0.327308 -3.30292,0.49197 -1.456693,1.641437 -0.367874,3.661928 -1.46824,4.303238 -0.700195,0.408085 -2.305065,-2.123954 -4.449689,-1.510905 -3.92053,1.120698 -1.531354,4.819005 -2.162833,5.402367 -0.769008,0.71041 -3.253166,-2.177156 -5.286583,-0.07741 -2.206977,2.278974 0.482224,4.837801 -0.1036,5.438068 -0.612939,0.628052 -2.126236,0.07382 -3.22296,0.35038 -3.008959,0.75877 -3.178431,4.645179 -0.861295,6.845429 0.904081,0.858476 -2.312359,0.02952 -3.339588,1.312148 -1.557754,1.945065 -2.102823,5.238596 0.631479,5.894576 1.353,0.324595 1.277869,1.349758 0.169767,1.686686 -3.276734,0.996321 -3.414072,6.559117 0.346674,6.795391 1.285594,0.08076 0.902599,0.453109 -0.05377,0.972201 -3.696528,2.006382 -1.632509,7.225061 1.684975,6.778872 0.993911,-0.133677 2.127284,0.416985 1.04897,1.243031 -1.880993,1.440941 -1.466213,4.10079 0.160439,5.624375 1.34694,1.261597 4.126288,-0.94062 4.471585,-0.03457 0.515792,1.35342 -1.155749,3.352501 0.31641,5.194466 1.145781,1.433602 4.423081,1.496362 5.955414,0.211308 1.745447,2.613018 2.595874,6.455645 -3.248236,9.376347 z"
         id="path2"
         sodipodi:nodetypes="ccssssssssssssssssssssssssssssssssssssssssssssssssssssssscc"
         inkscape:transform-center-x="-0.15311847"
         inkscape:transform-center-y="1.4836572" /><path
         d="m 50.009718,69.912091 c 2.538402,0 3.596067,-1.842509 3.596067,-3.745429 0,-2.265381 -1.541171,-3.594403 -3.596067,-3.594403 -2.085114,0 -3.837819,0.966562 -3.837819,3.564198 0,2.718456 1.571391,3.775634 3.837819,3.775634 z m 17.401129,-4.413274 c -0.107294,-0.44336 -7.011291,-0.551046 -7.15179,-0.06756 -0.29084,1.000838 3.006994,6.421397 3.595037,6.472821 0.560272,0.04899 3.690693,-5.85179 3.556753,-6.405255 z m 9.947133,4.413274 c 2.538401,0 3.596068,-1.842509 3.596068,-3.745429 0,-2.265381 -1.541173,-3.594403 -3.596068,-3.594403 -2.085115,0 -3.837819,0.966562 -3.837819,3.564198 0,2.718456 1.57139,3.775634 3.837819,3.775634 z"
         id="text1097"
         style="font-weight:bold;font-size:25.8644px;line-height:1;font-family:Mikado;-inkscape-font-specification:'Mikado Bold';text-align:center;text-anchor:middle;fill:#ffffff;stroke-width:3.23305;stroke-linejoin:round;paint-order:stroke fill markers"
         aria-label="•v•"
         sodipodi:nodetypes="ssssssssssssss"
         inkscape:transform-center-x="0.4370265"
         inkscape:transform-center-y="1.2420272" /></g></g></svg>
