<svg version="1.1" viewBox="0 0 128 128" xmlns="http://www.w3.org/2000/svg"><defs><filter id="a" x="-.051311" y="-.052939" width="1.1271" height="1.1588" color-interpolation-filters="sRGB"><feFlood flood-color="rgb(102,147,177)" flood-opacity=".5"/><feComposite in2="SourceGraphic" operator="in"/><feOffset dx="2" dy="4" result="result1"/><feMerge><feMergeNode in="result1"/><feMergeNode in="SourceGraphic"/></feMerge></filter></defs><circle cx="64" cy="64" r="60" fill="#b5cee1" stroke="#6693b1" stroke-linecap="round" stroke-linejoin="round" stroke-miterlimit="3.9" stroke-width="4"/><g filter="url(#a)" stroke="#d5425d" stroke-linecap="round" stroke-linejoin="round" stroke-width="8"><path transform="translate(81.66 -1.0557)" d="m-17.66 17.897c8.1161 0 44.638 63.259 40.58 70.287-4.058 7.0287-77.103 7.0287-81.161-2e-6 -4.058-7.0287 32.464-70.287 40.58-70.287z" fill="#ff8090" style="paint-order:stroke markers fill"/><path d="m65.752 38.899c-3.4131 0.06-7.6482 0.39586-8.4082 0.75586-0.128 9.408 4.2245 26.56 4.4805 26.816 0.192 0.256 3.7117 0.64 4.0957 0 0.384-0.64 4.0962-15.808 4.1602-27.328-0.528-0.216-2.2803-0.28014-4.3281-0.24414zm-1.5605 32.436c-4.16 0-6.9746 2.6241-6.9746 6.0801 0 4.544 2.8792 7.2949 6.7832 7.2949 5.376 0 6.7832-2.8786 6.7832-6.9746 0-4.224-2.7518-6.3364-6.5918-6.4004z" fill="#fff" style="paint-order:stroke markers fill;text-decoration-color:#000000;text-decoration-line:none"/></g></svg>
