<?xml version="1.0" encoding="UTF-8" standalone="no"?>
<!-- Created with Inkscape (http://www.inkscape.org/) -->

<svg
   enable-background="new"
   inkscape:export-ydpi="384"
   inkscape:export-xdpi="384"
   inkscape:export-filename="..\app\src\main\res\drawable-nodpi\ftp.png"
   sodipodi:docname="ftp.svg"
   inkscape:version="1.3 (0e150ed6c4, 2023-07-21)"
   id="svg8"
   version="1.1"
   viewBox="0 0 128 128"
   height="128"
   width="128"
   xml:space="preserve"
   xmlns:inkscape="http://www.inkscape.org/namespaces/inkscape"
   xmlns:sodipodi="http://sodipodi.sourceforge.net/DTD/sodipodi-0.dtd"
   xmlns="http://www.w3.org/2000/svg"
   xmlns:svg="http://www.w3.org/2000/svg"
   xmlns:rdf="http://www.w3.org/1999/02/22-rdf-syntax-ns#"
   xmlns:cc="http://creativecommons.org/ns#"
   xmlns:dc="http://purl.org/dc/elements/1.1/"><sodipodi:namedview
     id="base"
     pagecolor="#ffffff"
     bordercolor="#666666"
     borderopacity="1.0"
     inkscape:pageopacity="0.0"
     inkscape:pageshadow="2"
     inkscape:zoom="4"
     inkscape:cx="48"
     inkscape:cy="103.75"
     inkscape:document-units="px"
     inkscape:current-layer="g4451"
     showgrid="false"
     units="px"
     inkscape:pagecheckerboard="true"
     borderlayer="true"
     gridtolerance="10"
     inkscape:snap-smooth-nodes="true"
     inkscape:snap-text-baseline="true"
     inkscape:snap-page="true"
     showguides="true"
     inkscape:guide-bbox="true"
     inkscape:snap-object-midpoints="true"
     inkscape:snap-center="true"
     inkscape:snap-global="true"
     inkscape:lockguides="false"
     inkscape:snap-bbox="true"
     inkscape:bbox-nodes="true"
     inkscape:showpageshadow="0"
     inkscape:deskcolor="#d1d1d1"
     inkscape:window-width="1852"
     inkscape:window-height="1057"
     inkscape:window-x="60"
     inkscape:window-y="-8"
     inkscape:window-maximized="1"><inkscape:grid
       enabled="false"
       empspacing="4"
       id="grid4131"
       type="xygrid"
       spacingx="8"
       spacingy="8"
       originx="0"
       originy="0"
       units="px"
       visible="false" /><inkscape:grid
       empspacing="4"
       id="grid4167"
       type="xygrid"
       originx="0"
       originy="0"
       spacingy="1"
       spacingx="1"
       units="px"
       visible="false" /></sodipodi:namedview><defs
     id="defs2" /><metadata
     id="metadata5"><rdf:RDF><cc:Work
         rdf:about=""><dc:format>image/svg+xml</dc:format><dc:type
           rdf:resource="http://purl.org/dc/dcmitype/StillImage" /></cc:Work></rdf:RDF></metadata><style
     id="style2296">.B{fill:#fc9abf}.C{fill:#ffc7df}.D{fill:#ed84cb}.E{fill-opacity:1}.F{stroke:none}</style><g
     inkscape:groupmode="layer"
     id="g4451"
     inkscape:label="ftp"
     style="display:inline"
     sodipodi:insensitive="true"><circle
       style="display:inline;opacity:1;vector-effect:none;fill:#b7ed50;fill-opacity:1;fill-rule:nonzero;stroke:#5b9323;stroke-width:4;stroke-linecap:butt;stroke-linejoin:round;stroke-miterlimit:4;stroke-dasharray:none;stroke-dashoffset:0;stroke-opacity:1;paint-order:fill markers stroke"
       id="circle4436"
       cx="64"
       cy="64"
       r="60" /><path
       style="display:inline;opacity:1;vector-effect:none;fill:#89c03a;fill-opacity:1;fill-rule:nonzero;stroke:#89c03a;stroke-width:4;stroke-linecap:butt;stroke-linejoin:round;stroke-miterlimit:4;stroke-dasharray:none;stroke-dashoffset:0;stroke-opacity:1;paint-order:normal"
       d="m 53.792969,32.189453 c -5.504748,0.04264 -11.049478,0.698972 -16.447266,1.705078 -2.640822,0.492229 -7.864691,12.81583 -8.333984,14.705078 h 0.01563 c -0.0048,0.01572 -0.01098,0.03112 -0.01563,0.04687 -1.987875,6.73908 -2.41211,15.280559 -2.41211,22.623047 0,7.342488 0.424235,15.883968 2.41211,22.623047 0.469293,1.590946 1.519638,3.030073 2.980469,4.091797 1.46083,1.061723 3.443825,1.826901 5.632812,2.16796 9.272333,1.44479 18.272436,1.75196 28.375,1.75196 10.102564,0 19.102668,-0.30717 28.375,-1.75196 2.188988,-0.341059 4.171987,-1.106237 5.63281,-2.16796 1.46084,-1.061724 2.51119,-2.500851 2.98047,-4.091797 1.98788,-6.739079 2.41211,-15.280559 2.41211,-22.623047 0,-7.342488 -0.42423,-15.883967 -2.41211,-22.623047 -0.005,-0.01575 -0.0109,-0.03115 -0.0156,-0.04687 h 0.0156 C 102.519,46.710361 101.46865,44.999078 100.00781,43.738281 98.546987,42.477484 96.563988,41.571047 94.375,41.166016 85.102668,39.450343 76.102564,39.263672 66,39.263672 c -0.895454,0 -8.059269,-7.009557 -9.849609,-7.054688 -0.784161,-0.01977 -1.57103,-0.02562 -2.357422,-0.01953 z"
       id="path4439"
       inkscape:connector-curvature="0" /><path
       sodipodi:nodetypes="czscssc"
       inkscape:connector-curvature="0"
       id="path4441"
       d="M 100.98859,44.598733 C 100.51931,42.709485 99.468086,40.99908 98.007251,39.738283 96.546424,38.477486 94.564648,37.570213 92.37566,37.165182 83.103328,35.449509 74.102564,35.263954 64,35.263954 c -0.895454,0 -8.05966,-7.009885 -9.85,-7.055016 -6.273288,-0.158141 -12.635645,0.535986 -18.804545,1.685822 -2.640822,0.492229 -7.864754,12.814725 -8.334047,14.703973"
       style="display:inline;opacity:1;vector-effect:none;fill:#404040;fill-opacity:1;fill-rule:nonzero;stroke:#373737;stroke-width:4;stroke-linecap:butt;stroke-linejoin:round;stroke-miterlimit:4;stroke-dasharray:none;stroke-dashoffset:0;stroke-opacity:1;paint-order:normal"
       inkscape:export-filename="..\..\Users\Haley\Pictures\ftp.png"
       inkscape:export-xdpi="74.202896"
       inkscape:export-ydpi="74.202896" /><path
       style="display:inline;opacity:1;vector-effect:none;fill:#4c4c4c;fill-opacity:1;fill-rule:nonzero;stroke:#373737;stroke-width:4;stroke-linecap:butt;stroke-linejoin:round;stroke-miterlimit:4;stroke-dasharray:none;stroke-dashoffset:0;stroke-opacity:1;paint-order:normal"
       d="M 92.37566,38.385747 C 83.103328,36.94097 74.102564,36.633149 64,36.633149 c -10.102564,0 -19.103327,0.307821 -28.37566,1.752598 -2.188987,0.341079 -4.17076,1.105098 -5.631591,2.166821 -1.460831,1.061725 -2.512048,2.502066 -2.981341,4.093011 C 25.023533,51.384659 24.6,59.926364 24.6,67.268852 c 0,7.342488 0.423533,15.884194 2.411408,22.623273 0.469293,1.590946 1.52051,3.031287 2.981341,4.093011 1.460831,1.061723 3.442604,1.825746 5.631591,2.166816 9.272333,1.444788 18.273096,1.752603 28.37566,1.752603 10.102564,0 19.103328,-0.307815 28.37566,-1.752603 2.188988,-0.34107 4.170764,-1.105093 5.631591,-2.166816 1.460835,-1.061724 2.512059,-2.502065 2.981339,-4.093011 C 102.97647,83.153046 103.4,74.61134 103.4,67.268852 c 0,-7.342488 -0.42353,-15.884193 -2.41141,-22.623273 -0.46928,-1.590945 -1.520504,-3.031286 -2.981339,-4.093011 -1.460827,-1.061723 -3.442603,-1.825742 -5.631591,-2.166821 z"
       id="path4443"
       inkscape:connector-curvature="0"
       sodipodi:nodetypes="szszszszszszszszs" /><path
       style="font-weight:bold;font-size:48px;line-height:1.2;font-family:Mikado;-inkscape-font-specification:'Mikado Bold';text-align:center;letter-spacing:0px;text-anchor:middle;fill:#52d348;fill-opacity:1;stroke:#373737;stroke-width:4;stroke-dasharray:none;stroke-opacity:1;paint-order:stroke fill markers"
       d="m 52.358183,72.747826 c -0.272767,0.500073 0.136384,12.230517 0.227306,12.366901 0.09092,0.136384 6.591871,0.272767 6.773716,-0.04546 0.136383,-0.318228 0.500073,-12.139595 0.363689,-12.32144 -0.181844,-0.181845 -7.091944,-0.454612 -7.364711,-10e-7 z"
       id="path7953"
       sodipodi:nodetypes="csccc" /><path
       d="m 64.535906,58.662116 c -0.328855,3.946262 -0.205535,23.774022 -0.04111,26.692611 0.04111,0.287748 7.070385,0.575496 7.317027,-0.164428 0.287748,-2.630841 0.328855,-24.883907 0.04111,-26.610397 -0.246642,-0.246641 -6.001607,-0.411068 -7.317027,0.08221 z"
       style="font-weight:bold;font-size:48px;line-height:1.2;font-family:Mikado;-inkscape-font-specification:'Mikado Bold';text-align:center;letter-spacing:0px;text-anchor:middle;fill:#85e04c;fill-opacity:1;stroke:#373737;stroke-width:4;stroke-dasharray:none;stroke-opacity:1;paint-order:stroke fill markers"
       id="path7955"
       sodipodi:nodetypes="ccccc" /><path
       d="m 77.243845,47.622231 c -0.75247,0.65214 -0.75247,37.422849 -0.351153,37.723837 0.401317,0.250824 7.173549,0.200659 7.173549,0.200659 0.250823,-3.86268 0.953129,-37.523179 0.601976,-38.125155 -0.150494,-0.351153 -6.722067,-0.451482 -7.424372,0.200659 z"
       style="font-weight:bold;font-size:48px;line-height:1.2;font-family:Mikado;-inkscape-font-specification:'Mikado Bold';text-align:center;letter-spacing:0px;text-anchor:middle;fill:#b7ed50;stroke:#373737;stroke-width:4;stroke-dasharray:none;stroke-opacity:1;paint-order:stroke fill markers"
       id="path7957"
       sodipodi:nodetypes="ccccc" /><path
       id="text7966"
       style="font-style:normal;font-variant:normal;font-weight:bold;font-stretch:normal;font-size:48px;line-height:1.2;font-family:Mikado;-inkscape-font-specification:'Mikado Bold';text-align:center;text-decoration:none;text-decoration-line:none;text-decoration-color:#000000;letter-spacing:0px;text-anchor:middle;fill:#8f8f8f;fill-opacity:1;stroke:#373737;stroke-width:4;stroke-dasharray:none;stroke-opacity:1;paint-order:stroke fill markers;stop-color:#000000"
       d="m 45.961135,59.099609 c -0.888,0.006 -1.823626,0.09091 -2.015626,0.378907 -0.191999,0.287999 0.335641,25.504375 0.431641,25.984375 0.144,0.479999 3.3125,-0.240235 3.3125,-0.240235 v -26.03125 c 0,-0.024 -0.840516,-0.0978 -1.728515,-0.0918 z"
       sodipodi:nodetypes="ssccss" /><path
       style="font-weight:bold;font-size:48px;line-height:1.2;font-family:Mikado;-inkscape-font-specification:'Mikado Bold';text-align:center;letter-spacing:0px;text-anchor:middle;fill:#e2e2e2;fill-opacity:1;stroke:#373737;stroke-width:4;stroke-dasharray:none;stroke-opacity:1;paint-order:stroke fill markers"
       d="m 39.337927,53.076815 c 0,3.947042 2.583518,6.02821 6.315266,6.02821 3.875277,0 6.602324,-2.43999 6.602324,-5.597623 0,-4.449392 -2.727047,-7.104675 -6.602324,-7.104675 -5.167036,0 -6.315266,2.798811 -6.315266,6.674088 z"
       id="path7962"
       sodipodi:nodetypes="sssss" /><path
       style="font-weight:bold;font-size:48px;line-height:1.2;font-family:Mikado;-inkscape-font-specification:'Mikado Bold';text-align:center;letter-spacing:0px;text-anchor:middle;fill:#ffffff;fill-opacity:1;stroke:none;stroke-width:4;stroke-dasharray:none;stroke-opacity:1;paint-order:stroke fill markers"
       d="m 41.517757,50.485696 c -0.0089,1.19912 1.00348,2.301875 2.202379,2.326611 1.36632,0.02819 2.637314,-0.983053 2.695081,-2.348442 0.05182,-1.224748 -0.935081,-2.544816 -2.160406,-2.580498 -1.412156,-0.04112 -2.726515,1.189613 -2.737054,2.602329 z"
       id="path9990"
       sodipodi:nodetypes="sssss" /></g></svg>
