<?xml version="1.0" encoding="UTF-8" standalone="no"?>
<!-- Created with Inkscape (http://www.inkscape.org/) -->

<svg
   enable-background="new"
   inkscape:export-ydpi="384"
   inkscape:export-xdpi="384"
   inkscape:export-filename="..\app\src\main\res\drawable-nodpi\github.png"
   sodipodi:docname="github.svg"
   inkscape:version="1.3 (0e150ed6c4, 2023-07-21)"
   id="svg8"
   version="1.1"
   viewBox="0 0 128 128"
   height="128"
   width="128"
   xml:space="preserve"
   xmlns:inkscape="http://www.inkscape.org/namespaces/inkscape"
   xmlns:sodipodi="http://sodipodi.sourceforge.net/DTD/sodipodi-0.dtd"
   xmlns:xlink="http://www.w3.org/1999/xlink"
   xmlns="http://www.w3.org/2000/svg"
   xmlns:svg="http://www.w3.org/2000/svg"
   xmlns:rdf="http://www.w3.org/1999/02/22-rdf-syntax-ns#"
   xmlns:cc="http://creativecommons.org/ns#"
   xmlns:dc="http://purl.org/dc/elements/1.1/"><sodipodi:namedview
     id="base"
     pagecolor="#ffffff"
     bordercolor="#666666"
     borderopacity="1.0"
     inkscape:pageopacity="0.0"
     inkscape:pageshadow="2"
     inkscape:zoom="2.8284271"
     inkscape:cx="15.026019"
     inkscape:cy="56.922096"
     inkscape:document-units="px"
     inkscape:current-layer="g21"
     showgrid="false"
     units="px"
     inkscape:pagecheckerboard="true"
     borderlayer="true"
     gridtolerance="10"
     inkscape:snap-smooth-nodes="true"
     inkscape:snap-text-baseline="true"
     inkscape:snap-page="true"
     showguides="true"
     inkscape:guide-bbox="true"
     inkscape:snap-object-midpoints="true"
     inkscape:snap-center="true"
     inkscape:snap-global="true"
     inkscape:lockguides="false"
     inkscape:snap-bbox="true"
     inkscape:bbox-nodes="true"
     inkscape:showpageshadow="0"
     inkscape:deskcolor="#d1d1d1"
     inkscape:window-width="1849"
     inkscape:window-height="1057"
     inkscape:window-x="63"
     inkscape:window-y="-8"
     inkscape:window-maximized="1"><inkscape:grid
       enabled="false"
       empspacing="4"
       id="grid4131"
       type="xygrid"
       spacingx="8"
       spacingy="8"
       originx="0"
       originy="0"
       units="px"
       visible="false" /><inkscape:grid
       empspacing="4"
       id="grid4167"
       type="xygrid"
       originx="0"
       originy="0"
       spacingy="1"
       spacingx="1"
       units="px"
       visible="false" /></sodipodi:namedview><defs
     id="defs2"><clipPath
       clipPathUnits="userSpaceOnUse"
       id="clipPath3287"><circle
         r="60"
         cy="64"
         cx="64"
         id="circle3289"
         style="display:inline;opacity:1;vector-effect:none;fill:none;fill-opacity:1;fill-rule:nonzero;stroke:#373737;stroke-width:4;stroke-linecap:butt;stroke-linejoin:round;stroke-miterlimit:4;stroke-dasharray:none;stroke-dashoffset:0;stroke-opacity:1;paint-order:fill markers stroke" /></clipPath><filter
       id="filter265"
       inkscape:label="Drop Shadow red"
       style="color-interpolation-filters:sRGB"
       x="-0.0067408769"
       y="-0.042668868"
       width="1.0269572"
       height="1.1280265"><feFlood
         id="feFlood264"
         result="flood"
         flood-color="rgb(116,116,116)"
         flood-opacity="0.498039" /><feComposite
         id="feComposite264"
         result="composite1"
         operator="in"
         in2="SourceGraphic"
         in="flood" /><feOffset
         id="feOffset264"
         result="offset"
         dy="4"
         dx="2" /><feComposite
         id="feComposite265"
         result="composite2"
         operator="over"
         in2="offset"
         in="SourceGraphic" /></filter><clipPath
       clipPathUnits="userSpaceOnUse"
       id="clipPath6"><path
         id="path6"
         style="fill:#f4cbb2;fill-opacity:1;stroke:none;stroke-width:8;stroke-linejoin:round;stroke-opacity:1;paint-order:stroke fill markers"
         d="m 52,54 c -9.99999,0 -17,6.19598 -17,15 0,11.999988 8.000021,18 29,18 20.999979,0 29,-6.000012 29,-18 0,-8.80402 -7.00001,-15 -17,-15 -3.802995,0 -6.939718,1 -12,1 -5.060282,0 -8.197005,-1 -12,-1 z" /></clipPath><clipPath
       clipPathUnits="userSpaceOnUse"
       id="clipPath21"><circle
         r="60"
         cy="64"
         cx="64"
         id="circle22"
         style="display:inline;opacity:1;vector-effect:none;fill:none;fill-opacity:1;fill-rule:nonzero;stroke:none;stroke-width:4;stroke-linecap:butt;stroke-linejoin:round;stroke-miterlimit:4;stroke-dasharray:none;stroke-dashoffset:0;stroke-opacity:1;paint-order:fill markers stroke" /></clipPath></defs><metadata
     id="metadata5"><rdf:RDF><cc:Work
         rdf:about=""><dc:format>image/svg+xml</dc:format><dc:type
           rdf:resource="http://purl.org/dc/dcmitype/StillImage" /></cc:Work></rdf:RDF></metadata><style
     id="style2296">.B{fill:#fc9abf}.C{fill:#ffc7df}.D{fill:#ed84cb}.E{fill-opacity:1}.F{stroke:none}</style><g
     inkscape:groupmode="layer"
     id="g4122"
     inkscape:label="0h n0"
     style="display:inline"><g
       clip-path="url(#clipPath3287)"
       id="g4118"
       inkscape:groupmode="maskhelper"
       style="fill:#ffffff;fill-opacity:1"><g
         id="g4116"
         style="fill:#ffffff;fill-opacity:1"><circle
           style="display:inline;opacity:1;vector-effect:none;fill:#ffffff;fill-opacity:1;fill-rule:nonzero;stroke:none;stroke-width:4;stroke-linecap:butt;stroke-linejoin:round;stroke-miterlimit:4;stroke-dasharray:none;stroke-dashoffset:0;stroke-opacity:1;paint-order:fill markers stroke"
           id="circle4106"
           cx="64"
           cy="64"
           r="60" /></g></g><circle
       r="60"
       cy="64"
       cx="64"
       id="circle4120"
       style="display:inline;opacity:1;vector-effect:none;fill:none;fill-opacity:1;fill-rule:nonzero;stroke:none;stroke-width:4;stroke-linecap:butt;stroke-linejoin:round;stroke-miterlimit:4;stroke-dasharray:none;stroke-dashoffset:0;stroke-opacity:1;paint-order:fill markers stroke" /><g
       inkscape:groupmode="maskhelper"
       id="g21"
       clip-path="url(#clipPath21)"
       style="filter:url(#filter265)"><g
         id="g20"
         transform="matrix(0.93005416,0,0,0.92918317,4.4765336,1.0028689)"
         style="stroke-width:1.07571"><path
           style="fill:#4c4c4c;fill-opacity:1;stroke:#373737;stroke-width:8.60568;stroke-linejoin:round;stroke-opacity:1;paint-order:stroke fill markers"
           d="M 50.863515,105.67247 49.125,98.375 C 42.325825,103 37.27665,100.48116 34.65165,95.731155 33.36654,93.405717 31.210535,90.76907 28.533997,89.564412 c -2.790629,-1.256006 -6.119904,-0.97983 -8.257347,1.604243 0.67491,1.042758 2.291788,1.878387 4.340805,2.69977 1.834515,0.735396 4.022165,3.969269 5.938105,8.381735 2.554378,5.8828 9.829957,9.21594 20.307955,3.42231 z"
           id="path1"
           sodipodi:nodetypes="ccsscssc" /><path
           style="fill:#4c4c4c;fill-opacity:1;stroke:#373737;stroke-width:8.60568;stroke-linejoin:round;stroke-opacity:1;paint-order:stroke fill markers"
           d="m 54.358834,89.714173 c -3.416885,2.70522 -4.841218,11.608787 -4.586523,21.509537 0.120814,4.6964 -0.328314,5.93493 -1.450274,9.77889 -0.605501,2.07452 -1.751941,3.14715 -3.447037,6.2474 2.766114,1.03934 6.265187,0.53254 8.372838,-1.86362 3.438931,-3.90968 1.005651,-7.05478 2.133444,-19.33873 0.09682,10.19436 1.041904,14.69894 1.283825,17.5114 0.362376,4.21282 0.659433,5.08029 0.08489,6.69095 2.443726,0.0655 4.242526,-0.77218 5.323699,-2.36514 2.059214,-3.03396 1.943253,-13.4304 2.353078,-22.86126 0.358577,9.97185 -0.395335,20.4411 2.212637,23.62936 1.028591,1.25746 2.709582,2.3735 5.360586,2.47204 0.245782,-1.26898 -0.167877,-3.25099 -0.478107,-5.44499 -0.492195,-3.48093 1.303982,-8.11226 1.230712,-20.53141 1.149513,8.23897 -1.754149,20.28325 2.789577,23.48331 1.501067,1.05717 3.59332,1.59726 6.457821,0.74309 -0.587237,-1.63643 -2.202379,-3.45479 -2.499426,-5.2055 C 78.975927,121.07738 78.308224,119.29901 78.625,114.125 79.375,101.875 78,93.25 74.125,89.75 70.25,86.25 58.490443,86.443092 54.358834,89.714173 Z"
           id="path2"
           sodipodi:nodetypes="ssscscscscscscscssss" /><path
           id="path3"
           style="fill:#4c4c4c;fill-opacity:1;stroke:#373737;stroke-width:8.60568;stroke-linejoin:round;stroke-opacity:1;paint-order:stroke fill markers"
           d="m 34.642579,30.285156 c -0.400647,-0.0066 -0.805114,-5.65e-4 -1.214844,0.01953 -1.311136,2.733153 -2.622613,12.217918 -0.328125,14.46875 -6.284942,7.739645 -8.113945,20.437602 -4.451172,30.08789 C 32.113037,83.989484 42.011776,89.308592 64,89.308592 c 21.988224,0 31.886969,-5.319108 35.351561,-14.447266 3.662779,-9.650288 1.833759,-22.348245 -4.45117,-30.08789 2.294488,-2.250832 0.983011,-11.735597 -0.328125,-14.46875 -0.305828,-0.015 -0.609162,-0.0223 -0.90995,-0.0223 -6.146846,0 -11.230761,3.050491 -14.824425,5.809414 C 74.904485,35.287932 68.097298,34.324222 64,34.324222 c -4.097298,0 -10.906437,0.96371 -14.839843,1.767578 -3.533921,-2.71306 -8.507874,-5.70773 -14.517578,-5.806644 z"
           sodipodi:nodetypes="sccsssccscscs" /><g
           inkscape:groupmode="maskhelper"
           id="g6"
           clip-path="url(#clipPath6)"
           style="fill:#e4cd9b;fill-opacity:1;stroke-width:1.07571"><rect
             style="fill:#f8e0bb;fill-opacity:1;stroke:none;stroke-width:8.60568;stroke-linejoin:round;stroke-opacity:1;paint-order:stroke fill markers"
             id="rect6"
             width="64"
             height="40"
             x="32"
             y="52" /><path
             id="path8"
             style="display:inline;fill:#cda291;fill-opacity:1;stroke:none;stroke-width:8.60568;stroke-linejoin:round;stroke-opacity:1;paint-order:stroke fill markers"
             d="m 34.21289,52 v 19.771484 c 0,-7.835609 5.085242,-16.496093 17.203125,-16.496093 7.139029,0 7.397047,1.117187 12.583985,1.117187 5.186937,0 5.446909,-1.117187 12.585937,-1.117187 12.117884,0 17.201172,8.660484 17.201172,16.496093 V 52 H 64 Z" /></g><g
           id="g12"
           style="stroke-width:1.07571"><ellipse
             style="fill:#ffffff;fill-opacity:1;stroke:none;stroke-width:8.60569;stroke-linejoin:round;stroke-opacity:1;paint-order:stroke fill markers"
             id="path9"
             cx="47.811241"
             cy="69.877373"
             rx="6.4973807"
             ry="7.7005997" /><ellipse
             style="fill:#775c4f;fill-opacity:1;stroke:none;stroke-width:8.60568;stroke-linejoin:round;stroke-opacity:1;paint-order:stroke fill markers"
             id="ellipse9"
             cx="48.312889"
             cy="69.478935"
             rx="3.6871111"
             ry="4.3699098" /><path
             id="path12"
             style="fill:#775c4f;fill-opacity:1;stroke:none;stroke-width:8.60568;stroke-linejoin:round;stroke-opacity:1;paint-order:stroke fill markers"
             d="m 64,83 c -2,0 -4,-0.977903 -4,-3 0,-1 1,-1 1,0 0,1.009248 1,2 3,2 m 0,-8 c -2,0 -2,3 0,3"
             sodipodi:nodetypes="cssccc" /><circle
             style="fill:#ffffff;fill-opacity:1;stroke:none;stroke-width:8.60569;stroke-linejoin:round;stroke-opacity:1;paint-order:stroke fill markers"
             id="ellipse12"
             cx="48.312889"
             cy="67.747124"
             r="0.76309967" /></g><use
           x="0"
           y="0"
           xlink:href="#g12"
           id="use12"
           transform="matrix(-1,0,0,1,128,0)"
           style="stroke-width:1.07571" /><g
           id="g15"
           style="stroke-width:1.07571"><path
             id="path15"
             style="fill:none;fill-opacity:1;stroke:#373737;stroke-width:2.15142;stroke-linecap:round;stroke-linejoin:round;stroke-dasharray:none;stroke-opacity:1;paint-order:stroke fill markers"
             d="m 31.617436,74.521612 c -18.546323,2.18192 -38.9109121,8.727681 -45.456673,10.909601 M 31,69.418931 C 11.2415,68.32797 -6.9411693,71.843286 -15.790068,73.540336"
             sodipodi:nodetypes="cccc"
             inkscape:transform-center-x="56.086316"
             inkscape:transform-center-y="0.32204601" /></g><use
           x="0"
           y="0"
           xlink:href="#g15"
           id="use15"
           inkscape:transform-center-x="-56.086316"
           inkscape:transform-center-y="0.32204601"
           transform="matrix(-1,0,0,1,128,0)"
           style="stroke-width:1.07571" /><path
           style="fill:#76ddfe;fill-opacity:1;stroke:none;stroke-width:2.15142;stroke-linecap:round;stroke-linejoin:round;stroke-dasharray:none;stroke-opacity:1;paint-order:stroke fill markers"
           d="m 17.932741,100.91454 c 0.159031,1.05156 1.466586,2.28077 2.597119,2.00724 0.735212,-0.19691 1.669269,-1.22661 1.668,-2.20775 -0.003,-2.295216 -0.343577,-4.33694 -1.716054,-6.578418 -0.941868,2.405369 -2.415282,4.409844 -2.549065,6.778928 z"
           id="path16"
           sodipodi:nodetypes="ssscs" /><ellipse
           style="fill:#76ddfe;fill-opacity:1;stroke:none;stroke-width:2.15142;stroke-linecap:round;stroke-linejoin:round;stroke-dasharray:none;stroke-opacity:1;paint-order:stroke fill markers"
           id="path17"
           cx="56.496296"
           cy="75.456345"
           rx="1.658498"
           ry="1.0303966"
           transform="rotate(20)" /><ellipse
           style="fill:#76ddfe;fill-opacity:1;stroke:none;stroke-width:2.15142;stroke-linecap:round;stroke-linejoin:round;stroke-dasharray:none;stroke-opacity:1;paint-order:stroke fill markers"
           id="ellipse17"
           cx="92.539352"
           cy="32.033298"
           rx="1.7187668"
           ry="1.3801119"
           transform="rotate(52.497427)" /><ellipse
           style="fill:#76ddfe;fill-opacity:1;stroke:none;stroke-width:2.15142;stroke-linecap:round;stroke-linejoin:round;stroke-dasharray:none;stroke-opacity:1;paint-order:stroke fill markers"
           id="ellipse18"
           cx="88.020256"
           cy="61.480732"
           rx="2.0030162"
           ry="1.5549973"
           transform="rotate(35)" /><ellipse
           style="fill:#76ddfe;fill-opacity:1;stroke:none;stroke-width:2.15142;stroke-linecap:round;stroke-linejoin:round;stroke-dasharray:none;stroke-opacity:1;paint-order:stroke fill markers"
           id="ellipse19"
           cx="50.971802"
           cy="98.656471"
           rx="2.2539029"
           ry="1.8340582"
           transform="rotate(5)" /><ellipse
           style="fill:#76ddfe;fill-opacity:1;stroke:none;stroke-width:2.15142;stroke-linecap:round;stroke-linejoin:round;stroke-dasharray:none;stroke-opacity:1;paint-order:stroke fill markers"
           id="ellipse20"
           cx="101.47147"
           cy="14.479774"
           rx="1.7187668"
           ry="1.3801119"
           transform="rotate(62.772801)" /></g></g><circle
       r="60"
       cy="64"
       cx="64"
       id="circle20"
       style="display:inline;opacity:1;vector-effect:none;fill:none;fill-opacity:1;fill-rule:nonzero;stroke:#747474;stroke-width:4;stroke-linecap:butt;stroke-linejoin:round;stroke-miterlimit:4;stroke-dasharray:none;stroke-dashoffset:0;stroke-opacity:1;paint-order:fill markers stroke" /></g></svg>
