<?xml version="1.0" encoding="UTF-8" standalone="no"?>
<!-- Created with Inkscape (http://www.inkscape.org/) -->

<svg
   enable-background="new"
   inkscape:export-ydpi="384"
   inkscape:export-xdpi="384"
   inkscape:export-filename="..\app\src\main\res\drawable-nodpi\google_home.png"
   sodipodi:docname="google_home.svg"
   inkscape:version="1.3 (0e150ed6c4, 2023-07-21)"
   id="svg8"
   version="1.1"
   viewBox="0 0 128 128"
   height="128"
   width="128"
   xml:space="preserve"
   xmlns:inkscape="http://www.inkscape.org/namespaces/inkscape"
   xmlns:sodipodi="http://sodipodi.sourceforge.net/DTD/sodipodi-0.dtd"
   xmlns:xlink="http://www.w3.org/1999/xlink"
   xmlns="http://www.w3.org/2000/svg"
   xmlns:svg="http://www.w3.org/2000/svg"
   xmlns:rdf="http://www.w3.org/1999/02/22-rdf-syntax-ns#"
   xmlns:cc="http://creativecommons.org/ns#"
   xmlns:dc="http://purl.org/dc/elements/1.1/"><sodipodi:namedview
     id="base"
     pagecolor="#ffffff"
     bordercolor="#666666"
     borderopacity="1.0"
     inkscape:pageopacity="0.0"
     inkscape:pageshadow="2"
     inkscape:zoom="2.8284271"
     inkscape:cx="9.5459416"
     inkscape:cy="105.00536"
     inkscape:document-units="px"
     inkscape:current-layer="g75"
     showgrid="false"
     units="px"
     inkscape:pagecheckerboard="true"
     borderlayer="true"
     gridtolerance="10"
     inkscape:snap-smooth-nodes="true"
     inkscape:snap-text-baseline="true"
     inkscape:snap-page="true"
     showguides="true"
     inkscape:guide-bbox="true"
     inkscape:snap-object-midpoints="true"
     inkscape:snap-center="true"
     inkscape:snap-global="true"
     inkscape:lockguides="false"
     inkscape:snap-bbox="true"
     inkscape:bbox-nodes="true"
     inkscape:showpageshadow="0"
     inkscape:deskcolor="#d1d1d1"
     inkscape:window-width="1848"
     inkscape:window-height="1057"
     inkscape:window-x="64"
     inkscape:window-y="-8"
     inkscape:window-maximized="1"><inkscape:grid
       enabled="false"
       empspacing="4"
       id="grid4131"
       type="xygrid"
       spacingx="8"
       spacingy="8"
       originx="0"
       originy="0"
       units="px"
       visible="false" /><inkscape:grid
       empspacing="4"
       id="grid4167"
       type="xygrid"
       originx="0"
       originy="0"
       spacingy="1"
       spacingx="1"
       units="px"
       visible="false" /></sodipodi:namedview><defs
     id="defs2"><clipPath
       clipPathUnits="userSpaceOnUse"
       id="clipPath8"><use
         x="0"
         y="0"
         xlink:href="#path5"
         id="use9" /></clipPath></defs><metadata
     id="metadata5"><rdf:RDF><cc:Work
         rdf:about=""><dc:format>image/svg+xml</dc:format><dc:type
           rdf:resource="http://purl.org/dc/dcmitype/StillImage" /></cc:Work></rdf:RDF></metadata><style
     id="style2296">.B{fill:#fc9abf}.C{fill:#ffc7df}.D{fill:#ed84cb}.E{fill-opacity:1}.F{stroke:none}</style><g
     style="display:inline"
     inkscape:label="google lens"
     id="g75"
     inkscape:groupmode="layer"><circle
       r="60"
       cy="64"
       cx="64"
       id="circle62"
       style="display:inline;opacity:1;vector-effect:none;fill:#d4d4d4;fill-opacity:1;fill-rule:nonzero;stroke:#646464;stroke-width:4;stroke-linecap:butt;stroke-linejoin:round;stroke-miterlimit:4;stroke-dasharray:none;stroke-dashoffset:0;stroke-opacity:1;paint-order:fill markers stroke" /><path
       id="path5"
       style="fill:none;fill-opacity:1;fill-rule:nonzero;stroke:#646464;stroke-width:8;stroke-linecap:round;stroke-linejoin:round;stroke-dasharray:none;stroke-opacity:1;paint-order:stroke fill markers"
       d="m 64,25.525446 c -1.947764,0.580102 -3.803887,1.431692 -5.560217,2.446775 -6.314271,3.649377 -12.17503,8.044865 -17.757443,12.722531 -3.715665,3.113464 -7.507626,6.292051 -10.256559,10.335093 -0.434976,5.005378 -0.386959,10.168611 0.211169,22.729527 0.285166,5.988504 1.060407,13.02019 2.008729,16.945923 1.845032,0.838132 3.662195,1.349681 6.958126,1.790578 8.075137,1.080218 16.258391,0.972146 24.396195,1.031415 8.137803,-0.05927 16.321058,0.0488 24.396195,-1.031415 3.295931,-0.440897 5.113094,-0.952446 6.958126,-1.790578 0.948323,-3.925733 1.723562,-10.957419 2.008728,-16.945923 C 97.961178,61.198456 98.009197,56.035223 97.57422,51.029845 94.825286,46.986803 91.033325,43.808216 87.31766,40.694752 81.735247,36.017086 75.874488,31.621598 69.560217,27.972221 67.803888,26.957138 65.947763,26.105548 64,25.525446 Z m 0,15.766166 c 6.163517,3.627486 15.43769,11.186613 19.692872,15.354297 0,5.984297 -0.618891,16.706074 -1.062828,22.038426 C 76.430856,79.114037 70.212314,79.211858 64,79.230584 57.787685,79.211858 51.569144,79.114037 45.369956,78.684335 44.926019,73.351983 44.307128,62.630206 44.307128,56.645909 48.56231,52.478225 57.836483,44.919098 64,41.291612 Z"
       sodipodi:nodetypes="csscscscscscsscccccccc" /><g
       inkscape:groupmode="maskhelper"
       id="g8"
       clip-path="url(#clipPath8)"><rect
         style="fill:#6cd25c;fill-opacity:1;stroke:none;stroke-width:8;stroke-linecap:round;stroke-linejoin:round;stroke-dasharray:none;stroke-opacity:1;paint-order:stroke fill markers"
         id="rect11"
         width="54.146381"
         height="31.25"
         x="37.728619"
         y="73.0625" /><path
         style="fill:#63a2fa;fill-opacity:1;stroke:none;stroke-width:8;stroke-linecap:round;stroke-linejoin:round;stroke-dasharray:none;stroke-opacity:1;paint-order:stroke fill markers"
         d="M 82.630044,78.684335 C 82.125,86.875 81,99.25 80.125,104.5 l 23.5,-0.375 1.04276,-84.240001 -58.970984,2.651306 z"
         id="path11"
         inkscape:transform-center-x="-26.27138"
         inkscape:transform-center-y="-6.168084"
         sodipodi:nodetypes="cccccc" /><path
         style="fill:#ecd461;fill-opacity:1;stroke:none;stroke-width:8;stroke-linecap:round;stroke-linejoin:round;stroke-dasharray:none;stroke-opacity:1;paint-order:stroke fill markers"
         d="M 45.369956,78.684335 C 45.875,86.875 47,99.25 47.875,104.5 L 24.375,104.125 23.332238,64.523838 52.125,41.625 Z"
         id="path9" /><path
         style="fill:#e56868;fill-opacity:1;stroke:none;stroke-width:8;stroke-linecap:round;stroke-linejoin:round;stroke-dasharray:none;stroke-opacity:1;paint-order:stroke fill markers"
         d="M 64,41.291612 V 59.526376 L 44.307128,56.645909 c -7.341055,6.371918 -13.635955,13.09267 -20.61905,21.577779 L 22.804194,44.194174 68.589358,13.788582 94.663921,26.074563 C 83.549875,30.047346 71.199927,36.514029 64,41.291612 Z"
         id="path8"
         sodipodi:nodetypes="cccccccc" /></g></g></svg>
