<svg xmlns="http://www.w3.org/2000/svg" xmlns:xlink="http://www.w3.org/1999/xlink" height="128" width="128" xmlns:v="https://vecta.io/nano"><style><![CDATA[.J{stroke-linejoin:round}.K{stroke-width:4}.L{fill-opacity:1}.M{stroke-linecap:butt}.N{stroke-dasharray:none}]]></style><defs><pattern xlink:href="#B" preserveAspectRatio="xMidYMid" id="A" patternTransform="matrix(0.75,0,0,0.75,19,-4.5)"/><pattern patternUnits="userSpaceOnUse" width="10" height="10" preserveAspectRatio="xMidYMid" id="B" fill="#3a76c3"><g transform="scale(.1)"><circle cx="50" cy="50" r="25" stroke="none" paint-order="markers fill stroke" class="L"/><path d="M25 0A25 25 0 0 1 0 25 25 25 0 0 1-25 0 25 25 0 0 1 0-25 25 25 0 0 1 25 0zm100 0a25 25 0 0 1-25 25A25 25 0 0 1 75 0a25 25 0 0 1 25-25 25 25 0 0 1 25 25zM25 100a25 25 0 0 1-25 25 25 25 0 0 1-25-25A25 25 0 0 1 0 75a25 25 0 0 1 25 25zm100 0a25 25 0 1 1-50 0 25 25 0 1 1 50 0z" paint-order="markers fill stroke"/></g></pattern><filter id="C" x=".03" y=".005" width="1" height="1.05" color-interpolation-filters="sRGB"><feFlood flood-color="#646464" flood-opacity=".498"/><feComposite operator="in" in2="SourceGraphic"/><feOffset dy="4" dx="2"/><feComposite in="SourceGraphic"/></filter><clipPath id="D"><use xlink:href="#L" y="-3"/></clipPath><linearGradient id="E" x1="40" y1="66" x2="40" y2="67" gradientUnits="userSpaceOnUse"><stop offset="0" stop-color="#3a76c3"/><stop offset="1" stop-color="#646464"/></linearGradient><clipPath id="F"><path d="M36.527 67.887c-2.846-.086-7.889.732-9.443 1.148-1.227 14.021 3.488 25.151 15.969 32.191 6.487 3.659 13.722 5.51 20.959 5.518v-4.002c-6.556-.008-13.114-1.683-18.994-5-10.401-5.476-14.364-14.693-14.33-25.574.899-.287 3.048-.427 3.73-.437-.016 9.834 3.865 17.686 12.564 22.527 5.291 2.944 11.156 4.477 17.031 4.484 5.875-.008 11.74-1.54 17.031-4.484 8.699-4.841 12.58-12.694 12.564-22.527.682.01 2.831.15 3.73.438.033 10.881-3.929 20.098-14.33 25.574-5.881 3.317-12.438 4.992-18.994 5v4.002c7.237-.008 14.472-1.858 20.959-5.518 12.481-7.041 17.195-18.17 15.969-32.191-1.776-.476-8.11-1.476-10.512-1.053-1.172 11.839-3.494 18.254-11.352 22.791-4.64 2.679-9.871 3.959-15.066 3.967-5.195-.007-10.426-1.288-15.066-3.967-7.858-4.537-10.179-10.952-11.352-22.791a7.64 7.64 0 0 0-1.068-.096z" fill="#d5425d" paint-order="fill markers stroke" class="J"/></clipPath><clipPath id="G"><path d="M29 70c0 16.528 3.466 31.611 35 35 31.534-3.389 35-18.472 35-35h-7c-1.099 13.69-5.822 25.315-28 27-22.178-1.685-26.901-13.31-28-27z" fill="#b9a400" stroke="none" stroke-opacity="1" paint-order="fill markers stroke" class="J K L M N"/></clipPath><clipPath id="H"><circle r="60" cy="64" cx="64" opacity="1" fill="#d4d4d4" fill-rule="nonzero" stroke="none" stroke-miterlimit="4" stroke-dashoffset="0" stroke-opacity="1" paint-order="fill markers stroke" class="J K L M N"/></clipPath><path id="I" d="M37.057 51.547c1.594 3.305 2.899 17.571 1.653 20.964z"/><path id="J" d="M26.959 52.726c2.707-.723 6.217-1.043 10.098-1.178-1.941 5.073-1.388 15.891 1.653 20.964-3.772.79-7.695.993-9.833.692-2.84-3.878-4.234-16.524-1.919-20.478z"/><path id="K" d="M26.149 86.648L37.21 97.845c3.746-2.877 7.164-6.191 9.413-9.413l-7.417-26.241-17.938 4.83z"/></defs><circle r="60" cy="64" cx="64" fill="#d4d4d4" paint-order="fill markers stroke"/><g clip-path="url(#H)"><g filter="url(#C)"><path d="M54.111 100c.216 7.999 1.037 18.015 1.889 25l8 1 8-1c.851-6.985 1.673-17.001 1.889-25H64h-9.889z" fill="#6cd25c" stroke="#57985d" paint-order="fill markers stroke" class="J K"/><g fill="#ecd461" stroke="#b9a400" class="J K"><use xlink:href="#I" paint-order="fill markers stroke"/><use xlink:href="#J" paint-order="fill markers stroke"/></g><g transform="matrix(-1 0 0 1 128 0)" fill="#e56868" stroke="#d5425d" class="J K"><use xlink:href="#I" paint-order="fill markers stroke"/><use xlink:href="#J" paint-order="fill markers stroke"/></g><path id="L" d="m 64,19.5 c -12.240772,0 -21.102421,7.908746 -22.095278,20.109186 -0.738413,9.07375 2.107109,23.304168 3.383607,30.96316 C 47.070391,81.264719 53.559774,87.501953 64,87.501953 c 10.440226,0 16.929609,-6.237234 18.711671,-16.929607 1.276498,-7.658992 4.122019,-21.88941 3.383607,-30.96316 C 85.102421,27.408746 76.240772,19.5 64,19.5 Z" fill="none" stroke="url(#E)" stroke-width="8" paint-order="stroke markers fill" class="J"/><g clip-path="url(#D)" transform="translate(0 3)"><path d="M36 91.55h56V62.191H36z" fill="#e2e2e2" stroke="#657580" stroke-width="8" paint-order="stroke markers fill" class="J"/><path d="M36 12h56v50.191c-20.978 14.205-39.678 11.491-56 0z" fill="#63a2fa" paint-order="stroke markers fill"/><path d="M48.625 66.191c.911 10.417 6.625 14.71 11 14.71s7.313-3.414 7.313-9.025" fill="#fff" paint-order="stroke markers fill"/><path d="M49.486 67.104c-7.283-32.855-1.452-44.993 9.639-45.854 9.379-.727 10.5 19.346 6.375 49.54" fill="#97caf7" paint-order="stroke markers fill"/><path d="M36 12h56v50.191c-19.951 12.631-38.377 10.266-56 0z" fill="url(#A)" paint-order="stroke markers fill"/></g><g clip-path="url(#G)" fill="#ecd461"><path d="M30.238 64.605h73.556v44.3H30.238z" fill="#e56868" paint-order="fill markers stroke"/><use xlink:href="#K" paint-order="fill markers stroke"/></g><g clip-path="url(#F)"><path d="M26.149 64.391h77.644v44.514H26.149z" fill="#d5425d" paint-order="fill markers stroke"/><use xlink:href="#K" fill="#b9a400" paint-order="fill markers stroke"/></g><path d="M39.053 57.488c-1.04.485-2.188 3.135-1.902 5.262l.496 3.695c.635 4.728 3.13 7.955 8.799 11.121 4.747 2.445 10.702 3.633 17.555 3.633s12.807-1.188 17.555-3.633c5.668-3.166 8.164-6.393 8.799-11.121l.496-3.695c.286-2.127-.863-4.777-1.902-5.262l-.32 2.1c-.249 1.312-.79 2.169-1.35 2.807-3.47 3.952-11.975 8.402-23.277 8.402s-19.807-4.45-23.277-8.402c-.56-.637-1.101-1.495-1.35-2.807l-.32-2.1z" fill="#373737" paint-order="stroke fill markers"/><path d="M40.008 64.391l.244 1.867C41.894 72.385 51.222 78.199 64 78.199s22.106-5.814 23.748-11.941l.244-1.867C85.823 69.041 77.437 73.797 64 73.797s-21.823-4.755-23.992-9.406z" fill="#4c4c4c" paint-order="stroke fill markers"/></g></g><circle r="60" cy="64" cx="64" fill="none" stroke="#646464" paint-order="fill markers stroke" class="J K"/></svg>
