<?xml version="1.0" encoding="UTF-8" standalone="no"?>
<!-- Created with Inkscape (http://www.inkscape.org/) -->

<svg
   enable-background="new"
   inkscape:export-ydpi="384"
   inkscape:export-xdpi="384"
   inkscape:export-filename="..\app\src\main\res\drawable-nodpi\iconrequest.png"
   sodipodi:docname="iconrequest.svg"
   inkscape:version="1.3 (0e150ed6c4, 2023-07-21)"
   id="svg8"
   version="1.1"
   viewBox="0 0 128 128"
   height="128"
   width="128"
   xml:space="preserve"
   xmlns:inkscape="http://www.inkscape.org/namespaces/inkscape"
   xmlns:sodipodi="http://sodipodi.sourceforge.net/DTD/sodipodi-0.dtd"
   xmlns:xlink="http://www.w3.org/1999/xlink"
   xmlns="http://www.w3.org/2000/svg"
   xmlns:svg="http://www.w3.org/2000/svg"
   xmlns:rdf="http://www.w3.org/1999/02/22-rdf-syntax-ns#"
   xmlns:cc="http://creativecommons.org/ns#"
   xmlns:dc="http://purl.org/dc/elements/1.1/"><sodipodi:namedview
     id="base"
     pagecolor="#ffffff"
     bordercolor="#666666"
     borderopacity="1.0"
     inkscape:pageopacity="0.0"
     inkscape:pageshadow="2"
     inkscape:zoom="5.6568542"
     inkscape:cx="66.468037"
     inkscape:cy="92.630988"
     inkscape:document-units="px"
     inkscape:current-layer="g40"
     showgrid="true"
     units="px"
     inkscape:pagecheckerboard="true"
     borderlayer="true"
     gridtolerance="10"
     inkscape:snap-smooth-nodes="true"
     inkscape:snap-text-baseline="true"
     inkscape:snap-page="true"
     showguides="true"
     inkscape:guide-bbox="true"
     inkscape:snap-object-midpoints="true"
     inkscape:snap-center="true"
     inkscape:snap-global="true"
     inkscape:lockguides="false"
     inkscape:snap-bbox="true"
     inkscape:bbox-nodes="true"
     inkscape:showpageshadow="0"
     inkscape:deskcolor="#d1d1d1"
     inkscape:window-width="1858"
     inkscape:window-height="1057"
     inkscape:window-x="54"
     inkscape:window-y="-8"
     inkscape:window-maximized="1"><inkscape:grid
       enabled="false"
       empspacing="4"
       id="grid4131"
       type="xygrid"
       spacingx="8"
       spacingy="8"
       originx="0"
       originy="0"
       units="px"
       visible="true" /><inkscape:grid
       empspacing="4"
       id="grid4167"
       type="xygrid"
       originx="0"
       originy="0"
       spacingy="1"
       spacingx="1"
       units="px"
       visible="true" /></sodipodi:namedview><defs
     id="defs2"><filter
       id="filter35"
       inkscape:label="Drop Shadow red"
       style="color-interpolation-filters:sRGB"
       x="-0.089999999999999997"
       y="-0.040000000000000001"
       width="1.25"
       height="1.1599999999999999"
       inkscape:auto-region="false"><feFlood
         id="feFlood34"
         result="flood"
         flood-color="rgb(55,55,55)"
         flood-opacity="0.498039" /><feComposite
         id="feComposite34"
         result="composite1"
         operator="in"
         in2="SourceGraphic"
         in="flood" /><feOffset
         id="feOffset34"
         result="offset"
         dy="4"
         dx="2" /><feComposite
         id="feComposite35"
         result="composite2"
         operator="over"
         in2="offset"
         in="SourceGraphic" /></filter></defs><metadata
     id="metadata5"><rdf:RDF><cc:Work
         rdf:about=""><dc:format>image/svg+xml</dc:format><dc:type
           rdf:resource="http://purl.org/dc/dcmitype/StillImage" /></cc:Work></rdf:RDF></metadata><style
     id="style2296">.B{fill:#fc9abf}.C{fill:#ffc7df}.D{fill:#ed84cb}.E{fill-opacity:1}.F{stroke:none}</style><g
     style="display:inline"
     inkscape:label="email"
     id="g2405"
     inkscape:groupmode="layer"><circle
       r="60"
       cy="64"
       cx="64"
       id="circle2383"
       style="display:inline;opacity:1;vector-effect:none;fill:#4c4c4c;fill-opacity:1;fill-rule:nonzero;stroke:#373737;stroke-width:4;stroke-linecap:butt;stroke-linejoin:round;stroke-miterlimit:4;stroke-dasharray:none;stroke-dashoffset:0;stroke-opacity:1;paint-order:fill markers stroke" /><g
       id="path15" /><g
       id="g40"
       transform="translate(152,-101.2749)"
       style="display:inline;filter:url(#filter35)"><path
         id="path1"
         style="fill:#6cd25c;fill-opacity:1;stroke:#57985d;stroke-width:8;stroke-linecap:round;stroke-linejoin:round;stroke-opacity:1;paint-order:stroke fill markers"
         d="m -88,163.2749 c -7.999992,0 -15.00001,0 -22,1 0.38715,23.99892 1.75587,28.44898 6,33 3,3.21692 7.000009,6 16,6 8.999991,0 12.876522,-2.65067 16,-6 4.244129,-4.55102 5.61285,-9.00108 6,-33 -6.999993,-1 -14.000008,-1 -22,-1 z"
         sodipodi:nodetypes="scssscs" /><path
         id="path25"
         style="fill:#6cd25c;stroke:#57985d;stroke-width:8;stroke-linecap:round;stroke-linejoin:round;paint-order:stroke fill markers"
         d="m -111.16064,162.52682 c -0.67823,-2.22643 -1.04299,-4.58907 -1.04299,-7.03675 0,-13.34106 10.83633,-24.15613 24.20363,-24.15613 13.3673,0 24.20363,10.81507 24.20363,24.15613 0,2.44768 -0.36476,4.81032 -1.04299,7.03675 -6.02368,-0.60949 -12.24584,-1.26541 -23.16064,-1.26541 -10.914805,0 -17.13696,0.65592 -23.16064,1.26541 z"
         sodipodi:nodetypes="cssscsc" /><ellipse
         style="fill:#b7e68f;fill-opacity:1;stroke:none;stroke-width:3.99999;stroke-linecap:round;stroke-linejoin:round;stroke-opacity:1;paint-order:stroke fill markers"
         id="path31"
         cx="-105.06451"
         cy="125.82198"
         rx="3.0604179"
         ry="1.8327074"
         transform="matrix(0.99576845,-0.09189774,0.09225648,0.99573528,0,0)" /><use
         x="0"
         y="0"
         xlink:href="#g33"
         inkscape:transform-center-x="-9.9170183"
         inkscape:transform-center-y="-12.950148"
         id="use33"
         transform="matrix(-1,0,0,1,-176,0)"
         style="stroke-width:0.817671" /><g
         id="g33"
         inkscape:transform-center-x="9.9170182"
         inkscape:transform-center-y="-12.950148"
         transform="matrix(1.2241874,0,0,1.2217846,19.728494,-23.221786)"
         style="stroke-width:0.817671"><path
           style="color:#000000;fill:#57985d;fill-opacity:1;stroke:#57985d;stroke-width:3.27068;stroke-linecap:butt;stroke-linejoin:round;stroke-dasharray:none;stroke-opacity:1;paint-order:stroke fill markers"
           d="m -96.374416,127.21208 c -0.705924,-1.32984 -1.411847,-2.61399 -2.117771,-3.86052 -0.522901,-0.92334 -1.369932,-1.6191 -2.388673,-1.91601 -1.01834,-0.2968 -2.11284,-0.17782 -3.04297,0.33203 -1.9377,1.06214 -2.40607,3.38055 -1.58398,5.43164 0.66603,1.66172 1.59593,3.10354 2.50361,4.56388"
           id="path3"
           sodipodi:nodetypes="cssssc" /><path
           style="color:#000000;fill:#6cd25c;stroke-width:0.817671;stroke-linecap:round;stroke-linejoin:round;-inkscape-stroke:none;paint-order:stroke fill markers"
           d="m -101.43945,123.35547 c -0.50915,-0.14847 -1.05639,-0.0888 -1.52149,0.16601 -0.9686,0.53077 -1.21233,1.69307 -0.79297,2.71485 0.8106,1.97508 1.90101,3.72632 3,5.4707 0.58859,0.93424 1.7466,1.3218 2.714848,0.79102 0.968513,-0.53093 1.280246,-1.72366 0.792968,-2.71485 -0.926563,-1.88476 -1.897673,-3.7324 -2.999996,-5.4707 -0.28386,-0.44763 -0.6845,-0.80864 -1.19336,-0.95703 z"
           id="path6"
           sodipodi:nodetypes="ssssssss" /><path
           style="fill:#3c3c3c;fill-opacity:1;stroke:none;stroke-width:3.27068;stroke-linecap:round;stroke-linejoin:round;stroke-opacity:1;paint-order:stroke fill markers"
           d="m -98.7,136.2749 c 0,0.94281 0.757191,1.7 1.7,1.7 0.942809,0 1.7,-0.75719 1.7,-1.7 0,-0.94281 -0.757191,-1.7 -1.7,-1.7 -0.942809,0 -1.7,0.75719 -1.7,1.7 z"
           id="path33"
           sodipodi:nodetypes="zzzzz" /></g><path
         style="color:#000000;fill:#ffffff;stroke:#687f8a;stroke-width:4;stroke-linejoin:round;stroke-dasharray:none;stroke-opacity:1;paint-order:stroke fill markers"
         d="m -75.761142,176.37041 c -0.266106,3.87661 -1.44552,7.96871 -5.331753,10.21242 -3.886233,2.24372 -8.650654,2.54997 -12.717652,0.6535 l -1.05664,2.26562 c 4.803877,2.24009 10.433931,1.89519 15.024292,-0.75505 4.590361,-2.65025 6.20691,-7.72875 6.262628,-12.29032 -0.798289,-0.10006 -1.548556,-0.15209 -2.180875,-0.0862 z"
         id="path8"
         sodipodi:nodetypes="csccscc" /><path
         style="color:#000000;fill:#eaeaea;stroke:#687f8a;stroke-width:4;stroke-linecap:round;stroke-linejoin:round;stroke-dasharray:none;stroke-opacity:1;paint-order:stroke fill markers"
         d="m -88,174.7749 -3.092621,3.5335 c -2.049419,4.30635 -4.756984,10.12644 -6.342572,14.43279 -0.1036,0.78523 -0.05206,1.48181 0.104812,2.11821 0.669432,-0.28439 1.183941,-0.77535 1.63073,-1.35659 1.787706,-3.60825 4.071783,-8.78001 5.490844,-12.49359"
         id="path7"
         sodipodi:nodetypes="cccccc" /><use
         x="0"
         y="0"
         xlink:href="#path7"
         id="use8"
         transform="matrix(-1,0,0,1,-176,0)" /><path
         id="rect3"
         style="fill:#ecd461;stroke:#b9a400;stroke-width:4;stroke-linecap:round;stroke-linejoin:round;paint-order:stroke fill markers;stroke-dasharray:none"
         d="m -89,168.2749 v 3.00195 c -1.450841,0.008 -2.467618,0.0516 -2.707031,0.29102 -0.252437,0.25244 -0.627033,4.78703 0,5.41406 0.292249,0.29225 2.703211,3.29297 3.707031,3.29297 1,0 3.414782,-3.00072 3.707031,-3.29297 0.627036,-0.62704 0.252433,-5.16163 0,-5.41406 -0.239413,-0.23941 -1.25619,-0.28319 -2.707031,-0.29102 v -3.00195 z"
         sodipodi:nodetypes="ccsssssccc" /><circle
         style="fill:#3c3c3c;fill-opacity:1;stroke:none;stroke-width:8;stroke-linecap:round;stroke-linejoin:round;stroke-opacity:1;paint-order:stroke fill markers"
         id="path4"
         cx="-88"
         cy="174.7749"
         r="1.4999988" /></g></g><style
     id="style2296-1">.B{fill:#fc9abf}.C{fill:#ffc7df}.D{fill:#ed84cb}.E{fill-opacity:1}.F{stroke:none}</style></svg>
