<?xml version="1.0" encoding="UTF-8" standalone="no"?>
<!-- Created with Inkscape (http://www.inkscape.org/) -->

<svg
   enable-background="new"
   inkscape:export-ydpi="384"
   inkscape:export-xdpi="384"
   inkscape:export-filename="..\app\src\main\res\drawable-nodpi\kanji_dojo.png"
   sodipodi:docname="kanji_dojo.svg"
   inkscape:version="1.3 (0e150ed6c4, 2023-07-21)"
   id="svg8"
   version="1.1"
   viewBox="0 0 128 128"
   height="128"
   width="128"
   xml:space="preserve"
   xmlns:inkscape="http://www.inkscape.org/namespaces/inkscape"
   xmlns:sodipodi="http://sodipodi.sourceforge.net/DTD/sodipodi-0.dtd"
   xmlns="http://www.w3.org/2000/svg"
   xmlns:svg="http://www.w3.org/2000/svg"
   xmlns:rdf="http://www.w3.org/1999/02/22-rdf-syntax-ns#"
   xmlns:cc="http://creativecommons.org/ns#"
   xmlns:dc="http://purl.org/dc/elements/1.1/"><sodipodi:namedview
     id="base"
     pagecolor="#ffffff"
     bordercolor="#666666"
     borderopacity="1.0"
     inkscape:pageopacity="0.0"
     inkscape:pageshadow="2"
     inkscape:zoom="4"
     inkscape:cx="56.875"
     inkscape:cy="52.125"
     inkscape:document-units="px"
     inkscape:current-layer="g4122"
     showgrid="false"
     units="px"
     inkscape:pagecheckerboard="true"
     borderlayer="true"
     gridtolerance="10"
     inkscape:snap-smooth-nodes="true"
     inkscape:snap-text-baseline="true"
     inkscape:snap-page="true"
     showguides="true"
     inkscape:guide-bbox="true"
     inkscape:snap-object-midpoints="true"
     inkscape:snap-center="true"
     inkscape:snap-global="true"
     inkscape:lockguides="false"
     inkscape:snap-bbox="true"
     inkscape:bbox-nodes="true"
     inkscape:showpageshadow="0"
     inkscape:deskcolor="#d1d1d1"
     inkscape:window-width="1124"
     inkscape:window-height="1048"
     inkscape:window-x="55"
     inkscape:window-y="0"
     inkscape:window-maximized="0"><inkscape:grid
       enabled="false"
       empspacing="4"
       id="grid4131"
       type="xygrid"
       spacingx="8"
       spacingy="8"
       originx="0"
       originy="0"
       units="px"
       visible="false" /><inkscape:grid
       empspacing="4"
       id="grid4167"
       type="xygrid"
       originx="0"
       originy="0"
       spacingy="1"
       spacingx="1"
       units="px"
       visible="false" /></sodipodi:namedview><defs
     id="defs2"><clipPath
       clipPathUnits="userSpaceOnUse"
       id="clipPath3287"><circle
         r="60"
         cy="64"
         cx="64"
         id="circle3289"
         style="display:inline;opacity:1;vector-effect:none;fill:none;fill-opacity:1;fill-rule:nonzero;stroke:#373737;stroke-width:4;stroke-linecap:butt;stroke-linejoin:round;stroke-miterlimit:4;stroke-dasharray:none;stroke-dashoffset:0;stroke-opacity:1;paint-order:fill markers stroke" /></clipPath><filter
       id="filter265"
       inkscape:label="Drop Shadow red"
       style="color-interpolation-filters:sRGB"
       x="-0.058213996"
       y="-0.075108908"
       width="1.145535"
       height="1.2253267"><feFlood
         id="feFlood264"
         result="flood"
         flood-color="rgb(116,116,116)"
         flood-opacity="0.498039" /><feComposite
         id="feComposite264"
         result="composite1"
         operator="in"
         in2="SourceGraphic"
         in="flood" /><feOffset
         id="feOffset264"
         result="offset"
         dy="4"
         dx="2" /><feComposite
         id="feComposite265"
         result="composite2"
         operator="over"
         in2="offset"
         in="SourceGraphic" /></filter></defs><metadata
     id="metadata5"><rdf:RDF><cc:Work
         rdf:about=""><dc:format>image/svg+xml</dc:format><dc:type
           rdf:resource="http://purl.org/dc/dcmitype/StillImage" /></cc:Work></rdf:RDF></metadata><style
     id="style2296">.B{fill:#fc9abf}.C{fill:#ffc7df}.D{fill:#ed84cb}.E{fill-opacity:1}.F{stroke:none}</style><g
     inkscape:groupmode="layer"
     id="g4122"
     inkscape:label="0h n0"
     style="display:inline"><g
       clip-path="url(#clipPath3287)"
       id="g4118"
       inkscape:groupmode="maskhelper"
       style="fill:#ffffff;fill-opacity:1"><g
         id="g4116"
         style="fill:#ffffff;fill-opacity:1"><circle
           style="display:inline;opacity:1;vector-effect:none;fill:#ffffff;fill-opacity:1;fill-rule:nonzero;stroke:none;stroke-width:4;stroke-linecap:butt;stroke-linejoin:round;stroke-miterlimit:4;stroke-dasharray:none;stroke-dashoffset:0;stroke-opacity:1;paint-order:fill markers stroke"
           id="circle4106"
           cx="64"
           cy="64"
           r="60" /></g></g><circle
       r="60"
       cy="64"
       cx="64"
       id="circle4120"
       style="display:inline;opacity:1;vector-effect:none;fill:none;fill-opacity:1;fill-rule:nonzero;stroke:#747474;stroke-width:4;stroke-linecap:butt;stroke-linejoin:round;stroke-miterlimit:4;stroke-dasharray:none;stroke-dashoffset:0;stroke-opacity:1;paint-order:fill markers stroke" /><g
       id="text1"
       style="font-size:56px;line-height:1;font-family:'FOT-Yuruka Std';-inkscape-font-specification:'FOT-Yuruka Std';text-align:center;letter-spacing:0px;text-anchor:middle;white-space:pre;fill:#ff8090;stroke:#d5425d;stroke-width:8;stroke-linejoin:round;paint-order:stroke fill markers;filter:url(#filter265)"
       aria-label="字."><path
         d="m 82.100002,81.499998 c 0.672,0 1.064,-0.448 1.064,-1.064 l 0.224,-7.28 c 0,-0.672 -0.392,-1.064 -1.064,-1.064 l -14.56,-0.28 c 2.072,-1.904 4.424,-4.312 6.272,-6.44 0.56,-0.672 0.84,-1.512 0.84,-2.408 0,-0.224 0,-0.448 -0.056,-0.672 l -0.392,-3.192 5.488,0.84 c 0.336,0.056 0.616,0.056 0.84,0.056 1.848,0 2.688,-1.12 2.912,-2.576 l 1.232,-8.176 c 0.112,-0.616 0.168,-1.232 0.168,-1.792 0,-3.528 -1.904,-5.656 -5.656,-5.656 h -0.504 l -16.632,0.728 -0.896,-4.2 c -0.168,-0.672 -0.616,-0.952 -1.344,-0.952 h -0.336 l -11.088,1.568 c -0.672,0.112 -1.12,0.56 -1.12,1.176 0,0.112 0.056,0.224 0.056,0.336 l 0.616,2.744 -2.912,0.112 -8.288,-1.68 c -0.112,0 -0.28,-0.056 -0.392,-0.056 -0.672,0 -1.232,0.392 -1.4,1.008 l -3.416,12.88 c -0.056,0.28 -0.112,0.56 -0.112,0.84 0,0.784 0.392,1.288 1.12,1.456 l 8.344,1.736 c 0.168,0.056 0.392,0.056 0.56,0.056 0.336,0 0.672,-0.056 1.008,-0.168 l 0.504,6.328 c 0.056,0.56 0.336,0.896 0.952,0.896 h 0.168 l 16.464,-1.176 c -0.896,1.12 -3.36,3.64 -5.712,6.104 l -19.544,-0.392 c -0.728,0 -1.12,0.224 -1.12,1.064 l -0.112,7.28 c 0,0.616 0.224,1.064 1.008,1.064 l 20.048,0.392 0.112,1.064 v 0.224 c 0,1.064 -0.672,2.352 -2.464,4.48 -0.224,0.28 -0.336,0.56 -0.336,0.784 0,0.504 0.336,0.84 0.84,0.952 l 8.904,2.016 c 0.448,0.112 0.952,0.168 1.4,0.168 1.176,0 2.24,-0.392 2.912,-1.624 1.232,-2.128 1.848,-3.584 1.848,-4.816 v -0.336 l -0.224,-2.632 z m -11.704,-25.256 -26.376,1.624 1.232,-5.376 26.544,-1.176 z"
         id="path2" /><path
         style="font-weight:bold;font-family:Mikado;-inkscape-font-specification:'Mikado Bold'"
         d="m 100.356,80.211998 c 0,-4.312 -2.687998,-5.768 -5.319998,-5.88 -4.368,-0.28 -6.72,2.128 -6.72,6.048 0,3.472 2.688,5.768 5.264,5.88 4.368,0.112 6.775998,-2.184 6.775998,-6.048 z"
         id="path3" /></g></g></svg>
