<?xml version="1.0" encoding="UTF-8" standalone="no"?>
<svg
   height="128"
   width="128"
   version="1.1"
   id="svg2"
   sodipodi:docname="karma_fw.svg"
   inkscape:version="1.3 (0e150ed6c4, 2023-07-21)"
   inkscape:export-filename="..\app\src\main\res\drawable-nodpi\karma_fw.png"
   inkscape:export-xdpi="384"
   inkscape:export-ydpi="384"
   xml:space="preserve"
   xmlns:inkscape="http://www.inkscape.org/namespaces/inkscape"
   xmlns:sodipodi="http://sodipodi.sourceforge.net/DTD/sodipodi-0.dtd"
   xmlns="http://www.w3.org/2000/svg"
   xmlns:svg="http://www.w3.org/2000/svg"><defs
     id="defs2"><inkscape:perspective
       sodipodi:type="inkscape:persp3d"
       inkscape:vp_x="-60 : 21.333333 : 0"
       inkscape:vp_y="0 : 81.333333 : 0"
       inkscape:vp_z="63.679754 : 0 : 0"
       inkscape:persp3d-origin="64 : 42.666667 : 1"
       id="perspective22" /><inkscape:path-effect
       effect="bspline"
       id="path-effect32"
       is_visible="true"
       lpeversion="1.3"
       weight="33.333333"
       steps="2"
       helper_size="0"
       apply_no_weight="true"
       apply_with_weight="true"
       only_selected="false"
       uniform="false" /><inkscape:path-effect
       effect="spiro"
       id="path-effect28"
       is_visible="true"
       lpeversion="1" /></defs><sodipodi:namedview
     id="namedview2"
     pagecolor="#ffffff"
     bordercolor="#666666"
     borderopacity="1.0"
     inkscape:showpageshadow="2"
     inkscape:pageopacity="0.0"
     inkscape:pagecheckerboard="0"
     inkscape:deskcolor="#d1d1d1"
     inkscape:zoom="3.8528"
     inkscape:cx="58.528862"
     inkscape:cy="35.688331"
     inkscape:window-width="1920"
     inkscape:window-height="1057"
     inkscape:window-x="-8"
     inkscape:window-y="-8"
     inkscape:window-maximized="1"
     inkscape:current-layer="g49"
     showguides="false"><sodipodi:guide
       position="64,126"
       orientation="1,0"
       id="guide33"
       inkscape:locked="false" /><sodipodi:guide
       position="46.165819,70.150946"
       orientation="0,-1"
       id="guide36"
       inkscape:locked="false" /></sodipodi:namedview><circle
     r="60"
     cy="64"
     cx="64"
     fill="#8af19d"
     paint-order="fill markers stroke"
     stroke="#00c853"
     stroke-width="4"
     id="circle1"
     style="display:inline;fill:#f8c365;stroke:#f08117" /><path
     id="path5"
     style="color:#000000;opacity:0.5;fill:#f08117;fill-rule:evenodd;stroke-linecap:round;stroke-linejoin:round;-inkscape-stroke:none;paint-order:stroke fill markers"
     d="m 53.529297,23.201172 c -4.303796,0 -16.680345,5.690792 -20.091797,11.599609 -2.488965,4.311021 -3.273294,23.988365 -2.367188,38.072266 -1.981778,0.42334 -3.611515,1.663775 -4.853515,3.037109 -1.671829,1.848615 -2.916916,4.192675 -3.804688,6.914063 -1.081381,3.314854 -1.453947,6.677257 -1.142578,9.74414 0.311371,3.066882 1.137987,6.125274 4.001953,8.138671 a 4.0004,4.0004 0 0 0 0.002,0.002 c 1.432162,1.00659 3.364907,1.4272 5.023437,1.15234 1.65853,-0.27485 3.013732,-1.07226 4.138672,-2.039057 2.168949,-1.86405 3.688045,-4.472196 4.763672,-7.626954 10.957283,8.270471 33.492002,20.603521 39.271484,20.603521 4.303782,0 16.680343,-5.6908 20.091797,-11.59961 3.663854,-6.345987 3.625614,-45.720254 0,-52.000004 C 94.905823,42.865657 60.790855,23.201172 53.529297,23.201172 Z M 31.990234,81.505859 c 0.17544,1.066796 0.360683,2.075505 0.572266,2.894532 -0.02929,1.522666 -0.298194,3.286504 -0.845703,4.964843 -0.614795,1.884668 -1.450222,3.140731 -2.091797,3.873047 -0.169347,-0.357466 -0.285895,-0.387299 -0.396484,-1.476562 -0.179917,-1.772113 0.0508,-4.192029 0.789062,-6.455078 0.557799,-1.709881 1.332467,-3.026936 1.972656,-3.800782 z" /><g
     id="g49"
     inkscape:groupmode="layer"
     style="display:inline"><path
       d="m 34.901862,32.80041 c -2.853335,4.942127 -2.848278,43.066632 -2.37e-4,47.99959 2.848758,4.934202 35.86377,23.9996 41.568985,23.9996 3.754455,0 14.576348,-6.046976 16.627688,-9.600007 C 95.965673,90.233147 95.929949,52.104166 93.098532,47.2 90.234511,42.239364 57.199104,23.200402 51.529547,23.200402 c -3.75446,0 -14.576346,6.04698 -16.627685,9.600008 z"
       style="display:inline;opacity:1;fill:#f08117;fill-rule:evenodd;stroke:#74564d;stroke-width:8;stroke-linecap:round;stroke-linejoin:round;stroke-dasharray:none;stroke-opacity:1;paint-order:stroke fill markers"
       id="path36"
       sodipodi:nodetypes="sssssss"
       inkscape:label="path36" /><path
       id="path55"
       style="display:inline;opacity:1;fill:none;fill-rule:evenodd;stroke:#74564d;stroke-width:2;stroke-linecap:butt;stroke-linejoin:round;stroke-dasharray:none;stroke-opacity:1;paint-order:stroke fill markers"
       inkscape:label="path36"
       d="m 31.991791,41.60002 c 3.133634,5.427622 39.450147,26.39956 45.725884,26.39956 4.1299,0 16.033983,-6.651674 18.290457,-10.560008 M 31.991791,69.60002 c 3.133634,5.427622 39.450147,26.39956 45.725884,26.39956 4.1299,0 16.033983,-6.651674 18.290457,-10.560008 M 31.991791,55.60002 c 3.133634,5.427622 39.450147,26.39956 45.725884,26.39956 4.1299,0 16.033983,-6.651674 18.290457,-10.560008 M 41.49114,49.261269 c -0.279499,4.122851 -0.428243,8.909815 -0.446374,13.740271 m 0.352658,14.230735 c 0.288214,4.941824 0.868312,11.231316 1.997142,13.18651 M 64.651332,62.768409 c -0.27792,4.150516 -0.424154,8.963745 -0.438847,13.812426 m 0.361697,14.17977 c 0.291027,4.919624 0.870771,11.107445 1.98876,13.043855 m 7.150484,-72.187047 c -4.129902,0 -17.007301,8.014327 -19.263772,11.922654 -1.145468,1.98401 -1.713972,8.490108 -1.970672,12.685499 m -0.38066,13.661882 c -5.3e-5,4.695108 0.121838,9.73787 0.412523,14.264935" /><ellipse
       style="display:inline;opacity:1;fill:#74564d;fill-opacity:1;fill-rule:evenodd;stroke:none;stroke-width:2.03359;stroke-linecap:round;stroke-linejoin:round;stroke-dasharray:none;stroke-opacity:1;paint-order:stroke fill markers"
       id="path52"
       cx="53.862923"
       cy="56.242725"
       transform="matrix(0.96723904,0.25386735,0,1,0,0)"
       rx="5"
       ry="7" /><path
       id="path6"
       style="display:inline;opacity:1;fill:none;fill-rule:evenodd;stroke:#74564d;stroke-width:4;stroke-linecap:round;stroke-linejoin:round;stroke-dasharray:none;stroke-opacity:1;paint-order:stroke fill markers"
       inkscape:label="path36"
       d="m 52.098322,69.887448 c -4.2e-5,3.694413 0.07567,7.400081 0.225426,10.786433"
       sodipodi:nodetypes="cc" /></g><g
     id="g40"
     inkscape:label="key"
     style="display:inline;stroke:#52d348"
     transform="translate(-3.969123,1.337129)"><path
       d="m 34.815016,71.395486 c -2.41994,-0.24653 -5.139604,2.760721 -6.630859,7.332031 -1.819646,5.577922 -1.211915,11.563847 1.357422,13.370117 2.56952,1.805983 6.127635,-1.25195 7.947265,-6.830078 1.819645,-5.577922 1.211915,-11.563847 -1.357421,-13.370117 -0.406592,-0.285681 -0.849164,-0.454436 -1.316407,-0.501953 z"
       style="opacity:1;fill:none;fill-rule:evenodd;stroke:#52d348;stroke-width:8;stroke-linecap:round;stroke-linejoin:round;stroke-dasharray:none;paint-order:stroke fill markers"
       id="path38"
       sodipodi:nodetypes="cscccc" /><path
       style="opacity:1;fill:none;fill-rule:evenodd;stroke:#52d348;stroke-width:8;stroke-linecap:round;stroke-linejoin:round;stroke-dasharray:none;stroke-opacity:1;paint-order:stroke fill markers"
       d="M 38.53733,78.700658 53.533979,70.042334"
       id="path39"
       sodipodi:nodetypes="cc" /><path
       style="opacity:1;fill:none;fill-rule:evenodd;stroke:#52d348;stroke-width:6;stroke-linecap:round;stroke-linejoin:round;stroke-dasharray:none;stroke-opacity:1;paint-order:stroke fill markers"
       d="m 50.944727,71.53724 v 6.393097"
       id="path40"
       sodipodi:nodetypes="cc" /></g></svg>
