<?xml version="1.0" encoding="UTF-8" standalone="no"?>
<!-- Created with Inkscape (http://www.inkscape.org/) -->

<svg
   enable-background="new"
   inkscape:export-ydpi="384"
   inkscape:export-xdpi="384"
   inkscape:export-filename="..\app\src\main\res\drawable-nodpi\kde_connect.png"
   sodipodi:docname="kde_connect.svg"
   inkscape:version="1.3 (0e150ed6c4, 2023-07-21)"
   id="svg8"
   version="1.1"
   viewBox="0 0 128 128"
   height="128"
   width="128"
   xml:space="preserve"
   xmlns:inkscape="http://www.inkscape.org/namespaces/inkscape"
   xmlns:sodipodi="http://sodipodi.sourceforge.net/DTD/sodipodi-0.dtd"
   xmlns="http://www.w3.org/2000/svg"
   xmlns:svg="http://www.w3.org/2000/svg"
   xmlns:rdf="http://www.w3.org/1999/02/22-rdf-syntax-ns#"
   xmlns:cc="http://creativecommons.org/ns#"
   xmlns:dc="http://purl.org/dc/elements/1.1/"><sodipodi:namedview
     id="base"
     pagecolor="#ffffff"
     bordercolor="#666666"
     borderopacity="1.0"
     inkscape:pageopacity="0.0"
     inkscape:pageshadow="2"
     inkscape:zoom="2"
     inkscape:cx="4"
     inkscape:cy="119.5"
     inkscape:document-units="px"
     inkscape:current-layer="g1216"
     showgrid="false"
     units="px"
     inkscape:pagecheckerboard="true"
     borderlayer="true"
     gridtolerance="10"
     inkscape:snap-smooth-nodes="true"
     inkscape:snap-text-baseline="true"
     inkscape:snap-page="true"
     showguides="true"
     inkscape:guide-bbox="true"
     inkscape:snap-object-midpoints="true"
     inkscape:snap-center="true"
     inkscape:snap-global="true"
     inkscape:lockguides="false"
     inkscape:snap-bbox="true"
     inkscape:bbox-nodes="true"
     inkscape:showpageshadow="0"
     inkscape:deskcolor="#d1d1d1"
     inkscape:window-width="1852"
     inkscape:window-height="1057"
     inkscape:window-x="60"
     inkscape:window-y="-8"
     inkscape:window-maximized="1"><inkscape:grid
       enabled="false"
       empspacing="4"
       id="grid4131"
       type="xygrid"
       spacingx="8"
       spacingy="8"
       originx="0"
       originy="0"
       units="px"
       visible="false" /><inkscape:grid
       empspacing="4"
       id="grid4167"
       type="xygrid"
       originx="0"
       originy="0"
       spacingy="1"
       spacingx="1"
       units="px"
       visible="false" /></sodipodi:namedview><defs
     id="defs2"><filter
       id="filter265-4"
       inkscape:label="Drop Shadow red"
       style="color-interpolation-filters:sRGB"
       x="-0.069750797"
       y="-0.046431307"
       width="1.174377"
       height="1.1392939"><feFlood
         id="feFlood264-2"
         result="flood"
         flood-color="rgb(102,147,177)"
         flood-opacity="0.498039" /><feComposite
         id="feComposite264-9"
         result="composite1"
         operator="in"
         in2="SourceGraphic"
         in="flood" /><feOffset
         id="feOffset264-6"
         result="offset"
         dy="4"
         dx="2" /><feComposite
         id="feComposite265-0"
         result="composite2"
         operator="over"
         in2="offset"
         in="SourceGraphic" /></filter><clipPath
       clipPathUnits="userSpaceOnUse"
       id="clipPath9"><path
         style="fill:#ffffff;fill-opacity:1;stroke:#3c3c3c;stroke-width:4;stroke-linecap:round;stroke-linejoin:round;stroke-dasharray:none;stroke-opacity:1;paint-order:stroke markers fill"
         d="m 63.999999,42.404637 v 25.589478 h 24.744888 l 1.788989,20.448241 H 38.137706 V 39.08454 Z"
         id="path11" /></clipPath></defs><metadata
     id="metadata5"><rdf:RDF><cc:Work
         rdf:about=""><dc:format>image/svg+xml</dc:format><dc:type
           rdf:resource="http://purl.org/dc/dcmitype/StillImage" /></cc:Work></rdf:RDF></metadata><style
     id="style2296">.B{fill:#fc9abf}.C{fill:#ffc7df}.D{fill:#ed84cb}.E{fill-opacity:1}.F{stroke:none}</style><g
     inkscape:groupmode="layer"
     id="g1216"
     inkscape:label="settings"
     style="display:inline"><circle
       r="60"
       cy="64"
       cx="64"
       id="circle1210"
       style="display:inline;opacity:1;vector-effect:none;fill:#b5cee1;fill-opacity:1;fill-rule:nonzero;stroke:#6693b1;stroke-width:4;stroke-linecap:butt;stroke-linejoin:round;stroke-miterlimit:4;stroke-dasharray:none;stroke-dashoffset:0;stroke-opacity:1;paint-order:fill markers stroke" /><g
       id="g24"
       transform="translate(94.573747,126.06423)"
       style="filter:url(#filter265-4)"><g
         id="g195"
         transform="translate(101.40137,25.75)"><path
           id="path8"
           style="color:#000000;fill:none;fill-opacity:1;stroke:#6693b1;stroke-width:8;stroke-linejoin:round;stroke-opacity:1;paint-order:stroke fill markers;stroke-dasharray:none"
           d="m -131.97512,-130.88833 c -8.68974,0 -24.09086,0.91568 -25.92391,2.74873 -3.66612,3.66611 -3.66612,76.984343 0,80.650455 3.66611,3.666114 48.18173,3.666111 51.84785,0 3.6661,-3.666114 3.6661,-76.984345 0,-80.650455 -1.83306,-1.83306 -17.23419,-2.74873 -25.92394,-2.74873 z"
           sodipodi:nodetypes="assssa" /><path
           id="rect23"
           style="fill:#3c3c3c;fill-opacity:1;stroke-width:8;stroke-linejoin:round;paint-order:stroke fill markers"
           d="m -157.09983,-127.50739 c 0,0 16.73563,-1.46308 25.12473,-1.46308 8.38909,0 25.12471,1.46308 25.12471,1.46308 0,0 1.47006,26.82695 1.46308,40.253722 -0.007,13.053223 -1.46308,39.132331 -1.46308,39.132331 0,0 -16.73562,1.463076 -25.12471,1.463076 -8.3891,0 -25.12473,-1.463076 -25.12473,-1.463076 0,0 -1.47389,-27.027769 -1.46307,-40.554839 0.0102,-12.952924 1.46307,-38.831214 1.46307,-38.831214 z"
           sodipodi:nodetypes="cacacacac" /><path
           id="path19"
           style="color:#000000;fill:#ffffff;stroke-width:0.999998;stroke-linejoin:round;-inkscape-stroke:none;paint-order:stroke fill markers;fill-opacity:1"
           d="m -131.97512,-130.88833 c -12.04513,0 -24.09086,0.91568 -25.92391,2.74873 -3.66612,3.66611 -3.66612,76.984343 0,80.650455 3.66611,3.666114 48.18173,3.666111 51.84785,0 3.6661,-3.666114 3.6661,-76.984345 0,-80.650455 -1.83306,-1.83306 -13.8788,-2.74873 -25.92394,-2.74873 z m -4.65866,3.95573 c 0.21656,0.51473 0.18509,1.10046 0.33867,1.67366 0.61759,2.30486 1.93382,3.59934 4.31999,3.59934 2.38618,0 3.70242,-1.29448 4.32001,-3.59934 0.15358,-0.5732 0.12217,-1.15893 0.33866,-1.67366 9.21363,0.13973 17.40711,0.69615 18.3846,1.67366 2.28114,2.28113 2.28114,72.608005 0,74.889141 -2.28112,2.281134 -43.80539,2.281134 -46.08653,0 -2.28113,-2.281136 -2.28113,-72.608011 0,-74.889141 0.97751,-0.97751 9.17098,-1.5339 18.3846,-1.67366 z"
           sodipodi:nodetypes="sssssscssscssssc" /><g
           id="g196"
           transform="translate(-92,8)" /></g></g><g
       inkscape:groupmode="maskhelper"
       id="g9"
       clip-path="url(#clipPath9)"><path
         id="path1"
         style="fill:#ffffff;fill-opacity:1;stroke:none;stroke-width:4;stroke-linecap:round;stroke-linejoin:round;paint-order:stroke markers fill"
         d="m 63.999999,42.404637 c -1.199237,0 -2.398595,0.07671 -2.609715,0.230101 -0.246632,0.179188 -0.805329,3.055486 -1.199489,5.524713 -1.662413,0.394616 -3.252603,1.047682 -4.712524,1.935358 -2.021968,-1.464723 -4.44059,-3.095855 -4.741,-3.048275 -0.257746,0.04082 -1.160221,0.834434 -2.008263,1.682474 -0.84804,0.848042 -1.641651,1.750517 -1.682474,2.008263 -0.04758,0.30041 1.583552,2.719032 3.048275,4.741 -0.887676,1.459921 -1.540742,3.050111 -1.935358,4.712524 -2.469227,0.39416 -5.345525,0.952857 -5.524713,1.199489 -0.153388,0.21112 -0.230101,1.410419 -0.230101,2.609715 0,1.199296 0.07671,2.398594 0.230101,2.609714 0.179188,0.246633 3.055486,0.805329 5.524713,1.19949 0.394616,1.662412 1.047682,3.252603 1.935358,4.712523 -1.464723,2.021968 -3.095855,4.440591 -3.048275,4.741001 0.04082,0.257746 0.834434,1.16022 1.682474,2.008262 0.848042,0.84804 1.750517,1.641651 2.008263,1.682474 0.30041,0.04758 2.719032,-1.583552 4.741,-3.048274 1.459921,0.887676 3.050111,1.540741 4.712524,1.935357 0.39416,2.469227 0.952859,5.345521 1.199489,5.524712 0.21112,0.153389 1.410419,0.2301 2.609715,0.2301 1.199296,0 2.398594,-0.07671 2.609714,-0.2301 0.24663,-0.179191 0.805329,-3.055485 1.19949,-5.524712 1.662412,-0.394616 3.252603,-1.047681 4.712523,-1.935357 2.021968,1.464722 4.440591,3.095854 4.741001,3.048274 0.257746,-0.04082 1.16022,-0.834434 2.008262,-1.682474 0.84804,-0.848042 1.641651,-1.750516 1.682474,-2.008262 0.04758,-0.30041 -1.583552,-2.719033 -3.048274,-4.741001 0.887676,-1.45992 1.540741,-3.050111 1.935357,-4.712523 2.469227,-0.394161 5.345521,-0.95286 5.524712,-1.19949 0.153389,-0.21112 0.2301,-1.410418 0.2301,-2.609714 0,-1.199296 -0.07671,-2.398595 -0.2301,-2.609715 -0.178287,-0.24539 -3.026222,-0.79993 -5.487121,-1.193794 -0.400639,-1.671449 -1.062641,-3.269174 -1.961558,-4.734166 1.461785,-2.018805 3.084341,-4.425425 3.036884,-4.725053 -0.04082,-0.257746 -0.834434,-1.160221 -1.682474,-2.008263 -0.848042,-0.84804 -1.750516,-1.641651 -2.008262,-1.682474 -0.299629,-0.04746 -2.706249,1.5751 -4.725054,3.036884 -1.464992,-0.898917 -3.062717,-1.560919 -4.734166,-1.961558 -0.393863,-2.460899 -0.948404,-5.308836 -1.193794,-5.487122 -0.21112,-0.153388 -1.410477,-0.230101 -2.609714,-0.230101 z m 0,7.816614 A 13.778748,13.778748 0 0 1 77.778747,63.999999 13.778748,13.778748 0 0 1 63.999999,77.778747 13.778748,13.778748 0 0 1 50.221251,63.999999 13.778748,13.778748 0 0 1 63.999999,50.221251 Z" /></g><path
       d="m 60.897944,40.856748 c -0.539047,0.577551 0.0385,26.798365 0.308027,27.029386 0.269524,0.23102 5.929524,0.07701 6.622585,-0.115511 l -0.0385,-7.161632 c 0,0 2.502721,-2.810748 2.887755,-3.234285 0.808571,1.347619 5.698503,10.395917 6.23755,10.857958 1.232109,0.308027 6.353061,-1.578639 6.391564,-1.886666 -0.192517,-0.731565 -5.852516,-11.011972 -7.739183,-13.630204 0,0 7.508163,-9.664353 7.46966,-10.08789 -0.0385,-0.462041 -5.390476,-2.04068 -5.737007,-2.04068 -0.308027,0 -9.702856,11.628026 -9.702856,11.628026 0,0 0.423537,-11.397006 0.192517,-11.512516 -0.231021,-0.11551 -6.430068,-0.346531 -6.892109,0.154014 z"
       id="text8"
       style="font-weight:bold;font-size:38.5034px;line-height:1;font-family:Mikado;-inkscape-font-specification:'Mikado Bold';text-align:center;letter-spacing:0px;word-spacing:0px;text-anchor:middle;fill:#ffffff;stroke:#3c3c3c;stroke-width:4;stroke-linecap:round;stroke-linejoin:round;paint-order:stroke markers fill"
       aria-label="K" /></g><style
     id="style2296-59">.B{fill:#fc9abf}.C{fill:#ffc7df}.D{fill:#ed84cb}.E{fill-opacity:1}.F{stroke:none}</style><style
     id="style2296-4">.B{fill:#fc9abf}.C{fill:#ffc7df}.D{fill:#ed84cb}.E{fill-opacity:1}.F{stroke:none}</style><style
     id="style2296-5">.B{fill:#fc9abf}.C{fill:#ffc7df}.D{fill:#ed84cb}.E{fill-opacity:1}.F{stroke:none}</style></svg>
