<?xml version="1.0" encoding="UTF-8" standalone="no"?>
<!-- Created with Inkscape (http://www.inkscape.org/) -->

<svg
   enable-background="new"
   inkscape:export-ydpi="384"
   inkscape:export-xdpi="384"
   inkscape:export-filename="..\app\src\main\res\drawable-nodpi\kotatsu.png"
   sodipodi:docname="kotatsu.svg"
   inkscape:version="1.3 (0e150ed6c4, 2023-07-21)"
   id="svg8"
   version="1.1"
   viewBox="0 0 128 128"
   height="128"
   width="128"
   xml:space="preserve"
   xmlns:inkscape="http://www.inkscape.org/namespaces/inkscape"
   xmlns:sodipodi="http://sodipodi.sourceforge.net/DTD/sodipodi-0.dtd"
   xmlns:xlink="http://www.w3.org/1999/xlink"
   xmlns="http://www.w3.org/2000/svg"
   xmlns:svg="http://www.w3.org/2000/svg"
   xmlns:rdf="http://www.w3.org/1999/02/22-rdf-syntax-ns#"
   xmlns:cc="http://creativecommons.org/ns#"
   xmlns:dc="http://purl.org/dc/elements/1.1/"><sodipodi:namedview
     id="base"
     pagecolor="#ffffff"
     bordercolor="#666666"
     borderopacity="1.0"
     inkscape:pageopacity="0.0"
     inkscape:pageshadow="2"
     inkscape:zoom="2"
     inkscape:cx="30.75"
     inkscape:cy="146.5"
     inkscape:document-units="px"
     inkscape:current-layer="g1584"
     showgrid="true"
     units="px"
     inkscape:pagecheckerboard="true"
     borderlayer="true"
     gridtolerance="10"
     inkscape:snap-smooth-nodes="true"
     inkscape:snap-text-baseline="true"
     inkscape:snap-page="true"
     showguides="true"
     inkscape:guide-bbox="true"
     inkscape:snap-object-midpoints="true"
     inkscape:snap-center="true"
     inkscape:snap-global="true"
     inkscape:lockguides="false"
     inkscape:snap-bbox="true"
     inkscape:bbox-nodes="true"
     inkscape:showpageshadow="0"
     inkscape:deskcolor="#d1d1d1"
     inkscape:window-width="1852"
     inkscape:window-height="1057"
     inkscape:window-x="60"
     inkscape:window-y="-8"
     inkscape:window-maximized="1"><inkscape:grid
       enabled="false"
       empspacing="4"
       id="grid4131"
       type="xygrid"
       spacingx="8"
       spacingy="8"
       originx="0"
       originy="0"
       units="px"
       visible="true" /><inkscape:grid
       empspacing="4"
       id="grid4167"
       type="xygrid"
       originx="0"
       originy="0"
       spacingy="1"
       spacingx="1"
       units="px"
       visible="true" /></sodipodi:namedview><defs
     id="defs2"><filter
       id="filter265"
       inkscape:label="Drop Shadow red"
       style="color-interpolation-filters:sRGB"
       x="-0.014705882"
       y="-0.036097967"
       width="1.0490196"
       height="1.1082945"><feFlood
         id="feFlood264"
         result="flood"
         flood-color="rgb(58,118,195)"
         flood-opacity="0.498039" /><feComposite
         id="feComposite264"
         result="composite1"
         operator="in"
         in2="SourceGraphic"
         in="flood" /><feOffset
         id="feOffset264"
         result="offset"
         dy="4"
         dx="2" /><feComposite
         id="feComposite265"
         result="composite2"
         operator="over"
         in2="offset"
         in="SourceGraphic" /></filter><clipPath
       clipPathUnits="userSpaceOnUse"
       id="clipPath16"><use
         x="0"
         y="0"
         xlink:href="#circle1574"
         id="use16" /></clipPath></defs><metadata
     id="metadata5"><rdf:RDF><cc:Work
         rdf:about=""><dc:format>image/svg+xml</dc:format><dc:type
           rdf:resource="http://purl.org/dc/dcmitype/StillImage" /></cc:Work></rdf:RDF></metadata><style
     id="style2296">.B{fill:#fc9abf}.C{fill:#ffc7df}.D{fill:#ed84cb}.E{fill-opacity:1}.F{stroke:none}</style><g
     style="display:inline"
     inkscape:groupmode="layer"
     id="g1584"
     inkscape:label="message 3"><g
       inkscape:groupmode="maskhelper"
       id="g16"
       clip-path="url(#clipPath16)"><circle
         style="display:inline;opacity:1;vector-effect:none;fill:#6d9fe9;fill-opacity:1;fill-rule:nonzero;stroke:none;stroke-width:4;stroke-linecap:butt;stroke-linejoin:round;stroke-miterlimit:4;stroke-dasharray:none;stroke-dashoffset:0;stroke-opacity:1;paint-order:fill markers stroke"
         id="circle16"
         cx="64"
         cy="64"
         r="60" /><g
         id="g15"
         transform="translate(7,6)"
         style="display:inline;filter:url(#filter265)"><path
           id="path11"
           style="fill:#8c979d;fill-opacity:1;stroke:#636c7a;stroke-width:8;stroke-linecap:butt;stroke-linejoin:round;stroke-dasharray:none;stroke-opacity:1;paint-order:stroke fill markers"
           d="m 41.162109,37.19141 c -2.284049,2.23261 -4.38521,11.69216 1.460938,14.61523 0.934125,1.89637 1.029481,3.20747 1.460937,4.38477 C 37.531103,67.55205 23.718673,99.69412 24,116 c 0.382995,22.19862 14.254231,32 44,32 29.745769,0 43.61701,-9.80138 44,-32 0.28133,-16.30588 -13.531103,-48.44795 -20.083984,-59.80859 0.431456,-1.1773 0.526812,-2.4884 1.460937,-4.38477 5.846148,-2.92307 3.744987,-12.38262 1.460938,-14.61523 -2.29972,0.47985 -9.506741,4.58776 -6.804688,13.0625 C 87.634388,51.97091 87.061999,53.49021 86.798828,54 83.599097,52.89022 76.999991,50.90039 68,50.90039 59.000009,50.90039 52.400903,52.89022 49.201172,54 48.938001,53.49021 48.365612,51.97091 47.966797,50.25391 50.66885,41.77917 43.461829,37.67126 41.162109,37.19141 Z" /><path
           id="path12"
           style="fill:#2f424d;fill-opacity:1;stroke:none;stroke-width:8;stroke-linecap:round;stroke-linejoin:round;stroke-dasharray:none;stroke-opacity:1;paint-order:stroke fill markers"
           d="m 68,62 c -9.99999,0 -3.999996,6 0,6 3.999996,0 9.99999,-6 0,-6 z" /><circle
           style="fill:#ffffff;fill-opacity:1;stroke:none;stroke-width:7.99999;stroke-linecap:round;stroke-linejoin:round;stroke-dasharray:none;stroke-opacity:1;paint-order:stroke fill markers"
           id="circle12"
           cx="-84.795479"
           cy="63.265182"
           r="5.4375"
           transform="scale(-1,1)" /><circle
           style="fill:#2f424d;fill-opacity:1;stroke:none;stroke-width:8.00002;stroke-linecap:round;stroke-linejoin:round;stroke-dasharray:none;stroke-opacity:1;paint-order:stroke fill markers"
           id="circle13"
           cx="-84.795479"
           cy="63.265182"
           r="2.0625"
           transform="scale(-1,1)" /><path
           id="path14"
           style="fill:#eee1da;fill-opacity:1;stroke:none;stroke-width:4;stroke-linecap:round;stroke-linejoin:round;stroke-dasharray:none;stroke-opacity:1;paint-order:stroke fill markers"
           d="M 68,80 C 46.589943,80 29.8469,88.83388 29.238281,116.11133 28.888754,131.77665 40.690762,144 68,144 95.309238,144 107.11125,131.77665 106.76172,116.11133 106.1531,88.83388 89.410057,80 68,80 Z" /><circle
           style="fill:#ffffff;fill-opacity:1;stroke:none;stroke-width:7.99999;stroke-linecap:round;stroke-linejoin:round;stroke-dasharray:none;stroke-opacity:1;paint-order:stroke fill markers"
           id="circle3"
           cx="51.204521"
           cy="63.265182"
           r="5.4375" /><circle
           style="fill:#2f424d;fill-opacity:1;stroke:none;stroke-width:8.00002;stroke-linecap:round;stroke-linejoin:round;stroke-dasharray:none;stroke-opacity:1;paint-order:stroke fill markers"
           id="path3"
           cx="51.204521"
           cy="63.265182"
           r="2.0625" /><path
           id="path6"
           style="fill:none;fill-opacity:1;stroke:#636c7a;stroke-width:3;stroke-linecap:round;stroke-linejoin:round;stroke-dasharray:none;stroke-opacity:1;paint-order:stroke fill markers"
           d="M 40,65 C 34.285479,64.09488 29.050996,63.90983 24,64 m -2,13 c 4.194458,-1.16975 9.805752,-2.49694 17,-4 m 0,-4 c -8.654982,0.44639 -15.289399,1.22954 -22,2 m 79,-6 c 5.71452,-0.90512 10.949,-1.09017 16,-1 m 2,13 c -4.19446,-1.16975 -9.80575,-2.49694 -17,-4 m 0,-4 c 8.65498,0.44639 15.2894,1.22954 22,2" /><path
           id="path10-3"
           style="color:#000000;display:inline;fill:#636c7a;stroke-width:1;stroke-linejoin:round;-inkscape-stroke:none;paint-order:stroke fill markers"
           d="m 68.000005,88.72394 c -2.51735,0 -5.865607,2.36131 -6.995779,6.882 a 0.53948744,0.53948744 0 0 0 0.847079,0.5626 c 2.08868,-1.56651 4.125827,-2.31998 6.1487,-2.31998 2.022872,0 4.060019,0.75347 6.148699,2.31998 a 0.53948744,0.53948744 0 0 0 0.851293,-0.54365 C 74.041129,91.07915 70.517354,88.72394 68.000005,88.72394 Z M 48,93.5 c -2.333327,0 -5.436821,2.18869 -6.484375,6.37891 a 0.50005,0.50005 0 0 0 0.785156,0.52148 C 44.236775,98.94839 46.125003,98.25 48,98.25 c 1.874997,0 3.763225,0.69839 5.699219,2.15039 a 0.50005,0.50005 0 0 0 0.789062,-0.50391 C 53.599508,95.68304 50.333327,93.5 48,93.5 Z m 40,0 c 2.333327,0 5.436821,2.18869 6.484375,6.37891 a 0.50005,0.50005 0 0 1 -0.785156,0.52148 C 91.763225,98.94839 89.874997,98.25 88,98.25 c -1.874997,0 -3.763225,0.69839 -5.699219,2.15039 A 0.50005,0.50005 0 0 1 81.511719,99.89648 C 82.400492,95.68304 85.666673,93.5 88,93.5 Z" /></g></g><circle
       style="display:inline;opacity:1;vector-effect:none;fill:none;fill-opacity:1;fill-rule:nonzero;stroke:#3a76c3;stroke-width:4;stroke-linecap:butt;stroke-linejoin:round;stroke-miterlimit:4;stroke-dasharray:none;stroke-dashoffset:0;stroke-opacity:1;paint-order:fill markers stroke"
       id="circle1574"
       cx="64"
       cy="64"
       r="60" /></g></svg>
