<?xml version="1.0" encoding="UTF-8" standalone="no"?>
<!-- Created with Inkscape (http://www.inkscape.org/) -->

<svg
   enable-background="new"
   inkscape:export-ydpi="384"
   inkscape:export-xdpi="384"
   inkscape:export-filename="..\app\src\main\res\drawable-nodpi\libreoffice_viewer.png"
   sodipodi:docname="libreoffice_viewer.svg"
   inkscape:version="1.3 (0e150ed6c4, 2023-07-21)"
   id="svg8"
   version="1.1"
   viewBox="0 0 128 128"
   height="128"
   width="128"
   xml:space="preserve"
   xmlns:inkscape="http://www.inkscape.org/namespaces/inkscape"
   xmlns:sodipodi="http://sodipodi.sourceforge.net/DTD/sodipodi-0.dtd"
   xmlns="http://www.w3.org/2000/svg"
   xmlns:svg="http://www.w3.org/2000/svg"
   xmlns:rdf="http://www.w3.org/1999/02/22-rdf-syntax-ns#"
   xmlns:cc="http://creativecommons.org/ns#"
   xmlns:dc="http://purl.org/dc/elements/1.1/"><sodipodi:namedview
     id="base"
     pagecolor="#ffffff"
     bordercolor="#666666"
     borderopacity="1.0"
     inkscape:pageopacity="0.0"
     inkscape:pageshadow="2"
     inkscape:zoom="4"
     inkscape:cx="55"
     inkscape:cy="64.5"
     inkscape:document-units="px"
     inkscape:current-layer="g4735"
     showgrid="false"
     units="px"
     inkscape:pagecheckerboard="true"
     borderlayer="true"
     gridtolerance="10"
     inkscape:snap-smooth-nodes="true"
     inkscape:snap-text-baseline="true"
     inkscape:snap-page="true"
     showguides="true"
     inkscape:guide-bbox="true"
     inkscape:snap-object-midpoints="true"
     inkscape:snap-center="true"
     inkscape:snap-global="true"
     inkscape:lockguides="false"
     inkscape:snap-bbox="true"
     inkscape:bbox-nodes="true"
     inkscape:showpageshadow="0"
     inkscape:deskcolor="#d1d1d1"
     inkscape:window-width="1852"
     inkscape:window-height="1057"
     inkscape:window-x="60"
     inkscape:window-y="-8"
     inkscape:window-maximized="1"><inkscape:grid
       enabled="false"
       empspacing="4"
       id="grid4131"
       type="xygrid"
       spacingx="8"
       spacingy="8"
       originx="0"
       originy="0"
       units="px"
       visible="false" /><inkscape:grid
       empspacing="4"
       id="grid4167"
       type="xygrid"
       originx="0"
       originy="0"
       spacingy="1"
       spacingx="1"
       units="px"
       visible="false" /><sodipodi:guide
       position="64,124"
       orientation="1,0"
       id="guide1"
       inkscape:locked="false" /><sodipodi:guide
       position="124,64"
       orientation="0,-1"
       id="guide2"
       inkscape:locked="false" /></sodipodi:namedview><defs
     id="defs2"><clipPath
       clipPathUnits="userSpaceOnUse"
       id="clipPath6210"><path
         style="color:#000000;font-style:normal;font-variant:normal;font-weight:normal;font-stretch:normal;font-size:medium;line-height:normal;font-family:sans-serif;font-variant-ligatures:normal;font-variant-position:normal;font-variant-caps:normal;font-variant-numeric:normal;font-variant-alternates:normal;font-feature-settings:normal;text-indent:0;text-align:start;text-decoration:none;text-decoration-line:none;text-decoration-style:solid;text-decoration-color:#000000;letter-spacing:normal;word-spacing:normal;text-transform:none;writing-mode:lr-tb;direction:ltr;text-orientation:mixed;dominant-baseline:auto;baseline-shift:baseline;text-anchor:start;white-space:normal;shape-padding:0;clip-rule:nonzero;display:inline;overflow:visible;visibility:visible;opacity:1;isolation:auto;mix-blend-mode:normal;color-interpolation:sRGB;color-interpolation-filters:linearRGB;solid-color:#000000;solid-opacity:1;vector-effect:none;fill:#646464;fill-opacity:1;fill-rule:nonzero;stroke:none;stroke-width:8;stroke-linecap:butt;stroke-linejoin:round;stroke-miterlimit:4;stroke-dasharray:none;stroke-dashoffset:0;stroke-opacity:1;paint-order:stroke fill markers;color-rendering:auto;image-rendering:auto;shape-rendering:auto;text-rendering:auto;enable-background:accumulate"
         d="m 64,23.808594 c -6.404208,0 -12.798113,0.141421 -17.818359,0.429687 -2.510123,0.144133 -4.665492,0.320761 -6.394532,0.556641 -0.864519,0.11794 -1.614893,0.244609 -2.34375,0.43164 -0.728856,0.187032 -1.363954,0.02997 -2.77539,1.441407 -0.915385,0.915385 -0.991962,1.442284 -1.150391,1.894531 -0.158429,0.452247 -0.249693,0.839194 -0.333984,1.248047 -0.168582,0.817707 -0.289005,1.714979 -0.402344,2.78125 -0.226679,2.132542 -0.404249,4.89797 -0.546875,8.144531 C 31.949124,47.229451 31.808594,55.610231 31.808594,64 c 0,8.389769 0.14053,16.772502 0.425781,23.265625 0.142626,3.246562 0.320196,6.010036 0.546875,8.142578 0.113339,1.066271 0.233762,1.965497 0.402344,2.783203 0.08429,0.408854 0.175555,0.793847 0.333984,1.246094 0.158429,0.452247 0.235006,0.97915 1.150391,1.89453 1.411558,1.41156 2.046509,1.2544 2.77539,1.44141 0.728881,0.187 1.479217,0.31374 2.34375,0.43164 1.729068,0.2358 3.8844,0.41456 6.394532,0.55859 C 51.201905,104.05174 57.596072,104.19141 64,104.19141 78,104.19141 95,88 95.8,79 c 0.516789,-6.478807 0.391406,-6.610231 0.391406,-15 0,-8.389769 -0.14053,-16.770549 -0.425781,-23.263672 -0.142626,-3.246561 -0.320196,-6.011989 -0.546875,-8.144531 -0.113339,-1.066271 -0.233762,-1.963543 -0.402344,-2.78125 -0.08429,-0.408853 -0.175555,-0.7958 -0.333984,-1.248047 -0.158429,-0.452247 -0.235006,-0.979146 -1.150391,-1.894531 -1.411436,-1.411437 -2.046534,-1.254375 -2.77539,-1.441407 -0.728857,-0.187031 -1.479231,-0.3137 -2.34375,-0.43164 -1.72904,-0.23588 -3.884409,-0.412508 -6.394532,-0.556641 C 76.798113,23.950015 70.404208,23.808594 64,23.808594 Z"
         id="path6212"
         inkscape:connector-curvature="0"
         sodipodi:nodetypes="ssscsssssssscsccscccssscsscsss" /></clipPath><filter
       id="filter185"
       inkscape:label="Drop Shadow purple"
       style="color-interpolation-filters:sRGB"
       x="-0.063312367"
       y="0.047493965"
       width="1.0507281"
       height="1.0522725"><feFlood
         id="feFlood184"
         result="flood"
         flood-color="rgb(100,100,100)"
         flood-opacity="0.498039" /><feComposite
         id="feComposite184"
         result="composite1"
         operator="in"
         in2="SourceGraphic"
         in="flood" /><feOffset
         id="feOffset184"
         result="offset"
         dy="4"
         dx="2" /><feComposite
         id="feComposite185"
         result="composite2"
         operator="over"
         in2="offset"
         in="SourceGraphic" /></filter></defs><metadata
     id="metadata5"><rdf:RDF><cc:Work
         rdf:about=""><dc:format>image/svg+xml</dc:format><dc:type
           rdf:resource="http://purl.org/dc/dcmitype/StillImage" /></cc:Work></rdf:RDF></metadata><style
     id="style2296">.B{fill:#fc9abf}.C{fill:#ffc7df}.D{fill:#ed84cb}.E{fill-opacity:1}.F{stroke:none}</style><g
     style="display:inline;opacity:1"
     inkscape:label="document viewer"
     id="g4735"
     inkscape:groupmode="layer"><circle
       r="60"
       cy="64"
       cx="64"
       id="circle4707"
       style="display:inline;opacity:1;vector-effect:none;fill:#ffffff;fill-opacity:1;fill-rule:nonzero;stroke:#646464;stroke-width:4;stroke-linecap:butt;stroke-linejoin:round;stroke-miterlimit:4;stroke-dasharray:none;stroke-dashoffset:0;stroke-opacity:1;paint-order:fill markers stroke" /><g
       id="g3"
       style="filter:url(#filter185)"><path
         id="path2"
         style="color:#000000;fill:#646464;stroke-linejoin:round;-inkscape-stroke:none;paint-order:stroke fill markers"
         d="m 76.642578,24.013672 c 3.652169,1.769752 7.110495,4.12755 10.185547,6.724609 3.600905,3.041174 6.741074,6.333351 8.921875,9.722657 -0.140341,-3.118235 -0.311523,-5.80201 -0.53125,-7.869141 -0.113339,-1.066268 -0.233762,-1.965499 -0.402344,-2.783203 -0.08429,-0.408853 -0.175555,-0.793847 -0.333984,-1.246094 -0.158429,-0.452247 -0.235007,-0.979149 -1.150391,-1.894531 -1.411553,-1.411554 -2.046512,-1.254404 -2.77539,-1.441407 -0.728881,-0.187 -1.47922,-0.31374 -2.34375,-0.43164 -1.729064,-0.2358 -3.884406,-0.412605 -6.394532,-0.556641 -1.590747,-0.09128 -3.352537,-0.162585 -5.175781,-0.224609 z"
         sodipodi:nodetypes="cscsssssssc" /><g
         clip-path="url(#clipPath6210)"
         id="g4733"
         inkscape:groupmode="maskhelper"
         transform="matrix(1,0,0,-1,0,128.00038)"
         style="display:inline"><path
           sodipodi:nodetypes="sssssssss"
           inkscape:connector-curvature="0"
           id="path4711"
           d="m 64,27.80897 c -12.690108,0 -25.379406,0.563 -26.503906,1.6875 -1.1245,1.1245 -1.68675,17.814203 -1.68675,34.503906 -1e-6,16.689704 0.562249,33.379407 1.68675,34.503906 1.1245,1.124499 13.814203,1.686748 26.503906,1.686748 12.689703,0 25.379406,-0.562249 26.503906,-1.686748 1.124501,-1.124499 1.686751,-17.814202 1.68675,-34.503906 0,-16.689703 -0.56225,-33.379406 -1.68675,-34.503906 C 89.379406,28.37197 76.690108,27.80897 64,27.80897 Z"
           style="display:inline;opacity:1;vector-effect:none;fill:#e2e2e2;fill-opacity:1;fill-rule:nonzero;stroke:#646464;stroke-width:12;stroke-linecap:butt;stroke-linejoin:round;stroke-miterlimit:4;stroke-dasharray:none;stroke-dashoffset:0;stroke-opacity:1;paint-order:stroke fill markers" /><path
           style="opacity:1;vector-effect:none;fill:#d4d4d4;fill-opacity:1;fill-rule:nonzero;stroke:#646464;stroke-width:8;stroke-linecap:butt;stroke-linejoin:round;stroke-miterlimit:4;stroke-dasharray:none;stroke-dashoffset:0;stroke-opacity:1;paint-order:stroke fill markers"
           d="M 63,104.2 99,108 96.1,77 c 0,8 -8.1,12 -17.1,12 -1,7 -3,15.2 -16,15.2 z"
           id="path4713"
           inkscape:connector-curvature="0"
           sodipodi:nodetypes="ccccc" /><path
           style="color:#000000;font-style:normal;font-variant:normal;font-weight:normal;font-stretch:normal;font-size:medium;line-height:normal;font-family:sans-serif;font-variant-ligatures:normal;font-variant-position:normal;font-variant-caps:normal;font-variant-numeric:normal;font-variant-alternates:normal;font-feature-settings:normal;text-indent:0;text-align:start;text-decoration:none;text-decoration-line:none;text-decoration-style:solid;text-decoration-color:#000000;letter-spacing:normal;word-spacing:normal;text-transform:none;writing-mode:lr-tb;direction:ltr;text-orientation:mixed;dominant-baseline:auto;baseline-shift:baseline;text-anchor:start;white-space:normal;shape-padding:0;clip-rule:nonzero;display:inline;overflow:visible;visibility:visible;opacity:1;isolation:auto;mix-blend-mode:normal;color-interpolation:sRGB;color-interpolation-filters:linearRGB;solid-color:#000000;solid-opacity:1;vector-effect:none;fill:none;fill-opacity:1;fill-rule:nonzero;stroke:#646464;stroke-width:8;stroke-linecap:butt;stroke-linejoin:round;stroke-miterlimit:4;stroke-dasharray:none;stroke-dashoffset:0;stroke-opacity:1;paint-order:stroke fill markers;color-rendering:auto;image-rendering:auto;shape-rendering:auto;text-rendering:auto;enable-background:accumulate"
           d="m 63.993308,104.19141 c 14,0 31.099692,-16.191412 31.899692,-25.191412"
           id="path4715"
           inkscape:connector-curvature="0"
           sodipodi:nodetypes="cc" /></g></g></g></svg>
