<?xml version="1.0" encoding="UTF-8" standalone="no"?>
<svg
   height="128"
   width="128"
   version="1.1"
   id="svg2"
   sodipodi:docname="lichess.svg"
   inkscape:version="1.3 (0e150ed6c4, 2023-07-21)"
   inkscape:export-filename="..\app\src\main\res\drawable-nodpi\lichess.png"
   inkscape:export-xdpi="384"
   inkscape:export-ydpi="384"
   xml:space="preserve"
   xmlns:inkscape="http://www.inkscape.org/namespaces/inkscape"
   xmlns:sodipodi="http://sodipodi.sourceforge.net/DTD/sodipodi-0.dtd"
   xmlns="http://www.w3.org/2000/svg"
   xmlns:svg="http://www.w3.org/2000/svg"><defs
     id="defs2"><inkscape:path-effect
       effect="bspline"
       id="path-effect32"
       is_visible="true"
       lpeversion="1.3"
       weight="33.333333"
       steps="2"
       helper_size="0"
       apply_no_weight="true"
       apply_with_weight="true"
       only_selected="false"
       uniform="false" /><inkscape:path-effect
       effect="spiro"
       id="path-effect28"
       is_visible="true"
       lpeversion="1" /></defs><sodipodi:namedview
     id="namedview2"
     pagecolor="#ffffff"
     bordercolor="#666666"
     borderopacity="1.0"
     inkscape:showpageshadow="2"
     inkscape:pageopacity="0.0"
     inkscape:pagecheckerboard="0"
     inkscape:deskcolor="#d1d1d1"
     inkscape:zoom="4"
     inkscape:cx="66.875"
     inkscape:cy="47.375"
     inkscape:window-width="1920"
     inkscape:window-height="1057"
     inkscape:window-x="-8"
     inkscape:window-y="-8"
     inkscape:window-maximized="1"
     inkscape:current-layer="svg2"
     showguides="false"><sodipodi:guide
       position="64,126"
       orientation="1,0"
       id="guide33"
       inkscape:locked="false" /><sodipodi:guide
       position="46.165819,70.150946"
       orientation="0,-1"
       id="guide36"
       inkscape:locked="false" /></sodipodi:namedview><circle
     r="60"
     cy="64"
     cx="64"
     fill="#8af19d"
     paint-order="fill markers stroke"
     stroke="#00c853"
     stroke-width="4"
     id="circle1"
     style="fill:#ffffff;stroke:#373737"
     sodipodi:insensitive="true" /><path
     id="path77"
     style="color:#000000;fill:#747474;fill-rule:evenodd;stroke-width:0.9;stroke-linecap:round;stroke-linejoin:round;-inkscape-stroke:none;paint-order:fill markers stroke;opacity:0.5"
     d="m 76.513672,20.705078 c -1.785331,-0.02472 -2.993975,0.940545 -3.736328,1.744141 -0.350241,0.379133 -0.64231,0.771405 -0.910157,1.183594 -1.760733,-0.498022 -3.539862,-0.771735 -5.310546,-0.81836 -2.535597,-0.06677 -5.054506,0.324671 -7.486329,1.144531 -0.235751,-0.367556 -0.485377,-0.726258 -0.779296,-1.072265 -0.746565,-0.878868 -1.906042,-1.976055 -3.84961,-2.031251 -1.516088,-0.04306 -2.912311,0.807734 -3.662109,1.634767 -0.7498,0.82703 -1.153679,1.668198 -1.513672,2.591796 -0.658822,1.690273 -1.107473,3.777574 -1.498047,6.511719 -2.679117,2.912912 -5.044941,6.492907 -6.990235,10.660156 -6.859714,14.695032 -7.158339,33.592833 -1.101562,48.548828 -1.720074,1.963275 -3.505042,3.97452 -4.980468,6.066407 -1.065556,1.510761 -1.365647,4.012069 -0.53711,5.738289 0.828537,1.72621 2.145346,2.71449 3.591797,3.55273 2.892904,1.67648 6.791854,2.77154 11.839844,3.60155 10.096059,1.66008 22.724253,1.66008 32.820312,0 5.047991,-0.83001 8.94694,-1.92507 11.839844,-3.60155 1.446451,-0.83824 2.765213,-1.82652 3.59375,-3.55273 0.828536,-1.72622 0.526493,-4.227528 -0.539063,-5.738289 -3.212508,-4.554742 -7.906658,-8.754586 -10.154296,-12.81836 -1.639943,-2.965048 -2.57615,-7.42473 -3.265625,-12.263672 2.438284,-0.527617 4.843392,-1.359163 6.908203,-3.142577 C 94.292003,65.62235 95.609381,61.08303 95.066406,56.822266 94.665091,53.673121 92.945503,51.72539 91.535156,49.986328 90.34822,48.522749 89.547278,47.759031 89.214844,47.431641 88.894185,46.820422 86.406534,42.239964 82.773438,37.84375 82.727997,33.60026 82.501207,30.092257 82.001953,27.470703 81.725427,26.018681 81.408013,24.808611 80.791016,23.625 80.174017,22.441391 78.808805,20.73686 76.513672,20.705078 Z"
     sodipodi:nodetypes="sscscsssscscssscssssscsssccsss" /><g
     id="g57"
     transform="matrix(0.9,0,0,0.9,6.4,6.1929777)"><path
       style="opacity:1;fill:#ffffff;fill-opacity:1;fill-rule:evenodd;stroke:#373737;stroke-width:4;stroke-linecap:round;stroke-linejoin:round;stroke-dasharray:none;stroke-dashoffset:0;stroke-opacity:1;paint-order:fill markers stroke"
       id="path56"
       sodipodi:type="arc"
       sodipodi:cx="64"
       sodipodi:cy="64"
       sodipodi:rx="32"
       sodipodi:ry="48"
       sodipodi:start="2.443461"
       sodipodi:end="5.0614548"
       sodipodi:arc-type="arc"
       d="M 39.486577,94.853804 A 32,48 0 0 1 37.787135,36.468331 32,48 0 0 1 74.944644,18.894754"
       sodipodi:open="true" /><g
       id="g51"
       style="display:none"
       sodipodi:insensitive="true"><path
         id="path33"
         style="display:inline;opacity:1;fill:#ffffff;fill-rule:evenodd;stroke:#373737;stroke-width:8;stroke-linejoin:round;stroke-dasharray:none;stroke-opacity:1;paint-order:stroke fill markers"
         d="m 84,84 c 3.001131,5.426103 8.420676,10.225253 11.513848,14.61081 2.218109,3.14488 -3.257403,6.31829 -13.929561,8.07309 -10.672155,1.7548 -24.49642,1.7548 -35.168575,0 C 35.743554,104.9291 30.268043,101.75569 32.486152,98.61081 35.579325,94.225253 40.998869,89.426103 44,84 53.593458,66.654844 44.178575,28 64,28 83.821425,28 74.406542,66.654844 84,84 Z"
         sodipodi:nodetypes="assssaaa" /><path
         style="display:inline;opacity:1;fill:#ffffff;fill-opacity:1;fill-rule:evenodd;stroke:#373737;stroke-width:8;stroke-linecap:round;stroke-linejoin:round;stroke-dasharray:none;stroke-dashoffset:0;stroke-opacity:1;paint-order:stroke fill markers"
         d="m 70.320233,26.651485 c 4.686706,-17.4910245 8.357722,-12.969589 8.357722,5.492843"
         id="path36"
         sodipodi:nodetypes="cc" /><path
         style="display:inline;opacity:1;fill:#ffffff;fill-opacity:1;fill-rule:evenodd;stroke:#373737;stroke-width:8;stroke-linecap:butt;stroke-linejoin:round;stroke-dasharray:none;stroke-dashoffset:0;stroke-opacity:1;paint-order:stroke fill markers"
         d="m 46.685288,77.053449 c 1.017075,-3.795775 -4.672329,-36.541861 6.923248,-47.629139 4.662745,-4.458351 13.28026,-4.34946 19.257832,-1.923204 6.551684,2.659284 13.667168,16.222691 13.667168,16.222691 0,0 5.358187,5.165114 5.794881,8.591884 0.429211,3.368058 -0.82611,7.383871 -3.395644,9.603225 -3.968099,3.427322 -10.227253,3.638645 -15.435211,3.030751 -6.56926,-0.766791 -18.065938,-8.204281 -18.065938,-8.204281"
         id="path34"
         sodipodi:nodetypes="caacaaac" /><path
         style="display:inline;opacity:1;fill:#ffffff;fill-opacity:1;fill-rule:evenodd;stroke:#373737;stroke-width:8;stroke-linecap:round;stroke-linejoin:round;stroke-dasharray:none;stroke-dashoffset:0;stroke-opacity:1;paint-order:stroke fill markers"
         d="m 46.165819,57.853356 c 0,-51.141592 5.813055,-47.766489 10.375951,-30.737529"
         id="path35"
         sodipodi:nodetypes="cc" /></g><g
       id="g54"><path
         style="display:inline;opacity:1;fill:#ffffff;fill-opacity:1;fill-rule:evenodd;stroke:#373737;stroke-width:8;stroke-linecap:round;stroke-linejoin:round;stroke-dasharray:none;stroke-dashoffset:0;stroke-opacity:1;paint-order:stroke fill markers"
         d="m 70.320233,26.651485 c 4.591735,-17.1365862 8.357722,-13.358103 8.357722,5.492843"
         id="path52"
         sodipodi:nodetypes="cc" /><path
         id="path51"
         style="display:inline;opacity:1;fill:#ffffff;fill-rule:evenodd;stroke:#373737;stroke-width:8;stroke-linejoin:round;stroke-dasharray:none;stroke-opacity:1;paint-order:stroke fill markers"
         d="m 51.042969,15.845703 c -2.71892,-0.07721 -4.876953,10.843436 -4.876953,42.007813 l 0.01367,-0.03711 c -0.0015,9.175605 0.953629,17.23533 0.519531,19.152344 C 46.013539,79.546049 45.145752,81.928459 44,84 c -3.001128,5.426098 -8.420502,10.225776 -11.513672,14.611328 -2.218107,3.144872 3.25754,6.317472 13.929688,8.072262 10.672144,1.7548 24.495824,1.7548 35.167968,0 C 92.256132,104.9288 97.731779,101.7562 95.513672,98.611328 92.420503,94.225776 87.001128,89.426098 84,84 81.242844,79.015008 80.070896,72.257587 79.308594,65.175781 c 3.562852,-0.179864 7.069744,-1.05079 9.625,-3.257812 2.569531,-2.219352 3.823742,-6.233508 3.394531,-9.601563 -0.436694,-3.426766 -5.794922,-8.591797 -5.794922,-8.591797 0,0 -7.114338,-13.563375 -13.666015,-16.222656 -4.922462,-1.997994 -11.630966,-2.418964 -16.451172,-0.01758 l 0.125,-0.369141 c -1.78238,-6.65193 -3.75515,-11.220035 -5.498047,-11.269531 z" /><path
         style="color:#000000;display:inline;fill:none;fill-rule:evenodd;stroke:#373737;stroke-width:4;stroke-linecap:round;stroke-linejoin:round;stroke-dasharray:none;stroke-opacity:1;paint-order:stroke fill markers"
         d="m 56.351597,59.664058 c 12.562262,7.537894 17.742134,7.772238 23.058594,7.503907"
         id="path50"
         sodipodi:nodetypes="cc" /></g><circle
       style="opacity:1;fill:#373737;fill-opacity:1;fill-rule:evenodd;stroke:none;stroke-width:8.13435;stroke-linecap:round;stroke-linejoin:round;stroke-dasharray:none;stroke-dashoffset:0;stroke-opacity:1;paint-order:stroke fill markers"
       id="path37"
       cx="62.592354"
       cy="56.885654"
       transform="matrix(0.96723904,-0.25386735,0,1,0,0)"
       r="3.3333333" /></g></svg>
