<?xml version="1.0" encoding="UTF-8" standalone="no"?>
<!-- Created with Inkscape (http://www.inkscape.org/) -->

<svg
   enable-background="new"
   inkscape:export-ydpi="384"
   inkscape:export-xdpi="384"
   inkscape:export-filename="..\app\src\main\res\drawable-nodpi\logseq.png"
   sodipodi:docname="logseq.svg"
   inkscape:version="1.3 (0e150ed6c4, 2023-07-21)"
   id="svg8"
   version="1.1"
   viewBox="0 0 128 128"
   height="128"
   width="128"
   xml:space="preserve"
   xmlns:inkscape="http://www.inkscape.org/namespaces/inkscape"
   xmlns:sodipodi="http://sodipodi.sourceforge.net/DTD/sodipodi-0.dtd"
   xmlns="http://www.w3.org/2000/svg"
   xmlns:svg="http://www.w3.org/2000/svg"
   xmlns:rdf="http://www.w3.org/1999/02/22-rdf-syntax-ns#"
   xmlns:cc="http://creativecommons.org/ns#"
   xmlns:dc="http://purl.org/dc/elements/1.1/"><sodipodi:namedview
     id="base"
     pagecolor="#ffffff"
     bordercolor="#666666"
     borderopacity="1.0"
     inkscape:pageopacity="0.0"
     inkscape:pageshadow="2"
     inkscape:zoom="2.8284271"
     inkscape:cx="16.263456"
     inkscape:cy="121.26881"
     inkscape:document-units="px"
     inkscape:current-layer="g2664"
     showgrid="false"
     units="px"
     inkscape:pagecheckerboard="true"
     borderlayer="true"
     gridtolerance="10"
     inkscape:snap-smooth-nodes="true"
     inkscape:snap-text-baseline="true"
     inkscape:snap-page="true"
     showguides="true"
     inkscape:guide-bbox="true"
     inkscape:snap-object-midpoints="true"
     inkscape:snap-center="true"
     inkscape:snap-global="true"
     inkscape:lockguides="false"
     inkscape:snap-bbox="true"
     inkscape:bbox-nodes="true"
     inkscape:showpageshadow="0"
     inkscape:deskcolor="#d1d1d1"
     inkscape:window-width="1852"
     inkscape:window-height="1057"
     inkscape:window-x="60"
     inkscape:window-y="-8"
     inkscape:window-maximized="1"><inkscape:grid
       enabled="false"
       empspacing="4"
       id="grid4131"
       type="xygrid"
       spacingx="8"
       spacingy="8"
       originx="0"
       originy="0"
       units="px"
       visible="false" /><inkscape:grid
       empspacing="4"
       id="grid4167"
       type="xygrid"
       originx="0"
       originy="0"
       spacingy="1"
       spacingx="1"
       units="px"
       visible="false" /></sodipodi:namedview><defs
     id="defs2"><mask
       maskUnits="userSpaceOnUse"
       id="mask2"><path
         style="opacity:1;vector-effect:none;fill:none;fill-opacity:1;fill-rule:nonzero;stroke:#ffffff;stroke-width:8;stroke-linecap:butt;stroke-linejoin:round;stroke-miterlimit:4;stroke-dasharray:none;stroke-dashoffset:0;stroke-opacity:1;paint-order:stroke fill markers"
         d="m 40,32.75 a 2.0002,2.0002 0 1 0 0,4 c 1.728144,0 4.407265,1.100343 6.443359,2.716797 1.184951,0.940731 2.083998,2.041102 2.638672,3.001953 C 37.990118,46.863099 34.405177,56.508178 34.048828,66.320312 25.727557,64.953611 22.664327,55.21362 26.46875,49.705078 a 3.0003,3.0003 0 0 0 -2.476562,-4.740234 3.0003,3.0003 0 0 0 -2.460938,1.330078 c -6.683373,9.677061 -0.299161,24.943044 12.90625,26.111328 1.169184,5.635877 4.686394,9.642815 10.142578,12.181641 -1.640681,3.824944 -5.530429,7.647329 -8.763672,8.513671 a 3.0006148,3.0006148 0 1 0 1.552735,5.796876 C 43.252866,97.321898 48.110814,92.325409 50.289062,86.533203 54.251174,87.510071 58.834636,88 64,88 c 5.165364,0 9.748827,-0.489929 13.710938,-1.466797 2.178248,5.792206 7.036196,10.788695 12.919921,12.365235 a 3.0006148,3.0006148 0 1 0 1.552735,-5.796876 C 88.950351,92.23522 85.060603,88.412835 83.419922,84.587891 88.876106,82.049065 92.393316,78.042127 93.5625,72.40625 106.76791,71.237966 113.15212,55.971983 106.46875,46.294922 a 3.0003,3.0003 0 0 0 -2.46094,-1.330078 3.0003,3.0003 0 0 0 -2.47656,4.740234 c 3.80442,5.508542 0.74119,15.248533 -7.580078,16.615234 C 93.594823,56.508178 90.009882,46.863099 78.917969,42.46875 79.472643,41.507899 80.37169,40.407528 81.556641,39.466797 83.592735,37.850343 86.271856,36.75 88,36.75 a 2.0002,2.0002 0 1 0 0,-4 c -3.16014,0 -6.33426,1.523477 -8.929688,3.583984 -1.73283,1.375694 -3.263667,3.010315 -4.101562,4.888672 C 71.813706,40.439167 68.187024,40 64,40 59.812976,40 56.186294,40.439167 53.03125,41.222656 52.193355,39.344299 50.662517,37.709678 48.929688,36.333984 46.33426,34.273477 43.16014,32.75 40,32.75 Z"
         id="path3"
         inkscape:connector-curvature="0" /></mask><filter
       style="color-interpolation-filters:sRGB"
       id="filter4"
       inkscape:label="filter1"
       x="-0.050172447"
       y="-0.049449581"
       width="1.1257204"
       height="1.1480666"><feFlood
         id="feFlood4"
         flood-color="rgb(55,55,55)"
         flood-opacity="0.5" /><feComposite
         id="feComposite4"
         operator="in"
         in2="SourceGraphic" /><feOffset
         dx="2"
         dy="4"
         id="feOffset4"
         result="result1" /><feMerge
         id="feMerge4"><feMergeNode
           inkscape:collect="always"
           id="feMergeNode4"
           in="result1" /><feMergeNode
           inkscape:collect="always"
           id="feMergeNode5"
           in="SourceGraphic" /></feMerge></filter></defs><metadata
     id="metadata5"><rdf:RDF><cc:Work
         rdf:about=""><dc:format>image/svg+xml</dc:format><dc:type
           rdf:resource="http://purl.org/dc/dcmitype/StillImage" /></cc:Work></rdf:RDF></metadata><style
     id="style2296">.B{fill:#fc9abf}.C{fill:#ffc7df}.D{fill:#ed84cb}.E{fill-opacity:1}.F{stroke:none}</style><g
     style="display:inline"
     inkscape:label="retroarch"
     id="g2664"
     inkscape:groupmode="layer"><circle
       r="60"
       cy="64"
       cx="64"
       id="circle2653"
       style="display:inline;opacity:1;vector-effect:none;fill:#4c4c4c;fill-opacity:1;fill-rule:nonzero;stroke:#373737;stroke-width:4;stroke-linecap:butt;stroke-linejoin:round;stroke-miterlimit:4;stroke-dasharray:none;stroke-dashoffset:0;stroke-opacity:1;paint-order:fill markers stroke" /><g
       id="g4"
       style="filter:url(#filter4)"><ellipse
         style="fill:#40bfb3;fill-opacity:1;stroke:#2c737f;stroke-width:8;stroke-linecap:round;stroke-linejoin:round;stroke-opacity:1;paint-order:stroke markers fill"
         id="path1"
         cx="81.787636"
         cy="69.285522"
         rx="31.117764"
         ry="26.002892"
         transform="matrix(0.99319704,0.11644585,-0.11640446,0.99320189,0,0)" /><ellipse
         style="fill:#40bfb3;fill-opacity:1;stroke:#2c737f;stroke-width:8;stroke-linecap:round;stroke-linejoin:round;stroke-opacity:1;paint-order:stroke markers fill"
         id="path2"
         cx="13.435739"
         cy="52.273605"
         rx="11.859382"
         ry="14.119651"
         transform="matrix(0.8736299,-0.486591,0.48645715,0.87370443,0,0)" /><ellipse
         style="fill:#40bfb3;fill-opacity:1;stroke:#2c737f;stroke-width:8;stroke-linecap:round;stroke-linejoin:round;stroke-opacity:1;paint-order:stroke markers fill"
         id="path4"
         cx="60.671909"
         cy="47.930088"
         rx="12.875481"
         ry="8.5850267"
         transform="matrix(0.9714735,-0.23714813,0.23706748,0.97149319,0,0)" /></g></g></svg>
