<svg xmlns="http://www.w3.org/2000/svg" viewBox="0 0 128 128" xmlns:v="https://vecta.io/nano"><g stroke="#3a76c3" stroke-linejoin="round"><circle cx="64" cy="64" r="60" fill="#6d9fe9" stroke-width="4" paint-order="fill markers stroke"/><path d="M30.844 30.497c1.249 2.163 3.78 5.246 6.854 8.525-10.718 10.842-13.955 25.757-8.111 39.865a38.04 38.04 0 0 0 70.214 0c5.875-14.183 2.792-30.286-8.797-40.355-1.559.493-6.727 5.648-7.535 7.387 7.448 7.448 9.275 18.646 5.244 28.377S75.225 89.4 64.692 89.4s-19.499-5.126-23.529-14.857c-4.007-9.673-3.72-21.086 3.598-28.537 3.189 2.936 6.4 5.618 9.065 7.475.97-4.67 1.75-17.084 1.158-24.98-7.993-.163-19.135.693-24.141 1.998z" fill="#fff" fill-rule="evenodd" filter="url(#A)" stroke-width="8" paint-order="stroke fill markers"/></g><defs><filter id="A" x="-.052" y="-.054" width="1.131" height="1.163" color-interpolation-filters="sRGB"><feFlood flood-color="#3a76c3" flood-opacity=".5"/><feComposite in2="SourceAlpha" operator="in"/><feOffset dx="2" dy="4" result="A"/><feMerge><feMergeNode in="A"/><feMergeNode in="SourceGraphic"/></feMerge></filter></defs></svg>
