<?xml version="1.0" encoding="UTF-8" standalone="no"?>
<!-- Created with Inkscape (http://www.inkscape.org/) -->

<svg
   enable-background="new"
   inkscape:export-ydpi="384"
   inkscape:export-xdpi="384"
   inkscape:export-filename="..\app\src\main\res\drawable-nodpi\retroarch_plus.png"
   sodipodi:docname="maadhaar.svg"
   inkscape:version="1.3 (0e150ed6c4, 2023-07-21)"
   id="svg8"
   version="1.1"
   viewBox="0 0 128 128"
   height="128"
   width="128"
   xml:space="preserve"
   xmlns:inkscape="http://www.inkscape.org/namespaces/inkscape"
   xmlns:sodipodi="http://sodipodi.sourceforge.net/DTD/sodipodi-0.dtd"
   xmlns="http://www.w3.org/2000/svg"
   xmlns:svg="http://www.w3.org/2000/svg"
   xmlns:rdf="http://www.w3.org/1999/02/22-rdf-syntax-ns#"
   xmlns:cc="http://creativecommons.org/ns#"
   xmlns:dc="http://purl.org/dc/elements/1.1/"><sodipodi:namedview
     id="base"
     pagecolor="#ffffff"
     bordercolor="#666666"
     borderopacity="1.0"
     inkscape:pageopacity="0.0"
     inkscape:pageshadow="2"
     inkscape:zoom="4"
     inkscape:cx="55.25"
     inkscape:cy="66.5"
     inkscape:document-units="px"
     inkscape:current-layer="g2664"
     showgrid="false"
     units="px"
     inkscape:pagecheckerboard="true"
     borderlayer="true"
     gridtolerance="10"
     inkscape:snap-smooth-nodes="true"
     inkscape:snap-text-baseline="true"
     inkscape:snap-page="true"
     showguides="true"
     inkscape:guide-bbox="true"
     inkscape:snap-object-midpoints="true"
     inkscape:snap-center="true"
     inkscape:snap-global="true"
     inkscape:lockguides="false"
     inkscape:snap-bbox="true"
     inkscape:bbox-nodes="true"
     inkscape:showpageshadow="0"
     inkscape:deskcolor="#d1d1d1"
     inkscape:window-width="1852"
     inkscape:window-height="1057"
     inkscape:window-x="60"
     inkscape:window-y="-8"
     inkscape:window-maximized="1"><inkscape:grid
       enabled="false"
       empspacing="4"
       id="grid4131"
       type="xygrid"
       spacingx="8"
       spacingy="8"
       originx="0"
       originy="0"
       units="px"
       visible="false" /><inkscape:grid
       empspacing="4"
       id="grid4167"
       type="xygrid"
       originx="0"
       originy="0"
       spacingy="1"
       spacingx="1"
       units="px"
       visible="false" /></sodipodi:namedview><defs
     id="defs2"><mask
       maskUnits="userSpaceOnUse"
       id="mask2"><path
         style="opacity:1;vector-effect:none;fill:none;fill-opacity:1;fill-rule:nonzero;stroke:#ffffff;stroke-width:8;stroke-linecap:butt;stroke-linejoin:round;stroke-miterlimit:4;stroke-dasharray:none;stroke-dashoffset:0;stroke-opacity:1;paint-order:stroke fill markers"
         d="m 40,32.75 a 2.0002,2.0002 0 1 0 0,4 c 1.728144,0 4.407265,1.100343 6.443359,2.716797 1.184951,0.940731 2.083998,2.041102 2.638672,3.001953 C 37.990118,46.863099 34.405177,56.508178 34.048828,66.320312 25.727557,64.953611 22.664327,55.21362 26.46875,49.705078 a 3.0003,3.0003 0 0 0 -2.476562,-4.740234 3.0003,3.0003 0 0 0 -2.460938,1.330078 c -6.683373,9.677061 -0.299161,24.943044 12.90625,26.111328 1.169184,5.635877 4.686394,9.642815 10.142578,12.181641 -1.640681,3.824944 -5.530429,7.647329 -8.763672,8.513671 a 3.0006148,3.0006148 0 1 0 1.552735,5.796876 C 43.252866,97.321898 48.110814,92.325409 50.289062,86.533203 54.251174,87.510071 58.834636,88 64,88 c 5.165364,0 9.748827,-0.489929 13.710938,-1.466797 2.178248,5.792206 7.036196,10.788695 12.919921,12.365235 a 3.0006148,3.0006148 0 1 0 1.552735,-5.796876 C 88.950351,92.23522 85.060603,88.412835 83.419922,84.587891 88.876106,82.049065 92.393316,78.042127 93.5625,72.40625 106.76791,71.237966 113.15212,55.971983 106.46875,46.294922 a 3.0003,3.0003 0 0 0 -2.46094,-1.330078 3.0003,3.0003 0 0 0 -2.47656,4.740234 c 3.80442,5.508542 0.74119,15.248533 -7.580078,16.615234 C 93.594823,56.508178 90.009882,46.863099 78.917969,42.46875 79.472643,41.507899 80.37169,40.407528 81.556641,39.466797 83.592735,37.850343 86.271856,36.75 88,36.75 a 2.0002,2.0002 0 1 0 0,-4 c -3.16014,0 -6.33426,1.523477 -8.929688,3.583984 -1.73283,1.375694 -3.263667,3.010315 -4.101562,4.888672 C 71.813706,40.439167 68.187024,40 64,40 59.812976,40 56.186294,40.439167 53.03125,41.222656 52.193355,39.344299 50.662517,37.709678 48.929688,36.333984 46.33426,34.273477 43.16014,32.75 40,32.75 Z"
         id="path3"
         inkscape:connector-curvature="0" /></mask><clipPath
       clipPathUnits="userSpaceOnUse"
       id="clipPath4"><path
         id="path5"
         style="fill:#ff8090;stroke:#d5425d;stroke-width:8;stroke-linecap:round;stroke-linejoin:round;paint-order:stroke markers fill"
         d="m 28.467884,74.50399 c 0,-20.164977 15.90827,-36.511921 35.532116,-36.511921 19.623846,0 35.532116,16.346944 35.532116,36.511921 z"
         sodipodi:nodetypes="cscc" /></clipPath><filter
       style="color-interpolation-filters:sRGB"
       id="filter9"
       inkscape:label="filter1"
       x="-0.041439036"
       y="-0.059849266"
       width="1.1035976"
       height="1.1196985"><feFlood
         id="feFlood9"
         result="result3"
         flood-color="rgb(116,116,116)"
         flood-opacity="0.5" /><feOffset
         dx="2"
         dy="4"
         id="feOffset9"
         result="result1"
         in="SourceGraphic" /><feComposite
         id="feComposite9"
         in2="result1"
         operator="in"
         result="result2"
         in="result3" /><feMerge
         id="feMerge9"><feMergeNode
           inkscape:collect="always"
           id="feMergeNode9"
           in="result2" /><feMergeNode
           inkscape:collect="always"
           id="feMergeNode10"
           in="SourceGraphic" /></feMerge></filter></defs><metadata
     id="metadata5"><rdf:RDF><cc:Work
         rdf:about=""><dc:format>image/svg+xml</dc:format><dc:type
           rdf:resource="http://purl.org/dc/dcmitype/StillImage" /></cc:Work></rdf:RDF></metadata><style
     id="style2296">.B{fill:#fc9abf}.C{fill:#ffc7df}.D{fill:#ed84cb}.E{fill-opacity:1}.F{stroke:none}</style><g
     style="display:inline"
     inkscape:label="retroarch"
     id="g2664"
     inkscape:groupmode="layer"><circle
       r="60"
       cy="64"
       cx="64"
       id="circle2653"
       style="display:inline;opacity:1;vector-effect:none;fill:#ffffff;fill-opacity:1;fill-rule:nonzero;stroke:#747474;stroke-width:4;stroke-linecap:butt;stroke-linejoin:round;stroke-miterlimit:4;stroke-dasharray:none;stroke-dashoffset:0;stroke-opacity:1;paint-order:fill markers stroke" /><g
       id="g9"
       style="filter:url(#filter9)"><path
         id="path2"
         style="fill:#e2db53;fill-opacity:1;stroke:#b9a400;stroke-width:8;stroke-linecap:round;stroke-linejoin:round;stroke-opacity:1;paint-order:stroke markers fill"
         inkscape:transform-center-y="-3.3582162"
         d="m 64,26.240234 c -0.856148,0 -3.025002,3.560215 -5.107422,6.966797 1.674083,-0.216512 3.376186,-0.341797 5.107422,-0.341797 1.731236,0 3.433339,0.125285 5.107422,0.341797 C 67.025002,29.800449 64.856148,26.240234 64,26.240234 Z m -23.753906,6.41211 c -0.162999,-0.01281 -0.291762,0.0024 -0.378906,0.05273 -0.774255,0.447016 -0.847012,4.968763 -0.953126,9.111328 2.74396,-2.226704 5.769876,-4.09834 9.021485,-5.542968 -3.143583,-1.710887 -6.444203,-3.523259 -7.689453,-3.621094 z m 47.507812,0 c -1.24525,0.09783 -4.54587,1.910207 -7.689453,3.621094 3.251609,1.444628 6.277525,3.316264 9.021485,5.542968 -0.106113,-4.142565 -0.178871,-8.664312 -0.953126,-9.111328 -0.08714,-0.05031 -0.215907,-0.06554 -0.378906,-0.05273 z M 31.669922,49.408203 c -4.235135,0.111838 -9.008784,0.166207 -9.46875,0.962891 -0.471994,0.817517 2.004879,5.180554 4.058594,8.974609 1.362806,-3.579692 3.188195,-6.919777 5.410156,-9.9375 z m 64.660156,0 c 2.221961,3.017723 4.047352,6.357808 5.410152,9.9375 2.05372,-3.794055 4.53059,-8.157092 4.0586,-8.974609 -0.45997,-0.796684 -5.23362,-0.851052 -9.468752,-0.962891 z m 15.933592,25.095703 c 0,-0.956459 -4.44102,-3.551334 -8.14648,-5.832031 0.26014,1.906449 0.40429,3.851894 0.40429,5.832031 z m -88.785154,0 c 0,-1.980137 0.144151,-3.925582 0.404296,-5.832031 -3.705457,2.280697 -8.146484,4.875572 -8.146484,5.832031 z"
         sodipodi:nodetypes="scscsssccssccsscsccccsccccccccc" /><path
         id="path1"
         style="fill:none;stroke:#d5425d;stroke-width:8;stroke-linecap:round;stroke-linejoin:round;paint-order:stroke markers fill"
         d="m 28.467884,74.50399 c 0,-20.164977 15.90827,-36.511921 35.532116,-36.511921 19.623846,0 35.532116,16.346944 35.532116,36.511921 z"
         sodipodi:nodetypes="cscc" /><g
         inkscape:groupmode="maskhelper"
         id="g4"
         clip-path="url(#clipPath4)"><rect
           style="fill:#ff8090;fill-opacity:1;stroke:none;stroke-width:8;stroke-linecap:round;stroke-linejoin:round;stroke-opacity:1;paint-order:stroke markers fill"
           id="rect4"
           width="80.31192"
           height="47.473087"
           x="23.688078"
           y="32.526913"
           rx="0"
           ry="0" /><path
           id="path9"
           style="display:inline;fill:none;fill-opacity:1;stroke:#ffffff;stroke-width:4;stroke-linecap:round;stroke-linejoin:round;stroke-dasharray:none;stroke-opacity:1;paint-order:stroke markers fill"
           d="m 53.757913,79.400126 c 5.868461,-8.065253 6.033617,-12.51901 4.446169,-13.878285 -4.160296,-3.562312 -11.64197,6.285486 -13.723312,12.589771 m 17.57812,5.531155 c 4.183328,-5.275731 6.290004,-10.455994 6.928156,-14.857418 M 68.74141,62.074279 C 68.233275,60.126603 67.329837,58.59393 66.159033,57.620024 56.624042,49.68857 40.443443,60.251753 33.697392,77.797935 M 74.418725,80.25 c 11.322562,-14.279252 4.99668,-35.698011 -10.452196,-36.167969 -7.84643,-0.23869 -14.059593,1.670891 -20.870854,6.982864 m -5.967706,4.7096 C 32.409709,60.52306 28.595074,66.515307 26.331275,73.372247 M 81.75,85 C 98.135871,64.335243 87.714844,37.137149 65.357422,36.457031 43,35.776913 25,48.757812 16.5,74.503906" /></g><text
         xml:space="preserve"
         style="display:inline;font-style:normal;font-variant:normal;font-weight:bold;font-stretch:normal;font-size:16px;line-height:1;font-family:Mikado;-inkscape-font-specification:'Mikado Bold';text-align:center;text-decoration:none;text-decoration-line:none;text-decoration-color:#000000;letter-spacing:0px;word-spacing:0px;text-anchor:middle;fill:#d5425d;fill-opacity:1;stroke:none;stroke-width:4;stroke-linecap:round;stroke-linejoin:round;stroke-dasharray:none;stroke-opacity:1;paint-order:stroke markers fill"
         x="64.041504"
         y="92.802559"
         id="text10"><tspan
           sodipodi:role="line"
           id="tspan10"
           x="64.041504"
           y="92.802559">AADHAAR</tspan></text></g></g></svg>
