<?xml version="1.0" encoding="UTF-8" standalone="no"?>
<!-- Created with Inkscape (http://www.inkscape.org/) -->

<svg
   enable-background="new"
   inkscape:export-ydpi="384"
   inkscape:export-xdpi="384"
   inkscape:export-filename="..\app\src\main\res\drawable-nodpi\marrow.png"
   sodipodi:docname="marrow.svg"
   inkscape:version="1.3 (0e150ed6c4, 2023-07-21)"
   id="svg8"
   version="1.1"
   viewBox="0 0 128 128"
   height="128"
   width="128"
   xml:space="preserve"
   xmlns:inkscape="http://www.inkscape.org/namespaces/inkscape"
   xmlns:sodipodi="http://sodipodi.sourceforge.net/DTD/sodipodi-0.dtd"
   xmlns="http://www.w3.org/2000/svg"
   xmlns:svg="http://www.w3.org/2000/svg"
   xmlns:rdf="http://www.w3.org/1999/02/22-rdf-syntax-ns#"
   xmlns:cc="http://creativecommons.org/ns#"
   xmlns:dc="http://purl.org/dc/elements/1.1/"><sodipodi:namedview
     id="base"
     pagecolor="#ffffff"
     bordercolor="#666666"
     borderopacity="1.0"
     inkscape:pageopacity="0.0"
     inkscape:pageshadow="2"
     inkscape:zoom="2"
     inkscape:cx="-20"
     inkscape:cy="182"
     inkscape:document-units="px"
     inkscape:current-layer="g2664"
     showgrid="true"
     units="px"
     inkscape:pagecheckerboard="true"
     borderlayer="true"
     gridtolerance="10"
     inkscape:snap-smooth-nodes="true"
     inkscape:snap-text-baseline="true"
     inkscape:snap-page="true"
     showguides="true"
     inkscape:guide-bbox="true"
     inkscape:snap-object-midpoints="true"
     inkscape:snap-center="true"
     inkscape:snap-global="true"
     inkscape:lockguides="false"
     inkscape:snap-bbox="true"
     inkscape:bbox-nodes="true"
     inkscape:showpageshadow="0"
     inkscape:deskcolor="#d1d1d1"
     inkscape:window-width="1852"
     inkscape:window-height="1057"
     inkscape:window-x="60"
     inkscape:window-y="-8"
     inkscape:window-maximized="1"><inkscape:grid
       enabled="false"
       empspacing="4"
       id="grid4131"
       type="xygrid"
       spacingx="8"
       spacingy="8"
       originx="0"
       originy="0"
       units="px"
       visible="true" /><inkscape:grid
       empspacing="4"
       id="grid4167"
       type="xygrid"
       originx="0"
       originy="0"
       spacingy="1"
       spacingx="1"
       units="px"
       visible="true" /></sodipodi:namedview><defs
     id="defs2"><mask
       maskUnits="userSpaceOnUse"
       id="mask2"><path
         style="opacity:1;vector-effect:none;fill:none;fill-opacity:1;fill-rule:nonzero;stroke:#ffffff;stroke-width:8;stroke-linecap:butt;stroke-linejoin:round;stroke-miterlimit:4;stroke-dasharray:none;stroke-dashoffset:0;stroke-opacity:1;paint-order:stroke fill markers"
         d="m 40,32.75 a 2.0002,2.0002 0 1 0 0,4 c 1.728144,0 4.407265,1.100343 6.443359,2.716797 1.184951,0.940731 2.083998,2.041102 2.638672,3.001953 C 37.990118,46.863099 34.405177,56.508178 34.048828,66.320312 25.727557,64.953611 22.664327,55.21362 26.46875,49.705078 a 3.0003,3.0003 0 0 0 -2.476562,-4.740234 3.0003,3.0003 0 0 0 -2.460938,1.330078 c -6.683373,9.677061 -0.299161,24.943044 12.90625,26.111328 1.169184,5.635877 4.686394,9.642815 10.142578,12.181641 -1.640681,3.824944 -5.530429,7.647329 -8.763672,8.513671 a 3.0006148,3.0006148 0 1 0 1.552735,5.796876 C 43.252866,97.321898 48.110814,92.325409 50.289062,86.533203 54.251174,87.510071 58.834636,88 64,88 c 5.165364,0 9.748827,-0.489929 13.710938,-1.466797 2.178248,5.792206 7.036196,10.788695 12.919921,12.365235 a 3.0006148,3.0006148 0 1 0 1.552735,-5.796876 C 88.950351,92.23522 85.060603,88.412835 83.419922,84.587891 88.876106,82.049065 92.393316,78.042127 93.5625,72.40625 106.76791,71.237966 113.15212,55.971983 106.46875,46.294922 a 3.0003,3.0003 0 0 0 -2.46094,-1.330078 3.0003,3.0003 0 0 0 -2.47656,4.740234 c 3.80442,5.508542 0.74119,15.248533 -7.580078,16.615234 C 93.594823,56.508178 90.009882,46.863099 78.917969,42.46875 79.472643,41.507899 80.37169,40.407528 81.556641,39.466797 83.592735,37.850343 86.271856,36.75 88,36.75 a 2.0002,2.0002 0 1 0 0,-4 c -3.16014,0 -6.33426,1.523477 -8.929688,3.583984 -1.73283,1.375694 -3.263667,3.010315 -4.101562,4.888672 C 71.813706,40.439167 68.187024,40 64,40 59.812976,40 56.186294,40.439167 53.03125,41.222656 52.193355,39.344299 50.662517,37.709678 48.929688,36.333984 46.33426,34.273477 43.16014,32.75 40,32.75 Z"
         id="path3"
         inkscape:connector-curvature="0" /></mask><clipPath
       clipPathUnits="userSpaceOnUse"
       id="clipPath4"><path
         id="path5"
         style="fill:#ff8090;stroke:#d5425d;stroke-width:8;stroke-linecap:round;stroke-linejoin:round;paint-order:stroke markers fill"
         d="m 28.467884,74.50399 c 0,-20.164977 15.90827,-36.511921 35.532116,-36.511921 19.623846,0 35.532116,16.346944 35.532116,36.511921 z"
         sodipodi:nodetypes="cscc" /></clipPath><filter
       style="color-interpolation-filters:sRGB"
       id="filter9"
       inkscape:label="filter1"
       x="-0.075030012"
       y="-0.063846546"
       width="1.187575"
       height="1.1915396"><feFlood
         id="feFlood9"
         result="result3"
         flood-color="rgb(41,171,224)"
         flood-opacity="0.5" /><feOffset
         dx="2"
         dy="4"
         id="feOffset9"
         result="result1"
         in="SourceGraphic" /><feComposite
         id="feComposite9"
         in2="result1"
         operator="in"
         result="result2"
         in="result3" /><feMerge
         id="feMerge9"><feMergeNode
           inkscape:collect="always"
           id="feMergeNode9"
           in="result2" /><feMergeNode
           inkscape:collect="always"
           id="feMergeNode10"
           in="SourceGraphic" /></feMerge></filter></defs><metadata
     id="metadata5"><rdf:RDF><cc:Work
         rdf:about=""><dc:format>image/svg+xml</dc:format><dc:type
           rdf:resource="http://purl.org/dc/dcmitype/StillImage" /></cc:Work></rdf:RDF></metadata><style
     id="style2296">.B{fill:#fc9abf}.C{fill:#ffc7df}.D{fill:#ed84cb}.E{fill-opacity:1}.F{stroke:none}</style><g
     style="display:inline"
     inkscape:label="retroarch"
     id="g2664"
     inkscape:groupmode="layer"><circle
       r="60"
       cy="64"
       cx="64"
       id="circle2653"
       style="display:inline;opacity:1;vector-effect:none;fill:#7fdeed;fill-opacity:1;fill-rule:nonzero;stroke:#29abe0;stroke-width:4;stroke-linecap:butt;stroke-linejoin:round;stroke-miterlimit:4;stroke-dasharray:none;stroke-dashoffset:0;stroke-opacity:1;paint-order:fill markers stroke" /><text
       xml:space="preserve"
       style="font-style:normal;font-variant:normal;font-weight:bold;font-stretch:normal;font-size:64px;line-height:0.5;font-family:Mikado;-inkscape-font-specification:'Mikado Bold';text-align:center;text-decoration:none;text-decoration-line:none;text-decoration-color:#000000;letter-spacing:0px;word-spacing:0px;text-anchor:middle;fill:#ffffff;fill-opacity:1;stroke:#29abe0;stroke-width:8;stroke-linecap:round;stroke-linejoin:round;stroke-dasharray:none;stroke-opacity:1;paint-order:stroke markers fill;filter:url(#filter9)"
       x="64"
       y="78.109108"
       id="text10"><tspan
         sodipodi:role="line"
         id="tspan10"
         x="64"
         y="78.109108">M</tspan><tspan
         sodipodi:role="line"
         x="64"
         y="110.10911"
         id="tspan11">—</tspan></text></g></svg>
