<?xml version="1.0" encoding="UTF-8" standalone="no"?>
<!-- Created with Inkscape (http://www.inkscape.org/) -->

<svg
   enable-background="new"
   inkscape:export-ydpi="384"
   inkscape:export-xdpi="384"
   inkscape:export-filename="..\app\src\main\res\drawable-nodpi\merriam_webster_dictionary.png"
   sodipodi:docname="merriam_webster_dictionary.svg"
   inkscape:version="1.3 (0e150ed6c4, 2023-07-21)"
   id="svg8"
   version="1.1"
   viewBox="0 0 128 128"
   height="128"
   width="128"
   xml:space="preserve"
   xmlns:inkscape="http://www.inkscape.org/namespaces/inkscape"
   xmlns:sodipodi="http://sodipodi.sourceforge.net/DTD/sodipodi-0.dtd"
   xmlns="http://www.w3.org/2000/svg"
   xmlns:svg="http://www.w3.org/2000/svg"
   xmlns:rdf="http://www.w3.org/1999/02/22-rdf-syntax-ns#"
   xmlns:cc="http://creativecommons.org/ns#"
   xmlns:dc="http://purl.org/dc/elements/1.1/"><sodipodi:namedview
     id="base"
     pagecolor="#ffffff"
     bordercolor="#666666"
     borderopacity="1.0"
     inkscape:pageopacity="0.0"
     inkscape:pageshadow="2"
     inkscape:zoom="2.8284271"
     inkscape:cx="34.648232"
     inkscape:cy="37.123106"
     inkscape:document-units="px"
     inkscape:current-layer="g1197"
     showgrid="true"
     units="px"
     inkscape:pagecheckerboard="true"
     borderlayer="true"
     gridtolerance="10"
     inkscape:snap-smooth-nodes="true"
     inkscape:snap-text-baseline="true"
     inkscape:snap-page="true"
     showguides="true"
     inkscape:guide-bbox="true"
     inkscape:snap-object-midpoints="true"
     inkscape:snap-center="true"
     inkscape:snap-global="true"
     inkscape:lockguides="false"
     inkscape:snap-bbox="true"
     inkscape:bbox-nodes="true"
     inkscape:showpageshadow="0"
     inkscape:deskcolor="#d1d1d1"
     inkscape:window-width="1852"
     inkscape:window-height="1057"
     inkscape:window-x="60"
     inkscape:window-y="-8"
     inkscape:window-maximized="1"><inkscape:grid
       enabled="false"
       empspacing="4"
       id="grid4131"
       type="xygrid"
       spacingx="8"
       spacingy="8"
       originx="0"
       originy="0"
       units="px"
       visible="true" /><inkscape:grid
       empspacing="4"
       id="grid4167"
       type="xygrid"
       originx="0"
       originy="0"
       spacingy="1"
       spacingx="1"
       units="px"
       visible="true" /></sodipodi:namedview><defs
     id="defs2" /><metadata
     id="metadata5"><rdf:RDF><cc:Work
         rdf:about=""><dc:format>image/svg+xml</dc:format><dc:type
           rdf:resource="http://purl.org/dc/dcmitype/StillImage" /></cc:Work></rdf:RDF></metadata><style
     id="style2296">.B{fill:#fc9abf}.C{fill:#ffc7df}.D{fill:#ed84cb}.E{fill-opacity:1}.F{stroke:none}</style><g
     inkscape:label="dictionary.com"
     id="g1197"
     inkscape:groupmode="layer"
     style="display:inline"><circle
       r="60"
       cy="64"
       cx="64"
       id="circle1185"
       style="opacity:1;vector-effect:none;fill:#ff8090;fill-opacity:1;fill-rule:nonzero;stroke:#d5425d;stroke-width:4;stroke-linecap:butt;stroke-linejoin:round;stroke-miterlimit:4;stroke-dasharray:none;stroke-dashoffset:0;stroke-opacity:1;paint-order:fill markers stroke" /><path
       sodipodi:nodetypes="cc"
       inkscape:connector-curvature="0"
       id="path1187"
       d="M 35.402652,99.027312 C 33.816475,90.470744 34.074774,75.756619 34.023976,65.395698"
       style="opacity:1;vector-effect:none;fill:#ede0d7;fill-opacity:1;fill-rule:nonzero;stroke:#893c4b;stroke-width:4;stroke-linecap:butt;stroke-linejoin:round;stroke-miterlimit:4;stroke-dasharray:none;stroke-dashoffset:0;stroke-opacity:1;paint-order:fill markers stroke" /><path
       style="color:#000000;font-style:normal;font-variant:normal;font-weight:normal;font-stretch:normal;font-size:medium;line-height:normal;font-family:sans-serif;font-variant-ligatures:normal;font-variant-position:normal;font-variant-caps:normal;font-variant-numeric:normal;font-variant-alternates:normal;font-feature-settings:normal;text-indent:0;text-align:start;text-decoration:none;text-decoration-line:none;text-decoration-style:solid;text-decoration-color:#000000;letter-spacing:normal;word-spacing:normal;text-transform:none;writing-mode:lr-tb;direction:ltr;text-orientation:mixed;dominant-baseline:auto;baseline-shift:baseline;text-anchor:start;white-space:normal;shape-padding:0;clip-rule:nonzero;display:inline;overflow:visible;visibility:visible;opacity:0.5;isolation:auto;mix-blend-mode:normal;color-interpolation:sRGB;color-interpolation-filters:linearRGB;solid-color:#000000;solid-opacity:1;vector-effect:none;fill:#893c4b;fill-opacity:1;fill-rule:nonzero;stroke:none;stroke-width:4;stroke-linecap:butt;stroke-linejoin:round;stroke-miterlimit:4;stroke-dasharray:none;stroke-dashoffset:0;stroke-opacity:1;paint-order:fill markers stroke;color-rendering:auto;image-rendering:auto;shape-rendering:auto;text-rendering:auto;enable-background:accumulate"
       d="m 66,26.84766 c -7.10056,0 -13.56202,0.221563 -18.60742,0.556641 -5.04541,0.335078 -8.40643,0.658439 -10.3711,1.314453 -0.588251,0.196368 -1.052143,0.654488 -1.25586,1.240234 -0.37954,1.090691 -0.56442,2.437434 -0.77148,4.394532 -0.20706,1.957097 -0.38439,4.438598 -0.53125,7.380859 C 34.16917,47.618901 34,55.338923 34,64.203129 c 0,1.795487 0.01189,3.507399 0.02539,5.203125 h -0.002 c 0.0491,10.022126 -0.23465,24.13292 1.27734,33.181636 0.0139,0.11938 0.04155,0.23788 0.06055,0.35742 0.0256,0.14643 0.04762,0.30369 0.07422,0.44727 l 0.01367,-0.002 c 0.19347,0.897 0.52359,1.78563 1.08008,2.60156 0.9418,1.38087 2.60188,2.47723 4.61328,2.63086 3.44702,0.26328 15.14418,0.46737 26.89453,0.51757 5.87518,0.0251 11.71867,0.007 16.43945,-0.0723 4.72079,-0.0795 8.1164,-0.17254 9.87891,-0.4668 0.865034,-0.14464 1.534945,-0.83593 1.65234,-1.70508 0.39433,-2.92051 1.25212,-6.81107 1.22071,-15.39257 0.1135,-1.449126 0.21807,-3.020402 0.30859,-4.833984 C 97.83091,80.785491 98,73.067335 98,64.203129 98,55.338923 97.83083,47.618901 97.53711,41.734379 97.39025,38.792118 97.21292,36.310617 97.00586,34.35352 96.7988,32.396422 96.61392,31.049679 96.23438,29.958988 96.030663,29.373242 95.566771,28.915122 94.97852,28.718754 93.01385,28.06274 89.65283,27.739379 84.60742,27.404301 79.56202,27.069223 73.10056,26.84766 66,26.84766 Z"
       id="path2119-5"
       inkscape:connector-curvature="0"
       sodipodi:nodetypes="ssccssscccccccsscccccsssccss" /><path
       sodipodi:nodetypes="csscc"
       inkscape:connector-curvature="0"
       id="path1189"
       d="m 37.419118,93.790089 c -1.339079,0 -2.181908,1.781153 -2.181908,3.745683 0,2.30934 1.164647,4.872138 4.056908,5.093038 6.321236,0.48282 47.437552,0.88387 52.731672,0 0.44231,-3.275868 1.36098,-7.098428 1.19431,-16.819588"
       style="opacity:1;vector-effect:none;fill:#ede0d7;fill-opacity:1;fill-rule:nonzero;stroke:#893c4b;stroke-width:4;stroke-linecap:butt;stroke-linejoin:round;stroke-miterlimit:4;stroke-dasharray:none;stroke-dashoffset:0;stroke-opacity:1;paint-order:fill markers stroke" /><path
       sodipodi:nodetypes="scscscscs"
       inkscape:connector-curvature="0"
       id="path1191"
       d="M 94,60.20295 C 94,42.525508 93.32423,29.428137 92.34559,26.61581 89.69853,25.731938 78.11765,24.848066 64,24.848066 c -14.117648,0 -25.69853,0.883872 -28.345588,1.767744 C 34.675771,29.428137 34,42.525508 34,60.20295 c 0,17.677442 0.675771,30.774812 1.654412,33.587139 2.647058,-0.04402 14.22794,-0.08804 28.345588,-0.08804 14.11765,0 25.69853,0.04402 28.34559,0.08804 C 93.32423,90.977762 94,77.880392 94,60.20295 Z"
       style="opacity:1;vector-effect:none;fill:#3a76c3;fill-opacity:1;fill-rule:nonzero;stroke:none;stroke-width:4;stroke-linecap:butt;stroke-linejoin:round;stroke-miterlimit:4;stroke-dasharray:none;stroke-dashoffset:0;stroke-opacity:1;paint-order:fill markers stroke" /><path
       style="fill:#ea6177;fill-opacity:1;stroke:none;stroke-width:4;stroke-linecap:round;stroke-linejoin:round;paint-order:stroke fill markers"
       d="M 93.2201,32.776861 C 80,30 48.240565,30.178755 34.786664,32.776861 L 34,60.20295 35.654412,93.790089 H 92.34559 L 94,60.20295 Z"
       id="path1"
       sodipodi:nodetypes="ccccccc" /><path
       sodipodi:nodetypes="scscscscs"
       inkscape:connector-curvature="0"
       id="path2"
       d="M 94,60.20295 C 94,42.525508 93.32423,29.428137 92.34559,26.61581 89.69853,25.731938 78.11765,24.848066 64,24.848066 c -14.117648,0 -25.69853,0.883872 -28.345588,1.767744 C 34.675771,29.428137 34,42.525508 34,60.20295 c 0,17.677442 0.675771,30.774812 1.654412,33.587139 2.647058,-0.04402 14.22794,-0.08804 28.345588,-0.08804 14.11765,0 25.69853,0.04402 28.34559,0.08804 C 93.32423,90.977762 94,77.880392 94,60.20295 Z"
       style="opacity:1;vector-effect:none;fill:none;fill-opacity:1;fill-rule:nonzero;stroke:#893c4b;stroke-width:4;stroke-linecap:butt;stroke-linejoin:round;stroke-miterlimit:4;stroke-dasharray:none;stroke-dashoffset:0;stroke-opacity:1;paint-order:fill markers stroke" /><ellipse
       style="fill:#ffffff;fill-opacity:1;stroke:none;stroke-width:2;stroke-linecap:round;stroke-linejoin:round;stroke-dasharray:none;stroke-opacity:1;paint-order:fill markers stroke"
       id="circle1"
       cx="64"
       cy="55"
       rx="24"
       ry="23" /><ellipse
       style="fill:#ffffff;fill-opacity:1;stroke:#3a76c3;stroke-width:2;stroke-linecap:round;stroke-linejoin:round;stroke-dasharray:none;stroke-opacity:1;paint-order:fill markers stroke"
       id="path3"
       cx="64"
       cy="55"
       rx="21"
       ry="20" /><path
       d="m 56.392797,54.749167 c 0,0 6.555186,0.105051 6.618217,0.105051 0.06303,0 -0.126062,-2.94143 -0.126062,-3.004461 0,-0.06303 -1.491725,-0.105051 -1.491725,-0.231112 0,-0.126061 -0.168081,-5.651747 -0.147071,-5.651747 0.02101,0 1.470715,2.290113 1.533745,2.353144 0.06303,0.06303 1.890919,-0.147072 1.93294,-0.147072 0.04202,0 1.512735,-2.206072 1.512735,-2.206072 l -0.04202,5.861849 c 0,0.06303 -1.302633,0.04203 -1.407684,0.06303 -0.105051,0.02101 -0.04202,2.605266 -0.04202,2.878399 0,0.273133 6.9964,0.189092 7.059431,0.210102 0.06303,0.02101 -0.168082,-2.920419 -0.168082,-3.06749 0,-0.147072 -1.533745,-0.04202 -1.617786,-0.189092 -0.08404,-0.147072 -0.08404,-8.299034 -0.06303,-8.299034 0.02101,0 1.533745,-0.04202 1.533745,-0.210102 0,-0.168081 -0.04202,-3.172542 -0.04202,-3.214562 0,-0.04202 -5.063461,-0.105051 -5.189522,0 -0.126061,0.105051 -2.542236,3.571735 -2.647287,3.760828 -0.105051,-0.189093 -2.269102,-3.718808 -2.374153,-3.781838 -0.105051,-0.06303 -4.874369,-0.105051 -4.97942,0.02101 -0.105051,0.12606 -0.04202,3.319613 0.168081,3.445674 0.210102,0.126061 1.260613,-0.04202 1.281623,0.105051 0.02101,0.147071 0.06303,8.025901 0.06303,8.088931 0,0.06303 -1.302632,0 -1.470715,0.08404 -0.168081,0.08404 0.06048,2.980901 0.105052,3.02547 z"
       id="path5"
       sodipodi:nodetypes="cssssssccssssssssscsssssssc"
       style="font-size:24.2128px;line-height:1;font-family:'HVD Comic Serif Pro';-inkscape-font-specification:'HVD Comic Serif Pro';text-align:center;letter-spacing:0px;word-spacing:0px;text-anchor:middle;fill:#404861;stroke-width:4.00001;stroke-linecap:round;stroke-linejoin:round;paint-order:stroke fill markers" /><path
       d="m 54.507981,56.139983 c 0,-0.04202 -0.399194,2.815369 -0.252123,2.815369 0.147072,0 1.386674,0.12606 1.491726,0.273132 0.105051,0.147072 2.857389,11.366524 3.02547,11.429555 0.168081,0.06303 2.626276,0.06303 2.626276,0.06303 0,0 2.500215,-5.609726 2.584256,-5.588716 0.08404,0.02101 2.626277,5.567706 2.710317,5.567706 0.08404,0 2.983451,-0.04203 2.983451,-0.04203 0,0 2.710317,-11.345514 2.731327,-11.345514 0.02101,0 1.365664,-0.105051 1.365664,-0.105051 0,0 0.02101,-3.172541 -0.06303,-3.172541 -0.08404,0 -7.437615,0 -7.479635,0.06303 -0.04202,0.06303 0.02101,3.067491 0.06303,3.0885 0.04202,0.02101 2.122032,0.06303 2.164052,0.06303 0.04202,0 -0.861418,4.601237 -0.861418,4.685277 0,0.08404 -2.479206,-4.706287 -2.521226,-4.727297 -0.04202,-0.02101 -2.185062,-0.08404 -2.206072,-0.08404 -0.02101,0 -1.806878,4.559215 -1.869909,4.601236 -0.06303,0.04202 -1.281623,-4.475175 -1.218592,-4.475175 0.06303,0 1.743848,-0.02101 1.701827,-0.126061 -0.04202,-0.105051 0.02101,-3.088501 -0.04202,-3.088501 -0.06303,0 -6.93337,0.105051 -6.93337,0.105051 z"
       id="path6"
       style="font-size:24.2128px;line-height:1;font-family:'HVD Comic Serif Pro';-inkscape-font-specification:'HVD Comic Serif Pro';text-align:center;letter-spacing:0px;word-spacing:0px;text-anchor:middle;fill:#404861;stroke-width:4.00001;stroke-linecap:round;stroke-linejoin:round;paint-order:stroke fill markers" /><path
       style="opacity:1;fill:#3a76c3;fill-opacity:1;stroke:none;stroke-width:2;stroke-linecap:round;stroke-linejoin:round;stroke-dasharray:none;stroke-opacity:1;paint-order:fill markers stroke"
       d="m 43.8,80 c 0.2,4 0.3,6 0.6,8 10.6,0.6 28.6,0.6 39.2,0 0.3,-2 0.4,-4 0.6,-8 -11,0.1 -29.4,0.1 -40.4,0 z"
       id="path8"
       sodipodi:nodetypes="ccccc" /></g></svg>
