<?xml version="1.0" encoding="UTF-8" standalone="no"?>
<!-- Created with Inkscape (http://www.inkscape.org/) -->

<svg
   enable-background="new"
   inkscape:export-ydpi="384"
   inkscape:export-xdpi="384"
   inkscape:export-filename="..\app\src\main\res\drawable-nodpi\metronome.png"
   sodipodi:docname="metronome.svg"
   inkscape:version="1.3 (0e150ed6c4, 2023-07-21)"
   id="svg8"
   version="1.1"
   viewBox="0 0 128 128"
   height="128"
   width="128"
   xml:space="preserve"
   xmlns:inkscape="http://www.inkscape.org/namespaces/inkscape"
   xmlns:sodipodi="http://sodipodi.sourceforge.net/DTD/sodipodi-0.dtd"
   xmlns="http://www.w3.org/2000/svg"
   xmlns:svg="http://www.w3.org/2000/svg"
   xmlns:rdf="http://www.w3.org/1999/02/22-rdf-syntax-ns#"
   xmlns:cc="http://creativecommons.org/ns#"
   xmlns:dc="http://purl.org/dc/elements/1.1/"><sodipodi:namedview
     id="base"
     pagecolor="#ffffff"
     bordercolor="#666666"
     borderopacity="1.0"
     inkscape:pageopacity="0.0"
     inkscape:pageshadow="2"
     inkscape:zoom="5.7636266"
     inkscape:cx="86.577434"
     inkscape:cy="77.902341"
     inkscape:document-units="px"
     inkscape:current-layer="g1"
     showgrid="false"
     units="px"
     inkscape:pagecheckerboard="true"
     borderlayer="true"
     gridtolerance="10"
     inkscape:snap-smooth-nodes="true"
     inkscape:snap-text-baseline="true"
     inkscape:snap-page="true"
     showguides="true"
     inkscape:guide-bbox="true"
     inkscape:snap-object-midpoints="true"
     inkscape:snap-center="true"
     inkscape:snap-global="true"
     inkscape:lockguides="false"
     inkscape:snap-bbox="true"
     inkscape:bbox-nodes="true"
     inkscape:showpageshadow="0"
     inkscape:deskcolor="#d1d1d1"
     inkscape:window-width="1852"
     inkscape:window-height="1057"
     inkscape:window-x="60"
     inkscape:window-y="-8"
     inkscape:window-maximized="1"><inkscape:grid
       enabled="false"
       empspacing="4"
       id="grid4131"
       type="xygrid"
       spacingx="8"
       spacingy="8"
       originx="0"
       originy="0"
       units="px"
       visible="false" /><inkscape:grid
       empspacing="4"
       id="grid4167"
       type="xygrid"
       originx="0"
       originy="0"
       spacingy="1"
       spacingx="1"
       units="px"
       visible="false" /></sodipodi:namedview><defs
     id="defs2"><clipPath
       clipPathUnits="userSpaceOnUse"
       id="clipPath1943"><circle
         r="60"
         cy="64"
         cx="64"
         id="circle1945"
         style="display:inline;opacity:1;vector-effect:none;fill:#e37589;fill-opacity:1;fill-rule:nonzero;stroke:none;stroke-width:4;stroke-linecap:butt;stroke-linejoin:round;stroke-miterlimit:4;stroke-dasharray:none;stroke-dashoffset:0;stroke-opacity:1;paint-order:fill markers stroke" /></clipPath><filter
       id="filter4866"
       inkscape:label="Drop Shadow"
       style="color-interpolation-filters:sRGB"
       x="0"
       y="-0.017699115"
       width="1.015625"
       height="0.85840708"><feFlood
         id="feFlood4858"
         result="flood"
         flood-color="rgb(134,123,106)"
         flood-opacity="0.498039" /><feComposite
         id="feComposite4860"
         result="composite1"
         operator="in"
         in2="SourceGraphic"
         in="flood" /><feOffset
         id="feOffset4862"
         result="offset"
         dy="4"
         dx="2" /><feComposite
         id="feComposite4864"
         result="composite2"
         operator="over"
         in2="offset"
         in="SourceGraphic" /></filter><clipPath
       clipPathUnits="userSpaceOnUse"
       id="clipPath37"><path
         d="M 128,0 H 0 V 76 H 41.800781 C 45.800777,76.349955 54.00001,77 64,77 73.99999,77 82.199223,76.349955 86.199219,76 H 128 Z"
         style="fill:#4c4c4c;fill-opacity:1;stroke:none;stroke-width:4;stroke-linejoin:round;stroke-dasharray:none;stroke-opacity:1;paint-order:fill markers stroke"
         id="path37" /></clipPath></defs><metadata
     id="metadata5"><rdf:RDF><cc:Work
         rdf:about=""><dc:format>image/svg+xml</dc:format><dc:type
           rdf:resource="http://purl.org/dc/dcmitype/StillImage" /></cc:Work></rdf:RDF></metadata><style
     id="style2296">.B{fill:#fc9abf}.C{fill:#ffc7df}.D{fill:#ed84cb}.E{fill-opacity:1}.F{stroke:none}</style><g
     inkscape:groupmode="layer"
     id="g35"
     inkscape:label="metronome"
     style="display:inline"><g
       inkscape:groupmode="maskhelper"
       id="g34"
       clip-path="url(#clipPath1943)"><rect
         ry="2"
         rx="2"
         y="0"
         x="0"
         height="128"
         width="128"
         id="rect28"
         style="opacity:1;vector-effect:none;fill:#dbd3b9;fill-opacity:1;fill-rule:nonzero;stroke:none;stroke-width:6;stroke-linecap:butt;stroke-linejoin:round;stroke-miterlimit:4;stroke-dasharray:none;stroke-dashoffset:0;stroke-opacity:1;paint-order:fill markers stroke" /></g><circle
       style="display:inline;opacity:1;vector-effect:none;fill:none;fill-opacity:1;fill-rule:nonzero;stroke:#867b6a;stroke-width:4;stroke-linecap:butt;stroke-linejoin:round;stroke-miterlimit:4;stroke-dasharray:none;stroke-dashoffset:0;stroke-opacity:1;paint-order:fill markers stroke"
       id="circle34"
       cx="64"
       cy="64"
       r="60" /><g
       id="g1"
       style="filter:url(#filter4866)"><path
         id="rect35"
         style="opacity:1;fill:#c3533a;fill-opacity:1;stroke:#614440;stroke-width:4;stroke-linejoin:round;stroke-dasharray:none;stroke-opacity:1;paint-order:fill markers stroke"
         d="M 64,15 C 57.754392,15 51.732174,15.235649 49.010526,15.936842 44.049291,30.569434 35.068031,87.173466 34.021053,102.12632 38.683772,103.16483 54.007028,104 64,104 c 9.992972,0 25.316228,-0.83517 29.97895,-1.87368 C 92.93197,87.173466 83.950709,30.569434 78.989474,15.936842 76.267826,15.235649 70.245608,15 64,15 Z"
         sodipodi:nodetypes="sccsccs" /><g
         inkscape:groupmode="maskhelper"
         id="g37"
         clip-path="url(#clipPath37)"><path
           id="path35"
           style="display:inline;opacity:1;fill:#4c4c4c;fill-opacity:1;stroke:none;stroke-width:4;stroke-linejoin:round;stroke-dasharray:none;stroke-opacity:1;paint-order:fill markers stroke"
           d="M 0,126 41.800781,76 C 44.157127,57.712109 47.924463,37.628116 51,23.644531 53.994755,23.467267 60.000004,23 64,23 67.999996,23 74.005245,23.467267 77,23.644531 80.075537,37.628116 83.842873,57.712109 86.199219,76 L 128,126 v 2 H 0 Z"
           sodipodi:nodetypes="ccsccccccc" /><path
           id="rect36"
           style="display:inline;opacity:1;fill:#e2e2e2;fill-opacity:1;stroke-width:4;stroke-linejoin:round;paint-order:fill markers stroke"
           d="m 64,28 c -1.999998,0 -2.988937,0.06599 -4,0.199219 -0.205839,3.994696 -1,28.000997 -1,49.000976 1.002522,0.07033 2.000003,0.09961 5,0.09961 2.999997,0 3.997478,-0.02928 5,-0.09961 C 69,56.200216 68.205839,32.193915 68,28.199219 66.988937,28.065989 65.999998,28 64,28 Z"
           sodipodi:nodetypes="sccsccs" /><path
           style="color:#000000;display:inline;fill:#b48356;stroke-linejoin:round;-inkscape-stroke:none;paint-order:fill markers stroke"
           d="m 70.207057,77.85482 c 11.569262,-15.199717 28.36899,-39.116667 34.642553,-48.708336 -0.76176,-0.758141 -2.35218,-1.88882 -3.27539,-2.292968 -6.875396,9.309311 -24.448287,34.805207 -35.695181,51.259272 1.559742,-0.05087 2.974681,-0.127728 4.328018,-0.257968 z"
           id="path36"
           sodipodi:nodetypes="ccccc" /></g><path
         id="path38"
         style="opacity:1;fill:#cda949;fill-opacity:1;stroke:#b48356;stroke-width:4;stroke-linejoin:round;stroke-dasharray:none;stroke-opacity:1;paint-order:fill markers stroke"
         d="m 97.89303,35.777698 c -2.73995,-2.042343 -5.6359,-3.876216 -6.36368,-3.770053 -1.45556,0.212323 -7.194337,10.504655 -7.021214,11.691466 0.173124,1.186819 8.428564,7.340388 9.615374,7.167267 1.18681,-0.173123 9.41089,-8.612917 9.19857,-10.068487 -0.10616,-0.727779 -2.68911,-2.977848 -5.42905,-5.020193 z"
         sodipodi:nodetypes="ssssss" /><path
         style="color:#000000;fill:#f4d166;fill-opacity:1;stroke-linejoin:round;-inkscape-stroke:none;paint-order:fill markers stroke"
         d="m 89.423006,40.014365 c 0.187926,-0.338711 0.382007,-0.680926 0.578944,-1.020221 0.75612,-1.302691 1.56541,-2.574258 2.20312,-3.449219 l 10e-6,-3e-6 c 0.0812,0.04749 0.11342,0.05745 0.19922,0.109375 1.03157,0.624306 2.38643,1.553662 3.69531,2.529297 1.30888,0.975637 2.58799,2.008509 3.48047,2.818359 0.0737,0.06687 0.092,0.09447 0.16015,0.158203 -0.14041,0.184223 -0.29604,0.381106 -0.46406,0.587541 -3.15782,0.239958 -7.58792,-0.26849 -9.853164,-1.733332 z"
         id="path40"
         sodipodi:nodetypes="cssssssccc" /></g></g></svg>
