<?xml version="1.0" encoding="UTF-8" standalone="no"?>
<!-- Created with Inkscape (http://www.inkscape.org/) -->

<svg
   enable-background="new"
   inkscape:export-ydpi="384"
   inkscape:export-xdpi="384"
   inkscape:export-filename="..\app\src\main\res\drawable-nodpi\mullvad_vpn.png"
   sodipodi:docname="mullvad_vpn.svg"
   inkscape:version="1.3 (0e150ed6c4, 2023-07-21)"
   id="svg8"
   version="1.1"
   viewBox="0 0 128 128"
   height="128"
   width="128"
   xml:space="preserve"
   xmlns:inkscape="http://www.inkscape.org/namespaces/inkscape"
   xmlns:sodipodi="http://sodipodi.sourceforge.net/DTD/sodipodi-0.dtd"
   xmlns:xlink="http://www.w3.org/1999/xlink"
   xmlns="http://www.w3.org/2000/svg"
   xmlns:svg="http://www.w3.org/2000/svg"
   xmlns:rdf="http://www.w3.org/1999/02/22-rdf-syntax-ns#"
   xmlns:cc="http://creativecommons.org/ns#"
   xmlns:dc="http://purl.org/dc/elements/1.1/"><sodipodi:namedview
     id="base"
     pagecolor="#ffffff"
     bordercolor="#666666"
     borderopacity="1.0"
     inkscape:pageopacity="0.0"
     inkscape:pageshadow="2"
     inkscape:zoom="3.166267"
     inkscape:cx="52.743498"
     inkscape:cy="103.90785"
     inkscape:document-units="px"
     inkscape:current-layer="g2265"
     showgrid="false"
     units="px"
     inkscape:pagecheckerboard="true"
     borderlayer="true"
     gridtolerance="10"
     inkscape:snap-smooth-nodes="true"
     inkscape:snap-text-baseline="true"
     inkscape:snap-page="true"
     showguides="true"
     inkscape:guide-bbox="true"
     inkscape:snap-object-midpoints="true"
     inkscape:snap-center="true"
     inkscape:snap-global="true"
     inkscape:lockguides="false"
     inkscape:snap-bbox="true"
     inkscape:bbox-nodes="true"
     inkscape:showpageshadow="0"
     inkscape:deskcolor="#d1d1d1"
     inkscape:window-width="1920"
     inkscape:window-height="1057"
     inkscape:window-x="-8"
     inkscape:window-y="-8"
     inkscape:window-maximized="1"><inkscape:grid
       enabled="false"
       empspacing="4"
       id="grid4131"
       type="xygrid"
       spacingx="8"
       spacingy="8"
       originx="0"
       originy="0"
       units="px"
       visible="false" /><inkscape:grid
       empspacing="4"
       id="grid4167"
       type="xygrid"
       originx="0"
       originy="0"
       spacingy="1"
       spacingx="1"
       units="px"
       visible="false" /></sodipodi:namedview><defs
     id="defs2"><clipPath
       clipPathUnits="userSpaceOnUse"
       id="clipPath18"><rect
         style="fill:#9f6e4e;fill-opacity:1;stroke:none;stroke-width:4;stroke-linecap:round;stroke-linejoin:round;stroke-dasharray:none;stroke-opacity:1;paint-order:fill markers stroke"
         id="rect18"
         width="109.46402"
         height="69.454094"
         x="18.53598"
         y="13.846154" /></clipPath><filter
       style="color-interpolation-filters:sRGB"
       id="filter18"
       inkscape:label="filter1"
       x="-0.019600467"
       y="-0.02562668"
       width="1.0394607"
       height="1.0512401"><feFlood
         id="feFlood18"
         flood-color="rgb(55,55,55)"
         flood-opacity="0.5" /><feComposite
         id="feComposite18"
         operator="in"
         in2="SourceGraphic" /></filter></defs><metadata
     id="metadata5"><rdf:RDF><cc:Work
         rdf:about=""><dc:format>image/svg+xml</dc:format><dc:type
           rdf:resource="http://purl.org/dc/dcmitype/StillImage" /></cc:Work></rdf:RDF></metadata><style
     id="style2296">.B{fill:#fc9abf}.C{fill:#ffc7df}.D{fill:#ed84cb}.E{fill-opacity:1}.F{stroke:none}</style><g
     inkscape:groupmode="layer"
     id="g2265"
     inkscape:label="files コピー コピー"
     style="display:inline"
     sodipodi:insensitive="true"><circle
       style="display:inline;opacity:1;vector-effect:none;fill:#4c4c4c;fill-opacity:1;fill-rule:nonzero;stroke:#373737;stroke-width:4;stroke-linecap:butt;stroke-linejoin:round;stroke-miterlimit:4;stroke-dasharray:none;stroke-dashoffset:0;stroke-opacity:1;paint-order:fill markers stroke"
       id="circle2257"
       cx="64"
       cy="64"
       r="60" /></g><g
     inkscape:groupmode="layer"
     id="layer1"
     inkscape:label="files コピー コピー 1"
     style="display:inline"><g
       inkscape:groupmode="maskhelper"
       id="g18"
       clip-path="url(#clipPath18)"
       style="filter:url(#filter18)"><use
         x="0"
         y="0"
         xlink:href="#g17"
         id="use17"
         transform="translate(2,4)" /></g><g
       id="g17"><path
         style="fill:#9f6e4e;fill-opacity:1;stroke:none;stroke-width:4;stroke-linecap:round;stroke-linejoin:round;stroke-dasharray:none;stroke-opacity:1;paint-order:fill markers stroke"
         d="M 34.887268,71.414375 C 3.2153916,78.387193 1.9339101,96.66395 62.658888,96.66395 129,96.66395 123.00265,74.894379 90.485104,73.11449"
         id="path15"
         sodipodi:nodetypes="csc" /><path
         style="fill:#af8f7c;fill-opacity:1;stroke:none;stroke-width:4;stroke-linecap:round;stroke-linejoin:round;stroke-dasharray:none;stroke-opacity:1;paint-order:fill markers stroke"
         d="m 34.719921,94.914301 c 24.627944,4.289057 60.364211,1.180681 69.937529,-3.20676 -4.27283,-8.072305 -41.12147,-10.752206 -41.12147,-10.752206 0,0 -41.217725,0.895599 -28.816059,13.958966 z"
         id="path14" /><path
         id="path13"
         style="fill:none;fill-opacity:1;stroke:#373737;stroke-width:4;stroke-linecap:round;stroke-linejoin:round;stroke-dasharray:none;stroke-opacity:1;paint-order:fill markers stroke"
         d="M 34.887268,71.414375 C 3.2153916,78.387193 1.9339101,96.66395 62.658888,96.66395 M 114.10389,83.628794 c 0,-5.00781 -9.20349,-9.725265 -23.618786,-10.514304" /><path
         style="fill:#af8f7c;fill-opacity:1;stroke:#614840;stroke-width:4;stroke-linecap:round;stroke-linejoin:round;stroke-dasharray:none;stroke-opacity:1;paint-order:fill markers stroke"
         d="m 38.448931,92.189047 c -1.06066,4.419417 -3.977475,6.894291 -7.513009,5.303301 -3.535534,-1.59099 -3.447146,-4.242641 -2.651651,-9.811107 0.795495,-5.568466 -5.899284,-13.406076 -2.270263,-27.502028 3.629021,-14.095952 21.7157,-27.829078 49.116088,-19.343796 27.400384,8.485281 32.199234,32.205009 29.521704,50.911688"
         id="path7"
         sodipodi:nodetypes="cssssc" /><path
         style="fill:none;fill-opacity:1;stroke:#373737;stroke-width:4;stroke-linecap:round;stroke-linejoin:round;stroke-dasharray:none;stroke-opacity:1;paint-order:fill markers stroke"
         d="m 62.658888,96.66395 c 36.931553,0 51.445002,-6.746515 51.445002,-13.035156"
         id="path16" /><path
         style="fill:#ede0d7;fill-opacity:1;stroke:#614840;stroke-width:2;stroke-linejoin:round;stroke-dasharray:none;stroke-opacity:1;paint-order:fill markers stroke"
         d="m 39.816068,58.590571 c -6.566387,-0.118092 -7.899886,4.826482 -7.584632,8.223722 0.315254,3.39724 2.250118,5.779746 8.870572,6.055123 6.222396,0.258815 10.234669,-1.506454 10.612983,-6.36836 0.411957,-5.294273 -3.911338,-7.766834 -11.898923,-7.910485 z"
         id="path1"
         sodipodi:nodetypes="sssss" /><path
         style="fill:#614840;fill-opacity:1;stroke:none;stroke-width:0.589222;stroke-linejoin:round;stroke-dasharray:none;stroke-opacity:1;paint-order:fill markers stroke"
         d="m 38.293068,56.676765 c -2.364151,-0.0088 -3.777885,2.071394 -3.638785,3.957371 0.161165,2.185151 2.118299,3.499626 4.34145,3.50789 2.296924,0.0085 3.895953,-1.306519 4.095428,-3.533097 0.21321,-2.379937 -1.92229,-3.921407 -4.798093,-3.932164 z"
         id="path2"
         sodipodi:nodetypes="sssss" /><path
         style="fill:none;fill-opacity:1;stroke:#614840;stroke-width:2;stroke-linecap:round;stroke-linejoin:round;stroke-dasharray:none;stroke-opacity:1;paint-order:fill markers stroke"
         d="m 49.29036,63.332905 c 1.854249,0.132139 3.419737,0.264776 5.89917,0.290801 m -0.438742,3.449961 c -2.068359,-0.39827 -3.706182,-0.316274 -5.486709,-0.393466"
         id="path3"
         sodipodi:nodetypes="cccc" /><path
         style="fill:none;fill-opacity:1;stroke:#614840;stroke-width:2;stroke-linecap:round;stroke-linejoin:round;stroke-dasharray:none;stroke-opacity:1;paint-order:fill markers stroke"
         d="m 28.014008,62.179213 c 1.663689,0.09364 3.534984,0.198621 5.44553,0.305741 m -0.17692,3.194409 c -2.02199,-0.165083 -3.744194,-0.211746 -5.276589,-0.183357"
         id="path4"
         sodipodi:nodetypes="cccc" /><path
         style="color:#000000;fill:#614840;stroke-linecap:round;stroke-linejoin:round;-inkscape-stroke:none;paint-order:fill markers stroke"
         d="m 30.501998,56.118687 c -0.355837,0.07813 -0.712038,0.543211 -0.754656,0.905022 -0.04683,0.397608 0.215088,0.907843 0.573565,1.086113 0.98889,0.491773 1.838824,0.40288 2.946845,0.305595 0.46948,-0.04122 0.889914,-0.433679 0.933277,-0.902966 0.0434,-0.469728 -0.318892,-0.89709 -0.750236,-1.088063 -1.040976,-0.460883 -1.819918,-0.553551 -2.948795,-0.305701 z"
         id="path5"
         sodipodi:nodetypes="sssssss" /><path
         style="color:#000000;fill:#614840;stroke-linecap:round;stroke-linejoin:round;-inkscape-stroke:none;paint-order:fill markers stroke"
         d="m 58.343347,57.745531 c -1.05541,-0.489755 -2.394703,-0.544885 -3.487492,-0.145432 -0.442782,0.161852 -1.022031,0.485319 -1.04197,0.956334 -0.01996,0.471482 0.530224,0.843438 0.958284,1.042076 1.055411,0.489755 2.394704,0.544884 3.487493,0.145432 0.442783,-0.161853 1.022035,-0.485318 1.041969,-0.956333 0.01995,-0.471482 -0.530224,-0.843439 -0.958284,-1.042077 z"
         id="path6"
         sodipodi:nodetypes="sssssss" /><path
         style="fill:#af8f7c;fill-opacity:1;stroke:#614840;stroke-width:4;stroke-linecap:round;stroke-linejoin:round;stroke-dasharray:none;stroke-opacity:1;paint-order:fill markers stroke"
         d="m 56.656931,92.01227 c -3.583402,6.759399 5.955416,11.40603 10.783379,2.032932"
         id="path8"
         sodipodi:nodetypes="cc" /><path
         style="fill:#e0d60d;fill-opacity:1;stroke:#b9a400;stroke-width:4;stroke-linecap:round;stroke-linejoin:round;stroke-dasharray:none;stroke-opacity:1;paint-order:fill markers stroke"
         d="M 84.575934,56.598002 C 71.086423,60.588249 57.709364,59.902816 45.036376,49.268916 36.14308,41.806554 42.79101,36.476816 53.28142,34.853545 62.124079,22.593577 81.252663,14.801832 98.475868,30.13382 c 11.551312,10.282908 6.699582,23.696323 2.401092,29.701066 -4.855648,0.373722 -10.3363,-0.63714 -16.301026,-3.236884 z"
         id="path9"
         sodipodi:nodetypes="cscscc" /><path
         style="fill:#e0d60d;fill-opacity:1;stroke:#b9a400;stroke-width:2;stroke-linecap:round;stroke-linejoin:round;stroke-dasharray:none;stroke-opacity:1;paint-order:fill markers stroke"
         d="M 58.533083,41.000309 C 65.30078,27.500558 79.083184,22.407293 90.867185,24.848804 c 2.434143,1.046169 4.163868,2.261883 5.730516,3.709342 -7.672112,-1.427143 -23.424977,-0.912671 -33.138686,16.1342"
         id="path11"
         sodipodi:nodetypes="cccc" /><path
         style="fill:none;fill-opacity:1;stroke:#b9a400;stroke-width:2;stroke-linecap:round;stroke-linejoin:round;stroke-dasharray:none;stroke-opacity:1;paint-order:fill markers stroke"
         d="M 53.28142,34.853545 C 57.295565,43.032137 74.787428,51.578678 84.676,55.598002"
         id="path10"
         sodipodi:nodetypes="cc" /><ellipse
         style="fill:#ffffff;fill-opacity:1;stroke:#b9a400;stroke-width:2;stroke-linecap:round;stroke-linejoin:round;stroke-dasharray:none;stroke-opacity:1;paint-order:fill markers stroke"
         id="path12"
         cx="74.969383"
         cy="-6.3065944"
         rx="5.8622832"
         ry="6.7555833"
         transform="rotate(32.797481)" /></g></g></svg>
