<?xml version="1.0" encoding="UTF-8" standalone="no"?>
<!-- Created with Inkscape (http://www.inkscape.org/) -->

<svg
   enable-background="new"
   inkscape:export-ydpi="384"
   inkscape:export-xdpi="384"
   inkscape:export-filename="..\app\src\main\res\drawable-nodpi\my_tamagotchi.png"
   sodipodi:docname="my_tamagotchi.svg"
   inkscape:version="1.3 (0e150ed6c4, 2023-07-21)"
   id="svg8"
   version="1.1"
   viewBox="0 0 128 128"
   height="128"
   width="128"
   xml:space="preserve"
   xmlns:inkscape="http://www.inkscape.org/namespaces/inkscape"
   xmlns:sodipodi="http://sodipodi.sourceforge.net/DTD/sodipodi-0.dtd"
   xmlns:xlink="http://www.w3.org/1999/xlink"
   xmlns="http://www.w3.org/2000/svg"
   xmlns:svg="http://www.w3.org/2000/svg"
   xmlns:rdf="http://www.w3.org/1999/02/22-rdf-syntax-ns#"
   xmlns:cc="http://creativecommons.org/ns#"
   xmlns:dc="http://purl.org/dc/elements/1.1/"><sodipodi:namedview
     id="base"
     pagecolor="#ffffff"
     bordercolor="#666666"
     borderopacity="1.0"
     inkscape:pageopacity="0.0"
     inkscape:pageshadow="2"
     inkscape:zoom="5.6568542"
     inkscape:cx="46.58066"
     inkscape:cy="76.54431"
     inkscape:document-units="px"
     inkscape:current-layer="g4118"
     showgrid="true"
     units="px"
     inkscape:pagecheckerboard="true"
     borderlayer="true"
     gridtolerance="10"
     inkscape:snap-smooth-nodes="true"
     inkscape:snap-text-baseline="true"
     inkscape:snap-page="true"
     showguides="true"
     inkscape:guide-bbox="true"
     inkscape:snap-object-midpoints="true"
     inkscape:snap-center="true"
     inkscape:snap-global="true"
     inkscape:lockguides="false"
     inkscape:snap-bbox="true"
     inkscape:bbox-nodes="true"
     inkscape:showpageshadow="0"
     inkscape:deskcolor="#d1d1d1"
     inkscape:window-width="1853"
     inkscape:window-height="1057"
     inkscape:window-x="59"
     inkscape:window-y="-8"
     inkscape:window-maximized="1"><inkscape:grid
       enabled="false"
       empspacing="4"
       id="grid4131"
       type="xygrid"
       spacingx="8"
       spacingy="8"
       originx="0"
       originy="0"
       units="px"
       visible="true" /><inkscape:grid
       empspacing="4"
       id="grid4167"
       type="xygrid"
       originx="0"
       originy="0"
       spacingy="1"
       spacingx="1"
       units="px"
       visible="true" /></sodipodi:namedview><defs
     id="defs2"><clipPath
       clipPathUnits="userSpaceOnUse"
       id="clipPath3287"><circle
         r="60"
         cy="64"
         cx="64"
         id="circle3289"
         style="display:inline;opacity:1;vector-effect:none;fill:none;fill-opacity:1;fill-rule:nonzero;stroke:#373737;stroke-width:4;stroke-linecap:butt;stroke-linejoin:round;stroke-miterlimit:4;stroke-dasharray:none;stroke-dashoffset:0;stroke-opacity:1;paint-order:fill markers stroke" /></clipPath><filter
       id="filter265"
       inkscape:label="Drop Shadow red"
       style="color-interpolation-filters:sRGB"
       x="0"
       y="0"
       width="1.0275298"
       height="1.074948"><feFlood
         id="feFlood264"
         result="flood"
         flood-color="rgb(85,152,204)"
         flood-opacity="0.498039" /><feComposite
         id="feComposite264"
         result="composite1"
         operator="in"
         in2="SourceGraphic"
         in="flood" /><feOffset
         id="feOffset264"
         result="offset"
         dy="4"
         dx="2" /><feComposite
         id="feComposite265"
         result="composite2"
         operator="over"
         in2="offset"
         in="SourceGraphic" /></filter><clipPath
       clipPathUnits="userSpaceOnUse"
       id="clipPath6"><path
         id="path6"
         style="fill:#f4cbb2;fill-opacity:1;stroke:none;stroke-width:8;stroke-linejoin:round;stroke-opacity:1;paint-order:stroke fill markers"
         d="m 52,54 c -9.99999,0 -17,6.19598 -17,15 0,11.999988 8.000021,18 29,18 20.999979,0 29,-6.000012 29,-18 0,-8.80402 -7.00001,-15 -17,-15 -3.802995,0 -6.939718,1 -12,1 -5.060282,0 -8.197005,-1 -12,-1 z" /></clipPath><clipPath
       clipPathUnits="userSpaceOnUse"
       id="clipPath21"><circle
         r="60"
         cy="64"
         cx="64"
         id="circle22"
         style="display:inline;opacity:1;vector-effect:none;fill:none;fill-opacity:1;fill-rule:nonzero;stroke:none;stroke-width:4;stroke-linecap:butt;stroke-linejoin:round;stroke-miterlimit:4;stroke-dasharray:none;stroke-dashoffset:0;stroke-opacity:1;paint-order:fill markers stroke" /></clipPath><clipPath
       clipPathUnits="userSpaceOnUse"
       id="clipPath13"><path
         style="fill:#fdfcf1;fill-opacity:1;stroke:none;stroke-width:8;stroke-linecap:round;stroke-linejoin:round;stroke-dasharray:none;stroke-opacity:1;paint-order:stroke fill markers"
         d="m 32.497753,60.000293 c 0,14.429167 0.528843,28.858333 1.586526,29.916017 2.115367,2.115367 57.716663,2.115367 59.83203,0 1.057684,-1.057684 1.585938,-15.486954 1.585938,-29.916017"
         id="path14" /></clipPath></defs><metadata
     id="metadata5"><rdf:RDF><cc:Work
         rdf:about=""><dc:format>image/svg+xml</dc:format><dc:type
           rdf:resource="http://purl.org/dc/dcmitype/StillImage" /></cc:Work></rdf:RDF></metadata><style
     id="style2296">.B{fill:#fc9abf}.C{fill:#ffc7df}.D{fill:#ed84cb}.E{fill-opacity:1}.F{stroke:none}</style><g
     inkscape:groupmode="layer"
     id="g4122"
     inkscape:label="0h n0"
     style="display:inline"><g
       clip-path="url(#clipPath3287)"
       id="g4118"
       inkscape:groupmode="maskhelper"
       style="fill:#ffffff;fill-opacity:1"><circle
         style="display:inline;vector-effect:none;fill:#76ddfe;fill-opacity:1;fill-rule:nonzero;stroke:none;stroke-width:4;stroke-linecap:butt;stroke-linejoin:round;stroke-miterlimit:4;stroke-dasharray:none;stroke-dashoffset:0;stroke-opacity:1;paint-order:fill markers stroke"
         id="circle4106"
         cx="64"
         cy="64"
         r="60" /><path
         style="fill:#5598cc;fill-opacity:1;stroke:#5598cc;stroke-width:8;stroke-linecap:round;stroke-linejoin:round;stroke-dasharray:none;stroke-opacity:1;paint-order:stroke fill markers"
         d="m 32.526408,26.815784 12.669244,0.548666 9.826147,-4.788377 21.797085,4.538983 8.978202,-2.693461 11.771426,6.683774 -1.39661,15.113313 5.037758,18.704591 -3.9903,7.781112 L 94.126869,94.9005 75.671668,91.558612 60.209206,95.548929 52.078941,91.907765 40.856187,93.653529 30.531251,89.014788 31.179679,78.290822 26.790333,64.773637 30.132221,52.603182 Z"
         id="path5"
         sodipodi:nodetypes="ccccccccccccccccccc" /><path
         style="fill:#5a698b;fill-opacity:1;stroke:none;stroke-width:8;stroke-linecap:round;stroke-linejoin:round;stroke-dasharray:none;stroke-opacity:1;paint-order:stroke fill markers"
         d="m 93.916309,30.084278 c -2.115367,-2.115367 -57.716663,-2.115367 -59.83203,0 -1.057683,1.057683 -1.586526,15.48685 -1.586526,29.916015 0,14.429167 0.528843,28.858333 1.586526,29.916017 2.115367,2.115367 57.716663,2.115367 59.83203,0 1.057684,-1.057684 1.585938,-15.486954 1.585938,-29.916017 0,-14.429061 -0.528254,-28.858331 -1.585938,-29.916015 z"
         id="path11"
         sodipodi:nodetypes="sscsscs" /><path
         id="path33"
         style="fill:#353535;fill-opacity:0.42354742;stroke:none;stroke-width:8;stroke-linecap:round;stroke-linejoin:round;stroke-dasharray:none;stroke-opacity:1;paint-order:stroke fill markers"
         d="M 64 28.498047 C 49.570849 28.498047 35.141667 29.026302 34.083984 30.083984 C 33.026302 31.141666 32.498047 45.570849 32.498047 60 C 32.498047 74.429153 33.026302 88.858333 34.083984 89.916016 C 34.235269 90.0673 34.688373 90.206292 35.347656 90.335938 C 34.7842 85.003563 34.498047 74.531572 34.498047 64 C 34.498047 49.570849 35.026302 35.141666 36.083984 34.083984 C 38.048047 32.119922 86.09441 31.98096 94.654297 33.664062 C 94.445835 31.690691 94.201709 30.369678 93.916016 30.083984 C 92.858333 29.026302 78.429151 28.498047 64 28.498047 z " /><circle
         style="fill:#5598cc;fill-opacity:1;stroke:none;stroke-width:4;stroke-linecap:round;stroke-linejoin:round;paint-order:stroke fill markers"
         id="path7"
         cx="64"
         cy="110.72286"
         r="5" /><circle
         style="fill:#5598cc;fill-opacity:1;stroke:none;stroke-width:4;stroke-linecap:round;stroke-linejoin:round;paint-order:stroke fill markers"
         id="circle7"
         cx="45"
         cy="107.72286"
         r="5" /><circle
         style="fill:#5598cc;fill-opacity:1;stroke:none;stroke-width:4;stroke-linecap:round;stroke-linejoin:round;paint-order:stroke fill markers"
         id="circle8"
         cx="83"
         cy="107.72286"
         r="5" /><g
         inkscape:groupmode="maskhelper"
         id="g13"
         clip-path="url(#clipPath13)"><path
           style="fill:#e2db53;fill-opacity:1;stroke:#b9a400;stroke-width:8;stroke-linecap:round;stroke-linejoin:round;stroke-dasharray:none;stroke-opacity:1;paint-order:stroke fill markers"
           d="M 80,93.8 C 80,87.4 78.647521,81 76.8,77.8 74.952479,74.6 72,72 64,72 56,72 53.047521,74.6 51.2,77.8 49.352479,81 48,87.4 48,93.8"
           id="path13"
           sodipodi:nodetypes="csssc" /></g><g
         id="g34"><path
           style="fill:#e2db53;fill-opacity:1;stroke:#b9a400;stroke-width:4;stroke-linecap:round;stroke-linejoin:round;stroke-dasharray:none;stroke-opacity:1;paint-order:fill markers stroke"
           d="m 52,80 c -0.484647,4.445798 -0.737534,5 -1,8 0.351781,4.020879 1.888614,8.58466 -2,10 -5.494955,2 -12,-7 -5,-21"
           id="path32"
           sodipodi:nodetypes="ccsc" /><use
           x="0"
           y="0"
           xlink:href="#path32"
           id="use33"
           inkscape:transform-center-x="-17.390305"
           inkscape:transform-center-y="-0.40241879"
           transform="matrix(-1,0,0,1,128,0)" /><path
           id="path25"
           style="color:#000000;display:inline;fill:#b9a400;stroke-linecap:round;stroke-linejoin:round;-inkscape-stroke:none;paint-order:stroke fill markers"
           d="m 64,38.869141 c -20.000563,0 -28.096977,1.243152 -33.515625,4.982421 -1.937936,4.049982 -2.808594,8.519267 -2.808594,13.189454 0,7.706467 2.757385,14.642295 8.962891,18.892578 6.205505,4.250281 15.044865,5.966797 27.361328,5.966797 12.316463,0 21.155823,-1.716516 27.361328,-5.966797 6.205506,-4.250283 8.962892,-11.186111 8.962892,-18.892578 0,-4.616701 -0.869576,-9.108047 -2.82422,-13.19336 C 92,40 83.984214,38.869141 64,38.869141 Z"
           sodipodi:nodetypes="scssssscs" /><path
           style="color:#000000;display:inline;fill:#e2db53;stroke-linecap:round;stroke-linejoin:round;-inkscape-stroke:none;paint-order:stroke fill markers"
           d="m 64,42.869141 c -16.639759,0 -24.127307,0.898815 -29.808594,2.144531 -1.781286,3.562439 -2.515625,7.56096 -2.515625,12.027344 0,13.769975 8.484342,20.859375 32.324219,20.859375 23.839877,0 32.324219,-7.0894 32.324219,-20.859375 0,-4.397963 -0.741103,-8.429158 -2.539063,-12.03125 C 88.106696,43.76676 80.616571,42.869141 64,42.869141 Z"
           id="path29" /><path
           id="path22"
           style="display:inline;fill:#ffffff;fill-opacity:1;stroke:none;stroke-width:4;stroke-linecap:round;stroke-linejoin:round;stroke-dasharray:none;stroke-opacity:1;paint-order:markers fill stroke"
           d="m 79.114565,48 c 4.999995,2.999997 4.999996,13.000004 1,17 -4.999995,0 -10,-2.000006 -10,-8 0,-5.999994 4.000005,-9 9,-9 z" /><path
           style="display:inline;fill:#fc9abf;fill-opacity:1;stroke:#373737;stroke-width:3;stroke-linecap:round;stroke-linejoin:round;stroke-dasharray:none;stroke-opacity:1;paint-order:fill markers stroke"
           d="M 73,68.385714 C 72.737499,72.984539 69.4,74.954309 64,75 58.6,75.0457 55,73 55,68.385714 57,68.1 60,68 64,68 c 4,0 7,0.1 9,0.385714 z"
           id="path17"
           sodipodi:nodetypes="cscsc" /><path
           id="path23"
           style="display:inline;fill:#ffffff;fill-opacity:1;stroke:none;stroke-width:4;stroke-linecap:round;stroke-linejoin:round;stroke-dasharray:none;stroke-opacity:1;paint-order:markers fill stroke"
           d="m 47.114565,48 c 4.999995,2.999997 4.999996,13.000004 1,17 -4.999995,0 -10,-2.000006 -10,-8 0,-5.999994 4.000005,-9 9,-9 z" /><ellipse
           style="display:inline;fill:#dba755;fill-opacity:1;stroke:none;stroke-width:4;stroke-linecap:round;stroke-linejoin:round;stroke-dasharray:none;stroke-opacity:1;paint-order:markers fill stroke"
           id="path31"
           cx="39"
           cy="67"
           rx="4"
           ry="2.5" /><path
           id="path19"
           style="display:inline;fill:#373737;fill-opacity:1;stroke:none;stroke-width:4;stroke-linecap:round;stroke-linejoin:round;stroke-dasharray:none;stroke-opacity:1;paint-order:markers fill stroke"
           d="m 49,48 c -4.999995,2.999997 -4.999996,13.000004 -1,17 4.999995,0 10,-2.000006 10,-8 0,-5.999994 -4.000005,-9 -9,-9 z" /><path
           id="path18"
           style="display:inline;fill:none;stroke:#373737;stroke-width:3;stroke-linecap:round;stroke-linejoin:round;stroke-dasharray:none;stroke-opacity:1;paint-order:markers fill stroke"
           d="M 58,56.5 C 58,61.19442 55.100804,65 48,65 40.899196,65 38,61.19442 38,56.5 38,51.80558 40.899196,48 48,48 c 7.100804,0 10,3.80558 10,8.5 z"
           sodipodi:nodetypes="sssss" /><path
           id="path20"
           style="display:inline;fill:#373737;fill-opacity:1;stroke:none;stroke-width:4;stroke-linecap:round;stroke-linejoin:round;stroke-dasharray:none;stroke-opacity:1;paint-order:markers fill stroke"
           d="m 81,48 c -4.999995,2.999997 -4.999996,13.000004 -1,17 4.999995,0 10,-2.000006 10,-8 0,-5.999994 -4.000005,-9 -9,-9 z" /><ellipse
           style="display:inline;fill:#dba755;fill-opacity:1;stroke:none;stroke-width:4;stroke-linecap:round;stroke-linejoin:round;stroke-dasharray:none;stroke-opacity:1;paint-order:markers fill stroke"
           id="ellipse31"
           cx="89"
           cy="67"
           rx="4"
           ry="2.5" /><path
           id="path21"
           style="display:inline;fill:none;stroke:#373737;stroke-width:3;stroke-linecap:round;stroke-linejoin:round;stroke-dasharray:none;stroke-opacity:1;paint-order:markers fill stroke"
           d="M 90,56.5 C 90,61.19442 87.100804,65 80,65 72.899196,65 70,61.19442 70,56.5 70,51.80558 72.899196,48 80,48 c 7.100804,0 10,3.80558 10,8.5 z"
           sodipodi:nodetypes="sssss" /><path
           d="m 93.785156,45.009766 c 1.360978,0.282153 3.417039,0.740783 4.652358,1.044827 -0.986095,-3.680157 -3.367656,-6.75622 -5.738295,-9.126859 C 92.52576,30.910404 91.876094,26.420061 89.425781,23.087891 86.742094,19.438351 82.252802,18.375 77.894531,18.375 c -3.689173,0 -7.100398,1.588962 -9.291015,4.142578 -1.365936,1.592279 -2.172362,3.513302 -2.75,5.539063 C 65.226343,28.042538 64.651561,28 64,28 c -0.651561,0 -1.226343,0.04254 -1.853516,0.05664 -0.577638,-2.025761 -1.384064,-3.946784 -2.75,-5.539063 C 57.205867,19.963962 53.794642,18.375 50.105469,18.375 c -4.358271,0 -8.847563,1.063351 -11.53125,4.712891 -2.450313,3.33217 -3.099979,7.822513 -3.273438,13.839843 -2.37064,2.370639 -4.7522,5.446702 -5.738295,9.126859 1.235318,-0.304044 3.29138,-0.762674 4.652358,-1.044827 C 40.664663,43.672608 47.889583,42.869141 64,42.869141 c 16.110417,0 23.335337,0.803467 29.785156,2.140625 z"
           style="color:#000000;display:inline;fill:#373737;fill-opacity:1;stroke-linecap:round;stroke-linejoin:round;-inkscape-stroke:none;paint-order:stroke fill markers"
           id="path1"
           sodipodi:nodetypes="sccssscccsssccscs" /><path
           style="color:#000000;display:inline;fill:#4c4c4c;fill-opacity:1;stroke-linecap:round;stroke-linejoin:round;-inkscape-stroke:none;paint-order:stroke fill markers"
           d="m 50.105469,22.375 c -7.741317,0 -10.772594,2.831509 -10.931641,16.154297 -0.671659,0.607598 -1.287391,1.234557 -1.857422,1.876953 C 42.909332,39.499755 50.613572,38.869141 64,38.869141 c 13.381489,0 21.083946,0.627764 26.675781,1.533203 C 90.107978,39.759648 89.494659,39.134025 88.826172,38.529297 88.667125,25.206509 85.635848,22.375 77.894531,22.375 c -5.353932,0 -8.371787,4.064714 -8.857422,9.78125 C 67.442818,32.056721 65.771799,32 64,32 62.228201,32 60.557182,32.056718 58.962891,32.15625 58.477256,26.439714 55.459401,22.375 50.105469,22.375 Z"
           id="path26" /></g></g><circle
       r="60"
       cy="64"
       cx="64"
       id="circle4120"
       style="display:inline;opacity:1;vector-effect:none;fill:none;fill-opacity:1;fill-rule:nonzero;stroke:none;stroke-width:4;stroke-linecap:butt;stroke-linejoin:round;stroke-miterlimit:4;stroke-dasharray:none;stroke-dashoffset:0;stroke-opacity:1;paint-order:fill markers stroke" /><g
       inkscape:groupmode="maskhelper"
       id="g21"
       clip-path="url(#clipPath21)"
       style="filter:url(#filter265)" /><circle
       r="60"
       cy="64"
       cx="64"
       id="circle20"
       style="display:inline;opacity:1;vector-effect:none;fill:none;fill-opacity:1;fill-rule:nonzero;stroke:#5598cc;stroke-width:4;stroke-linecap:butt;stroke-linejoin:round;stroke-miterlimit:4;stroke-dasharray:none;stroke-dashoffset:0;stroke-opacity:1;paint-order:fill markers stroke" /></g></svg>
