<?xml version="1.0" encoding="UTF-8" standalone="no"?>
<!-- Created with Inkscape (http://www.inkscape.org/) -->

<svg
   enable-background="new"
   inkscape:export-ydpi="384"
   inkscape:export-xdpi="384"
   inkscape:export-filename="..\app\src\main\res\drawable-nodpi\tamagotchi.png"
   sodipodi:docname="my_tamagotchi.svg"
   inkscape:version="1.3 (0e150ed6c4, 2023-07-21)"
   id="svg8"
   version="1.1"
   viewBox="0 0 128 128"
   height="128"
   width="128"
   xml:space="preserve"
   xmlns:inkscape="http://www.inkscape.org/namespaces/inkscape"
   xmlns:sodipodi="http://sodipodi.sourceforge.net/DTD/sodipodi-0.dtd"
   xmlns:xlink="http://www.w3.org/1999/xlink"
   xmlns="http://www.w3.org/2000/svg"
   xmlns:svg="http://www.w3.org/2000/svg"
   xmlns:rdf="http://www.w3.org/1999/02/22-rdf-syntax-ns#"
   xmlns:cc="http://creativecommons.org/ns#"
   xmlns:dc="http://purl.org/dc/elements/1.1/"><sodipodi:namedview
     id="base"
     pagecolor="#ffffff"
     bordercolor="#666666"
     borderopacity="1.0"
     inkscape:pageopacity="0.0"
     inkscape:pageshadow="2"
     inkscape:zoom="3.828125"
     inkscape:cx="66.87347"
     inkscape:cy="125.64898"
     inkscape:document-units="px"
     inkscape:current-layer="g4118"
     showgrid="false"
     units="px"
     inkscape:pagecheckerboard="true"
     borderlayer="true"
     gridtolerance="10"
     inkscape:snap-smooth-nodes="true"
     inkscape:snap-text-baseline="true"
     inkscape:snap-page="true"
     showguides="true"
     inkscape:guide-bbox="true"
     inkscape:snap-object-midpoints="true"
     inkscape:snap-center="true"
     inkscape:snap-global="true"
     inkscape:lockguides="false"
     inkscape:snap-bbox="true"
     inkscape:bbox-nodes="true"
     inkscape:showpageshadow="0"
     inkscape:deskcolor="#d1d1d1"
     inkscape:window-width="1853"
     inkscape:window-height="1057"
     inkscape:window-x="59"
     inkscape:window-y="-8"
     inkscape:window-maximized="1"><inkscape:grid
       enabled="false"
       empspacing="4"
       id="grid4131"
       type="xygrid"
       spacingx="8"
       spacingy="8"
       originx="0"
       originy="0"
       units="px"
       visible="false" /><inkscape:grid
       empspacing="4"
       id="grid4167"
       type="xygrid"
       originx="0"
       originy="0"
       spacingy="1"
       spacingx="1"
       units="px"
       visible="false" /></sodipodi:namedview><defs
     id="defs2"><clipPath
       clipPathUnits="userSpaceOnUse"
       id="clipPath3287"><circle
         r="60"
         cy="64"
         cx="64"
         id="circle3289"
         style="display:inline;opacity:1;vector-effect:none;fill:none;fill-opacity:1;fill-rule:nonzero;stroke:#373737;stroke-width:4;stroke-linecap:butt;stroke-linejoin:round;stroke-miterlimit:4;stroke-dasharray:none;stroke-dashoffset:0;stroke-opacity:1;paint-order:fill markers stroke" /></clipPath><filter
       id="filter265"
       inkscape:label="Drop Shadow red"
       style="color-interpolation-filters:sRGB"
       x="0"
       y="0"
       width="1.0275298"
       height="1.074948"><feFlood
         id="feFlood264"
         result="flood"
         flood-color="rgb(85,152,204)"
         flood-opacity="0.498039" /><feComposite
         id="feComposite264"
         result="composite1"
         operator="in"
         in2="SourceGraphic"
         in="flood" /><feOffset
         id="feOffset264"
         result="offset"
         dy="4"
         dx="2" /><feComposite
         id="feComposite265"
         result="composite2"
         operator="over"
         in2="offset"
         in="SourceGraphic" /></filter><clipPath
       clipPathUnits="userSpaceOnUse"
       id="clipPath6"><path
         id="path6"
         style="fill:#f4cbb2;fill-opacity:1;stroke:none;stroke-width:8;stroke-linejoin:round;stroke-opacity:1;paint-order:stroke fill markers"
         d="m 52,54 c -9.99999,0 -17,6.19598 -17,15 0,11.999988 8.000021,18 29,18 20.999979,0 29,-6.000012 29,-18 0,-8.80402 -7.00001,-15 -17,-15 -3.802995,0 -6.939718,1 -12,1 -5.060282,0 -8.197005,-1 -12,-1 z" /></clipPath><clipPath
       clipPathUnits="userSpaceOnUse"
       id="clipPath21"><circle
         r="60"
         cy="64"
         cx="64"
         id="circle22"
         style="display:inline;opacity:1;vector-effect:none;fill:none;fill-opacity:1;fill-rule:nonzero;stroke:none;stroke-width:4;stroke-linecap:butt;stroke-linejoin:round;stroke-miterlimit:4;stroke-dasharray:none;stroke-dashoffset:0;stroke-opacity:1;paint-order:fill markers stroke" /></clipPath><clipPath
       clipPathUnits="userSpaceOnUse"
       id="clipPath13"><path
         style="fill:#fdfcf1;fill-opacity:1;stroke:none;stroke-width:8;stroke-linecap:round;stroke-linejoin:round;stroke-dasharray:none;stroke-opacity:1;paint-order:stroke fill markers"
         d="m 32.497753,60.000293 c 0,14.429167 0.528843,28.858333 1.586526,29.916017 2.115367,2.115367 57.716663,2.115367 59.83203,0 1.057684,-1.057684 1.585938,-15.486954 1.585938,-29.916017"
         id="path14" /></clipPath><pattern
       id="EMFhbasepattern"
       patternUnits="userSpaceOnUse"
       width="6"
       height="6"
       x="0"
       y="0" /></defs><metadata
     id="metadata5"><rdf:RDF><cc:Work
         rdf:about=""><dc:format>image/svg+xml</dc:format><dc:type
           rdf:resource="http://purl.org/dc/dcmitype/StillImage" /></cc:Work></rdf:RDF></metadata><style
     id="style2296">.B{fill:#fc9abf}.C{fill:#ffc7df}.D{fill:#ed84cb}.E{fill-opacity:1}.F{stroke:none}</style><g
     inkscape:groupmode="layer"
     id="g4122"
     inkscape:label="0h n0"
     style="display:inline"><g
       clip-path="url(#clipPath3287)"
       id="g4118"
       inkscape:groupmode="maskhelper"
       style="fill:#ffffff;fill-opacity:1"><circle
         style="display:inline;vector-effect:none;fill:#76ddfe;fill-opacity:1;fill-rule:nonzero;stroke:none;stroke-width:4;stroke-linecap:butt;stroke-linejoin:round;stroke-miterlimit:4;stroke-dasharray:none;stroke-dashoffset:0;stroke-opacity:1;paint-order:fill markers stroke"
         id="circle4106"
         cx="64"
         cy="64"
         r="60" /><path
         style="fill:#5598cc;fill-opacity:1;stroke:#5598cc;stroke-width:8;stroke-linecap:round;stroke-linejoin:round;stroke-dasharray:none;stroke-opacity:1;paint-order:stroke fill markers"
         d="m 32.526408,26.815784 12.669244,0.548666 9.826147,-4.788377 21.797085,4.538983 8.978202,-2.693461 11.771426,6.683774 -1.39661,15.113313 5.037758,18.704591 -3.9903,7.781112 L 94.126869,94.9005 75.671668,91.558612 60.209206,95.548929 52.078941,91.907765 40.856187,93.653529 30.531251,89.014788 31.179679,78.290822 26.790333,64.773637 30.132221,52.603182 Z"
         id="path5"
         sodipodi:nodetypes="ccccccccccccccccccc" /><path
         style="fill:#5a698b;fill-opacity:1;stroke:none;stroke-width:8;stroke-linecap:round;stroke-linejoin:round;stroke-dasharray:none;stroke-opacity:1;paint-order:stroke fill markers"
         d="m 93.916309,30.084278 c -2.115367,-2.115367 -57.716663,-2.115367 -59.83203,0 -1.057683,1.057683 -1.586526,15.48685 -1.586526,29.916015 0,14.429167 0.528843,28.858333 1.586526,29.916017 2.115367,2.115367 57.716663,2.115367 59.83203,0 1.057684,-1.057684 1.585938,-15.486954 1.585938,-29.916017 0,-14.429061 -0.528254,-28.858331 -1.585938,-29.916015 z"
         id="path11"
         sodipodi:nodetypes="sscsscs" /><path
         id="path33"
         style="fill:#353535;fill-opacity:0.42354742;stroke:none;stroke-width:8;stroke-linecap:round;stroke-linejoin:round;stroke-dasharray:none;stroke-opacity:1;paint-order:stroke fill markers"
         d="M 64 28.498047 C 49.570849 28.498047 35.141667 29.026302 34.083984 30.083984 C 33.026302 31.141666 32.498047 45.570849 32.498047 60 C 32.498047 74.429153 33.026302 88.858333 34.083984 89.916016 C 34.235269 90.0673 34.688373 90.206292 35.347656 90.335938 C 34.7842 85.003563 34.498047 74.531572 34.498047 64 C 34.498047 49.570849 35.026302 35.141666 36.083984 34.083984 C 38.048047 32.119922 86.09441 31.98096 94.654297 33.664062 C 94.445835 31.690691 94.201709 30.369678 93.916016 30.083984 C 92.858333 29.026302 78.429151 28.498047 64 28.498047 z " /><circle
         style="fill:#5598cc;fill-opacity:1;stroke:none;stroke-width:4;stroke-linecap:round;stroke-linejoin:round;paint-order:stroke fill markers"
         id="path7"
         cx="64"
         cy="110.72286"
         r="5" /><circle
         style="fill:#5598cc;fill-opacity:1;stroke:none;stroke-width:4;stroke-linecap:round;stroke-linejoin:round;paint-order:stroke fill markers"
         id="circle7"
         cx="45"
         cy="107.72286"
         r="5" /><circle
         style="fill:#5598cc;fill-opacity:1;stroke:none;stroke-width:4;stroke-linecap:round;stroke-linejoin:round;paint-order:stroke fill markers"
         id="circle8"
         cx="83"
         cy="107.72286"
         r="5" /><g
         inkscape:groupmode="maskhelper"
         id="g13"
         clip-path="url(#clipPath13)"><path
           style="fill:#e2db53;fill-opacity:1;stroke:none;stroke-width:8;stroke-linecap:round;stroke-linejoin:round;stroke-dasharray:none;stroke-opacity:1;paint-order:stroke fill markers"
           d="M 80,93.8 C 80,87.4 86.497849,81.461784 84.650328,78.261784 82.802807,75.061784 72,72 64,72 56,72 45.323004,74.686699 44.088526,78.169427 41.317437,85.987267 48,87.4 48,93.8"
           id="path13"
           sodipodi:nodetypes="csssc" /></g><g
         id="g34"><path
           style="fill:#e2db53;fill-opacity:1;stroke:#b9a400;stroke-width:4;stroke-linecap:round;stroke-linejoin:round;stroke-dasharray:none;stroke-opacity:1;paint-order:fill markers stroke"
           d="M 50.412245,86.106122 C 50.176271,88.755573 53.868206,96.323436 49,98 43.471084,99.904107 37,91 44,77"
           id="path32"
           sodipodi:nodetypes="csc" /><use
           x="0"
           y="0"
           xlink:href="#path32"
           id="use33"
           inkscape:transform-center-x="-17.390305"
           inkscape:transform-center-y="-0.40241879"
           transform="matrix(-1,0,0,1,128,0)" /></g><g
         id="g3"
         transform="translate(0.26122449,0.56734694)"><path
           style="fill:#e2db53;fill-opacity:1;stroke:#b9a400;stroke-width:4;stroke-linecap:round;stroke-linejoin:round;stroke-opacity:1;paint-order:markers fill stroke"
           d="m 31.14864,43.584872 c -2.52367,8.151996 -3.4708,19.085933 1.85294,26.38419 4.71994,6.470519 14.56591,9.815093 29.68574,9.815093 19.62495,0 27.09103,-2.983779 32.11479,-9.285563 5.50106,-6.90051 5.80602,-17.494858 2.95877,-25.607598"
           id="path3"
           sodipodi:nodetypes="csssc" /><path
           style="display:inline;fill:#fc9abf;fill-opacity:1;stroke:#373737;stroke-width:3;stroke-linecap:round;stroke-linejoin:round;stroke-dasharray:none;stroke-opacity:1;paint-order:fill markers stroke"
           d="m 70.87546,69.231125 c 0.25995,5.774335 -2.68571,10.193085 -8.08571,10.238776 -5.4,0.0457 -8.21633,-5.232653 -7.9551,-10.140817 1.60816,0.432654 4.08571,0.953062 8.08571,0.953062 4,0 5.4,-0.553061 7.9551,-1.051021 z"
           id="path17-4"
           sodipodi:nodetypes="cscsc" /><ellipse
           style="display:inline;fill:#fc9abf;fill-opacity:1;stroke:none;stroke-width:4;stroke-linecap:round;stroke-linejoin:round;stroke-dasharray:none;stroke-opacity:1;paint-order:markers fill stroke"
           id="path31-2"
           cx="37.724434"
           cy="67.780106"
           rx="4"
           ry="4.1979594" /><ellipse
           style="display:inline;fill:#fc9abf;fill-opacity:1;stroke:none;stroke-width:4;stroke-linecap:round;stroke-linejoin:round;stroke-dasharray:none;stroke-opacity:1;paint-order:markers fill stroke"
           id="ellipse31-0"
           cx="89.571571"
           cy="69.442528"
           rx="4"
           ry="4.1979594" /><path
           id="path18-3"
           style="display:inline;fill:#ffffff;fill-opacity:1;stroke:#373737;stroke-width:3;stroke-linecap:round;stroke-linejoin:round;stroke-dasharray:none;stroke-opacity:1;paint-order:markers fill stroke"
           d="m 81.5326,67.671942 c -4.69442,0 -8.5,-2.8992 -8.5,-10 0,-7.1008 3.80558,-10 8.5,-10 4.69442,0 8.5,2.8992 8.5,10 0,7.1008 -3.80558,10 -8.5,10 z"
           sodipodi:nodetypes="sssss" /><path
           id="path19-2"
           style="display:inline;fill:#373737;fill-opacity:1;stroke:none;stroke-width:4;stroke-linecap:round;stroke-linejoin:round;stroke-dasharray:none;stroke-opacity:1;paint-order:markers fill stroke"
           d="m 77.12927,47.700651 c -3.885,3.253541 -4.080918,13.57623 -0.972928,17.914285 4.146214,0.391837 8.357745,-2.29965 8.357745,-8.806722 0,-6.507072 -3.499837,-9.107563 -7.384817,-9.107563 z"
           sodipodi:nodetypes="ccsc" /><path
           id="path21-7"
           style="display:inline;fill:#ffffff;fill-opacity:1;stroke:#373737;stroke-width:3;stroke-linecap:round;stroke-linejoin:round;stroke-dasharray:none;stroke-opacity:1;paint-order:markers fill stroke"
           d="m 45.15709,67.606636 c -4.69442,0 -8.5,-2.8992 -8.5,-10 0,-7.1008 3.80558,-10 8.5,-10 4.69442,0 8.5,2.8992 8.5,10 0,7.1008 -3.80558,10 -8.5,10 z"
           sodipodi:nodetypes="sssss" /><path
           id="path20-0"
           style="display:inline;fill:#373737;fill-opacity:1;stroke:none;stroke-width:4;stroke-linecap:round;stroke-linejoin:round;stroke-dasharray:none;stroke-opacity:1;paint-order:markers fill stroke"
           d="m 50.22593,65.267999 c 4.03704,-3 3.337923,-12.070111 0.108293,-16.070111 -3.812207,-1.504789 -7.636187,1.59257 -7.636187,7.59256 0,5.99999 3.490854,8.477551 7.527894,8.477551 z"
           sodipodi:nodetypes="ccsc" /><path
           style="display:inline;fill:#4c4c4c;fill-opacity:1;stroke:#373737;stroke-width:4;stroke-linecap:round;stroke-linejoin:round;stroke-opacity:1;paint-order:markers fill stroke"
           d="M 97.76088,44.890994 C 80.28956,42.570647 43.1304,41.815894 31.14864,43.584872 31.92439,42.343999 33.12503,40.496863 34.32567,39.573295 31.70478,28.012661 32.88179,15.950611 44.6417,15.950611 c 9.87781,0 12.23793,4.777954 14.52795,13.001651 2.1242,-0.09236 7.57326,0.09236 11.63695,0.369427 1.63611,-7.620823 4.81974,-12.707337 12.66012,-12.707337 10.03514,0 14.26724,7.094968 10.6138,23.051299 1.01592,0.923569 2.83524,3.800996 3.68036,5.225343 z"
           id="path2"
           sodipodi:nodetypes="cccsccscc" /></g></g><circle
       r="60"
       cy="64"
       cx="64"
       id="circle4120"
       style="display:inline;opacity:1;vector-effect:none;fill:none;fill-opacity:1;fill-rule:nonzero;stroke:none;stroke-width:4;stroke-linecap:butt;stroke-linejoin:round;stroke-miterlimit:4;stroke-dasharray:none;stroke-dashoffset:0;stroke-opacity:1;paint-order:fill markers stroke" /><g
       inkscape:groupmode="maskhelper"
       id="g21"
       clip-path="url(#clipPath21)"
       style="filter:url(#filter265)" /><circle
       r="60"
       cy="64"
       cx="64"
       id="circle20"
       style="display:inline;opacity:1;vector-effect:none;fill:none;fill-opacity:1;fill-rule:nonzero;stroke:#5598cc;stroke-width:4;stroke-linecap:butt;stroke-linejoin:round;stroke-miterlimit:4;stroke-dasharray:none;stroke-dashoffset:0;stroke-opacity:1;paint-order:fill markers stroke" /></g></svg>
