<?xml version="1.0" encoding="UTF-8" standalone="no"?>
<svg
   height="128"
   width="128"
   version="1.1"
   id="svg9"
   sodipodi:docname="nedbank_private.svg"
   inkscape:export-filename="..\app\src\main\res\drawable-nodpi\nedbank_black.png"
   inkscape:export-xdpi="384"
   inkscape:export-ydpi="384"
   inkscape:version="1.3 (0e150ed6c4, 2023-07-21)"
   xmlns:inkscape="http://www.inkscape.org/namespaces/inkscape"
   xmlns:sodipodi="http://sodipodi.sourceforge.net/DTD/sodipodi-0.dtd"
   xmlns="http://www.w3.org/2000/svg"
   xmlns:svg="http://www.w3.org/2000/svg">
  <sodipodi:namedview
     id="namedview9"
     pagecolor="#ffffff"
     bordercolor="#666666"
     borderopacity="1.0"
     inkscape:showpageshadow="2"
     inkscape:pageopacity="0.0"
     inkscape:pagecheckerboard="0"
     inkscape:deskcolor="#d1d1d1"
     inkscape:zoom="4.8668834"
     inkscape:cx="62.257501"
     inkscape:cy="63.182118"
     inkscape:window-width="1920"
     inkscape:window-height="1057"
     inkscape:window-x="-8"
     inkscape:window-y="-8"
     inkscape:window-maximized="1"
     inkscape:current-layer="svg9" />
  <defs
     id="defs4">
    <linearGradient
       id="A"
       x1="64"
       y1="126"
       x2="64"
       y2="2"
       gradientUnits="userSpaceOnUse">
      <stop
         offset="0"
         stop-color="#40bfb3"
         id="stop1" />
      <stop
         offset="1"
         stop-color="#ccf282"
         id="stop2" />
    </linearGradient>
    <linearGradient
       id="B"
       x1="39.999"
       y1="100.504"
       x2="88.002"
       y2="27.494"
       gradientUnits="userSpaceOnUse">
      <stop
         offset=".49"
         stop-color="#40bfb3"
         id="stop3"
         style="stop-color:#4c4c4c;stop-opacity:1" />
      <stop
         offset=".51"
         stop-color="#fff"
         id="stop4" />
    </linearGradient>
  </defs>
  <g
     stroke="#2c737f"
     stroke-width="4"
     stroke-linejoin="round"
     id="g9">
    <circle
       r="60"
       cy="64"
       cx="64"
       fill="url(#A)"
       paint-order="fill markers stroke"
       id="circle4"
       style="fill:#4c4c4c;stroke:#373737" />
    <g
       fill-rule="evenodd"
       id="g8">
      <path
         d="M46 29.85c-.139 0-.33.043-.535.096-.037.01-.058.006-.098.018-.255.073-.553.18-.887.318-.666.276-1.475.672-2.377 1.156l-2.041 1.174-.287.195-5.488 4.096-2.275 1.861-1.861 1.67-1.371 1.43c-.367.43-.638.812-.803 1.137s-.319.785-.463 1.361-.279 1.271-.402 2.066l-.34 2.67-.277 3.176-.371 7.461-.006.369L26 68l.117 7.896.006.369.371 7.461.277 3.176.34 2.67.402 2.066c.144.577.298 1.037.463 1.361s.436.706.803 1.137a19.8 19.8 0 0 0 1.371 1.43l1.861 1.67 2.275 1.861 5.488 4.096.281.191 2.047 1.176 2.377 1.158.887.318c.039.011.06.008.098.018a2.4 2.4 0 0 0 .535.094 2.42 2.42 0 0 0 .633-.111 8.49 8.49 0 0 0 .887-.318c.666-.276 1.476-.674 2.377-1.158l2.93-1.682L56 100.873l3.174-2.006 2.93-1.682 2.377-1.156.887-.32c.255-.073.468-.111.633-.111s.377.038.633.111.553.182.887.32c.667.276 1.475.672 2.377 1.156l2.93 1.682 3.154 1.994.02.012.018.012 3.156 1.994 2.93 1.684 2.377 1.156.887.318c.255.073.468.113.633.113.139 0 .33-.043.535-.096.037-.01.058-.006.098-.018.255-.073.553-.18.887-.318.666-.276 1.476-.672 2.377-1.156l2.041-1.174.287-.195 5.488-4.096 2.275-1.861 1.861-1.67 1.371-1.43c.367-.43.638-.812.803-1.137s.319-.785.463-1.361.279-1.271.402-2.066l.34-2.67.277-3.176.371-7.461.006-.369L106 68l-.117-7.896-.006-.369-.371-7.461-.277-3.176-.34-2.67-.402-2.066c-.144-.577-.298-1.037-.463-1.361s-.436-.706-.803-1.137a19.8 19.8 0 0 0-1.371-1.43l-1.861-1.67-2.275-1.861-5.488-4.096-.287-.195-2.041-1.174-2.377-1.156-.887-.318c-.039-.011-.06-.008-.098-.018-.205-.053-.396-.096-.535-.096-.165 0-.377.04-.633.113s-.553.18-.887.318c-.666.276-1.475.672-2.377 1.156l-2.93 1.684L76 35.127l-3.174 2.006-2.93 1.682-2.377 1.156-.887.32c-.255.073-.468.111-.633.111s-.377-.038-.633-.111-.553-.182-.887-.32c-.666-.276-1.475-.672-2.377-1.156l-2.93-1.682-3.154-1.994-.019-.012-.018-.012-3.156-1.994-2.93-1.684-2.377-1.156-.887-.318c-.255-.073-.468-.113-.633-.113z"
         opacity=".5"
         fill="#2c737f"
         paint-order="fill markers stroke"
         id="path4"
         style="stroke:#373737;fill:#373737" />
      <path
         d="M84 25.85c-.165 0-.377.04-.633.113s-.553.18-.887.318c-.667.276-1.475.672-2.377 1.156l-2.93 1.684L74 31.127l-3.174 2.006-2.93 1.682-2.377 1.156-.887.32c-.255.073-.468.111-.633.111s-.377-.038-.633-.111-.553-.182-.887-.32c-.666-.276-1.475-.672-2.377-1.156l-2.93-1.682-3.154-1.994L64 37.701l.988.648v.002l21.375 14.053-.021-1.871-.199-6.297-.277-5.775-.357-5.076-.437-4.207-.516-3.158-.02-.074c-.205-.053-.396-.096-.535-.096z"
         fill="#40bfb3"
         paint-order="fill markers stroke"
         id="path5"
         style="stroke:#747474;fill:#4c4c4c" />
      <path
         d="M41.637 75.596l.021 1.871.199 6.297.277 5.775.357 5.076.438 4.207.516 3.158.02.074a2.4 2.4 0 0 0 .535.094 2.42 2.42 0 0 0 .633-.111c.255-.073.553-.18.887-.318.667-.276 1.475-.674 2.377-1.158l2.93-1.682L54 96.873l3.174-2.006 2.93-1.682 2.377-1.156.887-.32c.255-.073.468-.111.633-.111s.377.038.633.111.553.182.887.32c.666.276 1.475.672 2.377 1.156l2.93 1.682 3.154 1.994L64 90.299l-.988-.65z"
         fill="#fff"
         paint-order="fill markers stroke"
         id="path6"
         style="stroke:#747474" />
      <path
         d="M44 25.85c-.139 0-.33.043-.535.096-.037.01-.058.006-.098.018-.255.073-.553.18-.887.318-.667.276-1.475.672-2.377 1.156l-2.041 1.174-.287.195-5.488 4.096-2.275 1.861-1.861 1.67-1.371 1.43c-.367.43-.638.812-.803 1.137s-.319.785-.463 1.361-.279 1.271-.402 2.066l-.34 2.67-.277 3.176-.371 7.461-.006.369L24 64l.117 7.896.006.369.371 7.461.277 3.176.34 2.67.402 2.066c.144.577.298 1.037.463 1.361s.436.706.803 1.137a19.8 19.8 0 0 0 1.371 1.43l1.861 1.67 2.275 1.861 5.488 4.096.281.191 2.047 1.176 2.377 1.158.887.318c.039.011.06.008.098.018l-.02-.074-.516-3.158-.437-4.207-.357-5.076-.277-5.775-.199-6.297-.021-1.871 21.375 14.053.988.65 9.98 6.563.02.012.018.012 3.156 1.994 2.93 1.684 2.377 1.156.887.318c.255.073.468.113.633.113.139 0 .33-.043.535-.096.037-.01.058-.006.098-.018.255-.073.553-.18.887-.318.667-.276 1.475-.672 2.377-1.156l2.041-1.174.287-.195 5.488-4.096 2.275-1.861 1.861-1.67 1.371-1.43c.367-.43.638-.812.803-1.137s.319-.785.463-1.361.279-1.271.402-2.066l.34-2.67.277-3.176.371-7.461.006-.369L104 64l-.117-7.896-.006-.369-.371-7.461-.277-3.176-.34-2.67-.402-2.066c-.144-.577-.298-1.037-.463-1.361s-.436-.706-.803-1.137a19.8 19.8 0 0 0-1.371-1.43l-1.861-1.67-2.275-1.861-5.488-4.096-.287-.195-2.041-1.174-2.377-1.156-.887-.318c-.039-.011-.06-.008-.098-.018l.02.074c.185.859.357 1.921.516 3.158l.438 4.207.357 5.076.277 5.775.199 6.297.021 1.871-21.375-14.053v-.002L64 37.701l-9.98-6.562-.02-.012-.018-.012-3.156-1.994-2.93-1.684-2.377-1.156-.887-.318c-.255-.073-.468-.113-.633-.113z"
         fill="url(#B)"
         paint-order="fill markers stroke"
         id="path7"
         style="stroke:#747474" />
      <path
         d="M25.976 39L102.024 89"
         fill="#40bfb3"
         stroke-linecap="round"
         paint-order="stroke fill markers"
         id="path8"
         style="fill:#373737;stroke:#747474" />
    </g>
  </g>
</svg>
