<svg xmlns="http://www.w3.org/2000/svg" height="128" width="128" xmlns:v="https://vecta.io/nano"><style><![CDATA[.B{stroke-width:4}.C{stroke-linejoin:round}.D{fill:#2c737f}.E{fill-rule:evenodd}.F{stroke-linejoin:miter}]]></style><defs><linearGradient id="A" x1="64" y1="126" x2="64" y2="2" gradientUnits="userSpaceOnUse"><stop offset="0" stop-color="#40bfb3"/><stop offset="1" stop-color="#ccf282"/></linearGradient></defs><g stroke="#2c737f"><circle r="60" cy="64" cx="64" fill="url(#A)" paint-order="fill markers stroke" class="B C"/><path d="M66 26c-15.393 0-28 12.607-28 28v1.523c-.062.01-.134.019-.195.029-2.077.355-3.546.623-4.85 1.492S31 59.202 30.42 60.709s-1.022 3.302-1.375 5.326C28.338 70.083 28 75.036 28 80s.338 9.917 1.045 13.965c.353 2.024.795 3.819 1.375 5.326s1.231 2.795 2.535 3.664 2.772 1.137 4.85 1.492 4.661.64 7.609.869c5.896.458 13.238.684 20.586.684s14.69-.226 20.586-.684c2.948-.229 5.532-.514 7.609-.869s3.546-.623 4.85-1.492 1.955-2.157 2.535-3.664 1.022-3.302 1.375-5.326C103.662 89.917 104 84.964 104 80s-.338-9.917-1.045-13.965c-.353-2.024-.795-3.819-1.375-5.326s-1.231-2.795-2.535-3.664-2.772-1.137-4.85-1.492c-.061-.011-.133-.019-.195-.029V54c0-15.393-12.607-28-28-28zm0 12c8.908 0 16 7.092 16 16v.391C77.081 54.131 71.544 54 66 54s-11.081.131-16 .391V54c0-8.908 7.092-16 16-16z" stroke="none" paint-order="fill markers stroke" opacity=".5" class="D E"/><g fill="none"><g stroke-linecap="square"><path d="M42 50a22 22 0 1 1 44 0" stroke-width="12" paint-order="fill markers stroke" class="C"/><path d="M42 50a22 22 0 1 1 44 0" stroke="#40bfb3" paint-order="fill markers stroke" class="B F"/></g><path style="mix-blend-mode:screen" d="M42.75 44.306A22 22 0 0 1 83.053 39" stroke="#47aebf" stroke-linecap="round" paint-order="fill markers stroke" class="B F"/></g><g class="E"><path d="M64 52c-14.613 0-29.226.902-31.936 2.709-5.42 3.613-5.42 38.969 0 42.582s58.452 3.613 63.871 0 5.42-38.969 0-42.582C93.226 52.902 78.613 52 64 52z" fill="#40bfb3" paint-order="fill markers stroke" class="B C"/><g stroke="none"><path d="M64 58.746a348.33 348.33 0 0 1-5.426-.043l-5.285-.125-4.998-.209-4.568-.293-3.992-.375-1.729-.217-1.521-.232-1.303-.268-1.037-.279-.967-.332a.97.97 0 0 0-.121.133 4.2 4.2 0 0 0-.246.342c-.097.149-.206.332-.318.549a7.47 7.47 0 0 0-.336.75l-.32.932-.305 1.086-.283 1.221-.258 1.338-.229 1.439-.199 1.529-.309 3.27-.187 3.471L30 76l.063 3.568.188 3.471.309 3.27.199 1.529.229 1.439.258 1.338.283 1.221.305 1.086.32.932a7.47 7.47 0 0 0 .336.75l.318.549.246.342a.97.97 0 0 0 .121.133c.026.017.382.157.967.332l1.037.279 1.303.268 1.521.232 1.729.217 3.992.375 4.568.293 4.998.209 5.285.125L64 98z" style="mix-blend-mode:screen" opacity=".5" fill="#47aebf" paint-order="fill markers stroke"/><circle cx="64" cy="71" r="8" paint-order="fill markers stroke" class="D"/></g><path d="M66.778 86.757a16 16 0 0 1-5.557 0L64 71z" paint-order="fill markers stroke" class="B C D"/><path d="M94.826 56.373c-.026-.017-.382-.157-.967-.332l-1.037-.279-1.303-.268-3.25-.449-3.992-.373-4.568-.293-4.998-.211-5.285-.125L64 54l-5.426.043-5.285.125-4.998.211-4.568.293-3.992.373-3.25.449-1.303.268-1.037.279-.967.332c.026.017.382.157.967.332l1.037.279 1.303.268 3.25.449 3.992.375 4.568.293 4.998.209 5.285.125 5.426.043 5.426-.043 5.285-.125 4.998-.209 4.568-.293 3.992-.375 3.25-.449 1.303-.268 1.037-.279.967-.332z" style="mix-blend-mode:screen" fill="#47aebf" stroke="none" paint-order="fill markers stroke"/></g></g></svg>