<?xml version="1.0" encoding="UTF-8" standalone="no"?>
<svg
   height="128"
   width="128"
   version="1.1"
   id="svg2"
   sodipodi:docname="nihonoari.svg"
   inkscape:version="1.3 (0e150ed6c4, 2023-07-21)"
   inkscape:export-filename="..\app\src\main\res\drawable-nodpi\nihonoari.png"
   inkscape:export-xdpi="384"
   inkscape:export-ydpi="384"
   xml:space="preserve"
   xmlns:inkscape="http://www.inkscape.org/namespaces/inkscape"
   xmlns:sodipodi="http://sodipodi.sourceforge.net/DTD/sodipodi-0.dtd"
   xmlns:xlink="http://www.w3.org/1999/xlink"
   xmlns="http://www.w3.org/2000/svg"
   xmlns:svg="http://www.w3.org/2000/svg"><defs
     id="defs2"><inkscape:path-effect
       effect="bool_op"
       operand-path="#circle94"
       id="path-effect2"
       is_visible="true"
       lpeversion="1"
       operation="inters"
       swap-operands="false"
       filltype-this="from-curve"
       filter=""
       filltype-operand="from-curve" /><inkscape:path-effect
       effect="bool_op"
       operand-path="#circle94"
       id="path-effect1"
       is_visible="true"
       lpeversion="1"
       operation="inters"
       swap-operands="false"
       filltype-this="from-curve"
       filter=""
       filltype-operand="from-curve" /><filter
       id="selectable_hidder_filter"
       width="1"
       height="1"
       x="0"
       y="0"
       style="color-interpolation-filters:sRGB;"
       inkscape:label="LPE boolean visibility"><feComposite
         id="boolops_hidder_primitive"
         result="composite1"
         operator="arithmetic"
         in2="SourceGraphic"
         in="BackgroundImage" /></filter><inkscape:path-effect
       effect="bool_op"
       operand-path="#circle94"
       id="path-effect136"
       is_visible="true"
       lpeversion="1"
       operation="inters"
       swap-operands="false"
       filltype-this="from-curve"
       filter=""
       filltype-operand="from-curve" /><inkscape:path-effect
       effect="mirror_symmetry"
       start_point="61.723045,1.6522217"
       end_point="61.723045,129.65222"
       center_point="61.723045,65.652222"
       id="path-effect129"
       is_visible="true"
       lpeversion="1.2"
       lpesatellites=""
       mode="vertical"
       discard_orig_path="false"
       fuse_paths="false"
       oposite_fuse="false"
       split_items="false"
       split_open="false"
       link_styles="false" /><inkscape:perspective
       sodipodi:type="inkscape:persp3d"
       inkscape:vp_x="-60 : 21.333333 : 0"
       inkscape:vp_y="0 : 81.333333 : 0"
       inkscape:vp_z="63.679754 : 0 : 0"
       inkscape:persp3d-origin="64 : 42.666667 : 1"
       id="perspective22" /><inkscape:path-effect
       effect="bspline"
       id="path-effect32"
       is_visible="true"
       lpeversion="1.3"
       weight="33.333333"
       steps="2"
       helper_size="0"
       apply_no_weight="true"
       apply_with_weight="true"
       only_selected="false"
       uniform="false" /><inkscape:path-effect
       effect="spiro"
       id="path-effect28"
       is_visible="true"
       lpeversion="1" /></defs><sodipodi:namedview
     id="namedview2"
     pagecolor="#ffffff"
     bordercolor="#666666"
     borderopacity="1.0"
     inkscape:showpageshadow="2"
     inkscape:pageopacity="0.0"
     inkscape:pagecheckerboard="0"
     inkscape:deskcolor="#d1d1d1"
     inkscape:zoom="3.8528"
     inkscape:cx="64.498547"
     inkscape:cy="63.460341"
     inkscape:window-width="1920"
     inkscape:window-height="1057"
     inkscape:window-x="-8"
     inkscape:window-y="-8"
     inkscape:window-maximized="1"
     inkscape:current-layer="svg2"
     showguides="false"><sodipodi:guide
       position="64,64"
       orientation="-0.70710678,0.70710678"
       id="guide66"
       inkscape:locked="false"
       inkscape:label=""
       inkscape:color="rgb(0,134,229)" /><sodipodi:guide
       position="64,64"
       orientation="0,1"
       id="guide79"
       inkscape:label=""
       inkscape:locked="false"
       inkscape:color="rgb(0,134,229)" /><sodipodi:guide
       position="64,64"
       orientation="0.70710678,0.70710678"
       id="guide80"
       inkscape:label=""
       inkscape:locked="false"
       inkscape:color="rgb(0,134,229)" /><sodipodi:guide
       position="64,64"
       orientation="-1,0"
       id="guide96"
       inkscape:label=""
       inkscape:locked="false"
       inkscape:color="rgb(0,134,229)" /></sodipodi:namedview><circle
     cy="64"
     cx="64"
     fill="#8af19d"
     paint-order="fill markers stroke"
     stroke="#00c853"
     stroke-width="4"
     id="circle94"
     style="display:inline;fill:#4c4c4c;fill-opacity:1;stroke:none;filter:url(#selectable_hidder_filter)"
     sodipodi:insensitive="true"
     r="60" /><circle
     cy="64"
     cx="64"
     fill="#8af19d"
     paint-order="fill markers stroke"
     stroke="#00c853"
     stroke-width="4"
     id="circle94-5"
     style="display:inline;fill:#4c4c4c;fill-opacity:1;stroke:none"
     r="60"
     sodipodi:insensitive="true" /><circle
     style="display:inline;opacity:1;fill:#d5425d;fill-opacity:1;fill-rule:evenodd;stroke:none;stroke-width:8;stroke-linecap:round;stroke-linejoin:round;stroke-dasharray:none;stroke-opacity:1;paint-order:stroke fill markers"
     id="path110"
     cx="64"
     cy="44"
     r="24"
     sodipodi:insensitive="true" /><g
     id="g113"
     inkscape:groupmode="layer"><g
       id="g125"><path
         style="display:inline;opacity:1;fill:#748b9b;fill-opacity:1;fill-rule:evenodd;stroke:#657580;stroke-width:8;stroke-linecap:butt;stroke-linejoin:round;stroke-dasharray:none;stroke-opacity:1;paint-order:stroke fill markers"
         d="M 12.768944,95.231056 64,44 115.23106,95.231056"
         id="path121"
         sodipodi:nodetypes="ccc" /><path
         style="opacity:1;fill:#748b9b;fill-opacity:1;fill-rule:evenodd;stroke:none;stroke-width:4;stroke-linecap:butt;stroke-linejoin:round;stroke-dasharray:none;stroke-opacity:1;paint-order:stroke fill markers"
         id="path125"
         sodipodi:type="arc"
         sodipodi:cx="64"
         sodipodi:cy="64"
         sodipodi:rx="60"
         sodipodi:ry="60"
         sodipodi:start="0.52359878"
         sodipodi:end="2.6179939"
         sodipodi:arc-type="arc"
         d="M 115.96152,94 A 60,60 0 0 1 64,124 60,60 0 0 1 12.038475,93.999999"
         sodipodi:open="true" /><path
         style="opacity:1;fill:#ffffff;fill-opacity:1;fill-rule:evenodd;stroke:none;stroke-width:8;stroke-linecap:round;stroke-linejoin:round;stroke-dasharray:none;stroke-opacity:1;paint-order:stroke fill markers"
         d="M 64,44 88.062502,68.0625 77.193574,84.068574 58.389736,73.214956 51.211028,76.832534 38.46875,69.53125 Z"
         id="path122"
         sodipodi:nodetypes="ccccccc" /></g><g
       id="g128"
       inkscape:path-effect="#path-effect129"
       transform="translate(2.2769548,-1.6522217)"><path
         style="opacity:1;fill:#d4d4d4;fill-opacity:1;fill-rule:evenodd;stroke:none;stroke-width:4;stroke-linecap:round;stroke-linejoin:round;stroke-dasharray:none;stroke-opacity:1;paint-order:stroke fill markers"
         id="path128"
         d="m 79.182884,66 c 0,1.380712 -1.790861,2.5 -4,2.5 -2.209139,0 -4,-1.119288 -4,-2.5 0,-1.380712 1.790861,-2.5 4,-2.5 2.209139,0 4,1.119288 4,2.5 z m -34.919678,0 c 0,1.380712 1.790861,2.5 4,2.5 2.209139,0 4,-1.119288 4,-2.5 0,-1.380712 -1.790861,-2.5 -4,-2.5 -2.209139,0 -4,1.119288 -4,2.5 z"
         sodipodi:type="arc"
         sodipodi:cx="75.182884"
         sodipodi:cy="66"
         sodipodi:rx="4"
         sodipodi:ry="2.5" /><path
         style="opacity:1;fill:#373737;fill-opacity:1;fill-rule:evenodd;stroke:none;stroke-width:8.13435;stroke-linecap:round;stroke-linejoin:round;stroke-dasharray:none;stroke-opacity:1;paint-order:stroke fill markers"
         id="ellipse123"
         transform="matrix(1,0,0.25386735,0.96723904,0,0)"
         d="m 58.885063,66.167717 c 0,1.380712 -1.343146,2.5 -3,2.5 -1.656854,0 -3,-1.119288 -3,-2.5 0,-1.380712 1.343146,-2.5 3,-2.5 1.656854,0 3,1.119288 3,2.5 z m -27.919682,0 c -0.701035,1.380712 0.07381,2.5 1.730664,2.5 1.656854,0 3.568301,-1.119288 4.269336,-2.5 0.701036,-1.380712 -0.07381,-2.5 -1.730663,-2.5 -1.656854,0 -3.568301,1.119288 -4.269337,2.5 z"
         sodipodi:type="arc"
         sodipodi:cx="55.885063"
         sodipodi:cy="66.167717"
         sodipodi:rx="3"
         sodipodi:ry="2.5" /></g><path
       style="opacity:1;fill:none;fill-opacity:1;fill-rule:evenodd;stroke:#373737;stroke-width:4;stroke-linecap:round;stroke-linejoin:round;stroke-dasharray:none;stroke-opacity:1;paint-order:stroke fill markers"
       d="m 59,67.975605 c 2.597999,1.435145 7.260226,1.511139 10,0"
       id="path124"
       sodipodi:nodetypes="cc" /></g><path
     id="path129"
     style="color:#000000;display:inline;fill:#657580;fill-rule:evenodd;stroke:none;stroke-width:12;stroke-linecap:round;stroke-linejoin:round;stroke-dasharray:none;-inkscape-stroke:none;paint-order:stroke fill markers;opacity:0.5"
     d="m 44.296744,120.68988 c 3.992363,1.38743 8.176485,2.36502 12.502002,2.88241 -0.02326,-0.11332 -0.04991,-0.22665 -0.08,-0.33987 -0.01266,-0.0477 -0.378525,-2.39621 -0.580078,-5.08984 -0.201553,-2.69363 -0.369103,-6.03339 -0.501953,-9.44141 -0.02493,-0.63958 -0.04381,-1.27296 -0.06641,-1.91406 6.707983,0.36215 14.072033,0.36916 20.859375,0.004 -0.10188,2.86449 -0.211691,5.46005 -0.330078,7.59375 -0.243401,4.38684 -0.649282,7.58799 -0.778002,8.54863 4.360861,-0.83274 8.554223,-2.13752 12.524883,-3.85912 0.07753,-1.18074 0.151265,-2.50653 0.235541,-4.02545 0.146965,-2.64875 0.279935,-5.80784 0.398438,-9.44141 0.322825,-0.0505 0.663786,-0.0953 0.976562,-0.14844 3.266716,-0.55508 5.465014,-3.65316 4.910156,-6.919918 -0.303239,-1.6975 -1.322162,-3.182481 -2.796875,-4.076171 0.02996,-0.03063 0.05772,-0.05255 0.08789,-0.08398 0.182663,-0.192957 0.352308,-0.397836 0.507813,-0.613281 0.670684,-0.277096 1.401464,-0.683422 2.271484,-1.335938 2.651597,-1.987888 3.189406,-5.749052 1.201172,-8.40039 -1.987888,-2.651597 -5.749053,-3.189406 -8.400391,-1.201172 1.351774,-1.01383 0.505333,-0.286155 -0.707031,-0.05273 -1.212364,0.23341 -3.029918,0.468103 -5.162109,0.654296 C 77.104759,83.801975 71.543465,84 66,84 60.456535,84 54.895246,83.802075 50.630859,83.429687 48.498668,83.243494 46.681114,83.008801 45.46875,82.775391 c -1.212364,-0.233413 -2.058805,-0.961087 -0.707031,0.05273 -0.842232,-0.631457 -1.835772,-1.03022 -2.88086,-1.15625 -0.260329,-0.03131 -0.521574,-0.04591 -0.783203,-0.04297 -0.261628,0.0029 -0.523641,0.0234 -0.783203,0.06055 -1.575925,0.224665 -2.997983,1.066376 -3.953125,2.339844 -1.988234,2.651338 -1.450425,6.412502 1.201172,8.40039 0.906533,0.6799 1.663982,1.09788 2.357422,1.375 0.129125,0.199595 0.269999,0.39134 0.421875,0.574219 0.03017,0.03144 0.05793,0.05336 0.08789,0.08398 -1.474712,0.89369 -2.493635,2.378671 -2.796875,4.076171 -0.554857,3.266758 1.643441,6.364838 4.910157,6.919918 0.312606,0.0532 0.656034,0.0998 0.980468,0.1504 0.03858,1.18289 0.07654,2.36556 0.123047,3.55859 0.136149,3.49263 0.305899,6.93774 0.525391,9.87109 0.04337,0.57965 0.08363,1.12757 0.124869,1.65082 z"
     inkscape:path-effect="#path-effect1"
     inkscape:original-d="m 41.880859,81.671875 a 6,6 0 0 0 -1.566406,0.01758 6,6 0 0 0 -3.953125,2.339844 6,6 0 0 0 1.201172,8.400391 c 0.906534,0.6799 1.663981,1.097879 2.357422,1.375 a 6,6 0 0 0 0.421875,0.574218 c 0.03017,0.03144 0.05793,0.05336 0.08789,0.08398 a 6,6 0 0 0 -2.796876,4.076171 6,6 0 0 0 4.910157,6.919921 c 0.312607,0.0532 0.656034,0.0998 0.980469,0.1504 0.03858,1.1829 0.07654,2.36556 0.123046,3.55859 0.136149,3.49263 0.305899,6.93773 0.525391,9.87109 0.219492,2.93337 0.35929,5.05449 0.949219,7.27539 a 6,6 0 0 0 7.339844,4.25782 6,6 0 0 0 4.257812,-7.33985 c -0.01266,-0.0477 -0.378525,-2.39621 -0.580078,-5.08984 -0.201553,-2.69363 -0.369103,-6.03339 -0.501953,-9.44141 -0.02493,-0.63958 -0.04381,-1.27296 -0.06641,-1.91406 6.707989,0.36215 14.072027,0.36925 20.859376,0.004 -0.101881,2.8645 -0.211692,5.46005 -0.330079,7.59375 -0.294486,5.30755 -0.826809,8.87946 -0.818359,8.84765 a 6,6 0 0 0 4.257812,7.33985 6,6 0 0 0 7.339844,-4.25782 c 0.727825,-2.74004 0.894977,-5.71183 1.203125,-11.26562 0.146965,-2.64875 0.279935,-5.80784 0.398438,-9.44141 0.322826,-0.0505 0.663785,-0.0953 0.976562,-0.14844 a 6,6 0 0 0 4.910157,-6.919921 6,6 0 0 0 -2.796876,-4.076171 c 0.02996,-0.03063 0.05772,-0.05255 0.08789,-0.08398 a 6,6 0 0 0 0.507813,-0.613281 c 0.670685,-0.277096 1.401463,-0.683421 2.271484,-1.335937 a 6,6 0 0 0 1.201172,-8.400391 6,6 0 0 0 -8.400391,-1.201172 C 88.590051,81.814386 87.74361,82.542066 86.531245,82.775487 85.31888,83.008898 83.50133,83.24359 81.369136,83.429784 77.10475,83.802072 71.543471,84 66,84 60.456529,84 54.89525,83.802076 50.630859,83.429688 48.498665,83.243494 46.681115,83.008802 45.46875,82.775391 c -1.212365,-0.233413 -2.058806,-0.961092 -0.707031,0.05273 a 6,6 0 0 0 -2.88086,-1.15625 z" /><path
     id="path137"
     style="display:inline;fill:#d5425d;stroke:none;stroke-width:12;stroke-dasharray:none;color:#000000;fill-rule:evenodd;stroke-linecap:round;stroke-linejoin:round;-inkscape-stroke:none;paint-order:stroke fill markers"
     d="m 42.661855,120.09482 c 3.744915,1.42535 7.669445,2.48646 11.730295,3.14005 0.546717,-1.21353 0.695114,-2.61583 0.3266,-4.00245 -0.01266,-0.0477 -0.378525,-2.39621 -0.580078,-5.08984 -0.201553,-2.69363 -0.369103,-6.03339 -0.501953,-9.44141 -0.02493,-0.63958 -0.04381,-1.27296 -0.06641,-1.91406 6.707983,0.36215 14.072033,0.36925 20.859375,0.004 -0.10188,2.86449 -0.211691,5.46005 -0.330078,7.59375 -0.294485,5.30754 -0.826809,8.87946 -0.818359,8.84765 -0.368514,1.38662 -0.220117,2.78892 0.3266,4.00245 4.063214,-0.65397 7.98995,-1.71594 11.736841,-3.14255 0.358337,-2.23504 0.509195,-4.9316 0.73734,-9.04349 0.146965,-2.64875 0.279935,-5.80784 0.398438,-9.44141 0.322825,-0.0505 0.663786,-0.0953 0.976562,-0.14844 3.266714,-0.55508 5.465012,-3.653164 4.910156,-6.919918 -0.303239,-1.6975 -1.322162,-3.182481 -2.796875,-4.076171 0.02996,-0.03063 0.05772,-0.05255 0.08789,-0.08398 0.182663,-0.192957 0.352308,-0.397836 0.507813,-0.613281 0.670684,-0.277096 1.401464,-0.683422 2.271484,-1.335938 2.651597,-1.987888 3.189406,-5.749052 1.201172,-8.40039 -1.987888,-2.651597 -5.749053,-3.189406 -8.400391,-1.201172 1.351774,-1.01383 0.505333,-0.286151 -0.707031,-0.05273 -1.212364,0.23341 -3.029918,0.468103 -5.162109,0.654296 C 75.104754,79.802071 69.543465,80 64,80 58.456535,80 52.895246,79.802075 48.630859,79.429687 46.498668,79.243494 44.681114,79.008801 43.46875,78.775391 c -1.212364,-0.233413 -2.058805,-0.961091 -0.707031,0.05273 -0.842232,-0.631457 -1.835772,-1.03022 -2.88086,-1.15625 -0.260329,-0.03131 -0.521574,-0.04591 -0.783203,-0.04297 -0.261628,0.0029 -0.523641,0.0234 -0.783203,0.06055 -1.575925,0.224665 -2.997983,1.066376 -3.953125,2.339844 -1.988234,2.651338 -1.450425,6.412502 1.201172,8.40039 0.906533,0.6799 1.663982,1.09788 2.357422,1.375 0.129125,0.199595 0.269999,0.39134 0.421875,0.574219 0.03017,0.03144 0.05793,0.05336 0.08789,0.08398 -1.474712,0.89369 -2.493635,2.378671 -2.796875,4.076171 -0.554855,3.266754 1.643443,6.364838 4.910157,6.919918 0.312606,0.0532 0.656034,0.0998 0.980468,0.1504 0.03858,1.18289 0.07654,2.36556 0.123047,3.55859 0.136149,3.49263 0.305899,6.93774 0.525391,9.87109 0.146386,1.95635 0.257324,3.55142 0.48998,5.05576 z"
     inkscape:path-effect="#path-effect2"
     inkscape:original-d="M 39.880859 77.671875 A 6 6 0 0 0 38.314453 77.689453 A 6 6 0 0 0 34.361328 80.029297 A 6 6 0 0 0 35.5625 88.429688 C 36.469034 89.109588 37.226481 89.527567 37.919922 89.804688 A 6 6 0 0 0 38.341797 90.378906 C 38.371969 90.410343 38.399728 90.432262 38.429688 90.462891 A 6 6 0 0 0 35.632812 94.539062 A 6 6 0 0 0 40.542969 101.45898 C 40.855576 101.51213 41.199003 101.55881 41.523438 101.60938 C 41.562022 102.79228 41.599978 103.97494 41.646484 105.16797 C 41.782633 108.6606 41.952383 112.1057 42.171875 115.03906 C 42.391367 117.97243 42.531165 120.09355 43.121094 122.31445 A 6 6 0 0 0 50.460938 126.57227 A 6 6 0 0 0 54.71875 119.23242 C 54.70609 119.18472 54.340225 116.83621 54.138672 114.14258 C 53.937119 111.44895 53.769569 108.10919 53.636719 104.70117 C 53.611787 104.06159 53.592909 103.42821 53.570312 102.78711 C 60.278301 103.14926 67.642339 103.15636 74.429688 102.79102 C 74.327807 105.65552 74.217996 108.25107 74.099609 110.38477 C 73.805123 115.69232 73.2728 119.26423 73.28125 119.23242 A 6 6 0 0 0 77.539062 126.57227 A 6 6 0 0 0 84.878906 122.31445 C 85.606731 119.57441 85.773883 116.60262 86.082031 111.04883 C 86.228996 108.40008 86.361966 105.24099 86.480469 101.60742 C 86.803295 101.55694 87.144254 101.51215 87.457031 101.45898 A 6 6 0 0 0 92.367188 94.539062 A 6 6 0 0 0 89.570312 90.462891 C 89.600272 90.432262 89.628031 90.410343 89.658203 90.378906 A 6 6 0 0 0 90.166016 89.765625 C 90.836701 89.488529 91.567479 89.082204 92.4375 88.429688 A 6 6 0 0 0 93.638672 80.029297 A 6 6 0 0 0 85.238281 78.828125 C 86.590056 77.814294 85.743615 78.541974 84.53125 78.775391 C 83.318885 79.008802 81.501335 79.243494 79.369141 79.429688 C 75.10475 79.802072 69.543471 80 64 80 C 58.456529 80 52.89525 79.802076 48.630859 79.429688 C 46.498665 79.243494 44.681115 79.008802 43.46875 78.775391 C 42.256385 78.541978 41.409944 77.814299 42.761719 78.828125 A 6 6 0 0 0 39.880859 77.671875 z " /><g
     id="g121"
     style="display:inline;stroke:#ff8090;stroke-width:4;stroke-dasharray:none"><path
       d="m 39.162109,83.628906 c 4.215241,3.16143 45.460541,3.161431 49.675782,0"
       style="opacity:1;fill:none;fill-rule:evenodd;stroke:#ff8090;stroke-width:4;stroke-linecap:round;stroke-linejoin:round;stroke-dasharray:none;stroke-opacity:1;paint-order:stroke fill markers"
       id="path112"
       sodipodi:nodetypes="cc" /><path
       d="m 42.669922,86.224609 c 3.619807,3.771566 39.040349,3.771566 42.660156,0"
       style="opacity:1;fill:none;fill-rule:evenodd;stroke:#ff8090;stroke-width:4;stroke-linecap:round;stroke-linejoin:round;paint-order:stroke fill markers;stroke-dasharray:none"
       id="path114"
       sodipodi:nodetypes="cc" /><path
       d="m 47.187928,87.708614 c 0.106816,6.387239 0.526813,28.527676 1.731994,33.064826 m 30.160156,0 c 0.719375,-2.70824 1.397928,-13.0889 1.731994,-33.064826"
       style="opacity:1;fill:none;fill-rule:evenodd;stroke:#ff8090;stroke-width:4;stroke-linecap:round;stroke-linejoin:round;stroke-opacity:1;paint-order:stroke fill markers;stroke-dasharray:none"
       id="path116"
       sodipodi:nodetypes="cccc" /><path
       d="m 41.548641,95.543951 c 11.025893,1.874312 33.269685,1.977523 44.902718,0"
       style="opacity:1;fill:none;fill-rule:evenodd;stroke:#ff8090;stroke-width:4;stroke-linecap:round;stroke-linejoin:round;stroke-opacity:1;paint-order:stroke fill markers;stroke-dasharray:none"
       id="path118"
       sodipodi:nodetypes="cc" /></g><circle
     r="60"
     cy="64"
     cx="64"
     fill="#8af19d"
     paint-order="fill markers stroke"
     stroke="#00c853"
     stroke-width="4"
     id="circle121"
     style="display:inline;fill:none;fill-opacity:1;stroke:#373737;stroke-opacity:1" /><image
     width="124"
     height="124"
     preserveAspectRatio="none"
     xlink:href="../../../Users/lucy/Downloads/07032024_190033/nihonoari.png"
     id="image1"
     x="2"
     y="2"
     style="display:none;opacity:0.25"
     sodipodi:insensitive="true" /></svg>
