<?xml version="1.0" encoding="UTF-8" standalone="no"?>
<!-- Created with Inkscape (http://www.inkscape.org/) -->

<svg
   enable-background="new"
   inkscape:export-ydpi="384"
   inkscape:export-xdpi="384"
   inkscape:export-filename="..\app\src\main\res\drawable-nodpi\nintendo_switch_online.png"
   sodipodi:docname="nintendo_switch_online.svg"
   inkscape:version="1.3 (0e150ed6c4, 2023-07-21)"
   id="svg8"
   version="1.1"
   viewBox="0 0 128 128"
   height="128"
   width="128"
   xml:space="preserve"
   xmlns:inkscape="http://www.inkscape.org/namespaces/inkscape"
   xmlns:sodipodi="http://sodipodi.sourceforge.net/DTD/sodipodi-0.dtd"
   xmlns:xlink="http://www.w3.org/1999/xlink"
   xmlns="http://www.w3.org/2000/svg"
   xmlns:svg="http://www.w3.org/2000/svg"
   xmlns:rdf="http://www.w3.org/1999/02/22-rdf-syntax-ns#"
   xmlns:cc="http://creativecommons.org/ns#"
   xmlns:dc="http://purl.org/dc/elements/1.1/"><sodipodi:namedview
     id="base"
     pagecolor="#ffffff"
     bordercolor="#666666"
     borderopacity="1.0"
     inkscape:pageopacity="0.0"
     inkscape:pageshadow="2"
     inkscape:zoom="5.6568542"
     inkscape:cx="75.48365"
     inkscape:cy="84.852814"
     inkscape:document-units="px"
     inkscape:current-layer="layer55"
     showgrid="true"
     units="px"
     inkscape:pagecheckerboard="true"
     borderlayer="true"
     gridtolerance="10"
     inkscape:snap-smooth-nodes="true"
     inkscape:snap-text-baseline="true"
     inkscape:snap-page="true"
     showguides="true"
     inkscape:guide-bbox="true"
     inkscape:snap-object-midpoints="true"
     inkscape:snap-center="true"
     inkscape:snap-global="true"
     inkscape:lockguides="false"
     inkscape:snap-bbox="true"
     inkscape:bbox-nodes="true"
     inkscape:showpageshadow="0"
     inkscape:deskcolor="#d1d1d1"
     inkscape:window-width="1858"
     inkscape:window-height="1057"
     inkscape:window-x="54"
     inkscape:window-y="-8"
     inkscape:window-maximized="1"><inkscape:grid
       enabled="false"
       empspacing="4"
       id="grid4131"
       type="xygrid"
       spacingx="8"
       spacingy="8"
       originx="0"
       originy="0"
       units="px"
       visible="true" /><inkscape:grid
       empspacing="4"
       id="grid4167"
       type="xygrid"
       originx="0"
       originy="0"
       spacingy="1"
       spacingx="1"
       units="px"
       visible="true" /></sodipodi:namedview><defs
     id="defs2"><clipPath
       clipPathUnits="userSpaceOnUse"
       id="clipPath3104"><path
         style="opacity:1;vector-effect:none;fill:#e2e2e2;fill-opacity:1;fill-rule:nonzero;stroke:none;stroke-width:80;stroke-linecap:round;stroke-linejoin:round;stroke-miterlimit:4;stroke-dasharray:none;stroke-dashoffset:2.99999666;stroke-opacity:1;paint-order:stroke fill markers"
         d="m 64,39 c -10.666667,0 -21.383201,0.254594 -30,1 -0.752678,7.397255 -1,16 -1,24 0,8 0.247322,16.602745 1,24 8.616799,0.745406 19.333333,1 30,1 10.666667,0 21.383201,-0.254594 30,-1 0.752678,-7.397255 1,-16 1,-24 C 95,56 94.752678,47.397255 94,40 85.383201,39.254594 74.666667,39 64,39 Z"
         id="path3106"
         inkscape:connector-curvature="0" /></clipPath><clipPath
       clipPathUnits="userSpaceOnUse"
       id="clipPath3161"><circle
         r="60"
         cy="64"
         cx="64"
         id="circle3163"
         style="display:inline;opacity:1;vector-effect:none;fill:#6d9fe9;fill-opacity:1;fill-rule:nonzero;stroke:none;stroke-width:4;stroke-linecap:butt;stroke-linejoin:round;stroke-miterlimit:4;stroke-dasharray:none;stroke-dashoffset:0;stroke-opacity:1;paint-order:fill markers stroke" /></clipPath><filter
       style="color-interpolation-filters:sRGB"
       inkscape:label="Drop Shadow"
       id="filter3270-3"
       x="-0.069299468"
       width="1.1385989"
       y="-0.052421891"
       height="1.1048438"
       inkscape:auto-region="true"><feFlood
         id="feFlood63"
         flood-color="rgb(213,66,93)"
         flood-opacity="0.5" /><feComposite
         id="feComposite3276-5"
         in2="SourceGraphic"
         operator="in" /></filter></defs><metadata
     id="metadata5"><rdf:RDF><cc:Work
         rdf:about=""><dc:format>image/svg+xml</dc:format><dc:type
           rdf:resource="http://purl.org/dc/dcmitype/StillImage" /></cc:Work></rdf:RDF></metadata><style
     id="style2296">.B{fill:#fc9abf}.C{fill:#ffc7df}.D{fill:#ed84cb}.E{fill-opacity:1}.F{stroke:none}</style><g
     inkscape:groupmode="layer"
     id="layer55"
     inkscape:label="PSP"
     style="display:inline"><circle
       style="display:inline;opacity:1;vector-effect:none;fill:#ff8090;fill-opacity:1;fill-rule:nonzero;stroke:#d5425d;stroke-width:4;stroke-linecap:butt;stroke-linejoin:round;stroke-miterlimit:4;stroke-dasharray:none;stroke-dashoffset:0;stroke-opacity:1;paint-order:fill markers stroke;font-variation-settings:normal;-inkscape-stroke:none;stop-color:#000000;stop-opacity:1"
       id="circle3700-5"
       cx="64"
       cy="64"
       r="60" /><use
       x="0"
       y="0"
       xlink:href="#g9"
       id="use9"
       style="display:inline;font-variation-settings:normal;opacity:1;vector-effect:none;fill:#ff8090;fill-opacity:1;stroke:#d5425d;stroke-width:4;stroke-linecap:butt;stroke-linejoin:round;stroke-miterlimit:4;stroke-dasharray:none;stroke-dashoffset:0;stroke-opacity:1;-inkscape-stroke:none;paint-order:fill markers stroke;stop-color:#000000;stop-opacity:1;filter:url(#filter3270-3)"
       transform="translate(2,4)" /><g
       id="g9"><path
         id="rect32"
         style="fill:#d5425d;stroke-width:8;stroke-linecap:round;stroke-linejoin:round;paint-order:stroke fill markers;fill-opacity:1"
         d="M 72,48 H 88 V 64 H 72 Z M 43.875,76 37.208984,67.080078 V 35.169922 L 43.875,25.75 60.502,25.197266 60,76 Z M 45,99 h -8 v -9 h 8 z"
         sodipodi:nodetypes="ccccccccccccccccc" /><path
         id="path32"
         style="display:inline;fill:#ffffff;fill-opacity:1;stroke:#d5425d;stroke-width:8;stroke-linecap:round;stroke-linejoin:round;stroke-dasharray:none;stroke-opacity:1;paint-order:stroke fill markers"
         d="m 49.972656,24 c -7.180126,0 -11.890315,5.952212 -12.763672,11.169922 -0.543032,3.244247 -0.797392,8.112281 -0.798828,15.955078 0.0014,7.842797 0.255796,12.710831 0.798828,15.955078 C 38.082341,72.297787 42.79253,78.25 49.972656,78.25 56.35499,78.25 59.704208,77.850527 60.502,77.052734 61.299792,76.254943 62.448,75.058752 62.448,51.125 62.448,27.191248 61.299792,25.995058 60.502,25.197266 59.704208,24.399474 56.35499,24 49.972656,24 Z m 28.054688,0 c -6.382335,0 -6.831114,0.399474 -7.628906,1.197266 -0.797792,0.797792 -1.146485,1.993982 -1.146485,25.927734 0,23.933752 0.348693,25.129943 1.146485,25.927734 0.797792,0.797793 1.246571,1.197266 7.628906,1.197266 7.180125,0 11.890311,-5.952213 12.763672,-11.169922 C 91.334049,63.835831 91.588248,58.967797 91.589844,51.125 91.588444,43.282203 91.334049,38.414169 90.791016,35.169922 89.917655,29.952212 85.207469,24 78.027344,24 Z M 49.966,27.722656 c 4.234375,0 6.763309,0.05597 7.43,0.722656 0.666691,0.666692 1.257515,2.678956 1.257515,22.679688 0,20.000732 -0.590824,22.012996 -1.257515,22.679688 -0.666691,0.666691 -3.158831,0.722656 -7.43,0.722656 -2.966,0 -7.683689,-3.326116 -8.467,-8.00586 -0.487043,-2.909752 -0.933347,-8.919118 -0.934547,-15.396484 0.0012,-6.477366 0.447504,-12.486732 0.934547,-15.396484 0.783311,-4.679744 5.224434,-8.00586 8.467,-8.00586 z m 0.311,4.25586 c -2.643654,0 -4.787109,2.143455 -4.787109,4.787109 0,2.643654 2.143455,4.785156 4.787109,4.785156 2.643654,0 4.787109,-2.141502 4.787109,-4.785156 10e-7,-2.643654 -2.143455,-4.787109 -4.787109,-4.787109 z m 29.346047,19.380859 c 2.954315,0 5.349609,2.395294 5.349609,5.349609 0,2.954315 -2.395294,5.34961 -5.349609,5.34961 -2.954315,0 -5.349609,-2.395295 -5.349609,-5.34961 0,-2.954315 2.395294,-5.349609 5.349609,-5.349609 z"
         sodipodi:nodetypes="sscsssssssssssscsssssssscssssssssssss" /><text
         xml:space="preserve"
         style="display:inline;font-style:normal;font-variant:normal;font-weight:bold;font-stretch:normal;font-size:16px;line-height:1;font-family:Mikado;-inkscape-font-specification:'Mikado Bold';text-align:center;text-decoration:none;text-decoration-line:none;text-decoration-color:#000000;letter-spacing:0px;text-anchor:middle;white-space:pre;fill:#ffffff;fill-opacity:1;stroke:#d5425d;stroke-width:8;stroke-linecap:round;stroke-linejoin:round;stroke-dasharray:none;stroke-opacity:1;paint-order:stroke fill markers"
         x="63.995754"
         y="100"
         id="text32"><tspan
           sodipodi:role="line"
           id="tspan32"
           x="63.995754"
           y="100">ONLINE</tspan></text></g></g></svg>
