<svg version="1.1" viewBox="0 0 128 128" xmlns="http://www.w3.org/2000/svg"><defs><filter id="a" x="-.056826" y="-.057333" width="1.1421" height="1.172" color-interpolation-filters="sRGB"><feFlood flood-color="rgb(100,100,100)" flood-opacity=".5"/><feComposite in2="SourceGraphic" operator="in"/><feOffset dx="2" dy="4" result="result1"/><feMerge><feMergeNode in="result1"/><feMergeNode in="SourceGraphic"/></feMerge></filter></defs><g stroke-linecap="round" stroke-linejoin="round" stroke-width="4"><circle cx="64" cy="64" r="60" fill="#d4d4d4" stroke="#646464"/><path d="m80.205 45.444c-2.0576 11.634-5.0954 22.364-9.4094 33.375-10.862-5.8667-20.437-11.366-29.253-18.62 5.3872-3.6951 10.392-6.541 13.547-8.1099-2.0723-5.588-3.1153-7.8973-5.582-11.779-5.6158 0.37751-10.783 2.0391-15.402 5.1832-4.1168 5.7279-6.9624 12.574-9.0052 20.121 16.342 14.063 34.118 25.318 53.258 33.899 8.7719-20.149 15.527-40.366 17.131-60.762-7.0056-4.7534-13.009-7.2435-20.121-9.0052-5.7545 1.0242-11.509 3.3454-15.895 6.6346 0.73754 4.1828 2.9166 7.2869 5.108 11.996 4.9511-1.8873 10.564-2.5043 15.624-2.933z" fill="#9a6fc7" filter="url(#a)" stroke="#6b5a83" stroke-linecap="round" stroke-linejoin="round" stroke-width="8" style="paint-order:stroke fill markers"/></g></svg>
