<svg xmlns="http://www.w3.org/2000/svg" xml:space="preserve" width="128" height="128"><g stroke-linecap="round" stroke-linejoin="round" stroke-width="4"><circle cx="64" cy="64" r="60" fill="#d4d4d4" stroke="#646464"/><path fill="#646464" stroke="#646464" d="M67.262 53.329c5.242.308 9.078-.947 13.749-2.82-4.765 10.866-7.97 21.882-9.325 33.076-8.522-8.778-18.63-13.906-28.991-18.453 6.215-1.813 9.728-4.204 12.038-6.823-.608-5.875-2.047-9.944-4.877-14.075-6.114.411-11.74 2.22-16.768 5.643-4.482 6.236-7.58 13.689-9.804 21.906 17.792 15.31 37.144 27.564 57.982 36.906 9.55-21.936 16.904-43.947 18.651-66.152-7.627-5.175-14.163-7.886-21.906-9.804-6.265 1.115-11.489 3.382-16.264 6.963 1.612 6.018 2.928 9.17 5.515 13.633" opacity=".5"/><path fill="#9a6fc7" stroke="#6b5a83" d="M65.262 49.329c5.242.308 9.078-.947 13.749-2.82-4.765 10.866-7.97 21.882-9.325 33.076-8.522-8.778-18.63-13.906-28.991-18.453 6.215-1.813 9.728-4.204 12.038-6.823-.608-5.875-2.047-9.944-4.877-14.075-6.114.411-11.74 2.22-16.768 5.643-4.482 6.236-7.58 13.689-9.804 21.906 17.792 15.31 37.144 27.564 57.982 36.906 9.55-21.936 16.904-43.947 18.651-66.152-7.627-5.175-14.163-7.886-21.906-9.804-6.265 1.115-11.489 3.382-16.264 6.963 1.612 6.018 2.928 9.17 5.515 13.633"/></g></svg>