<?xml version="1.0" encoding="UTF-8" standalone="no"?>
<!-- Created with Inkscape (http://www.inkscape.org/) -->

<svg
   enable-background="new"
   inkscape:export-ydpi="384"
   inkscape:export-xdpi="384"
   inkscape:export-filename="..\app\src\main\res\drawable-nodpi\ola_party.png"
   sodipodi:docname="ola_party.svg"
   inkscape:version="1.3 (0e150ed6c4, 2023-07-21)"
   id="svg8"
   version="1.1"
   viewBox="0 0 128 128"
   height="128"
   width="128"
   xml:space="preserve"
   xmlns:inkscape="http://www.inkscape.org/namespaces/inkscape"
   xmlns:sodipodi="http://sodipodi.sourceforge.net/DTD/sodipodi-0.dtd"
   xmlns:xlink="http://www.w3.org/1999/xlink"
   xmlns="http://www.w3.org/2000/svg"
   xmlns:svg="http://www.w3.org/2000/svg"
   xmlns:rdf="http://www.w3.org/1999/02/22-rdf-syntax-ns#"
   xmlns:cc="http://creativecommons.org/ns#"
   xmlns:dc="http://purl.org/dc/elements/1.1/"><sodipodi:namedview
     id="base"
     pagecolor="#ffffff"
     bordercolor="#666666"
     borderopacity="1.0"
     inkscape:pageopacity="0.0"
     inkscape:pageshadow="2"
     inkscape:zoom="2"
     inkscape:cx="7"
     inkscape:cy="108"
     inkscape:document-units="px"
     inkscape:current-layer="g3233"
     showgrid="false"
     units="px"
     inkscape:pagecheckerboard="true"
     borderlayer="true"
     gridtolerance="10"
     inkscape:snap-smooth-nodes="true"
     inkscape:snap-text-baseline="true"
     inkscape:snap-page="true"
     showguides="true"
     inkscape:guide-bbox="true"
     inkscape:snap-object-midpoints="true"
     inkscape:snap-center="true"
     inkscape:snap-global="true"
     inkscape:lockguides="false"
     inkscape:snap-bbox="true"
     inkscape:bbox-nodes="true"
     inkscape:showpageshadow="0"
     inkscape:deskcolor="#d1d1d1"
     inkscape:window-width="1852"
     inkscape:window-height="1057"
     inkscape:window-x="60"
     inkscape:window-y="-8"
     inkscape:window-maximized="1"><inkscape:grid
       enabled="false"
       empspacing="4"
       id="grid4131"
       type="xygrid"
       spacingx="8"
       spacingy="8"
       originx="0"
       originy="0"
       units="px"
       visible="false" /><inkscape:grid
       empspacing="4"
       id="grid4167"
       type="xygrid"
       originx="0"
       originy="0"
       spacingy="1"
       spacingx="1"
       units="px"
       visible="false" /></sodipodi:namedview><defs
     id="defs2"><filter
       id="filter265"
       inkscape:label="Drop Shadow red"
       style="color-interpolation-filters:sRGB"
       x="-0.060000000000000005"
       y="1.0408340855860843e-17"
       width="1.1100000000000001"
       height="1.1300000000000001"
       inkscape:auto-region="false"><feFlood
         id="feFlood264"
         result="flood"
         flood-color="rgb(91,147,35)"
         flood-opacity="0.498039" /><feComposite
         id="feComposite264"
         result="composite1"
         operator="in"
         in2="SourceGraphic"
         in="flood" /><feOffset
         id="feOffset264"
         result="offset"
         dy="4"
         dx="2" /><feComposite
         id="feComposite265"
         result="composite2"
         operator="over"
         in2="offset"
         in="SourceGraphic" /></filter><mask
       maskUnits="userSpaceOnUse"
       id="mask3"><use
         x="0"
         y="0"
         xlink:href="#path2"
         id="use4" /></mask><clipPath
       clipPathUnits="userSpaceOnUse"
       id="clipPath4"><use
         x="0"
         y="0"
         xlink:href="#path2"
         id="use5" /></clipPath><clipPath
       clipPathUnits="userSpaceOnUse"
       id="clipPath8"><use
         x="0"
         y="0"
         xlink:href="#circle6"
         id="use8" /></clipPath></defs><metadata
     id="metadata5"><rdf:RDF><cc:Work
         rdf:about=""><dc:format>image/svg+xml</dc:format><dc:type
           rdf:resource="http://purl.org/dc/dcmitype/StillImage" /></cc:Work></rdf:RDF></metadata><style
     id="style2296">.B{fill:#fc9abf}.C{fill:#ffc7df}.D{fill:#ed84cb}.E{fill-opacity:1}.F{stroke:none}</style><g
     style="display:inline"
     inkscape:label="0h h1"
     id="g3233"
     inkscape:groupmode="layer"><g
       id="g2"
       style="display:none"
       sodipodi:insensitive="true"><path
         style="fill:#ffffff;fill-opacity:1;stroke:#ffffff;stroke-width:8;stroke-linejoin:round;stroke-dasharray:none;stroke-opacity:1;paint-order:markers stroke fill"
         d="m 71.709601,27.97913 c -1.06149,4.02286 1.374421,8.900623 7.101154,12.910525 5.689816,3.984052 12.346053,3.022295 14.948123,1.59432 0.666187,-5.486903 -0.869428,-15.59652 -2.506056,-21.042072 -5.578941,0.597704 -15.599581,3.648796 -19.543221,6.537227 z"
         id="path2"
         sodipodi:nodetypes="csccc" /></g><g
       inkscape:groupmode="maskhelper"
       id="g8"
       clip-path="url(#clipPath8)"><circle
         style="display:inline;opacity:1;vector-effect:none;fill:#b7ed50;fill-opacity:1;fill-rule:nonzero;stroke:#5b9323;stroke-width:4;stroke-linecap:butt;stroke-linejoin:round;stroke-miterlimit:4;stroke-dasharray:none;stroke-dashoffset:0;stroke-opacity:1;paint-order:fill markers stroke"
         id="circle3261"
         cx="64"
         cy="64"
         r="60" /><path
         style="color:#000000;display:inline;fill:#45a9f3;fill-opacity:1;stroke-linejoin:round;-inkscape-stroke:none;paint-order:markers stroke fill"
         d="m 114.5708,67.208345 c -3.35532,0.139975 -6.17209,1.670306 -8.28906,2.75586 -2.82264,1.447405 -4.4167,2.205472 -6.48828,1.65039 l -0.75192,6.207952 c 5.0723,1.35912 9.32108,-0.777891 12.21094,-2.259766 2.88985,-1.481874 4.40649,-2.209004 6.09765,-1.755859 l 0.74997,-6.205998 c -1.2323,-0.330192 -2.41086,-0.439237 -3.5293,-0.392579 z"
         id="path8"
         sodipodi:nodetypes="ssccsccs" /><g
         id="g9"
         style="filter:url(#filter265)"><path
           id="path1"
           style="fill:#e2db53;fill-opacity:1;stroke:#b9a400;stroke-width:8;stroke-linejoin:round;stroke-dasharray:none;stroke-opacity:1;paint-order:markers stroke fill"
           d="M 64,29.75736 C 45.088312,29.75736 29.75736,45.088312 29.75736,64 29.75736,82.911688 45.088312,98.24264 64,98.24264 82.911688,98.24264 98.24264,82.911688 98.24264,64 98.24264,45.088312 82.911688,29.75736 64,29.75736 Z m 0,19.939204 c 7.899817,0 14.303436,6.403619 14.303436,14.303436 0,7.899817 -6.403619,14.303436 -14.303436,14.303436 -7.899817,0 -14.303436,-6.403619 -14.303436,-14.303436 0,-7.899817 6.403619,-14.303436 14.303436,-14.303436 z"
           sodipodi:nodetypes="ssssssssss" /><g
           inkscape:groupmode="maskhelper"
           id="g3"
           mask="url(#mask3)"><rect
             style="fill:#d5425d;fill-opacity:1;stroke:none;stroke-width:8;stroke-linejoin:round;stroke-dasharray:none;stroke-opacity:1;paint-order:markers stroke fill"
             id="rect3"
             width="38.744358"
             height="40.257004"
             x="63.286057"
             y="13.081475" /><path
             style="display:inline;fill:#b9a400;fill-opacity:1;stroke:none;stroke-width:8;stroke-linejoin:round;stroke-dasharray:none;stroke-opacity:1;paint-order:markers stroke fill"
             d="m 75.6875,20.9375 c -0.922669,10.54616 11.201171,20.458252 22.5,16.75 8.802,-2.888797 4.61076,-15.382853 -2.904861,-21.689209 C 87.767017,9.6919348 76.386608,12.946651 75.6875,20.9375 Z"
             id="path5"
             sodipodi:nodetypes="ssss" /><path
             style="display:inline;fill:#6b5a83;fill-opacity:1;stroke:none;stroke-width:8;stroke-linejoin:round;stroke-dasharray:none;stroke-opacity:1;paint-order:markers stroke fill"
             d="m 84.345421,19.083042 c -1.242626,6.802479 7.575309,13.460591 12.962332,9.323681 2.616516,-2.009326 -0.656136,-8.571655 -3.332561,-10.817442 -2.676425,-2.245787 -9.116455,-1.31627 -9.629771,1.493761 z"
             id="path6"
             sodipodi:nodetypes="ssss" /></g><g
           inkscape:groupmode="maskhelper"
           id="g4"
           clip-path="url(#clipPath4)"><rect
             style="display:inline;fill:#ff8090;fill-opacity:1;stroke:none;stroke-width:8;stroke-linejoin:round;stroke-dasharray:none;stroke-opacity:1;paint-order:markers stroke fill"
             id="rect4"
             width="38.744358"
             height="36.416"
             x="63.286057"
             y="13.081475" /><path
             style="display:inline;fill:#e2db53;fill-opacity:1;stroke:none;stroke-width:8;stroke-linejoin:round;stroke-dasharray:none;stroke-opacity:1;paint-order:markers stroke fill"
             d="m 75.6875,20.9375 c -0.922669,10.54616 11.201171,20.458252 22.5,16.75 8.802,-2.888797 4.61076,-15.382853 -2.904861,-21.689209 C 87.767017,9.6919348 76.386608,12.946651 75.6875,20.9375 Z"
             id="path5-4"
             sodipodi:nodetypes="ssss" /><path
             style="display:inline;fill:#9a6fc7;fill-opacity:1;stroke:none;stroke-width:8;stroke-linejoin:round;stroke-dasharray:none;stroke-opacity:1;paint-order:markers stroke fill"
             d="m 84.345421,19.083042 c -1.242626,6.802479 7.575309,13.460591 12.962332,9.323681 2.616516,-2.009326 -0.656136,-8.571655 -3.332561,-10.817442 -2.676425,-2.245787 -9.116455,-1.31627 -9.629771,1.493761 z"
             id="path6-4"
             sodipodi:nodetypes="ssss" /></g></g><path
         style="color:#000000;display:inline;fill:#47aebf;fill-opacity:1;stroke-linejoin:round;-inkscape-stroke:none;paint-order:markers stroke fill"
         d="M 61.286057,17.081475 C 60.282431,13.876713 58.075211,11.552001 56.478733,9.788127 54.350094,7.436283 53.205285,6.092741 53.205289,3.9480829 L 47.014256,4.82852 c -1e-6,5.251232 3.163858,8.802139 5.34319,11.209992 2.179329,2.407843 3.274218,3.68461 3.274218,5.435428 l 6.188641,-0.881816 c -2e-6,-1.27577 -0.199707,-2.442395 -0.534248,-3.510649 z"
         id="path9"
         sodipodi:nodetypes="ssccsccs" /><path
         style="color:#000000;fill:#dfd60d;stroke-linejoin:round;-inkscape-stroke:none;paint-order:markers stroke fill;fill-opacity:1"
         d="m 11.900391,33.392578 -3.0527347,7.394531 c 4.6629647,2.557433 9.5068417,4.662582 14.6406247,6.042969 1.61688,-2.428274 2.569738,-4.843599 3.052735,-7.394531 C 21.117605,37.692825 16.38603,35.604186 11.900391,33.392578 Z"
         id="path12"
         sodipodi:nodetypes="ccccc" /><path
         sodipodi:type="star"
         style="fill:#45a9f3;fill-opacity:1;stroke:none;stroke-width:8;stroke-linejoin:round;stroke-dasharray:none;stroke-opacity:1;paint-order:markers stroke fill"
         id="path14"
         inkscape:flatsided="true"
         sodipodi:sides="3"
         sodipodi:cx="29"
         sodipodi:cy="98.5"
         sodipodi:r1="7.1151247"
         sodipodi:r2="3.5575624"
         sodipodi:arg1="-1.2217305"
         sodipodi:arg2="-0.17453293"
         inkscape:rounded="0.1"
         inkscape:randomized="0"
         d="m 31.433516,91.81397 c 1.158054,0.421497 3.084053,11.34438 2.139998,12.13653 -0.944054,0.79216 -11.366544,-3.00132 -11.580544,-4.214971 -0.214,-1.213654 8.282491,-8.343057 9.440546,-7.921559 z"
         inkscape:transform-center-x="1.0925861"
         inkscape:transform-center-y="-0.57284352" /><circle
         style="fill:#f08116;fill-opacity:1;stroke:none;stroke-width:8;stroke-linejoin:round;stroke-dasharray:none;stroke-opacity:1;paint-order:markers stroke fill"
         id="path15"
         cx="86.863976"
         cy="114.08118"
         r="5.3916893" /></g><circle
       style="display:inline;opacity:1;vector-effect:none;fill:none;fill-opacity:1;fill-rule:nonzero;stroke:#5b9323;stroke-width:4;stroke-linecap:butt;stroke-linejoin:round;stroke-miterlimit:4;stroke-dasharray:none;stroke-dashoffset:0;stroke-opacity:1;paint-order:fill markers stroke"
       id="circle6"
       cx="64"
       cy="64"
       r="60" /></g></svg>
