<svg version="1.1" viewBox="0 0 128 128" xmlns="http://www.w3.org/2000/svg"><defs><filter id="a" x="-.020983" y="-.021445" width="1.063" height="1.0858" color-interpolation-filters="sRGB"><feFlood flood-color="rgb(91,147,35)" flood-opacity=".5"/><feComposite in2="SourceGraphic" operator="in"/><feOffset dx="2" dy="4" result="result1"/><feMerge><feMergeNode in="result1"/><feMergeNode in="SourceGraphic"/></feMerge></filter></defs><circle cx="64" cy="64" r="60" fill="#b7ed50" stroke="#5b9323" stroke-width="4"/><g stroke-linecap="round" stroke-linejoin="round"><g transform="translate(1)" filter="url(#a)" stroke="#5b9323" stroke-width="4"><path d="m31.74 46.999c0 23.001 15.304 51.697 32.26 63.001 16.956-11.304 32.26-40 32.26-63.001 0-16.999-11.623-30.26-32.26-30.26s-32.26 13.261-32.26 30.26z" fill="#fff"/><path d="m86.831 73.983c-2.762 6.954-14.434 16.651-24.394 17.403-4.618 0.349-12.51-1.649-12.394-6.278 0.155-6.15 9.095-11.969 14.142-13.47 8.827-2.628 16.375-0.088 22.646 2.345m-48.784-7.998c1.86-7.248 11.358-19.08 21.102-21.3 4.515-1.029 12.618 0.052 13.089 4.66 0.624 6.12-7.508 13.023-12.324 15.15-8.424 3.724-15.339 3.11-21.867 1.49" fill="#b7ed50"/><path d="m31.071 56.358c-40.047 19.985-1.076 17.919 25.819-0.506m40.362-4.785c25.409-15.19 8.234 22.046-30.94 30.049" fill="none"/></g><ellipse cx="54" cy="28.28" rx="4" ry="2.5" fill="#5b9323" opacity=".5"/><ellipse cx="76" cy="28.28" rx="4" ry="2.5" fill="#5b9323" opacity=".5"/></g><g fill="#4c4c4c" stroke-linecap="round" stroke-linejoin="round"><circle cx="57" cy="26.28" r="2"/><circle cx="73" cy="26.28" r="2"/><path d="m65 33.28c-1.577 0-3-0.36-4.066-1.569-0.662-0.75-0.598-1.67-0.065-2.197s1.494-0.624 2.197 0.086c0.458 0.463 0.94 0.68 1.934 0.68s1.476-0.217 1.933-0.68c0.704-0.71 1.664-0.613 2.197-0.086 0.533 0.528 0.598 1.447-0.064 2.197-1.066 1.209-2.489 1.569-4.066 1.569"/></g></svg>
