<?xml version="1.0" encoding="UTF-8" standalone="no"?>
<svg
   enable-background="new"
   version="1.1"
   viewBox="0 0 128 128"
   id="svg3"
   sodipodi:docname="proton drive.svg"
   inkscape:export-filename="..\app\src\main\res\drawable-nodpi\proton_drive.png"
   inkscape:export-xdpi="384"
   inkscape:export-ydpi="384"
   inkscape:version="1.3 (0e150ed6c4, 2023-07-21)"
   xmlns:inkscape="http://www.inkscape.org/namespaces/inkscape"
   xmlns:sodipodi="http://sodipodi.sourceforge.net/DTD/sodipodi-0.dtd"
   xmlns="http://www.w3.org/2000/svg"
   xmlns:svg="http://www.w3.org/2000/svg">
  <defs
     id="defs3" />
  <sodipodi:namedview
     id="namedview3"
     pagecolor="#505050"
     bordercolor="#ffffff"
     borderopacity="1"
     inkscape:showpageshadow="0"
     inkscape:pageopacity="0"
     inkscape:pagecheckerboard="1"
     inkscape:deskcolor="#d1d1d1"
     inkscape:zoom="6.296875"
     inkscape:cx="64"
     inkscape:cy="64"
     inkscape:window-width="1920"
     inkscape:window-height="1057"
     inkscape:window-x="1912"
     inkscape:window-y="-8"
     inkscape:window-maximized="1"
     inkscape:current-layer="svg3" />
  <style
     id="style1">.B{fill:#fc9abf}.C{fill:#ffc7df}.D{fill:#ed84cb}.E{fill-opacity:1}.F{stroke:none}</style>
  <g
     id="g3">
    <circle
       cx="64"
       cy="64"
       r="60"
       fill="#fff"
       stroke="#6b5a83"
       stroke-linejoin="round"
       stroke-width="4"
       style="paint-order:fill markers stroke"
       id="circle1" />
    <path
       d="m53.779 30.188c-5.6537 0.04341-11.315 0.71766-16.801 1.7402-1.0106 0.18836-1.59 0.70538-2.1289 1.2324-0.53894 0.52704-1.0179 1.1427-1.498 1.8359-0.96024 1.3865-1.9026 3.0903-2.7754 4.8301s-1.6673 3.5074-2.2812 4.9766c-0.61397 1.4692-1.0206 2.4933-1.2246 3.3145-2.0465 8.2388-2.4707 16.368-2.4707 25.152 0 7.4194 0.42871 14.185 2.4941 21.188 0.60592 2.0541 1.9351 3.8473 3.7227 5.1465 1.7876 1.2992 4.0435 2.1426 6.5 2.5254 9.4242 1.4684 18.54 1.7754 28.684 1.7754s19.259-0.30695 28.684-1.7754c2.4565-0.38275 4.7124-1.2262 6.5-2.5254 1.7876-1.2992 3.1168-3.0923 3.7227-5.1465 2.0654-7.002 2.4941-13.768 2.4941-21.188 0-8.784-0.42415-16.913-2.4707-25.152-0.56966-2.2933-1.8364-4.3573-3.6152-5.8926-1.7789-1.5353-4.0722-2.5624-6.5742-3.0254-9.3221-1.7249-18.337-1.9197-28.27-1.9258-0.2028-0.13853-0.51268-0.37029-0.88867-0.66992-0.78498-0.62556-1.8206-1.5032-2.8965-2.3926-1.0758-0.88936-2.19-1.791-3.2109-2.5137-0.51046-0.36132-0.99536-0.67866-1.4863-0.93945-0.49097-0.26079-0.92817-0.52718-1.7871-0.54883-0.80684-0.02034-1.6142-0.02769-2.4219-0.02148z"
       color="#000000"
       color-rendering="auto"
       dominant-baseline="auto"
       enable-background="accumulate"
       fill="#6b5a83"
       image-rendering="auto"
       opacity=".5"
       shape-rendering="auto"
       solid-color="#000000"
       style="font-feature-settings:normal;font-variant-alternates:normal;font-variant-caps:normal;font-variant-ligatures:normal;font-variant-numeric:normal;font-variant-position:normal;isolation:auto;mix-blend-mode:normal;paint-order:normal;shape-padding:0;text-decoration-color:#000000;text-decoration-line:none;text-decoration-style:solid;text-indent:0;text-orientation:mixed;text-transform:none;white-space:normal"
       id="path1" />
    <path
       d="m103.4 69.269c0-8.7192-0.42353-16.667-2.4114-24.67-0.46928-1.8892-1.5205-3.5997-2.9813-4.8604-1.4608-1.2608-3.4426-2.1681-5.6316-2.5731-9.2723-1.7157-18.273-1.9012-28.376-1.9012-0.89545 0-8.0597-7.0099-9.85-7.055-6.2733-0.15814-12.636 0.53599-18.805 1.6858-2.6408 0.49223-7.8648 12.815-8.334 14.704-1.9879 8.0027-2.4114 15.951-2.4114 24.67"
       fill="#ea98ff"
       stroke="#6b5a83"
       stroke-linejoin="round"
       stroke-width="4"
       style="paint-order:normal"
       id="path2" />
    <path
       d="m92.376 42.386c-9.2723-1.4448-18.273-1.7526-28.376-1.7526s-19.103 0.30782-28.376 1.7526c-2.189 0.34108-4.1708 1.1051-5.6316 2.1668-1.4608 1.0617-2.512 2.5021-2.9813 4.093-1.9879 6.7391-2.4114 13.281-2.4114 20.623s0.42353 13.884 2.4114 20.623c0.46929 1.5909 1.5205 3.0313 2.9813 4.093 1.4608 1.0617 3.4426 1.8257 5.6316 2.1668 9.2723 1.4448 18.273 1.7526 28.376 1.7526s19.103-0.30782 28.376-1.7526c2.189-0.34107 4.1708-1.1051 5.6316-2.1668 1.4608-1.0617 2.5121-2.5021 2.9813-4.093 1.9879-6.7391 2.4114-13.281 2.4114-20.623s-0.42353-13.884-2.4114-20.623c-0.46928-1.5909-1.5205-3.0313-2.9813-4.093-1.4608-1.0617-3.4426-1.8257-5.6316-2.1668z"
       fill="#9a6fc7"
       stroke="#6b5a83"
       stroke-linejoin="round"
       stroke-width="4"
       style="paint-order:normal"
       id="path3" />
  </g>
</svg>
