<?xml version="1.0" encoding="UTF-8" standalone="no"?>
<!-- Created with Inkscape (http://www.inkscape.org/) -->

<svg
   enable-background="new"
   inkscape:export-ydpi="384"
   inkscape:export-xdpi="384"
   inkscape:export-filename="..\app\src\main\res\drawable-nodpi\ps_vita.png"
   sodipodi:docname="psvita.svg"
   inkscape:version="1.3 (0e150ed6c4, 2023-07-21)"
   id="svg8"
   version="1.1"
   viewBox="0 0 128 128"
   height="128"
   width="128"
   xml:space="preserve"
   xmlns:inkscape="http://www.inkscape.org/namespaces/inkscape"
   xmlns:sodipodi="http://sodipodi.sourceforge.net/DTD/sodipodi-0.dtd"
   xmlns:xlink="http://www.w3.org/1999/xlink"
   xmlns="http://www.w3.org/2000/svg"
   xmlns:svg="http://www.w3.org/2000/svg"
   xmlns:rdf="http://www.w3.org/1999/02/22-rdf-syntax-ns#"
   xmlns:cc="http://creativecommons.org/ns#"
   xmlns:dc="http://purl.org/dc/elements/1.1/"><sodipodi:namedview
     id="base"
     pagecolor="#ffffff"
     bordercolor="#666666"
     borderopacity="1.0"
     inkscape:pageopacity="0.0"
     inkscape:pageshadow="2"
     inkscape:zoom="1.4142136"
     inkscape:cx="-76.367533"
     inkscape:cy="263.75083"
     inkscape:document-units="px"
     inkscape:current-layer="g9"
     showgrid="false"
     units="px"
     inkscape:pagecheckerboard="true"
     borderlayer="true"
     gridtolerance="10"
     inkscape:snap-smooth-nodes="true"
     inkscape:snap-text-baseline="true"
     inkscape:snap-page="true"
     showguides="true"
     inkscape:guide-bbox="true"
     inkscape:snap-object-midpoints="true"
     inkscape:snap-center="true"
     inkscape:snap-global="true"
     inkscape:lockguides="false"
     inkscape:snap-bbox="true"
     inkscape:bbox-nodes="true"
     inkscape:showpageshadow="0"
     inkscape:deskcolor="#d1d1d1"
     inkscape:window-width="1858"
     inkscape:window-height="1057"
     inkscape:window-x="54"
     inkscape:window-y="-8"
     inkscape:window-maximized="1"><inkscape:grid
       enabled="false"
       empspacing="4"
       id="grid4131"
       type="xygrid"
       spacingx="8"
       spacingy="8"
       originx="0"
       originy="0"
       units="px"
       visible="false" /><inkscape:grid
       empspacing="4"
       id="grid4167"
       type="xygrid"
       originx="0"
       originy="0"
       spacingy="1"
       spacingx="1"
       units="px"
       visible="false" /></sodipodi:namedview><defs
     id="defs2"><clipPath
       clipPathUnits="userSpaceOnUse"
       id="clipPath3104"><path
         style="opacity:1;vector-effect:none;fill:#e2e2e2;fill-opacity:1;fill-rule:nonzero;stroke:none;stroke-width:80;stroke-linecap:round;stroke-linejoin:round;stroke-miterlimit:4;stroke-dasharray:none;stroke-dashoffset:2.99999666;stroke-opacity:1;paint-order:stroke fill markers"
         d="m 64,39 c -10.666667,0 -21.383201,0.254594 -30,1 -0.752678,7.397255 -1,16 -1,24 0,8 0.247322,16.602745 1,24 8.616799,0.745406 19.333333,1 30,1 10.666667,0 21.383201,-0.254594 30,-1 0.752678,-7.397255 1,-16 1,-24 C 95,56 94.752678,47.397255 94,40 85.383201,39.254594 74.666667,39 64,39 Z"
         id="path3106"
         inkscape:connector-curvature="0" /></clipPath><clipPath
       clipPathUnits="userSpaceOnUse"
       id="clipPath3161"><circle
         r="60"
         cy="64"
         cx="64"
         id="circle3163"
         style="display:inline;opacity:1;vector-effect:none;fill:#6d9fe9;fill-opacity:1;fill-rule:nonzero;stroke:none;stroke-width:4;stroke-linecap:butt;stroke-linejoin:round;stroke-miterlimit:4;stroke-dasharray:none;stroke-dashoffset:0;stroke-opacity:1;paint-order:fill markers stroke" /></clipPath><filter
       style="color-interpolation-filters:sRGB"
       inkscape:label="Drop Shadow"
       id="filter3270-3"
       x="-0.036644325"
       width="1.0732886"
       y="-0.044347622"
       height="1.0621611"><feFlood
         id="feFlood63"
         flood-color="rgb(58,118,195)"
         flood-opacity="0.5" /><feComposite
         id="feComposite3276-5"
         in2="SourceGraphic"
         operator="in" /></filter></defs><metadata
     id="metadata5"><rdf:RDF><cc:Work
         rdf:about=""><dc:format>image/svg+xml</dc:format><dc:type
           rdf:resource="http://purl.org/dc/dcmitype/StillImage" /></cc:Work></rdf:RDF></metadata><style
     id="style2296">.B{fill:#fc9abf}.C{fill:#ffc7df}.D{fill:#ed84cb}.E{fill-opacity:1}.F{stroke:none}</style><g
     inkscape:groupmode="layer"
     id="layer55"
     inkscape:label="PSP"
     style="display:inline"><g
       inkscape:groupmode="maskhelper"
       id="g3158"
       clip-path="url(#clipPath3161)"><circle
         style="display:inline;opacity:1;vector-effect:none;fill:#6d9fe9;fill-opacity:1;fill-rule:nonzero;stroke:#3a76c3;stroke-width:4;stroke-linecap:butt;stroke-linejoin:round;stroke-miterlimit:4;stroke-dasharray:none;stroke-dashoffset:0;stroke-opacity:1;paint-order:fill markers stroke"
         id="circle3700-5-6"
         cx="64"
         cy="64"
         r="60" /><use
         x="0"
         y="0"
         xlink:href="#g9"
         id="use9"
         style="display:inline;filter:url(#filter3270-3)"
         transform="translate(2,4)" /></g><circle
       style="display:inline;opacity:1;vector-effect:none;fill:none;fill-opacity:1;fill-rule:nonzero;stroke:#3a76c3;stroke-width:4;stroke-linecap:butt;stroke-linejoin:round;stroke-miterlimit:4;stroke-dasharray:none;stroke-dashoffset:0;stroke-opacity:1;paint-order:fill markers stroke"
       id="circle3700-5"
       cx="64"
       cy="64"
       r="60" /><g
       id="g9"><path
         style="fill:#b7bcba;fill-opacity:1;stroke:#7f8885;stroke-width:4;stroke-linecap:round;stroke-linejoin:round;stroke-dasharray:none;stroke-opacity:1;paint-order:stroke fill markers"
         d="m 115.22811,43.919447 c -3.09637,-4.859731 -8.548,-9.421513 -19.97355,-10.646732 -13.853432,-1.485573 1.298443,14.153394 1.298443,14.153394 0,0 23.746957,4.453529 18.675107,-3.506662 z"
         id="path6"
         sodipodi:nodetypes="sscs" /><path
         style="fill:#b7bcba;fill-opacity:1;stroke:#7f8885;stroke-width:4;stroke-linecap:round;stroke-linejoin:round;stroke-dasharray:none;stroke-opacity:1;paint-order:stroke fill markers"
         d="m 12.771882,43.919447 c 3.096379,-4.859731 8.548005,-9.421513 19.973558,-10.646732 13.853432,-1.485573 -1.298443,14.153394 -1.298443,14.153394 0,0 -23.7469535,4.453529 -18.675115,-3.506662 z"
         id="path5"
         sodipodi:nodetypes="sscs" /><path
         id="path3059"
         style="opacity:1;vector-effect:none;fill:#4c4c4c;fill-opacity:1;fill-rule:nonzero;stroke:#373737;stroke-width:8;stroke-linecap:round;stroke-linejoin:round;stroke-miterlimit:4;stroke-dasharray:none;stroke-dashoffset:3;stroke-opacity:1;paint-order:stroke fill markers"
         d="m 64,34.364486 c -10.21355,0 -20.158219,0.04522 -30.352676,0.668443 -1.292262,2.948911 -2.970431,4.943869 -4.897945,6.52758 -3.286882,2.700614 -6.786584,3.425665 -14.828488,3.917295 C 11.832716,49.292389 9.4212892,55.186315 9.4212892,64 c 0,13.809227 6.1772698,19.633566 9.2610258,22.301322 7.872318,0 13.270298,1.537227 15.634526,6.378208 C 42.61598,93.247754 53.78645,93.635514 64,93.635514 c 10.21355,0 21.38402,-0.38776 29.683158,-0.955984 2.364228,-4.840981 7.762202,-6.378208 15.634522,-6.378208 3.08375,-2.667756 9.26103,-8.492095 9.26103,-22.301322 0,-8.813685 -2.41142,-14.707611 -4.4996,-18.522196 -8.0419,-0.49163 -11.5416,-1.216681 -14.828492,-3.917295 C 97.323109,39.976798 95.644937,37.98184 94.352675,35.032929 84.158219,34.409703 74.21355,34.364486 64,34.364486 Z"
         sodipodi:nodetypes="scscsccsccscscs" /><g
         inkscape:groupmode="maskhelper"
         id="g3101"
         clip-path="url(#clipPath3104)"
         transform="matrix(0.95752124,0,0,0.95598432,2.7186405,2.8170038)"
         style="stroke-width:1.0452"><rect
           y="37"
           x="30.286983"
           height="54"
           width="67.426033"
           id="rect3099"
           style="opacity:1;vector-effect:none;fill:#e2e2e2;fill-opacity:1;fill-rule:nonzero;stroke:none;stroke-width:8.36162;stroke-linecap:round;stroke-linejoin:round;stroke-miterlimit:4;stroke-dasharray:none;stroke-dashoffset:3;stroke-opacity:1;paint-order:stroke fill markers" /><path
           style="opacity:1;vector-effect:none;fill:none;fill-opacity:1;fill-rule:nonzero;stroke:#ffffff;stroke-width:8.36162;stroke-linecap:round;stroke-linejoin:round;stroke-miterlimit:4;stroke-dasharray:none;stroke-dashoffset:3;stroke-opacity:1;paint-order:stroke fill markers"
           d="M 8,96 72,32"
           id="path3108"
           inkscape:connector-curvature="0"
           sodipodi:nodetypes="cc" /><path
           sodipodi:nodetypes="cc"
           inkscape:connector-curvature="0"
           id="path3111"
           d="M 26,96 90,32"
           style="opacity:1;vector-effect:none;fill:none;fill-opacity:1;fill-rule:nonzero;stroke:#ffffff;stroke-width:8.36162;stroke-linecap:round;stroke-linejoin:round;stroke-miterlimit:4;stroke-dasharray:none;stroke-dashoffset:3;stroke-opacity:1;paint-order:stroke fill markers" /></g><path
         id="path3117"
         style="opacity:1;vector-effect:none;fill:#777777;fill-opacity:1;fill-rule:nonzero;stroke:none;stroke-width:6.60878;stroke-linecap:round;stroke-linejoin:round;stroke-miterlimit:4;stroke-dasharray:none;stroke-dashoffset:3;stroke-opacity:1;paint-order:stroke fill markers"
         d="m 22.487888,58.504578 -3.813667,3.807546 c 0.02772,1.844494 0.06593,3.374607 0.132419,3.528259 0.244701,0.565451 7.117795,0.565451 7.362496,0 0.06649,-0.153652 0.104696,-1.683765 0.132419,-3.528259 z m 5.010403,-5.002361 -3.81201,3.805893 3.81201,3.805893 c 1.835672,-0.02776 3.357495,-0.06444 3.510759,-0.130554 0.566359,-0.244308 0.566359,-7.10637 0,-7.350678 -0.153264,-0.06612 -1.675087,-0.102791 -3.510759,-0.130554 z m -10.020806,0 c -1.835672,0.02776 -3.357495,0.06444 -3.510758,0.130554 -0.566361,0.244308 -0.566361,7.10637 0,7.350678 0.153263,0.06612 1.675086,0.102791 3.510758,0.130554 l 3.812011,-3.805893 z m 5.010403,-5.099864 c -1.779569,0 -3.558897,0.140336 -3.681248,0.423061 -0.06593,0.152337 -0.102874,1.660233 -0.130763,3.480335 l 3.812011,3.805893 3.812012,-3.805893 c -0.02789,-1.820102 -0.06484,-3.327998 -0.130764,-3.480335 -0.122351,-0.282725 -1.901679,-0.423061 -3.681248,-0.423061 z" /><ellipse
         style="opacity:1;vector-effect:none;fill:#777777;fill-opacity:1;fill-rule:nonzero;stroke:none;stroke-width:2.11813;stroke-linecap:round;stroke-linejoin:round;stroke-miterlimit:4;stroke-dasharray:none;stroke-dashoffset:3;stroke-opacity:1;paint-order:stroke fill markers"
         id="path3129"
         cx="99.764954"
         cy="57.308109"
         rx="3.8136671"
         ry="3.8075457" /><ellipse
         cy="51.45797"
         cx="105.6245"
         id="circle3146"
         style="opacity:1;vector-effect:none;fill:#777777;fill-opacity:1;fill-rule:nonzero;stroke:none;stroke-width:2.11813;stroke-linecap:round;stroke-linejoin:round;stroke-miterlimit:4;stroke-dasharray:none;stroke-dashoffset:3;stroke-opacity:1;paint-order:stroke fill markers"
         rx="3.8136671"
         ry="3.8075457" /><ellipse
         style="opacity:1;vector-effect:none;fill:#777777;fill-opacity:1;fill-rule:nonzero;stroke:none;stroke-width:2.11813;stroke-linecap:round;stroke-linejoin:round;stroke-miterlimit:4;stroke-dasharray:none;stroke-dashoffset:3;stroke-opacity:1;paint-order:stroke fill markers"
         id="circle3148"
         cx="111.48405"
         cy="57.308109"
         rx="3.8136671"
         ry="3.8075457" /><ellipse
         cy="63.158249"
         cx="105.6245"
         id="circle3150"
         style="opacity:1;vector-effect:none;fill:#777777;fill-opacity:1;fill-rule:nonzero;stroke:none;stroke-width:2.11813;stroke-linecap:round;stroke-linejoin:round;stroke-miterlimit:4;stroke-dasharray:none;stroke-dashoffset:3;stroke-opacity:1;paint-order:stroke fill markers"
         rx="3.8136671"
         ry="3.8075457" /><ellipse
         cy="73.559845"
         cx="26.177912"
         id="circle3152"
         style="opacity:1;vector-effect:none;fill:#777777;fill-opacity:1;fill-rule:nonzero;stroke:none;stroke-width:2.11813;stroke-linecap:round;stroke-linejoin:round;stroke-miterlimit:4;stroke-dasharray:none;stroke-dashoffset:3;stroke-opacity:1;paint-order:stroke fill markers"
         rx="4.3088455"
         ry="4.3019295" /><ellipse
         cy="73.559845"
         cx="101.82209"
         id="circle1"
         style="opacity:1;vector-effect:none;fill:#777777;fill-opacity:1;fill-rule:nonzero;stroke:none;stroke-width:2.11813;stroke-linecap:round;stroke-linejoin:round;stroke-miterlimit:4;stroke-dasharray:none;stroke-dashoffset:3;stroke-opacity:1;paint-order:stroke fill markers"
         rx="4.3088455"
         ry="4.3019295" /><path
         id="path3"
         style="color:#000000;fill:#b7bcba;fill-opacity:1;stroke-width:0.999998;stroke-linecap:round;stroke-linejoin:round;-inkscape-stroke:none;paint-order:stroke fill markers"
         d="m 15.65376,88.758501 c 4.882741,5.809682 13.294888,7.269526 18.781963,7.748812 C 33.465091,96.32711 32.258336,94.541648 31.883622,93.524509 26.540088,92.626289 23.1945,90.897012 21.188655,89.17425 18.825804,89.159069 16.96114,89.141326 15.65376,88.758501 Z"
         sodipodi:nodetypes="ccccc" /><path
         id="path9"
         style="color:#000000;fill:#b7bcba;fill-opacity:1;stroke-width:0.999998;stroke-linecap:round;stroke-linejoin:round;-inkscape-stroke:none;paint-order:stroke fill markers"
         d="m 112.34624,88.758501 c -4.88274,5.809682 -13.294892,7.269526 -18.781964,7.748812 0.970633,-0.180203 2.177387,-1.965665 2.552102,-2.982804 5.343542,-0.89822 8.689122,-2.627497 10.694962,-4.350259 2.36286,-0.01518 4.22752,-0.03292 5.5349,-0.415749 z"
         sodipodi:nodetypes="ccccc" /><ellipse
         cy="82.641693"
         cx="29.863873"
         id="circle10"
         style="opacity:1;vector-effect:none;fill:#777777;fill-opacity:1;fill-rule:nonzero;stroke:none;stroke-width:2.11813;stroke-linecap:round;stroke-linejoin:round;stroke-miterlimit:4;stroke-dasharray:none;stroke-dashoffset:3;stroke-opacity:1;paint-order:stroke fill markers"
         rx="1.8551974"
         ry="1.8522196" /><ellipse
         cy="82.71257"
         cx="97.825752"
         id="circle11"
         style="opacity:1;vector-effect:none;fill:#777777;fill-opacity:1;fill-rule:nonzero;stroke:none;stroke-width:2.11813;stroke-linecap:round;stroke-linejoin:round;stroke-miterlimit:4;stroke-dasharray:none;stroke-dashoffset:3;stroke-opacity:1;paint-order:stroke fill markers"
         rx="1.5448222"
         ry="1.5423425" /><ellipse
         cy="82.526001"
         cx="101.93697"
         id="circle12"
         style="opacity:1;vector-effect:none;fill:#777777;fill-opacity:1;fill-rule:nonzero;stroke:none;stroke-width:2.11813;stroke-linecap:round;stroke-linejoin:round;stroke-miterlimit:4;stroke-dasharray:none;stroke-dashoffset:3;stroke-opacity:1;paint-order:stroke fill markers"
         rx="1.5448222"
         ry="1.5423425" /></g></g></svg>
