<?xml version="1.0" encoding="UTF-8" standalone="no"?>
<!-- Created with Inkscape (http://www.inkscape.org/) -->

<svg
   enable-background="new"
   inkscape:export-ydpi="384"
   inkscape:export-xdpi="384"
   inkscape:export-filename="..\app\src\main\res\drawable-nodpi\rar.png"
   sodipodi:docname="rar.svg"
   inkscape:version="1.3 (0e150ed6c4, 2023-07-21)"
   id="svg8"
   version="1.1"
   viewBox="0 0 128 128"
   height="128"
   width="128"
   xml:space="preserve"
   xmlns:inkscape="http://www.inkscape.org/namespaces/inkscape"
   xmlns:sodipodi="http://sodipodi.sourceforge.net/DTD/sodipodi-0.dtd"
   xmlns="http://www.w3.org/2000/svg"
   xmlns:svg="http://www.w3.org/2000/svg"
   xmlns:rdf="http://www.w3.org/1999/02/22-rdf-syntax-ns#"
   xmlns:cc="http://creativecommons.org/ns#"
   xmlns:dc="http://purl.org/dc/elements/1.1/"><sodipodi:namedview
     id="base"
     pagecolor="#ffffff"
     bordercolor="#666666"
     borderopacity="1.0"
     inkscape:pageopacity="0.0"
     inkscape:pageshadow="2"
     inkscape:zoom="4"
     inkscape:cx="56"
     inkscape:cy="98.5"
     inkscape:document-units="px"
     inkscape:current-layer="g3233"
     showgrid="false"
     units="px"
     inkscape:pagecheckerboard="true"
     borderlayer="true"
     gridtolerance="10"
     inkscape:snap-smooth-nodes="true"
     inkscape:snap-text-baseline="true"
     inkscape:snap-page="true"
     showguides="true"
     inkscape:guide-bbox="true"
     inkscape:snap-object-midpoints="true"
     inkscape:snap-center="true"
     inkscape:snap-global="true"
     inkscape:lockguides="false"
     inkscape:snap-bbox="true"
     inkscape:bbox-nodes="true"
     inkscape:showpageshadow="0"
     inkscape:deskcolor="#d1d1d1"
     inkscape:window-width="1852"
     inkscape:window-height="1057"
     inkscape:window-x="60"
     inkscape:window-y="-8"
     inkscape:window-maximized="1"><inkscape:grid
       enabled="false"
       empspacing="4"
       id="grid4131"
       type="xygrid"
       spacingx="8"
       spacingy="8"
       originx="0"
       originy="0"
       units="px"
       visible="false" /><inkscape:grid
       empspacing="4"
       id="grid4167"
       type="xygrid"
       originx="0"
       originy="0"
       spacingy="1"
       spacingx="1"
       units="px"
       visible="false" /></sodipodi:namedview><defs
     id="defs2"><filter
       id="filter265"
       inkscape:label="Drop Shadow red"
       style="color-interpolation-filters:sRGB"
       x="0"
       y="-0.018053224"
       width="1.0221856"
       height="1.0848818"><feFlood
         id="feFlood264"
         result="flood"
         flood-color="rgb(116,116,116)"
         flood-opacity="0.498039" /><feComposite
         id="feComposite264"
         result="composite1"
         operator="in"
         in2="SourceGraphic"
         in="flood" /><feOffset
         id="feOffset264"
         result="offset"
         dy="4"
         dx="2" /><feComposite
         id="feComposite265"
         result="composite2"
         operator="over"
         in2="offset"
         in="SourceGraphic" /></filter></defs><metadata
     id="metadata5"><rdf:RDF><cc:Work
         rdf:about=""><dc:format>image/svg+xml</dc:format><dc:type
           rdf:resource="http://purl.org/dc/dcmitype/StillImage" /></cc:Work></rdf:RDF></metadata><style
     id="style2296">.B{fill:#fc9abf}.C{fill:#ffc7df}.D{fill:#ed84cb}.E{fill-opacity:1}.F{stroke:none}</style><g
     style="display:inline"
     inkscape:label="0h h1"
     id="g3233"
     inkscape:groupmode="layer"><circle
       r="60"
       cy="64"
       cx="64"
       id="circle3221"
       style="display:inline;vector-effect:none;fill:#ffffff;fill-opacity:1;fill-rule:nonzero;stroke:#747474;stroke-width:4;stroke-linecap:butt;stroke-linejoin:round;stroke-miterlimit:4;stroke-dasharray:none;stroke-dashoffset:0;stroke-opacity:1;paint-order:fill markers stroke" /><g
       id="path5" /><g
       id="g32"
       transform="matrix(0.90017574,0,0,0.90017574,121.61125,6.3887528)"
       style="stroke-width:1.11089;filter:url(#filter265)"><path
         style="color:#000000;fill:#3b7e4f;fill-opacity:1;stroke-width:1.11089;stroke-linecap:round;stroke-linejoin:round;-inkscape-stroke:none;paint-order:stroke markers fill"
         d="m -19.167969,76.966797 c -6.986919,0.76124 -27.339163,1.066406 -44.832031,1.066406 -16.932996,0 -36.43431,-0.289257 -44.00977,-0.998047 0.002,0.0113 0.004,0.02782 0.006,0.03906 -0.77193,9.14673 0.005,18.272606 2.08203,25.480474 a 2.0002,2.0002 0 0 0 1.74024,1.4375 c 10.967423,0.99704 23.452005,1.08313 29.234374,0.008 h 21.97461 c 5.607226,0.87667 18.118949,0.99562 29.154297,-0.008 a 2.0002,2.0002 0 0 0 1.71875,-1.36719 c 1.151752,-3.500808 1.88289,-9.049671 2.40039,-15.853519 0.232625,-3.058427 0.40382,-6.376767 0.53125,-9.804687 z"
         id="path19" /><path
         style="color:#000000;fill:#d5425d;fill-opacity:1;stroke-width:1.11089;stroke-linecap:round;stroke-linejoin:round;-inkscape-stroke:none;paint-order:stroke markers fill"
         d="m -87.25,23.25 c -5.313472,0 -11.360917,0.251383 -16.93164,0.757812 a 2.0002,2.0002 0 0 0 -1.74024,1.4375 c -2.07745,7.207857 -2.85396,16.333739 -2.08203,25.480469 -0.002,0.01124 -0.004,0.02777 -0.006,0.03906 7.57546,-0.70879 27.076774,-0.998047 44.00977,-0.998047 17.492868,0 37.845112,0.305166 44.832031,1.066406 -0.12743,-3.42792 -0.298625,-6.74626 -0.53125,-9.804687 -0.5175,-6.803848 -1.248638,-12.352711 -2.40039,-15.853516 a 2.0002,2.0002 0 0 0 -1.71875,-1.367188 C -34.853707,23.004403 -47.365428,23.12332 -52.972656,24 H -74.953125 C -77.792451,23.47388 -82.106973,23.25 -87.25,23.25 Z"
         id="path3" /><path
         style="color:#000000;fill:#67a954;fill-opacity:1;stroke-width:1.11089;stroke-linecap:round;stroke-linejoin:round;-inkscape-stroke:none;paint-order:stroke markers fill"
         d="m -23.263672,79.111328 c -0.114986,2.554861 -0.248138,5.047546 -0.423828,7.357422 -0.451509,5.936203 -1.157973,10.639657 -1.9375,13.5957 -10.526799,0.84269 -22.587167,0.67282 -26.914062,-0.0371 A 2.0002,2.0002 0 0 0 -52.863281,100 H -75 a 2.0002,2.0002 0 0 0 -0.392578,0.0391 c -4.159969,0.832 -16.430839,0.88648 -26.998042,0.0293 -1.52258,-5.957998 -2.20514,-13.374389 -1.75,-20.908204 C -96.078066,79.776592 -79.0491,80 -64,80 c 15.44066,0 32.956627,-0.234776 40.736328,-0.888672 z"
         id="path17" /><path
         id="path18"
         style="color:#000000;fill:#5598cc;fill-opacity:1;stroke-width:1.11089;stroke-linejoin:round;-inkscape-stroke:none;paint-order:stroke markers fill"
         d="m -64,49.966797 c -16.932996,0 -36.43431,0.289257 -44.00977,0.998047 -0.56857,3.285841 -1.06445,8.966074 -1.06445,13.035156 0,4.069082 0.49588,9.749315 1.06445,13.035156 7.57546,0.70879 27.076774,0.998047 44.00977,0.998047 17.492868,0 37.845112,-0.305166 44.832031,-1.066406 0.156054,-4.197908 0.242188,-8.571055 0.242188,-12.966797 0,-4.395742 -0.08613,-8.768889 -0.242188,-12.966797 C -26.154888,50.271963 -46.507132,49.966797 -64,49.966797 Z" /><path
         style="color:#000000;fill:#76ddfe;fill-opacity:1;stroke-width:1.11089;stroke-linecap:round;stroke-linejoin:round;-inkscape-stroke:none;paint-order:stroke markers fill"
         d="m -64,52 c 15.742746,0 34.02032,0.29381 40.898438,0.916016 0.113955,3.61038 0.175781,7.343502 0.175781,11.083984 0,3.740482 -0.06183,7.473604 -0.175781,11.083984 C -29.97968,75.70619 -48.257254,76 -64,76 c -15.283674,0 -32.929884,-0.277969 -40.24805,-0.863281 -0.42846,-3.079424 -0.82617,-7.866177 -0.82617,-11.136719 0,-3.270542 0.39771,-8.057295 0.82617,-11.136719 C -96.929884,52.277969 -79.283674,52 -64,52 Z"
         id="path16" /><path
         style="color:#000000;fill:#ff8090;fill-opacity:1;stroke-width:1.11089;stroke-linecap:round;stroke-linejoin:round;-inkscape-stroke:none;paint-order:stroke markers fill"
         d="m -87.25,27.25 c 5.186493,0 9.68429,0.276311 11.857422,0.710938 A 2.0002,2.0002 0 0 0 -75,28 h 22.136719 a 2.0002,2.0002 0 0 0 0.324219,-0.02734 c 4.326893,-0.70994 16.387262,-0.879795 26.914062,-0.03711 0.779527,2.956048 1.485991,7.6595 1.9375,13.595703 0.17569,2.309876 0.308842,4.802561 0.423828,7.357422 C -31.043373,48.234776 -48.55934,48 -64,48 c -15.0491,0 -32.078066,0.223408 -40.14062,0.839844 -0.45533,-7.535251 0.22675,-14.953622 1.75,-20.91211 C -97.355482,27.515321 -91.989553,27.25 -87.25,27.25 Z"
         id="path15" /><path
         id="path27"
         style="color:#000000;fill:#c6c6c6;fill-opacity:1;stroke:#a4a4a4;stroke-width:4.44358;stroke-linecap:round;stroke-linejoin:round;stroke-dasharray:none;stroke-opacity:1;paint-order:stroke fill markers"
         d="m -46.675894,63.592923 c 0,-3.40428 -2.270304,-7.330988 -5.572916,-10.048001 l 2.542968,-3.089844 c 6.282101,5.168196 10.450409,11.976026 10.450409,17.814909 M -81.30147,63.592923 c 0,-3.40428 2.270342,-7.330988 5.572954,-10.048001 l -2.542968,-3.089844 c -6.282101,5.168196 -10.450447,11.976026 -10.450447,17.814909"
         sodipodi:nodetypes="cccccccc" /><path
         style="fill:#9e6545;fill-opacity:1;stroke:#614840;stroke-width:4.44358;stroke-linecap:round;stroke-linejoin:round;stroke-dasharray:none;stroke-opacity:1;paint-order:markers fill stroke"
         d="m -52.972655,24 c -3.640587,0.457431 -6.953125,0.618718 -10.990235,0.618718 C -68,24.618718 -71.312538,24.457431 -74.953125,24 -76.136503,31.911992 -77.15,50.0248 -77.15,64 c 0,13.9752 1.013497,32.088008 2.196875,40 3.640587,-0.45743 6.953125,-0.61872 10.990235,-0.61872 4.03711,0 7.349648,0.16129 10.990235,0.61872 1.183378,-7.911992 2.196875,-26.0248 2.196875,-40 0,-13.9752 -1.013497,-32.088008 -2.196875,-40 z"
         id="path20"
         sodipodi:nodetypes="csczcsczc" /><path
         id="path31"
         style="fill:#9e6545;fill-opacity:1;stroke:#614840;stroke-width:8.88715;stroke-linecap:round;stroke-linejoin:round;stroke-dasharray:none;stroke-opacity:1;paint-order:stroke fill markers"
         d="m -64,34 c -12.444648,8.467332 -12.406399,17.0625 -10.92898,30 0.265962,2.328984 0.373034,4.681277 0.373034,7 h 21.222975 c 0,-2.318723 0.06236,-4.676558 0.373035,-7 C -51.221655,51 -51.555352,42.467332 -64,34 Z"
         sodipodi:nodetypes="csccsc" /><path
         style="color:#000000;fill:#a4a4a4;stroke-width:1.11089;stroke-linecap:round;stroke-linejoin:round;-inkscape-stroke:none;paint-order:markers fill stroke"
         d="m -86.695312,68.482422 -4.244316,-0.212889 c 0,3.134019 0.996275,6.105516 2.525566,8.609375 2.396687,3.924023 6.826177,6.471547 11.875,6.201172 4.06671,-0.217782 8.302398,-2.170911 12.550781,-5.671875 4.248244,3.500718 8.484096,5.454095 12.550781,5.671875 5.048822,0.270375 9.478312,-2.277149 11.875,-6.201172 1.52929,-2.503859 2.52231,-5.338616 2.52231,-8.472635 l -4.24106,0.08592 -3.677734,-2.695312 -3.495166,-2.205078 c 0,1.753672 -0.687873,3.352911 -1.383744,4.464844 -0.958007,1.530805 -1.885333,2.137568 -3.523437,2.146484 -1.567595,0.0085 -4.248782,-0.867924 -7.707031,-4.326172 -0.375343,-0.374356 -0.883945,-0.5844 -1.414063,-0.583984 h -3.011719 c -0.530118,-4.16e-4 -1.038719,0.209628 -1.414062,0.583984 -3.458252,3.458249 -6.139439,4.334702 -7.707031,4.326172 -1.638099,-0.0089 -2.565428,-0.615677 -3.523438,-2.146484 -0.69587,-1.111934 -1.383852,-2.711172 -1.383852,-4.464844 l -3.495051,2.205078 z"
         id="path29"
         sodipodi:nodetypes="ccsscssccccscccccssccc" /><path
         id="path25"
         style="color:#000000;fill:#c6c6c6;fill-opacity:1;stroke-width:1.11089;stroke-linecap:round;stroke-linejoin:round;-inkscape-stroke:none;paint-order:markers fill stroke"
         d="m -65.494409,67.292024 c -3.702749,3.702746 -6.843286,4.922852 -9.131695,4.9104 -2.288408,-0.01245 -3.989282,-1.13788 -5.2075,-3.084475 -0.9285,-1.483653 -1.46693,-3.429072 -1.46693,-5.525232 -3.827224,-0.08872 -6.996289,2.023993 -7.421307,4.67726 0,2.804042 0.693959,5.404997 2.013677,7.56573 2.033888,3.330022 5.732992,5.478539 10.062194,5.246701 3.89949,-0.208827 8.192677,-2.18795 12.657691,-6.228781 4.464776,4.040426 8.758394,6.019965 12.657692,6.228781 4.329201,0.231838 8.028305,-1.916679 10.062193,-5.246701 1.319718,-2.160733 2.013677,-4.761688 2.013677,-7.56573 -0.449776,-2.653267 -3.618841,-4.765977 -7.421306,-4.67726 0,2.09616 -0.53843,4.041579 -1.466931,5.525232 -1.218217,1.946595 -2.919092,3.07202 -5.2075,3.084475 -2.288409,0.01245 -5.428947,-1.207654 -9.131694,-4.9104 z"
         sodipodi:nodetypes="cssccsscssccsscc" /><path
         style="color:#000000;fill:#c6c6c6;stroke:#a4a4a4;stroke-width:2.22179;stroke-linecap:round;stroke-linejoin:round;stroke-dasharray:none;stroke-opacity:1;paint-order:markers fill stroke"
         d="m -64,58 c -1.104569,0 -2,0.895431 -2,2 0,3.666667 -0.03125,6.958333 0.3125,10 0.124042,1.097583 0.582931,3 1.6875,3 1.104569,0 1.57306,-1.901375 1.6875,-3 C -62,67 -62,63.666667 -62,60 c 0,-1.104569 -0.895431,-2 -2,-2 z"
         id="path23"
         sodipodi:nodetypes="sssssss" /></g></g></svg>
