<?xml version="1.0" encoding="UTF-8" standalone="no"?>
<!-- Created with Inkscape (http://www.inkscape.org/) -->

<svg
   enable-background="new"
   inkscape:export-ydpi="384"
   inkscape:export-xdpi="384"
   inkscape:export-filename="..\app\src\main\res\drawable-nodpi\reckoning_skills.png"
   sodipodi:docname="reckoning_skills.svg"
   inkscape:version="1.3 (0e150ed6c4, 2023-07-21)"
   id="svg8"
   version="1.1"
   viewBox="0 0 128 128"
   height="128"
   width="128"
   xml:space="preserve"
   xmlns:inkscape="http://www.inkscape.org/namespaces/inkscape"
   xmlns:sodipodi="http://sodipodi.sourceforge.net/DTD/sodipodi-0.dtd"
   xmlns="http://www.w3.org/2000/svg"
   xmlns:svg="http://www.w3.org/2000/svg"
   xmlns:rdf="http://www.w3.org/1999/02/22-rdf-syntax-ns#"
   xmlns:cc="http://creativecommons.org/ns#"
   xmlns:dc="http://purl.org/dc/elements/1.1/"><sodipodi:namedview
     id="base"
     pagecolor="#ffffff"
     bordercolor="#666666"
     borderopacity="1.0"
     inkscape:pageopacity="0.0"
     inkscape:pageshadow="2"
     inkscape:zoom="2"
     inkscape:cx="28"
     inkscape:cy="210"
     inkscape:document-units="px"
     inkscape:current-layer="g1809"
     showgrid="false"
     units="px"
     inkscape:pagecheckerboard="true"
     borderlayer="true"
     gridtolerance="10"
     inkscape:snap-smooth-nodes="true"
     inkscape:snap-text-baseline="true"
     inkscape:snap-page="true"
     showguides="true"
     inkscape:guide-bbox="true"
     inkscape:snap-object-midpoints="true"
     inkscape:snap-center="true"
     inkscape:snap-global="true"
     inkscape:lockguides="false"
     inkscape:snap-bbox="true"
     inkscape:bbox-nodes="true"
     inkscape:showpageshadow="0"
     inkscape:deskcolor="#d1d1d1"
     inkscape:window-width="1852"
     inkscape:window-height="1057"
     inkscape:window-x="60"
     inkscape:window-y="-8"
     inkscape:window-maximized="1"><inkscape:grid
       enabled="false"
       empspacing="4"
       id="grid4131"
       type="xygrid"
       spacingx="8"
       spacingy="8"
       originx="0"
       originy="0"
       units="px"
       visible="false" /><inkscape:grid
       empspacing="4"
       id="grid4167"
       type="xygrid"
       originx="0"
       originy="0"
       spacingy="1"
       spacingx="1"
       units="px"
       visible="false" /></sodipodi:namedview><defs
     id="defs2"><filter
       id="filter265-1"
       inkscape:label="Drop Shadow red"
       style="color-interpolation-filters:sRGB"
       x="-0.056506574"
       y="-0.056506574"
       width="1.1412664"
       height="1.1695197"><feFlood
         id="feFlood264-8"
         result="flood"
         flood-color="rgb(85,152,204)"
         flood-opacity="0.498039" /><feComposite
         id="feComposite264-0"
         result="composite1"
         operator="in"
         in2="SourceGraphic"
         in="flood" /><feOffset
         id="feOffset264-9"
         result="offset"
         dy="4"
         dx="2" /><feComposite
         id="feComposite265-6"
         result="composite2"
         operator="over"
         in2="offset"
         in="SourceGraphic" /></filter></defs><metadata
     id="metadata5"><rdf:RDF><cc:Work
         rdf:about=""><dc:format>image/svg+xml</dc:format><dc:type
           rdf:resource="http://purl.org/dc/dcmitype/StillImage" /></cc:Work></rdf:RDF></metadata><style
     id="style2296">.B{fill:#fc9abf}.C{fill:#ffc7df}.D{fill:#ed84cb}.E{fill-opacity:1}.F{stroke:none}</style><g
     style="display:inline"
     inkscape:label="0h h1"
     id="g3233"
     inkscape:groupmode="layer"><g
       id="path5" /><g
       style="enable-background:new"
       id="g33"><g
         style="display:inline"
         inkscape:label="calculator 1"
         id="g1809"><path
           sodipodi:nodetypes="sssss"
           inkscape:connector-curvature="0"
           id="path1777"
           d="M 124,64 C 124,97.137085 97.137085,124 64,124 30.862915,124 4,97.137085 4,64 4,30.862915 30.862915,4 64,4 c 33.137085,0 60,26.862915 60,60 z"
           style="display:inline;opacity:1;vector-effect:none;fill:#76ddfe;fill-opacity:1;fill-rule:nonzero;stroke:#5598cc;stroke-width:4;stroke-linecap:butt;stroke-linejoin:round;stroke-miterlimit:4;stroke-dasharray:none;stroke-dashoffset:0;stroke-opacity:1;paint-order:fill markers stroke" /><path
           sodipodi:type="star"
           style="fill:#ffffff;fill-opacity:1;stroke:#5598cc;stroke-width:8;stroke-linecap:round;stroke-linejoin:round;stroke-dasharray:none;stroke-opacity:1;paint-order:stroke fill markers;filter:url(#filter265-1)"
           id="path34"
           inkscape:flatsided="true"
           sodipodi:sides="4"
           sodipodi:cx="60"
           sodipodi:cy="44"
           sodipodi:r1="45.254834"
           sodipodi:r2="12"
           sodipodi:arg1="-0.78539816"
           sodipodi:arg2="0"
           inkscape:rounded="0.1"
           inkscape:randomized="0"
           d="M 92,12.000001 C 96.525483,16.525484 96.525483,71.474516 91.999999,76 87.474516,80.525483 32.525484,80.525483 28,75.999999 23.474517,71.474516 23.474517,16.525484 28.000001,12 32.525484,7.4745171 87.474516,7.4745173 92,12.000001 Z"
           transform="translate(4,20)" /><path
           style="color:#000000;font-style:normal;font-variant:normal;font-weight:normal;font-stretch:normal;font-size:medium;line-height:1;font-family:Mikado;-inkscape-font-specification:'Mikado Bold';font-variant-ligatures:normal;font-variant-position:normal;font-variant-caps:normal;font-variant-numeric:normal;font-variant-alternates:normal;font-feature-settings:normal;text-indent:0;text-align:start;text-decoration:none;text-decoration-line:none;text-decoration-style:solid;text-decoration-color:#000000;letter-spacing:normal;word-spacing:normal;text-transform:none;writing-mode:lr-tb;direction:ltr;text-orientation:mixed;dominant-baseline:auto;baseline-shift:baseline;text-anchor:start;white-space:normal;shape-padding:0;clip-rule:nonzero;display:inline;overflow:visible;visibility:visible;isolation:auto;mix-blend-mode:normal;color-interpolation:sRGB;color-interpolation-filters:linearRGB;solid-color:#000000;solid-opacity:1;vector-effect:none;fill:#d5425d;fill-opacity:1;fill-rule:nonzero;stroke:none;stroke-width:1;stroke-linecap:butt;stroke-linejoin:miter;stroke-miterlimit:4;stroke-dasharray:none;stroke-dashoffset:0;stroke-opacity:1;paint-order:fill markers stroke;color-rendering:auto;image-rendering:auto;shape-rendering:auto;text-rendering:auto;enable-background:accumulate"
           d="m 47.215477,39.324579 c -0.584508,-0.0062 -1.141664,0.03688 -1.667969,0.130859 a 0.50005,0.50005 0 0 0 -0.412109,0.492188 v 6.574219 l -6.53125,0.09766 c -3.67e-4,0 -0.161758,0.02722 -0.16211,0.02734 -3.52e-4,1.2e-4 -0.130522,0.06617 -0.130859,0.06641 -3.38e-4,2.4e-4 -0.08171,0.07386 -0.08203,0.07422 -3.24e-4,3.6e-4 -0.03637,0.04508 -0.04883,0.06445 -0.04982,0.0775 -0.05787,0.119759 -0.06641,0.152343 -0.01707,0.06517 -0.01926,0.09387 -0.02148,0.125 -0.0044,0.06227 -0.0036,0.118047 -0.002,0.1875 0.0033,0.138907 0.01534,0.326141 0.0332,0.576172 0.03596,0.50344 0.08847,1.019249 0.160156,1.544922 0.03628,0.266019 0.07113,0.47374 0.109375,0.640625 0.01912,0.08344 0.0382,0.155249 0.06641,0.230469 0.0262,0.06986 0.05074,0.153867 0.1875,0.273438 0.09344,0.08192 0.159194,0.107927 0.201172,0.121093 0.04761,0.01493 0.08241,0.02157 0.117188,0.02734 0.06956,0.01154 0.138493,0.01611 0.220703,0.02148 0.16442,0.01074 0.378958,0.01608 0.658203,0.01758 0.558489,0.003 1.366305,-0.0097 2.429688,-0.03906 a 0.50005,0.50005 0 0 0 0.002,0 c 1.065933,-0.03514 1.86808,-0.05962 2.402343,-0.07422 0.156632,-0.0043 0.241063,-0.0073 0.351563,-0.0098 0.01699,0.292503 0.03528,0.734625 0.05273,1.322265 a 0.50005,0.50005 0 0 0 0,0.0039 c 0.04686,1.171476 0.09376,2.379261 0.140625,3.621094 a 0.50005,0.50005 0 0 0 0,0.0039 c 0.02936,0.622328 0.05541,1.10226 0.07617,1.44336 0.01038,0.17055 0.01877,0.306514 0.02734,0.410156 0.0086,0.103642 0.0076,0.147622 0.03125,0.253906 a 0.50005,0.50005 0 0 0 0.01367,0.04883 c 0.0829,0.248704 0.274388,0.357949 0.416015,0.416016 0.141627,0.05807 0.279604,0.08226 0.4375,0.101563 0.315792,0.0386 0.713629,0.04172 1.226563,0.01758 0.504565,-0.02374 0.896109,-0.05305 1.1875,-0.08789 0.145695,-0.01742 0.264392,-0.03492 0.373047,-0.06055 0.108655,-0.02563 0.195748,-4.33e-4 0.386719,-0.191406 a 0.50005,0.50005 0 0 0 0.09375,-0.130859 c 9.1e-5,-1.83e-4 0.03311,-0.08561 0.0332,-0.08594 9.3e-5,-3.27e-4 0.0078,-0.0314 0.0098,-0.04102 0.0038,-0.01923 0.0067,-0.0283 0.0078,-0.03711 0.0023,-0.01761 0.0012,-0.02893 0.002,-0.03906 0.0016,-0.02027 0.0029,-0.03782 0.0039,-0.06055 0.0021,-0.04545 0.0056,-0.105195 0.0078,-0.183594 0.0045,-0.156798 0.0078,-0.386918 0.01367,-0.689453 0.01175,-0.60507 0.02734,-1.50351 0.04492,-2.699219 0.01754,-1.198751 0.04044,-2.101178 0.06641,-2.701172 0.0099,-0.227847 0.01878,-0.369063 0.0293,-0.505859 0.125224,-0.01015 0.246068,-0.0194 0.441406,-0.0332 0.535974,-0.03787 1.33284,-0.08794 2.386718,-0.152344 a 0.50005,0.50005 0 0 0 0.002,-0.002 c 1.057263,-0.07048 1.859563,-0.131886 2.414062,-0.185547 0.27725,-0.02683 0.490757,-0.05169 0.652344,-0.07617 0.08079,-0.01224 0.149177,-0.02309 0.214844,-0.03906 0.03283,-0.008 0.06488,-0.01713 0.107422,-0.0332 0.03644,-0.01376 0.09265,-0.04068 0.171874,-0.109374 0.150699,-0.130944 0.172183,-0.227222 0.195313,-0.302735 0.02459,-0.08029 0.03832,-0.155669 0.05078,-0.240234 0.02492,-0.16913 0.04059,-0.376545 0.05273,-0.640625 0.02428,-0.52816 0.02936,-1.27423 0.01758,-2.251953 a 0.50005,0.50005 0 0 0 -0.5,-0.494141 h -6.44336 V 39.98269 a 0.50005,0.50005 0 0 0 -0.419921,-0.49414 c -0.642559,-0.103052 -1.255334,-0.157911 -1.839844,-0.164063 z"
           id="path4722"
           inkscape:connector-curvature="0" /><path
           style="color:#000000;font-style:normal;font-variant:normal;font-weight:normal;font-stretch:normal;font-size:medium;line-height:1;font-family:Mikado;-inkscape-font-specification:'Mikado Bold';font-variant-ligatures:normal;font-variant-position:normal;font-variant-caps:normal;font-variant-numeric:normal;font-variant-alternates:normal;font-feature-settings:normal;text-indent:0;text-align:start;text-decoration:none;text-decoration-line:none;text-decoration-style:solid;text-decoration-color:#000000;letter-spacing:normal;word-spacing:normal;text-transform:none;writing-mode:lr-tb;direction:ltr;text-orientation:mixed;dominant-baseline:auto;baseline-shift:baseline;text-anchor:start;white-space:normal;shape-padding:0;clip-rule:nonzero;display:inline;overflow:visible;visibility:visible;isolation:auto;mix-blend-mode:normal;color-interpolation:sRGB;color-interpolation-filters:linearRGB;solid-color:#000000;solid-opacity:1;vector-effect:none;fill:#5b9323;fill-opacity:1;fill-rule:nonzero;stroke:none;stroke-width:1;stroke-linecap:butt;stroke-linejoin:miter;stroke-miterlimit:4;stroke-dasharray:none;stroke-dashoffset:0;stroke-opacity:1;paint-order:fill markers stroke;color-rendering:auto;image-rendering:auto;shape-rendering:auto;text-rendering:auto;enable-background:accumulate"
           d="m 85.652977,47.060907 c -1.22293,-0.0043 -3.041461,0.0097 -5.476563,0.0625 -2.432409,0.05275 -4.267553,0.09854 -5.509765,0.136719 -0.621106,0.01909 -1.092915,0.03514 -1.419922,0.05078 -0.163504,0.0078 -0.29102,0.01592 -0.386719,0.02344 -0.04785,0.0038 -0.08608,0.0067 -0.125,0.01172 -0.0352,0.0045 -0.04792,-0.01122 -0.185547,0.05273 -0.122611,0.05633 -0.259488,0.213898 -0.294922,0.326172 -0.0361,0.114386 -0.02917,0.176316 -0.02734,0.224609 0.0037,0.09659 0.01433,0.160969 0.02539,0.273437 0.02213,0.224938 0.05244,0.609448 0.04102,1.300782 a 0.50005,0.50005 0 0 0 0,0.0039 c -0.0059,0.709575 6.99e-4,1.115239 0.0332,1.394531 0.01625,0.139647 0.02914,0.247134 0.105469,0.394531 0.07633,0.147398 0.345789,0.324219 0.519531,0.324219 0.07031,0 0.203358,-0.0032 0.521484,-0.0098 0.318126,-0.0066 0.784111,-0.01611 1.396485,-0.0293 1.224746,-0.02637 3.039027,-0.06641 5.441406,-0.119141 4.804677,-0.117187 7.201172,-0.175781 7.212891,-0.175781 a 0.50005,0.50005 0 0 0 0.474609,-0.341797 c -0.01956,0.05868 0.01067,-0.02205 0.0293,-0.08789 0.01862,-0.06584 0.03534,-0.14719 0.05273,-0.263671 0.03468,-0.232262 0.07188,-0.611159 0.101563,-1.285157 v -0.002 c 0.0362,-0.690364 0.0087,-1.115971 -0.04102,-1.408203 C 88.091497,47.6256 87.998344,47.402036 88.01821,47.474878 A 0.50005,0.50005 0 0 0 87.715476,47.13894 c -0.162027,-0.06211 -0.140136,-0.0336 -0.175782,-0.03711 -0.03565,-0.0035 -0.07309,-0.0072 -0.11914,-0.0098 -0.09211,-0.0052 -0.215405,-0.0094 -0.375,-0.01367 -0.31919,-0.0086 -0.781114,-0.01541 -1.392578,-0.01758 z"
           id="path4718"
           inkscape:connector-curvature="0" /><path
           style="color:#000000;font-style:normal;font-variant:normal;font-weight:normal;font-stretch:normal;font-size:medium;line-height:1;font-family:Mikado;-inkscape-font-specification:'Mikado Bold';font-variant-ligatures:normal;font-variant-position:normal;font-variant-caps:normal;font-variant-numeric:normal;font-variant-alternates:normal;font-feature-settings:normal;text-indent:0;text-align:start;text-decoration:none;text-decoration-line:none;text-decoration-style:solid;text-decoration-color:#000000;letter-spacing:normal;word-spacing:normal;text-transform:none;writing-mode:lr-tb;direction:ltr;text-orientation:mixed;dominant-baseline:auto;baseline-shift:baseline;text-anchor:start;white-space:normal;shape-padding:0;clip-rule:nonzero;display:inline;overflow:visible;visibility:visible;isolation:auto;mix-blend-mode:normal;color-interpolation:sRGB;color-interpolation-filters:linearRGB;solid-color:#000000;solid-opacity:1;vector-effect:none;fill:#b9a400;fill-opacity:1;fill-rule:nonzero;stroke:none;stroke-width:1;stroke-linecap:butt;stroke-linejoin:miter;stroke-miterlimit:4;stroke-dasharray:none;stroke-dashoffset:0;stroke-opacity:1;paint-order:fill markers stroke;color-rendering:auto;image-rendering:auto;shape-rendering:auto;text-rendering:auto;enable-background:accumulate"
           d="m 85.551414,70.801142 a 0.50005,0.50005 0 0 0 -0.34375,0.148437 l -4.548828,4.582031 -4.392578,-4.408203 a 0.50005,0.50005 0 0 0 -0.638672,-0.05664 c -1.071238,0.742562 -1.921513,1.562248 -2.537109,2.466797 a 0.50005,0.50005 0 0 0 0.0625,0.636719 l 4.664062,4.63086 -4.841797,5.171874 c -7.32e-4,7.33e-4 -0.122703,0.196236 -0.123047,0.197266 -1.71e-4,5.15e-4 -0.01769,0.06761 -0.02148,0.09766 -0.0038,0.03005 -0.0047,0.05763 -0.0039,0.08203 0.0034,0.09761 0.02623,0.150392 0.04297,0.189453 0.03348,0.07812 0.05925,0.106924 0.08203,0.136719 0.04557,0.05959 0.08492,0.102494 0.136719,0.154296 0.103604,0.103605 0.245837,0.232686 0.4375,0.400391 0.380827,0.333224 0.779715,0.665569 1.195312,0.998047 a 0.50005,0.50005 0 0 0 0.01172,0.0098 c 0.216271,0.162203 0.389983,0.286138 0.53125,0.376953 0.07063,0.04541 0.133166,0.08221 0.199219,0.115234 0.06605,0.03303 0.103514,0.08203 0.308593,0.08203 a 0.50005,0.50005 0 0 0 0.07031,-0.0059 c 0.189919,-0.02713 0.19965,-0.07011 0.234375,-0.09375 0.03473,-0.02364 0.0593,-0.04161 0.08398,-0.0625 0.04937,-0.04178 0.09913,-0.089 0.160156,-0.148438 0.122052,-0.118881 0.282684,-0.286448 0.490235,-0.505859 0.415101,-0.438822 1.012397,-1.086482 1.792969,-1.949219 a 0.50005,0.50005 0 0 0 0,-0.002 c 0.778859,-0.866701 1.368904,-1.518483 1.765625,-1.953125 0.126716,-0.138829 0.199896,-0.216344 0.287109,-0.310547 0.219291,0.199277 0.535803,0.492263 0.960938,0.888672 0.867009,0.808426 1.752118,1.63492 2.654296,2.478516 0.452219,0.422853 0.80403,0.747727 1.056641,0.976562 0.126305,0.114418 0.227237,0.20504 0.306641,0.273438 0.0794,0.0684 0.107767,0.100069 0.207031,0.162109 a 0.50005,0.50005 0 0 0 0.0293,0.01563 c 0.245414,0.132147 0.459471,0.06313 0.597656,0.0039 0.138185,-0.05922 0.252004,-0.135239 0.376953,-0.232422 0.249899,-0.194365 0.537455,-0.474316 0.892578,-0.853515 a 0.50005,0.50005 0 0 0 0.002,-0.002 c 0.349662,-0.379294 0.613348,-0.678711 0.798828,-0.908203 0.09274,-0.114747 0.166977,-0.210831 0.226563,-0.302735 0.05959,-0.0919 0.144531,-0.112594 0.144531,-0.412109 0,-2.75e-4 -0.01748,-0.132436 -0.01758,-0.132813 -1.02e-4,-3.77e-4 -0.01646,-0.05007 -0.02344,-0.06641 -0.01395,-0.03268 -0.02481,-0.04848 -0.0332,-0.0625 -0.01678,-0.02805 -0.02586,-0.04227 -0.03516,-0.05469 -0.01859,-0.02483 -0.03384,-0.04076 -0.05078,-0.06055 -0.03388,-0.03957 -0.07436,-0.08736 -0.128906,-0.146485 -0.109097,-0.118252 -0.267882,-0.284435 -0.478516,-0.503906 -0.421267,-0.438942 -1.050182,-1.085326 -1.888672,-1.941406 -0.836699,-0.860104 -1.461564,-1.510712 -1.873047,-1.951172 -0.153352,-0.164152 -0.245648,-0.267664 -0.33789,-0.371094 0.08151,-0.09697 0.160094,-0.189881 0.287109,-0.33789 0.352461,-0.410719 0.877496,-1.014293 1.574219,-1.810547 h -0.002 c 0.704506,-0.79844 1.234263,-1.408119 1.59375,-1.835938 0.179743,-0.213909 0.317707,-0.381885 0.416015,-0.509765 0.04915,-0.06394 0.08835,-0.117474 0.123047,-0.169922 0.01735,-0.02622 0.03236,-0.05101 0.05078,-0.08594 0.01842,-0.03492 0.04734,-0.06038 0.06445,-0.197265 a 0.50005,0.50005 0 0 0 0.0039,-0.0625 c 0,-0.224174 -0.062,-0.269105 -0.101563,-0.335938 -0.03957,-0.06683 -0.08341,-0.125375 -0.134765,-0.191406 -0.102715,-0.132063 -0.240367,-0.289731 -0.419922,-0.484375 -0.359111,-0.389288 -0.885625,-0.924739 -1.585938,-1.613281 A 0.50005,0.50005 0 0 0 85.551406,70.80103 Z"
           id="path4714"
           inkscape:connector-curvature="0" /><path
           d="m 56.133876,80.560565 c 0.220683,-0.176547 0.176546,-3.751611 0.176546,-3.751611 L 38.170279,76.9855 c -0.08827,0 0.220683,3.619201 0.441366,3.795748 z m -11.546493,-8.41458 c 0,1.816877 1.211251,2.850003 2.956879,2.850003 1.781252,0 3.063753,-1.175626 3.063753,-2.671878 0,-2.066253 -1.282501,-3.277504 -3.063753,-3.277504 -2.422503,0 -2.956879,1.318126 -2.956879,3.099379 z m 0,13.680017 c 0,1.852502 1.211251,2.850003 2.956879,2.850003 1.852502,0 3.099379,-1.175627 3.099379,-2.636253 0,-2.101878 -1.246877,-3.313129 -3.099379,-3.313129 -2.422503,0 -2.956879,1.318126 -2.956879,3.099379 z"
           id="text33"
           style="font-style:normal;font-variant:normal;font-weight:bold;font-stretch:normal;font-size:44.1366px;line-height:1;font-family:Mikado;-inkscape-font-specification:'Mikado Bold';font-variant-ligatures:normal;font-variant-caps:normal;font-variant-numeric:lining-nums;font-feature-settings:'cv01', 'cv02';text-align:end;letter-spacing:0px;word-spacing:0px;writing-mode:lr-tb;text-anchor:end;fill:#5598cc;fill-opacity:1;fill-rule:nonzero;stroke:none;stroke-width:7.99998;stroke-linecap:round;stroke-linejoin:round;stroke-miterlimit:4;stroke-dasharray:none;stroke-dashoffset:0;stroke-opacity:1;paint-order:stroke fill markers"
           aria-label="÷"
           sodipodi:nodetypes="cccccssssssssss" /><g
           aria-label="–"
           style="font-style:normal;font-variant:normal;font-weight:bold;font-stretch:normal;font-size:36px;line-height:1;font-family:Mikado;-inkscape-font-specification:'Mikado Bold';font-variant-ligatures:normal;font-variant-caps:normal;font-variant-numeric:normal;font-feature-settings:normal;text-align:center;writing-mode:lr-tb;text-anchor:middle;opacity:1;vector-effect:none;fill:#636c7a;fill-opacity:1;fill-rule:nonzero;stroke:#636c7a;stroke-width:1;stroke-linecap:butt;stroke-linejoin:round;stroke-miterlimit:4;stroke-dasharray:none;stroke-dashoffset:0;stroke-opacity:1;paint-order:fill markers stroke"
           id="text1799" /><g
           aria-label="×"
           style="font-style:normal;font-variant:normal;font-weight:bold;font-stretch:normal;font-size:36px;line-height:1;font-family:Mikado;-inkscape-font-specification:'Mikado Bold';font-variant-ligatures:normal;font-variant-caps:normal;font-variant-numeric:normal;font-feature-settings:normal;text-align:center;writing-mode:lr-tb;text-anchor:middle;opacity:1;vector-effect:none;fill:#636c7a;fill-opacity:1;fill-rule:nonzero;stroke:#636c7a;stroke-width:1;stroke-linecap:butt;stroke-linejoin:round;stroke-miterlimit:4;stroke-dasharray:none;stroke-dashoffset:0;stroke-opacity:1;paint-order:fill markers stroke"
           id="text1803" /></g></g></g><style
     id="style2296-9">.B{fill:#fc9abf}.C{fill:#ffc7df}.D{fill:#ed84cb}.E{fill-opacity:1}.F{stroke:none}</style></svg>
