<?xml version="1.0" encoding="UTF-8" standalone="no"?>
<!-- Created with Inkscape (http://www.inkscape.org/) -->

<svg
   enable-background="new"
   inkscape:export-ydpi="384"
   inkscape:export-xdpi="384"
   inkscape:export-filename="..\app\src\main\res\drawable-nodpi\reset_system.png"
   sodipodi:docname="reset_systemt.svg"
   inkscape:version="1.3 (0e150ed6c4, 2023-07-21)"
   id="svg8"
   version="1.1"
   viewBox="0 0 128 128"
   height="128"
   width="128"
   xml:space="preserve"
   xmlns:inkscape="http://www.inkscape.org/namespaces/inkscape"
   xmlns:sodipodi="http://sodipodi.sourceforge.net/DTD/sodipodi-0.dtd"
   xmlns="http://www.w3.org/2000/svg"
   xmlns:svg="http://www.w3.org/2000/svg"
   xmlns:rdf="http://www.w3.org/1999/02/22-rdf-syntax-ns#"
   xmlns:cc="http://creativecommons.org/ns#"
   xmlns:dc="http://purl.org/dc/elements/1.1/"><sodipodi:namedview
     id="base"
     pagecolor="#ffffff"
     bordercolor="#666666"
     borderopacity="1.0"
     inkscape:pageopacity="0.0"
     inkscape:pageshadow="2"
     inkscape:zoom="1"
     inkscape:cx="115"
     inkscape:cy="256"
     inkscape:document-units="px"
     inkscape:current-layer="g2265"
     showgrid="false"
     units="px"
     inkscape:pagecheckerboard="true"
     borderlayer="true"
     gridtolerance="10"
     inkscape:snap-smooth-nodes="true"
     inkscape:snap-text-baseline="true"
     inkscape:snap-page="true"
     showguides="true"
     inkscape:guide-bbox="true"
     inkscape:snap-object-midpoints="true"
     inkscape:snap-center="true"
     inkscape:snap-global="true"
     inkscape:lockguides="false"
     inkscape:snap-bbox="true"
     inkscape:bbox-nodes="true"
     inkscape:showpageshadow="0"
     inkscape:deskcolor="#d1d1d1"
     inkscape:window-width="1852"
     inkscape:window-height="1057"
     inkscape:window-x="60"
     inkscape:window-y="-8"
     inkscape:window-maximized="1"><inkscape:grid
       enabled="false"
       empspacing="4"
       id="grid4131"
       type="xygrid"
       spacingx="8"
       spacingy="8"
       originx="0"
       originy="0"
       units="px"
       visible="false" /><inkscape:grid
       empspacing="4"
       id="grid4167"
       type="xygrid"
       originx="0"
       originy="0"
       spacingy="1"
       spacingx="1"
       units="px"
       visible="false" /></sodipodi:namedview><defs
     id="defs2" /><metadata
     id="metadata5"><rdf:RDF><cc:Work
         rdf:about=""><dc:format>image/svg+xml</dc:format><dc:type
           rdf:resource="http://purl.org/dc/dcmitype/StillImage" /></cc:Work></rdf:RDF></metadata><style
     id="style2296">.B{fill:#fc9abf}.C{fill:#ffc7df}.D{fill:#ed84cb}.E{fill-opacity:1}.F{stroke:none}</style><g
     inkscape:groupmode="layer"
     id="g2265"
     inkscape:label="files コピー コピー"
     style="display:inline"><circle
       style="display:inline;opacity:1;vector-effect:none;fill:#6d9fe9;fill-opacity:1;fill-rule:nonzero;stroke:#3a76c3;stroke-width:4;stroke-linecap:butt;stroke-linejoin:round;stroke-miterlimit:4;stroke-dasharray:none;stroke-dashoffset:0;stroke-opacity:1;paint-order:fill markers stroke"
       id="circle2257"
       cx="64"
       cy="64"
       r="60" /><path
       sodipodi:nodetypes="cscssssssscscccsccsccsccsc"
       inkscape:connector-curvature="0"
       id="path2259"
       d="m 53.779297,30.1875 c -5.653655,0.04341 -11.314635,0.717659 -16.800781,1.740234 -1.010577,0.188364 -1.589965,0.705378 -2.128907,1.232422 -0.538941,0.527045 -1.017928,1.142678 -1.498047,1.835938 -0.960235,1.386518 -1.902634,3.090326 -2.77539,4.830078 -0.872756,1.739752 -1.667281,3.507358 -2.28125,4.976562 -0.613969,1.469205 -1.020631,2.493288 -1.22461,3.314454 -2.046545,8.238848 -2.470703,16.368372 -2.470703,25.152343 0,7.419398 0.428706,14.185487 2.494141,21.1875 0.60592,2.054125 1.93508,3.847284 3.722656,5.146485 1.787574,1.299194 4.043522,2.142644 6.5,2.525394 9.424178,1.46844 18.540405,1.77539 28.683594,1.77539 10.143189,0 19.259417,-0.30695 28.683594,-1.77539 2.456478,-0.38275 4.712427,-1.22619 6.499996,-2.525394 1.78758,-1.299199 3.11675,-3.092343 3.72266,-5.146485 2.06544,-7.002014 2.49414,-13.768102 2.49414,-21.1875 0,-8.783971 -0.42415,-16.913494 -2.4707,-25.152343 -0.56966,-2.293338 -1.83637,-4.357297 -3.61524,-5.892579 -1.778862,-1.535286 -4.072168,-2.562433 -6.574216,-3.02539 -9.322083,-1.724879 -18.336561,-1.919677 -28.269531,-1.925781 -0.202804,-0.138529 -0.512679,-0.37029 -0.888672,-0.669922 -0.784979,-0.625558 -1.820634,-1.50322 -2.896484,-2.392578 -1.07585,-0.889359 -2.190025,-1.791038 -3.210938,-2.513672 -0.510456,-0.361318 -0.995362,-0.678665 -1.486328,-0.939454 -0.490966,-0.260788 -0.928169,-0.527175 -1.787109,-0.548828 -0.806842,-0.02034 -1.61421,-0.02769 -2.421875,-0.02148 z"
       style="color:#000000;font-style:normal;font-variant:normal;font-weight:normal;font-stretch:normal;font-size:medium;line-height:normal;font-family:sans-serif;font-variant-ligatures:normal;font-variant-position:normal;font-variant-caps:normal;font-variant-numeric:normal;font-variant-alternates:normal;font-feature-settings:normal;text-indent:0;text-align:start;text-decoration:none;text-decoration-line:none;text-decoration-style:solid;text-decoration-color:#000000;letter-spacing:normal;word-spacing:normal;text-transform:none;writing-mode:lr-tb;direction:ltr;text-orientation:mixed;dominant-baseline:auto;baseline-shift:baseline;text-anchor:start;white-space:normal;shape-padding:0;clip-rule:nonzero;display:inline;overflow:visible;visibility:visible;opacity:0.5;isolation:auto;mix-blend-mode:normal;color-interpolation:sRGB;color-interpolation-filters:linearRGB;solid-color:#000000;solid-opacity:1;vector-effect:none;fill:#3a76c3;fill-opacity:1;fill-rule:nonzero;stroke:none;stroke-width:4;stroke-linecap:butt;stroke-linejoin:round;stroke-miterlimit:4;stroke-dasharray:none;stroke-dashoffset:0;stroke-opacity:1;paint-order:normal;color-rendering:auto;image-rendering:auto;shape-rendering:auto;text-rendering:auto;enable-background:accumulate" /><path
       sodipodi:nodetypes="cszscsssc"
       inkscape:connector-curvature="0"
       id="path2261"
       d="m 103.4,69.268852 c 0,-8.719205 -0.42353,-16.667462 -2.41141,-24.670119 -0.46928,-1.889248 -1.520504,-3.599653 -2.981339,-4.86045 C 96.546424,38.477486 94.564648,37.570213 92.37566,37.165182 83.103328,35.449509 74.102564,35.263954 64,35.263954 c -0.895454,0 -8.05966,-7.009885 -9.85,-7.055016 C 47.876712,28.050797 41.514355,28.744924 35.345455,29.89476 32.704633,30.386989 27.480701,42.709485 27.011408,44.598733 25.023533,52.60139 24.6,60.549647 24.6,69.268852"
       style="display:inline;opacity:1;vector-effect:none;fill:#d4d4d4;fill-opacity:1;fill-rule:nonzero;stroke:#646464;stroke-width:4;stroke-linecap:butt;stroke-linejoin:round;stroke-miterlimit:4;stroke-dasharray:none;stroke-dashoffset:0;stroke-opacity:1;paint-order:normal" /><path
       style="display:inline;opacity:1;vector-effect:none;fill:#e2e2e2;fill-opacity:1;fill-rule:nonzero;stroke:#646464;stroke-width:4;stroke-linecap:butt;stroke-linejoin:round;stroke-miterlimit:4;stroke-dasharray:none;stroke-dashoffset:0;stroke-opacity:1;paint-order:normal"
       d="M 92.37566,42.385747 C 83.103328,40.94097 74.102564,40.633149 64,40.633149 c -10.102564,0 -19.103327,0.307821 -28.37566,1.752598 -2.188987,0.341079 -4.17076,1.105098 -5.631591,2.166821 -1.460831,1.061725 -2.512048,2.502066 -2.981341,4.093011 C 25.023533,55.384659 24.6,61.926364 24.6,69.268852 c 0,7.342488 0.423533,13.884194 2.411408,20.623273 0.469293,1.590946 1.52051,3.031287 2.981341,4.093011 1.460831,1.061723 3.442604,1.825746 5.631591,2.166816 9.272333,1.444788 18.273096,1.752603 28.37566,1.752603 10.102564,0 19.103328,-0.307815 28.37566,-1.752603 2.188988,-0.34107 4.170764,-1.105093 5.631591,-2.166816 1.460835,-1.061724 2.512059,-2.502065 2.981339,-4.093011 C 102.97647,83.153046 103.4,76.61134 103.4,69.268852 c 0,-7.342488 -0.42353,-13.884193 -2.41141,-20.623273 -0.46928,-1.590945 -1.520504,-3.031286 -2.981339,-4.093011 -1.460827,-1.061723 -3.442603,-1.825742 -5.631591,-2.166821 z"
       id="path2263"
       inkscape:connector-curvature="0"
       sodipodi:nodetypes="szszszszszszszszs" /><path
       id="path35"
       style="display:inline;fill:#646464;fill-opacity:1;stroke:none;stroke-width:4;stroke-linecap:round;stroke-linejoin:round;stroke-opacity:1;paint-order:stroke fill markers"
       d="m 64,57.044832 c -6.999994,0 -6.999995,9.66025 -2,11 -1.999998,4 -3.725243,11.01896 -4,13 1.879837,0.68279 4.031817,1 6,1 1.968183,0 4.120162,-0.31721 6,-1 -0.274758,-1.98104 -2.000002,-9 -4,-13 4.999994,-1.33975 4.999993,-11 -2,-11 z"
       sodipodi:nodetypes="scczccs" /></g><style
     id="style2296-6">.B{fill:#fc9abf}.C{fill:#ffc7df}.D{fill:#ed84cb}.E{fill-opacity:1}.F{stroke:none}</style></svg>
