<?xml version="1.0" encoding="UTF-8" standalone="no"?>
<!-- Created with Inkscape (http://www.inkscape.org/) -->

<svg
   enable-background="new"
   inkscape:export-ydpi="384"
   inkscape:export-xdpi="384"
   inkscape:export-filename="..\app\src\main\res\drawable-nodpi\retroarch_plus.png"
   sodipodi:docname="retroarch_plus.svg"
   inkscape:version="1.3 (0e150ed6c4, 2023-07-21)"
   id="svg8"
   version="1.1"
   viewBox="0 0 128 128"
   height="128"
   width="128"
   xml:space="preserve"
   xmlns:inkscape="http://www.inkscape.org/namespaces/inkscape"
   xmlns:sodipodi="http://sodipodi.sourceforge.net/DTD/sodipodi-0.dtd"
   xmlns="http://www.w3.org/2000/svg"
   xmlns:svg="http://www.w3.org/2000/svg"
   xmlns:rdf="http://www.w3.org/1999/02/22-rdf-syntax-ns#"
   xmlns:cc="http://creativecommons.org/ns#"
   xmlns:dc="http://purl.org/dc/elements/1.1/"><sodipodi:namedview
     id="base"
     pagecolor="#ffffff"
     bordercolor="#666666"
     borderopacity="1.0"
     inkscape:pageopacity="0.0"
     inkscape:pageshadow="2"
     inkscape:zoom="2"
     inkscape:cx="-29.25"
     inkscape:cy="121.5"
     inkscape:document-units="px"
     inkscape:current-layer="g2664"
     showgrid="false"
     units="px"
     inkscape:pagecheckerboard="true"
     borderlayer="true"
     gridtolerance="10"
     inkscape:snap-smooth-nodes="true"
     inkscape:snap-text-baseline="true"
     inkscape:snap-page="true"
     showguides="true"
     inkscape:guide-bbox="true"
     inkscape:snap-object-midpoints="true"
     inkscape:snap-center="true"
     inkscape:snap-global="true"
     inkscape:lockguides="false"
     inkscape:snap-bbox="true"
     inkscape:bbox-nodes="true"
     inkscape:showpageshadow="0"
     inkscape:deskcolor="#d1d1d1"
     inkscape:window-width="1852"
     inkscape:window-height="1057"
     inkscape:window-x="60"
     inkscape:window-y="-8"
     inkscape:window-maximized="1"><inkscape:grid
       enabled="false"
       empspacing="4"
       id="grid4131"
       type="xygrid"
       spacingx="8"
       spacingy="8"
       originx="0"
       originy="0"
       units="px"
       visible="false" /><inkscape:grid
       empspacing="4"
       id="grid4167"
       type="xygrid"
       originx="0"
       originy="0"
       spacingy="1"
       spacingx="1"
       units="px"
       visible="false" /></sodipodi:namedview><defs
     id="defs2"><mask
       maskUnits="userSpaceOnUse"
       id="mask2"><path
         style="opacity:1;vector-effect:none;fill:none;fill-opacity:1;fill-rule:nonzero;stroke:#ffffff;stroke-width:8;stroke-linecap:butt;stroke-linejoin:round;stroke-miterlimit:4;stroke-dasharray:none;stroke-dashoffset:0;stroke-opacity:1;paint-order:stroke fill markers"
         d="m 40,32.75 a 2.0002,2.0002 0 1 0 0,4 c 1.728144,0 4.407265,1.100343 6.443359,2.716797 1.184951,0.940731 2.083998,2.041102 2.638672,3.001953 C 37.990118,46.863099 34.405177,56.508178 34.048828,66.320312 25.727557,64.953611 22.664327,55.21362 26.46875,49.705078 a 3.0003,3.0003 0 0 0 -2.476562,-4.740234 3.0003,3.0003 0 0 0 -2.460938,1.330078 c -6.683373,9.677061 -0.299161,24.943044 12.90625,26.111328 1.169184,5.635877 4.686394,9.642815 10.142578,12.181641 -1.640681,3.824944 -5.530429,7.647329 -8.763672,8.513671 a 3.0006148,3.0006148 0 1 0 1.552735,5.796876 C 43.252866,97.321898 48.110814,92.325409 50.289062,86.533203 54.251174,87.510071 58.834636,88 64,88 c 5.165364,0 9.748827,-0.489929 13.710938,-1.466797 2.178248,5.792206 7.036196,10.788695 12.919921,12.365235 a 3.0006148,3.0006148 0 1 0 1.552735,-5.796876 C 88.950351,92.23522 85.060603,88.412835 83.419922,84.587891 88.876106,82.049065 92.393316,78.042127 93.5625,72.40625 106.76791,71.237966 113.15212,55.971983 106.46875,46.294922 a 3.0003,3.0003 0 0 0 -2.46094,-1.330078 3.0003,3.0003 0 0 0 -2.47656,4.740234 c 3.80442,5.508542 0.74119,15.248533 -7.580078,16.615234 C 93.594823,56.508178 90.009882,46.863099 78.917969,42.46875 79.472643,41.507899 80.37169,40.407528 81.556641,39.466797 83.592735,37.850343 86.271856,36.75 88,36.75 a 2.0002,2.0002 0 1 0 0,-4 c -3.16014,0 -6.33426,1.523477 -8.929688,3.583984 -1.73283,1.375694 -3.263667,3.010315 -4.101562,4.888672 C 71.813706,40.439167 68.187024,40 64,40 59.812976,40 56.186294,40.439167 53.03125,41.222656 52.193355,39.344299 50.662517,37.709678 48.929688,36.333984 46.33426,34.273477 43.16014,32.75 40,32.75 Z"
         id="path3"
         inkscape:connector-curvature="0" /></mask><filter
       inkscape:collect="always"
       style="color-interpolation-filters:sRGB"
       id="filter14"
       x="-0.10181093"
       y="-0.10181093"
       width="1.2036219"
       height="1.2036219"><feGaussianBlur
         inkscape:collect="always"
         stdDeviation="5.0905465"
         id="feGaussianBlur14" /></filter></defs><metadata
     id="metadata5"><rdf:RDF><cc:Work
         rdf:about=""><dc:format>image/svg+xml</dc:format><dc:type
           rdf:resource="http://purl.org/dc/dcmitype/StillImage" /></cc:Work></rdf:RDF></metadata><style
     id="style2296">.B{fill:#fc9abf}.C{fill:#ffc7df}.D{fill:#ed84cb}.E{fill-opacity:1}.F{stroke:none}</style><g
     style="display:inline"
     inkscape:label="retroarch"
     id="g2664"
     inkscape:groupmode="layer"><circle
       r="60"
       cy="64"
       cx="64"
       id="circle2653"
       style="display:inline;opacity:1;vector-effect:none;fill:#4c4c4c;fill-opacity:1;fill-rule:nonzero;stroke:#373737;stroke-width:4;stroke-linecap:butt;stroke-linejoin:round;stroke-miterlimit:4;stroke-dasharray:none;stroke-dashoffset:0;stroke-opacity:1;paint-order:fill markers stroke" /><path
       id="path2699"
       d="m 42,36.75 a 2.0002,2.0002 0 1 0 0,4 c 1.728144,0 4.407265,1.100343 6.443359,2.716797 1.184951,0.940731 2.083998,2.041102 2.638672,3.001953 C 39.990118,50.863099 36.405177,60.508178 36.048828,70.320312 27.727557,68.953611 24.664327,59.21362 28.46875,53.705078 a 3.0003,3.0003 0 0 0 -2.476562,-4.740234 3.0003,3.0003 0 0 0 -2.460938,1.330078 c -6.683373,9.677061 -0.299161,24.943044 12.90625,26.111328 1.169184,5.635877 4.686394,9.642815 10.142578,12.181641 -1.640681,3.824944 -5.530429,7.647329 -8.763672,8.513671 a 3.0006158,3.0006158 0 1 0 1.552735,5.796878 C 45.252866,101.3219 50.110814,96.325409 52.289062,90.533203 56.251174,91.510071 60.834636,92 66,92 c 5.165364,0 9.748827,-0.489929 13.710938,-1.466797 2.178248,5.792206 7.036196,10.788697 12.919921,12.365237 a 3.0006158,3.0006158 0 1 0 1.552735,-5.796878 C 90.950351,96.23522 87.060603,92.412835 85.419922,88.587891 90.876106,86.049065 94.393316,82.042127 95.5625,76.40625 108.76791,75.237966 115.15212,59.971983 108.46875,50.294922 a 3.0003,3.0003 0 0 0 -2.46094,-1.330078 3.0003,3.0003 0 0 0 -2.47656,4.740234 c 3.80442,5.508542 0.74119,15.248533 -7.580078,16.615234 C 95.594823,60.508178 92.009882,50.863099 80.917969,46.46875 81.472643,45.507899 82.37169,44.407528 83.556641,43.466797 85.592735,41.850343 88.271856,40.75 90,40.75 a 2.0002,2.0002 0 1 0 0,-4 c -3.16014,0 -6.33426,1.523477 -8.929688,3.583984 -1.73283,1.375694 -3.263667,3.010315 -4.101562,4.888672 C 73.813706,44.439167 70.187024,44 66,44 61.812976,44 58.186294,44.439167 55.03125,45.222656 54.193355,43.344299 52.662517,41.709678 50.929688,40.333984 48.33426,38.273477 45.16014,36.75 42,36.75 Z"
       style="opacity:0.5;vector-effect:none;fill:none;fill-opacity:1;fill-rule:nonzero;stroke:#373737;stroke-width:8;stroke-linecap:butt;stroke-linejoin:round;stroke-miterlimit:4;stroke-dasharray:none;stroke-dashoffset:0;stroke-opacity:1;paint-order:stroke fill markers"
       inkscape:connector-curvature="0" /><g
       inkscape:groupmode="maskhelper"
       id="g2"
       mask="url(#mask2)"
       style="display:inline"><g
         id="g14"
         style="filter:url(#filter14)"><path
           style="display:inline;fill:#d5425d;fill-opacity:1;stroke:none;stroke-width:8;stroke-linecap:round;stroke-linejoin:round;stroke-opacity:1;paint-order:stroke markers fill"
           id="path2"
           sodipodi:type="arc"
           sodipodi:cx="64"
           sodipodi:cy="64"
           sodipodi:rx="60"
           sodipodi:ry="60"
           sodipodi:start="4.712389"
           sodipodi:end="5.4977871"
           sodipodi:arc-type="slice"
           d="m 64,4 a 60,60 0 0 1 42.42641,17.573591 L 64,64 Z" /><path
           style="display:inline;fill:#f08117;fill-opacity:1;stroke:none;stroke-width:8;stroke-linecap:round;stroke-linejoin:round;stroke-opacity:1;paint-order:stroke markers fill"
           id="path5"
           sodipodi:type="arc"
           sodipodi:cx="64"
           sodipodi:cy="64"
           sodipodi:rx="60"
           sodipodi:ry="60"
           sodipodi:start="5.4977871"
           sodipodi:end="0"
           sodipodi:arc-type="slice"
           d="M 106.42641,21.573591 A 60,60 0 0 1 124,64 H 64 Z" /><path
           style="display:inline;fill:#b9a400;fill-opacity:1;stroke:none;stroke-width:8;stroke-linecap:round;stroke-linejoin:round;stroke-opacity:1;paint-order:stroke markers fill"
           id="path6"
           sodipodi:type="arc"
           sodipodi:cx="64"
           sodipodi:cy="64"
           sodipodi:rx="60"
           sodipodi:ry="60"
           sodipodi:start="0"
           sodipodi:end="0.78539816"
           sodipodi:arc-type="slice"
           d="m 124,64 a 60,60 0 0 1 -17.57359,42.42641 L 64,64 Z" /><path
           style="display:inline;fill:#5b9323;fill-opacity:1;stroke:none;stroke-width:8;stroke-linecap:round;stroke-linejoin:round;stroke-opacity:1;paint-order:stroke markers fill"
           id="path8"
           sodipodi:type="arc"
           sodipodi:cx="64"
           sodipodi:cy="64"
           sodipodi:rx="60"
           sodipodi:ry="60"
           sodipodi:start="0.78539816"
           sodipodi:end="1.5707963"
           sodipodi:arc-type="slice"
           d="M 106.42641,106.42641 A 60,60 0 0 1 64,124 V 64 Z" /><path
           style="display:inline;fill:#2c737f;fill-opacity:1;stroke:none;stroke-width:8;stroke-linecap:round;stroke-linejoin:round;stroke-opacity:1;paint-order:stroke markers fill"
           id="path9"
           sodipodi:type="arc"
           sodipodi:cx="64"
           sodipodi:cy="64"
           sodipodi:rx="60"
           sodipodi:ry="60"
           sodipodi:start="1.5707963"
           sodipodi:end="2.3561945"
           sodipodi:arc-type="slice"
           d="M 64,124 A 60,60 0 0 1 21.573593,106.42641 L 64,64 Z" /><path
           style="display:inline;fill:#3a76c3;fill-opacity:1;stroke:none;stroke-width:8;stroke-linecap:round;stroke-linejoin:round;stroke-opacity:1;paint-order:stroke markers fill"
           id="path11"
           sodipodi:type="arc"
           sodipodi:cx="64"
           sodipodi:cy="64"
           sodipodi:rx="60"
           sodipodi:ry="60"
           sodipodi:start="2.3561945"
           sodipodi:end="3.1415927"
           sodipodi:arc-type="slice"
           d="M 21.573593,106.42641 A 60,60 0 0 1 4,64 h 60 z" /><path
           style="display:inline;fill:#725999;fill-opacity:1;stroke:none;stroke-width:8;stroke-linecap:round;stroke-linejoin:round;stroke-opacity:1;paint-order:stroke markers fill"
           id="path12"
           sodipodi:type="arc"
           sodipodi:cx="64"
           sodipodi:cy="64"
           sodipodi:rx="60"
           sodipodi:ry="60"
           sodipodi:start="3.1415927"
           sodipodi:end="3.9269908"
           sodipodi:arc-type="slice"
           d="M 4,64 A 60,60 0 0 1 21.573592,21.573594 L 64,64 Z" /><path
           style="display:inline;fill:#c33a75;fill-opacity:1;stroke:none;stroke-width:8;stroke-linecap:round;stroke-linejoin:round;stroke-opacity:1;paint-order:stroke markers fill"
           id="path14"
           sodipodi:type="arc"
           sodipodi:cx="64"
           sodipodi:cy="64"
           sodipodi:rx="60"
           sodipodi:ry="60"
           sodipodi:start="3.9269908"
           sodipodi:end="4.712389"
           sodipodi:arc-type="slice"
           d="M 21.573592,21.573594 A 60,60 0 0 1 64,4 v 60 z" /></g></g><path
       style="opacity:1;vector-effect:none;fill:#eeeeee;fill-opacity:1;fill-rule:nonzero;stroke:none;stroke-width:8;stroke-linecap:butt;stroke-linejoin:round;stroke-miterlimit:4;stroke-dasharray:none;stroke-dashoffset:0;stroke-opacity:1;paint-order:stroke fill markers"
       d="m 40,32.75 a 2.0002,2.0002 0 1 0 0,4 c 1.728144,0 4.407265,1.100343 6.443359,2.716797 1.184951,0.940731 2.083998,2.041102 2.638672,3.001953 C 37.990118,46.863099 34.405177,56.508178 34.048828,66.320312 25.727557,64.953611 22.664327,55.21362 26.46875,49.705078 a 3.0003,3.0003 0 0 0 -2.476562,-4.740234 3.0003,3.0003 0 0 0 -2.460938,1.330078 c -6.683373,9.677061 -0.299161,24.943044 12.90625,26.111328 1.169184,5.635877 4.686394,9.642815 10.142578,12.181641 -1.640681,3.824944 -5.530429,7.647329 -8.763672,8.513671 a 3.0006148,3.0006148 0 1 0 1.552735,5.796876 C 43.252866,97.321898 48.110814,92.325409 50.289062,86.533203 54.251174,87.510071 58.834636,88 64,88 c 5.165364,0 9.748827,-0.489929 13.710938,-1.466797 2.178248,5.792206 7.036196,10.788695 12.919921,12.365235 a 3.0006148,3.0006148 0 1 0 1.552735,-5.796876 C 88.950351,92.23522 85.060603,88.412835 83.419922,84.587891 88.876106,82.049065 92.393316,78.042127 93.5625,72.40625 106.76791,71.237966 113.15212,55.971983 106.46875,46.294922 a 3.0003,3.0003 0 0 0 -2.46094,-1.330078 3.0003,3.0003 0 0 0 -2.47656,4.740234 c 3.80442,5.508542 0.74119,15.248533 -7.580078,16.615234 C 93.594823,56.508178 90.009882,46.863099 78.917969,42.46875 79.472643,41.507899 80.37169,40.407528 81.556641,39.466797 83.592735,37.850343 86.271856,36.75 88,36.75 a 2.0002,2.0002 0 1 0 0,-4 c -3.16014,0 -6.33426,1.523477 -8.929688,3.583984 -1.73283,1.375694 -3.263667,3.010315 -4.101562,4.888672 C 71.813706,40.439167 68.187024,40 64,40 59.812976,40 56.186294,40.439167 53.03125,41.222656 52.193355,39.344299 50.662517,37.709678 48.929688,36.333984 46.33426,34.273477 43.16014,32.75 40,32.75 Z"
       id="path2666"
       inkscape:connector-curvature="0" /><circle
       r="4.3378654"
       cy="66"
       cx="48"
       id="path2673"
       style="opacity:1;vector-effect:none;fill:#373737;fill-opacity:1;fill-rule:nonzero;stroke:none;stroke-width:8;stroke-linecap:butt;stroke-linejoin:round;stroke-miterlimit:4;stroke-dasharray:none;stroke-dashoffset:0;stroke-opacity:1;paint-order:stroke fill markers" /><circle
       style="opacity:1;vector-effect:none;fill:#373737;fill-opacity:1;fill-rule:nonzero;stroke:none;stroke-width:8;stroke-linecap:butt;stroke-linejoin:round;stroke-miterlimit:4;stroke-dasharray:none;stroke-dashoffset:0;stroke-opacity:1;paint-order:stroke fill markers"
       id="circle2690"
       cx="-80"
       cy="66"
       r="4.3378654"
       transform="scale(-1,1)" /></g></svg>
