<?xml version="1.0" encoding="UTF-8" standalone="no"?>
<!-- Created with Inkscape (http://www.inkscape.org/) -->

<svg
   enable-background="new"
   inkscape:export-ydpi="384"
   inkscape:export-xdpi="384"
   inkscape:export-filename="..\app\src\main\res\drawable-nodpi\reset_system.png"
   sodipodi:docname="save_locally.svg"
   inkscape:version="1.3 (0e150ed6c4, 2023-07-21)"
   id="svg8"
   version="1.1"
   viewBox="0 0 128 128"
   height="128"
   width="128"
   xml:space="preserve"
   xmlns:inkscape="http://www.inkscape.org/namespaces/inkscape"
   xmlns:sodipodi="http://sodipodi.sourceforge.net/DTD/sodipodi-0.dtd"
   xmlns="http://www.w3.org/2000/svg"
   xmlns:svg="http://www.w3.org/2000/svg"
   xmlns:rdf="http://www.w3.org/1999/02/22-rdf-syntax-ns#"
   xmlns:cc="http://creativecommons.org/ns#"
   xmlns:dc="http://purl.org/dc/elements/1.1/"><sodipodi:namedview
     id="base"
     pagecolor="#ffffff"
     bordercolor="#666666"
     borderopacity="1.0"
     inkscape:pageopacity="0.0"
     inkscape:pageshadow="2"
     inkscape:zoom="2.8284271"
     inkscape:cx="12.374369"
     inkscape:cy="18.031223"
     inkscape:document-units="px"
     inkscape:current-layer="g2265"
     showgrid="false"
     units="px"
     inkscape:pagecheckerboard="true"
     borderlayer="true"
     gridtolerance="10"
     inkscape:snap-smooth-nodes="true"
     inkscape:snap-text-baseline="true"
     inkscape:snap-page="true"
     showguides="true"
     inkscape:guide-bbox="true"
     inkscape:snap-object-midpoints="true"
     inkscape:snap-center="true"
     inkscape:snap-global="true"
     inkscape:lockguides="false"
     inkscape:snap-bbox="true"
     inkscape:bbox-nodes="true"
     inkscape:showpageshadow="0"
     inkscape:deskcolor="#d1d1d1"
     inkscape:window-width="1852"
     inkscape:window-height="1057"
     inkscape:window-x="60"
     inkscape:window-y="-8"
     inkscape:window-maximized="1"><inkscape:grid
       enabled="false"
       empspacing="4"
       id="grid4131"
       type="xygrid"
       spacingx="8"
       spacingy="8"
       originx="0"
       originy="0"
       units="px"
       visible="false" /><inkscape:grid
       empspacing="4"
       id="grid4167"
       type="xygrid"
       originx="0"
       originy="0"
       spacingy="1"
       spacingx="1"
       units="px"
       visible="false" /></sodipodi:namedview><defs
     id="defs2"><clipPath
       clipPathUnits="userSpaceOnUse"
       id="clipPath19"><path
         id="path20"
         style="color:#000000;fill:#4c4c4c;stroke-linecap:round;stroke-linejoin:round;-inkscape-stroke:none;paint-order:stroke fill markers"
         d="m 63.5,26.289062 c -8.95968,10e-7 -17.914293,0.112115 -24.779297,0.335938 -3.432501,0.111911 -6.337292,0.250268 -8.503906,0.423828 -1.083307,0.08678 -1.972874,0.17942 -2.720703,0.298828 -0.373916,0.05971 -0.706984,0.12159 -1.078125,0.226563 -0.371143,0.104972 -0.745603,0.0034 -1.667969,0.925781 -1.272659,1.272659 -0.983813,1.699586 -1.119141,2.3125 -0.135325,0.612914 -0.232129,1.279558 -0.322265,2.064453 -0.180273,1.569793 -0.318773,3.589013 -0.431641,5.955078 -0.225736,4.732134 -0.337891,10.821487 -0.337891,16.917969 10e-7,6.096482 0.112155,12.185835 0.337891,16.917969 0.112868,2.366065 0.251368,4.385285 0.431641,5.955078 0.09014,0.784895 0.18694,1.451539 0.322265,2.064453 0.135328,0.612914 -0.153518,1.039841 1.119141,2.3125 0.773601,0.773601 1.175684,0.780011 1.533203,0.894531 0.357519,0.11452 0.667998,0.182161 1.005859,0.244141 0.675728,0.12396 1.445514,0.214405 2.369141,0.298828 1.847253,0.168846 4.279147,0.297143 7.144531,0.398438 5.730771,0.202589 13.16782,0.286966 20.615235,0.269531 7.447413,-0.01744 14.896509,-0.136621 20.648437,-0.347657 2.875965,-0.105515 5.320295,-0.23214 7.171875,-0.386718 0.92579,-0.07729 1.697102,-0.159813 2.355469,-0.263672 0.329184,-0.05193 0.627597,-0.107231 0.953125,-0.19336 0.325528,-0.08613 0.628261,-0.07684 1.371094,-0.628906 4.251,-3.159318 9.088237,-8.219893 12.548831,-12.529297 0.76661,-0.954644 0.72795,-1.37825 0.85547,-1.904297 0.12751,-0.526044 0.21787,-1.076226 0.30273,-1.707031 0.16972,-1.261606 0.30124,-2.827024 0.41016,-4.640625 0.21783,-3.627201 0.33676,-8.219993 0.34961,-12.814453 0.0128,-4.594458 -0.079,-9.175672 -0.29102,-12.791015 -0.106,-1.807673 -0.23914,-3.365282 -0.42187,-4.63086 -0.0914,-0.632788 -0.19089,-1.188336 -0.33985,-1.734375 C 103.18307,29.987166 103.22471,29.474708 102.25,28.5 101.32763,27.577636 100.95317,27.679191 100.58203,27.574219 100.21089,27.469246 99.877822,27.407361 99.503906,27.347656 98.756077,27.228248 97.86651,27.135608 96.783203,27.048828 94.616589,26.875268 91.711798,26.736911 88.279297,26.625 86.936112,26.58121 85.456305,26.545 83.96875,26.509766 v 3 C 79.257331,29.397838 73.854905,29.34576 68.324219,29.320312 v -3 C 66.697088,26.312801 65.140262,26.289063 63.5,26.289062 Z" /></clipPath><filter
       style="color-interpolation-filters:sRGB"
       id="filter22"
       inkscape:label="filter1"
       x="-0.018824252"
       y="-0.028829399"
       width="1.0124858"
       height="1.1452986"><feFlood
         id="feFlood22"
         flood-color="rgb(100,100,100)"
         flood-opacity="0.5" /><feComposite
         id="feComposite22"
         in2="SourceAlpha"
         operator="in" /><feOffset
         dx="2"
         dy="4"
         id="feOffset22"
         result="result1" /><feMerge
         id="feMerge22"><feMergeNode
           inkscape:collect="always"
           id="feMergeNode22"
           in="result1" /><feMergeNode
           inkscape:collect="always"
           id="feMergeNode23"
           in="SourceGraphic" /></feMerge></filter></defs><metadata
     id="metadata5"><rdf:RDF><cc:Work
         rdf:about=""><dc:format>image/svg+xml</dc:format><dc:type
           rdf:resource="http://purl.org/dc/dcmitype/StillImage" /></cc:Work></rdf:RDF></metadata><style
     id="style2296">.B{fill:#fc9abf}.C{fill:#ffc7df}.D{fill:#ed84cb}.E{fill-opacity:1}.F{stroke:none}</style><g
     inkscape:groupmode="layer"
     id="g2265"
     inkscape:label="files コピー コピー"
     style="display:inline"><circle
       style="display:inline;opacity:1;vector-effect:none;fill:#ffffff;fill-opacity:1;fill-rule:nonzero;stroke:#646464;stroke-width:4;stroke-linecap:butt;stroke-linejoin:round;stroke-miterlimit:4;stroke-dasharray:none;stroke-dashoffset:0;stroke-opacity:1;paint-order:fill markers stroke"
       id="circle2257"
       cx="64"
       cy="64"
       r="60" /><g
       id="g22"
       style="filter:url(#filter22)"><g
         id="g21"
         transform="matrix(0.82305487,0,0,0.82305487,12.229383,10.855559)"
         style="stroke-width:1.21499"><path
           id="path18"
           style="color:#000000;fill:none;stroke:#373737;stroke-width:9.71989;stroke-linecap:round;stroke-linejoin:round;stroke-dasharray:none;stroke-opacity:1;paint-order:stroke fill markers"
           d="m 63.5,26.289062 c -8.95968,10e-7 -17.914293,0.112115 -24.779297,0.335938 -3.432501,0.111911 -6.337292,0.250268 -8.503906,0.423828 -1.083307,0.08678 -1.972874,0.17942 -2.720703,0.298828 -0.373916,0.05971 -0.706984,0.12159 -1.078125,0.226563 -0.371143,0.104972 -0.745603,0.0034 -1.667969,0.925781 -1.272659,1.272659 -0.983813,1.699586 -1.119141,2.3125 -0.135325,0.612914 -0.232129,1.279558 -0.322265,2.064453 -0.180273,1.569793 -0.318773,3.589013 -0.431641,5.955078 -0.225736,4.732134 -0.337891,10.821487 -0.337891,16.917969 10e-7,6.096482 0.112155,12.185835 0.337891,16.917969 0.112868,2.366065 0.251368,4.385285 0.431641,5.955078 0.09014,0.784895 0.18694,1.451539 0.322265,2.064453 0.135328,0.612914 -0.153518,1.039841 1.119141,2.3125 0.773601,0.773601 1.175684,0.780011 1.533203,0.894531 0.357519,0.11452 0.667998,0.182161 1.005859,0.244141 0.675728,0.12396 1.445514,0.214405 2.369141,0.298828 1.847253,0.168846 4.279147,0.297143 7.144531,0.398438 5.730771,0.202589 13.16782,0.286966 20.615235,0.269531 7.447413,-0.01744 14.896509,-0.136621 20.648437,-0.347657 2.875965,-0.105515 5.320295,-0.23214 7.171875,-0.386718 0.92579,-0.07729 1.697102,-0.159813 2.355469,-0.263672 0.329184,-0.05193 0.627597,-0.107231 0.953125,-0.19336 0.325528,-0.08613 0.628261,-0.07684 1.371094,-0.628906 4.251,-3.159318 9.088237,-8.219893 12.548831,-12.529297 0.76661,-0.954644 0.72795,-1.37825 0.85547,-1.904297 0.12751,-0.526044 0.21787,-1.076226 0.30273,-1.707031 0.16972,-1.261606 0.30124,-2.827024 0.41016,-4.640625 0.21783,-3.627201 0.33676,-8.219993 0.34961,-12.814453 0.0128,-4.594458 -0.079,-9.175672 -0.29102,-12.791015 -0.106,-1.807673 -0.23914,-3.365282 -0.42187,-4.63086 -0.0914,-0.632788 -0.19089,-1.188336 -0.33985,-1.734375 C 103.18307,29.987166 103.22471,29.474708 102.25,28.5 101.32763,27.577636 100.95317,27.679191 100.58203,27.574219 100.21089,27.469246 99.877822,27.407361 99.503906,27.347656 98.756077,27.228248 97.86651,27.135608 96.783203,27.048828 94.616589,26.875268 91.711798,26.736911 88.279297,26.625 86.936112,26.58121 85.456305,26.545 83.96875,26.509766 v 3 C 79.257331,29.397838 73.854905,29.34576 68.324219,29.320312 v -3 C 66.697088,26.312801 65.140262,26.289063 63.5,26.289062 Z" /><g
           inkscape:groupmode="maskhelper"
           id="g19"
           clip-path="url(#clipPath19)"
           style="stroke-width:1.21499"><rect
             style="display:inline;fill:#4c4c4c;fill-opacity:1;stroke:none;stroke-width:4.85994;stroke-linecap:round;stroke-linejoin:round;stroke-dasharray:none;stroke-opacity:1;paint-order:stroke fill markers"
             id="rect20"
             width="92.073288"
             height="67.66494"
             x="19.426716"
             y="23.835062" /><path
             style="fill:none;fill-opacity:1;stroke:#f2f42b;stroke-width:4.85994;stroke-linecap:round;stroke-linejoin:round;stroke-dasharray:none;stroke-opacity:1;paint-order:stroke fill markers"
             d="M 92.032957,34.047978 108,34.538153 m 1.8542,8.383559 -17.506183,-0.167921 m 19.085193,9.051745 -18.756505,0.48444 M 112.26433,60.291796 92.625,60.875"
             id="path19"
             sodipodi:nodetypes="cccccccc" /><path
             style="fill:#373737;stroke-width:4.85994;stroke-linecap:round;stroke-linejoin:round;paint-order:stroke fill markers"
             d="M 56,79.006 C 45.5,79.006 32.415145,78.538976 29.381282,77.625 28.793761,70.8125 28.5,62.40625 28.5,54.40625 c 0,-8 0.293761,-15.59375 0.881282,-20.78125 C 32.386322,33.115672 45.5,32.40625 56,32.40625"
             id="path21" /><path
             style="fill:#646464;fill-opacity:1;stroke-width:4.85994;stroke-linecap:round;stroke-linejoin:round;paint-order:stroke fill markers"
             d="m 56,32.40625 c 10.5,0 25.468589,0.94633 27.679379,1.21875 0.414808,5.1875 0.583324,13.895833 0.563879,22.453125 C 84.223814,64.635416 84.01641,73.041666 83.679379,77.625 81.358993,78.197375 66.5,79.006 56,79.006"
             id="rect21" /></g></g><path
         d="m 78.779029,82.911612 c 0,-1.414214 -5.558058,-2.414214 -10.026069,-2.414214 0,-5.472 -0.211029,-20.39767 -0.307029,-20.58967 -0.096,-0.24 -9.437164,-0.289896 -10.157164,0.574104 -0.144,1.104 0,15.12 0.192,20.4 -4.187989,0 -9.259796,1.145897 -9.259796,2.145897 0,4 14.055329,16.133078 15.015329,16.133078 1.2,0 14.542729,-14.249195 14.542729,-16.249195 z"
         id="text21"
         style="font-weight:900;font-size:48px;line-height:1;font-family:Mikado;-inkscape-font-specification:'Mikado Heavy';font-variant-numeric:lining-nums;font-feature-settings:'cv01', 'cv02';text-align:end;letter-spacing:0px;word-spacing:0px;text-anchor:end;fill:#ff8091;stroke:#d5425d;stroke-width:8;stroke-linecap:round;stroke-linejoin:round;paint-order:stroke fill markers"
         aria-label="↓"
         sodipodi:nodetypes="sccccsss" /></g></g><style
     id="style2296-6">.B{fill:#fc9abf}.C{fill:#ffc7df}.D{fill:#ed84cb}.E{fill-opacity:1}.F{stroke:none}</style></svg>
