<?xml version="1.0" encoding="UTF-8" standalone="no"?>
<!-- Created with Inkscape (http://www.inkscape.org/) -->

<svg
   enable-background="new"
   inkscape:export-ydpi="384"
   inkscape:export-xdpi="384"
   inkscape:export-filename="..\app\src\main\res\drawable-nodpi\scientific_calculator_plus_991.png"
   sodipodi:docname="scientific_calculator_plus_991.svg"
   inkscape:version="1.3 (0e150ed6c4, 2023-07-21)"
   id="svg8"
   version="1.1"
   viewBox="0 0 128 128"
   height="128"
   width="128"
   xml:space="preserve"
   xmlns:inkscape="http://www.inkscape.org/namespaces/inkscape"
   xmlns:sodipodi="http://sodipodi.sourceforge.net/DTD/sodipodi-0.dtd"
   xmlns="http://www.w3.org/2000/svg"
   xmlns:svg="http://www.w3.org/2000/svg"
   xmlns:rdf="http://www.w3.org/1999/02/22-rdf-syntax-ns#"
   xmlns:cc="http://creativecommons.org/ns#"
   xmlns:dc="http://purl.org/dc/elements/1.1/"><sodipodi:namedview
     id="base"
     pagecolor="#ffffff"
     bordercolor="#666666"
     borderopacity="1.0"
     inkscape:pageopacity="0.0"
     inkscape:pageshadow="2"
     inkscape:zoom="2.8284271"
     inkscape:cx="49.320698"
     inkscape:cy="66.821591"
     inkscape:document-units="px"
     inkscape:current-layer="layer1"
     showgrid="false"
     units="px"
     inkscape:pagecheckerboard="true"
     borderlayer="true"
     gridtolerance="10"
     inkscape:snap-smooth-nodes="true"
     inkscape:snap-text-baseline="true"
     inkscape:snap-page="true"
     showguides="true"
     inkscape:guide-bbox="true"
     inkscape:snap-object-midpoints="true"
     inkscape:snap-center="true"
     inkscape:snap-global="true"
     inkscape:lockguides="false"
     inkscape:snap-bbox="true"
     inkscape:bbox-nodes="true"
     inkscape:showpageshadow="0"
     inkscape:deskcolor="#d1d1d1"
     inkscape:window-width="1852"
     inkscape:window-height="1057"
     inkscape:window-x="60"
     inkscape:window-y="-8"
     inkscape:window-maximized="1"><inkscape:grid
       enabled="false"
       empspacing="4"
       id="grid4131"
       type="xygrid"
       spacingx="8"
       spacingy="8"
       originx="0"
       originy="0"
       units="px"
       visible="false" /><inkscape:grid
       empspacing="4"
       id="grid4167"
       type="xygrid"
       originx="0"
       originy="0"
       spacingy="1"
       spacingx="1"
       units="px"
       visible="false" /></sodipodi:namedview><defs
     id="defs2"><filter
       id="filter265"
       inkscape:label="Drop Shadow red"
       style="color-interpolation-filters:sRGB"
       x="-0.023366942"
       y="-0.067125228"
       width="1.0467339"
       height="1.2013757"><feFlood
         id="feFlood264"
         result="flood"
         flood-color="rgb(148,134,169)"
         flood-opacity="1" /><feComposite
         id="feComposite264"
         result="composite1"
         operator="in"
         in2="SourceGraphic"
         in="flood" /><feOffset
         id="feOffset264"
         result="offset"
         dy="2"
         dx="0" /><feComposite
         id="feComposite265"
         result="composite2"
         operator="over"
         in2="offset"
         in="SourceGraphic" /></filter><clipPath
       clipPathUnits="userSpaceOnUse"
       id="clipPath3"><path
         sodipodi:nodetypes="sssss"
         inkscape:connector-curvature="0"
         id="path5"
         d="M 124,64 C 124,97.137085 97.137085,124 64,124 30.862915,124 4,97.137085 4,64 4,30.862915 30.862915,4 64,4 c 33.137085,0 60,26.862915 60,60 z"
         style="display:inline;opacity:1;vector-effect:none;fill:#e2e1dd;fill-opacity:1;fill-rule:nonzero;stroke:#b7b6ab;stroke-width:4;stroke-linecap:butt;stroke-linejoin:round;stroke-miterlimit:4;stroke-dasharray:none;stroke-dashoffset:0;stroke-opacity:1;paint-order:fill markers stroke" /></clipPath></defs><metadata
     id="metadata5"><rdf:RDF><cc:Work
         rdf:about=""><dc:format>image/svg+xml</dc:format><dc:type
           rdf:resource="http://purl.org/dc/dcmitype/StillImage" /></cc:Work></rdf:RDF></metadata><style
     id="style2296">.B{fill:#fc9abf}.C{fill:#ffc7df}.D{fill:#ed84cb}.E{fill-opacity:1}.F{stroke:none}</style><g
     inkscape:groupmode="layer"
     id="layer1"
     inkscape:label="calculator 2"
     style="display:inline"><g
       inkscape:groupmode="maskhelper"
       id="g3"
       clip-path="url(#clipPath3)"><path
         sodipodi:nodetypes="sssss"
         inkscape:connector-curvature="0"
         id="path1777-1"
         d="M 124,64 C 124,97.137085 97.137085,124 64,124 30.862915,124 4,97.137085 4,64 4,30.862915 30.862915,4 64,4 c 33.137085,0 60,26.862915 60,60 z"
         style="display:inline;opacity:1;vector-effect:none;fill:#e2e1dd;fill-opacity:1;fill-rule:nonzero;stroke:#b7b6ab;stroke-width:4;stroke-linecap:butt;stroke-linejoin:round;stroke-miterlimit:4;stroke-dasharray:none;stroke-dashoffset:0;stroke-opacity:1;paint-order:fill markers stroke" /><path
         style="display:inline;opacity:1;vector-effect:none;fill:#b7ed50;fill-opacity:1;fill-rule:nonzero;stroke:#657580;stroke-width:4;stroke-linecap:butt;stroke-linejoin:round;stroke-miterlimit:4;stroke-dasharray:none;stroke-dashoffset:0;stroke-opacity:1;paint-order:normal"
         d="m 64,27.697266 c -7.07834,0 -37.141305,0.428414 -38,1.287109 -1.717389,1.717389 -3.717389,26.313861 -2,28.03125 1.717389,1.717389 78.28261,1.717389 80,0 1.71739,-1.717389 -0.28261,-26.313861 -2,-28.03125 -0.85869,-0.858695 -30.92166,-1.287109 -38,-1.287109 z"
         id="path1840"
         inkscape:connector-curvature="0"
         sodipodi:nodetypes="ssssss" /><path
         style="fill:none;fill-opacity:1;stroke:#b7b6ab;stroke-width:2;stroke-linejoin:round;stroke-dasharray:none;stroke-opacity:1;paint-order:stroke fill markers"
         d="m 16.299996,15 c -5.85022,23.363163 -5.17431,52.061844 -3.35867,61.887408 1.90202,10.292987 8.60612,15.696307 20.11933,16.703582 C 46.038397,94.726395 46.87347,104.70711 64,104.70711 c 17.126524,0 17.961599,-9.980715 30.93934,-11.11612 11.51321,-1.007275 18.21731,-6.410595 20.11933,-16.703582 C 116.87431,67.061844 117.55022,38.363163 111.7,15"
         id="path9"
         sodipodi:nodetypes="csscssc" /><path
         id="path8"
         style="opacity:1;vector-effect:none;fill:#fac5ff;fill-opacity:1;fill-rule:nonzero;stroke:#725999;stroke-width:4;stroke-linecap:butt;stroke-linejoin:round;stroke-miterlimit:4;stroke-dasharray:none;stroke-dashoffset:0;stroke-opacity:1;paint-order:normal;filter:url(#filter265)"
         d="m 31.420144,66.204943 c 4.493462,0 8.46297,1.849779 10.505136,4.401186 -1.864624,2.570648 -3.455614,8.498725 -2.718599,12.79985 -1.544384,0.721103 -3.492659,1.124351 -5.886187,1.124351 -7.535248,0 -12.115998,-4.201537 -12.115998,-9.53033 0,-5.328792 2.88856,-8.795057 10.215648,-8.795057 z M 64,68 c -11,0 -16,6 -16,14 0,8 4.6875,14 16,14 11.3125,0 16,-6 16,-14 0,-8 -5,-14 -16,-14 z m 32.579852,-1.795057 c -4.493462,0 -8.46297,1.849779 -10.505136,4.401186 1.864624,2.570648 3.455614,8.498725 2.718599,12.79985 1.544384,0.721103 3.492659,1.124351 5.886187,1.124351 7.535248,0 12.115998,-4.201537 12.115998,-9.53033 0,-5.328792 -2.88856,-8.795057 -10.215648,-8.795057 z" /><path
         id="path11"
         style="fill:#4b4944;fill-opacity:1;stroke:#3b3528;stroke-width:2;stroke-linejoin:round;stroke-opacity:1;paint-order:fill markers stroke"
         d="m 33.101043,103.08013 c 0,3.94584 -3.581722,6 -8,6 -4.418278,0 -8,-2.05416 -8,-6 0,-3.71708 2,-5.05417 8,-5.05417 6,0 8,1 8,5.05417 z"
         sodipodi:nodetypes="sssss" /><path
         id="path12"
         style="fill:#4b4944;fill-opacity:1;stroke:#3b3528;stroke-width:2;stroke-linejoin:round;stroke-opacity:1;paint-order:fill markers stroke"
         d="m 111.10104,103.08013 c 0,3.94584 -3.58172,6 -8,6 -4.41827,0 -8,-2.05416 -8,-6 0,-3.71708 2,-5.05417 8,-5.05417 6,0 8,1 8,5.05417 z"
         sodipodi:nodetypes="sssss" /><path
         id="path14"
         style="fill:#4b4944;fill-opacity:1;stroke:#3b3528;stroke-width:2;stroke-linejoin:round;stroke-opacity:1;paint-order:fill markers stroke"
         d="m 51.601042,116.08013 c 0,3.94584 -3.581722,6 -8,6 -4.418278,0 -8,-2.05416 -8,-6 0,-3.71708 2,-5.05417 8,-5.05417 6,0 8,1 8,5.05417 z"
         sodipodi:nodetypes="sssss" /><path
         id="path15"
         style="fill:#4b4944;fill-opacity:1;stroke:#3b3528;stroke-width:2;stroke-linejoin:round;stroke-opacity:1;paint-order:fill markers stroke"
         d="m 72.101042,116.08013 c 0,3.94584 -3.58172,6 -8,6 -4.41827,0 -8,-2.05416 -8,-6 0,-3.71708 2,-5.05417 8,-5.05417 6,0 8,1 8,5.05417 z"
         sodipodi:nodetypes="sssss" /><path
         id="path16"
         style="fill:#4b4944;fill-opacity:1;stroke:#3b3528;stroke-width:2;stroke-linejoin:round;stroke-opacity:1;paint-order:fill markers stroke"
         d="m 92.601041,116.08013 c 0,3.94584 -3.58172,6 -8,6 -4.41827,0 -8,-2.05416 -8,-6 0,-3.71708 2,-5.05417 8,-5.05417 6,0 8,1 8,5.05417 z"
         sodipodi:nodetypes="sssss" /></g><path
       sodipodi:nodetypes="sssss"
       inkscape:connector-curvature="0"
       id="path2"
       d="M 124,64 C 124,97.137085 97.137085,124 64,124 30.862915,124 4,97.137085 4,64 4,30.862915 30.862915,4 64,4 c 33.137085,0 60,26.862915 60,60 z"
       style="display:inline;opacity:1;vector-effect:none;fill:none;fill-opacity:1;fill-rule:nonzero;stroke:#b7b6ab;stroke-width:4;stroke-linecap:butt;stroke-linejoin:round;stroke-miterlimit:4;stroke-dasharray:none;stroke-dashoffset:0;stroke-opacity:1;paint-order:fill markers stroke" /><path
       d="m 33.632408,48.509547 c -0.580655,2.774045 -2.204299,3.193784 -3.004965,2.660118 -0.469632,0.486163 -0.657208,1.462443 -0.616746,1.849672 2.279469,1.233508 4.701505,-0.816357 5.292678,-4.169063 0.650154,-3.687204 1.319601,-9.873308 1.776049,-12.17441 0.461261,-2.325368 1.154765,-2.954118 2.779087,-2.406153 0.289101,-0.342612 0.449699,-1.007782 0.41688,-1.65171 -0.419436,-0.101335 -0.894563,-0.166 -1.423936,-0.166051 -2.502244,-2.37e-4 -3.304178,1.987036 -3.644355,4.127316 -0.344381,2.166729 -0.851987,8.4776 -1.574692,11.930281 z"
       id="text16"
       style="font-weight:500;font-size:24px;line-height:1;font-family:Mikado;-inkscape-font-specification:'Mikado, Medium';font-variant-numeric:lining-nums;text-align:center;letter-spacing:0px;word-spacing:0px;text-anchor:middle;fill:#4a5438;stroke-width:2;stroke-linejoin:round;paint-order:fill markers stroke"
       aria-label="jf"
       sodipodi:nodetypes="sccssccsss" /><path
       d="m 39.431896,54.143765 c 1.611224,0 2.464789,-1.265962 2.464789,-3.423851 0,-2.503152 -1.054968,-3.54853 -2.522333,-3.54853 -1.496137,0 -2.455199,1.102921 -2.455199,3.519758 0,2.292158 0.815203,3.452623 2.512743,3.452623 z m -0.04795,-1.102921 c -0.901518,0 -1.265961,-0.863156 -1.265961,-2.292159 0,-1.524908 0.383624,-2.407245 1.265961,-2.407245 0.882337,0 1.246781,0.911109 1.246781,2.436017 0,1.438593 -0.364444,2.263387 -1.246781,2.263387 z"
       id="path22"
       style="font-weight:500;font-size:9.59062px;line-height:1;font-family:Mikado;-inkscape-font-specification:'Mikado, Medium';font-variant-numeric:lining-nums;text-align:center;letter-spacing:0px;word-spacing:0px;text-anchor:middle;fill:#4a5438;stroke-width:2;stroke-linejoin:round;paint-order:fill markers stroke" /><path
       style="font-style:italic;font-weight:500;font-size:9.59062px;line-height:1;font-family:Mikado;-inkscape-font-specification:'Mikado Medium Italic';font-variant-numeric:lining-nums;text-align:center;letter-spacing:0px;word-spacing:0px;text-anchor:middle;fill:#4a5438;stroke-width:2;stroke-linejoin:round;paint-order:fill markers stroke"
       d="m 46.124113,33.3157 c 0.134268,-0.431578 0.172631,-0.891927 0.15345,-1.007015 -0.05754,-0.05754 -3.040227,-0.09591 -3.71157,-0.06713 -0.978244,0.04795 -1.102922,0.201403 -1.102922,0.201403 0,0 -0.16304,0.556256 0.0096,0.939881 0.210994,0 0.46035,-0.0096 0.671343,-0.0096 -0.239765,1.371459 -0.604209,3.471804 -0.594618,3.481395 0.0096,0.05754 1.08374,0.08632 1.112512,0.03836 0.02877,-0.02877 0.46994,-2.445609 0.661753,-3.529349 l 1.08374,-0.01918 c -0.201403,1.064559 -0.680934,3.625255 -0.652163,3.644436 0.01918,0.01918 1.112512,0.05754 1.141284,-0.04795 0.09591,-0.383625 0.508303,-2.61824 0.700116,-3.615664 0.172631,0 0.345262,-0.0096 0.527484,-0.0096 z"
       id="path23" /><path
       id="path27"
       style="font-style:italic;font-weight:500;font-size:9.59062px;line-height:1;font-family:Mikado;-inkscape-font-specification:'Mikado Medium Italic';font-variant-numeric:lining-nums;text-align:center;letter-spacing:0px;word-spacing:0px;text-anchor:middle;fill:#4a5438;stroke-width:2;stroke-linejoin:round;paint-order:fill markers stroke"
       d="m 75.120875,39.517953 c -0.0096,0.06713 1.093331,0.210994 1.170056,0.210994 0.03836,0 0.968652,-1.352278 1.24678,-1.707131 0.134269,0.316491 0.537075,1.716721 0.623391,1.735903 0.09591,0 1.045377,-0.14386 1.074149,-0.210994 0.01918,-0.09591 -0.546665,-1.611224 -0.767249,-2.272977 0.517893,-0.62339 1.515317,-1.975668 1.592042,-2.16748 0.0096,-0.04795 -1.074149,-0.230175 -1.150874,-0.201403 -0.06713,0.01918 -1.074149,1.429002 -1.246781,1.678358 -0.105496,-0.306899 -0.527484,-1.668768 -0.613799,-1.668768 -0.115088,0 -1.054968,0.14386 -1.054968,0.210994 0,0.182222 0.585027,1.601634 0.805612,2.196252 -0.594619,0.700115 -1.601634,2.033212 -1.678359,2.196252 z m -10.738904,0.278128 c 1.256371,0 1.841399,-0.671343 1.841399,-1.515318 0,-0.834384 -0.556256,-1.218009 -1.630405,-1.371459 -0.690525,-0.09591 -0.891928,-0.230174 -0.891928,-0.527484 0,-0.258946 0.210994,-0.508303 0.719297,-0.508303 0.62339,0 1.179646,0.393216 1.218008,0.383625 0.06714,0 0.441169,-0.805612 0.374034,-0.863156 -0.143859,-0.153449 -0.796021,-0.450759 -1.678358,-0.450759 -1.122103,0 -1.803037,0.565847 -1.803037,1.515318 0,0.786431 0.508303,1.198828 1.611225,1.39064 0.680934,0.115088 0.901518,0.249356 0.901518,0.556256 0,0.287719 -0.258947,0.489122 -0.76725,0.489122 -0.632981,0 -1.198827,-0.431578 -1.342687,-0.537075 -0.05754,-0.04795 -0.479531,0.757659 -0.412396,0.834384 0.143859,0.191812 0.93029,0.604209 1.86058,0.604209 z m 2.733317,-4.776129 c -0.06713,0.105497 0.03836,4.603498 0.04795,4.63227 0.01918,0.02877 1.054968,0.05754 1.09333,-0.0096 0.03836,-0.06713 0.07673,-4.593907 0.03836,-4.622679 -0.03836,-0.03836 -1.131693,-0.07672 -1.179647,0 z M 66.99061,33.456681 c 0,0.441169 0.287719,0.690525 0.719297,0.690525 0.441168,0 0.748068,-0.287719 0.748068,-0.642572 0,-0.508303 -0.3069,-0.805612 -0.748068,-0.805612 -0.594619,0 -0.719297,0.316491 -0.719297,0.757659 z m 2.522332,1.668768 c -0.01918,2.00444 -0.0096,4.430867 0,4.469229 0.02877,0.05754 1.112512,0.08632 1.131693,0.03836 0.02877,-0.02877 0.04795,-2.301749 0.04795,-2.675783 0,-0.46035 0.393216,-0.939881 1.035787,-0.939881 0.6138,0 0.9207,0.441168 0.9207,1.035787 0,0.374034 -0.06714,2.656602 -0.01918,2.675783 0.02877,0.01918 1.122103,0.05754 1.131694,-0.04795 0.03836,-0.489122 0.07672,-2.119527 0.07672,-2.723736 0,-1.23719 -0.700116,-2.014031 -1.707131,-2.014031 -0.709706,0 -1.275552,0.374035 -1.467365,0.709706 0.0096,-0.06713 0.01918,-0.402806 0.01918,-0.594618 -0.06714,-0.08632 -1.102922,-0.03836 -1.170056,0.06713 z m -13.15575,4.392504 c -0.0096,0.06713 1.09333,0.210994 1.170055,0.210994 0.03836,0 0.968653,-1.352278 1.246781,-1.707131 0.134269,0.316491 0.537075,1.716721 0.62339,1.735903 0.09591,0 1.045378,-0.14386 1.07415,-0.210994 0.01918,-0.09591 -0.546666,-1.611224 -0.76725,-2.272977 0.517894,-0.62339 1.515318,-1.975668 1.592043,-2.16748 0.0096,-0.04795 -1.074149,-0.230175 -1.150874,-0.201403 -0.06713,0.01918 -1.07415,1.429002 -1.246781,1.678358 -0.105497,-0.306899 -0.527484,-1.668768 -0.6138,-1.668768 -0.115087,0 -1.054968,0.14386 -1.054968,0.210994 0,0.182222 0.585028,1.601634 0.805612,2.196252 -0.594618,0.700115 -1.601633,2.033212 -1.678358,2.196252 z m -3.570286,-0.997424 c 1.352277,-1.457775 2.455198,-2.512743 2.455198,-3.759523 0,-1.2276 -0.824793,-1.927715 -2.071574,-1.927715 -1.333096,0 -1.994849,0.843975 -2.033211,0.987834 -0.03836,0.143859 0.489122,0.767249 0.671343,0.843974 0.134269,-0.172631 0.489122,-0.632981 1.160465,-0.632981 0.690525,0 0.959062,0.431578 0.959062,0.9207 0,1.007015 -1.333096,2.061983 -2.858004,3.778704 -0.02877,0.163041 0.115087,0.911109 0.16304,0.93029 0.05754,0.02877 3.692389,0.0096 3.884201,0 0.08632,0 0.134269,-1.074149 0.02877,-1.150874 l -2.340111,0.02877 z" /><path
       style="font-weight:500;font-size:9.59062px;line-height:1;font-family:Mikado;-inkscape-font-specification:'Mikado Medium';font-variant-numeric:lining-nums;text-align:center;letter-spacing:0px;word-spacing:0px;text-anchor:middle;fill:#4a5438;stroke-width:2.00001;stroke-linejoin:round;paint-order:fill markers stroke"
       d="m 46.420375,44.207666 c 0.02428,0.07284 38.20127,-0.08957 38.239659,-0.08957 0.02559,0 0.08957,-1.036487 0.06398,-1.087673 -0.02559,-0.07677 -38.265252,0.03839 -38.30364,0.05118 -0.03839,0.02559 -0.02428,1.053221 0,1.12606 z"
       id="path28"
       sodipodi:nodetypes="ssccss" /><path
       style="font-style:italic;font-weight:500;font-size:9.59062px;line-height:1;font-family:Mikado;-inkscape-font-specification:'Mikado Medium Italic';font-variant-numeric:lining-nums;text-align:center;letter-spacing:0px;word-spacing:0px;text-anchor:middle;fill:#4a5438;stroke-width:2;stroke-linejoin:round;paint-order:fill markers stroke"
       d="m 89.464927,45.792884 c 0.07672,0.335672 0.278128,0.642572 0.700115,0.642572 0.172631,0 0.450759,-0.01918 0.604209,-0.134269 0.115087,-0.08631 0.230175,-0.997424 0.191812,-1.016606 -0.05754,0.01918 -0.16304,0.05754 -0.239765,0.05754 -0.08632,0 -0.163041,-0.05754 -0.14386,-0.201403 0.191813,-1.179646 1.045378,-5.927003 1.035787,-5.927003 -0.134268,-0.08632 -1.179646,-0.05754 -1.218008,0.03836 -0.02877,0.04795 -0.546666,2.973093 -0.565847,3.107361 -0.15345,-0.306899 -0.556256,-0.62339 -1.170056,-0.62339 -1.074149,0 -2.148298,1.122103 -2.148298,2.790871 0,1.198827 0.642571,1.908533 1.630405,1.908533 0.537075,0 1.045378,-0.268537 1.323506,-0.642572 z m -1.764675,-1.361868 c 0,-0.824793 0.479531,-1.611224 1.198828,-1.611224 0.431578,0 0.738478,0.297309 0.738478,0.882337 0,0.77684 -0.421988,1.649587 -1.170056,1.649587 -0.431578,0 -0.76725,-0.230175 -0.76725,-0.9207 z m 3.519767,1.822218 c -0.0096,0.06713 1.093331,0.210994 1.170056,0.210994 0.03836,0 0.968653,-1.352278 1.246781,-1.707131 0.134268,0.316491 0.537074,1.716721 0.62339,1.735903 0.09591,0 1.045377,-0.14386 1.074149,-0.210994 0.01918,-0.09591 -0.546665,-1.611224 -0.767249,-2.272977 0.517893,-0.62339 1.515318,-1.975668 1.592043,-2.16748 0.0096,-0.04795 -1.07415,-0.230175 -1.150875,-0.201403 -0.06713,0.01918 -1.074149,1.429002 -1.24678,1.678358 -0.105497,-0.306899 -0.527484,-1.668768 -0.6138,-1.668768 -0.115087,0 -1.054968,0.14386 -1.054968,0.210994 0,0.182222 0.585028,1.601634 0.805612,2.196252 -0.594619,0.700115 -1.601634,2.033212 -1.678359,2.196252 z"
       id="path29" /><path
       id="path31"
       style="font-style:italic;font-weight:500;font-size:9.59062px;line-height:1;font-family:Mikado;-inkscape-font-specification:'Mikado Medium Italic';font-variant-numeric:lining-nums;text-align:center;letter-spacing:0px;word-spacing:0px;text-anchor:middle;fill:#4a5438;stroke-width:2;stroke-linejoin:round;paint-order:fill markers stroke"
       d="m 79.563858,52.952982 c -0.01,0.06713 1.09333,0.210994 1.17006,0.210994 0.0384,0 0.96865,-1.352278 1.24678,-1.707131 0.13427,0.316491 0.53707,1.716721 0.62339,1.735903 0.0959,0 1.04537,-0.14386 1.07415,-0.210994 0.0192,-0.09591 -0.54667,-1.611224 -0.76725,-2.272977 0.51789,-0.62339 1.51531,-1.975668 1.59204,-2.16748 0.01,-0.04795 -1.07415,-0.230175 -1.15087,-0.201403 -0.0671,0.01918 -1.07415,1.429002 -1.24679,1.678358 -0.10549,-0.306899 -0.52748,-1.668768 -0.61379,-1.668768 -0.11509,0 -1.05497,0.14386 -1.05497,0.210994 0,0.182222 0.58502,1.601634 0.80561,2.196252 -0.59462,0.700115 -1.60163,2.033212 -1.67836,2.196252 z m -29.58187,-3.308764 c 0.27812,-0.134268 0.85356,-0.642571 0.85356,-1.515318 0,-1.150874 -0.88234,-1.86058 -2.10034,-1.86058 -1.04538,0 -1.69754,0.46994 -2.01403,0.843975 0.10549,0.153449 0.54666,0.738477 0.70011,0.757658 0.23018,-0.230174 0.58503,-0.498712 1.16047,-0.498712 0.54666,0 1.03578,0.326081 1.03578,0.93029 0,0.690525 -0.59462,0.882337 -0.93988,0.882337 -0.34526,0 -0.83438,-0.01918 -1.06456,-0.01918 -0.11508,0.08632 -0.0959,0.911109 -0.01,1.035787 h 0.96865 c 0.80562,0 1.19883,0.383625 1.19883,0.939881 0,0.565847 -0.43158,0.968653 -1.17964,0.968653 -0.65217,0 -1.12211,-0.268538 -1.36187,-0.479531 -0.22059,0.09591 -0.63298,0.738477 -0.60421,0.853565 0.23976,0.268537 1.0166,0.719296 2.10034,0.719296 1.23719,0 2.31134,-0.680934 2.31134,-1.956486 0,-1.07415 -0.75765,-1.467365 -1.05496,-1.54409 z m 4.78314,2.982683 c 0.0288,0.105497 0.68093,0.02877 0.70011,0 0.0192,-0.02877 0.01,-1.927715 0.0576,-1.956486 0.048,-0.01918 1.72631,-0.08632 1.77426,-0.124679 0.048,-0.02877 0.0384,-0.671343 0.0384,-0.671343 h -1.87976 v -1.831808 c -0.25894,-0.04795 -0.46994,-0.06714 -0.73848,-0.0096 v 1.908533 l -1.87017,0.01918 c -0.0192,0 0.0192,0.652162 0.0671,0.690524 0.048,0.03836 1.75508,-0.03836 1.77426,-0.01918 0.0192,0.0096 0.0575,1.889352 0.0767,1.994849 z m 5.50243,-1.793446 c 0,-0.882337 0.5083,-1.352277 1.25637,-1.352277 0.60421,0 1.09333,0.431578 1.17005,0.421987 0.13427,-0.03836 0.37404,-0.863156 0.34527,-0.968653 -0.0192,-0.105497 -0.62339,-0.527484 -1.60164,-0.527484 -1.51532,0 -2.35929,1.189237 -2.35929,2.368883 0,1.189237 0.66175,2.436018 2.37847,2.436018 0.7193,0 1.32351,-0.335672 1.58246,-0.709706 -0.12468,-0.268537 -0.39322,-0.76725 -0.46994,-0.728887 -0.13427,0.07672 -0.56585,0.383625 -1.07415,0.383625 -0.44117,0 -1.2276,-0.220585 -1.2276,-1.323506 z m 6.77097,0 c 0,0.834384 -0.4124,1.313915 -1.20842,1.304324 -0.58503,0 -1.1221,-0.441168 -1.1221,-1.304324 0,-0.748068 0.39321,-1.285143 1.19883,-1.275552 0.59461,0.0096 1.13169,0.297309 1.13169,1.275552 z m -1.17965,-2.426427 c -1.45777,0 -2.30175,1.160465 -2.30175,2.340112 0,1.544089 1.00702,2.455198 2.32093,2.455198 1.48655,-0.02877 2.32093,-1.08374 2.32093,-2.359292 0,-1.563271 -1.0166,-2.436018 -2.34011,-2.436018 z m 4.90081,4.824082 c 1.25637,0 1.8414,-0.671343 1.8414,-1.515318 0,-0.834384 -0.55626,-1.218009 -1.63041,-1.371459 -0.69052,-0.09591 -0.89193,-0.230174 -0.89193,-0.527484 0,-0.258946 0.211,-0.508303 0.7193,-0.508303 0.62339,0 1.17965,0.393216 1.21801,0.383625 0.0671,0 0.44117,-0.805612 0.37403,-0.863156 -0.14386,-0.153449 -0.79602,-0.450759 -1.67836,-0.450759 -1.1221,0 -1.80303,0.565847 -1.80303,1.515318 0,0.786431 0.5083,1.198828 1.61122,1.39064 0.68094,0.115088 0.90152,0.249356 0.90152,0.556256 0,0.287719 -0.25895,0.489122 -0.76725,0.489122 -0.63298,0 -1.19883,-0.431578 -1.34269,-0.537075 -0.0575,-0.04795 -0.47953,0.757659 -0.41239,0.834384 0.14386,0.191812 0.93029,0.604209 1.86058,0.604209 z m 5.23389,-1.275552 c 1.35228,-1.457775 2.4552,-2.512743 2.4552,-3.759523 0,-1.2276 -0.82479,-1.927715 -2.07158,-1.927715 -1.33309,0 -1.99484,0.843975 -2.03321,0.987834 -0.0384,0.143859 0.48912,0.767249 0.67135,0.843974 0.13427,-0.172631 0.48912,-0.632981 1.16046,-0.632981 0.69053,0 0.95906,0.431578 0.95906,0.9207 0,1.007015 -1.33309,2.061983 -2.858,3.778704 -0.0288,0.163041 0.11509,0.911109 0.16304,0.93029 0.0575,0.02877 3.69239,0.0096 3.8842,0 0.0863,0 0.13427,-1.074149 0.0288,-1.150874 l -2.34011,0.02877 z"
       sodipodi:nodetypes="cscccccccsscccssccsssccsssccssccccccccccccccccssccsssccssscscssscsssscssccsscssccscssccsscccccc" /></g></svg>
