<?xml version="1.0" encoding="UTF-8" standalone="no"?>
<!-- Created with Inkscape (http://www.inkscape.org/) -->

<svg
   width="128"
   height="128"
   enable-background="new"
   version="1.1"
   viewBox="0 0 128 128"
   xml:space="preserve"
   id="svg4"
   sodipodi:docname="scoop.svg"
   inkscape:version="1.3.2 (091e20ef0f, 2023-11-25)"
   xmlns:inkscape="http://www.inkscape.org/namespaces/inkscape"
   xmlns:sodipodi="http://sodipodi.sourceforge.net/DTD/sodipodi-0.dtd"
   xmlns="http://www.w3.org/2000/svg"
   xmlns:svg="http://www.w3.org/2000/svg"
   xmlns:rdf="http://www.w3.org/1999/02/22-rdf-syntax-ns#"
   xmlns:cc="http://creativecommons.org/ns#"
   xmlns:dc="http://purl.org/dc/elements/1.1/"><defs
     id="defs4" /><sodipodi:namedview
     id="namedview4"
     pagecolor="#505050"
     bordercolor="#ffffff"
     borderopacity="1"
     inkscape:showpageshadow="0"
     inkscape:pageopacity="0"
     inkscape:pagecheckerboard="1"
     inkscape:deskcolor="#d1d1d1"
     inkscape:zoom="4.5462007"
     inkscape:cx="63.789529"
     inkscape:cy="41.133248"
     inkscape:window-width="1422"
     inkscape:window-height="1038"
     inkscape:window-x="0"
     inkscape:window-y="0"
     inkscape:window-maximized="0"
     inkscape:current-layer="svg4" /><metadata
     id="metadata1"><rdf:RDF><cc:Work
         rdf:about=""><dc:format>image/svg+xml</dc:format><dc:type
           rdf:resource="http://purl.org/dc/dcmitype/StillImage" /></cc:Work></rdf:RDF></metadata><style
     id="style1">.B{fill:#fc9abf}.C{fill:#ffc7df}.D{fill:#ed84cb}.E{fill-opacity:1}.F{stroke:none}</style><circle
     cx="64"
     cy="64"
     r="60"
     fill="#40bfb3"
     stroke="#2c737f"
     stroke-linejoin="round"
     stroke-width="4"
     style="paint-order:fill markers stroke"
     id="circle1" /><path
     d="m54 72c-1.2989 0.30107-1.4142 4.5858 0 6 5.6569 5.6569 18.343 5.6569 24 0 1.4142-1.4142 1.3135-5.7708 0-6-8-1.3962-16-1.8543-24 0zm0-14c-1.4142 1.4142-1.2867 5.6503 0 6 6.7387 1.8316 14.312 2.4511 24 0 1.2926-0.32703 1.4142-4.5858 0-6-5.6569-5.6569-18.343-5.6569-24 0zm-3.1751-34.321c3.0641-0.037893 6.6751 6.321 6.6751 6.321 3.6833-2.8891 13.506-3.0318 17 0 0 0 3.3693-6.2986 6.3796-6.3992 3.3459-0.11174 7.3965 3.2794 7.5496 6.6237 0.14232 3.1102-6.4291 6.7755-6.4291 6.7755 4.144 3.7774 4.9973 7.2047 6 11 0 0 10.7-3.2998 14 0 1.8856 1.8856 1.8856 6.1144 0 8-2.8284 2.8284-12 0-12 0l1 8s8.4073-2.5927 11 0c1.8856 1.8856 1.8856 6.1144 0 8-2.5927 2.5927-11 0-11 0l-1 8s9.1716-2.8284 12 0c1.8856 1.8856 1.8856 6.1144 0 8-3.2998 3.2998-14 0-14 0-10.272 26.971-32.762 26.64-44 0 0 0-10.7 3.2998-14 0-1.8856-1.8856-1.8856-6.1144 0-8 2.8284-2.8284 12 0 12 0l-1-8s-8.4073 2.5927-11 0c-1.8856-1.8856-1.8856-6.1144 0-8 2.5927-2.5927 11 0 11 0l1-8s-9.1716 2.8284-12 0c-1.8856-1.8856-1.8856-6.1144 0-8 3.2998-3.2998 14 0 14 0 1.6158-4.1085 3.1242-8.3407 6-11 0 0-6.4865-3.027-6.5496-5.9834-0.07393-3.4669 3.9071-7.2948 7.3745-7.3377z"
     fill="#2c737f"
     fill-rule="evenodd"
     opacity=".5"
     stroke="#2c737f"
     stroke-linecap="round"
     stroke-linejoin="round"
     stroke-miterlimit="3.9"
     stroke-width="4"
     id="path1" /><path
     d="m52 68c-1.2989 0.30107-1.4142 4.5858 0 6 5.6569 5.6569 18.343 5.6569 24 0 1.4142-1.4142 1.3135-5.7708 0-6-8-1.3962-16-1.8543-24 0zm0-14c-1.4142 1.4142-1.2867 5.6503 0 6 6.7387 1.8316 14.312 2.4511 24 0 1.2926-0.32703 1.4142-4.5858 0-6-5.6569-5.6569-18.343-5.6569-24 0zm-3.1751-34.321c3.0641-0.037893 6.6751 6.321 6.6751 6.321 3.6833-2.8891 13.506-3.0318 17 0 0 0 3.3693-6.2986 6.3796-6.3992 3.3459-0.11174 7.3965 3.2794 7.5496 6.6237 0.14232 3.1102-6.4291 6.7755-6.4291 6.7755 4.144 3.7774 4.9973 7.2047 6 11 0 0 10.7-3.2998 14 0 1.8856 1.8856 1.8856 6.1144 0 8-2.8284 2.8284-12 0-12 0l1 8s8.4073-2.5927 11 0c1.8856 1.8856 1.8856 6.1144 0 8-2.5927 2.5927-11 0-11 0l-1 8s9.1716-2.8284 12 0c1.8856 1.8856 1.8856 6.1144 0 8-3.2998 3.2998-14 0-14 0-10.272 26.971-32.762 26.64-44 0 0 0-10.7 3.2998-14 0-1.8856-1.8856-1.8856-6.1144 0-8 2.8284-2.8284 12 0 12 0l-1-8s-8.4073 2.5927-11 0c-1.8856-1.8856-1.8856-6.1144 0-8 2.5927-2.5927 11 0 11 0l1-8s-9.1716 2.8284-12 0c-1.8856-1.8856-1.8856-6.1144 0-8 3.2998-3.2998 14 0 14 0 1.6158-4.1085 3.1242-8.3407 6-11 0 0-6.4865-3.027-6.5496-5.9834-0.07393-3.4669 3.9071-7.2948 7.3745-7.3377z"
     fill="#fff"
     fill-rule="evenodd"
     stroke="#2c737f"
     stroke-linecap="round"
     stroke-linejoin="round"
     stroke-miterlimit="3.9"
     stroke-width="4"
     id="path2" /></svg>
