<?xml version="1.0" encoding="UTF-8" standalone="no"?>
<!-- Created with Inkscape (http://www.inkscape.org/) -->

<svg
   enable-background="new"
   inkscape:export-ydpi="384"
   inkscape:export-xdpi="384"
   inkscape:export-filename="..\app\src\main\res\drawable-nodpi\sd_maid_se.png"
   sodipodi:docname="sd_maid_se.svg"
   inkscape:version="1.3 (0e150ed6c4, 2023-07-21)"
   id="svg8"
   version="1.1"
   viewBox="0 0 128 128"
   height="128"
   width="128"
   xml:space="preserve"
   xmlns:inkscape="http://www.inkscape.org/namespaces/inkscape"
   xmlns:sodipodi="http://sodipodi.sourceforge.net/DTD/sodipodi-0.dtd"
   xmlns:xlink="http://www.w3.org/1999/xlink"
   xmlns="http://www.w3.org/2000/svg"
   xmlns:svg="http://www.w3.org/2000/svg"
   xmlns:rdf="http://www.w3.org/1999/02/22-rdf-syntax-ns#"
   xmlns:cc="http://creativecommons.org/ns#"
   xmlns:dc="http://purl.org/dc/elements/1.1/"><sodipodi:namedview
     id="base"
     pagecolor="#ffffff"
     bordercolor="#666666"
     borderopacity="1.0"
     inkscape:pageopacity="0.0"
     inkscape:pageshadow="2"
     inkscape:zoom="4"
     inkscape:cx="51"
     inkscape:cy="78.5"
     inkscape:document-units="px"
     inkscape:current-layer="g4451"
     showgrid="true"
     units="px"
     inkscape:pagecheckerboard="true"
     borderlayer="true"
     gridtolerance="10"
     inkscape:snap-smooth-nodes="true"
     inkscape:snap-text-baseline="true"
     inkscape:snap-page="true"
     showguides="true"
     inkscape:guide-bbox="true"
     inkscape:snap-object-midpoints="true"
     inkscape:snap-center="true"
     inkscape:snap-global="true"
     inkscape:lockguides="false"
     inkscape:snap-bbox="true"
     inkscape:bbox-nodes="true"
     inkscape:showpageshadow="0"
     inkscape:deskcolor="#d1d1d1"
     inkscape:window-width="1858"
     inkscape:window-height="1057"
     inkscape:window-x="54"
     inkscape:window-y="-8"
     inkscape:window-maximized="1"><inkscape:grid
       enabled="false"
       empspacing="4"
       id="grid4131"
       type="xygrid"
       spacingx="8"
       spacingy="8"
       originx="0"
       originy="0"
       units="px"
       visible="true" /><inkscape:grid
       empspacing="4"
       id="grid4167"
       type="xygrid"
       originx="0"
       originy="0"
       spacingy="1"
       spacingx="1"
       units="px"
       visible="true" /></sodipodi:namedview><defs
     id="defs2"><clipPath
       clipPathUnits="userSpaceOnUse"
       id="clipPath3287-3"><circle
         r="60"
         cy="64"
         cx="64"
         id="circle3289-8"
         style="display:inline;opacity:1;vector-effect:none;fill:none;fill-opacity:1;fill-rule:nonzero;stroke:#373737;stroke-width:4;stroke-linecap:butt;stroke-linejoin:round;stroke-miterlimit:4;stroke-dasharray:none;stroke-dashoffset:0;stroke-opacity:1;paint-order:fill markers stroke" /></clipPath><filter
       id="filter265-30"
       inkscape:label="Drop Shadow red"
       style="color-interpolation-filters:sRGB"
       x="-0.025577214"
       y="-0.050826162"
       width="1.1023117"
       height="1.152486"><feFlood
         id="feFlood264-475"
         result="flood"
         flood-color="rgb(91,147,35)"
         flood-opacity="0.498039" /><feComposite
         id="feComposite264-99"
         result="composite1"
         operator="in"
         in2="SourceGraphic"
         in="flood" /><feOffset
         id="feOffset264-5"
         result="offset"
         dy="4"
         dx="2" /><feComposite
         id="feComposite265-6"
         result="composite2"
         operator="over"
         in2="offset"
         in="SourceGraphic" /></filter><clipPath
       clipPathUnits="userSpaceOnUse"
       id="clipPath19"><circle
         r="60"
         cy="64"
         cx="64"
         id="circle20"
         style="display:inline;opacity:1;vector-effect:none;fill:none;fill-opacity:1;fill-rule:nonzero;stroke:#373737;stroke-width:4;stroke-linecap:butt;stroke-linejoin:round;stroke-miterlimit:4;stroke-dasharray:none;stroke-dashoffset:0;stroke-opacity:1;paint-order:fill markers stroke" /></clipPath></defs><metadata
     id="metadata5"><rdf:RDF><cc:Work
         rdf:about=""><dc:format>image/svg+xml</dc:format><dc:type
           rdf:resource="http://purl.org/dc/dcmitype/StillImage" /></cc:Work></rdf:RDF></metadata><style
     id="style2296">.B{fill:#fc9abf}.C{fill:#ffc7df}.D{fill:#ed84cb}.E{fill-opacity:1}.F{stroke:none}</style><g
     inkscape:groupmode="layer"
     id="g4451"
     inkscape:label="ftp"
     style="display:inline"><circle
       style="display:inline;opacity:1;vector-effect:none;fill:#b7ed50;fill-opacity:1;fill-rule:nonzero;stroke:#5b9323;stroke-width:4;stroke-linecap:butt;stroke-linejoin:round;stroke-miterlimit:4;stroke-dasharray:none;stroke-dashoffset:0;stroke-opacity:1;paint-order:fill markers stroke"
       id="circle4436"
       cx="64"
       cy="64"
       r="60" /><g
       id="g34"
       transform="translate(0,-3)"
       style="filter:url(#filter265-30)"><path
         id="path15"
         style="fill:#6cd25c;stroke:#57985d;stroke-width:8;stroke-linecap:round;stroke-linejoin:round;paint-order:stroke fill markers"
         d="m 43.453125,29.056641 c -0.644813,0.0062 -1.29701,0.168507 -1.900391,0.503906 C 39.621916,30.633823 39.184661,32.946904 40,35 c 0.923848,2.326331 1.979156,4.629951 3.373047,6.708984 C 37.455352,47.626679 34.448187,54.199228 36,63 l 28,6 28,-6 C 93.551813,54.199228 90.544648,47.626679 84.626953,41.708984 86.020844,39.629951 87.076152,37.326331 88,35 c 0.815339,-2.053096 0.378084,-4.366177 -1.552734,-5.439453 -1.930818,-1.073276 -4.364779,-0.377306 -5.439454,1.552734 -1.021987,1.835418 -2.038015,3.699379 -2.710937,5.689453 C 74.083279,34.387625 69.204833,33 64,33 c -5.204833,0 -10.083279,1.387625 -14.296875,3.802734 -0.672922,-1.990074 -1.68895,-3.854035 -2.710937,-5.689453 -0.73884,-1.326902 -2.120474,-2.070226 -3.539063,-2.05664 z" /><g
         id="g18"
         inkscape:transform-center-x="15.5"
         inkscape:transform-center-y="-3"
         transform="translate(0,5)"><ellipse
           style="fill:#b7ed50;fill-opacity:1;stroke:none;stroke-width:8;stroke-linecap:round;stroke-linejoin:round;stroke-dasharray:none;stroke-opacity:1;paint-order:stroke fill markers"
           id="path18"
           cx="46"
           cy="46"
           rx="4.7569699"
           ry="2.9211011"
           inkscape:transform-center-x="24.45404"
           inkscape:transform-center-y="-2.9210978" /><circle
           style="fill:#3c3c3c;fill-opacity:1;stroke:none;stroke-width:8;stroke-linecap:round;stroke-linejoin:round;stroke-dasharray:none;stroke-opacity:1;paint-order:stroke fill markers"
           id="path17"
           cx="51"
           cy="43"
           r="3"
           inkscape:transform-center-x="13"
           inkscape:transform-center-y="-4" /></g><use
         x="0"
         y="0"
         xlink:href="#g18"
         inkscape:transform-center-x="-15.500001"
         inkscape:transform-center-y="-3"
         id="use18"
         transform="matrix(-1,0,0,1,128,0)" /><g
         id="g28"><path
           id="path23"
           style="fill:#4c4c4c;fill-opacity:1;stroke:#373737;stroke-width:4;stroke-linecap:round;stroke-linejoin:round;stroke-dasharray:none;stroke-opacity:1;paint-order:fill markers stroke"
           inkscape:transform-center-x="21.256945"
           inkscape:transform-center-y="4.775239"
           d="M 34.108925,81.616105 C 35.16312,90.894363 33.686798,96.077175 32.188014,100.43826 38.489111,98.569427 46.547525,92.966553 50.767767,88"
           sodipodi:nodetypes="ccc" /><path
           id="path27"
           style="fill:#4c4c4c;fill-opacity:1;stroke:#373737;stroke-width:8;stroke-linecap:round;stroke-linejoin:round;stroke-dasharray:none;stroke-opacity:1;paint-order:stroke fill markers"
           d="m 51,98 c 0.144113,3.28383 0,8 1,9 1,1 6,1 7,0 1,-1 1,-3.8193 1,-8"
           sodipodi:nodetypes="cssc" /></g><use
         x="0"
         y="0"
         xlink:href="#g28"
         id="use28"
         inkscape:transform-center-x="-16.756944"
         inkscape:transform-center-y="2.712739"
         transform="matrix(-1,0,0,1,128,0)" /><path
         style="fill:#4c4c4c;fill-opacity:1;stroke:#373737;stroke-width:4;stroke-linecap:round;stroke-linejoin:round;stroke-dasharray:none;stroke-opacity:1;paint-order:fill markers stroke"
         d="M 94.24,64 C 95.32,79 93.16,88 91,91 88.84,94 79.12,99 64,99 48.88,99 39.637297,93.762563 37,91 34.84,88 32.68,79 33.76,64 c 12.96,9 47.52,8.625 60.48,0 z"
         id="path21"
         sodipodi:nodetypes="ccsccc" /><path
         id="path20"
         style="fill:#ffffff;fill-opacity:1;stroke:#747474;stroke-width:8;stroke-linecap:round;stroke-linejoin:round;stroke-dasharray:none;stroke-opacity:1;paint-order:stroke fill markers"
         d="m 35,64 v -3 c 0,0 18.9375,-1.8125 23,-1 2,2 4,6 5,11 -7,1 -23,-5 -28,-7 z m 58,0 v -3 c 0,0 -18.9375,-1.8125 -23,-1 -2,2 -4,6 -5,11 7,1 23,-5 28,-7 z" /><circle
         style="fill:#747474;fill-opacity:1;stroke:none;stroke-width:8;stroke-linecap:round;stroke-linejoin:round;stroke-dasharray:none;stroke-opacity:1;paint-order:stroke fill markers"
         id="path24"
         cx="64"
         cy="80"
         r="2" /><circle
         style="fill:#747474;fill-opacity:1;stroke:none;stroke-width:8;stroke-linecap:round;stroke-linejoin:round;stroke-dasharray:none;stroke-opacity:1;paint-order:stroke fill markers"
         id="circle24"
         cx="64"
         cy="87"
         r="2" /><path
         style="fill:none;fill-opacity:1;stroke:#ffffff;stroke-width:4;stroke-linecap:round;stroke-linejoin:round;stroke-dasharray:none;stroke-opacity:1;paint-order:stroke fill markers"
         d="m 41,76 c 2.031863,0.933559 7.067654,2.48421 9,3"
         id="path25"
         sodipodi:nodetypes="cc" /><g
         id="g33"
         transform="rotate(35,128.62982,-14.083683)"><path
           style="fill:#eedb97;fill-opacity:1;stroke:#7e5c52;stroke-width:8;stroke-linecap:round;stroke-linejoin:round;stroke-dasharray:none;stroke-opacity:1;paint-order:stroke fill markers"
           d="m 160.92308,75.461545 c 0.92307,-4.615384 0,-10.153846 -0.92308,-12.923077 -1.26923,0.692308 -6.46154,0.923077 -12,0.923077 -5.53846,0 -10.73077,-0.230769 -12,-0.923077 -0.92308,2.769231 -1.84615,8.307693 -0.92308,12.923077"
           id="path31"
           sodipodi:nodetypes="ccccc" /><path
           id="path29"
           style="fill:#3a76c3;fill-opacity:1;stroke:#404861;stroke-width:8;stroke-linecap:round;stroke-linejoin:round;stroke-dasharray:none;stroke-opacity:1;paint-order:stroke fill markers"
           d="m 134,76 c 0,10 9,11.000003 10,14 0.5698,1.709398 -1,2.728203 -1,5 0,3 2,5 5,5 3,0 5,-2.533487 5,-5 0,-2.271797 -1.5698,-3.290602 -1,-5 1,-2.999997 10,-3.746105 10,-14 -4,0.999999 -9,1.441942 -14,1.441942 -5,0 -10,-0.441943 -14,-1.441942 z"
           sodipodi:nodetypes="cssssscsc" /><path
           style="fill:#7e5c52;fill-opacity:1;stroke:none;stroke-width:8;stroke-linecap:round;stroke-linejoin:round;stroke-dasharray:none;stroke-opacity:1;paint-order:stroke fill markers"
           d="m 153.61244,61.296861 c 1.05038,4.637028 1.44361,7.302574 1.80047,9.859008 -0.0343,-2.661949 -0.0846,-5.445011 -0.35041,-9.843369"
           id="path32"
           sodipodi:nodetypes="ccc" /><circle
           style="fill:#404861;fill-opacity:1;stroke:none;stroke-width:8;stroke-linecap:round;stroke-linejoin:round;stroke-dasharray:none;stroke-opacity:1;paint-order:stroke fill markers"
           id="path33"
           cx="148"
           cy="95"
           r="2" /></g><ellipse
         style="fill:#b7e68f;fill-opacity:1;stroke:none;stroke-width:8;stroke-linecap:round;stroke-linejoin:round;stroke-dasharray:none;stroke-opacity:1;paint-order:stroke fill markers"
         id="path34"
         cx="55.438889"
         cy="43.858414"
         rx="6.6875"
         ry="4"
         transform="rotate(-5.0513553)" /></g><path
       id="path1"
       style="fill:#fefefe;fill-opacity:1;stroke:#d4d4d4;stroke-width:4;stroke-linecap:round;stroke-linejoin:round;stroke-dasharray:none;stroke-opacity:1;paint-order:stroke fill markers"
       d="m 76.259766,29.167433 c -0.996826,0.03203 -2.156452,1.113479 -2.674002,2.472239 -1.329964,3.491651 2.186315,4.714157 7.113032,4.265926 3.276571,6.423782 5.731466,6.280475 7.547106,3.229741 1.683518,-2.828738 -1.14751,-4.988084 -7.008118,-4.420266 -1.934626,-3.792872 -3.540937,-5.59381 -4.978018,-5.54764 z"
       sodipodi:nodetypes="sscscs" /><path
       id="path2"
       style="fill:#ffff00;fill-opacity:1;stroke:#c68500;stroke-width:4;stroke-linecap:round;stroke-linejoin:round;stroke-opacity:1;paint-order:stroke fill markers"
       inkscape:transform-center-x="-0.02020903"
       inkscape:transform-center-y="-0.51956497"
       d="m 40.259162,32.212102 c 0.263007,-0.09573 2.415562,1.958614 3.281552,2.778542 1.18475,0.136348 4.142102,0.464797 4.237829,0.727802 C 47.874273,35.981453 45.819928,38.134008 45,39 c -0.136347,1.184748 -0.464796,4.142102 -0.727802,4.237828 -0.263007,0.09573 -2.415562,-1.958615 -3.281553,-2.778542 -1.184749,-0.136349 -4.142102,-0.464797 -4.237829,-0.727803 -0.09573,-0.263007 1.958615,-2.415562 2.778543,-3.281553 0.136348,-1.18475 0.464796,-4.142102 0.727803,-4.237828 z"
       sodipodi:nodetypes="scscscscs" /><path
       id="path3"
       style="fill:#ffff84;fill-opacity:1;stroke:#c68500;stroke-width:4;stroke-linecap:round;stroke-linejoin:round;stroke-opacity:1;paint-order:stroke fill markers"
       inkscape:transform-center-x="-0.02020903"
       inkscape:transform-center-y="-0.51956497"
       d="m 48.270469,27.990645 c 0.130448,-0.04748 1.198092,0.971451 1.627614,1.378126 0.587623,0.06763 2.054437,0.230535 2.101917,0.360982 0.04748,0.130449 -0.971452,1.198093 -1.378127,1.627616 -0.06763,0.587622 -0.230534,2.054437 -0.360982,2.101916 -0.130449,0.04748 -1.198093,-0.971452 -1.627615,-1.378126 -0.587622,-0.06763 -2.054437,-0.230535 -2.101917,-0.360983 -0.04748,-0.130448 0.971452,-1.198092 1.378127,-1.627615 0.06763,-0.587623 0.230534,-2.054437 0.360983,-2.101916 z"
       sodipodi:nodetypes="scscscscs" /></g><style
     id="style2296-7">.B{fill:#fc9abf}.C{fill:#ffc7df}.D{fill:#ed84cb}.E{fill-opacity:1}.F{stroke:none}</style><style
     id="style2296-4">.B{fill:#fc9abf}.C{fill:#ffc7df}.D{fill:#ed84cb}.E{fill-opacity:1}.F{stroke:none}</style><style
     id="style2296-3">.B{fill:#fc9abf}.C{fill:#ffc7df}.D{fill:#ed84cb}.E{fill-opacity:1}.F{stroke:none}</style><style
     id="style2296-2">.B{fill:#fc9abf}.C{fill:#ffc7df}.D{fill:#ed84cb}.E{fill-opacity:1}.F{stroke:none}</style><style
     id="style2296-8">.B{fill:#fc9abf}.C{fill:#ffc7df}.D{fill:#ed84cb}.E{fill-opacity:1}.F{stroke:none}</style></svg>
