<svg xmlns="http://www.w3.org/2000/svg" xmlns:xlink="http://www.w3.org/1999/xlink" height="128" width="128" xmlns:v="https://vecta.io/nano"><style><![CDATA[.B{fill-rule:evenodd}.C{stroke-linejoin:round}.D{stroke-width:20.63066871}]]></style><g stroke="#3a76c3"><circle r="60" cy="64" cx="64" fill="#6d9fe9" paint-order="fill markers stroke" stroke-width="4"/><use xlink:href="#B" opacity=".5" fill="#3a76c3" paint-order="stroke fill markers" stroke-width="8.00000013814" class="B C"/></g><use xlink:href="#B" x="-2" y="-4" fill="#8f8f8f" stroke="#646464" paint-order="stroke fill markers" stroke-width="8.000000703977" class="B C"/><path d="M64 24l-6.0625.07031-5.908203.212891-2.695313.169922-.228515 2.121094-.308594 4.521484-.251953 5.455078-.195313 6.207031-.113281 5.478516-.02734 1.289063-.113281 14.474609.113281 14.474609.02734 1.289063 1.289063.02734L64 79.904291l14.474609-.113281 1.289063-.02734 5.478515-.113281 6.207032-.195313 5.455078-.251953 4.521483-.308594 2.1211-.228515.16992-2.695313.21289-5.908203L104 64l-.0703-6.0625-.21289-5.908203-.16992-2.695313-2.1211-.228515-4.521483-.308594-5.455078-.251953-6.207032-.195313-5.478515-.113281-.113281-5.478516-.195313-6.207031-.251953-5.455078-.308594-4.521484-.228515-2.121094-2.695313-.169922-5.908213-.212891L64 24z" fill="#d4d4d4" paint-order="stroke fill markers" class="B"/><g class="C"><g fill="none"><path d="M106.90372 49.892042c-7.280848-2.394216-78.526589-2.394216-85.807441 0m0 28.215914c7.280852 2.394215 78.526593 2.394215 85.807441 0M49.892043 21.096278c-2.394216 7.280849-2.394216 78.52659 0 85.807442m28.215914 0c2.394215-7.280852 2.394215-78.526593 0-85.807442" stroke="#646464" stroke-width="2" paint-order="fill markers stroke"/><path d="M64 34v30m27.123155 27.123155c-3.835793 3.835793-50.410517 3.835794-54.24631 0s-3.835794-50.410517 0-54.24631 50.410517-3.835794 54.24631 0" stroke="#2c737f" stroke-width="4" paint-order="fill markers stroke"/></g><g class="B"><g fill="#76ddfe" stroke="#5598cc"><path d="M70.780766267932 70.780766267932c-.958947226692.958947226692-12.602615309172.95894744295-13.561562535864 0s-.95894744295-12.602615309172 0-13.561562535864 12.602615309172-.95894744295 13.561562535864 0 .95894744295 12.602615309172 0 13.561562535864z" paint-order="fill markers stroke" stroke-width="3.99999556114"/><use xlink:href="#C" transform="matrix(.194632 -.01702813 -.01702813 .194632 79.75648099999998 79.75648099999998)" paint-order="fill markers stroke" class="D"/></g><use xlink:href="#C" transform="matrix(.194632 .01702813 .01702813 .194632 77.576881 23.330570999999996)" fill="#4c4c4c" paint-order="fill markers stroke" stroke="#373737" class="D"/></g><path d="M93.792833121712 54.030884544751c.253413147416 5.788508454846.307599679569 13.430308590608-.04509417029 20.831581975555" fill="none" stroke="#373737" stroke-linecap="round" paint-order="fill markers stroke" stroke-width="3.9999990953"/></g><defs ><path id="B" d="M101.483674425342 103.483674425342c-6.021778018817 6.021774623798-64.945558031867 6.021774623798-70.967336050684 0s-6.021778018817-64.945558031867 0-70.967336050684 64.945558031867-6.021778018817 70.967336050684 0 6.021774623798 64.945558031867 0 70.967336050684z"/><path id="C" d="M95.355054 95.355054c-4.434274 4.434274-58.275834 4.434275-62.710108 0s-4.434275-58.275834 0-62.710108 58.275834-4.434275 62.710108 0 4.434275 58.275834 0 62.710108z"/></defs></svg>