<?xml version="1.0" encoding="UTF-8" standalone="no"?>
<!-- Created with Inkscape (http://www.inkscape.org/) -->

<svg
   enable-background="new"
   inkscape:export-ydpi="384"
   inkscape:export-xdpi="384"
   inkscape:export-filename="..\app\src\main\res\drawable-nodpi\shazam.png"
   sodipodi:docname="shazam.svg"
   inkscape:version="1.3 (0e150ed6c4, 2023-07-21)"
   id="svg8"
   version="1.1"
   viewBox="0 0 128 128"
   height="128"
   width="128"
   xml:space="preserve"
   xmlns:inkscape="http://www.inkscape.org/namespaces/inkscape"
   xmlns:sodipodi="http://sodipodi.sourceforge.net/DTD/sodipodi-0.dtd"
   xmlns="http://www.w3.org/2000/svg"
   xmlns:svg="http://www.w3.org/2000/svg"
   xmlns:rdf="http://www.w3.org/1999/02/22-rdf-syntax-ns#"
   xmlns:cc="http://creativecommons.org/ns#"
   xmlns:dc="http://purl.org/dc/elements/1.1/"><sodipodi:namedview
     id="base"
     pagecolor="#ffffff"
     bordercolor="#666666"
     borderopacity="1.0"
     inkscape:pageopacity="0.0"
     inkscape:pageshadow="2"
     inkscape:zoom="4"
     inkscape:cx="53.125"
     inkscape:cy="92"
     inkscape:document-units="px"
     inkscape:current-layer="layer31"
     showgrid="false"
     units="px"
     inkscape:pagecheckerboard="true"
     borderlayer="true"
     gridtolerance="10"
     inkscape:snap-smooth-nodes="true"
     inkscape:snap-text-baseline="true"
     inkscape:snap-page="true"
     showguides="true"
     inkscape:guide-bbox="true"
     inkscape:snap-object-midpoints="true"
     inkscape:snap-center="true"
     inkscape:snap-global="true"
     inkscape:lockguides="false"
     inkscape:snap-bbox="true"
     inkscape:bbox-nodes="true"
     inkscape:showpageshadow="0"
     inkscape:deskcolor="#d1d1d1"
     inkscape:window-width="1853"
     inkscape:window-height="1057"
     inkscape:window-x="59"
     inkscape:window-y="-8"
     inkscape:window-maximized="1"><inkscape:grid
       enabled="false"
       empspacing="4"
       id="grid4131"
       type="xygrid"
       spacingx="8"
       spacingy="8"
       originx="0"
       originy="0"
       units="px"
       visible="false" /><inkscape:grid
       empspacing="4"
       id="grid4167"
       type="xygrid"
       originx="0"
       originy="0"
       spacingy="1"
       spacingx="1"
       units="px"
       visible="false" /></sodipodi:namedview><defs
     id="defs2"><filter
       id="filter265"
       inkscape:label="Drop Shadow red"
       style="color-interpolation-filters:sRGB"
       x="-0.058528087"
       y="-0.053264186"
       width="1.1463228"
       height="1.159797"
       inkscape:auto-region="true"><feFlood
         id="feFlood264"
         result="flood"
         flood-color="rgb(58,118,195)"
         flood-opacity="0.5" /><feComposite
         id="feComposite264"
         result="composite1"
         operator="in"
         in2="SourceGraphic"
         in="flood" /><feOffset
         id="feOffset264"
         result="offset"
         dy="4"
         dx="2" /><feComposite
         id="feComposite265"
         result="composite2"
         operator="over"
         in2="offset"
         in="SourceGraphic" /></filter></defs><metadata
     id="metadata5"><rdf:RDF><cc:Work
         rdf:about=""><dc:format>image/svg+xml</dc:format><dc:type
           rdf:resource="http://purl.org/dc/dcmitype/StillImage" /></cc:Work></rdf:RDF></metadata><style
     id="style2296">.B{fill:#fc9abf}.C{fill:#ffc7df}.D{fill:#ed84cb}.E{fill-opacity:1}.F{stroke:none}</style><g
     inkscape:groupmode="layer"
     id="layer31"
     inkscape:label="authy"
     style="display:inline;opacity:1"><circle
       style="display:inline;opacity:1;vector-effect:none;fill:#6d9fe9;fill-opacity:1;fill-rule:nonzero;stroke:#3a76c3;stroke-width:4;stroke-linecap:butt;stroke-linejoin:round;stroke-miterlimit:4;stroke-dasharray:none;stroke-dashoffset:0;stroke-opacity:1;paint-order:fill markers stroke"
       id="circle6184-5"
       cx="64"
       cy="64"
       r="60" /><g
       id="g7611"
       style="display:inline;opacity:1;stroke:#3a76c3;stroke-opacity:1;filter:url(#filter265)"
       transform="matrix(-1,0,0,1,256,0)" /><path
       id="path8"
       style="opacity:1;fill:#ffffff;fill-opacity:1;stroke:#3a76c3;stroke-width:8;stroke-linecap:round;stroke-linejoin:round;stroke-dasharray:none;stroke-opacity:1;paint-order:stroke markers fill;filter:url(#filter265)"
       d="m 67.22446,101.33381 c -1.68318,-0.43826 -3.12364,-1.526783 -4.00404,-3.026818 -1.83349,-3.123928 -0.62144,-6.811461 2.66817,-9.141775 12.2674,-8.690054 17.16271,-14.046153 18.35755,-18.657238 1.19485,-4.611085 0.14065,-8.317491 -3.56204,-11.560607 -2.5205,-2.20766 -5.14702,-2.739258 -8.66045,-2.161194 -4.05082,0.66648 -7.04953,3.195207 -12.22185,7.940798 -2.66865,2.448475 -6.96022,2.968882 -9.7043,0.605263 -2.74486,-2.364278 -3.05298,-6.506327 -0.68809,-9.250646 6.10297,-7.082132 13.11249,-11.372553 20.29836,-12.566605 7.18586,-1.194052 14.36553,0.961418 19.61942,5.563198 6.40667,5.611476 10.60397,14.697687 8.11422,24.30605 -2.48976,9.608364 -10.58174,18.654357 -25.24484,27.259674 -1.50019,0.8804 -3.28878,1.12821 -4.97211,0.6899 z M 60.77554,26.666185 c 1.68318,0.438268 3.12364,1.52679 4.00404,3.026819 1.83349,3.123932 0.62144,6.811465 -2.66817,9.141779 -12.2674,8.690053 -17.16271,14.046153 -18.35755,18.657238 -1.19485,4.611084 -0.14065,8.317491 3.56204,11.560607 2.5205,2.20766 5.14702,2.739257 8.66045,2.161194 4.05082,-0.66648 7.04953,-3.195207 12.22185,-7.940798 2.66865,-2.448475 6.96022,-2.968882 9.7043,-0.605264 2.74486,2.364278 3.05298,6.506328 0.68809,9.250647 C 72.48762,79.000539 65.4781,83.290959 58.29223,84.485011 51.10637,85.679064 43.9267,83.523593 38.67281,78.921814 32.26614,73.310338 28.06884,64.224127 30.55859,54.615764 33.04835,45.0074 41.14033,35.961406 55.80343,27.356095 c 1.50019,-0.880413 3.28878,-1.128214 4.97211,-0.68991 z"
       sodipodi:nodetypes="ssssssssssssssssssssssssssss" /></g></svg>
