<?xml version="1.0" encoding="UTF-8" standalone="no"?>
<!-- Created with Inkscape (http://www.inkscape.org/) -->

<svg
   enable-background="new"
   inkscape:export-ydpi="384"
   inkscape:export-xdpi="384"
   inkscape:export-filename="..\app\src\main\res\drawable-nodpi\infinity.png"
   sodipodi:docname="simple_text_editor.svg"
   inkscape:version="1.3 (0e150ed6c4, 2023-07-21)"
   id="svg8"
   version="1.1"
   viewBox="0 0 128 128"
   height="128"
   width="128"
   xml:space="preserve"
   xmlns:inkscape="http://www.inkscape.org/namespaces/inkscape"
   xmlns:sodipodi="http://sodipodi.sourceforge.net/DTD/sodipodi-0.dtd"
   xmlns:xlink="http://www.w3.org/1999/xlink"
   xmlns="http://www.w3.org/2000/svg"
   xmlns:svg="http://www.w3.org/2000/svg"
   xmlns:rdf="http://www.w3.org/1999/02/22-rdf-syntax-ns#"
   xmlns:cc="http://creativecommons.org/ns#"
   xmlns:dc="http://purl.org/dc/elements/1.1/"><sodipodi:namedview
     id="base"
     pagecolor="#ffffff"
     bordercolor="#666666"
     borderopacity="1.0"
     inkscape:pageopacity="0.0"
     inkscape:pageshadow="2"
     inkscape:zoom="4.0775"
     inkscape:cx="55.180871"
     inkscape:cy="97.608829"
     inkscape:document-units="px"
     inkscape:current-layer="g1"
     showgrid="false"
     units="px"
     inkscape:pagecheckerboard="true"
     borderlayer="true"
     gridtolerance="10"
     inkscape:snap-smooth-nodes="true"
     inkscape:snap-text-baseline="true"
     inkscape:snap-page="true"
     showguides="false"
     inkscape:guide-bbox="true"
     inkscape:snap-object-midpoints="true"
     inkscape:snap-center="true"
     inkscape:snap-global="true"
     inkscape:lockguides="false"
     inkscape:snap-bbox="true"
     inkscape:bbox-nodes="true"
     inkscape:showpageshadow="0"
     inkscape:deskcolor="#d1d1d1"
     inkscape:window-width="1858"
     inkscape:window-height="1057"
     inkscape:window-x="54"
     inkscape:window-y="-8"
     inkscape:window-maximized="1"><inkscape:grid
       enabled="false"
       empspacing="4"
       id="grid4131"
       type="xygrid"
       spacingx="8"
       spacingy="8"
       originx="0"
       originy="0"
       units="px"
       visible="false" /><inkscape:grid
       empspacing="4"
       id="grid4167"
       type="xygrid"
       originx="0"
       originy="0"
       spacingy="1"
       spacingx="1"
       units="px"
       visible="false" /></sodipodi:namedview><defs
     id="defs2"><clipPath
       clipPathUnits="userSpaceOnUse"
       id="clipPath1899-26"><path
         style="color:#000000;font-style:normal;font-variant:normal;font-weight:normal;font-stretch:normal;font-size:medium;line-height:normal;font-family:sans-serif;font-variant-ligatures:normal;font-variant-position:normal;font-variant-caps:normal;font-variant-numeric:normal;font-variant-alternates:normal;font-feature-settings:normal;text-indent:0;text-align:start;text-decoration:none;text-decoration-line:none;text-decoration-style:solid;text-decoration-color:#000000;letter-spacing:normal;word-spacing:normal;text-transform:none;writing-mode:lr-tb;direction:ltr;text-orientation:mixed;dominant-baseline:auto;baseline-shift:baseline;text-anchor:start;white-space:normal;shape-padding:0;clip-rule:nonzero;display:inline;overflow:visible;visibility:visible;opacity:1;isolation:auto;mix-blend-mode:normal;color-interpolation:sRGB;color-interpolation-filters:linearRGB;solid-color:#000000;solid-opacity:1;vector-effect:none;fill:#ffffff;fill-opacity:1;fill-rule:nonzero;stroke:none;stroke-width:4;stroke-linecap:butt;stroke-linejoin:round;stroke-miterlimit:4;stroke-dasharray:none;stroke-dashoffset:0;stroke-opacity:1;paint-order:normal;color-rendering:auto;image-rendering:auto;shape-rendering:auto;text-rendering:auto;enable-background:accumulate"
         d="m 175.94141,90.001953 c -0.74355,-0.02172 -1.3958,0.367751 -1.75782,0.957031 -2.0925,1.97566 -3.98059,4.533937 -5.05078,7.326172 -0.0733,0.191436 -0.11681,0.393009 -0.1289,0.597656 -0.35803,6.108528 0.0262,13.170508 1.01367,20.388668 0.0868,0.63108 0.46908,1.18306 1.0293,1.48633 1.3023,0.7063 2.90286,1.16701 4.63281,1.22071 0.0679,0.007 0.13339,0.0215 0.20312,0.0215 0.02,0 0.0387,-0.004 0.0586,-0.004 0.0199,1.2e-4 0.0386,0.004 0.0586,0.004 0.0697,-1e-5 0.13524,-0.0145 0.20312,-0.0215 1.72995,-0.0537 3.33052,-0.51441 4.63282,-1.22071 0.56021,-0.30327 0.94249,-0.85525 1.02929,-1.48633 0.98747,-7.21816 1.37171,-14.28014 1.01368,-20.388668 -0.0121,-0.204647 -0.0556,-0.40622 -0.12891,-0.597656 -1.07019,-2.792235 -2.95827,-5.350512 -5.05078,-7.326172 -0.36202,-0.58928 -1.01426,-0.978746 -1.75781,-0.957031 z"
         id="path1901-6"
         inkscape:connector-curvature="0" /></clipPath><clipPath
       clipPathUnits="userSpaceOnUse"
       id="clipPath1909-2"><path
         style="opacity:1;vector-effect:none;fill:#e8e8e8;fill-opacity:1;fill-rule:nonzero;stroke:none;stroke-width:4;stroke-linecap:butt;stroke-linejoin:round;stroke-miterlimit:4;stroke-dasharray:none;stroke-dashoffset:0;stroke-opacity:1;paint-order:normal"
         d="m 156,92 c -2.05694,1.825589 -4,4.390878 -5,7 -0.34778,5.93366 0.0269,12.88695 1,20 1.074,0.58248 2.52104,1 4,1 1.47896,0 2.926,-0.41752 4,-1 0.9731,-7.11305 1.34778,-14.06634 1,-20 -1,-2.609122 -2.94306,-5.174411 -5,-7 z"
         id="path1911-1"
         inkscape:connector-curvature="0" /></clipPath><filter
       id="filter265-0"
       inkscape:label="Drop Shadow red"
       style="color-interpolation-filters:sRGB"
       x="-0.021909258"
       y="-0.045895112"
       width="0.97781755"
       height="1.1147378"><feFlood
         id="feFlood264-47"
         result="flood"
         flood-color="rgb(100,100,100)"
         flood-opacity="0.498039" /><feComposite
         id="feComposite264-4"
         result="composite1"
         operator="in"
         in2="SourceGraphic"
         in="flood" /><feOffset
         id="feOffset264-9"
         result="offset"
         dy="4"
         dx="2" /><feComposite
         id="feComposite265-2"
         result="composite2"
         operator="over"
         in2="offset"
         in="SourceGraphic" /></filter></defs><metadata
     id="metadata5"><rdf:RDF><cc:Work
         rdf:about=""><dc:format>image/svg+xml</dc:format><dc:type
           rdf:resource="http://purl.org/dc/dcmitype/StillImage" /></cc:Work></rdf:RDF></metadata><style
     id="style2296">.B{fill:#fc9abf}.C{fill:#ffc7df}.D{fill:#ed84cb}.E{fill-opacity:1}.F{stroke:none}</style><g
     inkscape:groupmode="layer"
     id="layer23"
     inkscape:label="art"
     style="display:inline"><circle
       r="60"
       cy="64"
       cx="64"
       id="circle887-07"
       style="display:inline;vector-effect:none;fill:#aaaaaa;fill-opacity:1;fill-rule:nonzero;stroke:#646464;stroke-width:4;stroke-linecap:butt;stroke-linejoin:round;stroke-miterlimit:4;stroke-dasharray:none;stroke-dashoffset:0;stroke-opacity:1;paint-order:fill markers stroke" /><g
       id="g1"
       style="filter:url(#filter265-0)"><g
         id="g47"
         transform="rotate(-15,-10.274521,123.96351)"><use
           x="0"
           y="0"
           xlink:href="#path44"
           inkscape:transform-center-x="-8.7883369"
           inkscape:transform-center-y="34.996646"
           id="use44"
           transform="matrix(-1,0,0,1,128,-3e-7)"
           style="stroke-width:0.609132" /><path
           style="fill:#b7ed50;fill-opacity:1;stroke:#5b9323;stroke-width:4.00001;stroke-linecap:round;stroke-linejoin:round;stroke-dasharray:none;stroke-opacity:1;paint-order:stroke markers fill"
           d="m 52.186143,78.998245 c -1.911921,6.929033 0.248096,11.811423 4.374946,11.811423 4.126852,0 5.955609,-2.001674 3.628787,-9.559778"
           id="path44"
           inkscape:transform-center-x="8.7883367"
           inkscape:transform-center-y="34.996646"
           sodipodi:nodetypes="csc" /><path
           style="fill:#b7ed50;fill-opacity:1;stroke:#5b9323;stroke-width:4.00001;stroke-linecap:round;stroke-linejoin:round;stroke-dasharray:none;stroke-opacity:1;paint-order:stroke markers fill"
           d="m 78.654722,54.407313 c 1.380086,10.171086 0.474191,22.960808 -1.840872,27.590932 -1.610478,1.509825 -6.37194,2.583879 -12.813853,2.583879 -6.441914,0 -11.203376,-1.074054 -12.813854,-2.583879 C 48.87108,77.368121 47.965185,64.578399 49.345271,54.407313 Z"
           id="path42"
           sodipodi:nodetypes="cccccc" /><use
           x="0"
           y="0"
           xlink:href="#path43"
           inkscape:transform-center-x="-17.653714"
           inkscape:transform-center-y="9.9321236"
           id="use45"
           transform="matrix(-1,0,0,1,128,-3e-7)"
           style="stroke-width:0.609132" /><path
           style="fill:#b7ed50;fill-opacity:1;stroke:#5b9323;stroke-width:4.00001;stroke-linecap:round;stroke-linejoin:round;stroke-dasharray:none;stroke-opacity:1;paint-order:stroke markers fill"
           d="M 47.060642,59.256082 C 40.728621,69.100928 40.91136,75.060488 42.320361,77.03009 43.7669,79.052166 46.972955,79.054089 48,77 c 1,-2 1.474344,-6.937496 2.473001,-16.347436"
           id="path43"
           sodipodi:nodetypes="cssc"
           inkscape:transform-center-x="17.653714"
           inkscape:transform-center-y="9.9321236" /><path
           style="fill:#5b9323;fill-opacity:1;stroke:#5b9323;stroke-width:8;stroke-linecap:round;stroke-linejoin:round;stroke-dasharray:none;stroke-opacity:1;paint-order:stroke markers fill"
           d="M 52.469848,37.092578 54.818581,43"
           id="path46"
           sodipodi:nodetypes="cc" /><use
           x="0"
           y="0"
           xlink:href="#path46"
           id="use46"
           inkscape:transform-center-x="-10.355786"
           inkscape:transform-center-y="-9.953711"
           transform="matrix(-1,0,0,1,128,0)" /><path
           style="fill:#b7ed50;fill-opacity:1;stroke:#5b9323;stroke-width:4.00001;stroke-linecap:round;stroke-linejoin:round;stroke-dasharray:none;stroke-opacity:1;paint-order:stroke markers fill"
           d="M 80.939351,58.256082 C 83.734168,43.953668 74.340207,37.473343 63.999997,37.473343 c -10.340211,0 -19.734171,6.480325 -16.939355,20.782739 1.992865,1.779343 9.110242,2.775776 16.939355,2.775776 7.829113,0 14.946489,-0.996433 16.939354,-2.775776 z"
           id="path39"
           sodipodi:nodetypes="czczc" /><path
           style="fill:none;fill-opacity:1;stroke:#b7ed50;stroke-width:4.00001;stroke-linecap:round;stroke-linejoin:round;stroke-dasharray:none;stroke-opacity:1;paint-order:stroke markers fill"
           d="M 52.469848,37.092578 54.818581,43"
           id="path40"
           sodipodi:nodetypes="cc" /><circle
           style="fill:#5b9323;fill-opacity:1;stroke:none;stroke-width:4;stroke-linecap:round;stroke-linejoin:round;stroke-dasharray:none;stroke-opacity:1;paint-order:stroke markers fill"
           id="path45"
           cx="55"
           cy="50"
           r="2" /><circle
           style="fill:#5b9323;fill-opacity:1;stroke:none;stroke-width:4;stroke-linecap:round;stroke-linejoin:round;stroke-dasharray:none;stroke-opacity:1;paint-order:stroke markers fill"
           id="circle45"
           cx="73"
           cy="50"
           r="2" /><use
           x="0"
           y="0"
           xlink:href="#path40"
           id="use47"
           inkscape:transform-center-x="-10.355786"
           inkscape:transform-center-y="-9.953711"
           transform="matrix(-1,0,0,1,128,0)" /></g><path
         style="display:inline;vector-effect:none;fill:#f8f8f8;fill-opacity:1;fill-rule:nonzero;stroke:#646464;stroke-width:4;stroke-linecap:butt;stroke-linejoin:round;stroke-miterlimit:4;stroke-dasharray:none;stroke-dashoffset:0;stroke-opacity:1;paint-order:normal"
         d="m 90.349179,38.128642 c -8.117095,-1.740206 -15.996455,-2.110971 -24.840344,-2.110971 -8.843888,0 -16.723249,0.370765 -24.840344,2.110971 -1.916262,0.410824 -3.651126,1.33107 -4.929953,2.609896 -1.278826,1.278827 -2.199072,3.013691 -2.609896,4.929953 -1.740206,8.117095 -2.110971,15.996456 -2.110971,24.840344 0,8.843889 0.370765,16.723249 2.110971,24.840344 0.410824,1.916263 1.33107,3.651127 2.609896,4.929951 1.278827,1.27883 3.013691,2.19908 4.929953,2.6099 C 48.785586,104.62924 56.664947,105 65.508835,105 c 8.843889,0 16.723249,-0.37076 24.840344,-2.11097 1.916263,-0.41082 3.651127,-1.33107 4.929953,-2.6099 1.278827,-1.278824 2.199077,-3.013688 2.609894,-4.929951 C 99.62924,87.232084 100,79.352724 100,70.508835 100,61.664947 99.62924,53.785586 97.889026,45.668491 97.478209,43.752229 96.557959,42.017365 95.279132,40.738538 94.000306,39.459712 92.265442,38.539466 90.349179,38.128642 Z"
         id="path952-9"
         inkscape:connector-curvature="0"
         sodipodi:nodetypes="szszszszszszszszs" /><path
         style="vector-effect:none;fill:none;fill-opacity:1;fill-rule:nonzero;stroke:#5e5e5e;stroke-width:4;stroke-linecap:butt;stroke-linejoin:round;stroke-miterlimit:4;stroke-dasharray:none;stroke-dashoffset:0;stroke-opacity:1;paint-order:normal"
         d="M 39.634848,63.035882 C 44.522868,77.572966 64.367201,62.155901 53.243036,61.438115 42.118871,60.72033 48.993908,79.998 57.639955,73.454928 66.286001,66.911857 70.692719,62.350986 78.325438,63.624668"
         id="path1927"
         inkscape:connector-curvature="0"
         sodipodi:nodetypes="cssc" /><path
         style="vector-effect:none;fill:none;fill-opacity:1;fill-rule:nonzero;stroke:#5e5e5e;stroke-width:4;stroke-linecap:butt;stroke-linejoin:round;stroke-miterlimit:4;stroke-dasharray:none;stroke-dashoffset:0;stroke-opacity:1;paint-order:normal"
         d="m 39.632607,83.603169 c 7.076193,4.045503 8.232714,-8.021366 12.118375,1.606053 2.963625,7.342909 9.699658,-3.322596 18.602351,-2.623773"
         id="path1929"
         inkscape:connector-curvature="0"
         sodipodi:nodetypes="csc" /><path
         style="vector-effect:none;fill:none;fill-opacity:1;fill-rule:nonzero;stroke:#5e5e5e;stroke-width:4;stroke-linecap:butt;stroke-linejoin:round;stroke-miterlimit:4;stroke-dasharray:none;stroke-dashoffset:0;stroke-opacity:1;paint-order:normal"
         d="m 39.010784,51.542494 c 5.201149,-7.348679 10.992871,4.607287 16.440117,3.002859 3.445141,-1.01473 1.080511,-6.963284 5.941586,-7.028391 5.549096,-0.07432 2.145162,7.967204 6.359008,7.776263 5.0949,-0.230897 7.84159,-3.349547 8.127061,-8.670927 0.233748,3.050144 7.953866,7.495553 10.372343,7.343207"
         id="path1925"
         inkscape:connector-curvature="0"
         sodipodi:nodetypes="cssscc" /><g
         id="g1923"
         transform="rotate(-15,65.507633,41.019249)"><g
           transform="matrix(-1.4258808,-1.4258808,1.4258808,-1.4258808,180.92223,463.24662)"
           clip-path="url(#clipPath1899-26)"
           id="g1893"
           inkscape:groupmode="maskhelper"><g
             id="g1874"
             transform="translate(20)"><path
               style="opacity:1;vector-effect:none;fill:#3b7e4f;fill-opacity:1;fill-rule:nonzero;stroke:none;stroke-width:4;stroke-linecap:butt;stroke-linejoin:round;stroke-miterlimit:4;stroke-dasharray:none;stroke-dashoffset:0;stroke-opacity:1;paint-order:normal"
               d="m 148.34375,97 0.24414,11 -0.58789,14 8,1 8,-1 -0.58789,-14 0.24414,-11 L 156,99 Z"
               id="path1846"
               inkscape:connector-curvature="0"
               sodipodi:nodetypes="ccccccccc" /><path
               style="opacity:1;vector-effect:none;fill:#936f23;fill-opacity:1;fill-rule:nonzero;stroke:none;stroke-width:4;stroke-linecap:butt;stroke-linejoin:round;stroke-miterlimit:4;stroke-dasharray:none;stroke-dashoffset:0;stroke-opacity:1;paint-order:normal"
               d="m 147.4375,91 -1.875,6 c 0.78125,0.40625 2.80294,1.294071 5.4375,2 1,0.267949 4,0.46875 5,0.46875 1,0 4,-0.200801 5,-0.46875 2.63456,-0.705929 4.65625,-1.59375 5.4375,-2 l -1.875,-6 H 156 Z"
               id="path1848"
               inkscape:connector-curvature="0" /><path
               style="opacity:1;vector-effect:none;fill:#484848;fill-opacity:1;fill-rule:nonzero;stroke:none;stroke-width:4;stroke-linecap:butt;stroke-linejoin:round;stroke-miterlimit:4;stroke-dasharray:none;stroke-dashoffset:0;stroke-opacity:1;paint-order:normal"
               d="m 156,86 -7,7 c 1.18652,0.226403 6,1.046721 7,1 1,0.04672 5.81348,-0.773597 7,-1 z"
               id="path1850"
               inkscape:connector-curvature="0" /></g></g><g
           transform="matrix(-1.4258808,-1.4258808,1.4258808,-1.4258808,152.40461,434.72901)"
           clip-path="url(#clipPath1909-2)"
           id="g1903"
           inkscape:groupmode="maskhelper"><g
             id="g1891"><path
               sodipodi:nodetypes="ccccccccc"
               inkscape:connector-curvature="0"
               id="path1885"
               d="m 148.34375,97 0.24414,11 -0.58789,14 8,1 8,-1 -0.58789,-14 0.24414,-11 L 156,99 Z"
               style="opacity:1;vector-effect:none;fill:#67a954;fill-opacity:1;fill-rule:nonzero;stroke:none;stroke-width:4;stroke-linecap:butt;stroke-linejoin:round;stroke-miterlimit:4;stroke-dasharray:none;stroke-dashoffset:0;stroke-opacity:1;paint-order:normal" /><path
               inkscape:connector-curvature="0"
               id="path1887"
               d="m 147.4375,91 -1.875,6 c 0.78125,0.40625 2.80294,1.294071 5.4375,2 1,0.267949 4,0.46875 5,0.46875 1,0 4,-0.200801 5,-0.46875 2.63456,-0.705929 4.65625,-1.59375 5.4375,-2 l -1.875,-6 H 156 Z"
               style="opacity:1;vector-effect:none;fill:#f4eaaa;fill-opacity:1;fill-rule:nonzero;stroke:none;stroke-width:4;stroke-linecap:butt;stroke-linejoin:round;stroke-miterlimit:4;stroke-dasharray:none;stroke-dashoffset:0;stroke-opacity:1;paint-order:normal" /><path
               inkscape:connector-curvature="0"
               id="path1889"
               d="m 156,86 -7,7 c 1.18652,0.226403 6,1.046721 7,1 1,0.04672 5.81348,-0.773597 7,-1 z"
               style="opacity:1;vector-effect:none;fill:#5e5e5e;fill-opacity:1;fill-rule:nonzero;stroke:none;stroke-width:4;stroke-linecap:butt;stroke-linejoin:round;stroke-miterlimit:4;stroke-dasharray:none;stroke-dashoffset:0;stroke-opacity:1;paint-order:normal" /></g></g></g></g></g><style
     id="style2296-4">.B{fill:#fc9abf}.C{fill:#ffc7df}.D{fill:#ed84cb}.E{fill-opacity:1}.F{stroke:none}</style><style
     id="style2296-3">.B{fill:#fc9abf}.C{fill:#ffc7df}.D{fill:#ed84cb}.E{fill-opacity:1}.F{stroke:none}</style><style
     id="style2296-0">.B{fill:#fc9abf}.C{fill:#ffc7df}.D{fill:#ed84cb}.E{fill-opacity:1}.F{stroke:none}</style></svg>
