<?xml version="1.0" encoding="UTF-8" standalone="no"?>
<!-- Created with Inkscape (http://www.inkscape.org/) -->

<svg
   enable-background="new"
   inkscape:export-ydpi="384"
   inkscape:export-xdpi="384"
   inkscape:export-filename="..\app\src\main\res\drawable-nodpi\simplelogin.png"
   sodipodi:docname="simplelogin.svg"
   inkscape:version="1.3 (0e150ed6c4, 2023-07-21)"
   id="svg8"
   version="1.1"
   viewBox="0 0 128 128"
   height="128"
   width="128"
   xml:space="preserve"
   xmlns:inkscape="http://www.inkscape.org/namespaces/inkscape"
   xmlns:sodipodi="http://sodipodi.sourceforge.net/DTD/sodipodi-0.dtd"
   xmlns:xlink="http://www.w3.org/1999/xlink"
   xmlns="http://www.w3.org/2000/svg"
   xmlns:svg="http://www.w3.org/2000/svg"
   xmlns:rdf="http://www.w3.org/1999/02/22-rdf-syntax-ns#"
   xmlns:cc="http://creativecommons.org/ns#"
   xmlns:dc="http://purl.org/dc/elements/1.1/"><sodipodi:namedview
     id="base"
     pagecolor="#ffffff"
     bordercolor="#666666"
     borderopacity="1.0"
     inkscape:pageopacity="0.0"
     inkscape:pageshadow="2"
     inkscape:zoom="1.4142136"
     inkscape:cx="57.982756"
     inkscape:cy="101.11627"
     inkscape:document-units="px"
     inkscape:current-layer="layer103"
     showgrid="false"
     units="px"
     inkscape:pagecheckerboard="true"
     borderlayer="true"
     gridtolerance="10"
     inkscape:snap-smooth-nodes="true"
     inkscape:snap-text-baseline="true"
     inkscape:snap-page="true"
     showguides="true"
     inkscape:guide-bbox="true"
     inkscape:snap-object-midpoints="true"
     inkscape:snap-center="true"
     inkscape:snap-global="true"
     inkscape:lockguides="false"
     inkscape:snap-bbox="true"
     inkscape:bbox-nodes="true"
     inkscape:showpageshadow="0"
     inkscape:deskcolor="#d1d1d1"
     inkscape:window-width="1852"
     inkscape:window-height="1057"
     inkscape:window-x="60"
     inkscape:window-y="-8"
     inkscape:window-maximized="1"><inkscape:grid
       enabled="false"
       empspacing="4"
       id="grid4131"
       type="xygrid"
       spacingx="8"
       spacingy="8"
       originx="0"
       originy="0"
       units="px"
       visible="false" /><inkscape:grid
       empspacing="4"
       id="grid4167"
       type="xygrid"
       originx="0"
       originy="0"
       spacingy="1"
       spacingx="1"
       units="px"
       visible="false" /></sodipodi:namedview><defs
     id="defs2"><clipPath
       clipPathUnits="userSpaceOnUse"
       id="clipPath220"><path
         style="display:inline;vector-effect:none;fill:none;fill-opacity:1;fill-rule:nonzero;stroke:#747474;stroke-width:4;stroke-linecap:butt;stroke-linejoin:round;stroke-miterlimit:4;stroke-dasharray:none;stroke-dashoffset:0;stroke-opacity:1;paint-order:fill markers stroke"
         d="m 64,32 c -9.96537,0 -26.519044,0.557925 -34.300781,1.857422 -2.220334,0.37078 -3.588502,1.725886 -3.951172,3.611328 -0.69722,3.624708 -1.521484,14.384322 -1.521485,26.53125 0,12.146928 0.824265,22.906542 1.521485,26.53125 0.36267,1.885441 1.730838,3.240548 3.951172,3.611328 C 37.480956,95.442076 54.03463,96 64,96 c 9.96537,0 26.519044,-0.557924 34.300781,-1.857422 2.220339,-0.37078 3.588499,-1.725887 3.951169,-3.611328 0.69722,-3.624708 1.52149,-14.384322 1.52149,-26.53125 0,-12.146928 -0.82427,-22.906542 -1.52149,-26.53125 -0.36267,-1.885442 -1.73083,-3.240548 -3.951169,-3.611328 C 90.519044,32.557925 73.96537,32 64,32 Z"
         id="path220"
         inkscape:connector-curvature="0" /></clipPath><filter
       id="filter265"
       inkscape:label="Drop Shadow red"
       style="color-interpolation-filters:sRGB"
       x="0.022004913"
       y="0.15763098"
       width="0.82508167"
       height="0.81723802"><feFlood
         id="feFlood264"
         result="flood"
         flood-color="rgb(194,42,136)"
         flood-opacity="0.498039" /><feComposite
         id="feComposite264"
         result="composite1"
         operator="in"
         in2="SourceGraphic"
         in="flood" /><feOffset
         id="feOffset264"
         result="offset"
         dy="4"
         dx="2" /><feComposite
         id="feComposite265"
         result="composite2"
         operator="over"
         in2="offset"
         in="SourceGraphic" /></filter><clipPath
       clipPathUnits="userSpaceOnUse"
       id="clipPath3"><use
         x="0"
         y="0"
         xlink:href="#path1"
         id="use4"
         style="display:inline"
         transform="translate(-5,3)" /></clipPath></defs><metadata
     id="metadata5"><rdf:RDF><cc:Work
         rdf:about=""><dc:format>image/svg+xml</dc:format><dc:type
           rdf:resource="http://purl.org/dc/dcmitype/StillImage" /></cc:Work></rdf:RDF></metadata><style
     id="style2296">.B{fill:#fc9abf}.C{fill:#ffc7df}.D{fill:#ed84cb}.E{fill-opacity:1}.F{stroke:none}</style><g
     inkscape:groupmode="layer"
     id="layer103"
     inkscape:label="ymail"
     style="display:inline"><circle
       r="60"
       cy="64"
       cx="64"
       id="circle2383-5"
       style="display:inline;vector-effect:none;fill:#da69af;fill-opacity:1;fill-rule:nonzero;stroke:#c22a88;stroke-width:4;stroke-linecap:butt;stroke-linejoin:round;stroke-miterlimit:4;stroke-dasharray:none;stroke-dashoffset:0;stroke-opacity:1;paint-order:fill markers stroke" /><g
       id="g5"
       transform="translate(-2)"
       style="filter:url(#filter265)"><g
         inkscape:groupmode="maskhelper"
         id="g220"
         clip-path="url(#clipPath220)"
         style="stroke:#893469;stroke-width:1.12631;stroke-opacity:1"
         transform="matrix(0.88785739,0,0,0.88785739,13.86171,7.677127)"><rect
           style="opacity:1;fill:#ffffff;fill-opacity:1;stroke:#893469;stroke-width:4.50523;stroke-linecap:round;stroke-linejoin:round;stroke-dasharray:none;stroke-opacity:1;paint-order:fill markers stroke"
           id="rect220"
           width="104.90379"
           height="80.968254"
           x="11.09952"
           y="24.034742" /><path
           sodipodi:nodetypes="ccc"
           inkscape:connector-curvature="0"
           id="path2416-8"
           d="M 4.3753777,16.021222 25.335061,41 C 34.335061,54 49,67 64,76 79,67 93.664939,54 102.66494,41 L 128,15.66494"
           style="display:inline;vector-effect:none;fill:#ffcaec;fill-opacity:1;fill-rule:nonzero;stroke:#893469;stroke-width:4.50523;stroke-linecap:butt;stroke-linejoin:round;stroke-miterlimit:4;stroke-dasharray:none;stroke-dashoffset:0;stroke-opacity:1;paint-order:fill markers stroke" /></g><path
         style="display:inline;vector-effect:none;fill:none;fill-opacity:1;fill-rule:nonzero;stroke:#893469;stroke-width:4;stroke-linecap:butt;stroke-linejoin:round;stroke-miterlimit:4;stroke-dasharray:none;stroke-dashoffset:0;stroke-opacity:1;paint-order:fill markers stroke"
         d="m 70.684583,36.088563 c -8.847827,0 -23.545129,0.495358 -30.454202,1.649126 -1.97134,0.3292 -3.186078,1.532341 -3.508077,3.206345 C 36.103272,44.162257 35.371443,53.71526 35.371442,64.5 c 0,10.78474 0.73183,20.337743 1.350862,23.555966 0.321999,1.674003 1.536737,2.877145 3.508077,3.206345 6.909073,1.153768 21.606375,1.649125 30.454202,1.649125 8.847827,0 23.545129,-0.495357 30.454207,-1.649125 1.97134,-0.3292 3.18607,-1.532342 3.50807,-3.206345 0.61903,-3.218223 1.35087,-12.771226 1.35087,-23.555966 0,-10.78474 -0.73184,-20.337743 -1.35087,-23.555966 -0.322,-1.674004 -1.53673,-2.877145 -3.50807,-3.206345 -6.909078,-1.153768 -21.60638,-1.649126 -30.454207,-1.649126 z"
         id="path2387-54"
         inkscape:connector-curvature="0"
         inkscape:export-filename="..\..\Downloads\dollphone-foss\app\src\main\res\drawable-nodpi\yahoo-mail.png"
         inkscape:export-xdpi="384"
         inkscape:export-ydpi="384" /><path
         id="path1"
         style="fill:none;fill-opacity:1;stroke:#893469;stroke-width:8;stroke-linecap:round;stroke-linejoin:round;stroke-opacity:1;paint-order:stroke fill markers"
         d="M 37,45 C 32.277783,49.7619 27.555556,52.619048 20,54.52381 17.62091,68.05175 23.777778,81.190476 37,85 50.222222,81.190476 56.37909,68.05175 54,54.52381 46.444444,52.619048 41.722218,49.7619 37,45 Z"
         sodipodi:nodetypes="ccccc" /><g
         inkscape:groupmode="maskhelper"
         id="g3"
         clip-path="url(#clipPath3)"
         transform="translate(5,-3)"><rect
           style="display:inline;fill:#ffffff;fill-opacity:1;stroke:none;stroke-width:8;stroke-linecap:round;stroke-linejoin:round;stroke-opacity:1;paint-order:stroke fill markers"
           id="rect3"
           width="45"
           height="44"
           x="8"
           y="46" /><rect
           style="display:inline;fill:#ffcaec;fill-opacity:1;stroke:none;stroke-width:8;stroke-linecap:round;stroke-linejoin:round;stroke-opacity:1;paint-order:stroke fill markers"
           id="rect2"
           width="21"
           height="44"
           x="32"
           y="46" /><path
           style="fill:#893469;fill-opacity:1;stroke:none;stroke-width:8;stroke-linecap:round;stroke-linejoin:round;stroke-opacity:1;paint-order:stroke fill markers"
           d="m 23.691599,71.299448 c 1.461538,1.134781 4.097869,3.68165 6.231379,6.629126 3.535534,-4.552 8.352698,-9.324971 13.037281,-12.904699 -1.647009,-1.458419 -3.607551,-3.676251 -5.038136,-5.347495 -3.246074,3.929459 -6.583159,9.683119 -8.131728,12.948893 -0.800921,-1.65029 -1.912178,-3.563568 -3.358757,-5.214912 -1.072489,0.772202 -2.256991,2.48515 -2.740039,3.889087 z"
           id="path5"
           sodipodi:nodetypes="ccccccc" /></g></g></g></svg>
