<?xml version="1.0" encoding="UTF-8" standalone="no"?>
<!-- Created with Inkscape (http://www.inkscape.org/) -->

<svg
   enable-background="new"
   inkscape:export-ydpi="384"
   inkscape:export-xdpi="384"
   inkscape:export-filename="..\app\src\main\res\drawable-nodpi\wx.png"
   sodipodi:docname="slack.svg"
   inkscape:version="1.3 (0e150ed6c4, 2023-07-21)"
   id="svg8"
   version="1.1"
   viewBox="0 0 128 128"
   height="128"
   width="128"
   xml:space="preserve"
   xmlns:inkscape="http://www.inkscape.org/namespaces/inkscape"
   xmlns:sodipodi="http://sodipodi.sourceforge.net/DTD/sodipodi-0.dtd"
   xmlns="http://www.w3.org/2000/svg"
   xmlns:svg="http://www.w3.org/2000/svg"
   xmlns:rdf="http://www.w3.org/1999/02/22-rdf-syntax-ns#"
   xmlns:cc="http://creativecommons.org/ns#"
   xmlns:dc="http://purl.org/dc/elements/1.1/"><sodipodi:namedview
     id="base"
     pagecolor="#ffffff"
     bordercolor="#666666"
     borderopacity="1.0"
     inkscape:pageopacity="0.0"
     inkscape:pageshadow="2"
     inkscape:zoom="2.1042129"
     inkscape:cx="-17.583772"
     inkscape:cy="125.46259"
     inkscape:document-units="px"
     inkscape:current-layer="layer7"
     showgrid="true"
     units="px"
     inkscape:pagecheckerboard="true"
     borderlayer="true"
     gridtolerance="10"
     inkscape:snap-smooth-nodes="true"
     inkscape:snap-text-baseline="true"
     inkscape:snap-page="true"
     showguides="true"
     inkscape:guide-bbox="true"
     inkscape:snap-object-midpoints="true"
     inkscape:snap-center="true"
     inkscape:snap-global="true"
     inkscape:lockguides="false"
     inkscape:snap-bbox="true"
     inkscape:bbox-nodes="true"
     inkscape:showpageshadow="0"
     inkscape:deskcolor="#d1d1d1"
     inkscape:window-width="1852"
     inkscape:window-height="1057"
     inkscape:window-x="60"
     inkscape:window-y="-8"
     inkscape:window-maximized="1"><inkscape:grid
       enabled="false"
       empspacing="4"
       id="grid4131"
       type="xygrid"
       spacingx="8"
       spacingy="8"
       originx="0"
       originy="0"
       units="px"
       visible="true" /><inkscape:grid
       empspacing="4"
       id="grid4167"
       type="xygrid"
       originx="0"
       originy="0"
       spacingy="1"
       spacingx="1"
       units="px"
       visible="true" /></sodipodi:namedview><defs
     id="defs2"><filter
       style="color-interpolation-filters:sRGB"
       id="filter1"
       inkscape:label="filter1"
       x="-0.041978382"
       y="-0.041978382"
       width="1.104946"
       height="1.1259351"><feFlood
         id="feFlood1"
         flood-opacity="0.5"
         flood-color="rgb(116,116,116)" /><feComposite
         id="feComposite1"
         in2="SourceGraphic"
         operator="in" /><feOffset
         dx="2"
         dy="4"
         id="feOffset1"
         result="result1" /><feMerge
         id="feMerge1"><feMergeNode
           inkscape:collect="always"
           id="feMergeNode1"
           in="result1" /><feMergeNode
           inkscape:collect="always"
           id="feMergeNode2"
           in="SourceGraphic" /></feMerge></filter></defs><metadata
     id="metadata5"><rdf:RDF><cc:Work
         rdf:about=""><dc:format>image/svg+xml</dc:format><dc:type
           rdf:resource="http://purl.org/dc/dcmitype/StillImage" /></cc:Work></rdf:RDF></metadata><style
     id="style2296">.B{fill:#fc9abf}.C{fill:#ffc7df}.D{fill:#ed84cb}.E{fill-opacity:1}.F{stroke:none}</style><g
     inkscape:groupmode="layer"
     id="layer7"
     inkscape:label="youtube"
     style="display:inline"><circle
       r="60"
       cy="64"
       cx="64"
       id="circle887-0-4"
       style="display:inline;vector-effect:none;fill:#ffffff;fill-opacity:1;fill-rule:nonzero;stroke:#747474;stroke-width:4;stroke-linecap:butt;stroke-linejoin:round;stroke-miterlimit:4;stroke-dasharray:none;stroke-dashoffset:0;stroke-opacity:1;paint-order:fill markers stroke" /><g
       id="g8"
       style="filter:url(#filter1)"><path
         id="path8"
         style="fill:#b7ed50;fill-opacity:1;stroke:#5b9323;stroke-width:8;stroke-linecap:round;stroke-linejoin:round;stroke-dasharray:none;stroke-opacity:1;paint-order:stroke markers fill"
         d="m 109.10343,50.976354 c 0,-5.69675 -3.75856,-9.455304 -9.455303,-9.455304 -5.696747,0 -9.455302,3.758555 -9.455302,9.455304 0,2.804744 0.338745,7.654294 0.900505,8.554798 1.226876,0.415268 5.662794,0.900506 8.554796,0.900506 5.696744,0 9.455304,-3.758555 9.455304,-9.455304 z M 86.590806,28.463724 c -0.71847,-5.651262 -3.758556,-9.455305 -9.455306,-9.455305 -5.696749,0 -8.254885,3.316203 -8.554798,9.005052 -0.387169,7.343928 -0.457325,15.172738 0,22.51263 0.371128,5.956472 3.037028,9.905557 9.00505,9.905557 5.968024,0 9.763164,-3.603629 9.905557,-9.905557 0.165582,-7.328039 0.06973,-14.430761 -0.900503,-22.062377 z"
         sodipodi:nodetypes="ssscsssssssss" /><path
         id="path7"
         style="fill:#e0d60d;fill-opacity:1;stroke:#b9a400;stroke-width:8;stroke-linecap:round;stroke-linejoin:round;stroke-dasharray:none;stroke-opacity:1;paint-order:stroke markers fill"
         d="m 77.023648,109.10343 c 5.69675,0 9.455304,-3.75856 9.455304,-9.455303 0,-5.696747 -3.758554,-9.455302 -9.455304,-9.455302 -2.804744,0 -7.654294,0.338745 -8.554798,0.900505 -0.415268,1.226876 -0.900506,5.662794 -0.900506,8.554796 0,5.696744 3.758555,9.455304 9.455304,9.455304 z M 99.536283,86.590806 c 5.651257,-0.71847 9.455297,-3.758556 9.455297,-9.455306 0,-5.696749 -3.3162,-8.254885 -9.005044,-8.554798 -7.343932,-0.387169 -15.172742,-0.457325 -22.512634,0 -5.956472,0.371128 -9.905557,3.037028 -9.905557,9.00505 0,5.968024 3.603629,9.763164 9.905557,9.905557 7.328039,0.165582 14.43076,0.06973 22.062381,-0.900503 z"
         sodipodi:nodetypes="ssscsssssssss" /><path
         id="path6"
         style="fill:#ff8090;fill-opacity:1;stroke:#d5425d;stroke-width:8;stroke-linecap:round;stroke-linejoin:round;stroke-dasharray:none;stroke-opacity:1;paint-order:stroke markers fill"
         d="m 18.896568,77.023648 c 0,5.69675 3.758555,9.455304 9.455304,9.455304 5.69675,0 9.455305,-3.758554 9.455305,-9.455304 0,-2.804744 -0.338744,-7.654294 -0.900505,-8.554798 -1.226876,-0.415268 -5.662794,-0.900506 -8.5548,-0.900506 -5.696749,0 -9.455304,3.758555 -9.455304,9.455304 z m 22.512629,22.512635 c 0.718469,5.651257 3.758555,9.455297 9.455305,9.455297 5.696751,0 8.254886,-3.3162 8.5548,-9.005044 0.387169,-7.343932 0.457324,-15.172742 0,-22.512634 -0.37113,-5.956472 -3.037028,-9.905557 -9.005051,-9.905557 -5.968024,0 -9.763163,3.603629 -9.905558,9.905557 -0.165581,7.328039 -0.06973,14.43076 0.900504,22.062381 z"
         sodipodi:nodetypes="ssscsssssssss" /><path
         id="path2"
         style="fill:#76ddfe;fill-opacity:1;stroke:#5598cc;stroke-width:8;stroke-linecap:round;stroke-linejoin:round;stroke-dasharray:none;stroke-opacity:1;paint-order:stroke markers fill"
         d="m 50.976354,18.896568 c -5.69675,0 -9.455304,3.758555 -9.455304,9.455304 0,5.69675 3.758555,9.455305 9.455304,9.455305 2.804744,0 7.654294,-0.338744 8.554798,-0.900505 0.415268,-1.226876 0.900506,-5.662794 0.900506,-8.5548 0,-5.696749 -3.758555,-9.455304 -9.455304,-9.455304 z m -22.51263,22.512629 c -5.651262,0.718469 -9.455305,3.758555 -9.455305,9.455305 0,5.696751 3.316203,8.254886 9.005052,8.5548 7.343928,0.387169 15.172738,0.457324 22.51263,0 5.956472,-0.37113 9.905557,-3.037028 9.905557,-9.005051 0,-5.968024 -3.603629,-9.763163 -9.905557,-9.905558 -7.328039,-0.165581 -14.430761,-0.06973 -22.062377,0.900504 z"
         sodipodi:nodetypes="ssscsssssssss" /></g></g></svg>
