<?xml version="1.0" encoding="UTF-8" standalone="no"?>
<!-- Created with Inkscape (http://www.inkscape.org/) -->

<svg
   enable-background="new"
   inkscape:export-ydpi="384"
   inkscape:export-xdpi="384"
   inkscape:export-filename="..\app\src\main\res\drawable-nodpi\splash.png"
   sodipodi:docname="splash_for_squabblr.svg"
   inkscape:version="1.3 (0e150ed6c4, 2023-07-21)"
   id="svg8"
   version="1.1"
   viewBox="0 0 128 128"
   height="128"
   width="128"
   xml:space="preserve"
   xmlns:inkscape="http://www.inkscape.org/namespaces/inkscape"
   xmlns:sodipodi="http://sodipodi.sourceforge.net/DTD/sodipodi-0.dtd"
   xmlns:xlink="http://www.w3.org/1999/xlink"
   xmlns="http://www.w3.org/2000/svg"
   xmlns:svg="http://www.w3.org/2000/svg"
   xmlns:rdf="http://www.w3.org/1999/02/22-rdf-syntax-ns#"
   xmlns:cc="http://creativecommons.org/ns#"
   xmlns:dc="http://purl.org/dc/elements/1.1/"><sodipodi:namedview
     id="base"
     pagecolor="#ffffff"
     bordercolor="#666666"
     borderopacity="1.0"
     inkscape:pageopacity="0.0"
     inkscape:pageshadow="2"
     inkscape:zoom="3.6209678"
     inkscape:cx="49.158129"
     inkscape:cy="106.60133"
     inkscape:document-units="px"
     inkscape:current-layer="g2579"
     showgrid="false"
     units="px"
     inkscape:pagecheckerboard="true"
     borderlayer="true"
     gridtolerance="10"
     inkscape:snap-smooth-nodes="true"
     inkscape:snap-text-baseline="true"
     inkscape:snap-page="true"
     showguides="true"
     inkscape:guide-bbox="true"
     inkscape:snap-object-midpoints="true"
     inkscape:snap-center="true"
     inkscape:snap-global="true"
     inkscape:lockguides="false"
     inkscape:snap-bbox="true"
     inkscape:bbox-nodes="true"
     inkscape:showpageshadow="0"
     inkscape:deskcolor="#d1d1d1"
     inkscape:window-width="1920"
     inkscape:window-height="1057"
     inkscape:window-x="-8"
     inkscape:window-y="-8"
     inkscape:window-maximized="1"><inkscape:grid
       enabled="false"
       empspacing="4"
       id="grid4131"
       type="xygrid"
       spacingx="8"
       spacingy="8"
       originx="0"
       originy="0"
       units="px"
       visible="false" /><inkscape:grid
       empspacing="4"
       id="grid4167"
       type="xygrid"
       originx="0"
       originy="0"
       spacingy="1"
       spacingx="1"
       units="px"
       visible="false" /></sodipodi:namedview><defs
     id="defs2"><clipPath
       clipPathUnits="userSpaceOnUse"
       id="clipPath2459-6"><path
         style="color:#000000;font-style:normal;font-variant:normal;font-weight:normal;font-stretch:normal;font-size:medium;line-height:normal;font-family:sans-serif;font-variant-ligatures:normal;font-variant-position:normal;font-variant-caps:normal;font-variant-numeric:normal;font-variant-alternates:normal;font-feature-settings:normal;text-indent:0;text-align:start;text-decoration:none;text-decoration-line:none;text-decoration-style:solid;text-decoration-color:#000000;letter-spacing:normal;word-spacing:normal;text-transform:none;writing-mode:lr-tb;direction:ltr;text-orientation:mixed;dominant-baseline:auto;baseline-shift:baseline;text-anchor:start;white-space:normal;shape-padding:0;clip-rule:nonzero;display:inline;overflow:visible;visibility:visible;opacity:1;isolation:auto;mix-blend-mode:normal;color-interpolation:sRGB;color-interpolation-filters:linearRGB;solid-color:#000000;solid-opacity:1;vector-effect:none;fill:#17a2c4;fill-opacity:1;fill-rule:nonzero;stroke:none;stroke-width:4;stroke-linecap:butt;stroke-linejoin:round;stroke-miterlimit:4;stroke-dasharray:none;stroke-dashoffset:0;stroke-opacity:1;paint-order:fill markers stroke;color-rendering:auto;image-rendering:auto;shape-rendering:auto;text-rendering:auto;enable-background:accumulate"
         d="m 64,6 c 32.056205,0 58,25.943795 58,58 0,32.056205 -25.943795,58 -58,58 C 31.943795,122 6,96.056205 6,64 6,31.943795 31.943795,6 64,6 Z"
         id="path2461-1"
         inkscape:connector-curvature="0" /></clipPath><filter
       id="filter265-4"
       inkscape:label="Drop Shadow red"
       style="color-interpolation-filters:sRGB"
       x="-0.030250676"
       y="-0.024044513"
       width="1.0865194"
       height="1.096163"><feFlood
         id="feFlood264-85"
         result="flood"
         flood-color="rgb(29,55,85)"
         flood-opacity="0.5" /><feComposite
         id="feComposite264-48"
         result="composite1"
         operator="in"
         in2="SourceGraphic"
         in="flood" /><feOffset
         id="feOffset264-40"
         result="offset"
         dy="4"
         dx="2" /><feComposite
         id="feComposite265-1"
         result="composite2"
         operator="over"
         in2="offset"
         in="SourceGraphic" /></filter></defs><metadata
     id="metadata5"><rdf:RDF><cc:Work
         rdf:about=""><dc:format>image/svg+xml</dc:format><dc:type
           rdf:resource="http://purl.org/dc/dcmitype/StillImage" /></cc:Work></rdf:RDF></metadata><style
     id="style2296">.B{fill:#fc9abf}.C{fill:#ffc7df}.D{fill:#ed84cb}.E{fill-opacity:1}.F{stroke:none}</style><g
     inkscape:groupmode="layer"
     id="layer1"
     inkscape:label="license plate only 1"><path
       inkscape:connector-curvature="0"
       id="path2554"
       d="M 64,2 C 29.782035,2 2,29.782035 2,64 2,98.217965 29.782035,126 64,126 98.217965,126 126,98.217965 126,64 126,29.782035 98.217965,2 64,2 Z"
       style="color:#000000;font-style:normal;font-variant:normal;font-weight:normal;font-stretch:normal;font-size:medium;line-height:normal;font-family:sans-serif;font-variant-ligatures:normal;font-variant-position:normal;font-variant-caps:normal;font-variant-numeric:normal;font-variant-alternates:normal;font-feature-settings:normal;text-indent:0;text-align:start;text-decoration:none;text-decoration-line:none;text-decoration-style:solid;text-decoration-color:#000000;letter-spacing:normal;word-spacing:normal;text-transform:none;writing-mode:lr-tb;direction:ltr;text-orientation:mixed;dominant-baseline:auto;baseline-shift:baseline;text-anchor:start;white-space:normal;shape-padding:0;clip-rule:nonzero;display:inline;overflow:visible;visibility:visible;isolation:auto;mix-blend-mode:normal;color-interpolation:sRGB;color-interpolation-filters:linearRGB;solid-color:#000000;solid-opacity:1;vector-effect:none;fill:#1d3755;fill-opacity:1;fill-rule:nonzero;stroke:none;stroke-width:4;stroke-linecap:butt;stroke-linejoin:round;stroke-miterlimit:4;stroke-dasharray:none;stroke-dashoffset:0;stroke-opacity:1;paint-order:fill markers stroke;color-rendering:auto;image-rendering:auto;shape-rendering:auto;text-rendering:auto;enable-background:accumulate" /><g
       clip-path="url(#clipPath2459-6)"
       id="g2579"
       inkscape:groupmode="maskhelper"><rect
         style="opacity:1;vector-effect:none;fill:#374d68;fill-opacity:1;fill-rule:nonzero;stroke:none;stroke-width:8;stroke-linecap:round;stroke-linejoin:miter;stroke-miterlimit:4;stroke-dasharray:none;stroke-dashoffset:0;stroke-opacity:1;paint-order:stroke fill markers"
         id="rect2556"
         width="128"
         height="128"
         x="0"
         y="0" /><path
         style="font-variation-settings:normal;opacity:1;vector-effect:none;fill:#418ac0;fill-opacity:1;stroke:#2467a0;stroke-width:4;stroke-linecap:round;stroke-linejoin:round;stroke-miterlimit:4;stroke-dasharray:none;stroke-dashoffset:0;stroke-opacity:1;-inkscape-stroke:none;paint-order:normal"
         d="m 32.065747,121.98156 c 0.741487,-8.23029 -0.137279,-19.45895 -2.871215,-29.12537 5.858435,2.636296 13.669681,7.81125 17.380024,15.23193 5.760794,-3.31977 9.69381,-11.8103 11.423948,-18.64935 6.053716,8.494731 6.93248,15.23193 7.420683,22.06677 6.703224,-1.17168 14.2097,-4.29619 21.188006,-10.25226 -1.757531,10.8381 -7.172948,18.28174 -13.282542,24.04878"
         id="path9"
         sodipodi:nodetypes="ccccccc" /><path
         style="font-variation-settings:normal;opacity:1;vector-effect:none;fill:#418ac0;fill-opacity:1;stroke:#2467a0;stroke-width:4;stroke-linecap:round;stroke-linejoin:round;stroke-miterlimit:4;stroke-dasharray:none;stroke-dashoffset:0;stroke-opacity:1;-inkscape-stroke:none;paint-order:normal"
         d="M 28.416826,84.166179 C 23.299483,77.416285 11.68709,79.362263 13.470983,69.422452 c 0.55566,-3.096125 3.983187,-4.850802 7.264466,-4.850802 5.865292,0 8.925031,9.969732 7.681377,19.594529 z"
         id="path10"
         sodipodi:nodetypes="cssc" /><path
         style="font-variation-settings:normal;opacity:1;vector-effect:none;fill:#418ac0;fill-opacity:1;stroke:#2467a0;stroke-width:4;stroke-linecap:round;stroke-linejoin:round;stroke-miterlimit:4;stroke-dasharray:none;stroke-dashoffset:0;stroke-opacity:1;-inkscape-stroke:none;paint-order:normal"
         d="m 102.36101,76.159407 c 6.26208,-5.703898 17.32514,-1.673591 17.38316,-11.772045 0.0181,-3.14554 -3.03214,-5.49565 -6.25843,-6.093827 -5.76701,-1.069241 -10.59296,8.175639 -11.12473,17.865872 z"
         id="path11"
         sodipodi:nodetypes="cssc" /><path
         style="font-variation-settings:normal;opacity:1;vector-effect:none;fill:#418ac0;fill-opacity:1;stroke:#2467a0;stroke-width:4;stroke-linecap:round;stroke-linejoin:round;stroke-miterlimit:4;stroke-dasharray:none;stroke-dashoffset:0;stroke-opacity:1;-inkscape-stroke:none;paint-order:normal"
         d="m 92.448605,92.536364 c 6.249732,-1.38091 12.034765,5.192044 15.835545,-1.238509 1.1839,-2.003035 0.0505,-4.606764 -1.85162,-6.154886 -3.40004,-2.767272 -10.023192,1.394855 -13.983925,7.393395 z"
         id="path12"
         sodipodi:nodetypes="cssc" /><use
         x="0"
         y="0"
         xlink:href="#g8"
         id="use8" /></g></g><style
     id="style2296-1">.B{fill:#fc9abf}.C{fill:#ffc7df}.D{fill:#ed84cb}.E{fill-opacity:1}.F{stroke:none}</style><style
     id="style2296-0">.B{fill:#fc9abf}.C{fill:#ffc7df}.D{fill:#ed84cb}.E{fill-opacity:1}.F{stroke:none}</style><style
     id="style2296-3">.B{fill:#fc9abf}.C{fill:#ffc7df}.D{fill:#ed84cb}.E{fill-opacity:1}.F{stroke:none}</style><style
     id="style2296-08">.B{fill:#fc9abf}.C{fill:#ffc7df}.D{fill:#ed84cb}.E{fill-opacity:1}.F{stroke:none}</style><style
     id="style2296-6">.B{fill:#fc9abf}.C{fill:#ffc7df}.D{fill:#ed84cb}.E{fill-opacity:1}.F{stroke:none}</style><g
     inkscape:groupmode="layer"
     id="layer2"
     inkscape:label="Layer 1"
     style="display:none"><g
       id="g8"
       style="paint-order:fill markers stroke;filter:url(#filter265-4)"><path
         style="font-variation-settings:normal;opacity:1;vector-effect:none;fill:#ff8090;fill-opacity:1;stroke:#d5425d;stroke-width:4;stroke-linecap:round;stroke-linejoin:round;stroke-miterlimit:4;stroke-dasharray:none;stroke-dashoffset:0;stroke-opacity:1;-inkscape-stroke:none;paint-order:fill markers stroke"
         d="m 48.704652,65.601763 c -2.998477,1.849397 -9.675432,4.432119 -13.428898,4.040551 -0.130936,-5.003371 0.867977,-9.70993 4.308011,-13.990364 3.17896,-3.955581 9.878151,-6.614563 9.878151,-6.614563 l 8.552861,8.205267 c -2.613655,3.250169 -5.539918,6.033725 -9.310125,8.359109 z"
         id="path5"
         sodipodi:nodetypes="scsccs" /><path
         style="font-variation-settings:normal;opacity:1;vector-effect:none;fill:#ff8090;fill-opacity:1;stroke:none;stroke-width:4;stroke-linecap:round;stroke-linejoin:round;stroke-miterlimit:4;stroke-dasharray:none;stroke-dashoffset:0;stroke-opacity:1;-inkscape-stroke:none;paint-order:fill markers stroke"
         d="M 45.113376,55.42814 C 37.210204,57.011706 28.41828,52.892732 28.41828,46.528186 c 0,-8.614061 7.406795,-10.090757 11.110192,-10.336873 1.728252,-7.137366 10.8633,-16.735892 28.392714,-12.059687 5.583188,-4.986841 14.628704,-4.837272 16.36049,-1.116774 1.30538,2.804425 -0.702083,4.738775 -4.015831,7.269675 13.711092,8.180342 24.691855,39.256904 -2.392833,59.507761 0.377882,6.403762 -0.228816,11.034822 -2.917641,13.701762 -2.938595,-0.74083 -6.642346,-2.81895 -10.431513,-9.70781 -7.879052,1.169783 -13.481136,0.236049 -14.753127,-1.75273 0.702628,-2.661137 5.152564,-5.641572 11.031957,-7.87154 1.008979,-2.375077 1.352578,-6.805913 1.352578,-9.938458"
         id="path6"
         sodipodi:nodetypes="csccsccccccc" /><path
         style="font-variation-settings:normal;opacity:1;vector-effect:none;fill:#ffffff;fill-opacity:1;stroke:none;stroke-width:4;stroke-linecap:round;stroke-linejoin:round;stroke-miterlimit:4;stroke-dasharray:none;stroke-dashoffset:0;stroke-opacity:1;-inkscape-stroke:none;paint-order:fill markers stroke"
         d="M 68.075723,85.612471 C 71.53666,78.102922 67.818229,57.661482 52.732871,51.459252 c -1.081005,1.364301 -2.103798,3.747863 -7.626452,3.97028 7.619494,3.643018 21.653856,15.439091 22.969304,30.182939 z"
         id="path7"
         sodipodi:nodetypes="cccc" /><path
         style="font-variation-settings:normal;opacity:1;vector-effect:none;fill:#ff8090;fill-opacity:1;stroke:none;stroke-width:4;stroke-linecap:round;stroke-linejoin:round;stroke-miterlimit:4;stroke-dasharray:none;stroke-dashoffset:0;stroke-opacity:1;-inkscape-stroke:none;paint-order:fill markers stroke"
         d="m 50.900442,76.606221 c 6.794701,0.543204 11.263448,-2.075864 17.058169,-6.674549 5.16645,-5.18039 2.000824,-17.240379 -7.202794,-15.042672 -3.547283,0.847046 -7.14722,3.446614 -8.690817,7.03 -1.810643,4.203319 -2.003472,10.570222 -1.164558,14.687221 z"
         id="path8"
         sodipodi:nodetypes="ccssc" /><path
         style="font-variation-settings:normal;opacity:1;vector-effect:none;fill:none;fill-opacity:1;stroke:#d5425d;stroke-width:4;stroke-linecap:round;stroke-linejoin:round;stroke-miterlimit:4;stroke-dasharray:none;stroke-dashoffset:0;stroke-opacity:1;-inkscape-stroke:none;paint-order:fill markers stroke"
         d="m 45.02352,55.599714 c 1.75851,1.047736 4.933489,2.957112 7.408609,4.99255 -2.798119,4.381178 -2.370601,11.896958 -1.531687,16.013957 6.794701,0.543204 11.263448,-2.075864 17.058169,-6.674549"
         id="path2"
         sodipodi:nodetypes="cccc" /><path
         style="font-variation-settings:normal;opacity:1;vector-effect:none;fill:none;fill-opacity:1;stroke:#d5425d;stroke-width:4;stroke-linecap:round;stroke-linejoin:round;stroke-miterlimit:4;stroke-dasharray:none;stroke-dashoffset:0;stroke-opacity:1;-inkscape-stroke:none;paint-order:fill markers stroke"
         d="m 52.732871,51.459252 c -8.20943,8.183591 -24.314591,3.682996 -24.314591,-4.931066 0,-8.614061 7.406795,-10.090757 11.110192,-10.336873 1.728252,-7.137366 10.8633,-16.735892 28.392714,-12.059687 5.583188,-4.986841 14.628704,-4.837272 16.36049,-1.116774 1.30538,2.804425 -1.531337,5.391389 -5.674339,8.574903"
         id="path1"
         sodipodi:nodetypes="csccsc" /><path
         style="font-variation-settings:normal;opacity:1;vector-effect:none;fill:none;fill-opacity:1;stroke:#d5425d;stroke-width:4;stroke-linecap:round;stroke-linejoin:round;stroke-miterlimit:4;stroke-dasharray:none;stroke-dashoffset:0;stroke-opacity:1;-inkscape-stroke:none;paint-order:fill markers stroke"
         d="m 80.265845,30.284527 c 12.881838,8.832956 24.691855,39.256904 -2.392833,59.507761 0.377882,6.403762 -0.228816,11.034822 -2.917641,13.701762 -2.938595,-0.74083 -6.642346,-2.81895 -10.431513,-9.70781 -7.879052,1.169783 -13.481136,0.236049 -14.753127,-1.75273 0.702628,-2.661137 5.152564,-5.641572 11.031957,-7.87154 1.008979,-2.375077 1.352578,-6.805913 1.352578,-9.938458"
         id="path3"
         sodipodi:nodetypes="ccccccc" /><ellipse
         style="font-variation-settings:normal;opacity:1;vector-effect:none;fill:#373737;fill-opacity:1;stroke:none;stroke-width:4.00001;stroke-linecap:round;stroke-linejoin:round;stroke-miterlimit:4;stroke-dasharray:none;stroke-dashoffset:0;stroke-opacity:1;-inkscape-stroke:none;paint-order:fill markers stroke"
         id="path4"
         cx="74.505028"
         cy="20.213936"
         rx="2.4249644"
         ry="3.354449"
         transform="matrix(0.94612835,0.32379182,-0.32562329,0.94549959,0,0)" /></g></g></svg>
