<?xml version="1.0" encoding="UTF-8" standalone="no"?>
<svg
   height="128"
   width="128"
   version="1.1"
   id="svg2"
   sodipodi:docname="suntimes.svg"
   inkscape:version="1.3 (0e150ed6c4, 2023-07-21)"
   inkscape:export-filename="..\app\src\main\res\drawable-nodpi\suntimes.png"
   inkscape:export-xdpi="384"
   inkscape:export-ydpi="384"
   xml:space="preserve"
   xmlns:inkscape="http://www.inkscape.org/namespaces/inkscape"
   xmlns:sodipodi="http://sodipodi.sourceforge.net/DTD/sodipodi-0.dtd"
   xmlns="http://www.w3.org/2000/svg"
   xmlns:svg="http://www.w3.org/2000/svg"><defs
     id="defs2"><inkscape:path-effect
       effect="mirror_symmetry"
       start_point="60,-4"
       end_point="60,124"
       center_point="60,60"
       id="path-effect45"
       is_visible="true"
       lpeversion="1.2"
       lpesatellites=""
       mode="vertical"
       discard_orig_path="false"
       fuse_paths="false"
       oposite_fuse="false"
       split_items="false"
       split_open="false"
       link_styles="false" /><inkscape:path-effect
       effect="copy_rotate"
       starting_point="0,0"
       origin="64,64"
       id="path-effect29"
       is_visible="true"
       lpeversion="1.2"
       lpesatellites="#path30 | #path31 | #path32 | #path33 | #path34 | #path35 | #path36 | #path37 | #path38 | #path39 | #path40 | #path41"
       method="normal"
       num_copies="13"
       starting_angle="180"
       rotation_angle="27.692308"
       gap="-0.01"
       copies_to_360="true"
       mirror_copies="false"
       split_items="true"
       link_styles="false" /><inkscape:path-effect
       effect="copy_rotate"
       starting_point="100.08489,103.16916"
       origin="64,64"
       id="path-effect1"
       is_visible="true"
       lpeversion="1.2"
       lpesatellites="#path17 | #path18 | #path19 | #path20 | #path21 | #path22 | #path23 | #path24 | #path25 | #path26 | #path27 | #path28"
       method="normal"
       num_copies="13"
       starting_angle="0"
       rotation_angle="27.692308"
       gap="0"
       copies_to_360="true"
       mirror_copies="false"
       split_items="true"
       link_styles="false" /><inkscape:path-effect
       effect="taper_stroke"
       id="path-effect8"
       is_visible="true"
       lpeversion="1"
       stroke_width="4"
       subpath="1"
       attach_start="0.5"
       end_offset="0"
       start_smoothing="0.5"
       end_smoothing="0.5"
       jointype="extrapolated"
       start_shape=""
       end_shape=""
       miter_limit="100" /><inkscape:path-effect
       effect="powerstroke"
       id="path-effect6"
       is_visible="true"
       lpeversion="1.3"
       scale_width="0.5"
       interpolator_type="CentripetalCatmullRom"
       interpolator_beta="0.19587629"
       start_linecap_type="zerowidth"
       end_linecap_type="zerowidth"
       offset_points="0.031852875,1.5571416 | 0.75469276,6.7799172 | 0.95414961,4.6784469"
       linejoin_type="round"
       miter_limit="4"
       not_jump="false"
       sort_points="true"
       message="&lt;b&gt;Ctrl + click&lt;/b&gt; on existing node and move it" /><inkscape:perspective
       sodipodi:type="inkscape:persp3d"
       inkscape:vp_x="-60 : 21.333333 : 0"
       inkscape:vp_y="0 : 81.333333 : 0"
       inkscape:vp_z="63.679754 : 0 : 0"
       inkscape:persp3d-origin="64 : 42.666667 : 1"
       id="perspective22" /><inkscape:path-effect
       effect="bspline"
       id="path-effect32"
       is_visible="true"
       lpeversion="1.3"
       weight="33.333333"
       steps="2"
       helper_size="0"
       apply_no_weight="true"
       apply_with_weight="true"
       only_selected="false"
       uniform="false" /><inkscape:path-effect
       effect="spiro"
       id="path-effect28"
       is_visible="true"
       lpeversion="1" /><inkscape:path-effect
       effect="fill_between_many"
       method="bsplinespiro"
       autoreverse="false"
       close="false"
       join="false"
       linkedpaths="#path6,0,1"
       id="path-effect7" /><inkscape:path-effect
       effect="fill_between_many"
       method="bsplinespiro"
       autoreverse="false"
       close="false"
       join="false"
       linkedpaths="#path6,0,1"
       id="path-effect9" /><filter
       style="color-interpolation-filters:sRGB;"
       inkscape:label="Drop Shadow"
       id="filter9"
       x="-0.031731474"
       y="-0.075633645"
       width="1.095195"
       height="1.3025346"><feFlood
         result="flood"
         in="SourceGraphic"
         flood-opacity="0.5"
         flood-color="rgb(55,55,55)"
         id="feFlood8" /><feGaussianBlur
         result="blur"
         in="SourceGraphic"
         stdDeviation="0.000000"
         id="feGaussianBlur8" /><feOffset
         result="offset"
         in="blur"
         dx="2.000000"
         dy="4.000000"
         id="feOffset8" /><feComposite
         result="comp1"
         operator="in"
         in="flood"
         in2="offset"
         id="feComposite8" /><feComposite
         result="comp2"
         operator="over"
         in="SourceGraphic"
         in2="comp1"
         id="feComposite9" /></filter><clipPath
       clipPathUnits="userSpaceOnUse"
       id="clipPath9"><circle
         r="60"
         cy="64"
         cx="64"
         fill="#8af19d"
         paint-order="fill markers stroke"
         stroke="#00c853"
         stroke-width="4"
         id="circle10"
         style="display:inline;fill:none;fill-opacity:1;stroke:#373737" /></clipPath></defs><sodipodi:namedview
     id="namedview2"
     pagecolor="#ffffff"
     bordercolor="#666666"
     borderopacity="1.0"
     inkscape:showpageshadow="2"
     inkscape:pageopacity="0.0"
     inkscape:pagecheckerboard="0"
     inkscape:deskcolor="#d1d1d1"
     inkscape:zoom="1.2334311"
     inkscape:cx="-72.156442"
     inkscape:cy="-14.998811"
     inkscape:window-width="1920"
     inkscape:window-height="1057"
     inkscape:window-x="-8"
     inkscape:window-y="-8"
     inkscape:window-maximized="1"
     inkscape:current-layer="svg2"
     showguides="false"><sodipodi:guide
       position="64,64"
       orientation="-1,0"
       id="guide66"
       inkscape:locked="false"
       inkscape:label=""
       inkscape:color="rgb(0,134,229)" /><sodipodi:guide
       position="64,64"
       orientation="0,1"
       id="guide96"
       inkscape:label=""
       inkscape:locked="false"
       inkscape:color="rgb(0,134,229)" /><sodipodi:guide
       position="64,16"
       orientation="0,1"
       id="guide41"
       inkscape:locked="false"
       inkscape:label=""
       inkscape:color="rgb(0,134,229)" /></sodipodi:namedview><circle
     r="60"
     cy="64"
     cx="64"
     fill="#8af19d"
     paint-order="fill markers stroke"
     stroke="#00c853"
     stroke-width="4"
     id="circle94"
     style="display:inline;fill:#4c4c4c;fill-opacity:1;stroke:none" /><g
     id="g44"
     clip-path="url(#clipPath9)"><g
       id="g2"
       style="display:inline;filter:url(#filter9)"><path
         style="display:inline;fill:#ff8090;fill-rule:evenodd;stroke:#d5425d;stroke-width:4;stroke-linecap:round;stroke-linejoin:round;stroke-dasharray:none;paint-order:normal"
         id="path1"
         sodipodi:type="arc"
         sodipodi:cx="64"
         sodipodi:cy="64"
         sodipodi:rx="32"
         sodipodi:ry="32"
         sodipodi:start="0.17453293"
         sodipodi:end="2.9670597"
         sodipodi:arc-type="chord"
         d="M 95.513848,69.556742 A 32,32 0 0 1 64,96 32,32 0 0 1 32.486152,69.556743 Z"
         sodipodi:open="true" /><g
         id="g29"
         style="display:inline"><path
           style="display:none;fill:#d5425d;fill-rule:evenodd;stroke:none;stroke-width:8;stroke-linecap:round;stroke-linejoin:round;paint-order:stroke fill markers"
           d="M 68,32 H 60 C 60,16 56,4 56,4 h 16 c 0,0 -4,12.51292 -4,28 z"
           id="path29"
           sodipodi:nodetypes="ccccc"
           inkscape:path-effect="#path-effect29"
           inkscape:original-d="m 60,96 h 8 c 0,16 4,28 4,28 H 56 c 0,0 4,-12.51292 4,-28 z" /><path
           style="display:none;fill:#d5425d;fill-rule:evenodd;stroke:none;stroke-width:8;stroke-linecap:round;stroke-linejoin:round;paint-order:stroke fill markers"
           id="path30"
           d="M 68,32 H 60 C 60,16 56,4 56,4 h 16 c 0,0 -4,12.51292 -4,28 z"
           transform="rotate(-27.692308,64,64)" /><path
           style="display:none;fill:#d5425d;fill-rule:evenodd;stroke:none;stroke-width:8;stroke-linecap:round;stroke-linejoin:round;paint-order:stroke fill markers"
           id="path31"
           d="M 68,32 H 60 C 60,16 56,4 56,4 h 16 c 0,0 -4,12.51292 -4,28 z"
           transform="rotate(-55.384615,64,64)" /><path
           style="display:none;fill:#d5425d;fill-rule:evenodd;stroke:none;stroke-width:8;stroke-linecap:round;stroke-linejoin:round;paint-order:stroke fill markers"
           id="path32"
           d="M 68,32 H 60 C 60,16 56,4 56,4 h 16 c 0,0 -4,12.51292 -4,28 z"
           transform="rotate(-83.076923,64,64)" /><path
           style="fill:#d5425d;fill-rule:evenodd;stroke:none;stroke-width:8;stroke-linecap:round;stroke-linejoin:round;paint-order:stroke fill markers"
           id="path33"
           d="M 68,32 H 60 C 60,16 56,4 56,4 h 16 c 0,0 -4,12.51292 -4,28 z"
           transform="rotate(-110.76923,64,64)" /><path
           style="fill:#d5425d;fill-rule:evenodd;stroke:none;stroke-width:8;stroke-linecap:round;stroke-linejoin:round;paint-order:stroke fill markers"
           id="path34"
           d="M 68,32 H 60 C 60,16 56,4 56,4 h 16 c 0,0 -4,12.51292 -4,28 z"
           transform="rotate(-138.46154,64,64)" /><path
           style="fill:#d5425d;fill-rule:evenodd;stroke:none;stroke-width:8;stroke-linecap:round;stroke-linejoin:round;paint-order:stroke fill markers"
           id="path35"
           d="M 68,32 H 60 C 60,16 56,4 56,4 h 16 c 0,0 -4,12.51292 -4,28 z"
           transform="rotate(-166.15385,64,64)" /><path
           style="fill:#d5425d;fill-rule:evenodd;stroke:none;stroke-width:8;stroke-linecap:round;stroke-linejoin:round;paint-order:stroke fill markers"
           id="path36"
           d="M 68,32 H 60 C 60,16 56,4 56,4 h 16 c 0,0 -4,12.51292 -4,28 z"
           transform="rotate(166.15385,64,64)" /><path
           style="fill:#d5425d;fill-rule:evenodd;stroke:none;stroke-width:8;stroke-linecap:round;stroke-linejoin:round;paint-order:stroke fill markers"
           id="path37"
           d="M 68,32 H 60 C 60,16 56,4 56,4 h 16 c 0,0 -4,12.51292 -4,28 z"
           transform="rotate(138.46154,64,64)" /><path
           style="fill:#d5425d;fill-rule:evenodd;stroke:none;stroke-width:8;stroke-linecap:round;stroke-linejoin:round;paint-order:stroke fill markers"
           id="path38"
           d="M 68,32 H 60 C 60,16 56,4 56,4 h 16 c 0,0 -4,12.51292 -4,28 z"
           transform="rotate(110.76923,64,64)" /><path
           style="display:none;fill:#d5425d;fill-rule:evenodd;stroke:none;stroke-width:8;stroke-linecap:round;stroke-linejoin:round;paint-order:stroke fill markers"
           id="path39"
           d="M 68,32 H 60 C 60,16 56,4 56,4 h 16 c 0,0 -4,12.51292 -4,28 z"
           transform="rotate(83.076923,64,64)" /><path
           style="display:none;fill:#d5425d;fill-rule:evenodd;stroke:none;stroke-width:8;stroke-linecap:round;stroke-linejoin:round;paint-order:stroke fill markers"
           id="path40"
           d="M 68,32 H 60 C 60,16 56,4 56,4 h 16 c 0,0 -4,12.51292 -4,28 z"
           transform="rotate(55.384615,64,64)" /><path
           style="display:none;fill:#d5425d;fill-rule:evenodd;stroke:none;stroke-width:8;stroke-linecap:round;stroke-linejoin:round;paint-order:stroke fill markers"
           id="path41"
           d="M 68,32 H 60 C 60,16 56,4 56,4 h 16 c 0,0 -4,12.51292 -4,28 z"
           transform="rotate(27.692308,64,64)" /></g><path
         id="path42"
         style="display:inline;fill:#ff8090;fill-rule:evenodd;stroke:#d5425d;stroke-width:4;stroke-linecap:round;stroke-linejoin:round;stroke-dasharray:none;paint-order:normal"
         d="M 34.335938,75.837891 A 32,32 0 0 0 64,96 32,32 0 0 0 93.664062,75.837891 c -3.558198,1.37655 -7.676876,2.308553 -12.521484,3.007812 -10.820361,1.561785 -23.464795,1.561785 -34.285156,0 -4.844608,-0.699259 -8.963287,-1.631262 -12.521484,-3.007812 z" /></g><path
       style="display:inline;fill:none;fill-rule:evenodd;stroke:#4c4c4c;stroke-width:12.4;stroke-linecap:round;stroke-linejoin:round;stroke-dasharray:none;stroke-opacity:1;paint-order:normal"
       id="path3"
       sodipodi:type="arc"
       sodipodi:cx="64"
       sodipodi:cy="64"
       sodipodi:rx="32"
       sodipodi:ry="8"
       sodipodi:start="0"
       sodipodi:end="3.1415927"
       sodipodi:arc-type="arc"
       d="m 96,64 a 32,8 0 0 1 -16,6.928203 32,8 0 0 1 -32.000001,0 A 32,8 0 0 1 32,64"
       sodipodi:open="true" /><g
       id="g1"
       style="display:inline;filter:url(#filter9)"><path
         id="circle1"
         style="fill:#f8c365;fill-rule:evenodd;stroke:#f08117;stroke-width:4;stroke-linecap:round;stroke-linejoin:round;stroke-dasharray:none;paint-order:normal"
         d="m 64,32 a 32,32 0 0 0 -32,32 32,8 0 0 0 16,6.927734 32,8 0 0 0 32,0 A 32,8 0 0 0 96,64 32,32 0 0 0 64,32 Z" /><path
         inkscape:original-d="M 0,0"
         inkscape:path-effect="#path-effect7"
         d="M 64,26 V 10"
         id="path7"
         style="fill:#ff8090" /><g
         id="g17"><path
           style="fill:#f08117;fill-opacity:1;fill-rule:nonzero;stroke:none;stroke-width:6.72258;stroke-linecap:round;stroke-linejoin:round;stroke-dasharray:none;stroke-opacity:1;paint-order:stroke fill markers;image-rendering:auto"
           d="m 64,26 c 0.129762,-0.08494 0.522475,-0.14059 0.778571,-0.509646 0.914141,-1.317358 2.73837,-8.92205 2.611388,-11.565438 -0.0676,-1.407149 -0.397082,-2.546856 -1.050736,-3.19131 C 65.780869,10.18311 64.389871,10.122268 64,10 c -0.389871,0.122268 -1.780869,0.18311 -2.339223,0.733606 -0.653654,0.644454 -0.983139,1.784161 -1.050736,3.19131 -0.126982,2.643388 1.697247,10.24808 2.611388,11.565438 C 63.477525,25.85941 63.870238,25.915059 64,26 Z"
           id="path6"
           inkscape:linked-fill="path9"
           sodipodi:nodetypes="cc"
           inkscape:original-d="M 64,26 V 10"
           inkscape:path-effect="#path-effect6;#path-effect1" /><path
           style="fill:#f08117;fill-opacity:1;fill-rule:nonzero;stroke:none;stroke-width:6.72258;stroke-linecap:round;stroke-linejoin:round;stroke-dasharray:none;stroke-opacity:1;paint-order:stroke fill markers;image-rendering:auto"
           id="path17"
           d="m 64,26 c 0.129762,-0.08494 0.522475,-0.14059 0.778571,-0.509646 0.914141,-1.317358 2.73837,-8.92205 2.611388,-11.565438 -0.0676,-1.407149 -0.397082,-2.546856 -1.050736,-3.19131 C 65.780869,10.18311 64.389871,10.122268 64,10 c -0.389871,0.122268 -1.780869,0.18311 -2.339223,0.733606 -0.653654,0.644454 -0.983139,1.784161 -1.050736,3.19131 -0.126982,2.643388 1.697247,10.24808 2.611388,11.565438 C 63.477525,25.85941 63.870238,25.915059 64,26 Z"
           transform="rotate(-27.692308,64,64)" /><path
           style="fill:#f08117;fill-opacity:1;fill-rule:nonzero;stroke:none;stroke-width:6.72258;stroke-linecap:round;stroke-linejoin:round;stroke-dasharray:none;stroke-opacity:1;paint-order:stroke fill markers;image-rendering:auto"
           id="path18"
           d="m 64,26 c 0.129762,-0.08494 0.522475,-0.14059 0.778571,-0.509646 0.914141,-1.317358 2.73837,-8.92205 2.611388,-11.565438 -0.0676,-1.407149 -0.397082,-2.546856 -1.050736,-3.19131 C 65.780869,10.18311 64.389871,10.122268 64,10 c -0.389871,0.122268 -1.780869,0.18311 -2.339223,0.733606 -0.653654,0.644454 -0.983139,1.784161 -1.050736,3.19131 -0.126982,2.643388 1.697247,10.24808 2.611388,11.565438 C 63.477525,25.85941 63.870238,25.915059 64,26 Z"
           transform="rotate(-55.384615,64,64)" /><path
           style="fill:#f08117;fill-opacity:1;fill-rule:nonzero;stroke:none;stroke-width:6.72258;stroke-linecap:round;stroke-linejoin:round;stroke-dasharray:none;stroke-opacity:1;paint-order:stroke fill markers;image-rendering:auto"
           id="path19"
           d="m 64,26 c 0.129762,-0.08494 0.522475,-0.14059 0.778571,-0.509646 0.914141,-1.317358 2.73837,-8.92205 2.611388,-11.565438 -0.0676,-1.407149 -0.397082,-2.546856 -1.050736,-3.19131 C 65.780869,10.18311 64.389871,10.122268 64,10 c -0.389871,0.122268 -1.780869,0.18311 -2.339223,0.733606 -0.653654,0.644454 -0.983139,1.784161 -1.050736,3.19131 -0.126982,2.643388 1.697247,10.24808 2.611388,11.565438 C 63.477525,25.85941 63.870238,25.915059 64,26 Z"
           transform="rotate(-83.076923,64,64)" /><path
           style="display:none;fill:#f08117;fill-opacity:1;fill-rule:nonzero;stroke:none;stroke-width:6.72258;stroke-linecap:round;stroke-linejoin:round;stroke-dasharray:none;stroke-opacity:1;paint-order:stroke fill markers;image-rendering:auto"
           id="path20"
           d="m 64,26 c 0.129762,-0.08494 0.522475,-0.14059 0.778571,-0.509646 0.914141,-1.317358 2.73837,-8.92205 2.611388,-11.565438 -0.0676,-1.407149 -0.397082,-2.546856 -1.050736,-3.19131 C 65.780869,10.18311 64.389871,10.122268 64,10 c -0.389871,0.122268 -1.780869,0.18311 -2.339223,0.733606 -0.653654,0.644454 -0.983139,1.784161 -1.050736,3.19131 -0.126982,2.643388 1.697247,10.24808 2.611388,11.565438 C 63.477525,25.85941 63.870238,25.915059 64,26 Z"
           transform="rotate(-110.76923,64,64)" /><path
           style="display:none;fill:#f08117;fill-opacity:1;fill-rule:nonzero;stroke:none;stroke-width:6.72258;stroke-linecap:round;stroke-linejoin:round;stroke-dasharray:none;stroke-opacity:1;paint-order:stroke fill markers;image-rendering:auto"
           id="path21"
           d="m 64,26 c 0.129762,-0.08494 0.522475,-0.14059 0.778571,-0.509646 0.914141,-1.317358 2.73837,-8.92205 2.611388,-11.565438 -0.0676,-1.407149 -0.397082,-2.546856 -1.050736,-3.19131 C 65.780869,10.18311 64.389871,10.122268 64,10 c -0.389871,0.122268 -1.780869,0.18311 -2.339223,0.733606 -0.653654,0.644454 -0.983139,1.784161 -1.050736,3.19131 -0.126982,2.643388 1.697247,10.24808 2.611388,11.565438 C 63.477525,25.85941 63.870238,25.915059 64,26 Z"
           transform="rotate(-138.46154,64,64)" /><path
           style="display:none;fill:#f08117;fill-opacity:1;fill-rule:nonzero;stroke:none;stroke-width:6.72258;stroke-linecap:round;stroke-linejoin:round;stroke-dasharray:none;stroke-opacity:1;paint-order:stroke fill markers;image-rendering:auto"
           id="path22"
           d="m 64,26 c 0.129762,-0.08494 0.522475,-0.14059 0.778571,-0.509646 0.914141,-1.317358 2.73837,-8.92205 2.611388,-11.565438 -0.0676,-1.407149 -0.397082,-2.546856 -1.050736,-3.19131 C 65.780869,10.18311 64.389871,10.122268 64,10 c -0.389871,0.122268 -1.780869,0.18311 -2.339223,0.733606 -0.653654,0.644454 -0.983139,1.784161 -1.050736,3.19131 -0.126982,2.643388 1.697247,10.24808 2.611388,11.565438 C 63.477525,25.85941 63.870238,25.915059 64,26 Z"
           transform="rotate(-166.15385,64,64)" /><path
           style="display:none;fill:#f08117;fill-opacity:1;fill-rule:nonzero;stroke:none;stroke-width:6.72258;stroke-linecap:round;stroke-linejoin:round;stroke-dasharray:none;stroke-opacity:1;paint-order:stroke fill markers;image-rendering:auto"
           id="path23"
           d="m 64,26 c 0.129762,-0.08494 0.522475,-0.14059 0.778571,-0.509646 0.914141,-1.317358 2.73837,-8.92205 2.611388,-11.565438 -0.0676,-1.407149 -0.397082,-2.546856 -1.050736,-3.19131 C 65.780869,10.18311 64.389871,10.122268 64,10 c -0.389871,0.122268 -1.780869,0.18311 -2.339223,0.733606 -0.653654,0.644454 -0.983139,1.784161 -1.050736,3.19131 -0.126982,2.643388 1.697247,10.24808 2.611388,11.565438 C 63.477525,25.85941 63.870238,25.915059 64,26 Z"
           transform="rotate(166.15385,64,64)" /><path
           style="display:none;fill:#f08117;fill-opacity:1;fill-rule:nonzero;stroke:none;stroke-width:6.72258;stroke-linecap:round;stroke-linejoin:round;stroke-dasharray:none;stroke-opacity:1;paint-order:stroke fill markers;image-rendering:auto"
           id="path24"
           d="m 64,26 c 0.129762,-0.08494 0.522475,-0.14059 0.778571,-0.509646 0.914141,-1.317358 2.73837,-8.92205 2.611388,-11.565438 -0.0676,-1.407149 -0.397082,-2.546856 -1.050736,-3.19131 C 65.780869,10.18311 64.389871,10.122268 64,10 c -0.389871,0.122268 -1.780869,0.18311 -2.339223,0.733606 -0.653654,0.644454 -0.983139,1.784161 -1.050736,3.19131 -0.126982,2.643388 1.697247,10.24808 2.611388,11.565438 C 63.477525,25.85941 63.870238,25.915059 64,26 Z"
           transform="rotate(138.46154,64,64)" /><path
           style="display:none;fill:#f08117;fill-opacity:1;fill-rule:nonzero;stroke:none;stroke-width:6.72258;stroke-linecap:round;stroke-linejoin:round;stroke-dasharray:none;stroke-opacity:1;paint-order:stroke fill markers;image-rendering:auto"
           id="path25"
           d="m 64,26 c 0.129762,-0.08494 0.522475,-0.14059 0.778571,-0.509646 0.914141,-1.317358 2.73837,-8.92205 2.611388,-11.565438 -0.0676,-1.407149 -0.397082,-2.546856 -1.050736,-3.19131 C 65.780869,10.18311 64.389871,10.122268 64,10 c -0.389871,0.122268 -1.780869,0.18311 -2.339223,0.733606 -0.653654,0.644454 -0.983139,1.784161 -1.050736,3.19131 -0.126982,2.643388 1.697247,10.24808 2.611388,11.565438 C 63.477525,25.85941 63.870238,25.915059 64,26 Z"
           transform="rotate(110.76923,64,64)" /><path
           style="fill:#f08117;fill-opacity:1;fill-rule:nonzero;stroke:none;stroke-width:6.72258;stroke-linecap:round;stroke-linejoin:round;stroke-dasharray:none;stroke-opacity:1;paint-order:stroke fill markers;image-rendering:auto"
           id="path26"
           d="m 64,26 c 0.129762,-0.08494 0.522475,-0.14059 0.778571,-0.509646 0.914141,-1.317358 2.73837,-8.92205 2.611388,-11.565438 -0.0676,-1.407149 -0.397082,-2.546856 -1.050736,-3.19131 C 65.780869,10.18311 64.389871,10.122268 64,10 c -0.389871,0.122268 -1.780869,0.18311 -2.339223,0.733606 -0.653654,0.644454 -0.983139,1.784161 -1.050736,3.19131 -0.126982,2.643388 1.697247,10.24808 2.611388,11.565438 C 63.477525,25.85941 63.870238,25.915059 64,26 Z"
           transform="rotate(83.076923,64,64)" /><path
           style="fill:#f08117;fill-opacity:1;fill-rule:nonzero;stroke:none;stroke-width:6.72258;stroke-linecap:round;stroke-linejoin:round;stroke-dasharray:none;stroke-opacity:1;paint-order:stroke fill markers;image-rendering:auto"
           id="path27"
           d="m 64,26 c 0.129762,-0.08494 0.522475,-0.14059 0.778571,-0.509646 0.914141,-1.317358 2.73837,-8.92205 2.611388,-11.565438 -0.0676,-1.407149 -0.397082,-2.546856 -1.050736,-3.19131 C 65.780869,10.18311 64.389871,10.122268 64,10 c -0.389871,0.122268 -1.780869,0.18311 -2.339223,0.733606 -0.653654,0.644454 -0.983139,1.784161 -1.050736,3.19131 -0.126982,2.643388 1.697247,10.24808 2.611388,11.565438 C 63.477525,25.85941 63.870238,25.915059 64,26 Z"
           transform="rotate(55.384615,64,64)" /><path
           style="display:inline;fill:#f08117;fill-opacity:1;fill-rule:nonzero;stroke:none;stroke-width:6.72258;stroke-linecap:round;stroke-linejoin:round;stroke-dasharray:none;stroke-opacity:1;paint-order:stroke fill markers;image-rendering:auto"
           id="path28"
           d="m 64,26 c 0.129762,-0.08494 0.522475,-0.14059 0.778571,-0.509646 0.914141,-1.317358 2.73837,-8.92205 2.611388,-11.565438 -0.0676,-1.407149 -0.397082,-2.546856 -1.050736,-3.19131 C 65.780869,10.18311 64.389871,10.122268 64,10 c -0.389871,0.122268 -1.780869,0.18311 -2.339223,0.733606 -0.653654,0.644454 -0.983139,1.784161 -1.050736,3.19131 -0.126982,2.643388 1.697247,10.24808 2.611388,11.565438 C 63.477525,25.85941 63.870238,25.915059 64,26 Z"
           transform="rotate(27.692308,64,64)" /></g></g></g><g
     id="g4129"
     transform="translate(23.999814,7)"
     style="display:inline"><ellipse
       style="opacity:1;vector-effect:none;fill:#f08117;fill-opacity:1;fill-rule:nonzero;stroke:none;stroke-width:4;stroke-linecap:round;stroke-linejoin:round;stroke-miterlimit:4;stroke-dasharray:none;stroke-dashoffset:0;stroke-opacity:1;paint-order:stroke fill markers"
       id="ellipse4109"
       cx="27"
       cy="50"
       rx="4"
       ry="2.5" /><circle
       r="2"
       cy="48"
       cx="30"
       id="path4093"
       style="opacity:1;vector-effect:none;fill:#4c4c4c;fill-opacity:1;fill-rule:nonzero;stroke:none;stroke-width:4;stroke-linecap:round;stroke-linejoin:round;stroke-miterlimit:4;stroke-dasharray:none;stroke-dashoffset:0;stroke-opacity:1;paint-order:stroke fill markers" /><ellipse
       ry="2.5"
       rx="4"
       cy="50"
       cx="53"
       id="path4107"
       style="opacity:1;vector-effect:none;fill:#f08117;fill-opacity:1;fill-rule:nonzero;stroke:none;stroke-width:4;stroke-linecap:round;stroke-linejoin:round;stroke-miterlimit:4;stroke-dasharray:none;stroke-dashoffset:0;stroke-opacity:1;paint-order:stroke fill markers" /><circle
       style="opacity:1;vector-effect:none;fill:#4c4c4c;fill-opacity:1;fill-rule:nonzero;stroke:none;stroke-width:4;stroke-linecap:round;stroke-linejoin:round;stroke-miterlimit:4;stroke-dasharray:none;stroke-dashoffset:0;stroke-opacity:1;paint-order:stroke fill markers"
       id="circle4095"
       cx="50"
       cy="48"
       r="2" /><path
       sodipodi:nodetypes="sssssssss"
       inkscape:connector-curvature="0"
       id="path4103"
       d="m 40.000186,53 c -1.577328,0 -2.9999,-0.360166 -4.06627,-1.568795 -0.661855,-0.750149 -0.597773,-1.66932 -0.06459,-2.197008 0.533181,-0.527688 1.493529,-0.624702 2.197333,0.08624 0.457671,0.462311 0.939515,0.679665 1.933529,0.679665 0.994015,0 1.475977,-0.217236 1.93353,-0.679665 0.703622,-0.711121 1.663391,-0.613936 2.196582,-0.08624 0.533191,0.527699 0.598014,1.446858 -0.06384,2.197008 C 43.000086,52.639834 41.577515,53 40.000186,53 Z"
       style="color:#000000;font-style:normal;font-variant:normal;font-weight:normal;font-stretch:normal;font-size:medium;line-height:normal;font-family:sans-serif;font-variant-ligatures:normal;font-variant-position:normal;font-variant-caps:normal;font-variant-numeric:normal;font-variant-alternates:normal;font-feature-settings:normal;text-indent:0;text-align:start;text-decoration:none;text-decoration-line:none;text-decoration-style:solid;text-decoration-color:#000000;letter-spacing:normal;word-spacing:normal;text-transform:none;writing-mode:lr-tb;direction:ltr;text-orientation:mixed;dominant-baseline:auto;baseline-shift:baseline;text-anchor:start;white-space:normal;shape-padding:0;clip-rule:nonzero;display:inline;overflow:visible;visibility:visible;opacity:1;isolation:auto;mix-blend-mode:normal;color-interpolation:sRGB;color-interpolation-filters:linearRGB;solid-color:#000000;solid-opacity:1;vector-effect:none;fill:#4c4c4c;fill-opacity:1;fill-rule:nonzero;stroke:none;stroke-width:2.9999;stroke-linecap:round;stroke-linejoin:round;stroke-miterlimit:4;stroke-dasharray:none;stroke-dashoffset:0;stroke-opacity:1;paint-order:stroke fill markers;color-rendering:auto;image-rendering:auto;shape-rendering:auto;text-rendering:auto;enable-background:accumulate" /></g><circle
     r="60"
     cy="64"
     cx="64"
     fill="#8af19d"
     paint-order="fill markers stroke"
     stroke="#00c853"
     stroke-width="4"
     id="circle29"
     style="display:inline;fill:none;fill-opacity:1;stroke:#373737" /></svg>
