<?xml version="1.0" encoding="UTF-8" standalone="no"?>
<svg
   height="128"
   width="128"
   version="1.1"
   id="svg2"
   sodipodi:docname="suntimes_alarms.svg"
   inkscape:version="1.3 (0e150ed6c4, 2023-07-21)"
   inkscape:export-filename="..\app\src\main\res\drawable-nodpi\suntimes_alarms.png"
   inkscape:export-xdpi="384"
   inkscape:export-ydpi="384"
   xml:space="preserve"
   xmlns:inkscape="http://www.inkscape.org/namespaces/inkscape"
   xmlns:sodipodi="http://sodipodi.sourceforge.net/DTD/sodipodi-0.dtd"
   xmlns="http://www.w3.org/2000/svg"
   xmlns:svg="http://www.w3.org/2000/svg"><defs
     id="defs2"><inkscape:path-effect
       effect="mirror_symmetry"
       start_point="60,-4"
       end_point="60,124"
       center_point="60,60"
       id="path-effect45"
       is_visible="true"
       lpeversion="1.2"
       lpesatellites=""
       mode="vertical"
       discard_orig_path="false"
       fuse_paths="false"
       oposite_fuse="false"
       split_items="false"
       split_open="false"
       link_styles="false" /><inkscape:path-effect
       effect="copy_rotate"
       starting_point="0,0"
       origin="64,64"
       id="path-effect29"
       is_visible="true"
       lpeversion="1.2"
       lpesatellites=""
       method="normal"
       num_copies="13"
       starting_angle="180"
       rotation_angle="27.692308"
       gap="-0.01"
       copies_to_360="true"
       mirror_copies="false"
       split_items="true"
       link_styles="false" /><inkscape:path-effect
       effect="copy_rotate"
       starting_point="100.08489,103.16916"
       origin="64,64"
       id="path-effect1"
       is_visible="true"
       lpeversion="1.2"
       lpesatellites=""
       method="normal"
       num_copies="13"
       starting_angle="0"
       rotation_angle="27.692308"
       gap="0"
       copies_to_360="true"
       mirror_copies="false"
       split_items="true"
       link_styles="false" /><inkscape:path-effect
       effect="taper_stroke"
       id="path-effect8"
       is_visible="true"
       lpeversion="1"
       stroke_width="4"
       subpath="1"
       attach_start="0.5"
       end_offset="0"
       start_smoothing="0.5"
       end_smoothing="0.5"
       jointype="extrapolated"
       start_shape=""
       end_shape=""
       miter_limit="100" /><inkscape:path-effect
       effect="powerstroke"
       id="path-effect6"
       is_visible="true"
       lpeversion="1.3"
       scale_width="0.5"
       interpolator_type="CentripetalCatmullRom"
       interpolator_beta="0.19587629"
       start_linecap_type="zerowidth"
       end_linecap_type="zerowidth"
       offset_points="0.031852875,1.5571416 | 0.75469276,6.7799172 | 0.95414961,4.6784469"
       linejoin_type="round"
       miter_limit="4"
       not_jump="false"
       sort_points="true"
       message="&lt;b&gt;Ctrl + click&lt;/b&gt; on existing node and move it" /><inkscape:perspective
       sodipodi:type="inkscape:persp3d"
       inkscape:vp_x="-60 : 21.333333 : 0"
       inkscape:vp_y="0 : 81.333333 : 0"
       inkscape:vp_z="63.679754 : 0 : 0"
       inkscape:persp3d-origin="64 : 42.666667 : 1"
       id="perspective22" /><inkscape:path-effect
       effect="bspline"
       id="path-effect32"
       is_visible="true"
       lpeversion="1.3"
       weight="33.333333"
       steps="2"
       helper_size="0"
       apply_no_weight="true"
       apply_with_weight="true"
       only_selected="false"
       uniform="false" /><inkscape:path-effect
       effect="spiro"
       id="path-effect28"
       is_visible="true"
       lpeversion="1" /><inkscape:path-effect
       effect="fill_between_many"
       method="bsplinespiro"
       autoreverse="false"
       close="false"
       join="false"
       linkedpaths="#path6,0,1"
       id="path-effect7" /><inkscape:path-effect
       effect="fill_between_many"
       method="bsplinespiro"
       autoreverse="false"
       close="false"
       join="false"
       linkedpaths="#path6,0,1"
       id="path-effect9" /><filter
       id="filter4866"
       inkscape:label="Drop Shadow"
       style="color-interpolation-filters:sRGB"
       x="-0.018444195"
       y="-0.010998034"
       width="1.0609648"
       height="1.0638524"><feFlood
         id="feFlood4858"
         result="flood"
         flood-color="rgb(134,123,106)"
         flood-opacity="0.498039" /><feComposite
         id="feComposite4860"
         result="composite1"
         operator="in"
         in2="SourceGraphic"
         in="flood" /><feOffset
         id="feOffset4862"
         result="offset"
         dy="3.6000000000000001"
         dx="1.8" /><feComposite
         id="feComposite4864"
         result="composite2"
         operator="over"
         in2="offset"
         in="SourceGraphic" /></filter><clipPath
       clipPathUnits="userSpaceOnUse"
       id="clipPath4404-4"><path
         style="display:inline;opacity:1;vector-effect:none;fill:#ffffff;fill-opacity:1;fill-rule:nonzero;stroke:none;stroke-width:4;stroke-linecap:round;stroke-linejoin:round;stroke-miterlimit:4;stroke-dasharray:none;stroke-dashoffset:0;stroke-opacity:1;paint-order:stroke fill markers"
         d="M 58,48.23676 V 53 c 0,1.7 1.201975,1.934 2,1.934 0.798025,0 2,-0.234 4,-0.234 v -6.371737"
         id="path4406-7"
         inkscape:connector-curvature="0"
         sodipodi:nodetypes="czccc" /></clipPath><filter
       id="filter4866-8"
       inkscape:label="Drop Shadow"
       style="color-interpolation-filters:sRGB"
       x="-0.018444195"
       y="-0.010998034"
       width="1.0609648"
       height="1.0833414"><feFlood
         id="feFlood4858-7"
         result="flood"
         flood-color="rgb(55,55,55)"
         flood-opacity="0.498039" /><feComposite
         id="feComposite4860-6"
         result="composite1"
         operator="in"
         in2="SourceGraphic"
         in="flood" /><feOffset
         id="feOffset4862-9"
         result="offset"
         dy="3.6000000000000001"
         dx="1.8" /><feComposite
         id="feComposite4864-1"
         result="composite2"
         operator="over"
         in2="offset"
         in="SourceGraphic" /></filter><clipPath
       clipPathUnits="userSpaceOnUse"
       id="clipPath4404-4-6"><path
         style="display:inline;opacity:1;vector-effect:none;fill:#ffffff;fill-opacity:1;fill-rule:nonzero;stroke:none;stroke-width:4;stroke-linecap:round;stroke-linejoin:round;stroke-miterlimit:4;stroke-dasharray:none;stroke-dashoffset:0;stroke-opacity:1;paint-order:stroke fill markers"
         d="M 58,48.23676 V 53 c 0,1.7 1.201975,1.934 2,1.934 0.798025,0 2,-0.234 4,-0.234 v -6.371737"
         id="path4406-7-3"
         inkscape:connector-curvature="0"
         sodipodi:nodetypes="czccc" /></clipPath><clipPath
       clipPathUnits="userSpaceOnUse"
       id="clipPath45"><path
         style="display:inline;opacity:1;vector-effect:none;fill:#4c4c4c;fill-opacity:1;fill-rule:nonzero;stroke:none;stroke-width:1.11144;stroke-linecap:round;stroke-linejoin:round;stroke-miterlimit:4;stroke-dasharray:none;stroke-dashoffset:0;stroke-opacity:1;paint-order:fill markers stroke;filter:url(#filter4866-8)"
         d="M 88.88135,85.812329 A 24.88135,24.88135 0 0 1 64,110.69368 24.88135,24.88135 0 0 1 39.118649,85.812329 24.88135,24.88135 0 0 1 64,60.930979 24.88135,24.88135 0 0 1 88.88135,85.812329 Z"
         id="path45"
         inkscape:connector-curvature="0"
         transform="matrix(1.4118375,0,0,1.4118375,-26.3576,-57.153066)" /></clipPath><clipPath
       clipPathUnits="userSpaceOnUse"
       id="clipPath112"><circle
         r="52.854538"
         cy="70.004738"
         cx="64"
         id="circle112"
         style="display:inline;opacity:1;vector-effect:none;fill:#76ddfe;fill-opacity:1;fill-rule:nonzero;stroke:none;stroke-width:4;stroke-linecap:butt;stroke-linejoin:round;stroke-miterlimit:4;stroke-dasharray:none;stroke-dashoffset:0;stroke-opacity:1;paint-order:fill markers stroke" /></clipPath></defs><sodipodi:namedview
     id="namedview2"
     pagecolor="#ffffff"
     bordercolor="#666666"
     borderopacity="1.0"
     inkscape:showpageshadow="2"
     inkscape:pageopacity="0.0"
     inkscape:pagecheckerboard="0"
     inkscape:deskcolor="#d1d1d1"
     inkscape:zoom="1.744335"
     inkscape:cx="-25.224512"
     inkscape:cy="-20.92488"
     inkscape:window-width="1920"
     inkscape:window-height="1057"
     inkscape:window-x="-8"
     inkscape:window-y="-8"
     inkscape:window-maximized="1"
     inkscape:current-layer="svg2"
     showguides="false"><sodipodi:guide
       position="64,64"
       orientation="-1,0"
       id="guide66"
       inkscape:locked="false"
       inkscape:label=""
       inkscape:color="rgb(0,134,229)" /><sodipodi:guide
       position="64,64"
       orientation="0,1"
       id="guide96"
       inkscape:label=""
       inkscape:locked="false"
       inkscape:color="rgb(0,134,229)" /><sodipodi:guide
       position="64,16"
       orientation="0,1"
       id="guide41"
       inkscape:locked="false"
       inkscape:label=""
       inkscape:color="rgb(0,134,229)" /></sodipodi:namedview><circle
     r="60"
     cy="64"
     cx="64"
     fill="#8af19d"
     paint-order="fill markers stroke"
     stroke="#00c853"
     stroke-width="4"
     id="circle94"
     style="display:inline;fill:#4c4c4c;fill-opacity:1;stroke:none" /><g
     transform="matrix(1.1351911,0,0,1.1351911,-8.6522307,-15.468758)"
     style="display:inline;filter:url(#filter4866-8)"
     id="g4732"
     clip-path="url(#clipPath112)"><path
       style="display:inline;opacity:1;vector-effect:none;fill:#b5cee1;fill-opacity:1;fill-rule:nonzero;stroke:#6693b1;stroke-width:2.76459;stroke-linecap:round;stroke-linejoin:round;stroke-miterlimit:4;stroke-dasharray:none;stroke-dashoffset:0;stroke-opacity:1;paint-order:stroke fill markers"
       d="m 77.551286,114.14942 a 6.8100835,6.8100835 0 0 0 6.810084,6.81008 6.8100835,6.8100835 0 0 0 6.81008,-6.81008 6.8100835,6.8100835 0 0 0 -6.81008,-6.81007 6.8100835,6.8100835 0 0 0 -6.810084,6.81007 z"
       id="circle4486"
       inkscape:connector-curvature="0" /><path
       style="display:inline;opacity:1;vector-effect:none;fill:#f7ffff;fill-opacity:1;fill-rule:nonzero;stroke:none;stroke-width:1.49712;stroke-linecap:round;stroke-linejoin:round;stroke-miterlimit:4;stroke-dasharray:none;stroke-dashoffset:0;stroke-opacity:1;paint-order:fill markers stroke"
       d="m 79.832374,111.86833 a 3.1466961,3.1466961 0 0 0 3.146697,3.1467 3.1466961,3.1466961 0 0 0 3.146696,-3.1467 3.1466961,3.1466961 0 0 0 -3.146696,-3.14669 3.1466961,3.1466961 0 0 0 -3.146697,3.14669 z"
       id="circle4488"
       inkscape:connector-curvature="0" /><path
       style="display:inline;opacity:1;vector-effect:none;fill:#b5cee1;fill-opacity:1;fill-rule:nonzero;stroke:#6693b1;stroke-width:2.76459;stroke-linecap:round;stroke-linejoin:round;stroke-miterlimit:4;stroke-dasharray:none;stroke-dashoffset:0;stroke-opacity:1;paint-order:stroke fill markers"
       d="m 50.448714,114.14942 a 6.8100835,6.8100835 0 0 1 -6.810084,6.81008 6.8100835,6.8100835 0 0 1 -6.810083,-6.81008 6.8100835,6.8100835 0 0 1 6.810083,-6.81007 6.8100835,6.8100835 0 0 1 6.810084,6.81007 z"
       id="path4348-2"
       inkscape:connector-curvature="0" /><path
       style="display:inline;opacity:1;vector-effect:none;fill:#f7ffff;fill-opacity:1;fill-rule:nonzero;stroke:none;stroke-width:1.49712;stroke-linecap:round;stroke-linejoin:round;stroke-miterlimit:4;stroke-dasharray:none;stroke-dashoffset:0;stroke-opacity:1;paint-order:fill markers stroke"
       d="m 45.403029,111.86833 a 3.1466961,3.1466961 0 0 1 -3.146696,3.1467 3.1466961,3.1466961 0 0 1 -3.146696,-3.1467 3.1466961,3.1466961 0 0 1 3.146696,-3.14669 3.1466961,3.1466961 0 0 1 3.146696,3.14669 z"
       id="circle4371-7"
       inkscape:connector-curvature="0" /><path
       inkscape:connector-curvature="0"
       id="circle4338"
       d="M 97.175128,81.665437 A 33.175133,33.175133 0 0 1 64,114.84057 33.175133,33.175133 0 0 1 30.824867,81.665437 33.175133,33.175133 0 0 1 64,48.490304 33.175133,33.175133 0 0 1 97.175128,81.665437 Z"
       style="display:inline;opacity:1;vector-effect:none;fill:#d4d4d4;fill-opacity:1;fill-rule:nonzero;stroke:#646464;stroke-width:2.76459;stroke-linecap:round;stroke-linejoin:round;stroke-miterlimit:4;stroke-dasharray:none;stroke-dashoffset:0;stroke-opacity:1;paint-order:fill markers stroke" /><path
       inkscape:transform-center-y="-27.729488"
       sodipodi:nodetypes="zsssz"
       inkscape:connector-curvature="0"
       id="path4477"
       d="m 93.735218,47.342664 c 8.803452,7.000779 9.744412,13.849099 4.15958,20.871998 -1.55573,1.956319 -7.663497,-1.396126 -14.686395,-6.98096 C 76.185505,55.648868 71.295837,49.457429 72.462633,47.990188 78.047467,40.96729 84.931781,40.341885 93.735218,47.342664 Z"
       style="opacity:1;vector-effect:none;fill:#d4d4d4;fill-opacity:1;fill-rule:nonzero;stroke:#646464;stroke-width:2.76459;stroke-linecap:round;stroke-linejoin:round;stroke-miterlimit:4;stroke-dasharray:none;stroke-dashoffset:0;stroke-opacity:1;paint-order:fill markers stroke"
       inkscape:transform-center-x="21.62312" /><path
       inkscape:transform-center-x="21.62312"
       style="display:inline;opacity:1;vector-effect:none;fill:#d4d4d4;fill-opacity:1;fill-rule:nonzero;stroke:#646464;stroke-width:2.76459;stroke-linecap:round;stroke-linejoin:round;stroke-miterlimit:4;stroke-dasharray:none;stroke-dashoffset:0;stroke-opacity:1;paint-order:fill markers stroke"
       d="M 34.264778,47.342664 C 25.461337,54.343443 24.52037,61.191763 30.105205,68.214662 31.660933,70.170981 37.7687,66.818536 44.791598,61.233702 51.814495,55.648868 56.704163,49.457429 55.537367,47.990188 49.952533,40.96729 43.068218,40.341885 34.264778,47.342664 Z"
       id="path4340"
       inkscape:connector-curvature="0"
       sodipodi:nodetypes="zsssz"
       inkscape:transform-center-y="-27.729488" /><path
       style="display:inline;opacity:1;vector-effect:none;fill:#747474;fill-opacity:1;fill-rule:nonzero;stroke:none;stroke-width:2.76459;stroke-linecap:round;stroke-linejoin:round;stroke-miterlimit:4;stroke-dasharray:none;stroke-dashoffset:0;stroke-opacity:1;paint-order:stroke fill markers"
       d="m 64,53.12046 c -1.382298,0 -2.381698,0.09192 -2.764594,0.161988 -0.382897,0.07007 -1.382298,0.662401 -1.382298,1.428194 0,1.174953 0.830743,1.3364 1.382298,1.3364 0.551553,0 1.382296,-0.161987 2.764594,-0.161987 1.382297,0 2.21304,0.161987 2.764595,0.161987 0.551553,0 1.382296,-0.161447 1.382296,-1.3364 0,-0.765793 -0.999401,-1.358122 -1.382296,-1.428194 C 66.381698,53.212376 65.382297,53.12046 64,53.12046 Z"
       id="path4479"
       inkscape:connector-curvature="0" /><path
       style="opacity:1;vector-effect:none;fill:none;fill-opacity:1;fill-rule:nonzero;stroke:#6693b1;stroke-width:2.07345;stroke-linecap:round;stroke-linejoin:round;stroke-miterlimit:4;stroke-dasharray:none;stroke-dashoffset:0;stroke-opacity:1;paint-order:stroke fill markers"
       d="M 91.493871,43.980864 C 87.260494,34.250007 76.373883,26.694921 64,26.694921 c -12.373882,0 -23.260494,7.555086 -27.49387,17.285943"
       id="path4482"
       inkscape:connector-curvature="0"
       sodipodi:nodetypes="ccc" /><path
       style="display:inline;opacity:1;vector-effect:none;fill:#b5cee1;fill-opacity:1;fill-rule:nonzero;stroke:#6693b1;stroke-width:2.76459;stroke-linecap:round;stroke-linejoin:round;stroke-miterlimit:4;stroke-dasharray:none;stroke-dashoffset:0;stroke-opacity:1;paint-order:stroke fill markers"
       inkscape:transform-center-x="-2.8560915"
       inkscape:transform-center-y="-1.3894474"
       d="m 90.196496,45.437844 a 3.2042547,2.3223985 38.492851 0 0 1.062425,3.81209 3.2042547,2.3223985 38.492851 0 0 3.953427,0.176675 3.2042547,2.3223985 38.492851 0 0 -1.06242,-3.812092 3.2042547,2.3223985 38.492851 0 0 -3.953432,-0.176673 z"
       id="ellipse4484"
       inkscape:connector-curvature="0" /><path
       style="display:inline;opacity:1;vector-effect:none;fill:#b5cee1;fill-opacity:1;fill-rule:nonzero;stroke:#6693b1;stroke-width:2.76459;stroke-linecap:round;stroke-linejoin:round;stroke-miterlimit:4;stroke-dasharray:none;stroke-dashoffset:0;stroke-opacity:1;paint-order:stroke fill markers"
       inkscape:transform-center-x="-2.8560887"
       inkscape:transform-center-y="-1.3894462"
       d="m 37.803502,45.437843 a 2.3223985,3.2042547 51.507149 0 1 -1.062424,3.812091 2.3223985,3.2042547 51.507149 0 1 -3.953425,0.176674 2.3223985,3.2042547 51.507149 0 1 1.062424,-3.812091 2.3223985,3.2042547 51.507149 0 1 3.953425,-0.176674 z"
       id="path4438"
       inkscape:connector-curvature="0" /><g
       inkscape:groupmode="maskhelper"
       id="g4401"
       clip-path="url(#clipPath4404-4-6)"
       transform="matrix(0.69114861,0,0,0.69114861,19.766489,18.079765)"
       style="stroke:#6693b1"><path
         inkscape:connector-curvature="0"
         id="path4375"
         d="m 58.53981,43 2.884038,10.549465"
         style="opacity:1;vector-effect:none;fill:none;fill-opacity:1;fill-rule:nonzero;stroke:#6693b1;stroke-width:4;stroke-linecap:round;stroke-linejoin:round;stroke-miterlimit:4;stroke-dasharray:none;stroke-dashoffset:0;stroke-opacity:1;paint-order:stroke fill markers" /></g><path
       inkscape:connector-curvature="0"
       id="path4348"
       d="m 64.055031,47.799155 a 3.8288331,3.8288331 0 0 1 -3.828834,3.828834 3.8288331,3.8288331 0 0 1 -3.828833,-3.828834 3.8288331,3.8288331 0 0 1 3.828833,-3.828833 3.8288331,3.8288331 0 0 1 3.828834,3.828833 z"
       style="display:inline;opacity:1;vector-effect:none;fill:#b5cee1;fill-opacity:1;fill-rule:nonzero;stroke:#6693b1;stroke-width:2.76459;stroke-linecap:round;stroke-linejoin:round;stroke-miterlimit:4;stroke-dasharray:none;stroke-dashoffset:0;stroke-opacity:1;paint-order:stroke fill markers" /><path
       inkscape:connector-curvature="0"
       id="circle4371"
       d="m 61.235405,46.416858 a 2.0734458,2.0734458 0 0 1 -2.073446,2.073446 2.0734458,2.0734458 0 0 1 -2.073445,-2.073446 2.0734458,2.0734458 0 0 1 2.073445,-2.073446 2.0734458,2.0734458 0 0 1 2.073446,2.073446 z"
       style="display:inline;opacity:1;vector-effect:none;fill:#f7ffff;fill-opacity:1;fill-rule:nonzero;stroke:none;stroke-width:1.49712;stroke-linecap:round;stroke-linejoin:round;stroke-miterlimit:4;stroke-dasharray:none;stroke-dashoffset:0;stroke-opacity:1;paint-order:fill markers stroke" /><path
       inkscape:connector-curvature="0"
       id="path4545"
       d="m 35.926277,45.695341 a 1.1797769,1.6277593 51.507149 0 1 -0.53971,1.93654 1.1797769,1.6277593 51.507149 0 1 -2.008337,0.08975 1.1797769,1.6277593 51.507149 0 1 0.539711,-1.936539 1.1797769,1.6277593 51.507149 0 1 2.008336,-0.08975 z"
       inkscape:transform-center-y="-0.7058375"
       inkscape:transform-center-x="-1.4508914"
       style="display:inline;opacity:1;vector-effect:none;fill:#f7ffff;fill-opacity:1;fill-rule:nonzero;stroke:none;stroke-width:1.40441;stroke-linecap:round;stroke-linejoin:round;stroke-miterlimit:4;stroke-dasharray:none;stroke-dashoffset:0;stroke-opacity:1;paint-order:stroke fill markers" /><path
       inkscape:connector-curvature="0"
       id="path4545-7"
       d="m 90.570479,45.315114 a 1.6277593,1.1797769 38.492851 0 0 0.539716,1.93654 1.6277593,1.1797769 38.492851 0 0 2.008333,0.08975 1.6277593,1.1797769 38.492851 0 0 -0.539712,-1.936539 1.6277593,1.1797769 38.492851 0 0 -2.008337,-0.08975 z"
       inkscape:transform-center-y="-0.70583756"
       inkscape:transform-center-x="1.4508929"
       style="display:inline;opacity:1;vector-effect:none;fill:#f7ffff;fill-opacity:1;fill-rule:nonzero;stroke:none;stroke-width:1.40441;stroke-linecap:round;stroke-linejoin:round;stroke-miterlimit:4;stroke-dasharray:none;stroke-dashoffset:0;stroke-opacity:1;paint-order:stroke fill markers" /></g><path
     inkscape:connector-curvature="0"
     id="path113"
     d="M 88.88135,85.812329 A 24.88135,24.88135 0 0 1 64,110.69368 24.88135,24.88135 0 0 1 39.118649,85.812329 24.88135,24.88135 0 0 1 64,60.930979 24.88135,24.88135 0 0 1 88.88135,85.812329 Z"
     style="display:inline;opacity:1;vector-effect:none;fill:#4c4c4c;fill-opacity:1;fill-rule:nonzero;stroke:none;stroke-width:1.3823;stroke-linecap:round;stroke-linejoin:round;stroke-miterlimit:4;stroke-dasharray:none;stroke-dashoffset:0;stroke-opacity:1;paint-order:fill markers stroke"
     transform="matrix(1.1351911,0,0,1.1351911,-8.6522307,-15.468758)" /><g
     id="g44"
     style="display:inline;stroke-width:1.53214"
     transform="matrix(0.65271716,0,0,0.65264866,22.2261,40.175109)"
     clip-path="url(#clipPath45)"><path
       style="display:inline;fill:#6d9fe9;fill-rule:evenodd;stroke:#3a76c3;stroke-width:6.12855;stroke-linecap:round;stroke-linejoin:round;stroke-dasharray:none;paint-order:normal"
       id="path1"
       sodipodi:type="arc"
       sodipodi:cx="64"
       sodipodi:cy="64"
       sodipodi:rx="32"
       sodipodi:ry="32"
       sodipodi:start="0.17453293"
       sodipodi:end="2.9670597"
       sodipodi:arc-type="slice"
       d="M 95.513848,69.556742 A 32,32 0 0 1 64,96 32,32 0 0 1 32.486152,69.556743 L 64,64 Z" /><path
       id="path42"
       style="display:inline;fill:#6d9fe9;fill-rule:evenodd;stroke:#3a76c3;stroke-width:15.3213756;stroke-linecap:round;stroke-linejoin:round;stroke-dasharray:none;paint-order:normal"
       d="m 93.664062,75.837891 c -3.558198,1.37655 -7.676876,2.308553 -12.521484,3.007812 -10.820361,1.561785 -23.464795,1.561785 -34.285156,0 -4.844608,-0.699259 -8.963287,-1.631262 -12.521484,-3.007812"
       sodipodi:nodetypes="cssc" /><path
       style="display:inline;fill:#f8c365;fill-rule:evenodd;stroke:#4c4c4c;stroke-width:18.9985;stroke-linecap:round;stroke-linejoin:round;stroke-dasharray:none;stroke-opacity:1;paint-order:normal"
       id="path3"
       sodipodi:type="arc"
       sodipodi:cx="64"
       sodipodi:cy="64"
       sodipodi:rx="32"
       sodipodi:ry="8"
       sodipodi:start="0"
       sodipodi:end="3.1415927"
       sodipodi:arc-type="arc"
       d="m 96,64 a 32,8 0 0 1 -16,6.928203 32,8 0 0 1 -32.000001,0 A 32,8 0 0 1 32,64"
       sodipodi:open="true" /><path
       id="circle1"
       style="fill:#d5425d;fill-rule:evenodd;stroke:#d5425d;stroke-width:6.12855;stroke-linecap:round;stroke-linejoin:round;stroke-dasharray:none;paint-order:normal"
       d="m 64,32 a 32,32 0 0 0 -32,32 32,8 0 0 0 16,6.927734 32,8 0 0 0 32,0 A 32,8 0 0 0 96,64 32,32 0 0 0 64,32 Z" /><path
       id="path112"
       style="display:inline;fill:none;fill-rule:evenodd;stroke:#d5425d;stroke-width:6.12855;stroke-linecap:round;stroke-linejoin:round;stroke-dasharray:none;paint-order:normal"
       d="m 69.127288,71.895299 c 0,-9.797386 0.672614,-29.849726 -5.127286,-39.895448"
       sodipodi:nodetypes="cc" /><path
       id="path48"
       style="fill:#f8c365;fill-rule:evenodd;stroke:#f08117;stroke-width:6.12855;stroke-linecap:round;stroke-linejoin:round;stroke-dasharray:none;paint-order:normal"
       d="m 64.000002,31.999851 c -17.673887,-5.48e-4 -32.00154,14.327105 -32.000992,32.000992 6.8e-4,2.858006 6.099971,5.49884 16.000496,6.927799 9.574751,1.380885 18.644151,1.067671 21.127782,0.966657 0,-9.797386 0.672614,-29.849726 -5.127286,-39.895448 z"
       sodipodi:nodetypes="ccccc" /></g><path
     inkscape:connector-curvature="0"
     id="path4336"
     d="M 88.88135,85.812329 A 24.88135,24.88135 0 0 1 64,110.69368 24.88135,24.88135 0 0 1 39.118649,85.812329 24.88135,24.88135 0 0 1 64,60.930979 24.88135,24.88135 0 0 1 88.88135,85.812329 Z"
     style="display:inline;opacity:1;vector-effect:none;fill:none;fill-opacity:1;fill-rule:nonzero;stroke:#646464;stroke-width:1.3823;stroke-linecap:round;stroke-linejoin:round;stroke-miterlimit:4;stroke-dasharray:none;stroke-dashoffset:0;stroke-opacity:1;paint-order:fill markers stroke"
     transform="matrix(1.1351911,0,0,1.1351911,-8.6522307,-15.468758)" /><g
     id="g4129"
     transform="translate(23.999809,27.237017)"
     style="display:inline"><ellipse
       style="opacity:1;vector-effect:none;fill:#f08117;fill-opacity:1;fill-rule:nonzero;stroke:none;stroke-width:4;stroke-linecap:round;stroke-linejoin:round;stroke-miterlimit:4;stroke-dasharray:none;stroke-dashoffset:0;stroke-opacity:1;paint-order:stroke fill markers"
       id="ellipse4109"
       cx="27"
       cy="50"
       rx="4"
       ry="2.5" /><circle
       r="2"
       cy="48"
       cx="30"
       id="path4093"
       style="opacity:1;vector-effect:none;fill:#4c4c4c;fill-opacity:1;fill-rule:nonzero;stroke:none;stroke-width:4;stroke-linecap:round;stroke-linejoin:round;stroke-miterlimit:4;stroke-dasharray:none;stroke-dashoffset:0;stroke-opacity:1;paint-order:stroke fill markers" /><ellipse
       ry="2.5"
       rx="4"
       cy="50"
       cx="53"
       id="path4107"
       style="opacity:1;vector-effect:none;fill:#ff8090;fill-opacity:1;fill-rule:nonzero;stroke:none;stroke-width:4;stroke-linecap:round;stroke-linejoin:round;stroke-miterlimit:4;stroke-dasharray:none;stroke-dashoffset:0;stroke-opacity:1;paint-order:stroke fill markers" /><circle
       style="opacity:1;vector-effect:none;fill:#4c4c4c;fill-opacity:1;fill-rule:nonzero;stroke:none;stroke-width:4;stroke-linecap:round;stroke-linejoin:round;stroke-miterlimit:4;stroke-dasharray:none;stroke-dashoffset:0;stroke-opacity:1;paint-order:stroke fill markers"
       id="circle4095"
       cx="50"
       cy="48"
       r="2" /><path
       sodipodi:nodetypes="sssssssss"
       inkscape:connector-curvature="0"
       id="path4103"
       d="m 40.000186,53 c -1.577328,0 -2.9999,-0.360166 -4.06627,-1.568795 -0.661855,-0.750149 -0.597773,-1.66932 -0.06459,-2.197008 0.533181,-0.527688 1.493529,-0.624702 2.197333,0.08624 0.457671,0.462311 0.939515,0.679665 1.933529,0.679665 0.994015,0 1.475977,-0.217236 1.93353,-0.679665 0.703622,-0.711121 1.663391,-0.613936 2.196582,-0.08624 0.533191,0.527699 0.598014,1.446858 -0.06384,2.197008 C 43.000086,52.639834 41.577515,53 40.000186,53 Z"
       style="color:#000000;font-style:normal;font-variant:normal;font-weight:normal;font-stretch:normal;font-size:medium;line-height:normal;font-family:sans-serif;font-variant-ligatures:normal;font-variant-position:normal;font-variant-caps:normal;font-variant-numeric:normal;font-variant-alternates:normal;font-feature-settings:normal;text-indent:0;text-align:start;text-decoration:none;text-decoration-line:none;text-decoration-style:solid;text-decoration-color:#000000;letter-spacing:normal;word-spacing:normal;text-transform:none;writing-mode:lr-tb;direction:ltr;text-orientation:mixed;dominant-baseline:auto;baseline-shift:baseline;text-anchor:start;white-space:normal;shape-padding:0;clip-rule:nonzero;display:inline;overflow:visible;visibility:visible;opacity:1;isolation:auto;mix-blend-mode:normal;color-interpolation:sRGB;color-interpolation-filters:linearRGB;solid-color:#000000;solid-opacity:1;vector-effect:none;fill:#4c4c4c;fill-opacity:1;fill-rule:nonzero;stroke:none;stroke-width:2.9999;stroke-linecap:round;stroke-linejoin:round;stroke-miterlimit:4;stroke-dasharray:none;stroke-dashoffset:0;stroke-opacity:1;paint-order:stroke fill markers;color-rendering:auto;image-rendering:auto;shape-rendering:auto;text-rendering:auto;enable-background:accumulate" /></g><circle
     r="60"
     cy="64"
     cx="64"
     fill="#8af19d"
     paint-order="fill markers stroke"
     stroke="#00c853"
     stroke-width="4"
     id="circle29"
     style="display:inline;fill:none;fill-opacity:1;stroke:#373737" /></svg>
