<?xml version="1.0" encoding="UTF-8" standalone="no"?>
<!-- Created with Inkscape (http://www.inkscape.org/) -->

<svg
   enable-background="new"
   inkscape:export-ydpi="384"
   inkscape:export-xdpi="384"
   inkscape:export-filename="..\app\src\main\res\drawable-nodpi\super_tux_kart.png"
   sodipodi:docname="super_tux_kart.svg"
   inkscape:version="1.3 (0e150ed6c4, 2023-07-21)"
   id="svg8"
   version="1.1"
   viewBox="0 0 128 128"
   height="128"
   width="128"
   xml:space="preserve"
   xmlns:inkscape="http://www.inkscape.org/namespaces/inkscape"
   xmlns:sodipodi="http://sodipodi.sourceforge.net/DTD/sodipodi-0.dtd"
   xmlns:xlink="http://www.w3.org/1999/xlink"
   xmlns="http://www.w3.org/2000/svg"
   xmlns:svg="http://www.w3.org/2000/svg"
   xmlns:rdf="http://www.w3.org/1999/02/22-rdf-syntax-ns#"
   xmlns:cc="http://creativecommons.org/ns#"
   xmlns:dc="http://purl.org/dc/elements/1.1/"><sodipodi:namedview
     id="base"
     pagecolor="#ffffff"
     bordercolor="#666666"
     borderopacity="1.0"
     inkscape:pageopacity="0.0"
     inkscape:pageshadow="2"
     inkscape:zoom="2.8284271"
     inkscape:cx="26.162951"
     inkscape:cy="125.86501"
     inkscape:document-units="px"
     inkscape:current-layer="g56"
     showgrid="false"
     units="px"
     inkscape:pagecheckerboard="true"
     borderlayer="true"
     gridtolerance="10"
     inkscape:snap-smooth-nodes="true"
     inkscape:snap-text-baseline="true"
     inkscape:snap-page="true"
     showguides="false"
     inkscape:guide-bbox="true"
     inkscape:snap-object-midpoints="true"
     inkscape:snap-center="true"
     inkscape:snap-global="true"
     inkscape:lockguides="false"
     inkscape:snap-bbox="true"
     inkscape:bbox-nodes="true"
     inkscape:showpageshadow="0"
     inkscape:deskcolor="#d1d1d1"
     inkscape:window-width="1852"
     inkscape:window-height="1057"
     inkscape:window-x="60"
     inkscape:window-y="-8"
     inkscape:window-maximized="1"><inkscape:grid
       enabled="false"
       empspacing="4"
       id="grid4131"
       type="xygrid"
       spacingx="8"
       spacingy="8"
       originx="0"
       originy="0"
       units="px"
       visible="false" /><inkscape:grid
       empspacing="4"
       id="grid4167"
       type="xygrid"
       originx="0"
       originy="0"
       spacingy="1"
       spacingx="1"
       units="px"
       visible="false" /></sodipodi:namedview><defs
     id="defs2"><filter
       id="a"
       x="-0.0074912071"
       y="-0.038584066"
       width="1.0299648"
       height="1.0868142"
       color-interpolation-filters="sRGB"><feFlood
         flood-color="rgb(116,116,116)"
         flood-opacity=".5"
         id="feFlood1" /><feComposite
         in2="SourceGraphic"
         operator="in"
         id="feComposite1" /><feOffset
         dx="2"
         dy="4"
         result="result1"
         id="feOffset1" /><feMerge
         id="feMerge2"><feMergeNode
           in="result1"
           id="feMergeNode1" /><feMergeNode
           in="SourceGraphic"
           id="feMergeNode2" /></feMerge></filter><clipPath
       clipPathUnits="userSpaceOnUse"
       id="clipPath19"><circle
         r="60"
         cy="64"
         cx="64"
         id="circle19"
         style="display:inline;opacity:1;vector-effect:none;fill:#ffffff;fill-opacity:1;fill-rule:nonzero;stroke:#747474;stroke-width:4;stroke-linecap:butt;stroke-linejoin:round;stroke-miterlimit:4;stroke-dasharray:none;stroke-dashoffset:0;stroke-opacity:1;paint-order:fill markers stroke" /></clipPath></defs><metadata
     id="metadata5"><rdf:RDF><cc:Work
         rdf:about=""><dc:format>image/svg+xml</dc:format><dc:type
           rdf:resource="http://purl.org/dc/dcmitype/StillImage" /></cc:Work></rdf:RDF></metadata><style
     id="style2296">.B{fill:#fc9abf}.C{fill:#ffc7df}.D{fill:#ed84cb}.E{fill-opacity:1}.F{stroke:none}</style><g
     inkscape:groupmode="layer"
     id="g56"
     inkscape:label="freeotp"
     style="display:inline;opacity:1"><circle
       r="60"
       cy="64"
       cx="64"
       id="circle20"
       style="display:inline;opacity:1;vector-effect:none;fill:#ffffff;fill-opacity:1;fill-rule:nonzero;stroke:none;stroke-width:4;stroke-linecap:butt;stroke-linejoin:round;stroke-miterlimit:4;stroke-dasharray:none;stroke-dashoffset:0;stroke-opacity:1;paint-order:fill markers stroke" /><g
       inkscape:groupmode="maskhelper"
       id="g19"
       clip-path="url(#clipPath19)"
       style="display:inline;opacity:1"><g
         id="g18"
         transform="translate(0,-1)"
         style="filter:url(#a)"><g
           id="g2"><path
             id="path16"
             style="display:inline;opacity:1;fill:#4c4c4c;stroke:#373737;stroke-width:2;stroke-linejoin:round;paint-order:fill markers stroke"
             inkscape:transform-center-x="1.431978"
             inkscape:transform-center-y="1.431978"
             d="m 33,72 c 4,2 4.202433,22.470439 0,24 -1.127032,0.410206 -15,0.5 -16,0 -4,-2 -4.053132,-22.109994 0,-24 1,-0.466308 14.902086,-0.548957 16,0 z"
             sodipodi:nodetypes="sssss" /><path
             style="display:inline;opacity:1;fill:#df484f;fill-opacity:1;stroke:#92262c;stroke-width:2;stroke-linejoin:round;stroke-dasharray:none;stroke-opacity:1;paint-order:fill markers stroke"
             d="m 36,40 c -3.315733,0 -15,0 -16,1 -1,1 -0.930139,5.043996 0,6 0.986194,1.013618 12.593888,1 16,1 9.908528,0 -1.876182,20.938091 -8,24 -5.155919,2.577959 -11.063397,21 -11,28 0.04829,5.3319 2,8 7,8 5.013108,0 40,4 40,4"
             id="path15"
             sodipodi:nodetypes="cssssssc" /><path
             style="fill:#4c4c4c;fill-opacity:1;stroke:#373737;stroke-width:8;stroke-linejoin:round;stroke-opacity:1;paint-order:stroke fill markers"
             d="M 64,24 C 41.741447,24 34.957426,37.633419 32.395241,55.525555 31.008709,65.207926 25.152652,74.448255 26.844975,87.773797 29.027324,104.95785 45.361107,108 64,108"
             id="path1"
             sodipodi:nodetypes="cssc" /><path
             style="fill:#e2e2e2;fill-opacity:1;stroke:none;stroke-width:4;stroke-linejoin:round;stroke-dasharray:none;stroke-opacity:1;paint-order:stroke fill markers"
             d="m 53,53 c -4,4 -3,10 -5,15 -2.285625,5.714062 -8,6.544302 -8,16 0,12 6.375,20 24,20 V 52 Z"
             id="path2"
             sodipodi:nodetypes="cssccc" /><circle
             style="display:inline;opacity:1;fill:#e2e2e2;fill-opacity:1;stroke:none;stroke-width:4;stroke-linejoin:round;stroke-dasharray:none;stroke-opacity:1;paint-order:stroke fill markers"
             id="path3"
             cx="48"
             cy="45"
             r="2" /><path
             style="display:inline;opacity:1;fill:#ebd460;fill-opacity:1;stroke:#f08117;stroke-width:2;stroke-linejoin:round;stroke-dasharray:none;stroke-opacity:1;paint-order:fill markers stroke"
             d="m 64,59 c -7.071429,0 -11,-1.4 -11,-7 0,-5.6 6.285714,-7 11,-7"
             id="path4"
             sodipodi:nodetypes="csc" /><path
             style="display:inline;opacity:1;fill:#fef6a4;fill-opacity:1;stroke:#f08117;stroke-width:2;stroke-linejoin:round;stroke-dasharray:none;stroke-opacity:1;paint-order:fill markers stroke"
             d="m 53,52 c 3.543887,0.94091 6.239583,0 11,0"
             id="path5"
             sodipodi:nodetypes="cc" /><path
             id="path17"
             style="display:inline;opacity:1;fill:#4c4c4c;stroke:#373737;stroke-width:2;stroke-linejoin:round;paint-order:fill markers stroke"
             inkscape:transform-center-x="2.0888675"
             inkscape:transform-center-y="2.0888675"
             d="m 25,92.161134 c 5.834916,2.917458 6.130211,32.778276 0,35.009496 -1.644034,0.59838 -21.8809334,0.72936 -23.3396623,0 -5.8349156,-2.91746 -5.9124208,-32.25249 0,-35.009496 1.4587289,-0.680217 21.7381033,-0.80078 23.3396623,0 z"
             sodipodi:nodetypes="sssss" /><path
             style="fill:#4c4c4c;fill-opacity:1;stroke:#373737;stroke-width:2;stroke-linejoin:round;stroke-dasharray:none;stroke-opacity:1;paint-order:fill markers stroke"
             d="m 24.125,94.625001 c -2.906308,0 -3.719896,30.187499 0.0625,30.187499 3.782396,0 2.843808,-30.187499 -0.0625,-30.187499 z"
             id="path18"
             sodipodi:nodetypes="zzz" /></g><use
           x="0"
           y="0"
           xlink:href="#g2"
           id="use2"
           transform="matrix(-1,0,0,1,128,0)" /><path
           id="path10"
           style="color:#000000;fill:#b3bcbe;fill-opacity:1;stroke:#5a5c5c;stroke-width:2;stroke-linejoin:round;stroke-dasharray:none;stroke-opacity:1;paint-order:fill markers stroke"
           d="m 64,62.267578 c -11.212136,0 -20.365234,9.155052 -20.365234,20.367188 C 43.634766,93.8469 52.787864,103 64,103 75.212136,103 84.365234,93.8469 84.365234,82.634766 84.365234,71.42263 75.212136,62.267578 64,62.267578 Z m 0,6 c 7.201095,0 13.115545,5.224651 14.189453,12.111328 C 74.285991,79.692635 69.472512,79 64,79 58.527488,79 53.714009,79.692635 49.810547,80.378906 50.884455,73.492229 56.798905,68.267578 64,68.267578 Z m -13.646484,18.88086 c 3.020744,0.243859 5.447272,0.76508 7.394531,1.365234 0.752823,1.800649 1.528666,3.509528 1.832031,4.798828 0.233317,0.991597 0.336434,1.928784 0.205078,3.064453 -4.462058,-1.354591 -7.983141,-4.809279 -9.43164,-9.228515 z m 27.292968,0 c -1.448499,4.419236 -4.969582,7.873924 -9.43164,9.228515 -0.131356,-1.135669 -0.02824,-2.072856 0.205078,-3.064453 0.303365,-1.2893 1.079208,-2.998179 1.832031,-4.798828 1.947259,-0.600154 4.373787,-1.121375 7.394531,-1.365234 z" /><g
           id="g10"
           inkscape:transform-center-x="20.629188"
           inkscape:transform-center-y="-11.601698"><path
             style="color:#000000;display:inline;fill:#4c4c4c;stroke-linejoin:round;-inkscape-stroke:none;paint-order:fill markers stroke"
             d="m 36,82 c 11,5 18,-8 5,-15"
             id="path7"
             sodipodi:nodetypes="cc" /><path
             style="color:#000000;display:inline;fill:#373737;stroke-linejoin:round;-inkscape-stroke:none;paint-order:fill markers stroke"
             d="m 41,67 c 3.013081,2.252198 6.340358,7.296977 4.662109,11.212891 C 43.98386,82.128805 38.156865,81.917356 36,82 40.077518,86.224835 47.376056,84.364723 49.337891,79.787109 51.299725,75.209496 48.377403,66.940255 41,67 Z"
             id="path8"
             sodipodi:nodetypes="czcsc" /><path
             style="display:inline;fill:#ebd460;fill-opacity:1;stroke:#f08117;stroke-width:2;stroke-linejoin:round;stroke-dasharray:none;stroke-opacity:1;paint-order:fill markers stroke"
             d="m 36.429486,106.40772 c -4.122096,-5.88696 -1.249601,-13.354747 0.794344,-16.706672 1.318697,3.869281 4.235512,1.747961 5.738114,-0.196583 1.149049,2.474874 4.949748,3.005204 6.275573,0.353553 3.358757,6.010408 5.661132,16.708022 -1.694996,19.385432 -4.386065,1.5964 -9.507283,-0.54248 -11.113035,-2.83573 z"
             id="path9"
             sodipodi:nodetypes="scccss" /></g><use
           x="0"
           y="0"
           xlink:href="#g10"
           inkscape:transform-center-x="-20.629188"
           inkscape:transform-center-y="-11.601698"
           id="use10"
           transform="matrix(-1,0,0,1,128,0)" /><path
           id="path14"
           style="color:#000000;fill:#df484f;fill-opacity:1;stroke:#92262c;stroke-width:2;stroke-linejoin:round;stroke-dasharray:none;stroke-opacity:1;paint-order:fill markers stroke"
           d="m 64,82.001953 c -1.486119,4.02e-4 -2.74801,1.088668 -2.966797,2.558594 L 57.419922,108.95117 C 47.602137,108.82048 37.770563,108.4274 28,108 c -2.207565,-0.0966 -4,1.784 -4,4 0,2.216 1.791657,12.81597 4,13 11.999988,1 24.000012,2 36,2 11.999988,0 24.000012,-1 36,-2 2.20835,-0.18403 4,-10.784 4,-13 0,-2.216 -1.79243,-4.0966 -4,-4 -9.770563,0.4274 -19.602137,0.82048 -29.419922,0.95117 L 66.966797,84.560547 C 66.74801,83.090621 65.486119,82.002355 64,82.001953 Z"
           sodipodi:nodetypes="cccsssssscccc" /></g></g><circle
       r="60"
       cy="64"
       cx="64"
       id="circle42"
       style="display:inline;opacity:1;vector-effect:none;fill:none;fill-opacity:1;fill-rule:nonzero;stroke:#747474;stroke-width:4;stroke-linecap:butt;stroke-linejoin:round;stroke-miterlimit:4;stroke-dasharray:none;stroke-dashoffset:0;stroke-opacity:1;paint-order:fill markers stroke" /></g></svg>
