<?xml version="1.0" encoding="UTF-8" standalone="no"?>
<svg
   height="128"
   width="128"
   version="1.1"
   id="svg2"
   sodipodi:docname="syncthing_lite.svg"
   inkscape:version="1.3 (0e150ed6c4, 2023-07-21)"
   inkscape:export-filename="..\app\src\main\res\drawable-nodpi\syncthing_lite.png"
   inkscape:export-xdpi="384"
   inkscape:export-ydpi="384"
   xml:space="preserve"
   xmlns:inkscape="http://www.inkscape.org/namespaces/inkscape"
   xmlns:sodipodi="http://sodipodi.sourceforge.net/DTD/sodipodi-0.dtd"
   xmlns="http://www.w3.org/2000/svg"
   xmlns:svg="http://www.w3.org/2000/svg"><defs
     id="defs2"><inkscape:perspective
       sodipodi:type="inkscape:persp3d"
       inkscape:vp_x="-60 : 21.333333 : 0"
       inkscape:vp_y="0 : 81.333333 : 0"
       inkscape:vp_z="63.679754 : 0 : 0"
       inkscape:persp3d-origin="64 : 42.666667 : 1"
       id="perspective22" /><inkscape:path-effect
       effect="bspline"
       id="path-effect32"
       is_visible="true"
       lpeversion="1.3"
       weight="33.333333"
       steps="2"
       helper_size="0"
       apply_no_weight="true"
       apply_with_weight="true"
       only_selected="false"
       uniform="false" /><inkscape:path-effect
       effect="spiro"
       id="path-effect28"
       is_visible="true"
       lpeversion="1" /></defs><sodipodi:namedview
     id="namedview2"
     pagecolor="#ffffff"
     bordercolor="#666666"
     borderopacity="1.0"
     inkscape:showpageshadow="2"
     inkscape:pageopacity="0.0"
     inkscape:pagecheckerboard="0"
     inkscape:deskcolor="#d1d1d1"
     inkscape:zoom="3.8528"
     inkscape:cx="69.300249"
     inkscape:cy="60.605274"
     inkscape:window-width="1920"
     inkscape:window-height="1057"
     inkscape:window-x="-8"
     inkscape:window-y="-8"
     inkscape:window-maximized="1"
     inkscape:current-layer="svg2"
     showguides="true"><sodipodi:guide
       position="64,64"
       orientation="0.76604444,0.64278761"
       id="guide66"
       inkscape:locked="false"
       inkscape:label=""
       inkscape:color="rgb(0,134,229)" /><sodipodi:guide
       position="64,64"
       orientation="-0.43837115,0.89879405"
       id="guide79"
       inkscape:label=""
       inkscape:locked="false"
       inkscape:color="rgb(0,134,229)" /><sodipodi:guide
       position="64,64"
       orientation="-0.2419219,0.97029573"
       id="guide80"
       inkscape:label=""
       inkscape:locked="false"
       inkscape:color="rgb(0,134,229)" /><sodipodi:guide
       position="64,64"
       orientation="0.57357644,0.81915204"
       id="guide96"
       inkscape:label=""
       inkscape:locked="false"
       inkscape:color="rgb(0,134,229)" /></sodipodi:namedview><circle
     r="60"
     cy="64"
     cx="64"
     fill="#8af19d"
     paint-order="fill markers stroke"
     stroke="#00c853"
     stroke-width="4"
     id="circle94"
     style="display:inline;fill:#f8c365;fill-opacity:1;stroke:#f08117" /><path
     d="M 101.79883,20.050781 A 58,58 0 0 0 100.60352,19.007812 58,58 0 0 0 97.447266,16.615234 58,58 0 0 0 94.136719,14.443359 58,58 0 0 0 90.683594,12.501953 58,58 0 0 0 87.107422,10.800781 58,58 0 0 0 83.423828,9.3496094 58,58 0 0 0 79.648437,8.1503906 58,58 0 0 0 75.800781,7.2128906 58,58 0 0 0 71.898437,6.5410156 58,58 0 0 0 67.958984,6.1347656 58,58 0 0 0 64,6 58,58 0 0 0 52.685547,7.1152344 58,58 0 0 0 41.804687,10.414063 58,58 0 0 0 31.777344,15.775391 58,58 0 0 0 22.988281,22.988281 58,58 0 0 0 15.775391,31.777344 58,58 0 0 0 10.414063,41.804687 58,58 0 0 0 7.1152344,52.685547 58,58 0 0 0 6,64 a 58,58 0 0 0 1.1152344,11.314453 58,58 0 0 0 3.2988286,10.880859 58,58 0 0 0 5.361328,10.027344 58,58 0 0 0 4.53125,5.521484 104,104 0 0 0 8.99414,-1.957031 104,104 0 0 0 13.902344,-5.185547 104,104 0 0 0 13.023437,-7.111328 104,104 0 0 0 11.878907,-8.892578 104,104 0 0 0 10.492187,-10.492187 104,104 0 0 0 8.892578,-11.878907 104,104 0 0 0 7.111328,-13.023437 104,104 0 0 0 5.185547,-13.902344 104,104 0 0 0 2.011721,-9.25 z"
     style="display:inline;mix-blend-mode:screen;fill:#f08117;stroke-width:4;paint-order:fill markers stroke"
     id="path96" /><path
     id="circle97"
     style="color:#000000;display:inline;opacity:0.5;fill:#f08117;fill-rule:evenodd;stroke-linecap:round;stroke-linejoin:round;-inkscape-stroke:none;paint-order:fill markers stroke"
     d="m 66,22 c -25.33398,0 -46,20.66602 -46,46 0,0.09234 0.0073,0.183178 0.0078,0.275391 -3.225257,2.834352 -4.609876,7.587527 -3.49414,12.0625 1.11814,4.484617 4.584879,8.038107 8.77539,9.017578 C 33.00521,103.98361 48.367508,114 66,114 c 7.314804,0 14.235328,-1.7323 20.386719,-4.79297 3.965297,1.66876 8.856931,0.83137 12.396484,-2.13867 3.544477,-2.97417 5.217407,-7.654183 4.253907,-11.853516 C 108.66319,87.584179 112,78.170312 112,68 c 0,-3.37272 -0.37746,-6.658621 -1.07227,-9.828125 2.5663,-3.443036 2.9341,-8.381649 0.91211,-12.527344 C 109.8116,41.48602 105.67466,38.729714 101.36719,38.648438 92.917473,28.48908 80.192832,22 66,22 Z m 0,12 c 10.186893,0 19.287094,4.431608 25.505859,11.474609 -0.968446,2.610834 -0.991519,5.616899 -0.02539,8.398438 -2.544779,2.372854 -6.333946,5.433189 -11.810547,9.058594 C 74.470902,60.178637 67.835053,61.818298 64.375,66.759766 63.697243,67.727703 63.180946,68.766732 62.820312,69.841797 52.370335,71.771599 43.11829,72.16923 36.75,72.123047 35.642978,70.027683 33.989504,68.293275 32.021484,67.162109 32.46412,48.705619 47.432369,34 66,34 Z M 99.591797,62.703125 C 99.859138,64.428729 100,66.196676 100,68 c 0,7.182897 -2.203951,13.825672 -5.970703,19.300781 -1.231305,-0.137007 -2.493273,-0.07628 -3.732422,0.177735 -1.708976,-2.368402 -3.697439,-5.252268 -5.855469,-8.591797 0.931426,-1.789247 1.381328,-3.745817 1.367188,-5.683594 6.117595,-4.016017 10.589931,-7.545932 13.783203,-10.5 z M 65.117188,81.541016 c 0.583093,0.658847 1.248722,1.261059 2,1.787109 2.189801,1.533316 4.733143,2.185216 7.230468,2.052734 2.482869,3.841087 4.748426,7.079637 6.691406,9.748047 -0.507849,1.227199 -0.814424,2.517965 -0.898437,3.814453 C 75.838566,100.90179 71.054809,102 66,102 53.243387,102 42.187883,95.05578 36.369141,84.726562 c 0.130739,-0.206659 0.253425,-0.419511 0.371093,-0.634765 7.020834,0.02632 17.093671,-0.460807 28.376954,-2.550781 z" /><g
     id="g83"
     style="display:inline"><circle
       style="display:inline;opacity:1;fill:none;fill-opacity:1;fill-rule:evenodd;stroke:#f08117;stroke-width:12;stroke-linecap:round;stroke-linejoin:round;stroke-dasharray:none;stroke-opacity:1;paint-order:fill markers stroke"
       id="circle81"
       cx="64"
       cy="64"
       r="40" /><path
       id="path82"
       style="display:inline;opacity:1;fill:none;fill-opacity:1;fill-rule:evenodd;stroke:#f08117;stroke-width:12;stroke-linecap:round;stroke-linejoin:round;stroke-dasharray:none;stroke-opacity:1;paint-order:fill markers stroke"
       d="m 71.999997,69.500002 c 9.09021,15.744706 17.462924,25.348655 17.462924,25.348655 M 25.18817,73.676872 c 0,0 21.823452,2.518745 46.811827,-4.17687 M 99.951762,46.465154 c 0,0 -3.197668,8.743064 -27.951765,23.034848" /><ellipse
       style="display:inline;opacity:1;fill:#ffffff;fill-opacity:1;fill-rule:evenodd;stroke:#f08117;stroke-width:8;stroke-linecap:round;stroke-linejoin:round;stroke-dasharray:none;stroke-opacity:1;paint-order:stroke fill markers"
       id="path76"
       cx="69.467064"
       cy="85.579292"
       rx="7"
       ry="8"
       transform="rotate(-26)" /><ellipse
       style="display:inline;opacity:1;fill:#ffffff;fill-opacity:1;fill-rule:evenodd;stroke:#f08117;stroke-width:8;stroke-linecap:round;stroke-linejoin:round;stroke-dasharray:none;stroke-opacity:1;paint-order:stroke fill markers"
       id="ellipse80"
       cx="6.6159248"
       cy="77.581924"
       rx="7"
       ry="8"
       transform="rotate(-14)" /><ellipse
       style="display:inline;opacity:1;fill:#ffffff;fill-opacity:1;fill-rule:evenodd;stroke:#f08117;stroke-width:8;stroke-linecap:round;stroke-linejoin:round;stroke-dasharray:none;stroke-opacity:1;paint-order:stroke fill markers"
       id="ellipse81"
       cx="130.16525"
       cy="-7.8884358"
       rx="7"
       ry="8"
       transform="rotate(50)" /><ellipse
       style="opacity:1;fill:#ffffff;fill-opacity:1;fill-rule:evenodd;stroke:#f08117;stroke-width:8;stroke-linecap:round;stroke-linejoin:round;stroke-dasharray:none;stroke-opacity:1;paint-order:stroke fill markers"
       id="path97"
       cx="98.842506"
       cy="15.633564"
       rx="7.75"
       ry="8"
       transform="rotate(35)" /><circle
       style="display:inline;opacity:1;fill:none;fill-opacity:1;fill-rule:evenodd;stroke:#ffffff;stroke-width:4;stroke-linecap:round;stroke-linejoin:round;stroke-dasharray:none;stroke-opacity:1;paint-order:fill markers stroke"
       id="path75"
       cx="64"
       cy="64"
       r="40" /><path
       id="path79"
       style="display:inline;opacity:1;fill:none;fill-opacity:1;fill-rule:evenodd;stroke:#ffffff;stroke-width:4;stroke-linecap:round;stroke-linejoin:round;stroke-dasharray:none;stroke-opacity:1;paint-order:fill markers stroke"
       d="m 71.999997,69.500002 c 9.09021,15.744706 17.462924,25.348655 17.462924,25.348655 M 25.18817,73.676872 c 0,0 21.823452,2.518745 46.811827,-4.17687 M 99.951762,46.465154 c 0,0 -3.197668,8.743064 -27.951765,23.034848" /></g></svg>
