<?xml version="1.0" encoding="UTF-8" standalone="no"?>
<!-- Created with Inkscape (http://www.inkscape.org/) -->

<svg
   enable-background="new"
   inkscape:export-ydpi="384"
   inkscape:export-xdpi="384"
   inkscape:export-filename="..\app\src\main\res\drawable-nodpi\tata_1mg.png"
   sodipodi:docname="ata_1mg.svg"
   inkscape:version="1.3 (0e150ed6c4, 2023-07-21)"
   id="svg8"
   version="1.1"
   viewBox="0 0 128 128"
   height="128"
   width="128"
   xml:space="preserve"
   xmlns:inkscape="http://www.inkscape.org/namespaces/inkscape"
   xmlns:sodipodi="http://sodipodi.sourceforge.net/DTD/sodipodi-0.dtd"
   xmlns="http://www.w3.org/2000/svg"
   xmlns:svg="http://www.w3.org/2000/svg"
   xmlns:rdf="http://www.w3.org/1999/02/22-rdf-syntax-ns#"
   xmlns:cc="http://creativecommons.org/ns#"
   xmlns:dc="http://purl.org/dc/elements/1.1/"><sodipodi:namedview
     id="base"
     pagecolor="#ffffff"
     bordercolor="#666666"
     borderopacity="1.0"
     inkscape:pageopacity="0.0"
     inkscape:pageshadow="2"
     inkscape:zoom="4"
     inkscape:cx="38.75"
     inkscape:cy="77"
     inkscape:document-units="px"
     inkscape:current-layer="layer103"
     showgrid="false"
     units="px"
     inkscape:pagecheckerboard="true"
     borderlayer="true"
     gridtolerance="10"
     inkscape:snap-smooth-nodes="true"
     inkscape:snap-text-baseline="true"
     inkscape:snap-page="true"
     showguides="true"
     inkscape:guide-bbox="true"
     inkscape:snap-object-midpoints="true"
     inkscape:snap-center="true"
     inkscape:snap-global="true"
     inkscape:lockguides="false"
     inkscape:snap-bbox="true"
     inkscape:bbox-nodes="true"
     inkscape:showpageshadow="0"
     inkscape:deskcolor="#d1d1d1"
     inkscape:window-width="1852"
     inkscape:window-height="1057"
     inkscape:window-x="60"
     inkscape:window-y="-8"
     inkscape:window-maximized="1"><inkscape:grid
       enabled="false"
       empspacing="4"
       id="grid4131"
       type="xygrid"
       spacingx="8"
       spacingy="8"
       originx="0"
       originy="0"
       units="px"
       visible="false" /><inkscape:grid
       empspacing="4"
       id="grid4167"
       type="xygrid"
       originx="0"
       originy="0"
       spacingy="1"
       spacingx="1"
       units="px"
       visible="false" /></sodipodi:namedview><defs
     id="defs2"><filter
       id="filter265"
       inkscape:label="Drop Shadow red"
       style="color-interpolation-filters:sRGB"
       x="-0.055964066"
       y="-0.060524295"
       width="1.1398988"
       height="1.181836"><feFlood
         id="feFlood264"
         result="flood"
         flood-color="rgb(204,75,75)"
         flood-opacity="0.498039" /><feComposite
         id="feComposite264"
         result="composite1"
         operator="in"
         in2="SourceGraphic"
         in="flood" /><feOffset
         id="feOffset264"
         result="offset"
         dy="4"
         dx="2" /><feComposite
         id="feComposite265"
         result="composite2"
         operator="over"
         in2="offset"
         in="SourceGraphic" /></filter></defs><metadata
     id="metadata5"><rdf:RDF><cc:Work
         rdf:about=""><dc:format>image/svg+xml</dc:format><dc:type
           rdf:resource="http://purl.org/dc/dcmitype/StillImage" /></cc:Work></rdf:RDF></metadata><style
     id="style2296">.B{fill:#fc9abf}.C{fill:#ffc7df}.D{fill:#ed84cb}.E{fill-opacity:1}.F{stroke:none}</style><g
     inkscape:groupmode="layer"
     id="layer103"
     inkscape:label="ymail"
     style="display:inline"><circle
       r="60"
       cy="64"
       cx="64"
       id="circle2383-5"
       style="display:inline;vector-effect:none;fill:#ef8080;fill-opacity:1;fill-rule:nonzero;stroke:#cc4b4b;stroke-width:4;stroke-linecap:butt;stroke-linejoin:round;stroke-miterlimit:4;stroke-dasharray:none;stroke-dashoffset:0;stroke-opacity:1;paint-order:fill markers stroke" /><g
       id="g14"
       style="filter:url(#filter265)"><path
         id="path8"
         style="font-weight:900;font-size:32.0841px;line-height:1;font-family:Mikado;-inkscape-font-specification:'Mikado Heavy';font-variant-numeric:lining-nums;font-feature-settings:'cv01', 'cv02';text-align:end;letter-spacing:0px;word-spacing:0px;text-anchor:end;fill:#373737;stroke-width:4;stroke-linecap:round;stroke-linejoin:round;paint-order:stroke fill markers"
         d="m 56.546917,28.259422 c -2.554603,-0.0042 -6.968936,0.129036 -7.201172,0.263672 -0.309649,0.179515 -6.502247,18.416463 -7.052735,20.929688 0.172028,0.448789 7.77599,0.313036 7.982422,0.193359 0.791325,-2.303789 3.026888,-10.688484 3.542969,-13.082031 l 0.365234,-0.002 c 0.516081,2.453385 3.179384,12.635903 3.523438,13.144531 0.206433,0.209436 7.604413,0.254721 7.914062,-0.253906 -0.791326,-3.919433 -7.260064,-21.108753 -7.363281,-21.138672 -0.215034,-0.0374 -0.859403,-0.05329 -1.710937,-0.05469 z m 36.755859,0 c -2.554602,-0.0042 -6.966982,0.129036 -7.199219,0.263672 -0.309648,0.179515 -6.502247,18.416463 -7.052734,20.929688 0.172028,0.448789 7.77599,0.313036 7.982422,0.193359 0.791325,-2.303789 3.024934,-10.688484 3.541015,-13.082031 l 0.367188,-0.002 c 0.51608,2.453385 3.179384,12.635903 3.523437,13.144531 0.206433,0.209436 7.602465,0.254721 7.912105,-0.253906 -0.79132,-3.919433 -7.26006,-21.108753 -7.363277,-21.138672 -0.215033,-0.0374 -0.859403,-0.05329 -1.710937,-0.05469 z M 41.140667,28.37661 c -5.412403,-0.0014 -15.294808,0.244314 -15.423829,0.423828 -0.172025,0.209435 -0.103366,5.219243 0.171876,6.416016 0.860135,0.08976 2.959857,0.119759 5.505859,0.08984 -0.06881,5.774432 -9.03e-4,12.943229 0.136719,14.169921 0.0344,0.239355 7.294769,0.05905 7.466796,-0.15039 0.172026,-0.209436 0.102764,-7.88536 0.06836,-13.958985 2.786839,-0.08976 5.091639,-0.179773 5.710937,-0.269531 0.240838,-0.02992 0.344658,-6.535243 -0.240234,-6.625 -0.283844,-0.06732 -1.59235,-0.09524 -3.396484,-0.0957 z m 36.757812,0 c -5.412403,-0.0014 -15.294807,0.244314 -15.423828,0.423828 -0.172026,0.209435 -0.103367,5.219243 0.171875,6.416016 0.860135,0.08976 2.957905,0.119759 5.503906,0.08984 -0.06881,5.774432 0.0011,12.943229 0.138672,14.169921 0.0344,0.239355 7.292816,0.05905 7.464844,-0.15039 0.172026,-0.209436 0.102763,-7.88536 0.06836,-13.958985 2.786839,-0.08976 5.093592,-0.179773 5.712891,-0.269531 0.240838,-0.02992 0.342705,-6.535243 -0.242188,-6.625 -0.283844,-0.06732 -1.590397,-0.09524 -3.394531,-0.0957 z" /><path
         id="text6"
         style="font-weight:bold;font-size:48px;line-height:1;font-family:Mikado;-inkscape-font-specification:'Mikado Bold';font-variant-numeric:lining-nums;font-feature-settings:'cv01', 'cv02';text-align:end;letter-spacing:0px;word-spacing:0px;text-anchor:end;fill:#373737;stroke-width:4;stroke-linecap:round;stroke-linejoin:round;paint-order:stroke fill markers"
         d="m 38.268277,88.90336 c 0.24,-1.92 0.24,-32.544 0.24,-32.544 -0.528,-0.576 -3.792,-1.152 -4.656,-1.248 -1.104,0.336 -11.087999,4.992 -11.951999,5.952 -0.144,0.192 1.488,6.24 1.872,6.288 0.624,0.096 6.672,-3.072 6.672,-3.072 -0.096,7.632 -0.48,23.088 -0.288,24.672 0.288,0.48 7.775999,0.096 8.111999,-0.048 z m 3.759979,-23.184 c -0.144,10.176 0.048,23.232 0.144,23.424 0.144,0.288 7.152,0.384 7.296,0.192 0.144,-0.192 0.24,-12.336 0.24,-13.728 0,-1.536 1.056,-3.648 3.552,-3.648 2.496,0 3.168,1.776 3.168,4.128 0,1.632 -0.24,12.864 -0.048,12.96 0.096,0.096 7.344,0.384 7.392,-0.048 0.144,-2.4 0.288,-9.504 0.288,-12.96 0,-1.488 0.768,-4.08 3.408,-4.08 2.544,0 3.168,1.776 3.168,4.128 0,2.256 -0.24,13.248 -0.096,13.344 0.144,0.144 7.44,0.144 7.488,-0.288 0.144,-2.256 0.336,-10.56 0.336,-13.824 0,-6.144 -2.688,-10.128 -8.736,-10.128 -1.968,0 -5.616,0.576 -7.248,3.456 -1.296,-2.112 -3.456,-3.456 -6.144,-3.456 -3.888,0 -5.712,1.68 -6.768,3.264 0.048,-0.288 0.096,-1.584 0.144,-2.592 -0.432,-0.432 -7.152,-0.864 -7.584,-0.144 z m 56.926043,-0.144 c 0,0.288 -0.096,2.304 -0.096,2.592 -1.488,-1.536 -3.888,-2.736 -6.912,-2.736 -5.808,0 -11.232,4.704 -11.232,12.192 0,7.44 5.952,11.328 11.088,11.328 4.272,0 6.192,-2.16 6.576,-2.832 0.096,4.176 -1.392,7.2 -5.52,7.2 -4.08,0 -6.624,-2.352 -6.864,-2.112 -0.768,1.056 -1.968,3.6 -2.4,5.136 0.576,1.056 4.56,3.456 10.272,3.456 6,0 12.384001,-2.88 12.240001,-15.552 -0.048,-2.928 -0.336,-18.192 -0.432,-18.72 -0.144,-0.144 -5.952001,-0.528 -6.720001,0.048 z m -9.936,12.048 c 0,-3.264 2.064,-4.992 4.656,-4.992 3.264,0 4.8,2.16 4.8,5.04 0,3.168 -2.208,4.992 -4.8,4.992 -3.024,0 -4.656,-2.016 -4.656,-5.04 z M 42.145669,62.938307 c 0.471992,0 63.086811,0.707988 63.244151,0.629323 0.15733,-0.07867 0.0425,-4.550909 -0.22573,-6.054581 -0.78665,-1.337311 -62.911748,-1.0253 -62.911748,-1.0253 -0.157331,-0.235997 -0.57866,6.371892 -0.106673,6.450558 z M 30.32681,97.907372 c 0.393327,0.393327 50.21169,0.707988 50.290355,0.707988 0.07867,0 0.411654,-6.364373 0.411654,-6.679035 0,-0.393326 -50.678142,-0.479511 -50.835473,-0.322181 -0.707988,0.471992 -0.181197,5.978567 0.133464,6.293228 z" /></g></g></svg>
