<svg enable-background="new" version="1.1" viewBox="0 0 128 128" xmlns="http://www.w3.org/2000/svg"><defs><filter id="a" x="-.056296" y="-.056296" width="1.1407" height="1.1689" color-interpolation-filters="sRGB"><feFlood flood-color="rgb(107,90,131)" flood-opacity=".49804" result="flood"/><feComposite in="flood" in2="SourceGraphic" operator="in" result="composite1"/><feOffset dx="2" dy="4" result="offset"/><feComposite in="SourceGraphic" in2="offset" result="composite2"/></filter></defs><style>.B{fill:#fc9abf}.C{fill:#ffc7df}.D{fill:#ed84cb}.E{fill-opacity:1}.F{stroke:none}</style><g stroke-linejoin="round"><circle cx="64" cy="64" r="60" fill="#9e7fb6" stroke="#6b5a83" stroke-width="4" style="paint-order:fill markers stroke"/><path d="m99.526 64c0 19.621-15.906 35.526-35.526 35.526-19.621 0-35.526-15.906-35.526-35.526 0-19.621 15.906-35.526 35.526-35.526 19.621 0 35.526 15.906 35.526 35.526z" fill="#fff" filter="url(#a)" stroke="#6b5a83" stroke-width="8" style="paint-order:stroke fill markers"/><g fill="none" stroke="#9e7fb6" stroke-linecap="round" stroke-width="4"><path d="m68.715 37.259a27.154 27.154 0 0 1 22.255 23.589 27.154 27.154 0 0 1-16.215 28.085 27.154 27.154 0 0 1-31.556-7.4789" opacity=".99" style="paint-order:stroke fill markers"/><path d="m77.388 77.388a18.934 18.934 0 0 1-23.907 2.3546 18.934 18.934 0 0 1-6.9734-22.988 18.934 18.934 0 0 1 21.186-11.324 18.934 18.934 0 0 1 15.24 18.57" opacity=".99" style="paint-order:stroke fill markers"/><path d="m64 53.64a10.36 10.36 0 0 1 9.5714 6.3954 10.36 10.36 0 0 1-2.2458 11.29 10.36 10.36 0 0 1-11.29 2.2458 10.36 10.36 0 0 1-6.3954-9.5714" opacity=".99" style="paint-order:stroke fill markers"/><path d="m38.484 73.287a27.154 27.154 0 0 1 2.0003-22.864 27.154 27.154 0 0 1 18.801-13.164" opacity=".99" style="paint-order:stroke fill markers"/></g></g><style>.B{fill:#fc9abf}.C{fill:#ffc7df}.D{fill:#ed84cb}.E{fill-opacity:1}.F{stroke:none}</style></svg>
