<?xml version="1.0" encoding="UTF-8" standalone="no"?>
<svg
   height="128"
   width="128"
   version="1.1"
   id="svg5"
   sodipodi:docname="vanadium_browser.svg"
   xml:space="preserve"
   inkscape:version="1.3 (0e150ed6c4, 2023-07-21)"
   inkscape:export-filename="..\app\src\main\res\drawable-nodpi\vanadium_browser.png"
   inkscape:export-xdpi="384"
   inkscape:export-ydpi="384"
   xmlns:inkscape="http://www.inkscape.org/namespaces/inkscape"
   xmlns:sodipodi="http://sodipodi.sourceforge.net/DTD/sodipodi-0.dtd"
   xmlns:xlink="http://www.w3.org/1999/xlink"
   xmlns="http://www.w3.org/2000/svg"
   xmlns:svg="http://www.w3.org/2000/svg"><defs
     id="defs5" /><sodipodi:namedview
     id="namedview5"
     pagecolor="#505050"
     bordercolor="#ffffff"
     borderopacity="1"
     inkscape:showpageshadow="0"
     inkscape:pageopacity="0"
     inkscape:pagecheckerboard="1"
     inkscape:deskcolor="#d1d1d1"
     inkscape:zoom="4.0769125"
     inkscape:cx="50.037866"
     inkscape:cy="110.62293"
     inkscape:window-width="1852"
     inkscape:window-height="1057"
     inkscape:window-x="60"
     inkscape:window-y="-8"
     inkscape:window-maximized="1"
     inkscape:current-layer="svg5" /><path
     d="M63.826 4C43.415 4 25.395 14.197 14.553 29.767c6.788 19.729 14.415 34.371 27.32 51.14l21.953-16.893-3.654-27.458c20.976-2.792 37.436-2.016 57.916 1.97A60.02 60.02 0 0 0 63.826 4z"
     fill="#4c4c4c"
     paint-order="fill markers stroke"
     id="path1" /><path
     d="M11.852 94.022c10.206 17.677 28.047 28.184 46.952 29.789 13.692-15.743 22.559-29.669 30.628-49.23L63.826 64.015 41.874 80.908C28.968 64.139 21.41 49.496 14.622 29.766a60.02 60.02 0 0 0-2.77 64.256z"
     fill="#646464"
     paint-order="fill markers stroke"
     id="path2" /><path
     d="M115.801 94.022c10.206-17.677 10.385-38.381 2.322-55.556-20.48-3.986-36.973-4.702-57.949-1.91l3.653 27.458 25.606 10.564c-8.07 19.562-16.972 33.428-30.664 49.172 23.164 1.973 45.384-9.609 57.032-29.729z"
     fill="#d4d4d4"
     paint-order="fill markers stroke"
     id="path3" /><g
     stroke="#404040"
     stroke-linejoin="round"
     stroke-width="4"
     id="g4"><circle
       cx="64"
       cy="64"
       r="60"
       fill="none"
       paint-order="fill markers stroke"
       id="circle3"
       style="stroke:#373737;stroke-opacity:1" /><circle
       r="27.691"
       cy="64"
       cx="64"
       fill="#fff"
       paint-order="fill markers stroke"
       id="circle4"
       style="stroke:#373737;stroke-opacity:1" /></g><path
     d="M60.172 36.558c21.083-2.806 37.602-2.011 58.228 2.028"
     id="A"
     fill="none"
     stroke="#404040"
     stroke-width="4"
     stroke-linejoin="round"
     paint-order="stroke fill markers"
     stroke-opacity="1"
     style="stroke:#373737;stroke-opacity:1" /><use
     xlink:href="#A"
     transform="rotate(240 64 64)"
     stroke="#a8206f"
     id="use4" /><use
     transform="rotate(120 64 64)"
     xlink:href="#A"
     id="use5" /><circle
     cx="64"
     cy="64"
     r="16.625"
     fill="#4c4c4c"
     stroke="#404040"
     stroke-width="4"
     stroke-linejoin="round"
     paint-order="fill markers stroke"
     id="circle5" /></svg>
