<?xml version="1.0" encoding="UTF-8" standalone="no"?>
<!-- Created with Inkscape (http://www.inkscape.org/) -->

<svg
   enable-background="new"
   inkscape:export-ydpi="384"
   inkscape:export-xdpi="384"
   inkscape:export-filename="..\app\src\main\res\drawable-nodpi\voyager.png"
   sodipodi:docname="voyager.svg"
   inkscape:version="1.3 (0e150ed6c4, 2023-07-21)"
   id="svg8"
   version="1.1"
   viewBox="0 0 128 128"
   height="128"
   width="128"
   xml:space="preserve"
   xmlns:inkscape="http://www.inkscape.org/namespaces/inkscape"
   xmlns:sodipodi="http://sodipodi.sourceforge.net/DTD/sodipodi-0.dtd"
   xmlns:xlink="http://www.w3.org/1999/xlink"
   xmlns="http://www.w3.org/2000/svg"
   xmlns:svg="http://www.w3.org/2000/svg"
   xmlns:rdf="http://www.w3.org/1999/02/22-rdf-syntax-ns#"
   xmlns:cc="http://creativecommons.org/ns#"
   xmlns:dc="http://purl.org/dc/elements/1.1/"><sodipodi:namedview
     id="base"
     pagecolor="#ffffff"
     bordercolor="#666666"
     borderopacity="1.0"
     inkscape:pageopacity="0.0"
     inkscape:pageshadow="2"
     inkscape:zoom="2.0387501"
     inkscape:cx="23.053341"
     inkscape:cy="78.969954"
     inkscape:document-units="px"
     inkscape:current-layer="g30"
     showgrid="false"
     units="px"
     inkscape:pagecheckerboard="true"
     borderlayer="true"
     gridtolerance="10"
     inkscape:snap-smooth-nodes="true"
     inkscape:snap-text-baseline="true"
     inkscape:snap-page="true"
     showguides="true"
     inkscape:guide-bbox="true"
     inkscape:snap-object-midpoints="true"
     inkscape:snap-center="true"
     inkscape:snap-global="true"
     inkscape:lockguides="false"
     inkscape:snap-bbox="true"
     inkscape:bbox-nodes="true"
     inkscape:showpageshadow="0"
     inkscape:deskcolor="#d1d1d1"
     inkscape:window-width="1852"
     inkscape:window-height="1057"
     inkscape:window-x="60"
     inkscape:window-y="-8"
     inkscape:window-maximized="1"><inkscape:grid
       enabled="false"
       empspacing="4"
       id="grid4131"
       type="xygrid"
       spacingx="8"
       spacingy="8"
       originx="0"
       originy="0"
       units="px"
       visible="false" /><inkscape:grid
       empspacing="4"
       id="grid4167"
       type="xygrid"
       originx="0"
       originy="0"
       spacingy="1"
       spacingx="1"
       units="px"
       visible="false" /></sodipodi:namedview><defs
     id="defs2"><filter
       id="filter265-8"
       inkscape:label="Drop Shadow red"
       style="color-interpolation-filters:sRGB"
       x="-0.052337022"
       y="-0.041107163"
       width="1.1308426"
       height="1.1027679"><feFlood
         id="feFlood264-4"
         result="flood"
         flood-color="rgb(29,55,85)"
         flood-opacity="0.498039" /><feComposite
         id="feComposite264-5"
         result="composite1"
         operator="in"
         in2="SourceGraphic"
         in="flood" /><feOffset
         id="feOffset264-1"
         result="offset"
         dy="4"
         dx="2" /><feComposite
         id="feComposite265-3"
         result="composite2"
         operator="over"
         in2="offset"
         in="SourceGraphic" /></filter><clipPath
       clipPathUnits="userSpaceOnUse"
       id="clipPath30"><circle
         style="display:inline;vector-effect:none;fill:#f8c365;fill-opacity:1;fill-rule:nonzero;stroke:none;stroke-width:4;stroke-linecap:butt;stroke-linejoin:round;stroke-miterlimit:4;stroke-dasharray:none;stroke-dashoffset:0;stroke-opacity:1;paint-order:fill markers stroke"
         id="circle31"
         cx="64"
         cy="64"
         r="60" /></clipPath></defs><metadata
     id="metadata5"><rdf:RDF><cc:Work
         rdf:about=""><dc:format>image/svg+xml</dc:format><dc:type
           rdf:resource="http://purl.org/dc/dcmitype/StillImage" /></cc:Work></rdf:RDF></metadata><style
     id="style2296">.B{fill:#fc9abf}.C{fill:#ffc7df}.D{fill:#ed84cb}.E{fill-opacity:1}.F{stroke:none}</style><g
     inkscape:groupmode="layer"
     id="layer23"
     inkscape:label="art"
     style="display:inline"><g
       inkscape:groupmode="maskhelper"
       id="g30"
       clip-path="url(#clipPath30)"
       style="stroke-width:4;stroke-dasharray:none;paint-order:fill markers stroke"><rect
         style="display:inline;fill:#374d68;fill-opacity:1;stroke:none;stroke-width:4;stroke-linecap:round;stroke-linejoin:round;stroke-dasharray:none;stroke-opacity:1;paint-order:fill markers stroke"
         id="rect34"
         width="128.01962"
         height="127.03863"
         x="0.98099327"
         y="0"
         rx="0"
         ry="0" /><circle
         style="fill:#4c4c4c;stroke:#373737;stroke-width:4;stroke-linecap:round;stroke-linejoin:round;paint-order:fill markers stroke;fill-opacity:1;stroke-opacity:1;stroke-dasharray:none"
         id="path1"
         cx="64"
         cy="224"
         r="160" /><g
         id="g24"
         style="display:inline;filter:url(#filter265-8)"><path
           style="fill:#ffffff;fill-opacity:1;stroke:#646464;stroke-width:4;stroke-linecap:round;stroke-linejoin:round;stroke-dasharray:none;stroke-opacity:1;paint-order:fill markers stroke"
           d="m 83,99 c 4,0.705308 6,4 7,7 3.174741,1.05089 8,3 11,11 l -1,11 H 28 l -1,-11 c 3,-8 7.825259,-9.94911 11,-11 1,-3 3,-6.294692 7,-7"
           id="path23"
           sodipodi:nodetypes="cccccccc" /><path
           id="path21"
           style="fill:#4c4c4c;stroke:#373737;stroke-width:4;stroke-linecap:round;stroke-linejoin:round;paint-order:fill markers stroke;fill-opacity:1"
           d="m 83.162167,89.470627 c -10e-7,5.7655 -8.887496,10.439361 -19.850777,10.439361 -10.963281,0 -19.850776,-4.673861 -19.850777,-10.439361 0,-5.7655 8.887496,-10.439362 19.850777,-10.439362 10.963281,0 19.850777,4.673862 19.850777,10.439362 z"
           sodipodi:nodetypes="sssss" /><path
           id="path20"
           style="fill:#eaeaea;fill-opacity:1;stroke:#646464;stroke-width:4;stroke-linecap:round;stroke-linejoin:round;stroke-dasharray:none;stroke-opacity:1;paint-order:fill markers stroke"
           d="m 54,87 c 1.999998,2.999997 1.999999,10.000003 1,13 -0.944145,2.83244 4.349538,3.88182 8.310547,3.99023 v 0.0606 c 3.999996,0 9.999999,-1 9,-4 -0.999999,-2.999999 -0.999998,-10.000002 1,-12.999999 z"
           sodipodi:nodetypes="csccscc" /><path
           id="ellipse21"
           style="fill:#434343;stroke:#373737;stroke-width:4;stroke-linecap:round;stroke-linejoin:round;paint-order:fill markers stroke;stroke-opacity:1;fill-opacity:1"
           d="m 83.162167,96.470627 c 10e-7,5.765503 -8.887495,10.439363 -19.850777,10.439363 -10.963282,0 -19.850778,-4.67386 -19.850777,-10.439363 v -7 c -1e-6,5.765503 8.887495,10.439363 19.850777,10.439363 10.963282,0 19.850778,-4.67386 19.850777,-10.439363 z"
           sodipodi:nodetypes="csccscc" /><path
           style="fill:#63a2fa;fill-opacity:1;stroke:none;stroke-width:4;stroke-linecap:round;stroke-linejoin:round;stroke-dasharray:none;stroke-opacity:1;paint-order:fill markers stroke"
           d="m 73.942364,111.83323 c 2.253395,-0.85666 5.69759,-1.92584 8.522379,-2.45249 0.595691,1.28405 0.827266,2.5681 0.964311,3.85215 -2.986782,1.28459 -5.87857,2.0942 -8.750945,2.80675 -0.280822,-1.15312 -0.567198,-2.26737 -0.735745,-4.20641 z"
           id="path24"
           sodipodi:nodetypes="ccccc" /><path
           id="path2"
           style="fill:#ffffff;fill-opacity:1;stroke:#646464;stroke-width:8;stroke-linecap:round;stroke-linejoin:round;stroke-dasharray:none;stroke-opacity:1;paint-order:stroke markers fill"
           d="m 38.328125,30.693359 c -7.140436,0 -13.230469,4.726082 -13.230469,12.601563 0,7.507958 4.666555,11.815847 9.095703,13.390625 -0.57974,2.146615 -0.886718,4.474347 -0.886718,6.976562 0,15.592657 12.021033,28.207032 30.003906,28.207032 17.982873,0 30.005859,-12.614375 30.005859,-28.207032 0,-2.502215 -0.306978,-4.829947 -0.886718,-6.976562 4.429148,-1.574778 9.095702,-5.882667 9.095702,-13.390625 0,-7.875481 -6.091985,-12.601563 -13.232421,-12.601563 -7.185583,0 -11.986161,4.832916 -13.585938,9.839844 -3.421048,-0.896775 -7.237028,-1.361328 -11.396484,-1.361328 -4.159456,0 -7.975436,0.464553 -11.396485,1.361328 -1.599776,-5.006928 -6.400354,-9.839844 -13.585937,-9.839844 z" /><path
           style="fill:#646464;fill-opacity:1;stroke:none;stroke-width:4;stroke-linecap:round;stroke-linejoin:round;stroke-dasharray:none;stroke-opacity:1;paint-order:fill markers stroke"
           d="m 28.830495,43.40721 c 0,-7.588018 8.45839,-12.278569 15.078957,2.111317 -2.988468,1.455395 -5.661874,5.45813 -7.091875,7.199294 -3.830238,-0.06706 -7.987082,-2.627595 -7.987082,-9.310611 z"
           id="path5"
           sodipodi:nodetypes="sccs" /><path
           style="fill:none;fill-opacity:1;stroke:#373737;stroke-width:4;stroke-linecap:round;stroke-linejoin:round;stroke-dasharray:none;stroke-opacity:1;paint-order:stroke markers fill"
           d="m 46.842426,72.589207 c 0.857858,-5.015701 7.254338,-5.159079 7.79639,-0.157713"
           id="path6"
           sodipodi:nodetypes="cc"
           inkscape:transform-center-x="12.570769"
           inkscape:transform-center-y="-11.360111" /><path
           id="path8"
           style="fill:#373737;stroke-width:4;stroke-linecap:round;stroke-linejoin:round;paint-order:stroke markers fill"
           d="m 68.853463,82.031265 c 0,3.060802 -2.787831,5.542073 -5.542073,5.542073 -2.754242,0 -5.542073,-2.481271 -5.542073,-5.542073 0,-3.060802 2.481271,-4.622392 5.542073,-4.622392 3.060802,0 5.542073,1.56159 5.542073,4.622392 z"
           sodipodi:nodetypes="zzzzz" /><path
           style="fill:none;fill-opacity:1;stroke:#373737;stroke-width:4;stroke-linecap:round;stroke-linejoin:round;stroke-dasharray:none;stroke-opacity:1;paint-order:stroke markers fill"
           d="M 41.263027,76.451868 32.048478,75.327211 M 41.6309,81.356834 28.63274,83.993253"
           id="path9"
           sodipodi:nodetypes="cccc"
           inkscape:transform-center-x="28.17957"
           inkscape:transform-center-y="-2.3710333" /><path
           style="fill:#646464;fill-opacity:1;stroke:none;stroke-width:4;stroke-linecap:round;stroke-linejoin:round;stroke-dasharray:none;stroke-opacity:1;paint-order:fill markers stroke"
           d="m 97.792283,43.40721 c 0,-7.588018 -8.45839,-12.278569 -15.078957,2.111317 2.988468,1.455395 5.661874,5.45813 7.091875,7.199294 3.830238,-0.06706 7.987082,-2.627595 7.987082,-9.310611 z"
           id="path12"
           sodipodi:nodetypes="sccs" /><path
           style="fill:none;fill-opacity:1;stroke:#373737;stroke-width:4;stroke-linecap:round;stroke-linejoin:round;stroke-dasharray:none;stroke-opacity:1;paint-order:stroke markers fill"
           d="m 79.780354,72.589207 c -0.857858,-5.015701 -7.254338,-5.159079 -7.79639,-0.157713"
           id="path14"
           sodipodi:nodetypes="cc"
           inkscape:transform-center-x="-12.570769"
           inkscape:transform-center-y="-11.360111" /><path
           style="fill:none;fill-opacity:1;stroke:#373737;stroke-width:4;stroke-linecap:round;stroke-linejoin:round;stroke-dasharray:none;stroke-opacity:1;paint-order:stroke markers fill"
           d="m 85.359753,76.451868 9.214549,-1.124657 m -9.582422,6.029623 12.99816,2.636419"
           id="path19"
           sodipodi:nodetypes="cccc"
           inkscape:transform-center-x="-28.17957"
           inkscape:transform-center-y="-2.3710333" /></g></g><circle
       style="display:inline;vector-effect:none;fill:none;fill-opacity:1;fill-rule:nonzero;stroke:#1d3755;stroke-width:4;stroke-linecap:butt;stroke-linejoin:round;stroke-miterlimit:4;stroke-dasharray:none;stroke-dashoffset:0;stroke-opacity:1;paint-order:fill markers stroke"
       id="circle10469"
       cx="64"
       cy="64"
       r="60" /><image
       width="128"
       height="128"
       preserveAspectRatio="none"
       style="image-rendering:optimizeSpeed"
       xlink:href="../../Dollphone%20Ankit%20Malik/voyager.png"
       id="image1"
       x="0"
       y="-128" /><g
       id="g3" /></g><style
     id="style2296-4">.B{fill:#fc9abf}.C{fill:#ffc7df}.D{fill:#ed84cb}.E{fill-opacity:1}.F{stroke:none}</style></svg>
