<?xml version="1.0" encoding="UTF-8" standalone="no"?>
<!-- Created with Inkscape (http://www.inkscape.org/) -->

<svg
   enable-background="new"
   inkscape:export-ydpi="384"
   inkscape:export-xdpi="384"
   inkscape:export-filename="..\app\src\main\res\drawable-nodpi\wikipedia_1.png"
   sodipodi:docname="wikipedia_1.svg"
   inkscape:version="1.3 (0e150ed6c4, 2023-07-21)"
   id="svg8"
   version="1.1"
   viewBox="0 0 128 128"
   height="128"
   width="128"
   xml:space="preserve"
   xmlns:inkscape="http://www.inkscape.org/namespaces/inkscape"
   xmlns:sodipodi="http://sodipodi.sourceforge.net/DTD/sodipodi-0.dtd"
   xmlns="http://www.w3.org/2000/svg"
   xmlns:svg="http://www.w3.org/2000/svg"
   xmlns:rdf="http://www.w3.org/1999/02/22-rdf-syntax-ns#"
   xmlns:cc="http://creativecommons.org/ns#"
   xmlns:dc="http://purl.org/dc/elements/1.1/"><sodipodi:namedview
     id="base"
     pagecolor="#ffffff"
     bordercolor="#666666"
     borderopacity="1.0"
     inkscape:pageopacity="0.0"
     inkscape:pageshadow="2"
     inkscape:zoom="2.8284271"
     inkscape:cx="65.584155"
     inkscape:cy="98.641397"
     inkscape:document-units="px"
     inkscape:current-layer="g2265"
     showgrid="false"
     units="px"
     inkscape:pagecheckerboard="true"
     borderlayer="true"
     gridtolerance="10"
     inkscape:snap-smooth-nodes="true"
     inkscape:snap-text-baseline="true"
     inkscape:snap-page="true"
     showguides="true"
     inkscape:guide-bbox="true"
     inkscape:snap-object-midpoints="true"
     inkscape:snap-center="true"
     inkscape:snap-global="true"
     inkscape:lockguides="false"
     inkscape:snap-bbox="true"
     inkscape:bbox-nodes="true"
     inkscape:showpageshadow="0"
     inkscape:deskcolor="#d1d1d1"
     inkscape:window-width="1852"
     inkscape:window-height="1057"
     inkscape:window-x="60"
     inkscape:window-y="-8"
     inkscape:window-maximized="1"><inkscape:grid
       enabled="false"
       empspacing="4"
       id="grid4131"
       type="xygrid"
       spacingx="8"
       spacingy="8"
       originx="0"
       originy="0"
       units="px"
       visible="false" /><inkscape:grid
       empspacing="4"
       id="grid4167"
       type="xygrid"
       originx="0"
       originy="0"
       spacingy="1"
       spacingx="1"
       units="px"
       visible="false" /><sodipodi:guide
       position="4,64"
       orientation="0,-1"
       id="guide23"
       inkscape:locked="false" /><sodipodi:guide
       position="64,0"
       orientation="1,0"
       id="guide24"
       inkscape:locked="false" /></sodipodi:namedview><defs
     id="defs2"><clipPath
       clipPathUnits="userSpaceOnUse"
       id="clipPath19"><path
         id="path20"
         style="color:#000000;fill:#4c4c4c;stroke-linecap:round;stroke-linejoin:round;-inkscape-stroke:none;paint-order:stroke fill markers"
         d="m 63.5,26.289062 c -8.95968,10e-7 -17.914293,0.112115 -24.779297,0.335938 -3.432501,0.111911 -6.337292,0.250268 -8.503906,0.423828 -1.083307,0.08678 -1.972874,0.17942 -2.720703,0.298828 -0.373916,0.05971 -0.706984,0.12159 -1.078125,0.226563 -0.371143,0.104972 -0.745603,0.0034 -1.667969,0.925781 -1.272659,1.272659 -0.983813,1.699586 -1.119141,2.3125 -0.135325,0.612914 -0.232129,1.279558 -0.322265,2.064453 -0.180273,1.569793 -0.318773,3.589013 -0.431641,5.955078 -0.225736,4.732134 -0.337891,10.821487 -0.337891,16.917969 10e-7,6.096482 0.112155,12.185835 0.337891,16.917969 0.112868,2.366065 0.251368,4.385285 0.431641,5.955078 0.09014,0.784895 0.18694,1.451539 0.322265,2.064453 0.135328,0.612914 -0.153518,1.039841 1.119141,2.3125 0.773601,0.773601 1.175684,0.780011 1.533203,0.894531 0.357519,0.11452 0.667998,0.182161 1.005859,0.244141 0.675728,0.12396 1.445514,0.214405 2.369141,0.298828 1.847253,0.168846 4.279147,0.297143 7.144531,0.398438 5.730771,0.202589 13.16782,0.286966 20.615235,0.269531 7.447413,-0.01744 14.896509,-0.136621 20.648437,-0.347657 2.875965,-0.105515 5.320295,-0.23214 7.171875,-0.386718 0.92579,-0.07729 1.697102,-0.159813 2.355469,-0.263672 0.329184,-0.05193 0.627597,-0.107231 0.953125,-0.19336 0.325528,-0.08613 0.628261,-0.07684 1.371094,-0.628906 4.251,-3.159318 9.088237,-8.219893 12.548831,-12.529297 0.76661,-0.954644 0.72795,-1.37825 0.85547,-1.904297 0.12751,-0.526044 0.21787,-1.076226 0.30273,-1.707031 0.16972,-1.261606 0.30124,-2.827024 0.41016,-4.640625 0.21783,-3.627201 0.33676,-8.219993 0.34961,-12.814453 0.0128,-4.594458 -0.079,-9.175672 -0.29102,-12.791015 -0.106,-1.807673 -0.23914,-3.365282 -0.42187,-4.63086 -0.0914,-0.632788 -0.19089,-1.188336 -0.33985,-1.734375 C 103.18307,29.987166 103.22471,29.474708 102.25,28.5 101.32763,27.577636 100.95317,27.679191 100.58203,27.574219 100.21089,27.469246 99.877822,27.407361 99.503906,27.347656 98.756077,27.228248 97.86651,27.135608 96.783203,27.048828 94.616589,26.875268 91.711798,26.736911 88.279297,26.625 86.936112,26.58121 85.456305,26.545 83.96875,26.509766 v 3 C 79.257331,29.397838 73.854905,29.34576 68.324219,29.320312 v -3 C 66.697088,26.312801 65.140262,26.289063 63.5,26.289062 Z" /></clipPath><filter
       style="color-interpolation-filters:sRGB"
       id="filter22"
       inkscape:label="filter1"
       x="0"
       y="0"
       width="1.0282984"
       height="1.0829615"><feFlood
         id="feFlood22"
         flood-color="rgb(100,100,100)"
         flood-opacity="0.5" /><feComposite
         id="feComposite22"
         in2="SourceAlpha"
         operator="in" /><feOffset
         dx="2"
         dy="4"
         id="feOffset22"
         result="result1" /><feMerge
         id="feMerge22"><feMergeNode
           inkscape:collect="always"
           id="feMergeNode22"
           in="result1" /><feMergeNode
           inkscape:collect="always"
           id="feMergeNode23"
           in="SourceGraphic" /></feMerge></filter></defs><metadata
     id="metadata5"><rdf:RDF><cc:Work
         rdf:about=""><dc:format>image/svg+xml</dc:format><dc:type
           rdf:resource="http://purl.org/dc/dcmitype/StillImage" /></cc:Work></rdf:RDF></metadata><style
     id="style2296">.B{fill:#fc9abf}.C{fill:#ffc7df}.D{fill:#ed84cb}.E{fill-opacity:1}.F{stroke:none}</style><g
     inkscape:groupmode="layer"
     id="g2265"
     inkscape:label="files コピー コピー"
     style="display:inline"><circle
       style="display:inline;opacity:1;vector-effect:none;fill:#ffffff;fill-opacity:1;fill-rule:nonzero;stroke:#646464;stroke-width:4;stroke-linecap:butt;stroke-linejoin:round;stroke-miterlimit:4;stroke-dasharray:none;stroke-dashoffset:0;stroke-opacity:1;paint-order:fill markers stroke"
       id="circle2257"
       cx="64"
       cy="64"
       r="60" /><path
       id="path2"
       style="font-weight:500;font-size:63.0645px;line-height:1;font-family:Mikado;-inkscape-font-specification:'Mikado, Medium';font-variant-numeric:lining-nums;text-align:center;letter-spacing:0px;word-spacing:0px;text-anchor:middle;fill:#373737;fill-opacity:1;stroke-width:3;stroke-linecap:round;stroke-linejoin:round;paint-order:fill markers stroke;filter:url(#filter22)"
       d="m 28.238861,42.344201 c -0.05329,1.182686 0.03723,3.116673 0.218099,4.299359 1.11728,0.146093 2.552664,-0.158499 3.786549,-0.12901 6.1072,15.0161 13.8954,35.4465 18.1325,43.0483 0.946,0.3153 5.4317,0.625 6.9982,-0.0073 0.6444,-1.7574 16.668697,-34.82368 20.193993,-43.296793 1.506981,0.01116 3.631886,0.01548 4.20602,-0.117501 0.324325,-1.157372 0.417018,-3.040096 0.314587,-4.005506 -1.570399,-0.506381 -10.19908,-0.561871 -14.153494,-0.04122 -0.224066,1.636194 -0.373093,2.789041 -0.244006,4.307518 0.851405,0.110699 2.00328,0.131658 3.112093,0.234679 -3.7528,9.6044 -9.777193,21.705671 -14.319393,31.763871 l -0.9677,-0.06645 c -2.463,-6.0729 -9.393748,-22.372111 -13.038548,-31.974811 0.919163,-0.09197 1.783741,0.0344 2.81053,-0.488067 0.08737,-0.99842 0.02603,-2.368596 -0.121922,-3.955317 -4.721602,-0.232839 -14.238267,0.29299 -16.927508,0.428246 z m 20.272048,4.047556 c 0.895788,0.133198 2.012186,0.0164 3.025298,0.149593 6.1072,15.0162 14.5341,35.2882 18.7712,42.8899 0.946,0.3153 5.6173,0.3855 7.1213,-0.3094 0.6443,-1.7573 15.271154,-34.877317 17.249554,-42.687417 1.562464,-0.04926 2.499928,-0.133488 4.062392,-0.300148 0.07361,-0.901243 0.08472,-2.281356 0.158325,-4.22173 -4.478832,-0.270888 -8.957664,-0.255244 -13.436495,-0.05524 -0.23443,1.336009 -0.233917,3.052037 -0.114798,4.270196 0.964209,0.117333 0.989509,0.300503 4.203585,0.08036 -3.377798,8.354396 -9.382661,22.016879 -13.924861,32.075179 l -1.0422,0.0188 c -2.463,-6.073 -10.276771,-21.846431 -13.921471,-31.449131 0.927099,-0.01748 1.998083,-0.130889 3.278454,-0.383886 0.327354,-1.163019 0.341204,-2.421293 0.19838,-4.289577 -4.172005,-0.333455 -13.627263,-0.01843 -15.638485,0.06067 -0.07372,1.329097 -0.01568,3.240466 0.0098,4.151835 z"
       sodipodi:nodetypes="ccccccccccccccccccccccccccccccccccc" /></g><style
     id="style2296-6">.B{fill:#fc9abf}.C{fill:#ffc7df}.D{fill:#ed84cb}.E{fill-opacity:1}.F{stroke:none}</style></svg>
