<?xml version="1.0" encoding="UTF-8" standalone="no"?>
<!-- Created with Inkscape (http://www.inkscape.org/) -->

<svg
   enable-background="new"
   inkscape:export-ydpi="384"
   inkscape:export-xdpi="384"
   inkscape:export-filename="..\app\src\main\res\drawable-nodpi\wikipedia.png"
   sodipodi:docname="wikipedia.svg"
   inkscape:version="1.3 (0e150ed6c4, 2023-07-21)"
   id="svg8"
   version="1.1"
   viewBox="0 0 128 128"
   height="128"
   width="128"
   xml:space="preserve"
   xmlns:inkscape="http://www.inkscape.org/namespaces/inkscape"
   xmlns:sodipodi="http://sodipodi.sourceforge.net/DTD/sodipodi-0.dtd"
   xmlns:xlink="http://www.w3.org/1999/xlink"
   xmlns="http://www.w3.org/2000/svg"
   xmlns:svg="http://www.w3.org/2000/svg"
   xmlns:rdf="http://www.w3.org/1999/02/22-rdf-syntax-ns#"
   xmlns:cc="http://creativecommons.org/ns#"
   xmlns:dc="http://purl.org/dc/elements/1.1/"><sodipodi:namedview
     id="base"
     pagecolor="#ffffff"
     bordercolor="#666666"
     borderopacity="1.0"
     inkscape:pageopacity="0.0"
     inkscape:pageshadow="2"
     inkscape:zoom="2.8284271"
     inkscape:cx="160.86679"
     inkscape:cy="97.227182"
     inkscape:document-units="px"
     inkscape:current-layer="g2265"
     showgrid="false"
     units="px"
     inkscape:pagecheckerboard="true"
     borderlayer="true"
     gridtolerance="10"
     inkscape:snap-smooth-nodes="true"
     inkscape:snap-text-baseline="true"
     inkscape:snap-page="true"
     showguides="true"
     inkscape:guide-bbox="true"
     inkscape:snap-object-midpoints="true"
     inkscape:snap-center="true"
     inkscape:snap-global="true"
     inkscape:lockguides="false"
     inkscape:snap-bbox="true"
     inkscape:bbox-nodes="true"
     inkscape:showpageshadow="0"
     inkscape:deskcolor="#d1d1d1"
     inkscape:window-width="1852"
     inkscape:window-height="1057"
     inkscape:window-x="60"
     inkscape:window-y="-8"
     inkscape:window-maximized="1"><inkscape:grid
       enabled="false"
       empspacing="4"
       id="grid4131"
       type="xygrid"
       spacingx="8"
       spacingy="8"
       originx="0"
       originy="0"
       units="px"
       visible="false" /><inkscape:grid
       empspacing="4"
       id="grid4167"
       type="xygrid"
       originx="0"
       originy="0"
       spacingy="1"
       spacingx="1"
       units="px"
       visible="false" /><sodipodi:guide
       position="4,64"
       orientation="0,-1"
       id="guide23"
       inkscape:locked="false" /><sodipodi:guide
       position="64,0"
       orientation="1,0"
       id="guide24"
       inkscape:locked="false" /></sodipodi:namedview><defs
     id="defs2"><clipPath
       clipPathUnits="userSpaceOnUse"
       id="clipPath19"><path
         id="path20"
         style="color:#000000;fill:#4c4c4c;stroke-linecap:round;stroke-linejoin:round;-inkscape-stroke:none;paint-order:stroke fill markers"
         d="m 63.5,26.289062 c -8.95968,10e-7 -17.914293,0.112115 -24.779297,0.335938 -3.432501,0.111911 -6.337292,0.250268 -8.503906,0.423828 -1.083307,0.08678 -1.972874,0.17942 -2.720703,0.298828 -0.373916,0.05971 -0.706984,0.12159 -1.078125,0.226563 -0.371143,0.104972 -0.745603,0.0034 -1.667969,0.925781 -1.272659,1.272659 -0.983813,1.699586 -1.119141,2.3125 -0.135325,0.612914 -0.232129,1.279558 -0.322265,2.064453 -0.180273,1.569793 -0.318773,3.589013 -0.431641,5.955078 -0.225736,4.732134 -0.337891,10.821487 -0.337891,16.917969 10e-7,6.096482 0.112155,12.185835 0.337891,16.917969 0.112868,2.366065 0.251368,4.385285 0.431641,5.955078 0.09014,0.784895 0.18694,1.451539 0.322265,2.064453 0.135328,0.612914 -0.153518,1.039841 1.119141,2.3125 0.773601,0.773601 1.175684,0.780011 1.533203,0.894531 0.357519,0.11452 0.667998,0.182161 1.005859,0.244141 0.675728,0.12396 1.445514,0.214405 2.369141,0.298828 1.847253,0.168846 4.279147,0.297143 7.144531,0.398438 5.730771,0.202589 13.16782,0.286966 20.615235,0.269531 7.447413,-0.01744 14.896509,-0.136621 20.648437,-0.347657 2.875965,-0.105515 5.320295,-0.23214 7.171875,-0.386718 0.92579,-0.07729 1.697102,-0.159813 2.355469,-0.263672 0.329184,-0.05193 0.627597,-0.107231 0.953125,-0.19336 0.325528,-0.08613 0.628261,-0.07684 1.371094,-0.628906 4.251,-3.159318 9.088237,-8.219893 12.548831,-12.529297 0.76661,-0.954644 0.72795,-1.37825 0.85547,-1.904297 0.12751,-0.526044 0.21787,-1.076226 0.30273,-1.707031 0.16972,-1.261606 0.30124,-2.827024 0.41016,-4.640625 0.21783,-3.627201 0.33676,-8.219993 0.34961,-12.814453 0.0128,-4.594458 -0.079,-9.175672 -0.29102,-12.791015 -0.106,-1.807673 -0.23914,-3.365282 -0.42187,-4.63086 -0.0914,-0.632788 -0.19089,-1.188336 -0.33985,-1.734375 C 103.18307,29.987166 103.22471,29.474708 102.25,28.5 101.32763,27.577636 100.95317,27.679191 100.58203,27.574219 100.21089,27.469246 99.877822,27.407361 99.503906,27.347656 98.756077,27.228248 97.86651,27.135608 96.783203,27.048828 94.616589,26.875268 91.711798,26.736911 88.279297,26.625 86.936112,26.58121 85.456305,26.545 83.96875,26.509766 v 3 C 79.257331,29.397838 73.854905,29.34576 68.324219,29.320312 v -3 C 66.697088,26.312801 65.140262,26.289063 63.5,26.289062 Z" /></clipPath><filter
       style="color-interpolation-filters:sRGB"
       id="filter22"
       inkscape:label="filter1"
       x="-0.039207503"
       y="-0.041132087"
       width="1.1045386"
       height="1.1576013"><feFlood
         id="feFlood22"
         flood-color="rgb(100,100,100)"
         flood-opacity="0.5" /><feComposite
         id="feComposite22"
         in2="SourceAlpha"
         operator="in" /><feOffset
         dx="2"
         dy="4"
         id="feOffset22"
         result="result1" /><feMerge
         id="feMerge22"><feMergeNode
           inkscape:collect="always"
           id="feMergeNode22"
           in="result1" /><feMergeNode
           inkscape:collect="always"
           id="feMergeNode23"
           in="SourceGraphic" /></feMerge></filter></defs><metadata
     id="metadata5"><rdf:RDF><cc:Work
         rdf:about=""><dc:format>image/svg+xml</dc:format><dc:type
           rdf:resource="http://purl.org/dc/dcmitype/StillImage" /></cc:Work></rdf:RDF></metadata><style
     id="style2296">.B{fill:#fc9abf}.C{fill:#ffc7df}.D{fill:#ed84cb}.E{fill-opacity:1}.F{stroke:none}</style><g
     inkscape:groupmode="layer"
     id="g2265"
     inkscape:label="files コピー コピー"
     style="display:inline"><circle
       style="display:inline;opacity:1;vector-effect:none;fill:#ffffff;fill-opacity:1;fill-rule:nonzero;stroke:#646464;stroke-width:4;stroke-linecap:butt;stroke-linejoin:round;stroke-miterlimit:4;stroke-dasharray:none;stroke-dashoffset:0;stroke-opacity:1;paint-order:fill markers stroke"
       id="circle2257"
       cx="64"
       cy="64"
       r="60" /><g
       id="g22"
       style="filter:url(#filter22)"
       transform="translate(-137.88582,-144.95689)"><g
         id="g21"
         transform="matrix(0.82305487,0,0,0.82305487,12.229383,10.855559)"
         style="stroke-width:1.21499"><path
           id="path18"
           style="color:#000000;fill:none;stroke:#373737;stroke-width:9.71989;stroke-linecap:round;stroke-linejoin:round;stroke-dasharray:none;stroke-opacity:1;paint-order:stroke fill markers"
           d="m 63.5,26.289062 c -8.95968,10e-7 -17.914293,0.112115 -24.779297,0.335938 -3.432501,0.111911 -6.337292,0.250268 -8.503906,0.423828 -1.083307,0.08678 -1.972874,0.17942 -2.720703,0.298828 -0.373916,0.05971 -0.706984,0.12159 -1.078125,0.226563 -0.371143,0.104972 -0.745603,0.0034 -1.667969,0.925781 -1.272659,1.272659 -0.983813,1.699586 -1.119141,2.3125 -0.135325,0.612914 -0.232129,1.279558 -0.322265,2.064453 -0.180273,1.569793 -0.318773,3.589013 -0.431641,5.955078 -0.225736,4.732134 -0.337891,10.821487 -0.337891,16.917969 10e-7,6.096482 0.112155,12.185835 0.337891,16.917969 0.112868,2.366065 0.251368,4.385285 0.431641,5.955078 0.09014,0.784895 0.18694,1.451539 0.322265,2.064453 0.135328,0.612914 -0.153518,1.039841 1.119141,2.3125 0.773601,0.773601 1.175684,0.780011 1.533203,0.894531 0.357519,0.11452 0.667998,0.182161 1.005859,0.244141 0.675728,0.12396 1.445514,0.214405 2.369141,0.298828 1.847253,0.168846 4.279147,0.297143 7.144531,0.398438 5.730771,0.202589 13.16782,0.286966 20.615235,0.269531 7.447413,-0.01744 14.896509,-0.136621 20.648437,-0.347657 2.875965,-0.105515 5.320295,-0.23214 7.171875,-0.386718 0.92579,-0.07729 1.697102,-0.159813 2.355469,-0.263672 0.329184,-0.05193 0.627597,-0.107231 0.953125,-0.19336 0.325528,-0.08613 0.628261,-0.07684 1.371094,-0.628906 4.251,-3.159318 9.088237,-8.219893 12.548831,-12.529297 0.76661,-0.954644 0.72795,-1.37825 0.85547,-1.904297 0.12751,-0.526044 0.21787,-1.076226 0.30273,-1.707031 0.16972,-1.261606 0.30124,-2.827024 0.41016,-4.640625 0.21783,-3.627201 0.33676,-8.219993 0.34961,-12.814453 0.0128,-4.594458 -0.079,-9.175672 -0.29102,-12.791015 -0.106,-1.807673 -0.23914,-3.365282 -0.42187,-4.63086 -0.0914,-0.632788 -0.19089,-1.188336 -0.33985,-1.734375 C 103.18307,29.987166 103.22471,29.474708 102.25,28.5 101.32763,27.577636 100.95317,27.679191 100.58203,27.574219 100.21089,27.469246 99.877822,27.407361 99.503906,27.347656 98.756077,27.228248 97.86651,27.135608 96.783203,27.048828 94.616589,26.875268 91.711798,26.736911 88.279297,26.625 86.936112,26.58121 85.456305,26.545 83.96875,26.509766 v 3 C 79.257331,29.397838 73.854905,29.34576 68.324219,29.320312 v -3 C 66.697088,26.312801 65.140262,26.289063 63.5,26.289062 Z" /><g
           inkscape:groupmode="maskhelper"
           id="g19"
           clip-path="url(#clipPath19)"
           style="stroke-width:1.21499"><rect
             style="display:inline;fill:#4c4c4c;fill-opacity:1;stroke:none;stroke-width:4.85994;stroke-linecap:round;stroke-linejoin:round;stroke-dasharray:none;stroke-opacity:1;paint-order:stroke fill markers"
             id="rect20"
             width="92.073288"
             height="67.66494"
             x="19.426716"
             y="23.835062" /><path
             style="fill:none;fill-opacity:1;stroke:#f2f42b;stroke-width:4.85994;stroke-linecap:round;stroke-linejoin:round;stroke-dasharray:none;stroke-opacity:1;paint-order:stroke fill markers"
             d="M 92.032957,34.047978 108,34.538153 m 1.8542,8.383559 -17.506183,-0.167921 m 19.085193,9.051745 -18.756505,0.48444 M 112.26433,60.291796 92.625,60.875"
             id="path19"
             sodipodi:nodetypes="cccccccc" /><path
             style="fill:#373737;stroke-width:4.85994;stroke-linecap:round;stroke-linejoin:round;paint-order:stroke fill markers"
             d="M 56,79.006 C 45.5,79.006 32.415145,78.538976 29.381282,77.625 28.793761,70.8125 28.5,62.40625 28.5,54.40625 c 0,-8 0.293761,-15.59375 0.881282,-20.78125 C 32.386322,33.115672 45.5,32.40625 56,32.40625"
             id="path21" /><path
             style="fill:#646464;fill-opacity:1;stroke-width:4.85994;stroke-linecap:round;stroke-linejoin:round;paint-order:stroke fill markers"
             d="m 56,32.40625 c 10.5,0 25.468589,0.94633 27.679379,1.21875 0.414808,5.1875 0.583324,13.895833 0.563879,22.453125 C 84.223814,64.635416 84.01641,73.041666 83.679379,77.625 81.358993,78.197375 66.5,79.006 56,79.006"
             id="rect21" /></g></g><path
         d="m 78.779029,82.911612 c 0,-1.414214 -5.558058,-2.414214 -10.026069,-2.414214 0,-5.472 -0.211029,-20.39767 -0.307029,-20.58967 -0.096,-0.24 -9.437164,-0.289896 -10.157164,0.574104 -0.144,1.104 0,15.12 0.192,20.4 -4.187989,0 -9.259796,1.145897 -9.259796,2.145897 0,4 14.055329,16.133078 15.015329,16.133078 1.2,0 14.542729,-14.249195 14.542729,-16.249195 z"
         id="text21"
         style="font-weight:900;font-size:48px;line-height:1;font-family:Mikado;-inkscape-font-specification:'Mikado Heavy';font-variant-numeric:lining-nums;font-feature-settings:'cv01', 'cv02';text-align:end;letter-spacing:0px;word-spacing:0px;text-anchor:end;fill:#ff8091;stroke:#d5425d;stroke-width:8;stroke-linecap:round;stroke-linejoin:round;paint-order:stroke fill markers"
         aria-label="↓"
         sodipodi:nodetypes="sccccsss" /></g><g
       id="g23"
       transform="matrix(0.91056087,0,0,0.91056087,24.327454,4.5578169)"
       style="stroke-width:1.09822"><path
         id="path22"
         style="fill:none;fill-opacity:1;stroke:#646464;stroke-width:6.58935;stroke-linecap:round;stroke-linejoin:round;stroke-dasharray:none;stroke-opacity:1;paint-order:fill markers stroke"
         d="m 264.05469,9.9199219 -4.83399,0.058594 C 242.2735,15.38542 230,31.259936 230,50 c 0,23.19589 18.8041,42 42,42 23.19588,0 42,-18.804133 42,-42 0,-6.443535 -1.46149,-12.541633 -4.05469,-17.998047 l 0.002,-0.002 c -0.001,-0.001 -0.003,-0.0029 -0.004,-0.0039 -2.38958,-5.026075 -5.73862,-9.508153 -9.82422,-13.19336 -0.48619,0.08584 -1.07811,0.167671 -1.76172,0.244141 1.53094,2.168202 -1.68906,3.688097 -3.09375,0.273437 -1.47267,0.10471 -3.16518,0.194531 -4.99414,0.273438 -1.93339,0.08341 -4.02236,0.152987 -6.23437,0.207031 -0.36426,-2.089619 -2.09667,-2.983114 -3.47461,-2.896484 -1.37795,0.08663 -2.40006,1.153091 -1.3418,2.988281 -2.36045,0.03337 -4.78819,0.05229 -7.21875,0.05469 v 5.24414 c 2.27897,-0.423914 3.6104,0.559697 4.07031,1.841797 -1.93336,-0.01424 -3.87942,-0.0089 -5.82226,0.02344 0.44305,-5.755437 -7.24626,-3.702948 -6.13477,0.179687 -3.51864,0.147919 -6.93996,0.375514 -10.17578,0.671875 0.69519,-1.699608 0.0458,-3.736576 -2.97266,-3.455078 1.66361,-3.435952 3.65372,-6.451515 5.89844,-8.931641 -1.77751,-0.620693 0.59322,-3.325457 3.01172,-2.878906 1.33128,-1.087596 2.72905,-2.000964 4.17969,-2.7226561 z" /><path
         id="path17"
         style="fill:#d4d4d4;fill-opacity:1;stroke:none;stroke-width:2.19646;stroke-linecap:round;stroke-linejoin:round;stroke-dasharray:none;stroke-opacity:0.960784;paint-order:fill markers stroke"
         d="m 309.94733,32 c -4.88599,-3.708628 -22.47507,-5.229727 -39.6995,-4.94345 0.44305,-5.755442 -7.24542,-3.703359 -6.13393,0.17928 C 250.78552,27.796138 238.64757,29.445797 234.05267,32 L 245.5,50 h 53 z"
         sodipodi:nodetypes="cccc" /><path
         id="path13"
         style="fill:none;fill-opacity:1;stroke:#646464;stroke-width:2.19646;stroke-linecap:round;stroke-linejoin:round;stroke-dasharray:none;stroke-opacity:1;paint-order:fill markers stroke"
         d="m 255.68811,27.751126 c -1.33216,3.669779 -2.41831,9.32172 -2.98582,13.526233 M 234.05267,32 c 4.5949,-2.554203 16.73285,-4.203862 30.06123,-4.76417 -1.11149,-3.882639 6.57698,-5.934722 6.13393,-0.17928 17.22443,-0.286277 34.81351,1.234822 39.6995,4.94345" /><path
         id="path14"
         style="fill:#fcfcfc;fill-opacity:1;stroke:none;stroke-width:2.19646;stroke-linecap:round;stroke-linejoin:round;stroke-dasharray:none;stroke-opacity:1;paint-order:stroke markers fill"
         d="m 264.05469,9.9199219 -4.83399,0.058594 C 242.27348,15.385426 230,31.259917 230,50 c 0,23.195913 18.80408,42 42,42 23.1959,0 42,-18.80411 42,-42 0,-12.381548 -5.3587,-23.510281 -13.88086,-31.197266 -0.48619,0.08584 -1.07811,0.167671 -1.76172,0.244141 1.53094,2.168204 -1.68906,3.6881 -3.09375,0.273437 -1.47267,0.10471 -3.16518,0.194531 -4.99414,0.273438 -1.93339,0.08341 -4.02235,0.152987 -6.23437,0.207031 -0.36426,-2.089621 -2.09667,-2.983114 -3.47461,-2.896484 -1.37795,0.08663 -2.40006,1.153089 -1.3418,2.988281 -2.36045,0.03337 -4.78819,0.05229 -7.21875,0.05469 v 5.24414 c 5.81341,-1.081358 5.55867,6.970795 0,5.876953 v 5.423829 c -2.98145,-0.0057 -5.96546,-0.05507 -8.88281,-0.164063 -0.38201,4.419335 -8.96418,4.784692 -7.76172,-0.425781 -2.88077,-0.212334 -5.599,-0.488223 -8.13086,-0.8125 0.47372,-1.97602 1.03333,-3.88471 1.68164,-5.705078 4.70156,3.13035 8.06419,-5.491716 2.05859,-4.931641 1.66361,-3.435955 3.65372,-6.451513 5.89844,-8.931641 -1.77751,-0.620694 0.59322,-3.325458 3.01172,-2.878906 1.33128,-1.087597 2.72905,-2.000963 4.17969,-2.7226561 z" /><path
         id="path11"
         style="fill:none;fill-opacity:1;stroke:#646464;stroke-width:2.19646;stroke-linecap:round;stroke-linejoin:round;stroke-dasharray:none;stroke-opacity:1;paint-order:fill markers stroke"
         d="m 243.88086,18.802734 c 0.68354,0.119065 1.54349,0.228035 2.54996,0.327406 1.32194,-3.429126 5.323,-2.136691 3.60404,0.280816 1.14373,0.07132 2.37945,0.135389 3.68584,0.19256 M 234.05267,32 c 0.92563,0.45814 2.094,0.881822 3.46732,1.270805 0.61331,-4.277088 5.98467,-2.424994 4.92287,1.103577 3.6917,0.663656 8.11194,1.173488 12.91175,1.52727 -1.20246,5.210478 7.38083,4.844948 7.76284,0.425609 6.4011,0.239139 13.11366,0.230684 19.44796,-0.02976 -0.69343,-4.057996 5.91322,-4.16259 5.74583,-0.313925 5.43966,-0.375598 10.39872,-0.957059 14.372,-1.747606 0.55224,4.086759 5.36512,3.171356 4.18648,-1.025885 1.21491,-0.371467 2.2507,-0.774765 3.07761,-1.210085 m -75.89466,36 c 1.58673,1.85934 3.88674,3.478956 6.70967,4.855972 -2.02056,-3.932291 2.63092,-3.977896 4.18618,1.73791 3.97921,1.408297 8.60704,2.453562 13.53783,3.130574 0.7619,3.863926 7.95932,4.761767 6.76962,0.687121 4.67218,0.315348 9.46724,0.323622 14.12444,0.02089 0.47913,-4.094804 6.50603,-4.524013 5.33757,-0.49236 5.093,-0.614609 9.88151,-1.627569 13.99035,-3.044545 -1.78487,4.019883 3.70532,2.028843 5.29491,-2.261395 2.49528,-1.323453 4.52657,-2.867421 5.94409,-4.634164 M 230,50 c 0.73547,1.716108 2.40745,3.215464 4.7931,4.500418 -1.17661,-5.901121 6.08653,-2.193902 5.36897,2.194796 4.2452,1.341811 9.49394,2.309934 15.2281,2.909836 -0.17369,4.382465 6.54889,4.902909 6.33977,0.503999 6.63678,0.370908 13.63793,0.296057 20.30775,-0.217212 -0.65286,-4.310533 6.2752,-4.863137 6.4755,-0.65181 6.05289,-0.761549 11.59995,-1.916139 16.04571,-3.457488 -0.50559,4.232804 5.14053,2.703171 5.98165,-2.731845 C 312.03834,52.121245 313.21319,51.104118 314,50 M 264.05469,9.9199219 259.2207,9.9785159 C 242.27346,15.385432 230,31.259898 230,50 c 0,23.195936 18.80406,42 42,42 -4.37411,0 -8.50071,-1.679633 -12.13702,-4.654153 -4.6297,-0.03519 -6.61842,-4.341487 -4.0947,-4.14417 -2.5614,-3.150067 -4.7485,-7.028232 -6.43768,-11.438555 4.07024,0.700075 1.85255,-6.817921 -1.91914,-6.071273 C 246.17862,60.843869 245.5,55.547536 245.5,50 c -4.66147,-0.20788 -3.53364,-8.28075 0.27657,-6.090073 0.47782,-5.213372 1.5599,-10.116474 3.13,-14.525077 4.70156,3.130354 8.06308,-5.491251 2.05748,-4.931175 1.66361,-3.435958 3.65479,-6.452653 5.89951,-8.932783 -1.77751,-0.620695 0.5938,-3.324152 3.0123,-2.877599 1.33128,-1.087598 2.72819,-2.001677 4.17883,-2.7233711 z M 272,92 v -3.965205 c -2.96571,-0.101963 -2.85994,-4.757032 0,-4.331029 V 72.301669 c 4.72723,0.483616 4.0184,-6.843964 0,-5.745243 V 51.707184 c -4.64811,0.173028 -4.23447,-7.234873 0,-6.540738 V 31.068505 c 5.55869,1.093844 5.81343,-6.959186 0,-5.877826 v -5.243447 c 2.43056,-0.0024 4.8578,-0.02043 7.21825,-0.0538 -2.11652,-3.670391 4.08926,-4.271341 4.81777,-0.09209 4.30459,-0.105169 8.19786,-0.266466 11.2273,-0.481863 1.40469,3.414669 4.6248,1.894947 3.09386,-0.273261 0.68361,-0.07647 1.27515,-0.157677 1.76134,-0.243519 C 308.6407,26.489698 314,37.618428 314,50 c 0,23.195936 -18.80406,42 -42,42 4.7353,0 9.18051,-1.96847 13.02764,-5.417269 -3.77985,0.462995 0.15448,-4.624056 3.57213,-3.841977 2.61256,-3.331518 4.81804,-7.432392 6.47948,-12.085579 4.00648,0.02825 5.81959,-7.358752 1.62548,-5.428246 C 297.86395,60.505993 298.5,55.37072 298.5,50 c -4.37141,0.638655 -4.96286,-6.560396 -0.28036,-6.126479 -0.48913,-5.295731 -1.60273,-10.269414 -3.21785,-14.729235 3.84262,-0.268916 1.62833,-6.178966 -1.84603,-4.425299 -0.87337,-1.831601 -1.83914,-3.54644 -2.88623,-5.12719" /><path
         d="m 283.70752,31.229601 c 0.0573,0.01674 0.10134,0.01272 0.14536,0.0087 0.1759,-0.01614 0.30804,-0.11661 0.35746,-0.165332 2.87551,-3.378194 2.07502,-5.909515 2.02588,-6.152471 -0.12082,-0.597278 -0.72085,-0.914023 -1.27593,-0.903977 l -6.06873,-0.02799 -0.0677,9.31e-4 c -0.35025,0.0048 -0.63396,0.221729 -0.62491,0.547689 l 0.13011,2.665904 0.006,0.0319 c 0.024,0.127591 0.1809,0.231041 0.36862,0.236157 l 2.28373,0.0118 0.0233,-0.0018 c 0.15116,-0.01191 0.25548,-0.158783 0.24455,-0.295818 l -0.1238,-1.007732 c -0.0131,-0.147317 0.0147,-0.22327 0.19257,-0.237807 l 0.0777,-0.0064 1.85587,-0.03861 c 0.13749,-0.0037 0.22253,0.03984 0.25213,0.15243 0.0511,0.194475 -0.23844,2.57388 -1.50114,4.505576 -0.0395,0.06814 -0.0585,0.112911 -0.0535,0.155733 0.0112,0.09635 0.11285,0.142161 0.23643,0.175153 z m -0.32482,-7.710014 c 0.11409,-0.0088 0.26024,-0.106237 0.24873,-0.240395 l -0.11712,-1.366219 c -0.0116,-0.135131 -0.13339,-0.250612 -0.292,-0.242236 l -2.41454,0.127503 c -0.13945,0.0074 -0.28266,0.140004 -0.26998,0.280681 l 0.12786,1.418113 c 0.0115,0.128103 0.16278,0.218662 0.31447,0.207015 z m 7.22484,7.70472 c 0.0786,-0.0015 0.14589,-0.08337 0.12954,-0.183708 l -0.47822,-2.934363 c -0.0155,-0.09512 -0.10576,-0.163284 -0.18679,-0.161247 l -0.58672,0.01475 c 0.67194,-0.350074 1.33764,-0.698404 1.76785,-0.969259 0.055,-0.0328 0.086,-0.107949 0.0749,-0.175374 -0.004,-0.02531 -0.008,-0.05055 -0.03,-0.07614 l -0.86732,-1.112303 c -0.0438,-0.05756 -0.14611,-0.09827 -0.22452,-0.09766 -0.0261,2.03e-4 -0.051,0.0086 -0.0758,0.01715 -0.98244,0.511684 -2.43622,1.497627 -3.47031,2.091666 -0.0554,0.03087 -0.0714,0.09254 -0.0545,0.1598 0.006,0.02525 0.0185,0.0413 0.0322,0.06587 l 0.56528,0.930581 c 0.0401,0.07537 0.12194,0.09492 0.18292,0.08998 0.008,-6.35e-4 0.48242,-0.127178 1.39748,-0.57409 l 0.47776,2.759587 c 0.0172,0.0995 0.0891,0.178399 0.17359,0.17681 z"
         id="text28"
         style="font-size:24px;line-height:1;font-family:'FOT-Yuruka Std';-inkscape-font-specification:'FOT-Yuruka Std';font-variant-numeric:lining-nums;text-align:center;letter-spacing:0px;word-spacing:0px;text-anchor:middle;display:inline;stroke-width:6.58933;stroke-linecap:round;stroke-linejoin:round;paint-order:fill markers stroke"
         aria-label="ウィ"
         sodipodi:nodetypes="cscsccsccsccsccsccscsccsssssssssssssccsccsccsccscsss" /><path
         d="m 257.59753,54.615808 0.0459,-1.909328 c -1.04021,-0.583854 -1.97333,-1.926001 -1.97333,-3.68517 0,-2.034517 0.96371,-2.923875 2.49343,-2.830122 1.68268,0.103128 2.56991,1.182413 2.56991,3.125147 0,1.560306 -1.07079,2.932609 -2.0804,3.452022 -0.0459,0.01249 -0.0459,1.832842 0.0153,1.867187 0.0612,0.01905 4.13022,0.406103 4.19141,0.287473 0.0612,-0.08803 -0.0306,-2.128176 -0.0306,-2.128176 l -1.545,-0.0641 c 0,0 2.01922,-1.421255 2.01922,-3.899389 0,-2.676996 -1.65209,-4.858658 -5.17043,-5.07429 -2.6464,-0.162192 -5.12453,1.368613 -5.12453,4.657494 0,2.432242 1.82035,3.874657 1.82035,3.874657 l -1.51442,0.01426 c 0,0 -0.0306,1.849076 0.22946,2.094472 z"
         id="text24"
         style="font-weight:bold;font-size:24px;line-height:1;font-family:Mikado;-inkscape-font-specification:'Mikado Bold';font-variant-numeric:lining-nums;text-align:center;letter-spacing:0px;word-spacing:0px;text-anchor:middle;display:inline;stroke-width:6.58933;stroke-linecap:round;stroke-linejoin:round;paint-order:fill markers stroke"
         aria-label="Ω"
         sodipodi:nodetypes="ccssscccccssscccc" /><path
         d="m 284.93624,46.321922 c 0.47017,2.030565 1.5245,5.70189 1.75246,6.190328 0.2992,0.07205 2.47909,0.0027 2.57883,-0.229693 0.18521,-0.59247 2.08015,-9.026618 2.15139,-9.756447 -0.0142,-0.170333 -1.95192,-0.297098 -2.4221,-0.219012 -0.21372,0.835954 -1.11132,5.136281 -1.29654,6.597851 l -0.057,0.0026 c -0.2992,-1.454084 -1.43901,-6.019177 -1.60999,-6.39619 -0.0997,-0.109509 -1.90917,-0.01407 -2.16563,0.06869 -0.35619,0.999072 -1.38203,4.877721 -1.75247,6.547069 l -0.057,0.0026 c -0.18522,-1.687158 -1.12557,-6.175715 -1.21105,-6.528072 -0.0285,-0.09845 -2.23688,0.171613 -2.40786,0.449992 0,0.54141 1.89495,9.660358 2.02317,9.7116 0.28496,0.05844 2.52184,8.16e-4 2.65006,-0.175894 0.19947,-0.322394 1.16831,-3.956281 1.73822,-6.261476 z"
         id="text25"
         style="font-weight:bold;font-size:24px;line-height:1;font-family:Mikado;-inkscape-font-specification:'Mikado Bold';font-variant-numeric:lining-nums;text-align:center;letter-spacing:0px;word-spacing:0px;text-anchor:middle;display:inline;stroke-width:6.58933;stroke-linecap:round;stroke-linejoin:round;paint-order:fill markers stroke"
         aria-label="W"
         sodipodi:nodetypes="ccccccccccccccccc" /><path
         d="m 280.74621,72.593201 c -0.0914,-0.833553 0.42156,-8.441504 0.50122,-8.52325 0.0795,-0.08175 1.79518,-0.166788 2.21548,-0.08273 0.0173,0.678866 -0.35515,3.23727 -0.55839,5.156285 1.18823,-1.98577 3.70415,-5.434565 3.85763,-5.664017 0.069,-0.09511 2.02605,-0.275073 2.0582,-0.05541 0.0312,0.836459 -0.91262,7.590011 -0.97931,8.344168 -0.0133,0.132371 -1.79352,0.248925 -2.20395,0.183803 -0.0244,-0.962541 0.27237,-3.152458 0.55458,-4.843831 -1.47911,1.923398 -3.32542,5.07911 -3.54827,5.413169 -0.13894,0.120903 -1.85699,0.290978 -1.89706,0.07177 z"
         id="text26"
         style="font-weight:bold;font-size:24px;line-height:1;font-family:Mikado;-inkscape-font-specification:'Mikado Bold';font-variant-numeric:lining-nums;text-align:center;letter-spacing:0px;word-spacing:0px;text-anchor:middle;display:inline;stroke-width:6.58933;stroke-linecap:round;stroke-linejoin:round;paint-order:fill markers stroke"
         aria-label="N"
         sodipodi:nodetypes="cccccccccccc" /><path
         d="m 266.78487,75.689475 c 0.20665,0.0019 0.27452,-0.09664 0.27472,-0.269491 l 0.005,-1.126903 -0.003,-0.03646 c -0.0139,-0.145872 -0.0975,-0.230379 -0.25991,-0.242312 l -1.43175,-0.06629 -0.0644,-0.953758 0.83748,0.03609 0.0372,-1.26e-4 c 0.16097,-5.47e-4 0.22716,-0.07287 0.23256,-0.228305 l 0.006,-0.537403 -0.008,-0.05956 c -0.0171,-0.131023 -0.0996,-0.177511 -0.25249,-0.187677 l -0.93905,-0.02926 -0.0689,-0.779687 0.76681,-0.02048 c 0.16544,-0.0026 0.23288,-0.07537 0.22351,-0.242205 l -0.0331,-0.548874 -0.003,-0.0239 c -0.0199,-0.15514 -0.13037,-0.200292 -0.28592,-0.196815 l -0.75547,0.02538 -0.0526,-0.751556 1.04128,-0.06155 c 0.1975,-0.01821 0.25424,-0.11714 0.23851,-0.274526 l -0.005,-0.04843 -0.15639,-1.022339 c -0.0253,-0.159337 -0.12414,-0.204748 -0.28724,-0.198524 l -0.0543,0.0021 -4.34156,0.199937 0.56667,-1.786231 c 0.0214,-0.06268 0.0312,-0.113026 0.0278,-0.176244 -0.007,-0.126422 -0.0884,-0.241479 -0.21784,-0.293889 l -1.55625,-0.687676 c -0.05,-0.01454 -0.0876,-0.02865 -0.12474,-0.02993 -0.13624,-0.0047 -0.23235,0.0819 -0.28764,0.220464 l -0.73609,2.747274 -0.7683,-0.667732 c -0.0413,-0.03868 -0.1044,-0.06655 -0.15193,-0.06922 -0.0594,-0.0033 -0.10329,0.01846 -0.14324,0.06477 l -0.6739,0.937041 -0.49505,-0.460721 0.91833,-1.670887 c 0.0198,-0.03617 0.028,-0.07311 0.0242,-0.11079 -0.009,-0.08792 -0.0636,-0.166344 -0.13874,-0.208452 l -1.4874,-1.017891 c -0.0491,-0.02871 -0.0856,-0.04386 -0.13325,-0.04691 -0.0596,-0.0038 -0.11801,0.01809 -0.15016,0.08 l -1.16356,2.207298 c -0.0924,0.191722 -0.13168,0.410471 -0.0939,0.64422 0.0517,0.319879 0.24411,0.656478 0.54519,0.911886 l 1.0815,0.912909 -0.54574,0.761916 -0.43274,-0.01573 c -0.16143,-0.0059 -0.2542,0.02736 -0.21434,0.232401 l 0.007,0.03616 0.28242,1.2314 c 0.0474,0.193456 0.15941,0.255845 0.33583,0.259669 l 1.26226,0.0094 0.50533,3.244243 c 0.0123,0.17421 0.10545,0.274971 0.2915,0.276773 l 0.0372,3.61e-4 1.67359,-0.120806 c 0.18886,-0.008 0.25754,-0.178339 0.24274,-0.337475 l -0.27823,-1.703438 0.484,0.65848 c 0.0434,0.06114 0.12992,0.09978 0.19982,0.101992 0.035,0.0011 0.0699,0.0022 0.0899,-0.02109 l 0.56188,-0.421711 c 0.0523,-0.03375 0.0681,-0.08059 0.0818,-0.139219 l 0.28503,2.349623 c 0.0107,0.173281 0.0956,0.262836 0.26842,0.267751 l 0.0691,0.002 1.43278,-0.155792 c 0.22659,-0.03034 0.33066,-0.212637 0.31018,-0.457536 l -0.0143,-0.171169 3.52487,0.255121 z m -1.27268,-9.398312 c 0.0405,-0.0653 0.0675,-0.130211 0.067,-0.194067 -0.001,-0.127701 -0.0984,-0.251776 -0.22309,-0.310862 l -1.43014,-0.79449 c -0.0801,-0.05028 -0.1876,-0.07409 -0.26834,-0.07251 -0.10766,0.0021 -0.18875,0.0297 -0.25661,0.121799 l -1.01327,1.498263 c -0.0348,0.04986 -0.0545,0.124662 -0.0485,0.199416 0.01,0.124586 0.0981,0.261591 0.24463,0.336475 l 1.43841,0.67026 c 0.0946,0.03545 0.17507,0.05872 0.2666,0.05708 0.13076,-0.0023 0.25637,-0.06625 0.33811,-0.203975 z m -4.67035,7.118038 c -0.0154,-0.02414 -0.0328,-0.06007 -0.0599,-0.08458 l -0.48476,-0.534231 c -0.0572,-0.0607 -0.12412,-0.110017 -0.19392,-0.112607 -0.0349,-0.0013 -0.0793,0.0088 -0.10986,0.03106 l -0.55775,0.320833 -0.0504,0.04545 -0.22882,-0.971879 0.51349,0.0084 c 0.24547,0.0096 0.37356,-0.160384 0.32705,-0.441505 l -0.26973,-1.489086 c -0.0276,-0.129517 -0.11545,-0.215198 -0.2801,-0.222752 l -0.55562,-0.03781 c -0.12961,-0.0062 -0.14729,0.07489 -0.12693,0.169424 l 0.0622,0.341792 -1.16133,-0.05396 1.36884,-1.520321 c 0.0376,0.07285 0.11566,0.112137 0.2149,0.140549 l 0.71597,0.186221 z m -4.04901,1.369631 c 0.15196,0.0011 0.25863,-0.07223 0.26742,-0.231965 l 0.01,-1.192283 -0.009,-0.06043 c -0.0202,-0.132902 -0.10414,-0.194777 -0.25907,-0.234121 l -0.8784,-0.172939 c -0.04,-0.01274 -0.0653,-0.01313 -0.10345,-0.01369 -0.1271,-0.0019 -0.20504,0.06977 -0.2059,0.24014 l -0.01,1.314684 0.006,0.06211 c 0.0138,0.14912 0.11125,0.223688 0.30679,0.236033 l 0.83768,0.05218 z m 7.05694,-0.926333 -0.84144,-0.06789 -0.15831,-0.934223 0.91757,0.0555 z m -0.3744,-3.611223 -1.13175,0.0067 -0.14037,-0.695823 1.20109,-0.03193 z m 0.18628,1.677991 -0.99899,-0.05456 -0.12153,-0.643585 1.04681,0.0068 z"
         id="text27"
         style="font-size:24px;line-height:1;font-family:'FOT-Yuruka Std';-inkscape-font-specification:'FOT-Yuruka Std';font-variant-numeric:lining-nums;text-align:center;letter-spacing:0px;word-spacing:0px;text-anchor:middle;display:inline;stroke-width:6.58933;stroke-linecap:round;stroke-linejoin:round;paint-order:fill markers stroke"
         aria-label="維"
         sodipodi:nodetypes="sccsccccsccsccccccsccccsccscccsccscccsccccsccsccscccsscccccscccccsccccsccsccscsccsccsccscccccsccccccccccccccccsccsccsccsccsccccccccccccccc" /><path
         id="text29"
         style="font-style:normal;font-variant:normal;font-weight:900;font-stretch:normal;font-size:24px;line-height:1;font-family:CookieRunOTF;-inkscape-font-specification:'CookieRunOTF Heavy';font-variant-numeric:lining-nums;text-align:center;text-decoration:none;text-decoration-line:none;text-decoration-color:#000000;letter-spacing:0px;word-spacing:0px;text-anchor:middle;display:inline;fill:#000000;fill-opacity:1;stroke:none;stroke-width:6.58933;stroke-linecap:round;stroke-linejoin:round;stroke-dasharray:none;stroke-opacity:1;paint-order:fill markers stroke"
         d="m 304.57057,59.914846 c -1.58881,0.181459 -2.92343,1.341765 -3.00501,3.305868 -0.0811,1.952052 0.9849,2.768633 2.33832,2.370281 1.36215,-0.400922 2.50488,-1.704167 2.87475,-3.393718 0.37215,-1.699983 -0.609,-2.465061 -2.20806,-2.282431 z m 3.50802,-0.185306 c -0.28638,0.02125 -0.43091,0.241621 -0.5088,0.584577 l -1.5526,6.836537 c -0.0856,0.376878 0.0495,0.50868 0.31866,0.465473 l 1.32372,-0.212485 c 0.30657,-0.04921 0.39796,-0.244085 0.4927,-0.625924 l 1.65584,-6.674228 c 0.0794,-0.320127 -0.021,-0.500703 -0.33932,-0.477085 z m -3.69637,2.32305 c 0.41465,-0.0915 0.65916,0.08602 0.58126,0.606369 -0.0779,0.520339 -0.37988,0.832954 -0.77624,0.942066 -0.38757,0.106689 -0.64058,-0.0639 -0.58381,-0.604577 0.0568,-0.540689 0.37334,-0.854394 0.77879,-0.943858 z m 1.48465,3.081263 -4.55055,1.249416 c -0.27266,0.01547 -0.44817,0.132639 -0.50428,0.351008 l -0.31651,1.231853 c -0.0568,0.221264 0.0591,0.330837 0.32029,0.30607 l 1.45681,-0.24903 -0.28216,1.426478 c -0.0774,0.391527 0.0438,0.534579 0.33195,0.458891 l 1.24972,-0.328324 c 0.27631,-0.07259 0.3362,-0.256605 0.4091,-0.655085 l 0.27114,-1.482068 1.16007,-0.404298 c 0.20457,-0.06392 0.32554,-0.210419 0.37783,-0.437093 l 0.28629,-1.240967 c 0.0498,-0.215671 -0.0162,-0.298106 -0.20968,-0.226917 z"
         sodipodi:nodetypes="sssssssssssssssssssccssccssssccsscc" /><path
         id="path32"
         style="font-weight:900;font-size:26.3574px;line-height:1;font-family:CookieRunOTF;-inkscape-font-specification:'CookieRunOTF Heavy';font-variant-numeric:lining-nums;text-align:center;letter-spacing:0px;word-spacing:0px;text-anchor:middle;stroke-width:6.58936;stroke-linecap:round;stroke-linejoin:round;paint-order:fill markers stroke"
         d="m 300.63952,25.008788 c -0.72366,0.135485 -1.73582,0.577157 -1.91256,1.224129 -0.25085,0.918189 -0.19796,1.619142 -0.0442,2.31538 0.17078,0.684534 0.35398,1.287823 0.6813,1.719381 0.32689,0.41174 0.78682,0.65208 1.38275,0.568965 0.31873,-0.03847 0.60566,-0.181363 0.82009,-0.364631 0.21443,-0.183267 0.35994,-0.437184 0.4072,-0.702812 0.31802,0.338243 0.73104,0.473749 1.09282,0.418519 0.57691,-0.09017 0.80886,-0.503334 0.82781,-1.073165 0.014,-0.421034 -0.0883,-0.918087 -0.2018,-1.426629 0.089,0.0013 0.17215,0.0054 0.24105,0.01272 0.17918,0.496846 0.40438,0.796347 0.78585,1.02474 0.30966,0.185405 0.90794,0.136755 1.08178,0.0208 -0.23699,-0.47026 -0.43278,-0.682152 -0.65131,-1.364539 -0.11406,-0.356152 -0.21845,-0.840948 -0.18896,-0.951173 -0.18885,-0.135111 -0.99824,-0.06684 -1.57016,0.02928 -0.089,-0.298025 -0.20774,-0.621808 -0.39442,-0.999765 -0.21281,-0.430843 -1.03085,-0.566757 -1.19382,-0.571007 -0.29225,-0.0076 -0.90195,0.07085 -1.16344,0.119804 z m 2.19238,3.778636 c -0.0272,0.165575 -0.12273,0.208891 -0.22817,0.215527 -0.30973,0.01949 -0.78783,-1.178783 -0.91034,-1.856381 -0.0532,-0.294804 -0.18437,-0.831878 -0.21986,-1.111938 0.0964,-0.01498 0.25746,-0.08048 0.36175,-0.08751 0.26527,-0.01789 0.57884,1.10773 0.57884,1.10773 0,0 0.43861,1.900813 0.41778,1.732575 z m -2.40416,-2.515969 c 0.0671,0.243208 0.19441,0.903025 0.2464,1.171173 0.16283,0.839864 0.34421,1.958349 -0.009,1.996359 -0.12543,0.01004 -0.25384,-0.03879 -0.36462,-0.234975 -0.11078,-0.19618 -0.30712,-1.080986 -0.40096,-1.652763 -0.0736,-0.448213 -0.0965,-1.042803 0.20181,-1.179341 0.10452,-0.04784 0.2134,-0.08465 0.32589,-0.100453 z"
         sodipodi:nodetypes="sscccsccsccscsccssscsccscscssccscs" /><path
         id="text32"
         style="font-style:normal;font-variant:normal;font-weight:bold;font-stretch:normal;font-size:26.3574px;line-height:1;font-family:Mikado;-inkscape-font-specification:'Mikado Bold';font-variant-numeric:lining-nums;text-align:center;text-decoration:none;text-decoration-line:none;text-decoration-color:#000000;letter-spacing:0px;word-spacing:0px;text-anchor:middle;fill:#000000;fill-opacity:1;stroke:none;stroke-width:6.58937;stroke-linecap:round;stroke-linejoin:round;stroke-dasharray:none;stroke-opacity:1;paint-order:fill markers stroke"
         d="m 304.41767,45.912166 c 0.3238,0.818591 1.11928,1.521378 1.43659,1.794079 l -0.0153,0.0815 c -0.91938,0.427437 -2.98846,-0.452073 -4.23153,-1.448688 -0.26725,0.402815 -0.25689,2.743656 -0.10992,2.965241 1.01757,0.876532 4.05958,2.635371 6.8452,0.326623 2.27619,-1.886526 2.19898,-5.663331 1.19012,-7.419771 -0.7577,-1.319176 -1.87901,-1.713311 -2.72956,-1.735179 -0.64255,-0.01652 -1.5121,0.242896 -1.99039,0.775386 -1.27125,1.415299 -0.9309,3.306605 -0.39524,4.660806 z m 3.51631,-1.975332 c 0.54081,1.006967 0.26653,1.970278 -0.33941,2.554916 -0.16185,0.156154 -0.35077,0.268475 -0.55224,0.313269 -0.30618,-0.151322 -0.65252,-0.500852 -0.97362,-1.330388 -0.24394,-0.630209 -0.31944,-1.212088 -0.11866,-1.790215 0.13318,-0.383442 0.52951,-0.517634 0.81673,-0.502952 0.36926,0.01888 0.85333,0.17097 1.1672,0.75537 z"
         sodipodi:nodetypes="sccccssscsscssscs" /><path
         d="m 276.77021,-81.185802 c -0.15481,-0.136589 -0.73942,-1.507331 -0.72729,-1.610178 0.25772,-0.256481 0.87862,-0.380329 1.58651,-0.438291 0.36836,-0.03016 0.58025,-0.068 0.49004,-0.647229 -0.16336,-1.048874 -0.38718,-2.500427 -0.39141,-3.415685 0.28929,-0.05111 1.48931,-0.05589 1.54391,-0.0012 0.0638,0.327814 0.28809,2.542956 0.50094,3.803995 0.21546,1.276511 -0.46286,1.891058 -1.96606,1.981616 -0.55821,0.03363 -0.8181,0.181325 -1.03664,0.32702 z"
         id="text33"
         style="font-weight:bold;font-size:9.10595px;line-height:1;font-family:Mikado;-inkscape-font-specification:'Mikado Bold';font-variant-numeric:lining-nums;text-align:center;letter-spacing:0px;word-spacing:0px;text-anchor:middle;stroke-width:6.58934;stroke-linecap:round;stroke-linejoin:round;paint-order:fill markers stroke"
         transform="scale(1,-1)"
         aria-label="J"
         sodipodi:nodetypes="ccssccssc" /><path
         id="text34"
         style="font-weight:bold;font-size:26.3574px;line-height:1;font-family:Mikado;-inkscape-font-specification:'Mikado Bold';font-variant-numeric:lining-nums;text-align:center;letter-spacing:0px;word-spacing:0px;text-anchor:middle;stroke-width:6.58934;stroke-linecap:round;stroke-linejoin:round;paint-order:fill markers stroke"
         d="m 263.35088,83.796636 c 0.20239,0.63701 0.90914,1.063333 1.45153,1.102175 0.37867,0.02712 0.67175,-0.08271 0.7242,-0.635376 0.42555,0.355724 0.83437,0.830711 1.01121,1.282195 0.23356,0.596313 0.004,0.861664 -0.31107,0.841053 -0.37138,-0.02431 -0.74312,-0.209719 -1.04909,-0.821292 -0.2863,-0.100896 -0.96859,-0.0659 -1.13028,-0.01137 0.14571,0.296535 0.12103,0.815924 -0.38578,0.772844 -0.459,-0.03901 -0.68402,-0.151402 -0.80097,-0.482366 -0.0545,-0.154176 0.20169,-0.223741 0.43585,0.05988 0.22739,0.0064 0.41145,-0.262382 0.40419,-0.570532 -1.11321,-1.192424 -2.39213,-0.892413 -2.12009,0.466555 0.2001,0.999575 1.14471,1.742192 2.22931,1.84053 0.92946,0.08427 1.27958,-0.466614 1.3416,-0.729089 l 0.0508,0.005 c 0.12854,0.290059 0.57395,0.892963 1.31615,0.937208 0.99912,0.05956 1.64741,-0.916986 1.40008,-2.128306 -0.40929,-2.004545 -1.89912,-3.048398 -3.32923,-3.052349 -1.12178,-0.0031 -1.44456,0.474452 -1.23842,1.123279 z m 1.24587,-0.09085 c 0.002,0.412197 -0.3154,0.188695 -0.34554,0.101969 -0.0251,-0.07221 0.0104,-0.140503 0.15618,-0.135099 0.0582,0.0022 0.12184,0.01367 0.18936,0.03313 z"
         sodipodi:nodetypes="sscssccssccssccsscscscc" /><path
         id="path36"
         style="font-weight:bold;font-size:26.3574px;line-height:1;font-family:Mikado;-inkscape-font-specification:'Mikado Bold';font-variant-numeric:lining-nums;text-align:center;letter-spacing:0px;word-spacing:0px;text-anchor:middle;stroke-width:6.58934;stroke-linecap:round;stroke-linejoin:round;paint-order:fill markers stroke"
         d="m 235.57698,60.067689 c 0.10032,0.418382 0.24023,0.803975 0.24311,0.813646 0.003,0.0097 -0.74282,-0.159075 -0.76947,-0.113704 -0.0267,0.04537 0.36883,1.09247 0.41103,1.12182 0.0423,0.02935 0.67511,0.189857 0.75154,0.219931 0.0315,0.08657 1.52446,4.256693 1.62082,4.394726 0.0909,0.118209 1.40189,0.455146 1.43319,0.41972 0.0312,-0.03545 -1.60623,-4.440974 -1.58382,-4.426014 0.0127,0.0086 1.67736,0.483827 3.11404,0.923287 l 0.29835,0.824568 c -0.21872,-0.194501 -0.52058,-0.404911 -0.94779,-0.539071 -0.92872,-0.291653 -1.44908,0.04126 -1.13414,0.922047 0.30444,0.851434 0.89396,1.620464 1.82759,1.949727 0.67668,0.238637 0.92045,-0.111988 0.96379,-0.160466 l 0.42489,1.754864 c 0,0 1.05237,0.427953 1.0685,0.377236 0.0153,-0.04808 -0.66689,-3.43212 -1.04199,-4.68677 0.35336,0.103908 0.61084,0.175522 0.61454,0.163613 0.0393,-0.131376 -0.30292,-1.108317 -0.30292,-1.108317 -0.10758,-0.158307 -5.28085,-1.647597 -5.36416,-1.697714 -0.01,-0.02894 -0.0893,-0.244474 -0.1344,-0.389474 -0.15235,-0.490468 0.19772,-0.561587 0.5939,-0.445749 0.80675,0.235885 2.31656,1.543465 2.43805,1.57089 0.0734,0.01313 0.18771,-0.420379 0.14774,-0.662579 -0.23257,-0.210118 -1.93364,-2.010081 -3.15488,-2.385886 -1.22123,-0.375804 -1.763,0.136327 -1.51751,1.159669 z m 5.12578,4.55704 c 0.0104,0.0027 0.0215,0.0066 0.0321,0.0099 0.32496,0.1 0.61721,0.393724 0.67707,0.736866 0.0513,0.294121 -0.0975,0.48947 -0.48389,0.370557 -0.32496,-0.1 -0.61038,-0.401117 -0.66682,-0.72465 -0.053,-0.303926 0.11924,-0.477941 0.44148,-0.392669 z"
         sodipodi:nodetypes="ssssccssccsssccsccccsscccsccccccc" /><path
         id="text36"
         style="font-weight:bold;font-size:26.3574px;line-height:1;font-family:Mikado;-inkscape-font-specification:'Mikado Bold';font-variant-numeric:lining-nums;text-align:center;letter-spacing:0px;word-spacing:0px;text-anchor:middle;stroke-width:6.58932;stroke-linecap:round;stroke-linejoin:round;paint-order:fill markers stroke"
         d="m 236.13423,37.552502 c -0.72887,1.985368 0.43603,2.946431 1.95194,2.336559 0.79452,-0.319648 1.06504,0.04387 0.85273,0.607982 -1.66687,-0.147762 -4.12267,-0.308659 -4.15618,-0.300726 -0.078,0.01175 -0.33393,1.62152 -0.28528,1.693471 0.0486,0.07195 1.78716,0.19197 1.78432,0.206002 -0.003,0.01404 -0.2845,1.047343 -0.41501,1.700395 -0.24831,1.364306 0.42321,2.60267 2.07713,1.916756 0.29996,-0.124402 0.50429,-0.188445 0.48046,0.11527 -0.0238,0.303712 -0.77334,0.718778 -1.68159,0.615333 -1.02714,-0.116986 -1.58386,-0.810096 -1.66511,-1.998138 -0.008,-0.122729 -1.36572,0.617582 -1.38767,0.799405 0.0931,1.774776 1.50402,3.386904 3.24426,3.528672 1.71148,0.139424 3.07476,-1.208524 3.17821,-3.077601 0.0983,-1.77597 -0.82118,-2.242301 -2.29091,-1.811569 -0.21104,0.06186 -0.49119,0.03382 -0.40785,-0.415333 0.16233,-0.812708 0.24851,-1.046095 0.26269,-1.117304 0.0227,-0.113936 2.68403,0.259807 2.78142,0.07458 0,0 0.32044,-1.515357 0.2375,-1.72934 -0.0183,-0.04258 -0.30374,-0.07349 -0.72084,-0.110127 0.69318,-1.400987 0.14901,-3.043072 -1.98144,-2.255997 -0.89001,0.328806 -1.00787,-0.209141 -0.765,-0.985127 -0.30063,0.0034 -0.85814,0.07941 -1.09378,0.206832 z"
         sodipodi:nodetypes="csccsscsssscssscscccscc" /><path
         id="path37"
         style="fill:#000000;fill-opacity:1;stroke:none;stroke-width:6.58934;stroke-linecap:round;stroke-linejoin:round;stroke-dasharray:none;stroke-opacity:1;paint-order:fill markers stroke"
         d="m 246.69716,21.120769 c -0.99012,-0.251751 -2.03928,-0.06882 -2.5296,0.735139 -0.39801,0.652612 0.12415,1.247405 0.86497,1.457282 0.95437,0.270375 1.79433,0.349584 2.9889,0.594879 0.18742,-0.177981 0.60256,-0.839518 0.70765,-1.068299 -0.30556,-1.044582 -1.11017,-1.484676 -2.03192,-1.719001 z m 0.81848,1.589374 -0.0607,0.08608 c -0.75275,-0.155752 -0.91258,-0.140714 -1.69551,-0.348247 -0.21626,-0.05733 -0.31486,-0.12908 -0.23166,-0.270882 0.10273,-0.175178 0.26971,-0.206489 0.50814,-0.148856 0.44723,0.158222 0.92352,0.358427 1.47973,0.681905 z m -1.7711,1.032033 c -0.0498,0.308173 -0.41098,0.529173 -1.60741,0.184436 -0.18302,0.170641 -0.65123,0.831734 -0.82367,1.201837 0.78774,0.602507 1.08115,1.102846 -0.0224,2.671367 l -0.0443,-0.0057 c -0.22998,-0.02967 -0.14067,-0.379916 -0.35138,-0.46798 -0.49321,-0.206125 -1.14963,0.03738 -1.45261,0.549154 -0.3533,0.596729 -0.15842,1.24314 0.44746,1.553401 1.15267,0.590261 2.12184,-0.21239 2.86081,-1.420483 1.08912,-1.78052 0.73043,-2.436787 0.21464,-2.882958 l 0.0372,-0.05247 c 0.88003,0.210995 1.84337,-0.224041 2.15763,-1.043072 -0.0569,-0.04288 -0.19072,-0.124964 -0.31173,-0.157938 -0.21343,-0.05816 -0.88381,-0.187627 -1.10424,-0.129594 z m -3.00869,4.51907 c -0.0497,-0.01257 0.16079,0.09673 0.10407,0.19342 -0.0542,0.09235 -0.19998,0.106666 -0.2894,0.06462 -0.14381,-0.06761 0.36808,-0.211834 0.18535,-0.258042 z"
         sodipodi:nodetypes="sssccsccssscccccsssscccsscsssss" /></g><g
       id="g39"
       style="filter:url(#filter22)"><use
         x="0"
         y="0"
         xlink:href="#g23"
         id="use23"
         transform="rotate(-10,248.01037,1245.7254)"
         inkscape:transform-center-y="1.957769" /></g></g><style
     id="style2296-6">.B{fill:#fc9abf}.C{fill:#ffc7df}.D{fill:#ed84cb}.E{fill-opacity:1}.F{stroke:none}</style></svg>
