<svg xmlns="http://www.w3.org/2000/svg" width="128" height="128" xmlns:v="https://vecta.io/nano"><circle cx="64" cy="64" r="62" fill="#f08117"/><circle cx="64" cy="64" r="58" fill="#f8c365"/><g stroke="#f08117" stroke-width="4" stroke-linejoin="round"><path d="M38.962 35.423C43.635 34.945 51.35 34.31 61 34.08c2.761-.066 7.238-.101 10-.066 9.658.125 17.376.804 22.048 1.334 2.743.311 5.382 2.854 5.707 5.595.492 4.143 1.069 11.056 1.215 21.353v10c-.151 10.828-.77 18.322-1.273 22.76-.311 2.742-2.899 5.338-5.643 5.653-4.343.5-11.61 1.108-22.057 1.26a414.34 414.34 0 0 1-9.999 0c-10.447-.152-17.714-.76-22.057-1.26-2.742-.316-5.34-2.91-5.656-5.653-.499-4.33-1.105-11.579-1.256-22.055v-9.998c.151-10.477.757-17.726 1.257-22.055.316-2.742 2.928-5.245 5.675-5.526z" fill="#f08117" paint-order="normal" opacity=".5"/><path d="M36.962 31.423C41.635 30.945 49.35 30.31 59 30.08c2.761-.066 7.238-.101 10-.066 9.658.125 17.376.804 22.048 1.334 2.743.311 5.382 2.854 5.707 5.595.492 4.143 1.069 11.056 1.215 21.353v10c-.151 10.828-.77 18.322-1.273 22.76-.311 2.742-2.899 5.338-5.643 5.653-4.343.5-11.61 1.108-22.057 1.26a414.34 414.34 0 0 1-9.999 0c-10.447-.152-17.714-.76-22.057-1.26-2.742-.316-5.34-2.91-5.656-5.653-.499-4.33-1.105-11.579-1.256-22.055v-9.998c.151-10.477.757-17.726 1.257-22.055.316-2.742 2.928-5.245 5.675-5.526z" fill="#fff" paint-order="normal"/></g><text xml:space="preserve" transform="matrix(1.002186 0 0 1.015616 -7.109259 13.26551)" style="white-space:pre" font-weight="bold" font-size="37.073" font-family="HvDTrial Mikado" fill="#f08117"><tspan x="47.023" y="59.827">yle</tspan></text></svg>