<?xml version="1.0" encoding="UTF-8" standalone="no"?>
<!-- Created with Inkscape (http://www.inkscape.org/) -->

<svg
   enable-background="new"
   inkscape:export-ydpi="384"
   inkscape:export-xdpi="384"
   inkscape:export-filename="..\app\src\main\res\drawable-nodpi\zarchiver_pro.png"
   sodipodi:docname="zarchiver_pro.svg"
   inkscape:version="1.3 (0e150ed6c4, 2023-07-21)"
   id="svg8"
   version="1.1"
   viewBox="0 0 128 128"
   height="128"
   width="128"
   xml:space="preserve"
   xmlns:inkscape="http://www.inkscape.org/namespaces/inkscape"
   xmlns:sodipodi="http://sodipodi.sourceforge.net/DTD/sodipodi-0.dtd"
   xmlns="http://www.w3.org/2000/svg"
   xmlns:svg="http://www.w3.org/2000/svg"
   xmlns:rdf="http://www.w3.org/1999/02/22-rdf-syntax-ns#"
   xmlns:cc="http://creativecommons.org/ns#"
   xmlns:dc="http://purl.org/dc/elements/1.1/"><sodipodi:namedview
     id="base"
     pagecolor="#ffffff"
     bordercolor="#666666"
     borderopacity="1.0"
     inkscape:pageopacity="0.0"
     inkscape:pageshadow="2"
     inkscape:zoom="1.4142136"
     inkscape:cx="177.83736"
     inkscape:cy="-90.509669"
     inkscape:document-units="px"
     inkscape:current-layer="g56"
     showgrid="false"
     units="px"
     inkscape:pagecheckerboard="true"
     borderlayer="true"
     gridtolerance="10"
     inkscape:snap-smooth-nodes="true"
     inkscape:snap-text-baseline="true"
     inkscape:snap-page="true"
     showguides="true"
     inkscape:guide-bbox="true"
     inkscape:snap-object-midpoints="true"
     inkscape:snap-center="true"
     inkscape:snap-global="true"
     inkscape:lockguides="false"
     inkscape:snap-bbox="true"
     inkscape:bbox-nodes="true"
     inkscape:showpageshadow="0"
     inkscape:deskcolor="#d1d1d1"
     inkscape:window-width="1858"
     inkscape:window-height="1057"
     inkscape:window-x="54"
     inkscape:window-y="-8"
     inkscape:window-maximized="1"><inkscape:grid
       enabled="false"
       empspacing="4"
       id="grid4131"
       type="xygrid"
       spacingx="8"
       spacingy="8"
       originx="0"
       originy="0"
       units="px"
       visible="false" /><inkscape:grid
       empspacing="4"
       id="grid4167"
       type="xygrid"
       originx="0"
       originy="0"
       spacingy="1"
       spacingx="1"
       units="px"
       visible="false" /></sodipodi:namedview><defs
     id="defs2"><clipPath
       clipPathUnits="userSpaceOnUse"
       id="clipPath59"><path
         style="color:#000000;font-style:normal;font-variant:normal;font-weight:normal;font-stretch:normal;font-size:medium;line-height:normal;font-family:sans-serif;font-variant-ligatures:normal;font-variant-position:normal;font-variant-caps:normal;font-variant-numeric:normal;font-variant-alternates:normal;font-feature-settings:normal;text-indent:0;text-align:start;text-decoration:none;text-decoration-line:none;text-decoration-style:solid;text-decoration-color:#000000;letter-spacing:normal;word-spacing:normal;text-transform:none;writing-mode:lr-tb;direction:ltr;text-orientation:mixed;dominant-baseline:auto;baseline-shift:baseline;text-anchor:start;white-space:normal;shape-padding:0;clip-rule:nonzero;display:inline;overflow:visible;visibility:visible;isolation:auto;mix-blend-mode:normal;color-interpolation:sRGB;color-interpolation-filters:linearRGB;solid-color:#000000;solid-opacity:1;vector-effect:none;fill:#ffffff;fill-opacity:1;fill-rule:nonzero;stroke:none;stroke-width:8;stroke-linecap:butt;stroke-linejoin:round;stroke-miterlimit:4;stroke-dasharray:none;stroke-dashoffset:0;stroke-opacity:1;paint-order:fill markers stroke;color-rendering:auto;image-rendering:auto;shape-rendering:auto;text-rendering:auto;enable-background:accumulate"
         d="m 64,17.789062 c -1.73338,0 -2.82498,0.435442 -4.28711,0.966797 -1.46213,0.531355 -3.10555,1.243187 -4.91211,2.095703 -3.61311,1.705033 -7.85735,3.972188 -12.0293,6.38086 -4.17194,2.408671 -8.2559,4.950031 -11.53906,7.226562 -1.64158,1.138266 -3.08025,2.206468 -4.27148,3.207032 -1.19123,1.000564 -2.11378,1.727362 -2.98047,3.228515 -0.86669,1.501153 -1.03574,2.665347 -1.30664,4.197266 -0.2709,1.531919 -0.47565,3.309999 -0.64063,5.300781 C 21.70325,54.374143 21.54492,59.182657 21.54492,64 c 0,4.817343 0.15833,9.625857 0.48828,13.607422 0.16498,1.990782 0.36973,3.768862 0.64063,5.300781 0.2709,1.531919 0.43995,2.696113 1.30664,4.197266 0.86669,1.501153 1.78924,2.227951 2.98047,3.228515 1.19123,1.000564 2.6299,2.068766 4.27148,3.207032 3.28316,2.276532 7.36712,4.81789 11.53906,7.226564 4.17195,2.40867 8.41619,4.67582 12.0293,6.38086 1.80656,0.85251 3.44998,1.56435 4.91211,2.0957 1.46213,0.53136 2.55373,0.9668 4.28711,0.9668 1.73338,0 2.82498,-0.43544 4.28711,-0.9668 1.46213,-0.53135 3.10555,-1.24319 4.91211,-2.0957 3.61311,-1.70504 7.85735,-3.97219 12.0293,-6.38086 4.17194,-2.408673 8.2559,-4.950033 11.53906,-7.226564 1.64158,-1.138266 3.08025,-2.206468 4.27148,-3.207032 1.19123,-1.000564 2.11378,-1.727362 2.98047,-3.228515 0.86669,-1.501153 1.03574,-2.665347 1.30664,-4.197266 0.2709,-1.531919 0.47565,-3.309999 0.64063,-5.300781 0.32995,-3.981565 0.48828,-8.790079 0.48828,-13.607422 0,-4.817343 -0.15833,-9.625857 -0.48828,-13.607422 -0.16498,-1.990782 -0.36973,-3.768862 -0.64063,-5.300781 -0.2709,-1.531919 -0.43995,-2.696113 -1.30664,-4.197266 -0.86669,-1.501153 -1.78924,-2.227951 -2.98047,-3.228515 C 99.84783,36.665452 98.40916,35.59725 96.76758,34.458984 93.48442,32.182452 89.40046,29.641094 85.22852,27.232422 81.05657,24.82375 76.81233,22.556595 73.19922,20.851562 71.39266,19.999046 69.74924,19.287214 68.28711,18.755859 66.82498,18.224504 65.73338,17.789063 64,17.789062 Z"
         id="path60"
         inkscape:connector-curvature="0" /></clipPath></defs><metadata
     id="metadata5"><rdf:RDF><cc:Work
         rdf:about=""><dc:format>image/svg+xml</dc:format><dc:type
           rdf:resource="http://purl.org/dc/dcmitype/StillImage" /></cc:Work></rdf:RDF></metadata><style
     id="style2296">.B{fill:#fc9abf}.C{fill:#ffc7df}.D{fill:#ed84cb}.E{fill-opacity:1}.F{stroke:none}</style><g
     inkscape:groupmode="layer"
     id="g56"
     inkscape:label="freeotp"
     style="display:inline;opacity:1"><circle
       r="60"
       cy="64"
       cx="64"
       id="circle42"
       style="display:inline;opacity:1;vector-effect:none;fill:#76ddfe;fill-opacity:1;fill-rule:nonzero;stroke:#5598cc;stroke-width:4;stroke-linecap:butt;stroke-linejoin:round;stroke-miterlimit:4;stroke-dasharray:none;stroke-dashoffset:0;stroke-opacity:1;paint-order:fill markers stroke" /><path
       sodipodi:type="star"
       style="display:inline;opacity:1;vector-effect:none;fill:#5598cc;fill-opacity:1;fill-rule:nonzero;stroke:#5598cc;stroke-width:8;stroke-linecap:butt;stroke-linejoin:round;stroke-miterlimit:4;stroke-dasharray:none;stroke-dashoffset:0;stroke-opacity:1;paint-order:stroke fill markers"
       id="path42"
       sodipodi:sides="6"
       sodipodi:cx="66.000008"
       sodipodi:cy="68"
       sodipodi:r1="42.211243"
       sodipodi:r2="28.284271"
       sodipodi:arg1="-1.5707963"
       sodipodi:arg2="-1.0471975"
       inkscape:flatsided="true"
       inkscape:rounded="0.12"
       inkscape:randomized="0"
       d="m 66.000009,25.788757 c 5.065349,0 34.023331,16.718902 36.556011,21.105623 2.53267,4.386721 2.53267,37.824521 0,42.211242 -2.53268,4.386721 -31.490664,21.105618 -36.556014,21.105618 -5.065349,0 -34.023333,-16.718899 -36.556007,-21.10562 -2.532675,-4.386721 -2.532674,-37.824521 10e-7,-42.211242 2.532674,-4.386721 31.49066,-21.105621 36.556009,-21.105621 z" /><g
       inkscape:groupmode="maskhelper"
       id="g59"
       clip-path="url(#clipPath59)"
       style="fill:#418ac0;fill-opacity:1;stroke:#2467a0;stroke-opacity:1"><path
         style="color:#000000;font-style:normal;font-variant:normal;font-weight:normal;font-stretch:normal;font-size:medium;line-height:normal;font-family:sans-serif;font-variant-ligatures:normal;font-variant-position:normal;font-variant-caps:normal;font-variant-numeric:normal;font-variant-alternates:normal;font-feature-settings:normal;text-indent:0;text-align:start;text-decoration:none;text-decoration-line:none;text-decoration-style:solid;text-decoration-color:#000000;letter-spacing:normal;word-spacing:normal;text-transform:none;writing-mode:lr-tb;direction:ltr;text-orientation:mixed;dominant-baseline:auto;baseline-shift:baseline;text-anchor:start;white-space:normal;shape-padding:0;clip-rule:nonzero;display:inline;overflow:visible;visibility:visible;isolation:auto;mix-blend-mode:normal;color-interpolation:sRGB;color-interpolation-filters:linearRGB;solid-color:#000000;solid-opacity:1;vector-effect:none;fill:#418ac0;fill-opacity:1;fill-rule:nonzero;stroke:#2467a0;stroke-width:8;stroke-linecap:butt;stroke-linejoin:round;stroke-miterlimit:4;stroke-dasharray:none;stroke-dashoffset:0;stroke-opacity:1;paint-order:fill markers stroke;color-rendering:auto;image-rendering:auto;shape-rendering:auto;text-rendering:auto;enable-background:accumulate"
         d="m 64,17.789062 c -1.73338,0 -2.82498,0.435442 -4.28711,0.966797 -1.46213,0.531355 -3.10555,1.243187 -4.91211,2.095703 -3.61311,1.705033 -7.85735,3.972188 -12.0293,6.38086 -4.17194,2.408671 -8.2559,4.950031 -11.53906,7.226562 -1.64158,1.138266 -3.08025,2.206468 -4.27148,3.207032 -1.19123,1.000564 -2.11378,1.727362 -2.98047,3.228515 -0.86669,1.501153 -1.03574,2.665347 -1.30664,4.197266 -0.2709,1.531919 -0.47565,3.309999 -0.64063,5.300781 C 21.70325,54.374143 21.54492,59.182657 21.54492,64 c 0,4.817343 0.15833,9.625857 0.48828,13.607422 0.16498,1.990782 0.36973,3.768862 0.64063,5.300781 0.2709,1.531919 0.43995,2.696113 1.30664,4.197266 0.86669,1.501153 1.78924,2.227951 2.98047,3.228515 1.19123,1.000564 2.6299,2.068766 4.27148,3.207032 3.28316,2.276532 7.36712,4.81789 11.53906,7.226564 4.17195,2.40867 8.41619,4.67582 12.0293,6.38086 1.80656,0.85251 3.44998,1.56435 4.91211,2.0957 1.46213,0.53136 2.55373,0.9668 4.28711,0.9668 1.73338,0 2.82498,-0.43544 4.28711,-0.9668 1.46213,-0.53135 3.10555,-1.24319 4.91211,-2.0957 3.61311,-1.70504 7.85735,-3.97219 12.0293,-6.38086 4.17194,-2.408673 8.2559,-4.950033 11.53906,-7.226564 1.64158,-1.138266 3.08025,-2.206468 4.27148,-3.207032 1.19123,-1.000564 2.11378,-1.727362 2.98047,-3.228515 0.86669,-1.501153 1.03574,-2.665347 1.30664,-4.197266 0.2709,-1.531919 0.47565,-3.309999 0.64063,-5.300781 0.32995,-3.981565 0.48828,-8.790079 0.48828,-13.607422 0,-4.817343 -0.15833,-9.625857 -0.48828,-13.607422 -0.16498,-1.990782 -0.36973,-3.768862 -0.64063,-5.300781 -0.2709,-1.531919 -0.43995,-2.696113 -1.30664,-4.197266 -0.86669,-1.501153 -1.78924,-2.227951 -2.98047,-3.228515 C 99.84783,36.665452 98.40916,35.59725 96.76758,34.458984 93.48442,32.182452 89.40046,29.641094 85.22852,27.232422 81.05657,24.82375 76.81233,22.556595 73.19922,20.851562 71.39266,19.999046 69.74924,19.287214 68.28711,18.755859 66.82498,18.224504 65.73338,17.789063 64,17.789062 Z"
         id="path58"
         inkscape:connector-curvature="0" /></g><path
       d="M 57.792703,74.401492 C 61.720591,63.986186 67.335124,52.391838 70.766027,42.674511 63.986921,42.074425 46.792381,42.55434 44.576122,42.906518 c -0.07262,1.095208 1.759549,7.073969 2.679028,9.294788 0.867377,0.116698 4.189063,-0.04695 8.777487,-0.130505 -4.54175,10.240268 -11.406186,24.980543 -12.761719,31.494974 4.360414,0.450218 23.26226,0.174006 28.749108,-0.115998 -0.140306,-1.994305 -1.73327,-6.181131 -2.737932,-8.700269 -1.296318,-0.196119 -8.60965,-0.472319 -11.489391,-0.348011 z m 18.530392,8.903275 c 0.171978,0.11601 9.401482,0.435014 10.60533,-0.319009 C 84.912077,74.119055 76.584247,50.482284 73.571442,42.61651 c -1.293331,3.31745 -4.3737,10.861358 -5.429768,13.842422 2.463354,10.312573 5.057886,18.237509 8.181421,26.845835 z"
       id="text1"
       style="font-weight:bold;font-size:16px;line-height:1;font-family:Mikado;-inkscape-font-specification:'Mikado Bold';text-align:center;letter-spacing:0px;text-anchor:middle;white-space:pre;fill:#ffffff;stroke:#2467a0;stroke-width:8;stroke-linejoin:round;stroke-dasharray:none;stroke-opacity:1;paint-order:stroke fill markers;fill-opacity:1"
       aria-label="ZA"
       sodipodi:nodetypes="sccccccccsccccc" /></g></svg>
