<?xml version="1.0" encoding="UTF-8" standalone="no"?>
<!-- Created with Inkscape (http://www.inkscape.org/) -->

<svg
   width="89.92981"
   height="113.61401"
   viewBox="0 0 89.92981 113.61401"
   version="1.1"
   id="svg8"
   inkscape:version="1.3 (0e150ed6c4, 2023-07-21)"
   sodipodi:docname="dollphone feature graphic.svg"
   inkscape:export-filename="dollphone feature graphic.png"
   inkscape:export-xdpi="96"
   inkscape:export-ydpi="96"
   xml:space="preserve"
   xmlns:inkscape="http://www.inkscape.org/namespaces/inkscape"
   xmlns:sodipodi="http://sodipodi.sourceforge.net/DTD/sodipodi-0.dtd"
   xmlns:xlink="http://www.w3.org/1999/xlink"
   xmlns="http://www.w3.org/2000/svg"
   xmlns:svg="http://www.w3.org/2000/svg"
   xmlns:rdf="http://www.w3.org/1999/02/22-rdf-syntax-ns#"
   xmlns:cc="http://creativecommons.org/ns#"
   xmlns:dc="http://purl.org/dc/elements/1.1/"><defs
     id="defs2"><filter
       id="filter4866"
       inkscape:label="Drop Shadow"
       style="color-interpolation-filters:sRGB"
       x="-0.018444195"
       y="-0.010998034"
       width="1.0596272"
       height="1.0617307"><feFlood
         id="feFlood4858"
         result="flood"
         flood-color="rgb(134,123,106)"
         flood-opacity="0.498039" /><feComposite
         id="feComposite4860"
         result="composite1"
         operator="in"
         in2="SourceGraphic"
         in="flood" /><feOffset
         id="feOffset4862"
         result="offset"
         dy="3.3999999999999999"
         dx="1.7" /><feComposite
         id="feComposite4864"
         result="composite2"
         operator="over"
         in2="offset"
         in="SourceGraphic" /></filter><radialGradient
       inkscape:collect="always"
       xlink:href="#linearGradient2304"
       id="radialGradient4571-6"
       cx="88.813545"
       cy="70.470154"
       fx="88.813545"
       fy="70.470154"
       r="30.547852"
       gradientTransform="matrix(1.0470044,0,0,1.0469723,-36.225563,8.3343144)"
       gradientUnits="userSpaceOnUse" /><linearGradient
       inkscape:collect="always"
       id="linearGradient2304"><stop
         style="stop-color:#ffffff;stop-opacity:0.442"
         offset="0"
         id="stop2300" /><stop
         style="stop-color:#ffffff;stop-opacity:0"
         offset="1"
         id="stop2302" /></linearGradient><clipPath
       clipPathUnits="userSpaceOnUse"
       id="clipPath4404-4"><path
         style="display:inline;opacity:1;vector-effect:none;fill:#ffffff;fill-opacity:1;fill-rule:nonzero;stroke:none;stroke-width:4;stroke-linecap:round;stroke-linejoin:round;stroke-miterlimit:4;stroke-dasharray:none;stroke-dashoffset:0;stroke-opacity:1;paint-order:stroke fill markers"
         d="M 58,48.23676 V 53 c 0,1.7 1.201975,1.934 2,1.934 0.798025,0 2,-0.234 4,-0.234 v -6.371737"
         id="path4406-7"
         inkscape:connector-curvature="0"
         sodipodi:nodetypes="czccc" /></clipPath></defs><sodipodi:namedview
     id="base"
     pagecolor="#ffffff"
     bordercolor="#666666"
     borderopacity="1.0"
     inkscape:pageopacity="0.0"
     inkscape:pageshadow="2"
     inkscape:zoom="0.85837285"
     inkscape:cx="654.72714"
     inkscape:cy="318.04361"
     inkscape:document-units="px"
     inkscape:current-layer="layer6"
     showgrid="true"
     units="px"
     inkscape:pagecheckerboard="true"
     borderlayer="true"
     gridtolerance="10"
     inkscape:snap-smooth-nodes="true"
     inkscape:snap-text-baseline="true"
     inkscape:snap-page="true"
     showguides="false"
     inkscape:guide-bbox="true"
     inkscape:snap-global="false"
     inkscape:showpageshadow="0"
     inkscape:deskcolor="#d1d1d1"
     inkscape:window-width="1858"
     inkscape:window-height="1057"
     inkscape:window-x="54"
     inkscape:window-y="-8"
     inkscape:window-maximized="1"><inkscape:grid
       type="xygrid"
       id="grid4131"
       empspacing="4"
       originx="-718.15967"
       originy="-307.31897"
       spacingy="1"
       spacingx="1"
       units="px"
       visible="true" /></sodipodi:namedview><metadata
     id="metadata5"><rdf:RDF><cc:Work
         rdf:about=""><dc:format>image/svg+xml</dc:format><dc:type
           rdf:resource="http://purl.org/dc/dcmitype/StillImage" /></cc:Work></rdf:RDF></metadata><g
     inkscape:groupmode="layer"
     id="layer6"
     inkscape:label="icons"
     transform="translate(-718.15967,-307.31897)"><g
       transform="matrix(1.1351911,0,0,1.1351911,689.50742,278.19201)"
       style="display:inline;filter:url(#filter4866)"
       id="g4732"><path
         style="display:inline;opacity:1;vector-effect:none;fill:#cda949;fill-opacity:1;fill-rule:nonzero;stroke:#937253;stroke-width:2.76459;stroke-linecap:round;stroke-linejoin:round;stroke-miterlimit:4;stroke-dasharray:none;stroke-dashoffset:0;stroke-opacity:1;paint-order:stroke fill markers"
         d="m 77.551286,114.14942 a 6.8100835,6.8100835 0 0 0 6.810084,6.81008 6.8100835,6.8100835 0 0 0 6.81008,-6.81008 6.8100835,6.8100835 0 0 0 -6.81008,-6.81007 6.8100835,6.8100835 0 0 0 -6.810084,6.81007 z"
         id="circle4486"
         inkscape:connector-curvature="0" /><path
         style="display:inline;opacity:1;vector-effect:none;fill:#f4d166;fill-opacity:1;fill-rule:nonzero;stroke:none;stroke-width:1.49712;stroke-linecap:round;stroke-linejoin:round;stroke-miterlimit:4;stroke-dasharray:none;stroke-dashoffset:0;stroke-opacity:1;paint-order:fill markers stroke"
         d="m 79.832374,111.86833 a 3.1466961,3.1466961 0 0 0 3.146697,3.1467 3.1466961,3.1466961 0 0 0 3.146696,-3.1467 3.1466961,3.1466961 0 0 0 -3.146696,-3.14669 3.1466961,3.1466961 0 0 0 -3.146697,3.14669 z"
         id="circle4488"
         inkscape:connector-curvature="0" /><path
         style="display:inline;opacity:1;vector-effect:none;fill:#cda949;fill-opacity:1;fill-rule:nonzero;stroke:#937253;stroke-width:2.76459;stroke-linecap:round;stroke-linejoin:round;stroke-miterlimit:4;stroke-dasharray:none;stroke-dashoffset:0;stroke-opacity:1;paint-order:stroke fill markers"
         d="m 50.448714,114.14942 a 6.8100835,6.8100835 0 0 1 -6.810084,6.81008 6.8100835,6.8100835 0 0 1 -6.810083,-6.81008 6.8100835,6.8100835 0 0 1 6.810083,-6.81007 6.8100835,6.8100835 0 0 1 6.810084,6.81007 z"
         id="path4348-2"
         inkscape:connector-curvature="0" /><path
         style="display:inline;opacity:1;vector-effect:none;fill:#f4d166;fill-opacity:1;fill-rule:nonzero;stroke:none;stroke-width:1.49712;stroke-linecap:round;stroke-linejoin:round;stroke-miterlimit:4;stroke-dasharray:none;stroke-dashoffset:0;stroke-opacity:1;paint-order:fill markers stroke"
         d="m 45.403029,111.86833 a 3.1466961,3.1466961 0 0 1 -3.146696,3.1467 3.1466961,3.1466961 0 0 1 -3.146696,-3.1467 3.1466961,3.1466961 0 0 1 3.146696,-3.14669 3.1466961,3.1466961 0 0 1 3.146696,3.14669 z"
         id="circle4371-7"
         inkscape:connector-curvature="0" /><path
         inkscape:connector-curvature="0"
         id="circle4338"
         d="M 97.175128,81.665437 A 33.175133,33.175133 0 0 1 64,114.84057 33.175133,33.175133 0 0 1 30.824867,81.665437 33.175133,33.175133 0 0 1 64,48.490304 33.175133,33.175133 0 0 1 97.175128,81.665437 Z"
         style="opacity:1;vector-effect:none;fill:#fcfbf5;fill-opacity:1;fill-rule:nonzero;stroke:#918b7b;stroke-width:2.76459;stroke-linecap:round;stroke-linejoin:round;stroke-miterlimit:4;stroke-dasharray:none;stroke-dashoffset:0;stroke-opacity:1;paint-order:fill markers stroke" /><path
         style="opacity:1;vector-effect:none;fill:#ffc7df;fill-opacity:1;fill-rule:nonzero;stroke:none;stroke-width:1.3823;stroke-linecap:round;stroke-linejoin:round;stroke-miterlimit:4;stroke-dasharray:none;stroke-dashoffset:0;stroke-opacity:1;paint-order:fill markers stroke"
         d="M 88.88135,85.812329 A 24.88135,24.88135 0 0 1 64,110.69368 24.88135,24.88135 0 0 1 39.118649,85.812329 24.88135,24.88135 0 0 1 64,60.930979 24.88135,24.88135 0 0 1 88.88135,85.812329 Z"
         id="path4573"
         inkscape:connector-curvature="0" /><path
         style="opacity:1;vector-effect:none;fill:#cda949;fill-opacity:1;fill-rule:nonzero;stroke:#ef547a;stroke-width:1.60831;stroke-linecap:round;stroke-linejoin:round;stroke-miterlimit:4;stroke-dasharray:none;stroke-dashoffset:0;stroke-opacity:1;paint-order:stroke fill markers"
         d="m 63.999999,86.135388 -5.629082,9.749858"
         id="path4583"
         inkscape:connector-curvature="0" /><path
         style="opacity:1;vector-effect:none;fill:#937253;fill-opacity:1;fill-rule:nonzero;stroke:none;stroke-width:1.60831;stroke-linecap:round;stroke-linejoin:round;stroke-miterlimit:4;stroke-dasharray:none;stroke-dashoffset:0;stroke-opacity:1;paint-order:stroke fill markers"
         d="M 81.0961,95.680953 C 79.805533,93.824696 75.400007,90.538137 70.095724,87.474581 68.160109,86.35872 66.209406,85.333661 64.396372,84.479674 l -1.352299,2.342251 c 1.64609,1.14314 3.509171,2.319969 5.443342,3.43833 5.309728,3.063902 10.360715,5.235412 12.608685,5.420698 z"
         id="path4585"
         inkscape:connector-curvature="0"
         sodipodi:nodetypes="cccccc" /><path
         style="opacity:1;vector-effect:none;fill:#937253;fill-opacity:1;fill-rule:nonzero;stroke:none;stroke-width:1.94193;stroke-linecap:round;stroke-linejoin:round;stroke-miterlimit:4;stroke-dasharray:none;stroke-dashoffset:0;stroke-opacity:1;paint-order:stroke fill markers"
         d="m 63.013034,86.554802 1.46397,-1.8817 c -4.538842,-3.220008 -8.169945,-5.502843 -10.126859,-6.366644 1.324531,1.687862 4.4301,4.644819 8.662889,8.248344 z"
         id="path4593"
         inkscape:connector-curvature="0"
         inkscape:transform-center-y="5.9511156"
         sodipodi:nodetypes="cccc" /><circle
         style="opacity:1;vector-effect:none;fill:#cda949;fill-opacity:1;fill-rule:nonzero;stroke:#937253;stroke-width:3.21662;stroke-linecap:round;stroke-linejoin:round;stroke-miterlimit:4;stroke-dasharray:none;stroke-dashoffset:0;stroke-opacity:1;paint-order:stroke fill markers"
         id="path4575"
         cx="63.999996"
         cy="85.812332"
         r="1.608309" /><path
         style="opacity:0.687;vector-effect:none;fill:url(#radialGradient4571-6);fill-opacity:1;fill-rule:nonzero;stroke:none;stroke-width:1.3823;stroke-linecap:round;stroke-linejoin:round;stroke-miterlimit:4;stroke-dasharray:none;stroke-dashoffset:0;stroke-opacity:1;paint-order:fill markers stroke"
         d="m 64,60.931741 c -13.741228,-1.78e-4 -24.880983,11.138873 -24.881672,24.8801 0.0081,1.207951 0.104165,2.41371 0.287422,3.607703 5.021704,1.478049 10.228008,2.234795 15.462697,2.247546 C 66.928762,91.65024 78.652192,87.686897 88.248714,80.382228 85.708749,69.025984 75.636815,60.947038 64,60.931741 Z"
         id="circle4435"
         inkscape:connector-curvature="0"
         sodipodi:nodetypes="cccccc" /><path
         inkscape:connector-curvature="0"
         id="path4336"
         d="M 88.88135,85.812329 A 24.88135,24.88135 0 0 1 64,110.69368 24.88135,24.88135 0 0 1 39.118649,85.812329 24.88135,24.88135 0 0 1 64,60.930979 24.88135,24.88135 0 0 1 88.88135,85.812329 Z"
         style="opacity:1;vector-effect:none;fill:none;fill-opacity:1;fill-rule:nonzero;stroke:#c48298;stroke-width:1.3823;stroke-linecap:round;stroke-linejoin:round;stroke-miterlimit:4;stroke-dasharray:none;stroke-dashoffset:0;stroke-opacity:1;paint-order:fill markers stroke" /><path
         inkscape:transform-center-y="-27.729488"
         sodipodi:nodetypes="zsssz"
         inkscape:connector-curvature="0"
         id="path4477"
         d="m 93.735218,47.342664 c 8.803452,7.000779 9.744412,13.849099 4.15958,20.871998 -1.55573,1.956319 -7.663497,-1.396126 -14.686395,-6.98096 C 76.185505,55.648868 71.295837,49.457429 72.462633,47.990188 78.047467,40.96729 84.931781,40.341885 93.735218,47.342664 Z"
         style="opacity:1;vector-effect:none;fill:#ffc7df;fill-opacity:1;fill-rule:nonzero;stroke:#c48298;stroke-width:2.76459;stroke-linecap:round;stroke-linejoin:round;stroke-miterlimit:4;stroke-dasharray:none;stroke-dashoffset:0;stroke-opacity:1;paint-order:fill markers stroke"
         inkscape:transform-center-x="21.62312" /><path
         style="display:inline;opacity:1;vector-effect:none;fill:#747474;fill-opacity:1;fill-rule:nonzero;stroke:none;stroke-width:2.76459;stroke-linecap:round;stroke-linejoin:round;stroke-miterlimit:4;stroke-dasharray:none;stroke-dashoffset:0;stroke-opacity:1;paint-order:stroke fill markers"
         d="m 64,53.12046 c -1.382298,0 -2.381698,0.09192 -2.764594,0.161988 -0.382897,0.07007 -1.382298,0.662401 -1.382298,1.428194 0,1.174953 0.830743,1.3364 1.382298,1.3364 0.551553,0 1.382296,-0.161987 2.764594,-0.161987 1.382297,0 2.21304,0.161987 2.764595,0.161987 0.551553,0 1.382296,-0.161447 1.382296,-1.3364 0,-0.765793 -0.999401,-1.358122 -1.382296,-1.428194 C 66.381698,53.212376 65.382297,53.12046 64,53.12046 Z"
         id="path4479"
         inkscape:connector-curvature="0" /><path
         style="opacity:1;vector-effect:none;fill:none;fill-opacity:1;fill-rule:nonzero;stroke:#937253;stroke-width:2.07345;stroke-linecap:round;stroke-linejoin:round;stroke-miterlimit:4;stroke-dasharray:none;stroke-dashoffset:0;stroke-opacity:1;paint-order:stroke fill markers"
         d="M 91.493871,43.980864 C 87.260494,34.250007 76.373883,26.694921 64,26.694921 c -12.373882,0 -23.260494,7.555086 -27.49387,17.285943"
         id="path4482"
         inkscape:connector-curvature="0"
         sodipodi:nodetypes="ccc" /><path
         style="display:inline;opacity:1;vector-effect:none;fill:#cda949;fill-opacity:1;fill-rule:nonzero;stroke:#937253;stroke-width:2.76459;stroke-linecap:round;stroke-linejoin:round;stroke-miterlimit:4;stroke-dasharray:none;stroke-dashoffset:0;stroke-opacity:1;paint-order:stroke fill markers"
         inkscape:transform-center-x="-2.8560915"
         inkscape:transform-center-y="-1.3894474"
         d="m 90.196496,45.437844 a 3.2042547,2.3223985 38.492851 0 0 1.062425,3.81209 3.2042547,2.3223985 38.492851 0 0 3.953427,0.176675 3.2042547,2.3223985 38.492851 0 0 -1.06242,-3.812092 3.2042547,2.3223985 38.492851 0 0 -3.953432,-0.176673 z"
         id="ellipse4484"
         inkscape:connector-curvature="0" /><path
         inkscape:transform-center-x="21.62312"
         style="opacity:1;vector-effect:none;fill:#ffc7df;fill-opacity:1;fill-rule:nonzero;stroke:#c48298;stroke-width:2.76459;stroke-linecap:round;stroke-linejoin:round;stroke-miterlimit:4;stroke-dasharray:none;stroke-dashoffset:0;stroke-opacity:1;paint-order:fill markers stroke"
         d="M 34.264778,47.342664 C 25.461337,54.343443 24.52037,61.191763 30.105205,68.214662 31.660933,70.170981 37.7687,66.818536 44.791598,61.233702 51.814495,55.648868 56.704163,49.457429 55.537367,47.990188 49.952533,40.96729 43.068218,40.341885 34.264778,47.342664 Z"
         id="path4340"
         inkscape:connector-curvature="0"
         sodipodi:nodetypes="zsssz"
         inkscape:transform-center-y="-27.729488" /><path
         style="display:inline;opacity:1;vector-effect:none;fill:#cda949;fill-opacity:1;fill-rule:nonzero;stroke:#937253;stroke-width:2.76459;stroke-linecap:round;stroke-linejoin:round;stroke-miterlimit:4;stroke-dasharray:none;stroke-dashoffset:0;stroke-opacity:1;paint-order:stroke fill markers"
         inkscape:transform-center-x="-2.8560887"
         inkscape:transform-center-y="-1.3894462"
         d="m 37.803502,45.437843 a 2.3223985,3.2042547 51.507149 0 1 -1.062424,3.812091 2.3223985,3.2042547 51.507149 0 1 -3.953425,0.176674 2.3223985,3.2042547 51.507149 0 1 1.062424,-3.812091 2.3223985,3.2042547 51.507149 0 1 3.953425,-0.176674 z"
         id="path4438"
         inkscape:connector-curvature="0" /><g
         inkscape:groupmode="maskhelper"
         id="g4401"
         clip-path="url(#clipPath4404-4)"
         transform="matrix(0.69114861,0,0,0.69114861,19.766489,18.079765)"><path
           inkscape:connector-curvature="0"
           id="path4375"
           d="m 58.53981,43 2.884038,10.549465"
           style="opacity:1;vector-effect:none;fill:none;fill-opacity:1;fill-rule:nonzero;stroke:#937253;stroke-width:4;stroke-linecap:round;stroke-linejoin:round;stroke-miterlimit:4;stroke-dasharray:none;stroke-dashoffset:0;stroke-opacity:1;paint-order:stroke fill markers" /></g><path
         inkscape:connector-curvature="0"
         id="path4348"
         d="m 64.055031,47.799155 a 3.8288331,3.8288331 0 0 1 -3.828834,3.828834 3.8288331,3.8288331 0 0 1 -3.828833,-3.828834 3.8288331,3.8288331 0 0 1 3.828833,-3.828833 3.8288331,3.8288331 0 0 1 3.828834,3.828833 z"
         style="display:inline;opacity:1;vector-effect:none;fill:#cda949;fill-opacity:1;fill-rule:nonzero;stroke:#937253;stroke-width:2.76459;stroke-linecap:round;stroke-linejoin:round;stroke-miterlimit:4;stroke-dasharray:none;stroke-dashoffset:0;stroke-opacity:1;paint-order:stroke fill markers" /><path
         inkscape:connector-curvature="0"
         id="circle4371"
         d="m 61.235405,46.416858 a 2.0734458,2.0734458 0 0 1 -2.073446,2.073446 2.0734458,2.0734458 0 0 1 -2.073445,-2.073446 2.0734458,2.0734458 0 0 1 2.073445,-2.073446 2.0734458,2.0734458 0 0 1 2.073446,2.073446 z"
         style="display:inline;opacity:1;vector-effect:none;fill:#f4d166;fill-opacity:1;fill-rule:nonzero;stroke:none;stroke-width:1.49712;stroke-linecap:round;stroke-linejoin:round;stroke-miterlimit:4;stroke-dasharray:none;stroke-dashoffset:0;stroke-opacity:1;paint-order:fill markers stroke" /><path
         inkscape:connector-curvature="0"
         id="path4545"
         d="m 35.926277,45.695341 a 1.1797769,1.6277593 51.507149 0 1 -0.53971,1.93654 1.1797769,1.6277593 51.507149 0 1 -2.008337,0.08975 1.1797769,1.6277593 51.507149 0 1 0.539711,-1.936539 1.1797769,1.6277593 51.507149 0 1 2.008336,-0.08975 z"
         inkscape:transform-center-y="-0.7058375"
         inkscape:transform-center-x="-1.4508914"
         style="display:inline;opacity:1;vector-effect:none;fill:#f4d166;fill-opacity:1;fill-rule:nonzero;stroke:none;stroke-width:1.40441;stroke-linecap:round;stroke-linejoin:round;stroke-miterlimit:4;stroke-dasharray:none;stroke-dashoffset:0;stroke-opacity:1;paint-order:stroke fill markers" /><path
         inkscape:connector-curvature="0"
         id="path4545-7"
         d="m 90.570479,45.315114 a 1.6277593,1.1797769 38.492851 0 0 0.539716,1.93654 1.6277593,1.1797769 38.492851 0 0 2.008333,0.08975 1.6277593,1.1797769 38.492851 0 0 -0.539712,-1.936539 1.6277593,1.1797769 38.492851 0 0 -2.008337,-0.08975 z"
         inkscape:transform-center-y="-0.70583756"
         inkscape:transform-center-x="1.4508929"
         style="display:inline;opacity:1;vector-effect:none;fill:#f4d166;fill-opacity:1;fill-rule:nonzero;stroke:none;stroke-width:1.40441;stroke-linecap:round;stroke-linejoin:round;stroke-miterlimit:4;stroke-dasharray:none;stroke-dashoffset:0;stroke-opacity:1;paint-order:stroke fill markers" /></g></g></svg>
