<?xml version="1.0" encoding="UTF-8" standalone="no"?>
<!-- Created with Inkscape (http://www.inkscape.org/) -->

<svg
   width="92.000244"
   height="91.999268"
   viewBox="0 0 92.000244 91.999268"
   version="1.1"
   id="svg8"
   inkscape:version="1.3 (0e150ed6c4, 2023-07-21)"
   sodipodi:docname="dollphone feature graphic.svg"
   inkscape:export-filename="dollphone feature graphic.png"
   inkscape:export-xdpi="96"
   inkscape:export-ydpi="96"
   xml:space="preserve"
   xmlns:inkscape="http://www.inkscape.org/namespaces/inkscape"
   xmlns:sodipodi="http://sodipodi.sourceforge.net/DTD/sodipodi-0.dtd"
   xmlns="http://www.w3.org/2000/svg"
   xmlns:svg="http://www.w3.org/2000/svg"
   xmlns:rdf="http://www.w3.org/1999/02/22-rdf-syntax-ns#"
   xmlns:cc="http://creativecommons.org/ns#"
   xmlns:dc="http://purl.org/dc/elements/1.1/"><defs
     id="defs2" /><sodipodi:namedview
     id="base"
     pagecolor="#ffffff"
     bordercolor="#666666"
     borderopacity="1.0"
     inkscape:pageopacity="0.0"
     inkscape:pageshadow="2"
     inkscape:zoom="0.85837285"
     inkscape:cx="654.72714"
     inkscape:cy="318.04361"
     inkscape:document-units="px"
     inkscape:current-layer="layer6"
     showgrid="true"
     units="px"
     inkscape:pagecheckerboard="true"
     borderlayer="true"
     gridtolerance="10"
     inkscape:snap-smooth-nodes="true"
     inkscape:snap-text-baseline="true"
     inkscape:snap-page="true"
     showguides="false"
     inkscape:guide-bbox="true"
     inkscape:snap-global="false"
     inkscape:showpageshadow="0"
     inkscape:deskcolor="#d1d1d1"
     inkscape:window-width="1858"
     inkscape:window-height="1057"
     inkscape:window-x="54"
     inkscape:window-y="-8"
     inkscape:window-maximized="1"><inkscape:grid
       type="xygrid"
       id="grid4131"
       empspacing="4"
       originx="-956"
       originy="-92"
       spacingy="1"
       spacingx="1"
       units="px"
       visible="true" /></sodipodi:namedview><metadata
     id="metadata5"><rdf:RDF><cc:Work
         rdf:about=""><dc:format>image/svg+xml</dc:format><dc:type
           rdf:resource="http://purl.org/dc/dcmitype/StillImage" /></cc:Work></rdf:RDF></metadata><g
     inkscape:groupmode="layer"
     id="layer6"
     inkscape:label="icons"
     transform="translate(-956,-92)"><g
       transform="translate(1572.8962,-1085.5062)"
       id="g1752"><path
         inkscape:connector-curvature="0"
         id="path2216"
         transform="translate(-1735.1889,592.62656)"
         d="m 1142.293,588.87891 c -7.908,0 -13.4485,0.97552 -17.1368,4.29492 -3.688,3.3193 -4.8632,8.52898 -4.8632,15.70508 v 6 c 0,7.176 1.1752,12.38577 4.8632,15.70507 1.0525,0.94714 2.2611,1.69765 3.627,2.29493 -1.3661,0.59728 -2.5744,1.34771 -3.627,2.29492 -3.688,3.3193 -4.8632,8.52898 -4.8632,15.70508 v 6 c 0,7.176 1.1752,12.38577 4.8632,15.70507 3.6883,3.3194 9.2288,4.29493 17.1368,4.29493 7.9079,0 13.4485,-0.97553 17.1367,-4.29493 3.6882,-3.3193 4.8633,-8.52907 4.8633,-15.70507 v -6 c 0,-7.1761 -1.1751,-12.38578 -4.8633,-15.70508 -1.0526,-0.94737 -2.2626,-1.69759 -3.6289,-2.29492 1.3662,-0.59733 2.5764,-1.34763 3.6289,-2.29493 3.6882,-3.3193 4.8633,-8.52907 4.8633,-15.70507 v -6 c 0,-7.1761 -1.1751,-12.38578 -4.8633,-15.70508 -3.6882,-3.3194 -9.2288,-4.29492 -17.1367,-4.29492 z m 46,0 c -7.908,0 -13.4485,0.97552 -17.1368,4.29492 -3.688,3.3193 -4.8632,8.52898 -4.8632,15.70508 v 6 c 0,7.176 1.1752,12.38577 4.8632,15.70507 3.6883,3.3194 9.2288,4.29493 17.1368,4.29493 7.9079,0 13.4485,-0.97553 17.1367,-4.29493 3.6882,-3.3193 4.8633,-8.52907 4.8633,-15.70507 v -6 c 0,-7.1761 -1.1751,-12.38578 -4.8633,-15.70508 -3.6882,-3.3194 -9.2288,-4.29492 -17.1367,-4.29492 z m 0,48 c -7.908,0 -13.4485,0.97552 -17.1368,4.29492 -3.688,3.3193 -4.8632,8.52898 -4.8632,15.70508 0,7.176 1.1752,12.38577 4.8632,15.70507 3.6883,3.3194 9.2288,4.29493 17.1368,4.29493 7.9079,0 13.4485,-0.97553 17.1367,-4.29493 3.6882,-3.3193 4.8633,-8.52907 4.8633,-15.70507 0,-7.1761 -1.1751,-12.38578 -4.8633,-15.70508 -3.6882,-3.3194 -9.2288,-4.29492 -17.1367,-4.29492 z"
         style="color:#000000;font-style:normal;font-variant:normal;font-weight:normal;font-stretch:normal;font-size:medium;line-height:normal;font-family:sans-serif;font-variant-ligatures:normal;font-variant-position:normal;font-variant-caps:normal;font-variant-numeric:normal;font-variant-alternates:normal;font-feature-settings:normal;text-indent:0;text-align:start;text-decoration:none;text-decoration-line:none;text-decoration-style:solid;text-decoration-color:#000000;letter-spacing:normal;word-spacing:normal;text-transform:none;writing-mode:lr-tb;direction:ltr;text-orientation:mixed;dominant-baseline:auto;baseline-shift:baseline;text-anchor:start;white-space:normal;shape-padding:0;clip-rule:nonzero;display:inline;overflow:visible;visibility:visible;opacity:0.5;isolation:auto;mix-blend-mode:normal;color-interpolation:sRGB;color-interpolation-filters:linearRGB;solid-color:#000000;solid-opacity:1;vector-effect:none;fill:#4c4c4c;fill-opacity:1;fill-rule:nonzero;stroke:none;stroke-width:4;stroke-linecap:butt;stroke-linejoin:round;stroke-miterlimit:4;stroke-dasharray:none;stroke-dashoffset:0;stroke-opacity:1;paint-order:fill markers stroke;color-rendering:auto;image-rendering:auto;shape-rendering:auto;text-rendering:auto;enable-background:accumulate" /><path
         sodipodi:nodetypes="cscsc"
         inkscape:connector-curvature="0"
         id="path1021"
         d="m -614.89619,1197.5062 v 6 c 0,13.9176 4.53603,18 20,18 15.46397,0 20,-4.0824 20,-18 v -6"
         style="display:inline;opacity:1;vector-effect:none;fill:#7d63a1;fill-opacity:1;fill-rule:nonzero;stroke:#7d63a1;stroke-width:4;stroke-linecap:butt;stroke-linejoin:round;stroke-miterlimit:4;stroke-dasharray:none;stroke-dashoffset:0;stroke-opacity:1;paint-order:fill markers stroke" /><path
         style="display:inline;opacity:1;vector-effect:none;fill:#fac5ff;fill-opacity:1;fill-rule:nonzero;stroke:#725999;stroke-width:4;stroke-linecap:butt;stroke-linejoin:round;stroke-miterlimit:4;stroke-dasharray:none;stroke-dashoffset:0;stroke-opacity:1;paint-order:fill markers stroke"
         d="m -594.89619,1179.5062 c -15.46397,0 -20,4.0824 -20,18 0,13.9176 4.53603,18 20,18 15.46397,0 20,-4.0824 20,-18 0,-13.9176 -4.53603,-18 -20,-18 z"
         id="path1018"
         inkscape:connector-curvature="0"
         sodipodi:nodetypes="sssss" /><path
         style="display:inline;opacity:1;vector-effect:none;fill:#7d63a1;fill-opacity:1;fill-rule:nonzero;stroke:#7d63a1;stroke-width:4;stroke-linecap:butt;stroke-linejoin:round;stroke-miterlimit:4;stroke-dasharray:none;stroke-dashoffset:0;stroke-opacity:1;paint-order:fill markers stroke"
         d="m -568.89619,1197.5062 v 6 c 0,13.9176 4.53603,18 20,18 15.46397,0 20,-4.0824 20,-18 v -6"
         id="path1027"
         inkscape:connector-curvature="0"
         sodipodi:nodetypes="cscsc" /><path
         sodipodi:nodetypes="sssss"
         inkscape:connector-curvature="0"
         id="path1029"
         d="m -548.89619,1179.5062 c -15.46397,0 -20,4.0824 -20,18 0,13.9176 4.53603,18 20,18 15.46397,0 20,-4.0824 20,-18 0,-13.9176 -4.53603,-18 -20,-18 z"
         style="display:inline;opacity:1;vector-effect:none;fill:#fac5ff;fill-opacity:1;fill-rule:nonzero;stroke:#725999;stroke-width:4;stroke-linecap:butt;stroke-linejoin:round;stroke-miterlimit:4;stroke-dasharray:none;stroke-dashoffset:0;stroke-opacity:1;paint-order:fill markers stroke" /><path
         style="display:inline;opacity:1;vector-effect:none;fill:#7d63a1;fill-opacity:1;fill-rule:nonzero;stroke:#7d63a1;stroke-width:4;stroke-linecap:butt;stroke-linejoin:round;stroke-miterlimit:4;stroke-dasharray:none;stroke-dashoffset:0;stroke-opacity:1;paint-order:fill markers stroke"
         d="m -614.89619,1239.5062 v 6 c 0,13.9176 4.53603,18 20,18 15.46397,0 20,-4.0824 20,-18 v -6"
         id="path1031"
         inkscape:connector-curvature="0"
         sodipodi:nodetypes="cscsc" /><path
         sodipodi:nodetypes="sssss"
         inkscape:connector-curvature="0"
         id="path1033"
         d="m -594.89619,1221.5062 c -15.46397,0 -20,4.0824 -20,18 0,13.9176 4.53603,18 20,18 15.46397,0 20,-4.0824 20,-18 0,-13.9176 -4.53603,-18 -20,-18 z"
         style="display:inline;opacity:1;vector-effect:none;fill:#fac5ff;fill-opacity:1;fill-rule:nonzero;stroke:#725999;stroke-width:4;stroke-linecap:butt;stroke-linejoin:round;stroke-miterlimit:4;stroke-dasharray:none;stroke-dashoffset:0;stroke-opacity:1;paint-order:fill markers stroke" /><path
         style="display:inline;opacity:1;vector-effect:none;fill:#b9fafd;fill-opacity:1;fill-rule:nonzero;stroke:#578186;stroke-width:4;stroke-linecap:butt;stroke-linejoin:round;stroke-miterlimit:4;stroke-dasharray:none;stroke-dashoffset:0;stroke-opacity:1;paint-order:fill markers stroke"
         d="m -548.89619,1227.5062 c -15.46397,0 -20,4.0824 -20,18 0,13.9176 4.53603,18 20,18 15.46397,0 20,-4.0824 20,-18 0,-13.9176 -4.53603,-18 -20,-18 z"
         id="path1037-4"
         inkscape:connector-curvature="0"
         sodipodi:nodetypes="sssss" /><g
         transform="translate(-635.89619,1157.5062)"
         aria-label="+"
         style="font-style:normal;font-variant:normal;font-weight:bold;font-stretch:normal;font-size:36px;line-height:1;font-family:Mikado;-inkscape-font-specification:'Mikado Bold';font-variant-ligatures:normal;font-variant-caps:normal;font-variant-numeric:normal;font-feature-settings:normal;text-align:center;writing-mode:lr-tb;text-anchor:middle;display:inline;opacity:1;vector-effect:none;fill:#725999;fill-opacity:1;fill-rule:nonzero;stroke:#636c7a;stroke-width:1;stroke-linecap:butt;stroke-linejoin:round;stroke-miterlimit:4;stroke-dasharray:none;stroke-dashoffset:0;stroke-opacity:1;paint-order:fill markers stroke"
         id="text1795-0"><path
           inkscape:connector-curvature="0"
           style="color:#000000;font-style:normal;font-variant:normal;font-weight:normal;font-stretch:normal;font-size:medium;line-height:1;font-family:Mikado;-inkscape-font-specification:'Mikado Bold';font-variant-ligatures:normal;font-variant-position:normal;font-variant-caps:normal;font-variant-numeric:normal;font-variant-alternates:normal;font-feature-settings:normal;text-indent:0;text-align:start;text-decoration:none;text-decoration-line:none;text-decoration-style:solid;text-decoration-color:#000000;letter-spacing:normal;word-spacing:normal;text-transform:none;writing-mode:lr-tb;direction:ltr;text-orientation:mixed;dominant-baseline:auto;baseline-shift:baseline;text-anchor:start;white-space:normal;shape-padding:0;clip-rule:nonzero;display:inline;overflow:visible;visibility:visible;opacity:1;isolation:auto;mix-blend-mode:normal;color-interpolation:sRGB;color-interpolation-filters:linearRGB;solid-color:#000000;solid-opacity:1;vector-effect:none;fill:#725999;fill-opacity:1;fill-rule:nonzero;stroke:none;stroke-width:1;stroke-linecap:butt;stroke-linejoin:miter;stroke-miterlimit:4;stroke-dasharray:none;stroke-dashoffset:0;stroke-opacity:1;paint-order:fill markers stroke;color-rendering:auto;image-rendering:auto;shape-rendering:auto;text-rendering:auto;enable-background:accumulate"
           d="m 40.933594,30.515625 c -0.584508,-0.0062 -1.141664,0.03688 -1.667969,0.130859 a 0.50005,0.50005 0 0 0 -0.412109,0.492188 v 6.574219 l -6.53125,0.09766 c -3.67e-4,0 -0.161758,0.02722 -0.16211,0.02734 -3.52e-4,1.2e-4 -0.130522,0.06617 -0.130859,0.06641 -3.38e-4,2.4e-4 -0.08171,0.07386 -0.08203,0.07422 -3.24e-4,3.6e-4 -0.03637,0.04508 -0.04883,0.06445 -0.04982,0.0775 -0.05787,0.119759 -0.06641,0.152343 -0.01707,0.06517 -0.01926,0.09387 -0.02148,0.125 -0.0044,0.06227 -0.0036,0.118047 -0.002,0.1875 0.0033,0.138907 0.01534,0.326141 0.0332,0.576172 0.03596,0.50344 0.08847,1.019249 0.160156,1.544922 0.03628,0.266019 0.07113,0.47374 0.109375,0.640625 0.01912,0.08344 0.0382,0.155249 0.06641,0.230469 0.0262,0.06986 0.05074,0.153867 0.1875,0.273438 0.09344,0.08192 0.159194,0.107927 0.201172,0.121093 0.04761,0.01493 0.08241,0.02157 0.117188,0.02734 0.06956,0.01154 0.138493,0.01611 0.220703,0.02148 0.16442,0.01074 0.378958,0.01608 0.658203,0.01758 0.558489,0.003 1.366305,-0.0097 2.429688,-0.03906 a 0.50005,0.50005 0 0 0 0.002,0 c 1.065933,-0.03514 1.86808,-0.05962 2.402343,-0.07422 0.156632,-0.0043 0.241063,-0.0073 0.351563,-0.0098 0.01699,0.292503 0.03528,0.734625 0.05273,1.322265 a 0.50005,0.50005 0 0 0 0,0.0039 c 0.04686,1.171476 0.09376,2.379261 0.140625,3.621094 a 0.50005,0.50005 0 0 0 0,0.0039 c 0.02936,0.622328 0.05541,1.10226 0.07617,1.44336 0.01038,0.17055 0.01877,0.306514 0.02734,0.410156 0.0086,0.103642 0.0076,0.147622 0.03125,0.253906 a 0.50005,0.50005 0 0 0 0.01367,0.04883 c 0.0829,0.248704 0.274388,0.357949 0.416015,0.416016 0.141627,0.05807 0.279604,0.08226 0.4375,0.101563 0.315792,0.0386 0.713629,0.04172 1.226563,0.01758 0.504565,-0.02374 0.896109,-0.05305 1.1875,-0.08789 0.145695,-0.01742 0.264392,-0.03492 0.373047,-0.06055 0.108655,-0.02563 0.195748,-4.33e-4 0.386719,-0.191406 a 0.50005,0.50005 0 0 0 0.09375,-0.130859 c 9.1e-5,-1.83e-4 0.03311,-0.08561 0.0332,-0.08594 9.3e-5,-3.27e-4 0.0078,-0.0314 0.0098,-0.04102 0.0038,-0.01923 0.0067,-0.0283 0.0078,-0.03711 0.0023,-0.01761 0.0012,-0.02893 0.002,-0.03906 0.0016,-0.02027 0.0029,-0.03782 0.0039,-0.06055 0.0021,-0.04545 0.0056,-0.105195 0.0078,-0.183594 0.0045,-0.156798 0.0078,-0.386918 0.01367,-0.689453 0.01175,-0.60507 0.02734,-1.50351 0.04492,-2.699219 0.01754,-1.198751 0.04044,-2.101178 0.06641,-2.701172 0.0099,-0.227847 0.01878,-0.369063 0.0293,-0.505859 0.125224,-0.01015 0.246068,-0.0194 0.441406,-0.0332 0.535974,-0.03787 1.33284,-0.08794 2.386718,-0.152344 a 0.50005,0.50005 0 0 0 0.002,-0.002 c 1.057263,-0.07048 1.859563,-0.131886 2.414062,-0.185547 0.27725,-0.02683 0.490757,-0.05169 0.652344,-0.07617 0.08079,-0.01224 0.149177,-0.02309 0.214844,-0.03906 0.03283,-0.008 0.06488,-0.01713 0.107422,-0.0332 0.03644,-0.01376 0.09265,-0.04068 0.171874,-0.109374 0.150699,-0.130944 0.172183,-0.227222 0.195313,-0.302735 0.02459,-0.08029 0.03832,-0.155669 0.05078,-0.240234 0.02492,-0.16913 0.04059,-0.376545 0.05273,-0.640625 0.02428,-0.52816 0.02936,-1.27423 0.01758,-2.251953 a 0.50005,0.50005 0 0 0 -0.5,-0.494141 h -6.44336 v -6.232422 a 0.50005,0.50005 0 0 0 -0.419921,-0.49414 C 42.13096,30.576544 41.518185,30.521685 40.933675,30.515533 Z"
           id="path4722-6" /><path
           inkscape:connector-curvature="0"
           style="color:#000000;font-style:normal;font-variant:normal;font-weight:normal;font-stretch:normal;font-size:medium;line-height:1;font-family:Mikado;-inkscape-font-specification:'Mikado Bold';font-variant-ligatures:normal;font-variant-position:normal;font-variant-caps:normal;font-variant-numeric:normal;font-variant-alternates:normal;font-feature-settings:normal;text-indent:0;text-align:start;text-decoration:none;text-decoration-line:none;text-decoration-style:solid;text-decoration-color:#000000;letter-spacing:normal;word-spacing:normal;text-transform:none;writing-mode:lr-tb;direction:ltr;text-orientation:mixed;dominant-baseline:auto;baseline-shift:baseline;text-anchor:start;white-space:normal;shape-padding:0;clip-rule:nonzero;display:inline;overflow:visible;visibility:visible;opacity:1;isolation:auto;mix-blend-mode:normal;color-interpolation:sRGB;color-interpolation-filters:linearRGB;solid-color:#000000;solid-opacity:1;vector-effect:none;fill:#725999;fill-opacity:1;fill-rule:nonzero;stroke:none;stroke-width:1;stroke-linecap:butt;stroke-linejoin:miter;stroke-miterlimit:4;stroke-dasharray:none;stroke-dashoffset:0;stroke-opacity:1;paint-order:fill markers stroke;color-rendering:auto;image-rendering:auto;shape-rendering:auto;text-rendering:auto;enable-background:accumulate"
           d="m 92.371094,38.251953 c -1.22293,-0.0043 -3.041461,0.0097 -5.476563,0.0625 -2.432409,0.05275 -4.267553,0.09854 -5.509765,0.136719 -0.621106,0.01909 -1.092915,0.03514 -1.419922,0.05078 -0.163504,0.0078 -0.29102,0.01592 -0.386719,0.02344 -0.04785,0.0038 -0.08608,0.0067 -0.125,0.01172 -0.0352,0.0045 -0.04792,-0.01122 -0.185547,0.05273 -0.122611,0.05633 -0.259488,0.213898 -0.294922,0.326172 -0.0361,0.114386 -0.02917,0.176316 -0.02734,0.224609 0.0037,0.09659 0.01433,0.160969 0.02539,0.273437 0.02213,0.224938 0.05244,0.609448 0.04102,1.300782 a 0.50005,0.50005 0 0 0 0,0.0039 c -0.0059,0.709575 6.99e-4,1.115239 0.0332,1.394531 0.01625,0.139647 0.02914,0.247134 0.105469,0.394531 0.07633,0.147398 0.345789,0.324219 0.519531,0.324219 0.07031,0 0.203358,-0.0032 0.521484,-0.0098 0.318126,-0.0066 0.784111,-0.01611 1.396485,-0.0293 1.224746,-0.02637 3.039027,-0.06641 5.441406,-0.119141 4.804677,-0.117187 7.201172,-0.175781 7.212891,-0.175781 a 0.50005,0.50005 0 0 0 0.474609,-0.341797 c -0.01956,0.05868 0.01067,-0.02205 0.0293,-0.08789 0.01862,-0.06584 0.03534,-0.14719 0.05273,-0.263671 0.03468,-0.232262 0.07188,-0.611159 0.101563,-1.285157 v -0.002 c 0.0362,-0.690364 0.0087,-1.115971 -0.04102,-1.408203 -0.04976,-0.292637 -0.142913,-0.516201 -0.123047,-0.443359 a 0.50005,0.50005 0 0 0 -0.302734,-0.335938 c -0.162027,-0.06211 -0.140136,-0.0336 -0.175782,-0.03711 -0.03565,-0.0035 -0.07309,-0.0072 -0.11914,-0.0098 -0.09211,-0.0052 -0.215405,-0.0094 -0.375,-0.01367 -0.31919,-0.0086 -0.781114,-0.01541 -1.392578,-0.01758 z"
           id="path4718-7" /><path
           inkscape:connector-curvature="0"
           style="color:#000000;font-style:normal;font-variant:normal;font-weight:normal;font-stretch:normal;font-size:medium;line-height:1;font-family:Mikado;-inkscape-font-specification:'Mikado Bold';font-variant-ligatures:normal;font-variant-position:normal;font-variant-caps:normal;font-variant-numeric:normal;font-variant-alternates:normal;font-feature-settings:normal;text-indent:0;text-align:start;text-decoration:none;text-decoration-line:none;text-decoration-style:solid;text-decoration-color:#000000;letter-spacing:normal;word-spacing:normal;text-transform:none;writing-mode:lr-tb;direction:ltr;text-orientation:mixed;dominant-baseline:auto;baseline-shift:baseline;text-anchor:start;white-space:normal;shape-padding:0;clip-rule:nonzero;display:inline;overflow:visible;visibility:visible;opacity:1;isolation:auto;mix-blend-mode:normal;color-interpolation:sRGB;color-interpolation-filters:linearRGB;solid-color:#000000;solid-opacity:1;vector-effect:none;fill:#725999;fill-opacity:1;fill-rule:nonzero;stroke:none;stroke-width:1;stroke-linecap:butt;stroke-linejoin:miter;stroke-miterlimit:4;stroke-dasharray:none;stroke-dashoffset:0;stroke-opacity:1;paint-order:fill markers stroke;color-rendering:auto;image-rendering:auto;shape-rendering:auto;text-rendering:auto;enable-background:accumulate"
           d="m 45.769531,73.992188 a 0.50005,0.50005 0 0 0 -0.34375,0.148437 l -4.548828,4.582031 -4.392578,-4.408203 a 0.50005,0.50005 0 0 0 -0.638672,-0.05664 c -1.071238,0.742562 -1.921513,1.562248 -2.537109,2.466797 a 0.50005,0.50005 0 0 0 0.0625,0.636719 l 4.664062,4.63086 -4.841797,5.171874 c -7.32e-4,7.33e-4 -0.122703,0.196236 -0.123047,0.197266 -1.71e-4,5.15e-4 -0.01769,0.06761 -0.02148,0.09766 -0.0038,0.03005 -0.0047,0.05763 -0.0039,0.08203 0.0034,0.09761 0.02623,0.150392 0.04297,0.189453 0.03348,0.07812 0.05925,0.106924 0.08203,0.136719 0.04557,0.05959 0.08492,0.102494 0.136719,0.154296 0.103604,0.103605 0.245837,0.232686 0.4375,0.400391 0.380827,0.333224 0.779715,0.665569 1.195312,0.998047 a 0.50005,0.50005 0 0 0 0.01172,0.0098 c 0.216271,0.162203 0.389983,0.286138 0.53125,0.376953 0.07063,0.04541 0.133166,0.08221 0.199219,0.115234 0.06605,0.03303 0.103514,0.08203 0.308593,0.08203 a 0.50005,0.50005 0 0 0 0.07031,-0.0059 c 0.189919,-0.02713 0.19965,-0.07011 0.234375,-0.09375 0.03473,-0.02364 0.0593,-0.04161 0.08398,-0.0625 0.04937,-0.04178 0.09913,-0.089 0.160156,-0.148438 0.122052,-0.118881 0.282684,-0.286448 0.490235,-0.505859 0.415101,-0.438822 1.012397,-1.086482 1.792969,-1.949219 a 0.50005,0.50005 0 0 0 0,-0.002 c 0.778859,-0.866701 1.368904,-1.518483 1.765625,-1.953125 0.126716,-0.138829 0.199896,-0.216344 0.287109,-0.310547 0.219291,0.199277 0.535803,0.492263 0.960938,0.888672 0.867009,0.808426 1.752118,1.63492 2.654296,2.478516 0.452219,0.422853 0.80403,0.747727 1.056641,0.976562 0.126305,0.114418 0.227237,0.20504 0.306641,0.273438 0.0794,0.0684 0.107767,0.100069 0.207031,0.162109 a 0.50005,0.50005 0 0 0 0.0293,0.01563 c 0.245414,0.132147 0.459471,0.06313 0.597656,0.0039 0.138185,-0.05922 0.252004,-0.135239 0.376953,-0.232422 0.249899,-0.194365 0.537455,-0.474316 0.892578,-0.853515 a 0.50005,0.50005 0 0 0 0.002,-0.002 c 0.349662,-0.379294 0.613348,-0.678711 0.798828,-0.908203 0.09274,-0.114747 0.166977,-0.210831 0.226563,-0.302735 0.05959,-0.0919 0.144531,-0.112594 0.144531,-0.412109 0,-2.75e-4 -0.01748,-0.132436 -0.01758,-0.132813 -1.02e-4,-3.77e-4 -0.01646,-0.05007 -0.02344,-0.06641 -0.01395,-0.03268 -0.02481,-0.04848 -0.0332,-0.0625 -0.01678,-0.02805 -0.02586,-0.04227 -0.03516,-0.05469 -0.01859,-0.02483 -0.03384,-0.04076 -0.05078,-0.06055 -0.03388,-0.03957 -0.07436,-0.08736 -0.128906,-0.146485 -0.109097,-0.118252 -0.267882,-0.284435 -0.478516,-0.503906 -0.421267,-0.438942 -1.050182,-1.085326 -1.888672,-1.941406 -0.836699,-0.860104 -1.461564,-1.510712 -1.873047,-1.951172 -0.153352,-0.164152 -0.245648,-0.267664 -0.33789,-0.371094 0.08151,-0.09697 0.160094,-0.189881 0.287109,-0.33789 0.352461,-0.410719 0.877496,-1.014293 1.574219,-1.810547 h -0.002 c 0.704506,-0.79844 1.234263,-1.408119 1.59375,-1.835938 0.179743,-0.213909 0.317707,-0.381885 0.416015,-0.509765 0.04915,-0.06394 0.08835,-0.117474 0.123047,-0.169922 0.01735,-0.02622 0.03236,-0.05101 0.05078,-0.08594 0.01842,-0.03492 0.04734,-0.06038 0.06445,-0.197265 a 0.50005,0.50005 0 0 0 0.0039,-0.0625 c 0,-0.224174 -0.062,-0.269105 -0.101563,-0.335938 -0.03957,-0.06683 -0.08341,-0.125375 -0.134765,-0.191406 -0.102715,-0.132063 -0.240367,-0.289731 -0.419922,-0.484375 -0.359111,-0.389288 -0.885625,-0.924739 -1.585938,-1.613281 a 0.50005,0.50005 0 0 0 -0.361328,-0.142578 z"
           id="path4714-5" /></g><g
         transform="translate(-635.89619,1157.5062)"
         aria-label="="
         style="font-style:normal;font-variant:normal;font-weight:bold;font-stretch:normal;font-size:36px;line-height:1;font-family:Mikado;-inkscape-font-specification:'Mikado Bold';font-variant-ligatures:normal;font-variant-caps:normal;font-variant-numeric:normal;font-feature-settings:normal;text-align:center;writing-mode:lr-tb;text-anchor:middle;display:inline;opacity:1;vector-effect:none;fill:#578186;fill-opacity:1;fill-rule:nonzero;stroke:#ae7241;stroke-width:1;stroke-linecap:round;stroke-linejoin:round;stroke-miterlimit:4;stroke-dasharray:none;stroke-dashoffset:0;stroke-opacity:1;paint-order:fill markers stroke"
         id="text1807-6"><path
           inkscape:connector-curvature="0"
           style="color:#000000;font-style:normal;font-variant:normal;font-weight:normal;font-stretch:normal;font-size:medium;line-height:1;font-family:Mikado;-inkscape-font-specification:'Mikado Bold';font-variant-ligatures:normal;font-variant-position:normal;font-variant-caps:normal;font-variant-numeric:normal;font-variant-alternates:normal;font-feature-settings:normal;text-indent:0;text-align:start;text-decoration:none;text-decoration-line:none;text-decoration-style:solid;text-decoration-color:#000000;letter-spacing:normal;word-spacing:normal;text-transform:none;writing-mode:lr-tb;direction:ltr;text-orientation:mixed;dominant-baseline:auto;baseline-shift:baseline;text-anchor:start;white-space:normal;shape-padding:0;clip-rule:nonzero;display:inline;overflow:visible;visibility:visible;opacity:1;isolation:auto;mix-blend-mode:normal;color-interpolation:sRGB;color-interpolation-filters:linearRGB;solid-color:#000000;solid-opacity:1;vector-effect:none;fill:#578186;fill-opacity:1;fill-rule:nonzero;stroke:none;stroke-width:1;stroke-linecap:butt;stroke-linejoin:miter;stroke-miterlimit:4;stroke-dasharray:none;stroke-dashoffset:0;stroke-opacity:1;paint-order:fill markers stroke;color-rendering:auto;image-rendering:auto;shape-rendering:auto;text-rendering:auto;enable-background:accumulate"
           d="m 79.632812,82.183594 0.0078,0.0039 c -0.05133,6.93e-4 -0.10722,0.0019 -0.107422,0.002 -3.37e-4,6.6e-5 -0.152012,0.05645 -0.152344,0.05664 -3.32e-4,1.89e-4 -0.09928,0.07391 -0.09961,0.07422 -3.26e-4,3.12e-4 -0.04212,0.0467 -0.05664,0.06641 -0.116169,0.157651 -0.08842,0.185043 -0.0957,0.222656 -0.01456,0.07523 -0.01608,0.119697 -0.01953,0.183594 -0.0069,0.127792 -0.0098,0.302474 -0.0098,0.541015 0,0.763612 0.01681,1.342377 0.05469,1.75586 0.01894,0.206741 0.04009,0.369573 0.08008,0.519531 0.01999,0.07498 0.04231,0.147394 0.0957,0.238281 0.05339,0.09089 0.165918,0.244451 0.398438,0.283203 a 0.50005,0.50005 0 0 0 0.08203,0.0059 c -0.06066,0 0.0781,0.0022 0.232422,0.0059 0.154316,0.0037 0.38336,0.0083 0.683593,0.01563 0.600468,0.01465 1.492219,0.03711 2.675782,0.06641 a 0.50005,0.50005 0 0 0 0.002,0 c 2.378005,0.04686 4.727509,0.09963 7.046875,0.158203 a 0.50005,0.50005 0 0 0 0.002,0 c 1.166451,0.02345 2.044191,0.04001 2.634766,0.04883 0.295287,0.0044 0.518444,0.0071 0.671875,0.0078 0.07672,3.74e-4 0.134604,6.35e-4 0.179687,0 0.02254,-3.17e-4 0.04153,-9.46e-4 0.0625,-0.002 0.01049,-5.04e-4 0.02013,-0.0019 0.03906,-0.0039 0.0095,-9.8e-4 0.02213,-0.0021 0.04297,-0.0059 0.01042,-0.0019 0.04264,-0.0097 0.04297,-0.0098 1.24e-4,-3.4e-5 0.01825,-0.0072 0.03516,-0.01367 0.165063,-0.05894 0.216116,-0.138025 0.25,-0.183594 0.03495,-0.047 0.05172,-0.07913 0.06641,-0.109375 0.02938,-0.06049 0.04646,-0.112036 0.06641,-0.171875 0.03989,-0.119678 0.0804,-0.268852 0.128906,-0.462891 0.10917,-0.402485 0.188856,-0.812188 0.238281,-1.226562 v -0.002 c 0.06793,-0.463808 0.03956,-0.893088 -0.162109,-1.259766 a 0.50005,0.50005 0 0 0 -0.0039,-0.0078 c -0.105623,-0.184841 -0.223646,-0.234128 -0.320313,-0.279297 -0.09667,-0.04517 -0.190382,-0.07273 -0.296875,-0.09961 -0.212986,-0.05375 -0.47595,-0.09637 -0.808594,-0.134765 -0.665287,-0.07679 -1.604016,-0.135977 -2.833984,-0.181641 C 88.02646,82.193801 84.41186,82.160114 79.63288,82.183569 Z"
           id="path4732-7" /><path
           inkscape:connector-curvature="0"
           style="color:#000000;font-style:normal;font-variant:normal;font-weight:normal;font-stretch:normal;font-size:medium;line-height:1;font-family:Mikado;-inkscape-font-specification:'Mikado Bold';font-variant-ligatures:normal;font-variant-position:normal;font-variant-caps:normal;font-variant-numeric:normal;font-variant-alternates:normal;font-feature-settings:normal;text-indent:0;text-align:start;text-decoration:none;text-decoration-line:none;text-decoration-style:solid;text-decoration-color:#000000;letter-spacing:normal;word-spacing:normal;text-transform:none;writing-mode:lr-tb;direction:ltr;text-orientation:mixed;dominant-baseline:auto;baseline-shift:baseline;text-anchor:start;white-space:normal;shape-padding:0;clip-rule:nonzero;display:inline;overflow:visible;visibility:visible;opacity:1;isolation:auto;mix-blend-mode:normal;color-interpolation:sRGB;color-interpolation-filters:linearRGB;solid-color:#000000;solid-opacity:1;vector-effect:none;fill:#578186;fill-opacity:1;fill-rule:nonzero;stroke:none;stroke-width:1;stroke-linecap:butt;stroke-linejoin:miter;stroke-miterlimit:4;stroke-dasharray:none;stroke-dashoffset:0;stroke-opacity:1;paint-order:fill markers stroke;color-rendering:auto;image-rendering:auto;shape-rendering:auto;text-rendering:auto;enable-background:accumulate"
           d="m 93.4375,89.160156 c -0.295373,-0.0038 -0.723707,-0.004 -1.292969,0.002 -1.138523,0.01182 -2.838699,0.04677 -5.126953,0.123047 -2.278835,0.0703 -3.994261,0.128792 -5.148437,0.175782 -0.577307,0.0235 -1.014534,0.04455 -1.314453,0.0625 -0.14996,0.009 -0.263803,0.01697 -0.351563,0.02539 -0.04388,0.0042 -0.07939,0.0092 -0.119141,0.01563 -0.01988,0.0032 -0.04075,0.0048 -0.07422,0.01367 -0.01674,0.0044 -0.03753,0.0099 -0.07031,0.02344 -0.01639,0.0068 -0.03597,0.01587 -0.0625,0.03125 -0.02233,0.01295 -0.06975,0.05142 -0.08789,0.06641 -6.41e-4,5.88e-4 6.39e-4,0.0014 0,0.002 -0.299363,0.275645 -0.268001,0.533613 -0.271484,0.826172 -0.0035,0.293183 0.03093,0.647035 0.09766,1.089844 a 0.50005,0.50005 0 0 0 0,0.0078 c 0.07155,0.42928 0.138825,0.766236 0.203125,1.023438 0.03215,0.1286 0.06255,0.237121 0.09961,0.335937 0.03706,0.09882 0.05553,0.184436 0.189453,0.318359 0.102861,0.102861 0.153559,0.109027 0.191406,0.123047 0.03785,0.01402 0.06275,0.0201 0.08594,0.02539 0.04638,0.01059 0.08539,0.01583 0.128906,0.02148 0.08704,0.01131 0.191674,0.01977 0.326172,0.0293 0.268995,0.01905 0.650017,0.03749 1.152344,0.05664 1.004652,0.0383 2.488774,0.07809 4.453124,0.11914 3.938085,0.07032 6.287584,0.105469 7.076172,0.105469 a 0.50005,0.50005 0 0 0 0.496094,-0.431641 c 0.01978,-0.146387 0.07832,-0.587846 0.195313,-1.740234 0.05897,-0.580847 0.103364,-1.027856 0.132812,-1.34375 0.02945,-0.315894 0.04492,-0.437895 0.04492,-0.58789 a 0.50005,0.50005 0 0 0 -0.283203,-0.451172 c -0.110678,-0.05313 -0.125681,-0.0409 -0.150391,-0.04492 -0.02471,-0.004 -0.04088,-0.0062 -0.05859,-0.0078 -0.03543,-0.0033 -0.07036,-0.0059 -0.113282,-0.0078 -0.08585,-0.0038 -0.19997,-0.0059 -0.347656,-0.0078 z"
           id="path4728-8" /></g></g></g></svg>
