<?xml version="1.0" encoding="UTF-8" standalone="no"?>
<!-- Created with Inkscape (http://www.inkscape.org/) -->

<svg
   width="87.778381"
   height="85.197983"
   viewBox="0 0 87.778381 85.197983"
   version="1.1"
   id="svg8"
   inkscape:version="1.3 (0e150ed6c4, 2023-07-21)"
   sodipodi:docname="dollphone feature graphic.svg"
   inkscape:export-filename="dollphone feature graphic.png"
   inkscape:export-xdpi="96"
   inkscape:export-ydpi="96"
   xml:space="preserve"
   xmlns:inkscape="http://www.inkscape.org/namespaces/inkscape"
   xmlns:sodipodi="http://sodipodi.sourceforge.net/DTD/sodipodi-0.dtd"
   xmlns="http://www.w3.org/2000/svg"
   xmlns:svg="http://www.w3.org/2000/svg"
   xmlns:rdf="http://www.w3.org/1999/02/22-rdf-syntax-ns#"
   xmlns:cc="http://creativecommons.org/ns#"
   xmlns:dc="http://purl.org/dc/elements/1.1/"><defs
     id="defs2" /><sodipodi:namedview
     id="base"
     pagecolor="#ffffff"
     bordercolor="#666666"
     borderopacity="1.0"
     inkscape:pageopacity="0.0"
     inkscape:pageshadow="2"
     inkscape:zoom="0.85837285"
     inkscape:cx="654.72714"
     inkscape:cy="318.04361"
     inkscape:document-units="px"
     inkscape:current-layer="layer6"
     showgrid="true"
     units="px"
     inkscape:pagecheckerboard="true"
     borderlayer="true"
     gridtolerance="10"
     inkscape:snap-smooth-nodes="true"
     inkscape:snap-text-baseline="true"
     inkscape:snap-page="true"
     showguides="false"
     inkscape:guide-bbox="true"
     inkscape:snap-global="false"
     inkscape:showpageshadow="0"
     inkscape:deskcolor="#d1d1d1"
     inkscape:window-width="1858"
     inkscape:window-height="1057"
     inkscape:window-x="54"
     inkscape:window-y="-8"
     inkscape:window-maximized="1"><inkscape:grid
       type="xygrid"
       id="grid4131"
       empspacing="4"
       originx="-524.82715"
       originy="-138.29144"
       spacingy="1"
       spacingx="1"
       units="px"
       visible="true" /></sodipodi:namedview><metadata
     id="metadata5"><rdf:RDF><cc:Work
         rdf:about=""><dc:format>image/svg+xml</dc:format><dc:type
           rdf:resource="http://purl.org/dc/dcmitype/StillImage" /></cc:Work></rdf:RDF></metadata><g
     inkscape:groupmode="layer"
     id="layer6"
     inkscape:label="icons"
     transform="translate(-524.82715,-138.29144)"><g
       transform="translate(1138.5018,-1041.1563)"
       id="g1092"><path
         style="color:#000000;font-style:normal;font-variant:normal;font-weight:normal;font-stretch:normal;font-size:medium;line-height:normal;font-family:sans-serif;font-variant-ligatures:normal;font-variant-position:normal;font-variant-caps:normal;font-variant-numeric:normal;font-variant-alternates:normal;font-feature-settings:normal;text-indent:0;text-align:start;text-decoration:none;text-decoration-line:none;text-decoration-style:solid;text-decoration-color:#000000;letter-spacing:normal;word-spacing:normal;text-transform:none;writing-mode:lr-tb;direction:ltr;text-orientation:mixed;dominant-baseline:auto;baseline-shift:baseline;text-anchor:start;white-space:normal;shape-padding:0;clip-rule:nonzero;display:inline;overflow:visible;visibility:visible;opacity:0.5;isolation:auto;mix-blend-mode:normal;color-interpolation:sRGB;color-interpolation-filters:linearRGB;solid-color:#000000;solid-opacity:1;vector-effect:none;fill:#4c4c4c;fill-opacity:1;fill-rule:nonzero;stroke:none;stroke-width:4;stroke-linecap:butt;stroke-linejoin:round;stroke-miterlimit:4;stroke-dasharray:none;stroke-dashoffset:0;stroke-opacity:1;paint-order:stroke fill markers;color-rendering:auto;image-rendering:auto;shape-rendering:auto;text-rendering:auto;enable-background:accumulate"
         d="m -572.75752,1183.4495 c -11.31126,0.03 -21.89325,0.5808 -27.65625,2.125 -0.6497,0.1739 -1.16854,0.6626 -1.38086,1.3008 -0.39684,1.1938 -0.78465,2.5781 -1.16601,4.0586 -1.06167,0.1867 -2.1501,0.3876 -3.3086,0.6074 -0.7661,0.146 -1.37753,0.7238 -1.5664,1.4805 -6.31282,25.2513 -3.41064,49.1391 -1.34766,60.4805 0.2026,2.7359 0.60642,4.9525 1.39258,6.6484 0.0262,0.075 0.0569,0.1477 0.0918,0.2188 0.005,0.01 0.009,0.022 0.0137,0.031 0.012,0.022 0.0243,0.043 0.0371,0.064 0.0144,0.027 0.0293,0.054 0.0449,0.08 0.0193,0.032 0.0395,0.063 0.0605,0.094 0.02,0.03 0.0409,0.059 0.0625,0.088 0.0456,0.059 0.0945,0.116 0.14648,0.1699 1.09726,1.3176 2.64205,2.0443 4.36328,2.5879 1.79657,0.5674 3.8407,0.8975 5.95313,1.0527 3.20796,0.2358 6.52524,0.093 9.31445,-0.4766 5.50006,0.2962 11.6458,0.4455 17.80664,0.4455 8.04167,0 16.08001,-0.2502 22.6543,-0.7559 3.28714,-0.2528 6.20577,-0.5682 8.60351,-0.957 2.39775,-0.3888 4.21932,-0.7894 5.63672,-1.4981 0.43839,-0.2192 0.78103,-0.5917 0.96289,-1.0468 1.17076,-2.9269 1.87706,-7.3569 2.35352,-12.9473 0.47646,-5.5904 0.6651,-12.2719 0.53906,-19.3301 -0.12263,-6.8672 -0.54446,-14.0751 -1.29297,-20.9726 2.73329,-1.1614 4.54297,-4.1906 4.54297,-7.4922 0,-4.2028 -2.92577,-7.9772 -6.9668,-7.9981 -0.34223,-1.5704 -0.71003,-3.0846 -1.10351,-4.5273 -0.20158,-0.7409 -0.80953,-1.3011 -1.56446,-1.4414 -6.33907,-1.1747 -19.27598,-1.9477 -32.3457,-2.0723 -1.63371,-0.016 -3.26496,-0.022 -4.88086,-0.018 z"
         id="path1903"
         inkscape:connector-curvature="0"
         sodipodi:nodetypes="ccccccccccccccccscsssccsscscccsc" /><ellipse
         style="display:inline;opacity:1;vector-effect:none;fill:#9df9f1;fill-opacity:1;fill-rule:nonzero;stroke:#2c737f;stroke-width:4;stroke-linecap:butt;stroke-linejoin:round;stroke-miterlimit:4;stroke-dasharray:none;stroke-dashoffset:0;stroke-opacity:1;paint-order:stroke fill markers"
         id="path1160"
         cx="-534.89618"
         cy="1195.5062"
         rx="5"
         ry="6" /><path
         style="display:inline;opacity:1;vector-effect:none;fill:#82f7ed;fill-opacity:1;fill-rule:nonzero;stroke:#2c737f;stroke-width:4;stroke-linecap:butt;stroke-linejoin:round;stroke-miterlimit:4;stroke-dasharray:none;stroke-dashoffset:0;stroke-opacity:1;paint-order:fill markers stroke"
         d="m -607.89619,1255.5062 c 8,4 64,4 72,0 4,-10 4,-50 -2,-72 -12,-2.2236 -52,-3.2154 -64,0 -5.27913,15.8807 -10,64 -6,72 z"
         id="path1144"
         inkscape:connector-curvature="0"
         sodipodi:nodetypes="ccccc" /><path
         style="display:inline;opacity:1;vector-effect:none;fill:#9df9f1;fill-opacity:1;fill-rule:nonzero;stroke:#2c737f;stroke-width:4;stroke-linecap:butt;stroke-linejoin:round;stroke-miterlimit:4;stroke-dasharray:none;stroke-dashoffset:0;stroke-opacity:1;paint-order:fill markers stroke"
         d="m -587.89619,1257.5062 c -5.33237,1.8883 -17.26891,1.5413 -20,-2 -0.94308,-3.9946 -8,-34 0,-66 7.26273,-1.378 11.80348,-2.2352 17,0 -1.80773,9.7246 -1.9103,60.2314 0,68"
         id="path1154"
         inkscape:connector-curvature="0"
         sodipodi:nodetypes="ccccc" /><circle
         style="display:inline;opacity:1;vector-effect:none;fill:#cefcfc;fill-opacity:1;fill-rule:nonzero;stroke:#2c737f;stroke-width:4;stroke-linecap:butt;stroke-linejoin:round;stroke-miterlimit:4;stroke-dasharray:none;stroke-dashoffset:0;stroke-opacity:1;paint-order:fill markers stroke"
         id="path1146"
         cx="-563.89618"
         cy="1225.5062"
         r="24" /><circle
         r="12"
         cy="1225.5062"
         cx="-563.89618"
         id="circle1148-5"
         style="display:inline;opacity:1;vector-effect:none;fill:#11524b;fill-opacity:1;fill-rule:nonzero;stroke:#2c737f;stroke-width:4;stroke-linecap:butt;stroke-linejoin:round;stroke-miterlimit:4;stroke-dasharray:none;stroke-dashoffset:0;stroke-opacity:1;paint-order:fill markers stroke" /><circle
         r="5"
         cy="1223.5062"
         cx="-564.89618"
         id="circle1152-1"
         style="display:inline;opacity:1;vector-effect:none;fill:#c1ffe4;fill-opacity:0.530612;fill-rule:nonzero;stroke:none;stroke-width:1.66667;stroke-linecap:butt;stroke-linejoin:round;stroke-miterlimit:4;stroke-dasharray:none;stroke-dashoffset:0;stroke-opacity:1;paint-order:fill markers stroke" /><circle
         style="display:inline;opacity:1;vector-effect:none;fill:#c1ffe4;fill-opacity:1;fill-rule:nonzero;stroke:none;stroke-width:1;stroke-linecap:butt;stroke-linejoin:round;stroke-miterlimit:4;stroke-dasharray:none;stroke-dashoffset:0;stroke-opacity:1;paint-order:fill markers stroke"
         id="circle1150-3"
         cx="-567.89618"
         cy="1220.5062"
         r="3" /><rect
         style="display:inline;opacity:1;vector-effect:none;fill:#fff7cb;fill-opacity:1;fill-rule:nonzero;stroke:#cb8c3e;stroke-width:4;stroke-linecap:butt;stroke-linejoin:round;stroke-miterlimit:4;stroke-dasharray:none;stroke-dashoffset:0;stroke-opacity:1;paint-order:stroke fill markers"
         id="rect1156"
         width="7"
         height="11"
         x="-584.89618"
         y="1187.5062" /></g></g></svg>
