<?xml version="1.0" encoding="UTF-8" standalone="no"?>
<!-- Created with Inkscape (http://www.inkscape.org/) -->

<svg
   width="68.000122"
   height="88.305511"
   viewBox="0 0 68.000122 88.305511"
   version="1.1"
   id="svg8"
   inkscape:version="1.3 (0e150ed6c4, 2023-07-21)"
   sodipodi:docname="dollphone feature graphic.svg"
   inkscape:export-filename="dollphone feature graphic.png"
   inkscape:export-xdpi="96"
   inkscape:export-ydpi="96"
   xml:space="preserve"
   xmlns:inkscape="http://www.inkscape.org/namespaces/inkscape"
   xmlns:sodipodi="http://sodipodi.sourceforge.net/DTD/sodipodi-0.dtd"
   xmlns="http://www.w3.org/2000/svg"
   xmlns:svg="http://www.w3.org/2000/svg"
   xmlns:rdf="http://www.w3.org/1999/02/22-rdf-syntax-ns#"
   xmlns:cc="http://creativecommons.org/ns#"
   xmlns:dc="http://purl.org/dc/elements/1.1/"><defs
     id="defs2" /><sodipodi:namedview
     id="base"
     pagecolor="#ffffff"
     bordercolor="#666666"
     borderopacity="1.0"
     inkscape:pageopacity="0.0"
     inkscape:pageshadow="2"
     inkscape:zoom="0.85837285"
     inkscape:cx="654.72714"
     inkscape:cy="318.04361"
     inkscape:document-units="px"
     inkscape:current-layer="layer6"
     showgrid="true"
     units="px"
     inkscape:pagecheckerboard="true"
     borderlayer="true"
     gridtolerance="10"
     inkscape:snap-smooth-nodes="true"
     inkscape:snap-text-baseline="true"
     inkscape:snap-page="true"
     showguides="false"
     inkscape:guide-bbox="true"
     inkscape:snap-global="false"
     inkscape:showpageshadow="0"
     inkscape:deskcolor="#d1d1d1"
     inkscape:window-width="1858"
     inkscape:window-height="1057"
     inkscape:window-x="54"
     inkscape:window-y="-8"
     inkscape:window-maximized="1"><inkscape:grid
       type="xygrid"
       id="grid4131"
       empspacing="4"
       originx="-896.50378"
       originy="-273.67676"
       spacingy="1"
       spacingx="1"
       units="px"
       visible="true" /></sodipodi:namedview><metadata
     id="metadata5"><rdf:RDF><cc:Work
         rdf:about=""><dc:format>image/svg+xml</dc:format><dc:type
           rdf:resource="http://purl.org/dc/dcmitype/StillImage" /></cc:Work></rdf:RDF></metadata><g
     inkscape:groupmode="layer"
     id="layer6"
     inkscape:label="icons"
     transform="translate(-896.50378,-273.67676)"><g
       transform="translate(1500.4,-906.67744)"
       id="g1185"><path
         style="display:inline;opacity:1;vector-effect:none;fill:#ede0d7;fill-opacity:1;fill-rule:nonzero;stroke:#614840;stroke-width:4;stroke-linecap:butt;stroke-linejoin:round;stroke-miterlimit:4;stroke-dasharray:none;stroke-dashoffset:0;stroke-opacity:1;paint-order:fill markers stroke"
         d="m -600.49354,1256.5335 c -1.58618,-8.5566 -1.32788,-23.2707 -1.37867,-33.6316"
         id="path1174"
         inkscape:connector-curvature="0"
         sodipodi:nodetypes="cc" /><path
         style="color:#000000;font-style:normal;font-variant:normal;font-weight:normal;font-stretch:normal;font-size:medium;line-height:normal;font-family:sans-serif;font-variant-ligatures:normal;font-variant-position:normal;font-variant-caps:normal;font-variant-numeric:normal;font-variant-alternates:normal;font-feature-settings:normal;text-indent:0;text-align:start;text-decoration:none;text-decoration-line:none;text-decoration-style:solid;text-decoration-color:#000000;letter-spacing:normal;word-spacing:normal;text-transform:none;writing-mode:lr-tb;direction:ltr;text-orientation:mixed;dominant-baseline:auto;baseline-shift:baseline;text-anchor:start;white-space:normal;shape-padding:0;clip-rule:nonzero;display:inline;overflow:visible;visibility:visible;opacity:0.5;isolation:auto;mix-blend-mode:normal;color-interpolation:sRGB;color-interpolation-filters:linearRGB;solid-color:#000000;solid-opacity:1;vector-effect:none;fill:#4c4c4c;fill-opacity:1;fill-rule:nonzero;stroke:#000000;stroke-width:4;stroke-linecap:round;stroke-linejoin:miter;stroke-miterlimit:4;stroke-dasharray:none;stroke-dashoffset:0;stroke-opacity:0;paint-order:stroke fill markers;color-rendering:auto;image-rendering:auto;shape-rendering:auto;text-rendering:auto;enable-background:accumulate"
         d="m -569.89619,1184.3538 c -7.10056,0 -13.56202,0.2216 -18.60742,0.5567 -5.04541,0.3351 -8.40643,0.6584 -10.3711,1.3144 -0.58825,0.1964 -1.05214,0.6545 -1.25586,1.2403 -0.37954,1.0907 -0.56442,2.4374 -0.77148,4.3945 -0.20706,1.9571 -0.38439,4.4386 -0.53125,7.3809 -0.29372,5.8845 -0.46289,13.6045 -0.46289,22.4687 0,1.7955 0.0119,3.5074 0.0254,5.2031 h -0.002 c 0.0491,10.0222 -0.23465,24.1329 1.27734,33.1817 0.0139,0.1193 0.0416,0.2378 0.0606,0.3574 0.0256,0.1464 0.0476,0.3037 0.0742,0.4473 h 0.0137 c 0.19347,0.897 0.52359,1.7856 1.08008,2.6015 0.9418,1.3809 2.60188,2.4772 4.61328,2.6309 3.44702,0.2633 15.14418,0.4673 26.89453,0.5175 5.87518,0.025 11.71867,0.01 16.43945,-0.072 4.72079,-0.08 8.1164,-0.1725 9.87891,-0.4668 0.86503,-0.1446 1.53494,-0.8359 1.65234,-1.705 0.39433,-2.9205 1.25212,-6.8111 1.22071,-15.3926 0.1135,-1.4491 0.21807,-3.0204 0.30859,-4.834 0.29385,-5.8843 0.46294,-13.6025 0.46294,-22.4667 0,-8.8642 -0.16917,-16.5842 -0.46289,-22.4687 -0.14686,-2.9423 -0.32419,-5.4238 -0.53125,-7.3809 -0.20706,-1.9571 -0.39194,-3.3038 -0.77148,-4.3945 -0.20372,-0.5858 -0.66761,-1.0439 -1.25586,-1.2403 -1.96467,-0.656 -5.32569,-0.9793 -10.3711,-1.3144 -5.0454,-0.3351 -11.50686,-0.5567 -18.60742,-0.5567 z"
         id="path2119"
         inkscape:connector-curvature="0"
         sodipodi:nodetypes="ssccssscccccccsscccccsssccss" /><path
         style="display:inline;opacity:1;vector-effect:none;fill:#ede0d7;fill-opacity:1;fill-rule:nonzero;stroke:#614840;stroke-width:4;stroke-linecap:butt;stroke-linejoin:round;stroke-miterlimit:4;stroke-dasharray:none;stroke-dashoffset:0;stroke-opacity:1;paint-order:fill markers stroke"
         d="m -598.47707,1251.2963 c -1.33908,0 -2.18191,1.7811 -2.18191,3.7457 0,2.3093 1.16465,4.8721 4.05691,5.093 6.32123,0.4828 47.43755,0.8839 52.73167,0 0.44231,-3.2759 1.36098,-7.0984 1.19431,-16.8196"
         id="path1172"
         inkscape:connector-curvature="0"
         sodipodi:nodetypes="csscc" /><path
         style="display:inline;opacity:1;vector-effect:none;fill:#9e6545;fill-opacity:1;fill-rule:nonzero;stroke:#614840;stroke-width:4;stroke-linecap:butt;stroke-linejoin:round;stroke-miterlimit:4;stroke-dasharray:none;stroke-dashoffset:0;stroke-opacity:1;paint-order:fill markers stroke"
         d="m -541.89619,1217.7091 c 0,-17.6774 -0.67577,-30.7748 -1.65441,-33.5871 -2.64706,-0.8839 -14.22794,-1.7678 -28.34559,-1.7678 -14.11765,0 -25.69853,0.8839 -28.34559,1.7678 -0.97864,2.8123 -1.65441,15.9097 -1.65441,33.5871 0,17.6775 0.67577,30.7748 1.65441,33.5872 2.64706,-0.044 14.22794,-0.088 28.34559,-0.088 14.11765,0 25.69853,0.044 28.34559,0.088 0.97864,-2.8124 1.65441,-15.9097 1.65441,-33.5872 z"
         id="path1165"
         inkscape:connector-curvature="0"
         sodipodi:nodetypes="scscscscs" /><path
         style="display:inline;opacity:1;vector-effect:none;fill:#ede0d7;fill-opacity:1;fill-rule:nonzero;stroke:#614840;stroke-width:4;stroke-linecap:butt;stroke-linejoin:round;stroke-miterlimit:4;stroke-dasharray:none;stroke-dashoffset:0;stroke-opacity:1;paint-order:fill markers stroke"
         d="m -571.89619,1214.8365 c -15.33088,0 -14.77941,25.7428 -14.77941,25.7428 1.84824,1.8745 5.86872,2.3202 14.77941,2.3202 8.91069,0 12.93117,-0.4457 14.77941,-2.3202 0,0 0.55147,-25.7428 -14.77941,-25.7428 z"
         id="path1180"
         inkscape:connector-curvature="0" /><ellipse
         style="display:inline;opacity:1;vector-effect:none;fill:#ede0d7;fill-opacity:1;fill-rule:nonzero;stroke:#614840;stroke-width:4;stroke-linecap:butt;stroke-linejoin:round;stroke-miterlimit:4;stroke-dasharray:none;stroke-dashoffset:0;stroke-opacity:1;paint-order:fill markers stroke"
         id="path1176"
         cx="-571.89618"
         cy="1203.8567"
         rx="10.960999"
         ry="10.979871" /></g></g></svg>
