<?xml version="1.0" encoding="UTF-8" standalone="no"?>
<!-- Created with Inkscape (http://www.inkscape.org/) -->

<svg
   width="68.395142"
   height="86.382812"
   viewBox="0 0 68.395142 86.382812"
   version="1.1"
   id="svg8"
   inkscape:version="1.3 (0e150ed6c4, 2023-07-21)"
   sodipodi:docname="dollphone feature graphic.svg"
   inkscape:export-filename="dollphone feature graphic.png"
   inkscape:export-xdpi="96"
   inkscape:export-ydpi="96"
   xml:space="preserve"
   xmlns:inkscape="http://www.inkscape.org/namespaces/inkscape"
   xmlns:sodipodi="http://sodipodi.sourceforge.net/DTD/sodipodi-0.dtd"
   xmlns="http://www.w3.org/2000/svg"
   xmlns:svg="http://www.w3.org/2000/svg"
   xmlns:rdf="http://www.w3.org/1999/02/22-rdf-syntax-ns#"
   xmlns:cc="http://creativecommons.org/ns#"
   xmlns:dc="http://purl.org/dc/elements/1.1/"><defs
     id="defs2"><clipPath
       clipPathUnits="userSpaceOnUse"
       id="clipPath6210"><path
         style="color:#000000;font-style:normal;font-variant:normal;font-weight:normal;font-stretch:normal;font-size:medium;line-height:normal;font-family:sans-serif;font-variant-ligatures:normal;font-variant-position:normal;font-variant-caps:normal;font-variant-numeric:normal;font-variant-alternates:normal;font-feature-settings:normal;text-indent:0;text-align:start;text-decoration:none;text-decoration-line:none;text-decoration-style:solid;text-decoration-color:#000000;letter-spacing:normal;word-spacing:normal;text-transform:none;writing-mode:lr-tb;direction:ltr;text-orientation:mixed;dominant-baseline:auto;baseline-shift:baseline;text-anchor:start;white-space:normal;shape-padding:0;clip-rule:nonzero;display:inline;overflow:visible;visibility:visible;opacity:1;isolation:auto;mix-blend-mode:normal;color-interpolation:sRGB;color-interpolation-filters:linearRGB;solid-color:#000000;solid-opacity:1;vector-effect:none;fill:#646464;fill-opacity:1;fill-rule:nonzero;stroke:none;stroke-width:8;stroke-linecap:butt;stroke-linejoin:round;stroke-miterlimit:4;stroke-dasharray:none;stroke-dashoffset:0;stroke-opacity:1;paint-order:stroke fill markers;color-rendering:auto;image-rendering:auto;shape-rendering:auto;text-rendering:auto;enable-background:accumulate"
         d="m 64,23.808594 c -6.404208,0 -12.798113,0.141421 -17.818359,0.429687 -2.510123,0.144133 -4.665492,0.320761 -6.394532,0.556641 -0.864519,0.11794 -1.614893,0.244609 -2.34375,0.43164 -0.728856,0.187032 -1.363954,0.02997 -2.77539,1.441407 -0.915385,0.915385 -0.991962,1.442284 -1.150391,1.894531 -0.158429,0.452247 -0.249693,0.839194 -0.333984,1.248047 -0.168582,0.817707 -0.289005,1.714979 -0.402344,2.78125 -0.226679,2.132542 -0.404249,4.89797 -0.546875,8.144531 C 31.949124,47.229451 31.808594,55.610231 31.808594,64 c 0,8.389769 0.14053,16.772502 0.425781,23.265625 0.142626,3.246562 0.320196,6.010036 0.546875,8.142578 0.113339,1.066271 0.233762,1.965497 0.402344,2.783203 0.08429,0.408854 0.175555,0.793847 0.333984,1.246094 0.158429,0.452247 0.235006,0.97915 1.150391,1.89453 1.411558,1.41156 2.046509,1.2544 2.77539,1.44141 0.728881,0.187 1.479217,0.31374 2.34375,0.43164 1.729068,0.2358 3.8844,0.41456 6.394532,0.55859 C 51.201905,104.05174 57.596072,104.19141 64,104.19141 78,104.19141 95,88 95.8,79 c 0.516789,-6.478807 0.391406,-6.610231 0.391406,-15 0,-8.389769 -0.14053,-16.770549 -0.425781,-23.263672 -0.142626,-3.246561 -0.320196,-6.011989 -0.546875,-8.144531 -0.113339,-1.066271 -0.233762,-1.963543 -0.402344,-2.78125 -0.08429,-0.408853 -0.175555,-0.7958 -0.333984,-1.248047 -0.158429,-0.452247 -0.235006,-0.979146 -1.150391,-1.894531 -1.411436,-1.411437 -2.046534,-1.254375 -2.77539,-1.441407 -0.728857,-0.187031 -1.479231,-0.3137 -2.34375,-0.43164 -1.72904,-0.23588 -3.884409,-0.412508 -6.394532,-0.556641 C 76.798113,23.950015 70.404208,23.808594 64,23.808594 Z"
         id="path6212"
         inkscape:connector-curvature="0"
         sodipodi:nodetypes="ssscsssssssscsccscccssscsscsss" /></clipPath></defs><sodipodi:namedview
     id="base"
     pagecolor="#ffffff"
     bordercolor="#666666"
     borderopacity="1.0"
     inkscape:pageopacity="0.0"
     inkscape:pageshadow="2"
     inkscape:zoom="0.85837285"
     inkscape:cx="654.72714"
     inkscape:cy="318.04361"
     inkscape:document-units="px"
     inkscape:current-layer="layer6"
     showgrid="true"
     units="px"
     inkscape:pagecheckerboard="true"
     borderlayer="true"
     gridtolerance="10"
     inkscape:snap-smooth-nodes="true"
     inkscape:snap-text-baseline="true"
     inkscape:snap-page="true"
     showguides="false"
     inkscape:guide-bbox="true"
     inkscape:snap-global="false"
     inkscape:showpageshadow="0"
     inkscape:deskcolor="#d1d1d1"
     inkscape:window-width="1858"
     inkscape:window-height="1057"
     inkscape:window-x="54"
     inkscape:window-y="-8"
     inkscape:window-maximized="1"><inkscape:grid
       type="xygrid"
       id="grid4131"
       empspacing="4"
       originx="-987.80859"
       originy="-240.67267"
       spacingy="1"
       spacingx="1"
       units="px"
       visible="true" /></sodipodi:namedview><metadata
     id="metadata5"><rdf:RDF><cc:Work
         rdf:about=""><dc:format>image/svg+xml</dc:format><dc:type
           rdf:resource="http://purl.org/dc/dcmitype/StillImage" /></cc:Work></rdf:RDF></metadata><g
     inkscape:groupmode="layer"
     id="layer6"
     inkscape:label="icons"
     transform="translate(-987.80859,-240.67267)"><g
       transform="translate(1591.8962,-940.64212)"
       id="g1656"><path
         style="color:#000000;font-style:normal;font-variant:normal;font-weight:normal;font-stretch:normal;font-size:medium;line-height:normal;font-family:sans-serif;font-variant-ligatures:normal;font-variant-position:normal;font-variant-caps:normal;font-variant-numeric:normal;font-variant-alternates:normal;font-feature-settings:normal;text-indent:0;text-align:start;text-decoration:none;text-decoration-line:none;text-decoration-style:solid;text-decoration-color:#000000;letter-spacing:normal;word-spacing:normal;text-transform:none;writing-mode:lr-tb;direction:ltr;text-orientation:mixed;dominant-baseline:auto;baseline-shift:baseline;text-anchor:start;white-space:normal;shape-padding:0;clip-rule:nonzero;display:inline;overflow:visible;visibility:visible;opacity:0.5;isolation:auto;mix-blend-mode:normal;color-interpolation:sRGB;color-interpolation-filters:linearRGB;solid-color:#000000;solid-opacity:1;vector-effect:none;fill:#4c4c4c;fill-opacity:1;fill-rule:nonzero;stroke:#000000;stroke-width:4;stroke-linecap:round;stroke-linejoin:miter;stroke-miterlimit:4;stroke-dasharray:none;stroke-dashoffset:0;stroke-opacity:0;paint-order:stroke fill markers;color-rendering:auto;image-rendering:auto;shape-rendering:auto;text-rendering:auto;enable-background:accumulate"
         d="m -569.89619,1185.3148 c -6.40421,0 -12.79812,0.1414 -17.81836,0.4297 -2.51013,0.1441 -4.6655,0.3207 -6.39454,0.5566 -0.86451,0.1179 -1.61489,0.2446 -2.34375,0.4316 -0.72885,0.1871 -1.36395,0.03 -2.77539,1.4414 -0.91538,0.9154 -0.99196,1.4423 -1.15039,1.8946 -0.15843,0.4522 -0.24969,0.8392 -0.33398,1.248 -0.16858,0.8177 -0.28901,1.715 -0.40234,2.7813 -0.22668,2.1325 -0.40425,4.8979 -0.54688,8.1445 -0.28525,6.4931 -0.42578,14.8739 -0.42578,23.2637 0,8.3897 0.14053,16.7725 0.42578,23.2656 0.14263,3.2466 0.3202,6.01 0.54688,8.1426 0.11333,1.0662 0.23376,1.9655 0.40234,2.7832 0.0843,0.4088 0.17555,0.7938 0.33398,1.2461 0.15843,0.4522 0.23501,0.9791 1.15039,1.8945 1.41156,1.4116 2.04651,1.2544 2.77539,1.4414 0.72889,0.187 1.47922,0.3138 2.34375,0.4317 1.72907,0.2358 3.88441,0.4145 6.39454,0.5585 5.02026,0.2881 11.41443,0.4278 17.81836,0.4278 14,0 31,-16.1914 31.8,-25.1914 0.51678,-6.4788 0.3914,-6.6103 0.3914,-15 0,-8.3898 -0.14053,-16.7706 -0.42578,-23.2637 -0.14263,-3.2466 -0.3202,-6.012 -0.54687,-8.1445 -0.11334,-1.0663 -0.23377,-1.9636 -0.40235,-2.7813 -0.0843,-0.4088 -0.17555,-0.7958 -0.33398,-1.248 -0.15843,-0.4523 -0.23501,-0.9792 -1.15039,-1.8946 -1.41144,-1.4114 -2.04654,-1.2543 -2.77539,-1.4414 -0.72886,-0.187 -1.47923,-0.3137 -2.34375,-0.4316 -1.72904,-0.2359 -3.88441,-0.4125 -6.39454,-0.5566 -5.02024,-0.2883 -11.41415,-0.4297 -17.81835,-0.4297 z"
         id="path4709"
         inkscape:connector-curvature="0"
         sodipodi:nodetypes="ssscsssssssscsccscccssscsscsss" /><g
         transform="translate(-635.89619,1157.5062)"
         style="display:inline;opacity:1"
         clip-path="url(#clipPath6210)"
         id="g4733"
         inkscape:groupmode="maskhelper"><path
           sodipodi:nodetypes="sssssssss"
           inkscape:connector-curvature="0"
           id="path4711"
           d="m 64,27.80897 c -12.690108,0 -25.379406,0.563 -26.503906,1.6875 -1.1245,1.1245 -1.68675,17.814203 -1.68675,34.503906 -1e-6,16.689704 0.562249,33.379407 1.68675,34.503906 1.1245,1.124499 13.814203,1.686748 26.503906,1.686748 12.689703,0 25.379406,-0.562249 26.503906,-1.686748 1.124501,-1.124499 1.686751,-17.814202 1.68675,-34.503906 0,-16.689703 -0.56225,-33.379406 -1.68675,-34.503906 C 89.379406,28.37197 76.690108,27.80897 64,27.80897 Z"
           style="display:inline;opacity:1;vector-effect:none;fill:#e2e2e2;fill-opacity:1;fill-rule:nonzero;stroke:#646464;stroke-width:12;stroke-linecap:butt;stroke-linejoin:round;stroke-miterlimit:4;stroke-dasharray:none;stroke-dashoffset:0;stroke-opacity:1;paint-order:stroke fill markers" /><path
           style="opacity:1;vector-effect:none;fill:#d4d4d4;fill-opacity:1;fill-rule:nonzero;stroke:#646464;stroke-width:8;stroke-linecap:butt;stroke-linejoin:round;stroke-miterlimit:4;stroke-dasharray:none;stroke-dashoffset:0;stroke-opacity:1;paint-order:stroke fill markers"
           d="M 63,104.2 99,108 96.1,77 c 0,8 -8.1,12 -17.1,12 -1,7 -3,15.2 -16,15.2 z"
           id="path4713"
           inkscape:connector-curvature="0"
           sodipodi:nodetypes="ccccc" /><path
           style="color:#000000;font-style:normal;font-variant:normal;font-weight:normal;font-stretch:normal;font-size:medium;line-height:normal;font-family:sans-serif;font-variant-ligatures:normal;font-variant-position:normal;font-variant-caps:normal;font-variant-numeric:normal;font-variant-alternates:normal;font-feature-settings:normal;text-indent:0;text-align:start;text-decoration:none;text-decoration-line:none;text-decoration-style:solid;text-decoration-color:#000000;letter-spacing:normal;word-spacing:normal;text-transform:none;writing-mode:lr-tb;direction:ltr;text-orientation:mixed;dominant-baseline:auto;baseline-shift:baseline;text-anchor:start;white-space:normal;shape-padding:0;clip-rule:nonzero;display:inline;overflow:visible;visibility:visible;opacity:1;isolation:auto;mix-blend-mode:normal;color-interpolation:sRGB;color-interpolation-filters:linearRGB;solid-color:#000000;solid-opacity:1;vector-effect:none;fill:none;fill-opacity:1;fill-rule:nonzero;stroke:#646464;stroke-width:8;stroke-linecap:butt;stroke-linejoin:round;stroke-miterlimit:4;stroke-dasharray:none;stroke-dashoffset:0;stroke-opacity:1;paint-order:stroke fill markers;color-rendering:auto;image-rendering:auto;shape-rendering:auto;text-rendering:auto;enable-background:accumulate"
           d="m 63.993308,104.19141 c 14,0 31.099692,-16.191412 31.899692,-25.191412"
           id="path4715"
           inkscape:connector-curvature="0"
           sodipodi:nodetypes="cc" /></g><path
         style="display:inline;opacity:1;vector-effect:none;fill:#64b2f0;fill-opacity:1;fill-rule:nonzero;stroke:#3a76c3;stroke-width:8;stroke-linecap:butt;stroke-linejoin:round;stroke-miterlimit:4;stroke-dasharray:none;stroke-dashoffset:0;stroke-opacity:1;paint-order:stroke fill markers"
         inkscape:transform-center-x="1.0890304"
         inkscape:transform-center-y="1.0890304"
         d="m -553.0533,1217.7009 c 0.28366,0.2837 0.42549,3.4848 0.42549,6.6858 0,3.2011 -0.14183,6.4022 -0.42549,6.6858 -0.28365,0.2837 -3.48472,0.4255 -6.68579,0.4255 -3.20108,0 -6.40215,-0.1418 -6.6858,-0.4255 -0.28366,-0.2836 -0.42548,-3.4847 -0.42548,-6.6858 0,-3.201 0.14182,-6.4021 0.42548,-6.6858 0.28365,-0.2836 3.48472,-0.4254 6.6858,-0.4254 3.20107,0 6.40214,0.1418 6.68579,0.4254 z"
         id="path4943"
         inkscape:connector-curvature="0"
         sodipodi:nodetypes="sssssscss" /><circle
         style="display:inline;opacity:1;vector-effect:none;fill:#73e925;fill-opacity:1;fill-rule:nonzero;stroke:#5b9323;stroke-width:8;stroke-linecap:butt;stroke-linejoin:round;stroke-miterlimit:4;stroke-dasharray:none;stroke-dashoffset:0;stroke-opacity:1;paint-order:stroke fill markers"
         id="path4741"
         cx="-576.82812"
         cy="1202.1029"
         r="7.8368249" /><path
         style="display:inline;opacity:1;vector-effect:none;fill:#f095a5;fill-opacity:1;fill-rule:nonzero;stroke:#d5425d;stroke-width:8;stroke-linecap:butt;stroke-linejoin:round;stroke-miterlimit:4;stroke-dasharray:none;stroke-dashoffset:0;stroke-opacity:1;paint-order:stroke fill markers"
         inkscape:transform-center-x="1.0890304"
         inkscape:transform-center-y="1.0890304"
         d="m -576.32194,1240.8455 c -0.30515,0.3052 -3.7488,0.4577 -7.19245,0.4577 -3.44366,0 -6.88731,-0.1525 -7.19246,-0.4577 -0.30515,-0.3051 -0.45772,-3.7488 -0.45772,-7.1924 0,-3.4437 0.15257,-6.8873 0.45772,-7.1925 1.07578,-1.0758 15.46069,13.3091 14.38491,14.3849 z"
         id="path4960"
         inkscape:connector-curvature="0"
         sodipodi:nodetypes="cssscc" /></g></g></svg>
