<?xml version="1.0" encoding="UTF-8" standalone="no"?>
<!-- Created with Inkscape (http://www.inkscape.org/) -->

<svg
   width="85.546875"
   height="72"
   viewBox="0 0 85.546875 72"
   version="1.1"
   id="svg8"
   inkscape:version="1.3 (0e150ed6c4, 2023-07-21)"
   sodipodi:docname="dollphone feature graphic.svg"
   inkscape:export-filename="dollphone feature graphic.png"
   inkscape:export-xdpi="96"
   inkscape:export-ydpi="96"
   xml:space="preserve"
   xmlns:inkscape="http://www.inkscape.org/namespaces/inkscape"
   xmlns:sodipodi="http://sodipodi.sourceforge.net/DTD/sodipodi-0.dtd"
   xmlns="http://www.w3.org/2000/svg"
   xmlns:svg="http://www.w3.org/2000/svg"
   xmlns:rdf="http://www.w3.org/1999/02/22-rdf-syntax-ns#"
   xmlns:cc="http://creativecommons.org/ns#"
   xmlns:dc="http://purl.org/dc/elements/1.1/"><defs
     id="defs2" /><sodipodi:namedview
     id="base"
     pagecolor="#ffffff"
     bordercolor="#666666"
     borderopacity="1.0"
     inkscape:pageopacity="0.0"
     inkscape:pageshadow="2"
     inkscape:zoom="0.85837285"
     inkscape:cx="654.72714"
     inkscape:cy="318.04361"
     inkscape:document-units="px"
     inkscape:current-layer="layer6"
     showgrid="true"
     units="px"
     inkscape:pagecheckerboard="true"
     borderlayer="true"
     gridtolerance="10"
     inkscape:snap-smooth-nodes="true"
     inkscape:snap-text-baseline="true"
     inkscape:snap-page="true"
     showguides="false"
     inkscape:guide-bbox="true"
     inkscape:snap-global="false"
     inkscape:showpageshadow="0"
     inkscape:deskcolor="#d1d1d1"
     inkscape:window-width="1858"
     inkscape:window-height="1057"
     inkscape:window-x="54"
     inkscape:window-y="-8"
     inkscape:window-maximized="1"><inkscape:grid
       type="xygrid"
       id="grid4131"
       empspacing="4"
       originx="-597.58588"
       originy="-295.38647"
       spacingy="1"
       spacingx="1"
       units="px"
       visible="true" /></sodipodi:namedview><metadata
     id="metadata5"><rdf:RDF><cc:Work
         rdf:about=""><dc:format>image/svg+xml</dc:format><dc:type
           rdf:resource="http://purl.org/dc/dcmitype/StillImage" /></cc:Work></rdf:RDF></metadata><g
     inkscape:groupmode="layer"
     id="layer6"
     inkscape:label="icons"
     transform="translate(-597.58588,-295.38647)"><g
       id="g954"
       transform="translate(575.35934,-326.61352)"><path
         style="display:inline;opacity:0.5;vector-effect:none;fill:#4c4c4c;fill-opacity:1;fill-rule:nonzero;stroke:#4c4c4c;stroke-width:4;stroke-linecap:butt;stroke-linejoin:round;stroke-miterlimit:4;stroke-dasharray:none;stroke-dashoffset:0;stroke-opacity:1;paint-order:fill markers stroke"
         d="m 66,628 c -9.96537,0 -26.519044,0.55792 -34.300781,1.85742 -2.220334,0.37078 -3.588502,1.72589 -3.951172,3.61133 -0.69722,3.62471 -1.521484,14.38432 -1.521485,26.53125 0,12.14693 0.824265,22.90654 1.521485,26.53125 0.36267,1.88544 1.730838,3.24055 3.951172,3.61133 C 39.480956,691.44208 56.03463,692 66,692 c 9.96537,0 26.519044,-0.55792 34.30078,-1.85742 2.22034,-0.37078 3.5885,-1.72589 3.95117,-3.61133 0.69722,-3.62471 1.52149,-14.38432 1.52149,-26.53125 0,-12.14693 -0.82427,-22.90654 -1.52149,-26.53125 -0.36267,-1.88544 -1.73083,-3.24055 -3.95117,-3.61133 C 92.519044,628.55792 75.96537,628 66,628 Z"
         id="path1326"
         inkscape:connector-curvature="0" /><path
         inkscape:connector-curvature="0"
         id="path2387"
         d="m 64,624 c -9.96537,0 -26.519044,0.55792 -34.300781,1.85742 -2.220334,0.37078 -3.588502,1.72589 -3.951172,3.61133 -0.69722,3.62471 -1.521484,14.38432 -1.521485,26.53125 0,12.14693 0.824265,22.90654 1.521485,26.53125 0.36267,1.88544 1.730838,3.24055 3.951172,3.61133 C 37.480956,687.44208 54.03463,688 64,688 c 9.96537,0 26.519044,-0.55792 34.300781,-1.85742 2.220339,-0.37078 3.588499,-1.72589 3.951169,-3.61133 0.69722,-3.62471 1.52149,-14.38432 1.52149,-26.53125 0,-12.14693 -0.82427,-22.90654 -1.52149,-26.53125 -0.36267,-1.88544 -1.73083,-3.24055 -3.951169,-3.61133 C 90.519044,624.55792 73.96537,624 64,624 Z"
         style="display:inline;opacity:1;vector-effect:none;fill:#ffffff;fill-opacity:1;fill-rule:nonzero;stroke:#867b6a;stroke-width:4;stroke-linecap:butt;stroke-linejoin:round;stroke-miterlimit:4;stroke-dasharray:none;stroke-dashoffset:0;stroke-opacity:1;paint-order:fill markers stroke" /><path
         style="display:inline;opacity:1;vector-effect:none;fill:none;fill-opacity:1;fill-rule:nonzero;stroke:#867b6a;stroke-width:4;stroke-linecap:butt;stroke-linejoin:round;stroke-miterlimit:4;stroke-dasharray:none;stroke-dashoffset:0;stroke-opacity:1;paint-order:stroke fill markers"
         d="M 102.66494,633 C 93.664939,646 79,659 64,668 49,659 34.335061,646 25.335061,633"
         id="path2416"
         inkscape:connector-curvature="0"
         sodipodi:nodetypes="ccc" /><path
         sodipodi:nodetypes="sscsscs"
         inkscape:connector-curvature="0"
         id="path2433"
         d="m 56.650887,645.6109 c -4.299634,-0.14067 -8.838885,3.29895 -8.838885,8.13397 0,10.59656 6.265047,18.53352 16.187998,23.56607 9.922951,-5.03255 16.187998,-12.96951 16.187998,-23.56607 0,-4.71568 -4.317716,-8.13895 -8.519842,-8.13895 -3.457376,0 -6.836503,1.82056 -7.668156,6.39408 -0.806073,-4.43284 -4.004954,-6.2797 -7.349113,-6.3891 z"
         style="display:inline;opacity:1;vector-effect:none;fill:#ff4080;fill-opacity:1;fill-rule:nonzero;stroke:none;stroke-width:6.58975;stroke-linecap:butt;stroke-linejoin:round;stroke-miterlimit:4;stroke-dasharray:none;stroke-dashoffset:0;stroke-opacity:1;paint-order:stroke fill markers" /><path
         inkscape:connector-curvature="0"
         id="path898-2"
         d="m 58.05011,649 c -3.013284,-0.11242 -6.014803,2.24922 -6.014803,6.48672 0,7.97646 5.317642,13.44465 11.964693,17.28233 6.647051,-3.83768 11.964693,-9.30587 11.964693,-17.28233 0,-7.97646 -10.635283,-9.30588 -11.964693,0 C 63.376839,651.12459 60.70889,649.09919 58.05011,649 Z"
         style="display:inline;opacity:1;vector-effect:none;fill:#ffb0f0;fill-opacity:1;fill-rule:nonzero;stroke:none;stroke-width:6.11509;stroke-linecap:butt;stroke-linejoin:round;stroke-miterlimit:4;stroke-dasharray:none;stroke-dashoffset:0;stroke-opacity:1;paint-order:stroke fill markers" /></g></g></svg>
