<?xml version="1.0" encoding="UTF-8" standalone="no"?>
<!-- Created with Inkscape (http://www.inkscape.org/) -->

<svg
   width="86.800751"
   height="79.717773"
   viewBox="0 0 86.800751 79.717773"
   version="1.1"
   id="svg8"
   inkscape:version="1.3 (0e150ed6c4, 2023-07-21)"
   sodipodi:docname="dollphone feature graphic.svg"
   inkscape:export-filename="dollphone feature graphic.png"
   inkscape:export-xdpi="96"
   inkscape:export-ydpi="96"
   xml:space="preserve"
   xmlns:inkscape="http://www.inkscape.org/namespaces/inkscape"
   xmlns:sodipodi="http://sodipodi.sourceforge.net/DTD/sodipodi-0.dtd"
   xmlns="http://www.w3.org/2000/svg"
   xmlns:svg="http://www.w3.org/2000/svg"
   xmlns:rdf="http://www.w3.org/1999/02/22-rdf-syntax-ns#"
   xmlns:cc="http://creativecommons.org/ns#"
   xmlns:dc="http://purl.org/dc/elements/1.1/"><defs
     id="defs2" /><sodipodi:namedview
     id="base"
     pagecolor="#ffffff"
     bordercolor="#666666"
     borderopacity="1.0"
     inkscape:pageopacity="0.0"
     inkscape:pageshadow="2"
     inkscape:zoom="0.85837285"
     inkscape:cx="654.72714"
     inkscape:cy="318.04361"
     inkscape:document-units="px"
     inkscape:current-layer="layer6"
     showgrid="true"
     units="px"
     inkscape:pagecheckerboard="true"
     borderlayer="true"
     gridtolerance="10"
     inkscape:snap-smooth-nodes="true"
     inkscape:snap-text-baseline="true"
     inkscape:snap-page="true"
     showguides="false"
     inkscape:guide-bbox="true"
     inkscape:snap-global="false"
     inkscape:showpageshadow="0"
     inkscape:deskcolor="#d1d1d1"
     inkscape:window-width="1858"
     inkscape:window-height="1057"
     inkscape:window-x="54"
     inkscape:window-y="-8"
     inkscape:window-maximized="1"><inkscape:grid
       type="xygrid"
       id="grid4131"
       empspacing="4"
       originx="-481.84543"
       originy="-345.004"
       spacingy="1"
       spacingx="1"
       units="px"
       visible="true" /></sodipodi:namedview><metadata
     id="metadata5"><rdf:RDF><cc:Work
         rdf:about=""><dc:format>image/svg+xml</dc:format><dc:type
           rdf:resource="http://purl.org/dc/dcmitype/StillImage" /></cc:Work></rdf:RDF></metadata><g
     inkscape:groupmode="layer"
     id="layer6"
     inkscape:label="icons"
     transform="translate(-481.84543,-345.004)"><g
       transform="translate(1095.142,-838.68872)"
       id="g1230"><path
         style="color:#000000;font-style:normal;font-variant:normal;font-weight:normal;font-stretch:normal;font-size:medium;line-height:normal;font-family:sans-serif;font-variant-ligatures:normal;font-variant-position:normal;font-variant-caps:normal;font-variant-numeric:normal;font-variant-alternates:normal;font-feature-settings:normal;text-indent:0;text-align:start;text-decoration:none;text-decoration-line:none;text-decoration-style:solid;text-decoration-color:#000000;letter-spacing:normal;word-spacing:normal;text-transform:none;writing-mode:lr-tb;direction:ltr;text-orientation:mixed;dominant-baseline:auto;baseline-shift:baseline;text-anchor:start;white-space:normal;shape-padding:0;clip-rule:nonzero;display:inline;overflow:visible;visibility:visible;opacity:0.5;isolation:auto;mix-blend-mode:normal;color-interpolation:sRGB;color-interpolation-filters:linearRGB;solid-color:#000000;solid-opacity:1;vector-effect:none;fill:#4c4c4c;fill-opacity:1;fill-rule:nonzero;stroke:#000000;stroke-width:4;stroke-linecap:round;stroke-linejoin:miter;stroke-miterlimit:4;stroke-dasharray:none;stroke-dashoffset:0;stroke-opacity:0;paint-order:stroke fill markers;color-rendering:auto;image-rendering:auto;shape-rendering:auto;text-rendering:auto;enable-background:accumulate"
         d="m -582.11689,1187.6937 c -5.65366,0.043 -11.31464,0.7176 -16.80078,1.7402 -1.01058,0.1884 -1.58997,0.7054 -2.12891,1.2324 -0.53894,0.5271 -1.01793,1.1427 -1.49805,1.836 -0.96023,1.3865 -1.90263,3.0903 -2.77539,4.83 -0.87275,1.7398 -1.66728,3.5074 -2.28125,4.9766 -0.61397,1.4692 -1.02063,2.4933 -1.22461,3.3145 -2.04654,8.2388 -2.4707,16.3683 -2.4707,25.1523 0,7.4194 0.4287,14.1855 2.49414,21.1875 0.60592,2.0541 1.93508,3.8473 3.72266,5.1465 1.78757,1.2992 4.04352,2.1426 6.5,2.5254 9.42417,1.4684 18.5404,1.7754 28.68359,1.7754 10.14319,0 19.25942,-0.307 28.68359,-1.7754 2.45648,-0.3828 4.71243,-1.2262 6.5,-2.5254 1.78758,-1.2992 3.11675,-3.0924 3.72266,-5.1465 2.06544,-7.002 2.49414,-13.7681 2.49414,-21.1875 0,-8.784 -0.42415,-16.9135 -2.4707,-25.1523 -0.56966,-2.2934 -1.83637,-4.3573 -3.61524,-5.8926 -1.77886,-1.5353 -4.07217,-2.5625 -6.57422,-3.0254 -9.32208,-1.7249 -18.33656,-1.9197 -28.26953,-1.9258 -0.2028,-0.1385 -0.51268,-0.3703 -0.88867,-0.6699 -0.78498,-0.6256 -1.82063,-1.5032 -2.89648,-2.3926 -1.07585,-0.8893 -2.19003,-1.791 -3.21094,-2.5137 -0.51046,-0.3613 -0.99536,-0.6786 -1.48633,-0.9394 -0.49096,-0.2608 -0.92817,-0.5272 -1.78711,-0.5488 -0.80684,-0.02 -1.61421,-0.028 -2.42187,-0.022 z"
         id="path2228-0"
         inkscape:connector-curvature="0"
         sodipodi:nodetypes="cscssssssscscccsccsccsccsc" /><path
         sodipodi:nodetypes="cszscsssc"
         inkscape:connector-curvature="0"
         id="path1282"
         d="m -532.49619,1226.775 c 0,-8.7192 -0.42353,-16.6674 -2.41141,-24.6701 -0.46928,-1.8892 -1.5205,-3.5996 -2.98134,-4.8604 -1.46083,-1.2608 -3.4426,-2.1681 -5.63159,-2.5731 -9.27233,-1.7157 -18.2731,-1.9013 -28.37566,-1.9013 -0.89545,0 -8.05966,-7.0099 -9.85,-7.055 -6.27329,-0.1581 -12.63565,0.536 -18.80455,1.6858 -2.64082,0.4923 -7.86475,12.8148 -8.33404,14.704 -1.98788,8.0027 -2.41141,15.9509 -2.41141,24.6701"
         style="display:inline;opacity:1;vector-effect:none;fill:#dac479;fill-opacity:1;fill-rule:nonzero;stroke:#936f23;stroke-width:4;stroke-linecap:butt;stroke-linejoin:round;stroke-miterlimit:4;stroke-dasharray:none;stroke-dashoffset:0;stroke-opacity:1;paint-order:normal" /><path
         style="display:inline;opacity:1;vector-effect:none;fill:#f4eaaa;fill-opacity:1;fill-rule:nonzero;stroke:#936f23;stroke-width:4;stroke-linecap:butt;stroke-linejoin:round;stroke-miterlimit:4;stroke-dasharray:none;stroke-dashoffset:0;stroke-opacity:1;paint-order:normal"
         d="m -543.52053,1199.8919 c -9.27233,-1.4448 -18.2731,-1.7526 -28.37566,-1.7526 -10.10256,0 -19.10333,0.3078 -28.37566,1.7526 -2.18899,0.3411 -4.17076,1.1051 -5.63159,2.1668 -1.46083,1.0618 -2.51205,2.5021 -2.98134,4.0931 -1.98788,6.739 -2.41141,13.2807 -2.41141,20.6232 0,7.3425 0.42353,13.8842 2.41141,20.6233 0.46929,1.5909 1.52051,3.0313 2.98134,4.093 1.46083,1.0617 3.4426,1.8258 5.63159,2.1668 9.27233,1.4448 18.2731,1.7526 28.37566,1.7526 10.10256,0 19.10333,-0.3078 28.37566,-1.7526 2.18899,-0.341 4.17076,-1.1051 5.63159,-2.1668 1.46084,-1.0617 2.51206,-2.5021 2.98134,-4.093 1.98788,-6.7391 2.41141,-13.2808 2.41141,-20.6233 0,-7.3425 -0.42353,-13.8842 -2.41141,-20.6232 -0.46928,-1.591 -1.5205,-3.0313 -2.98134,-4.0931 -1.46083,-1.0617 -3.4426,-1.8257 -5.63159,-2.1668 z"
         id="path952-8"
         inkscape:connector-curvature="0"
         sodipodi:nodetypes="szszszszszszszszs" /></g></g></svg>
