<?xml version="1.0" encoding="UTF-8" standalone="no"?>
<!-- Created with Inkscape (http://www.inkscape.org/) -->

<svg
   width="86.387146"
   height="84.100662"
   viewBox="0 0 86.387146 84.100662"
   version="1.1"
   id="svg8"
   inkscape:version="1.3 (0e150ed6c4, 2023-07-21)"
   sodipodi:docname="dollphone feature graphic.svg"
   inkscape:export-filename="dollphone feature graphic.png"
   inkscape:export-xdpi="96"
   inkscape:export-ydpi="96"
   xml:space="preserve"
   xmlns:inkscape="http://www.inkscape.org/namespaces/inkscape"
   xmlns:sodipodi="http://sodipodi.sourceforge.net/DTD/sodipodi-0.dtd"
   xmlns:xlink="http://www.w3.org/1999/xlink"
   xmlns="http://www.w3.org/2000/svg"
   xmlns:svg="http://www.w3.org/2000/svg"
   xmlns:rdf="http://www.w3.org/1999/02/22-rdf-syntax-ns#"
   xmlns:cc="http://creativecommons.org/ns#"
   xmlns:dc="http://purl.org/dc/elements/1.1/"><defs
     id="defs2"><clipPath
       clipPathUnits="userSpaceOnUse"
       id="clipPath1410"><path
         style="display:inline;opacity:1;vector-effect:none;fill:#ffffff;fill-opacity:1;fill-rule:nonzero;stroke:none;stroke-width:3.69231;stroke-linecap:butt;stroke-linejoin:round;stroke-miterlimit:4;stroke-dasharray:none;stroke-dashoffset:0;stroke-opacity:1;paint-order:normal"
         d="m 64,28 c -9.230769,0 -19.682256,0.634289 -27,2.203125 -1.727554,0.370366 -3.290637,1.200457 -4.443527,2.353348 C 31.403582,33.709363 30.573491,35.272446 30.203125,37 28.634289,44.317744 28,54.769231 28,64 28,71.207574 28.246751,77.801514 29.214844,84.378906 39.213851,85.462377 53.206003,86 64,86 74.793997,86 88.786146,85.462377 98.785156,84.378906 99.75325,77.801514 100,71.207574 100,64 100,54.769231 99.365715,44.317744 97.796875,37 97.426515,35.272446 96.596418,33.709363 95.443527,32.556473 94.290637,31.403582 92.727558,30.573491 91,30.203125 83.682262,28.634289 73.230769,28 64,28 Z"
         id="path1412"
         inkscape:connector-curvature="0"
         sodipodi:nodetypes="ssssscscscsss" /></clipPath><linearGradient
       inkscape:collect="always"
       xlink:href="#linearGradient1418"
       id="linearGradient1420"
       x1="64"
       y1="28"
       x2="64"
       y2="80"
       gradientUnits="userSpaceOnUse" /><linearGradient
       inkscape:collect="always"
       id="linearGradient1418"><stop
         style="stop-color:#a2edff;stop-opacity:1"
         offset="0"
         id="stop1414" /><stop
         style="stop-color:#63aac5;stop-opacity:1"
         offset="1"
         id="stop1416" /></linearGradient></defs><sodipodi:namedview
     id="base"
     pagecolor="#ffffff"
     bordercolor="#666666"
     borderopacity="1.0"
     inkscape:pageopacity="0.0"
     inkscape:pageshadow="2"
     inkscape:zoom="0.85837285"
     inkscape:cx="654.72714"
     inkscape:cy="318.04361"
     inkscape:document-units="px"
     inkscape:current-layer="layer6"
     showgrid="true"
     units="px"
     inkscape:pagecheckerboard="true"
     borderlayer="true"
     gridtolerance="10"
     inkscape:snap-smooth-nodes="true"
     inkscape:snap-text-baseline="true"
     inkscape:snap-page="true"
     showguides="false"
     inkscape:guide-bbox="true"
     inkscape:snap-global="false"
     inkscape:showpageshadow="0"
     inkscape:deskcolor="#d1d1d1"
     inkscape:window-width="1858"
     inkscape:window-height="1057"
     inkscape:window-x="54"
     inkscape:window-y="-8"
     inkscape:window-maximized="1"><inkscape:grid
       type="xygrid"
       id="grid4131"
       empspacing="4"
       originx="-320.33527"
       originy="-31.59403"
       spacingy="1"
       spacingx="1"
       units="px"
       visible="true" /></sodipodi:namedview><metadata
     id="metadata5"><rdf:RDF><cc:Work
         rdf:about=""><dc:format>image/svg+xml</dc:format><dc:type
           rdf:resource="http://purl.org/dc/dcmitype/StillImage" /></cc:Work></rdf:RDF></metadata><g
     inkscape:groupmode="layer"
     id="layer6"
     inkscape:label="icons"
     transform="translate(-320.33527,-31.59403)"><g
       transform="translate(934.22149,-1149.6523)"
       id="g1291"><path
         style="color:#000000;font-style:normal;font-variant:normal;font-weight:normal;font-stretch:normal;font-size:medium;line-height:normal;font-family:sans-serif;font-variant-ligatures:normal;font-variant-position:normal;font-variant-caps:normal;font-variant-numeric:normal;font-variant-alternates:normal;font-feature-settings:normal;text-indent:0;text-align:start;text-decoration:none;text-decoration-line:none;text-decoration-style:solid;text-decoration-color:#000000;letter-spacing:normal;word-spacing:normal;text-transform:none;writing-mode:lr-tb;direction:ltr;text-orientation:mixed;dominant-baseline:auto;baseline-shift:baseline;text-anchor:start;white-space:normal;shape-padding:0;clip-rule:nonzero;display:inline;overflow:visible;visibility:visible;opacity:0.5;isolation:auto;mix-blend-mode:normal;color-interpolation:sRGB;color-interpolation-filters:linearRGB;solid-color:#000000;solid-opacity:1;vector-effect:none;fill:#4c4c4c;fill-opacity:1;fill-rule:nonzero;stroke:none;stroke-width:3.62918;stroke-linecap:butt;stroke-linejoin:round;stroke-miterlimit:4;stroke-dasharray:none;stroke-dashoffset:0;stroke-opacity:1;paint-order:normal;color-rendering:auto;image-rendering:auto;shape-rendering:auto;text-rendering:auto;enable-background:accumulate"
         d="m -558.76337,1185.2484 c -0.27499,0 -0.5514,-4e-4 -0.82812,0.014 -8.04098,0.4073 -15.47953,2.0356 -23.60547,4.2129 -8.12594,2.1774 -15.3815,4.4866 -22.54883,8.1543 -1.97323,1.0098 -3.61681,2.5195 -4.68359,4.3672 -1.06679,1.8477 -1.55354,4.0265 -1.44141,6.2402 0.40729,8.041 2.0375,15.4796 4.21484,23.6055 2.17734,8.126 4.48458,15.3815 8.15235,22.5488 1.00977,1.9733 2.52141,3.6149 4.36914,4.6817 1.84773,1.0668 4.02452,1.5535 6.23828,1.4414 3.80068,-0.1925 7.46706,-0.6649 11.13477,-1.332 2.57647,0.8313 5.22576,1.5864 7.98632,2.3261 7.37263,1.9755 14.12243,3.4547 21.41797,3.8242 2.00854,0.1018 3.98372,-0.3407 5.66016,-1.3085 1.67643,-0.9679 3.04673,-2.4578 3.96289,-4.2481 3.32775,-6.5029 5.42294,-13.0863 7.39844,-20.459 1.97548,-7.3726 3.45274,-14.1224 3.82226,-21.4179 0.10174,-2.0086 -0.3407,-3.9838 -1.30859,-5.6602 -0.96789,-1.6764 -2.45775,-3.0467 -4.24805,-3.9629 -3.53096,-1.8069 -7.09129,-3.2442 -10.7832,-4.5019 -1.42618,-4.2496 -3.05741,-8.3349 -5.13086,-12.3868 -1.00977,-1.9732 -2.52141,-3.6168 -4.36914,-4.6836 -1.61677,-0.9334 -3.4852,-1.4224 -5.41016,-1.455 z"
         id="path2455"
         inkscape:connector-curvature="0" /><g
         id="g1443"
         transform="matrix(0.73236418,0.19623639,-0.19623639,0.73236418,-597.96352,1167.7628)"
         style="display:inline;stroke-width:1.19665"><path
           style="display:inline;opacity:1;vector-effect:none;fill:#ffffff;fill-opacity:1;fill-rule:nonzero;stroke:#656875;stroke-width:4.78658;stroke-linecap:butt;stroke-linejoin:round;stroke-miterlimit:4;stroke-dasharray:none;stroke-dashoffset:0;stroke-opacity:1;paint-order:normal"
           d="M 92.087582,27.386927 C 82.909385,25.419233 74,25 64,25 54,25 45.090615,25.419233 35.912418,27.386927 33.745653,27.851455 31.784,28.892 30.338,30.338 28.892,31.784 27.851455,33.745653 27.386927,35.912418 25.419233,45.090615 25,54 25,64 25,74 25.419233,82.909385 27.386927,92.087582 27.851455,94.254347 28.892,96.216 30.338,97.662 c 1.446,1.446 3.407653,2.48655 5.574418,2.95107 C 45.090615,102.58077 54,103 64,103 74,103 82.909385,102.58077 92.087582,100.61307 94.254347,100.14855 96.216,99.108 97.662,97.662 c 1.446,-1.446 2.48655,-3.407653 2.95107,-5.574418 C 102.58077,82.909385 103,74 103,64 103,54 102.58077,45.090615 100.61307,35.912418 100.14855,33.745653 99.108,31.784 97.662,30.338 96.216,28.892 94.254347,27.851455 92.087582,27.386927 Z"
           id="path1433"
           inkscape:connector-curvature="0"
           sodipodi:nodetypes="szszszszszszszszs" /><g
           inkscape:groupmode="maskhelper"
           id="g1441"
           clip-path="url(#clipPath1410)"
           style="stroke-width:1.19665"><rect
             y="24"
             x="24"
             height="80"
             width="80"
             id="rect1435"
             style="opacity:1;vector-effect:none;fill:#fd9e75;fill-opacity:1;fill-rule:nonzero;stroke:none;stroke-width:9.57316;stroke-linecap:butt;stroke-linejoin:round;stroke-miterlimit:4;stroke-dasharray:none;stroke-dashoffset:0;stroke-opacity:1;paint-order:stroke fill markers" /><path
             style="opacity:1;vector-effect:none;fill:#be7545;fill-opacity:1;fill-rule:nonzero;stroke:#7e603b;stroke-width:9.57316;stroke-linecap:butt;stroke-linejoin:round;stroke-miterlimit:4;stroke-dasharray:none;stroke-dashoffset:0;stroke-opacity:1;paint-order:stroke fill markers"
             d="m 4,92 c 0,0 44,-48 52,-48 8,0 30.625,24 44,44"
             id="path1437"
             inkscape:connector-curvature="0"
             sodipodi:nodetypes="csc" /><path
             sodipodi:nodetypes="csc"
             inkscape:connector-curvature="0"
             id="path1439-3"
             d="m 32,104 c 0,0 44,-48 52,-48 8,0 30.625,24 44,44"
             style="opacity:1;vector-effect:none;fill:#f0b353;fill-opacity:1;fill-rule:nonzero;stroke:#7e603b;stroke-width:9.57316;stroke-linecap:butt;stroke-linejoin:round;stroke-miterlimit:4;stroke-dasharray:none;stroke-dashoffset:0;stroke-opacity:1;paint-order:stroke fill markers" /></g></g><g
         id="g1431"
         transform="matrix(0.80719494,-0.21628723,0.21628723,0.80719494,-641.74703,1181.0703)"
         style="display:inline;stroke-width:1.19665"><path
           sodipodi:nodetypes="szszszszszszszszs"
           inkscape:connector-curvature="0"
           id="path952-7"
           d="M 92.087582,27.386927 C 82.909385,25.419233 74,25 64,25 54,25 45.090615,25.419233 35.912418,27.386927 33.745653,27.851455 31.784,28.892 30.338,30.338 28.892,31.784 27.851455,33.745653 27.386927,35.912418 25.419233,45.090615 25,54 25,64 25,74 25.419233,82.909385 27.386927,92.087582 27.851455,94.254347 28.892,96.216 30.338,97.662 c 1.446,1.446 3.407653,2.48655 5.574418,2.95107 C 45.090615,102.58077 54,103 64,103 74,103 82.909385,102.58077 92.087582,100.61307 94.254347,100.14855 96.216,99.108 97.662,97.662 c 1.446,-1.446 2.48655,-3.407653 2.95107,-5.574418 C 102.58077,82.909385 103,74 103,64 103,54 102.58077,45.090615 100.61307,35.912418 100.14855,33.745653 99.108,31.784 97.662,30.338 96.216,28.892 94.254347,27.851455 92.087582,27.386927 Z"
           style="display:inline;opacity:1;vector-effect:none;fill:#ffffff;fill-opacity:1;fill-rule:nonzero;stroke:#656875;stroke-width:4.78658;stroke-linecap:butt;stroke-linejoin:round;stroke-miterlimit:4;stroke-dasharray:none;stroke-dashoffset:0;stroke-opacity:1;paint-order:normal" /><g
           clip-path="url(#clipPath1410)"
           id="g1407"
           inkscape:groupmode="maskhelper"
           style="stroke-width:1.19665"><rect
             style="opacity:1;vector-effect:none;fill:url(#linearGradient1420);fill-opacity:1;fill-rule:nonzero;stroke:none;stroke-width:9.57316;stroke-linecap:butt;stroke-linejoin:round;stroke-miterlimit:4;stroke-dasharray:none;stroke-dashoffset:0;stroke-opacity:1;paint-order:stroke fill markers"
             id="rect1405"
             width="80"
             height="80"
             x="24"
             y="24" /><path
             sodipodi:nodetypes="csc"
             inkscape:connector-curvature="0"
             id="path1422"
             d="m 4,92 c 0,0 44,-48 52,-48 8,0 30.625,24 44,44"
             style="opacity:1;vector-effect:none;fill:#67a954;fill-opacity:1;fill-rule:nonzero;stroke:#3b7e4f;stroke-width:9.57316;stroke-linecap:butt;stroke-linejoin:round;stroke-miterlimit:4;stroke-dasharray:none;stroke-dashoffset:0;stroke-opacity:1;paint-order:stroke fill markers" /><path
             style="opacity:1;vector-effect:none;fill:#93d336;fill-opacity:1;fill-rule:nonzero;stroke:#3b7e4f;stroke-width:9.57316;stroke-linecap:butt;stroke-linejoin:round;stroke-miterlimit:4;stroke-dasharray:none;stroke-dashoffset:0;stroke-opacity:1;paint-order:stroke fill markers"
             d="m 32,104 c 0,0 44,-48 52,-48 8,0 30.625,24 44,44"
             id="path1424"
             inkscape:connector-curvature="0"
             sodipodi:nodetypes="csc" /></g></g></g></g></svg>
