<?xml version="1.0" encoding="UTF-8" standalone="no"?>
<!-- Created with Inkscape (http://www.inkscape.org/) -->

<svg
   width="131.97202"
   height="112.06135"
   viewBox="0 0 131.97202 112.06135"
   version="1.1"
   id="svg8"
   inkscape:version="1.3 (0e150ed6c4, 2023-07-21)"
   sodipodi:docname="dollphone feature graphic.svg"
   inkscape:export-filename="dollphone feature graphic.png"
   inkscape:export-xdpi="96"
   inkscape:export-ydpi="96"
   xml:space="preserve"
   xmlns:inkscape="http://www.inkscape.org/namespaces/inkscape"
   xmlns:sodipodi="http://sodipodi.sourceforge.net/DTD/sodipodi-0.dtd"
   xmlns="http://www.w3.org/2000/svg"
   xmlns:svg="http://www.w3.org/2000/svg"
   xmlns:rdf="http://www.w3.org/1999/02/22-rdf-syntax-ns#"
   xmlns:cc="http://creativecommons.org/ns#"
   xmlns:dc="http://purl.org/dc/elements/1.1/"><defs
     id="defs2"><clipPath
       clipPathUnits="userSpaceOnUse"
       id="clipPath1210"><circle
         style="display:inline;opacity:1;vector-effect:none;fill:#68a955;fill-opacity:1;fill-rule:nonzero;stroke:none;stroke-width:4;stroke-linecap:butt;stroke-linejoin:round;stroke-miterlimit:4;stroke-dasharray:none;stroke-dashoffset:0;stroke-opacity:1;paint-order:fill markers stroke"
         id="circle1213"
         cx="84"
         cy="84"
         r="60" /></clipPath><filter
       style="color-interpolation-filters:sRGB"
       inkscape:label="Drop Shadow"
       id="filter4260"
       x="-0.016666667"
       y="-0.016666667"
       width="1.0650538"
       height="1.101773"><feFlood
         flood-opacity="0.498039"
         flood-color="rgb(76,76,76)"
         result="flood"
         id="feFlood4250" /><feComposite
         in="flood"
         in2="SourceGraphic"
         operator="in"
         result="composite1"
         id="feComposite4252" /><feOffset
         dx="2"
         dy="4"
         result="offset"
         id="feOffset4256" /><feComposite
         in="SourceGraphic"
         in2="offset"
         operator="over"
         result="composite2"
         id="feComposite4258" /></filter></defs><sodipodi:namedview
     id="base"
     pagecolor="#ffffff"
     bordercolor="#666666"
     borderopacity="1.0"
     inkscape:pageopacity="0.0"
     inkscape:pageshadow="2"
     inkscape:zoom="0.85837285"
     inkscape:cx="654.72714"
     inkscape:cy="318.04361"
     inkscape:document-units="px"
     inkscape:current-layer="layer6"
     showgrid="true"
     units="px"
     inkscape:pagecheckerboard="true"
     borderlayer="true"
     gridtolerance="10"
     inkscape:snap-smooth-nodes="true"
     inkscape:snap-text-baseline="true"
     inkscape:snap-page="true"
     showguides="false"
     inkscape:guide-bbox="true"
     inkscape:snap-global="false"
     inkscape:showpageshadow="0"
     inkscape:deskcolor="#d1d1d1"
     inkscape:window-width="1858"
     inkscape:window-height="1057"
     inkscape:window-x="54"
     inkscape:window-y="-8"
     inkscape:window-maximized="1"><inkscape:grid
       type="xygrid"
       id="grid4131"
       empspacing="4"
       originx="-434.45432"
       originy="9.1240435"
       spacingy="1"
       spacingx="1"
       units="px"
       visible="true" /></sodipodi:namedview><metadata
     id="metadata5"><rdf:RDF><cc:Work
         rdf:about=""><dc:format>image/svg+xml</dc:format><dc:type
           rdf:resource="http://purl.org/dc/dcmitype/StillImage" /></cc:Work></rdf:RDF></metadata><g
     inkscape:groupmode="layer"
     id="layer6"
     inkscape:label="icons"
     transform="translate(-434.45432,9.1240435)"><g
       style="filter:url(#filter4260)"
       transform="matrix(0.8,0,0,0.8,956.55328,-934.12383)"
       id="g1622"><g
         style="display:inline"
         inkscape:groupmode="maskhelper"
         id="g4944"
         clip-path="url(#clipPath1210)"
         transform="translate(-655.8962,1137.5062)"><circle
           style="display:inline;opacity:1;vector-effect:none;fill:#6d9fe9;fill-opacity:1;fill-rule:nonzero;stroke:none;stroke-width:4;stroke-linecap:butt;stroke-linejoin:round;stroke-miterlimit:4;stroke-dasharray:none;stroke-dashoffset:0;stroke-opacity:1;paint-order:fill markers stroke"
           id="circle4936"
           cx="84"
           cy="84"
           r="60" /><path
           style="opacity:1;vector-effect:none;fill:#3a76c3;fill-opacity:1;fill-rule:nonzero;stroke:none;stroke-width:4;stroke-linecap:round;stroke-linejoin:round;stroke-miterlimit:4;stroke-dasharray:none;stroke-dashoffset:0;stroke-opacity:0.996078;paint-order:stroke fill markers"
           d="m 52,72 c 9.897008,3.239395 10.569494,-19.582987 20,-24 2.414905,-1.131081 6.979511,2.463679 8,0 1.44319,-3.484168 -8.604085,-4.27746 -8,-8 0.477571,-2.942926 7.522429,-1.057074 8,-4 0.302043,-1.86127 -2.282894,-3.220832 -4,-4 C 57.746914,23.71733 30.202903,13.855908 16,28 0.85429637,43.082989 3.0550277,78.970925 20,92 25.389655,96.144133 34.631717,92.171781 40,88 47.004872,82.556398 42.794938,62.303522 51.502578,64 54.125086,64.510934 49.460742,71.168874 52,72 Z"
           id="path4946"
           inkscape:connector-curvature="0"
           sodipodi:nodetypes="aaaaaaaaaaa" /><path
           style="opacity:1;vector-effect:none;fill:#3a76c3;fill-opacity:1;fill-rule:nonzero;stroke:none;stroke-width:4;stroke-linecap:round;stroke-linejoin:round;stroke-miterlimit:4;stroke-dasharray:none;stroke-dashoffset:0;stroke-opacity:0.996078;paint-order:stroke fill markers"
           d="m 92,36 c 6.324555,2.108185 9.67544,9.891815 16,12 1.26491,0.421637 3.05719,-0.942809 4,0 4.71405,4.714045 -4.71405,15.285955 0,20 1.88562,1.885618 6.30083,-2.05522 8,0 6.05504,7.323834 -6.65934,18.586651 -5.35898,28 0.40798,2.953378 3.10267,5.15682 4,8 3.65145,11.56969 -6.26862,32.53735 5.35898,36 15.38764,4.58238 26.2942,-20.99261 32,-36 5.68609,-14.955547 6.93102,-33.579148 0,-48 -7.3967,-15.389751 -22.94106,-31.259704 -40,-32 -4.80288,-0.208428 -7.60356,6.055148 -12,8 -5.027519,2.224023 -16.671699,-1.456285 -16,4 0.162911,1.323343 2.735089,-0.421637 4,0 z"
           id="path4948"
           inkscape:connector-curvature="0"
           sodipodi:nodetypes="aaaaaaaaaaaaaa" /><path
           style="opacity:1;vector-effect:none;fill:#3a76c3;fill-opacity:1;fill-rule:nonzero;stroke:none;stroke-width:4;stroke-linecap:round;stroke-linejoin:round;stroke-miterlimit:4;stroke-dasharray:none;stroke-dashoffset:0;stroke-opacity:0.996078;paint-order:stroke fill markers"
           d="m 37.608374,106.92761 c 1.658088,-4.51241 6.29181,-9.357819 11.096993,-9.211768 2.980047,0.09058 3.715762,5.114498 6.522398,6.120318 C 59.244161,105.27554 64.767957,100.21484 68,103 c 5.545637,4.77887 5.921154,15.82365 1.818287,21.8865 -2.694321,3.98142 -9.686762,6.74595 -13.786368,4.2351 -2.542467,-1.55716 0.996742,-7.25254 -1.545726,-8.8097 -4.099605,-2.51084 -9.686762,6.74595 -13.786367,4.23511 -5.084934,-3.11433 -5.148058,-12.02244 -3.091452,-17.6194 z"
           id="path4950"
           inkscape:connector-curvature="0"
           sodipodi:nodetypes="aaaaaaaaa" /><path
           style="opacity:1;vector-effect:none;fill:#3a76c3;fill-opacity:1;fill-rule:nonzero;stroke:none;stroke-width:4;stroke-linecap:round;stroke-linejoin:round;stroke-miterlimit:4;stroke-dasharray:none;stroke-dashoffset:0;stroke-opacity:0.996078;paint-order:stroke fill markers"
           d="m 60,84 c -1.567427,-2.536151 1.118455,-7.234764 4,-8 4.646352,-1.233906 13.393109,3.398874 12,8 -0.386379,1.276123 -2.666667,0 -4,0 -4,0 -9.897076,3.402603 -12,0 z"
           id="path4952"
           inkscape:connector-curvature="0"
           sodipodi:nodetypes="aaaaa" /><path
           style="opacity:1;vector-effect:none;fill:#3a76c3;fill-opacity:1;fill-rule:nonzero;stroke:none;stroke-width:4;stroke-linecap:round;stroke-linejoin:round;stroke-miterlimit:4;stroke-dasharray:none;stroke-dashoffset:0;stroke-opacity:0.996078;paint-order:stroke fill markers"
           d="m 82,131 c -3.586659,-2.21668 0.579503,-9.53464 4,-12 2.163312,-1.55923 6.979511,-2.46368 8,0 2.164784,5.22625 -7.187992,14.97398 -12,12 z"
           id="path4954"
           inkscape:connector-curvature="0"
           sodipodi:nodetypes="aaaa" /><g
           id="g4959"><path
             style="opacity:1;vector-effect:none;fill:none;fill-opacity:1;fill-rule:nonzero;stroke:#e2db53;stroke-width:4;stroke-linecap:round;stroke-linejoin:round;stroke-miterlimit:4;stroke-dasharray:none;stroke-dashoffset:0;stroke-opacity:1;paint-order:stroke fill markers"
             d="M 34.098305,84 C 31.988227,69.196242 39.659028,51.262302 52.852146,42.314297 m 0,0 c 2.006977,10.106168 9.823399,29.137585 14.990773,38.340782 m 0,0 C 67.7763,89.740942 67.827056,97.54017 68,104 m 52,-40 c -1.35499,22.384967 -8.76729,34.551065 -34,55 m 0,0 C 76.676506,118.20976 70.475878,113.46389 68,104 M 120,64 C 106.21159,45.767576 78.172083,30.362386 52.852146,42.314297 M 67.842919,80.655079 34.098305,84 C 34.098305,84 20,87.222206 20,111.92075 m 110.66357,-8.41433 C 122.92822,120.58379 106.07138,121.26832 86,119 c 4.235259,15.8062 19.79842,29 34.48918,29 M 156.56843,84.800779 C 152.97688,94.612988 146.50332,105.30813 130.66357,103.50642 133.94814,91.038617 128.20002,71.867094 120,64 l 19.37631,-23.511318"
             id="path4973"
             inkscape:connector-curvature="0"
             sodipodi:nodetypes="cccccccccccccccccccccc" /><circle
             cy="42.314297"
             cx="52.852146"
             id="path4956"
             style="opacity:1;vector-effect:none;fill:#e2db53;fill-opacity:1;fill-rule:nonzero;stroke:#b9a400;stroke-width:4;stroke-linecap:round;stroke-linejoin:round;stroke-miterlimit:4;stroke-dasharray:none;stroke-dashoffset:0;stroke-opacity:1;paint-order:stroke fill markers"
             r="4" /><circle
             r="4"
             style="opacity:1;vector-effect:none;fill:#e2db53;fill-opacity:1;fill-rule:nonzero;stroke:#b9a400;stroke-width:4;stroke-linecap:round;stroke-linejoin:round;stroke-miterlimit:4;stroke-dasharray:none;stroke-dashoffset:0;stroke-opacity:1;paint-order:stroke fill markers"
             id="circle4961"
             cx="120"
             cy="64" /><circle
             cy="103.50642"
             cx="130.66357"
             id="circle4963"
             style="opacity:1;vector-effect:none;fill:#e2db53;fill-opacity:1;fill-rule:nonzero;stroke:#b9a400;stroke-width:4;stroke-linecap:round;stroke-linejoin:round;stroke-miterlimit:4;stroke-dasharray:none;stroke-dashoffset:0;stroke-opacity:1;paint-order:stroke fill markers"
             r="3" /><circle
             r="4"
             style="opacity:1;vector-effect:none;fill:#e2db53;fill-opacity:1;fill-rule:nonzero;stroke:#b9a400;stroke-width:4;stroke-linecap:round;stroke-linejoin:round;stroke-miterlimit:4;stroke-dasharray:none;stroke-dashoffset:0;stroke-opacity:1;paint-order:stroke fill markers"
             id="circle4965"
             cx="86"
             cy="119" /><circle
             cy="104"
             cx="68"
             id="circle4967"
             style="opacity:1;vector-effect:none;fill:#e2db53;fill-opacity:1;fill-rule:nonzero;stroke:#b9a400;stroke-width:4;stroke-linecap:round;stroke-linejoin:round;stroke-miterlimit:4;stroke-dasharray:none;stroke-dashoffset:0;stroke-opacity:1;paint-order:stroke fill markers"
             r="4" /><circle
             style="opacity:1;vector-effect:none;fill:#e2db53;fill-opacity:1;fill-rule:nonzero;stroke:#b9a400;stroke-width:4;stroke-linecap:round;stroke-linejoin:round;stroke-miterlimit:4;stroke-dasharray:none;stroke-dashoffset:0;stroke-opacity:1;paint-order:stroke fill markers"
             id="circle4969"
             cx="34.098305"
             cy="84"
             r="3" /><circle
             cy="80"
             cx="68"
             id="circle4971"
             style="opacity:1;vector-effect:none;fill:#e2db53;fill-opacity:1;fill-rule:nonzero;stroke:#b9a400;stroke-width:4;stroke-linecap:round;stroke-linejoin:round;stroke-miterlimit:4;stroke-dasharray:none;stroke-dashoffset:0;stroke-opacity:1;paint-order:stroke fill markers"
             r="3" /></g></g><circle
         style="display:inline;opacity:1;vector-effect:none;fill:none;fill-opacity:1;fill-rule:nonzero;stroke:#e6e6e6;stroke-width:4;stroke-linecap:butt;stroke-linejoin:round;stroke-miterlimit:4;stroke-dasharray:none;stroke-dashoffset:0;stroke-opacity:1;paint-order:fill markers stroke"
         id="circle4934"
         cx="-571.89618"
         cy="1221.5062"
         r="60" /></g></g></svg>
