<?xml version="1.0" encoding="UTF-8" standalone="no"?>
<!-- Created with Inkscape (http://www.inkscape.org/) -->

<svg
   width="84.799988"
   height="82.606262"
   viewBox="0 0 84.799988 82.606262"
   version="1.1"
   id="svg8"
   inkscape:version="1.3 (0e150ed6c4, 2023-07-21)"
   sodipodi:docname="message.svg"
   inkscape:export-filename="dollphone feature graphic.png"
   inkscape:export-xdpi="96"
   inkscape:export-ydpi="96"
   xml:space="preserve"
   xmlns:inkscape="http://www.inkscape.org/namespaces/inkscape"
   xmlns:sodipodi="http://sodipodi.sourceforge.net/DTD/sodipodi-0.dtd"
   xmlns="http://www.w3.org/2000/svg"
   xmlns:svg="http://www.w3.org/2000/svg"
   xmlns:rdf="http://www.w3.org/1999/02/22-rdf-syntax-ns#"
   xmlns:cc="http://creativecommons.org/ns#"
   xmlns:dc="http://purl.org/dc/elements/1.1/"><defs
     id="defs2" /><sodipodi:namedview
     id="base"
     pagecolor="#ffffff"
     bordercolor="#666666"
     borderopacity="1.0"
     inkscape:pageopacity="0.0"
     inkscape:pageshadow="2"
     inkscape:zoom="8.7735862"
     inkscape:cx="42.399994"
     inkscape:cy="41.260209"
     inkscape:document-units="px"
     inkscape:current-layer="g1351"
     showgrid="true"
     units="px"
     inkscape:pagecheckerboard="true"
     borderlayer="true"
     gridtolerance="10"
     inkscape:snap-smooth-nodes="true"
     inkscape:snap-text-baseline="true"
     inkscape:snap-page="true"
     showguides="false"
     inkscape:guide-bbox="true"
     inkscape:snap-global="false"
     inkscape:showpageshadow="0"
     inkscape:deskcolor="#d1d1d1"
     inkscape:window-width="1858"
     inkscape:window-height="1057"
     inkscape:window-x="54"
     inkscape:window-y="-8"
     inkscape:window-maximized="1"><inkscape:grid
       type="xygrid"
       id="grid4131"
       empspacing="4"
       originx="-632.73779"
       originy="-184.77921"
       spacingy="1"
       spacingx="1"
       units="px"
       visible="true" /></sodipodi:namedview><metadata
     id="metadata5"><rdf:RDF><cc:Work
         rdf:about=""><dc:format>image/svg+xml</dc:format><dc:type
           rdf:resource="http://purl.org/dc/dcmitype/StillImage" /></cc:Work></rdf:RDF></metadata><g
     inkscape:groupmode="layer"
     id="layer6"
     inkscape:label="icons"
     transform="translate(-632.73779,-184.77921)"><g
       transform="translate(1246.034,-1000.8928)"
       id="g1351"><path
         sodipodi:nodetypes="sccccccs"
         inkscape:connector-curvature="0"
         id="path1564"
         d="m -569.89619,1193.272 c -21.87082,0 -37.80048,13.5931 -37.8,32.5811 0.0182,10.9102 4.19998,21.1653 14.31914,27.6345 1.89116,2.8326 2.813,6.9994 -3.51914,10.1655 5.84188,2.9209 16.03144,-1.1637 19.66816,-5.8342 2.41662,0.4024 4.87119,0.6084 7.33184,0.6152 21.87081,0 37.80048,-13.593 37.8,-32.581 4.8e-4,-18.988 -15.92919,-32.5811 -37.8,-32.5811 z"
         style="display:inline;opacity:0.5;vector-effect:none;fill:#4c4c4c;fill-opacity:1;fill-rule:nonzero;stroke:#4c4c4c;stroke-width:7.2;stroke-linecap:butt;stroke-linejoin:round;stroke-miterlimit:4;stroke-dasharray:none;stroke-dashoffset:0;stroke-opacity:1;paint-order:stroke fill markers" /><path
         sodipodi:nodetypes="sccccccs"
         inkscape:connector-curvature="0"
         id="path1566"
         d="m -571.89619,1189.272 c -21.87082,0 -37.80048,13.5931 -37.8,32.5811 0.0182,10.9102 4.19998,21.1653 14.31914,27.6345 1.89116,2.8326 2.813,6.9994 -3.51914,10.1655 5.84188,2.9209 16.03144,-1.1637 19.66816,-5.8342 2.41662,0.4024 4.87119,0.6084 7.33184,0.6152 21.87081,0 37.80048,-13.593 37.8,-32.581 4.8e-4,-18.988 -15.92919,-32.5811 -37.8,-32.5811 z"
         style="display:inline;opacity:1;vector-effect:none;fill:#fcfcfd;fill-opacity:1;fill-rule:nonzero;stroke:#3a76c3;stroke-width:7.2;stroke-linecap:butt;stroke-linejoin:round;stroke-miterlimit:4;stroke-dasharray:none;stroke-dashoffset:0;stroke-opacity:1;paint-order:stroke fill markers" /><path
         id="text1570"
         style="font-style:normal;font-variant:normal;font-weight:bold;font-stretch:normal;font-size:25.8644px;line-height:1;font-family:Mikado;-inkscape-font-specification:'Mikado Bold';font-variant-ligatures:normal;font-variant-caps:normal;font-variant-numeric:normal;font-feature-settings:normal;text-align:center;writing-mode:lr-tb;text-anchor:middle;display:inline;opacity:1;vector-effect:none;fill:#3a76c3;fill-opacity:1;fill-rule:nonzero;stroke:none;stroke-width:3.23305;stroke-linecap:butt;stroke-linejoin:round;stroke-miterlimit:4;stroke-dasharray:none;stroke-dashoffset:0;stroke-opacity:1;paint-order:stroke fill markers"
         d="M -569.14973 1215.5451 C -572.33104 1215.5451 -574.21809 1217.1487 -574.21809 1219.9162 C -574.21809 1222.0888 -572.87466 1223.3036 -569.97785 1223.7951 C -568.29667 1224.1054 -567.88215 1224.4155 -567.88215 1224.9845 C -567.88215 1225.5535 -568.40031 1225.9162 -569.43488 1225.9162 C -571.0902 1225.9162 -572.69293 1224.752 -573.10676 1224.5451 C -573.31367 1224.4416 -574.50312 1227.261 -574.29621 1227.5197 C -573.93411 1227.9076 -571.57991 1228.9415 -568.99348 1228.9415 C -565.37246 1228.9415 -563.8216 1226.8719 -563.8216 1224.5958 C -563.8216 1222.1905 -565.19296 1221.1312 -568.27082 1220.6915 C -569.77095 1220.4846 -570.21027 1220.2254 -570.21027 1219.6564 C -570.21027 1219.1391 -569.76976 1218.6486 -568.76105 1218.6486 C -567.26092 1218.6486 -565.60717 1219.6564 -565.47785 1219.6564 C -565.2968 1219.6305 -564.1064 1216.9146 -564.33918 1216.6818 C -564.67542 1216.3455 -566.7702 1215.5451 -569.14973 1215.5451 z M -588.15949 1215.6212 C -590.25451 1215.6212 -591.23696 1216.5275 -591.80598 1217.381 C -591.78011 1217.2258 -591.75567 1216.5277 -591.7298 1215.9845 C -591.96258 1215.7517 -595.58296 1215.5184 -595.81574 1215.9064 C -595.89333 1221.3896 -595.78934 1228.424 -595.73762 1228.5275 C -595.66002 1228.6827 -591.88357 1228.7345 -591.80598 1228.631 C -591.72838 1228.5275 -591.67707 1221.9846 -591.67707 1221.2345 C -591.67707 1220.4069 -591.10795 1219.2697 -589.76301 1219.2697 C -588.41806 1219.2697 -588.05598 1220.225 -588.05598 1221.4923 C -588.05598 1222.3717 -588.18678 1228.425 -588.08332 1228.4767 C -588.03159 1228.5284 -584.12481 1228.6841 -584.09894 1228.4513 C -584.02135 1227.1581 -583.94465 1223.3292 -583.94465 1221.4669 C -583.94465 1220.6651 -583.5293 1219.2697 -582.10676 1219.2697 C -580.73595 1219.2697 -580.39973 1220.225 -580.39973 1221.4923 C -580.39973 1222.7079 -580.53005 1228.632 -580.45246 1228.6837 C -580.37487 1228.7613 -576.44317 1228.7603 -576.4173 1228.5275 C -576.33971 1227.3119 -576.23566 1222.837 -576.23566 1221.0783 C -576.23566 1217.7676 -577.68574 1215.6212 -580.94465 1215.6212 C -582.00509 1215.6212 -583.96956 1215.9326 -584.84894 1217.4845 C -585.54728 1216.3465 -586.71109 1215.6212 -588.15949 1215.6212 z M -551.39191 1215.6642 C -552.00675 1215.6692 -552.54532 1215.7119 -552.70051 1215.8283 C -552.70051 1215.9834 -552.75129 1217.0696 -552.75129 1217.2247 C -553.55308 1216.3971 -554.84644 1215.7521 -556.4759 1215.7521 C -559.60549 1215.7521 -562.52863 1218.2856 -562.52863 1222.3204 C -562.52863 1226.3294 -559.32151 1228.424 -556.55402 1228.424 C -554.25209 1228.424 -553.21797 1227.2607 -553.01105 1226.8986 C -552.95933 1229.1488 -553.75937 1230.7775 -555.98371 1230.7775 C -558.18218 1230.7775 -559.55361 1229.5114 -559.68293 1229.6408 C -560.09676 1230.2098 -560.74312 1231.5807 -560.9759 1232.4083 C -560.66553 1232.9774 -558.5186 1234.2697 -555.44074 1234.2697 C -552.20769 1234.2697 -548.7694 1232.719 -548.84699 1225.8908 C -548.87286 1224.313 -549.02768 1216.0874 -549.07941 1215.8029 C -549.12791 1215.7544 -550.36719 1215.6559 -551.39191 1215.6642 z M -555.54426 1219.631 C -553.78548 1219.631 -552.95832 1220.794 -552.95832 1222.3458 C -552.95832 1224.0529 -554.14758 1225.0372 -555.54426 1225.0372 C -557.17371 1225.0372 -558.05402 1223.9499 -558.05402 1222.3204 C -558.05402 1220.5617 -556.94093 1219.631 -555.54426 1219.631 z " /></g></g></svg>
