<?xml version="1.0" encoding="UTF-8" standalone="no"?>
<!-- Created with Inkscape (http://www.inkscape.org/) -->

<svg
   width="66.571411"
   height="83.999512"
   viewBox="0 0 66.571411 83.999512"
   version="1.1"
   id="svg8"
   inkscape:version="1.3 (0e150ed6c4, 2023-07-21)"
   sodipodi:docname="dollphone feature graphic.svg"
   inkscape:export-filename="dollphone feature graphic.png"
   inkscape:export-xdpi="96"
   inkscape:export-ydpi="96"
   xml:space="preserve"
   xmlns:inkscape="http://www.inkscape.org/namespaces/inkscape"
   xmlns:sodipodi="http://sodipodi.sourceforge.net/DTD/sodipodi-0.dtd"
   xmlns="http://www.w3.org/2000/svg"
   xmlns:svg="http://www.w3.org/2000/svg"
   xmlns:rdf="http://www.w3.org/1999/02/22-rdf-syntax-ns#"
   xmlns:cc="http://creativecommons.org/ns#"
   xmlns:dc="http://purl.org/dc/elements/1.1/"><defs
     id="defs2" /><sodipodi:namedview
     id="base"
     pagecolor="#ffffff"
     bordercolor="#666666"
     borderopacity="1.0"
     inkscape:pageopacity="0.0"
     inkscape:pageshadow="2"
     inkscape:zoom="0.85837285"
     inkscape:cx="654.72714"
     inkscape:cy="318.04361"
     inkscape:document-units="px"
     inkscape:current-layer="layer6"
     showgrid="true"
     units="px"
     inkscape:pagecheckerboard="true"
     borderlayer="true"
     gridtolerance="10"
     inkscape:snap-smooth-nodes="true"
     inkscape:snap-text-baseline="true"
     inkscape:snap-page="true"
     showguides="false"
     inkscape:guide-bbox="true"
     inkscape:snap-global="false"
     inkscape:showpageshadow="0"
     inkscape:deskcolor="#d1d1d1"
     inkscape:window-width="1858"
     inkscape:window-height="1057"
     inkscape:window-x="54"
     inkscape:window-y="-8"
     inkscape:window-maximized="1"><inkscape:grid
       type="xygrid"
       id="grid4131"
       empspacing="4"
       originx="-650.74652"
       originy="-400.65195"
       spacingy="1"
       spacingx="1"
       units="px"
       visible="true" /></sodipodi:namedview><metadata
     id="metadata5"><rdf:RDF><cc:Work
         rdf:about=""><dc:format>image/svg+xml</dc:format><dc:type
           rdf:resource="http://purl.org/dc/dcmitype/StillImage" /></cc:Work></rdf:RDF></metadata><g
     inkscape:groupmode="layer"
     id="layer6"
     inkscape:label="icons"
     transform="translate(-650.74652,-400.65195)"><g
       transform="translate(1253.1052,-776.67775)"
       id="g1333"><path
         style="display:inline;opacity:0.5;vector-effect:none;fill:#4c4c4c;fill-opacity:1;fill-rule:nonzero;stroke:#4c4c4c;stroke-width:8;stroke-linecap:round;stroke-linejoin:round;stroke-miterlimit:4;stroke-dasharray:none;stroke-dashoffset:0;stroke-opacity:1;paint-order:stroke fill markers"
         d="m -565.50154,1185.3292 v 45.5851 c -2.11942,-3.0124 -6.00038,-4.4423 -10.28571,-4.4423 -9.94113,0 -20.57143,8.1933 -20.57143,16.7143 0,8.521 5.48745,14.1429 15.42857,14.1429 9.94113,0 20.57143,-7.95 20.57143,-20.7071 v -30.7215 c 7.54887,7.2374 12.74185,14.3406 12.85714,20.5714 0.0476,2.5714 -0.2594,5.0602 -1.28571,6.4286 5.14286,-1.2857 9,-5.1426 9,-13.269 0,-8.1264 -14.14286,-24.0167 -25.71429,-34.3024 z"
         id="path2017"
         inkscape:connector-curvature="0"
         sodipodi:nodetypes="ccsssscscsc" /><path
         sodipodi:nodetypes="ccsssscscsc"
         inkscape:connector-curvature="0"
         id="path2019"
         d="m -567.50154,1181.3292 v 45.5851 c -2.11942,-3.0124 -6.00038,-4.4423 -10.28571,-4.4423 -9.94113,0 -20.57143,8.1933 -20.57143,16.7143 0,8.521 5.48745,14.1429 15.42857,14.1429 9.94113,0 20.57143,-7.95 20.57143,-20.7071 v -30.7215 c 7.54887,7.2374 12.74185,14.3406 12.85714,20.5714 0.0476,2.5714 -0.2594,5.0602 -1.28571,6.4286 5.14286,-1.2857 9,-5.1426 9,-13.269 0,-8.1264 -14.14286,-24.0167 -25.71429,-34.3024 z"
         style="display:inline;opacity:1;vector-effect:none;fill:#ffffff;fill-opacity:1;fill-rule:nonzero;stroke:#b9a400;stroke-width:8;stroke-linecap:butt;stroke-linejoin:round;stroke-miterlimit:4;stroke-dasharray:none;stroke-dashoffset:0;stroke-opacity:1;paint-order:stroke fill markers" /></g></g></svg>
