<?xml version="1.0" encoding="UTF-8" standalone="no"?>
<!-- Created with Inkscape (http://www.inkscape.org/) -->

<svg
   width="91.405457"
   height="70.996101"
   viewBox="0 0 91.405457 70.996101"
   version="1.1"
   id="svg8"
   inkscape:version="1.3 (0e150ed6c4, 2023-07-21)"
   sodipodi:docname="dollphone feature graphic.svg"
   inkscape:export-filename="dollphone feature graphic.png"
   inkscape:export-xdpi="96"
   inkscape:export-ydpi="96"
   xml:space="preserve"
   xmlns:inkscape="http://www.inkscape.org/namespaces/inkscape"
   xmlns:sodipodi="http://sodipodi.sourceforge.net/DTD/sodipodi-0.dtd"
   xmlns="http://www.w3.org/2000/svg"
   xmlns:svg="http://www.w3.org/2000/svg"
   xmlns:rdf="http://www.w3.org/1999/02/22-rdf-syntax-ns#"
   xmlns:cc="http://creativecommons.org/ns#"
   xmlns:dc="http://purl.org/dc/elements/1.1/"><defs
     id="defs2"><clipPath
       clipPathUnits="userSpaceOnUse"
       id="clipPath14567"><path
         style="opacity:1;vector-effect:none;fill:#8f8f8f;fill-opacity:1;fill-rule:nonzero;stroke:none;stroke-width:2;stroke-linecap:round;stroke-linejoin:round;stroke-miterlimit:4;stroke-dasharray:4, 4;stroke-dashoffset:0;stroke-opacity:1;paint-order:fill markers stroke"
         d="m 26.957031,50.752747 c -0.496923,5.561146 -0.61423,14.657106 -0.382182,21.311706 11.144351,-0.4259 23.175824,-0.478943 34.32831,-0.478943 l -0.09676,-21.995911 c -12.000065,0.120026 -24.718174,0.561565 -33.849368,1.163148 z"
         id="path14569"
         inkscape:connector-curvature="0"
         sodipodi:nodetypes="ccccc" /></clipPath></defs><sodipodi:namedview
     id="base"
     pagecolor="#ffffff"
     bordercolor="#666666"
     borderopacity="1.0"
     inkscape:pageopacity="0.0"
     inkscape:pageshadow="2"
     inkscape:zoom="0.85837285"
     inkscape:cx="654.72714"
     inkscape:cy="318.04361"
     inkscape:document-units="px"
     inkscape:current-layer="layer6"
     showgrid="true"
     units="px"
     inkscape:pagecheckerboard="true"
     borderlayer="true"
     gridtolerance="10"
     inkscape:snap-smooth-nodes="true"
     inkscape:snap-text-baseline="true"
     inkscape:snap-page="true"
     showguides="false"
     inkscape:guide-bbox="true"
     inkscape:snap-global="false"
     inkscape:showpageshadow="0"
     inkscape:deskcolor="#d1d1d1"
     inkscape:window-width="1858"
     inkscape:window-height="1057"
     inkscape:window-x="54"
     inkscape:window-y="-8"
     inkscape:window-maximized="1"><inkscape:grid
       type="xygrid"
       id="grid4131"
       empspacing="4"
       originx="-731.28992"
       originy="-91.7342"
       spacingy="1"
       spacingx="1"
       units="px"
       visible="true" /></sodipodi:namedview><metadata
     id="metadata5"><rdf:RDF><cc:Work
         rdf:about=""><dc:format>image/svg+xml</dc:format><dc:type
           rdf:resource="http://purl.org/dc/dcmitype/StillImage" /></cc:Work></rdf:RDF></metadata><g
     inkscape:groupmode="layer"
     id="layer6"
     inkscape:label="icons"
     transform="translate(-731.28992,-91.7342)"><g
       transform="translate(1347.5738,-1096.1567)"
       id="g2069"><path
         style="display:inline;opacity:0.5;vector-effect:none;fill:#4c4c4c;fill-opacity:1;fill-rule:nonzero;stroke:#4c4c4c;stroke-width:4;stroke-linecap:round;stroke-linejoin:round;stroke-miterlimit:4;stroke-dasharray:none;stroke-dashoffset:0;stroke-opacity:1;paint-order:fill markers stroke"
         d="m -572.50166,1193.8909 c -16.44279,0 -32.88357,0.6383 -37.87109,1.9122 -1.2739,4.9875 -1.91211,21.4283 -1.91211,37.871 0,12.5494 1.67663,19.9616 6.64648,21.3028 4.96985,1.3412 21.42831,1.9101 37.87109,1.9101 16.44279,0 32.83262,-0.8557 37.8711,-1.9101 -0.96502,-0.1275 -1.59818,-0.7699 -2.01758,-2.0801 l 2.01758,2.0801 c 2.34073,-0.7936 3.92411,-2.9535 2.4375,-54.75 -2.07644,-0.623 -8.41194,-1.1133 -16.16406,-1.4356 -3.48986,-2.6483 -6.96199,-4.541 -9,-4.541 -6.36389,-0.2114 -13.34542,-0.3594 -19.87891,-0.3594 z"
         id="path14579"
         inkscape:connector-curvature="0" /><path
         style="display:inline;opacity:1;vector-effect:none;fill:#8f8f8f;fill-opacity:1;fill-rule:nonzero;stroke:#4c4c4c;stroke-width:4;stroke-linecap:round;stroke-linejoin:round;stroke-miterlimit:4;stroke-dasharray:none;stroke-dashoffset:0;stroke-opacity:1;paint-order:fill markers stroke"
         d="m -531.89619,1250.9762 c 2.34073,-0.7937 3.9239,-2.9521 2.43729,-54.7486 -5.80567,-1.7417 -44.31662,-2.5158 -56.70205,-1.1611"
         id="path4329"
         inkscape:connector-curvature="0"
         sodipodi:nodetypes="ccc" /><path
         style="display:inline;opacity:1;vector-effect:none;fill:#e2e2e2;fill-opacity:1;fill-rule:nonzero;stroke:none;stroke-width:4;stroke-linecap:round;stroke-linejoin:round;stroke-miterlimit:4;stroke-dasharray:none;stroke-dashoffset:0;stroke-opacity:1;paint-order:fill markers stroke"
         d="m -574.5012,1189.8909 c -16.44279,0 -32.8836,0.6377 -37.87112,1.9116 -1.27389,4.9876 -1.91158,21.4284 -1.91158,37.8711 0,12.5494 1.67562,19.9614 6.64547,21.3026 4.96986,1.3411 21.42833,1.9115 37.87112,1.9115 16.44279,0 32.83264,-0.8571 37.87112,-1.9115 -3.02296,-0.3994 -2.8223,-5.7759 -2.8223,-21.3026 0,-8.0648 0.0423,-14.8913 0.19037,-21.0037 0,-5.8519 -14.82958,-18.4187 -20.09372,-18.4187 -6.36387,-0.2114 -13.34587,-0.3603 -19.87936,-0.3603 z"
         id="path4317"
         inkscape:connector-curvature="0"
         sodipodi:nodetypes="scssscsccs" /><path
         d="m -570.27017,1241.5536 a 7.6288838,7.6288838 0 0 1 -0.0257,-10.763 l 5.42017,5.3686 z"
         sodipodi:end="3.9222088"
         sodipodi:start="2.3561945"
         sodipodi:ry="7.6288838"
         sodipodi:rx="7.6288838"
         sodipodi:cy="1236.1592"
         sodipodi:cx="-564.87573"
         sodipodi:type="arc"
         style="display:inline;opacity:1;vector-effect:none;fill:#c2c2c2;fill-opacity:1;fill-rule:nonzero;stroke:none;stroke-width:1;stroke-linecap:round;stroke-linejoin:round;stroke-miterlimit:4;stroke-dasharray:none;stroke-dashoffset:0;stroke-opacity:1;paint-order:fill markers stroke"
         id="path14554"
         sodipodi:arc-type="slice" /><path
         style="display:inline;opacity:1;vector-effect:none;fill:none;fill-opacity:1;fill-rule:nonzero;stroke:#747474;stroke-width:2;stroke-linecap:round;stroke-linejoin:round;stroke-miterlimit:4;stroke-dasharray:none;stroke-dashoffset:0;stroke-opacity:1;paint-order:fill markers stroke"
         d="m -609.57715,1204.5655 c 12.17182,-1.2227 57.15504,-1.9772 72.2806,0"
         id="path4379"
         inkscape:connector-curvature="0"
         sodipodi:nodetypes="cc" /><g
         transform="translate(-635.89619,1157.5062)"
         aria-label="DAILY DOLLY DEALY"
         style="font-style:normal;font-variant:normal;font-weight:bold;font-stretch:normal;font-size:8px;line-height:1.4;font-family:Mikado;-inkscape-font-specification:'Mikado Bold';font-variant-ligatures:normal;font-variant-position:normal;font-variant-caps:normal;font-variant-numeric:normal;font-variant-alternates:normal;font-feature-settings:normal;text-indent:0;text-align:center;text-decoration:none;text-decoration-line:none;text-decoration-style:solid;text-decoration-color:#000000;letter-spacing:-0.17px;word-spacing:normal;text-transform:none;writing-mode:lr-tb;direction:ltr;text-orientation:mixed;dominant-baseline:auto;baseline-shift:baseline;text-anchor:middle;white-space:normal;shape-padding:0;display:inline;opacity:1;vector-effect:none;fill:#747474;fill-opacity:1;fill-rule:nonzero;stroke:none;stroke-width:4;stroke-linecap:round;stroke-linejoin:round;stroke-miterlimit:4;stroke-dasharray:none;stroke-dashoffset:0;stroke-opacity:1;paint-order:fill markers stroke"
         id="text4341"><path
           d="m 25.985065,40.829854 c 0.01563,-1.588542 0.03906,-2.527344 0.07031,-2.816407 0.174479,-0.04427 0.757813,-0.06641 1.75,-0.06641 0.458333,0 0.877604,0.07162 1.257813,0.214844 0.380208,0.143229 0.697916,0.341146 0.953125,0.59375 0.255208,0.252604 0.453125,0.553385 0.59375,0.902344 0.140625,0.346354 0.210937,0.722656 0.210937,1.128906 0,0.427083 -0.0599,0.813802 -0.179687,1.160156 -0.117187,0.34375 -0.296875,0.645833 -0.539063,0.90625 -0.242187,0.260417 -0.563802,0.46224 -0.964843,0.605469 -0.401042,0.140625 -0.86849,0.210937 -1.402344,0.210937 -0.338542,0 -0.691407,-0.01172 -1.058594,-0.03516 -0.364583,-0.02344 -0.591146,-0.04948 -0.679687,-0.07813 -0.01302,-0.135417 -0.01953,-0.510417 -0.01953,-1.125 0,-0.419271 0.0026,-0.953125 0.0078,-1.601562 z m 1.378906,1.503906 c 0.127604,0.02083 0.298177,0.03125 0.511719,0.03125 0.976563,0 1.464844,-0.501302 1.464844,-1.503906 0,-0.471355 -0.143229,-0.852865 -0.429688,-1.144532 -0.286458,-0.294271 -0.649739,-0.441406 -1.089844,-0.441406 -0.140625,0 -0.28125,0.0052 -0.421875,0.01563 v 0.132813 c 0,0.486979 -0.01172,1.457031 -0.03516,2.910156 z"
           id="path4343"
           style="fill:#747474;fill-opacity:1"
           inkscape:connector-curvature="0"
           sodipodi:nodetypes="ccssccscccsccsccsscscsc" /><path
           d="m 30.931357,43.211446 c 0.08594,-0.322917 0.394531,-1.316407 0.925781,-2.980469 0.53125,-1.664063 0.813803,-2.506511 0.847657,-2.527344 0.03906,-0.02344 0.329427,-0.04297 0.871093,-0.05859 0.25,-0.0078 0.453125,-0.01172 0.609375,-0.01172 0.182292,0 0.29948,0.0052 0.351563,0.01563 0.01042,0.0026 0.157552,0.402343 0.441406,1.199218 0.283854,0.794271 0.579427,1.653646 0.886719,2.578125 0.309896,0.924479 0.489584,1.522135 0.539062,1.792969 -0.04948,0.03125 -0.195312,0.0599 -0.4375,0.08594 -0.244791,0.02083 -0.476562,0.03646 -0.695312,0.04687 -0.140625,0.0052 -0.238281,0.0091 -0.292969,0.01172 -0.03125,0 -0.04948,-0.0013 -0.05469,-0.0039 -0.08594,-0.200521 -0.227865,-0.600261 -0.425782,-1.199219 h -1.703125 c -0.01562,0.05208 -0.05599,0.1875 -0.121093,0.40625 -0.0651,0.216146 -0.121094,0.394531 -0.167969,0.535157 -0.04427,0.140624 -0.07292,0.221353 -0.08594,0.242187 -0.0078,0.0052 -0.03906,0.0078 -0.09375,0.0078 -0.109374,0 -0.320312,-0.01302 -0.632812,-0.03906 -0.463542,-0.03646 -0.717448,-0.07031 -0.761719,-0.101562 z m 2.078125,-2.144532 c 0.364584,-0.01042 0.807292,-0.01563 1.328125,-0.01563 -0.174479,-0.484375 -0.388021,-1.183594 -0.640625,-2.097656 -0.0052,0 -0.01302,0.0013 -0.02344,0.0039 -0.01042,0.0026 -0.01823,0.0039 -0.02344,0.0039 -0.283854,0.997395 -0.497395,1.699218 -0.640625,2.105468 z"
           id="path4345"
           inkscape:connector-curvature="0"
           sodipodi:nodetypes="csccscccccccccccccscccccccc"
           style="fill:#747474;fill-opacity:1" /><path
           d="M 36.758346,40.412455 V 40.05308 c 0,-1.270834 0.01302,-2.106771 0.03906,-2.507813 0.125,-0.04167 0.367188,-0.0625 0.726563,-0.0625 h 0.06641 c 0.395833,0.0026 0.606771,0.01823 0.632813,0.04687 0.02604,0.161458 0.03906,0.990886 0.03906,2.488282 v 0.226562 c 0,1.640625 -0.01563,2.591146 -0.04687,2.851563 -0.02083,0.05989 -0.230469,0.08984 -0.628906,0.08984 h -0.09766 c -0.460938,-0.0052 -0.694011,-0.02474 -0.699219,-0.05859 -0.01823,-0.335938 -0.02865,-1.240886 -0.03125,-2.714844 z"
           id="path4347"
           inkscape:connector-curvature="0"
           sodipodi:nodetypes="cscsccsscsccc"
           style="fill:#747474;fill-opacity:1" /><path
           d="m 39.11569,40.077412 c 0.0078,-1.635417 0.02474,-2.523438 0.05078,-2.664063 0.02083,-0.02344 0.257812,-0.04167 0.710937,-0.05469 0.161459,-0.0052 0.294271,-0.0078 0.398438,-0.0078 0.190104,0 0.28776,0.0078 0.292969,0.02344 0.0026,0.0625 0.0039,0.246094 0.0039,0.550781 0.0026,0.356771 0.0013,0.876302 -0.0039,1.558594 -0.01042,1.270833 -0.02083,2.029948 -0.03125,2.277343 0.390625,-0.01302 0.815104,-0.02083 1.273437,-0.02344 h 0.21875 c 0.341146,0 0.579427,0.0052 0.714844,0.01563 0.02865,0.127604 0.04557,0.35026 0.05078,0.667969 0.0026,0.07552 0.0039,0.144531 0.0039,0.207031 0,0.197917 -0.0078,0.321615 -0.02344,0.371094 0,0.02083 -0.507813,0.03125 -1.523438,0.03125 H 41.05319 c -1.145833,0 -1.785156,-0.01302 -1.917969,-0.03906 -0.01563,-0.221354 -0.02344,-0.795573 -0.02344,-1.722656 0,-0.348959 0.0013,-0.746094 0.0039,-1.191406 z"
           id="path4349"
           inkscape:connector-curvature="0"
           sodipodi:nodetypes="cccscccccsccscsscsc"
           style="fill:#747474;fill-opacity:1" /><path
           d="m 42.627168,37.193379 c 0.351562,-0.106771 0.570312,-0.160157 0.65625,-0.160157 0.01302,0 0.02344,0.0013 0.03125,0.0039 0.01302,0.0078 0.09115,0.144531 0.234375,0.410156 0.143229,0.265625 0.303385,0.574218 0.480468,0.925781 0.179688,0.351563 0.312501,0.626302 0.398438,0.824219 h 0.04687 c 0.04687,-0.08594 0.128906,-0.238281 0.246094,-0.457031 0.119791,-0.221355 0.22526,-0.415365 0.316406,-0.582032 0.09115,-0.169271 0.1875,-0.346354 0.289062,-0.53125 0.101563,-0.184895 0.182292,-0.328124 0.242188,-0.429687 0.0625,-0.104167 0.09896,-0.157552 0.109375,-0.160156 h 0.0078 c 0.07031,0 0.294271,0.05469 0.671875,0.164062 0.395833,0.117187 0.595052,0.197917 0.597657,0.242188 0,0.02083 -0.05339,0.126302 -0.160157,0.316406 -0.104167,0.1875 -0.243489,0.43099 -0.417968,0.730469 -0.171875,0.296875 -0.333334,0.571614 -0.484375,0.824218 -0.148438,0.252605 -0.30599,0.519532 -0.472657,0.800782 -0.164062,0.278645 -0.252604,0.428385 -0.265625,0.449218 0.0026,0.351563 0.0039,0.660157 0.0039,0.925782 0,0.669271 -0.0091,1.075521 -0.02734,1.21875 -0.01302,0.04427 -0.139323,0.07031 -0.378906,0.07813 -0.08073,0.0052 -0.161459,0.0078 -0.242188,0.0078 -0.158854,0 -0.316406,-0.0065 -0.472656,-0.01953 -0.234375,-0.01823 -0.351563,-0.03776 -0.351563,-0.05859 -0.0052,-0.07031 -0.0091,-0.161458 -0.01172,-0.273437 v -0.1875 -0.21875 c 0.0026,-0.161459 0.0052,-0.309896 0.0078,-0.445313 0.0026,-0.135417 0.0052,-0.311198 0.0078,-0.527344 0.0052,-0.216145 0.0091,-0.38802 0.01172,-0.515625 -0.01823,-0.03385 -0.10677,-0.190104 -0.265625,-0.46875 -0.15625,-0.278645 -0.304687,-0.54427 -0.445312,-0.796875 -0.140625,-0.252604 -0.291667,-0.523437 -0.453125,-0.8125 -0.158854,-0.291667 -0.286458,-0.529948 -0.382813,-0.714843 -0.09375,-0.179688 -0.140625,-0.281251 -0.140625,-0.304688 0,-0.04687 0.204427,-0.132812 0.613282,-0.257812 z"
           id="path4351"
           inkscape:connector-curvature="0"
           sodipodi:nodetypes="cscsccccccccscccccccsccscccccsccccccsc"
           style="fill:#747474;fill-opacity:1" /><path
           d="m 48.668189,39.862242 c 0.01563,-1.588542 0.03906,-2.527344 0.07031,-2.816407 0.174479,-0.04427 0.757813,-0.06641 1.75,-0.06641 0.458333,0 0.877604,0.07161 1.257812,0.214844 0.380209,0.14323 0.697917,0.341146 0.953125,0.59375 0.255209,0.252604 0.453125,0.553386 0.59375,0.902344 0.140625,0.346354 0.210938,0.722656 0.210938,1.128906 0,0.427084 -0.0599,0.813802 -0.179688,1.160156 -0.117187,0.34375 -0.296875,0.645834 -0.539062,0.90625 -0.242187,0.260417 -0.563802,0.46224 -0.964844,0.605469 -0.401041,0.140625 -0.868489,0.210937 -1.402344,0.210937 -0.338541,0 -0.691406,-0.01172 -1.058593,-0.03516 -0.364583,-0.02344 -0.591146,-0.04948 -0.679688,-0.07813 -0.01302,-0.135416 -0.01953,-0.510416 -0.01953,-1.125 0,-0.41927 0.0026,-0.953124 0.0078,-1.601562 z m 1.378907,1.503906 c 0.127604,0.02083 0.298177,0.03125 0.511718,0.03125 0.976563,0 1.464844,-0.501302 1.464844,-1.503906 0,-0.471354 -0.143229,-0.852865 -0.429687,-1.144532 -0.286459,-0.29427 -0.64974,-0.441406 -1.089844,-0.441406 -0.140625,0 -0.28125,0.0052 -0.421875,0.01563 v 0.132813 c 0,0.486979 -0.01172,1.457031 -0.03516,2.910156 z"
           id="path4353"
           inkscape:connector-curvature="0"
           sodipodi:nodetypes="ccssccscscsccsccsscscsc"
           style="fill:#747474;fill-opacity:1" /><path
           d="m 53.934794,39.675637 c 0,-0.29427 0.03516,-0.579427 0.105469,-0.855469 0.07292,-0.276041 0.184896,-0.535156 0.335937,-0.777344 0.151042,-0.244791 0.332032,-0.458333 0.542969,-0.640625 0.213542,-0.182291 0.471355,-0.32552 0.773438,-0.429687 0.302083,-0.10677 0.63151,-0.160156 0.988281,-0.160156 0.846354,0 1.520833,0.268229 2.023437,0.804687 0.502605,0.533854 0.753907,1.263021 0.753907,2.1875 0,0.289063 -0.03385,0.570313 -0.101563,0.84375 -0.06771,0.270834 -0.174479,0.529948 -0.320312,0.777344 -0.145833,0.244792 -0.324219,0.459635 -0.535157,0.644531 -0.210937,0.182292 -0.471354,0.328126 -0.78125,0.4375 -0.307291,0.106771 -0.645833,0.160156 -1.015625,0.160156 -0.559895,0 -1.050781,-0.125 -1.472656,-0.375 -0.419271,-0.25 -0.740885,-0.60026 -0.964844,-1.050781 -0.221354,-0.453124 -0.332031,-0.97526 -0.332031,-1.566406 z m 1.480469,0.07813 c 0,0.458334 0.114583,0.839844 0.34375,1.144531 0.231771,0.304688 0.536458,0.457031 0.914062,0.457031 0.416667,0 0.729167,-0.147135 0.9375,-0.441406 0.210938,-0.29427 0.316407,-0.699218 0.316407,-1.214844 0,-0.518228 -0.111979,-0.911457 -0.335938,-1.179687 -0.221354,-0.268229 -0.516927,-0.402344 -0.886719,-0.402344 -0.40625,0 -0.722656,0.147136 -0.949218,0.441406 -0.226563,0.294272 -0.339844,0.692709 -0.339844,1.195313 z"
           id="path4356"
           inkscape:connector-curvature="0"
           sodipodi:nodetypes="sccccscsccccsccsscscscsss"
           style="fill:#747474;fill-opacity:1" /><path
           d="m 60.065575,39.593606 c 0.0078,-1.635416 0.02474,-2.523437 0.05078,-2.664063 0.02083,-0.02344 0.257812,-0.04167 0.710937,-0.05469 0.161459,-0.0052 0.294271,-0.0078 0.398438,-0.0078 0.190104,0 0.28776,0.0078 0.292968,0.02344 0.0026,0.0625 0.0039,0.246094 0.0039,0.550781 0.0026,0.356771 0.0013,0.876302 -0.0039,1.558594 -0.01042,1.270834 -0.02083,2.029948 -0.03125,2.277343 0.390625,-0.01302 0.815105,-0.02083 1.273438,-0.02344 h 0.21875 c 0.341146,0 0.579427,0.0052 0.714844,0.01563 0.02864,0.127604 0.04557,0.350261 0.05078,0.667969 0.0026,0.07552 0.0039,0.144531 0.0039,0.207031 0,0.197917 -0.0078,0.321615 -0.02344,0.371094 0,0.02083 -0.507813,0.03125 -1.523438,0.03125 h -0.199219 c -1.145833,0 -1.785156,-0.01302 -1.917968,-0.03906 -0.01563,-0.221354 -0.02344,-0.795572 -0.02344,-1.722656 0,-0.348958 0.0013,-0.746094 0.0039,-1.191406 z"
           id="path4358"
           inkscape:connector-curvature="0"
           sodipodi:nodetypes="cccscccccsccscsscsc"
           style="fill:#747474;fill-opacity:1" /><path
           d="m 64.208077,39.593606 c 0.0078,-1.635416 0.02474,-2.523437 0.05078,-2.664063 0.02083,-0.02344 0.257813,-0.04167 0.710938,-0.05469 0.161458,-0.0052 0.29427,-0.0078 0.398437,-0.0078 0.190105,0 0.287761,0.0078 0.292969,0.02344 0.0026,0.0625 0.0039,0.246094 0.0039,0.550781 0.0026,0.356771 0.0013,0.876302 -0.0039,1.558594 -0.01042,1.270834 -0.02083,2.029948 -0.03125,2.277343 0.390625,-0.01302 0.815105,-0.02083 1.273438,-0.02344 h 0.21875 c 0.341145,0 0.579426,0.0052 0.714843,0.01563 0.02865,0.127604 0.04557,0.350261 0.05078,0.667969 0.0026,0.07552 0.0039,0.144531 0.0039,0.207031 0,0.197917 -0.0078,0.321615 -0.02344,0.371094 0,0.02083 -0.507812,0.03125 -1.523437,0.03125 h -0.199219 c -1.145833,0 -1.785156,-0.01302 -1.917969,-0.03906 -0.01563,-0.221354 -0.02344,-0.795572 -0.02344,-1.722656 0,-0.348958 0.0013,-0.746094 0.0039,-1.191406 z"
           id="path4361"
           inkscape:connector-curvature="0"
           sodipodi:nodetypes="cccscccccsccscsscsc"
           style="fill:#747474;fill-opacity:1" /><path
           d="m 67.816314,37.096617 c 0.351563,-0.106771 0.570313,-0.160157 0.65625,-0.160157 0.01302,0 0.02344,0.0013 0.03125,0.0039 0.01302,0.0078 0.09115,0.144531 0.234375,0.410156 0.143229,0.265625 0.303386,0.574219 0.480469,0.925781 0.179687,0.351563 0.3125,0.626303 0.398437,0.824219 h 0.04687 c 0.04687,-0.08594 0.128907,-0.238281 0.246094,-0.457031 0.119792,-0.221354 0.225261,-0.415365 0.316406,-0.582032 0.09115,-0.16927 0.1875,-0.346354 0.289063,-0.53125 0.101563,-0.184895 0.182292,-0.328124 0.242187,-0.429687 0.0625,-0.104166 0.09896,-0.157552 0.109375,-0.160156 h 0.0078 c 0.07031,0 0.294271,0.05469 0.671875,0.164062 0.395833,0.117188 0.595052,0.197917 0.597656,0.242188 0,0.02083 -0.05339,0.126302 -0.160156,0.316406 -0.104167,0.1875 -0.24349,0.43099 -0.417969,0.730469 -0.171875,0.296875 -0.333333,0.571614 -0.484375,0.824218 -0.148437,0.252605 -0.305989,0.519532 -0.472656,0.800782 -0.164063,0.278646 -0.252604,0.428385 -0.265625,0.449218 0.0026,0.351563 0.0039,0.660157 0.0039,0.925782 0,0.669271 -0.0091,1.075521 -0.02734,1.21875 -0.01302,0.04427 -0.139323,0.07031 -0.378906,0.07813 -0.08073,0.0052 -0.161458,0.0078 -0.242187,0.0078 -0.158855,0 -0.316407,-0.0065 -0.472657,-0.01953 -0.234375,-0.01823 -0.351562,-0.03776 -0.351562,-0.05859 -0.0052,-0.07031 -0.0091,-0.161458 -0.01172,-0.273437 v -0.1875 -0.21875 c 0.0026,-0.161458 0.0052,-0.309896 0.0078,-0.445313 0.0026,-0.135416 0.0052,-0.311198 0.0078,-0.527344 0.0052,-0.216145 0.0091,-0.38802 0.01172,-0.515625 -0.01823,-0.03385 -0.106771,-0.190104 -0.265625,-0.46875 -0.15625,-0.278645 -0.304688,-0.54427 -0.445313,-0.796875 -0.140625,-0.252604 -0.291666,-0.523437 -0.453125,-0.8125 -0.158854,-0.291666 -0.286458,-0.529947 -0.382812,-0.714843 -0.09375,-0.179688 -0.140625,-0.28125 -0.140625,-0.304688 0,-0.04687 0.204427,-0.132812 0.613281,-0.257812 z"
           id="path4363"
           inkscape:connector-curvature="0"
           sodipodi:nodetypes="csccccccccccscccccccsccscccccccccsccsc"
           style="fill:#747474;fill-opacity:1" /><path
           d="m 73.663814,40.055764 c 0.01563,-1.588542 0.03906,-2.527344 0.07031,-2.816407 0.174479,-0.04427 0.757813,-0.06641 1.75,-0.06641 0.458333,0 0.877604,0.07162 1.257813,0.214844 0.380208,0.14323 0.697916,0.341146 0.953125,0.59375 0.255208,0.252604 0.453125,0.553386 0.59375,0.902344 0.140625,0.346354 0.210937,0.722656 0.210937,1.128906 0,0.427084 -0.0599,0.813802 -0.179687,1.160156 -0.117187,0.34375 -0.296875,0.645834 -0.539063,0.90625 -0.242187,0.260417 -0.563802,0.46224 -0.964843,0.605469 -0.401042,0.140625 -0.86849,0.210937 -1.402344,0.210937 -0.338542,0 -0.691407,-0.01172 -1.058594,-0.03516 -0.364583,-0.02344 -0.591146,-0.04948 -0.679687,-0.07813 -0.01302,-0.135416 -0.01953,-0.510416 -0.01953,-1.125 0,-0.41927 0.0026,-0.953124 0.0078,-1.601562 z m 1.378906,1.503906 c 0.127604,0.02083 0.298177,0.03125 0.511719,0.03125 0.976563,0 1.464844,-0.501302 1.464844,-1.503906 0,-0.471354 -0.143229,-0.852865 -0.429688,-1.144532 -0.286458,-0.29427 -0.649739,-0.441406 -1.089844,-0.441406 -0.140625,0 -0.28125,0.0052 -0.421875,0.01563 v 0.132813 c 0,0.486979 -0.01172,1.457031 -0.03516,2.910156 z"
           id="path4365"
           inkscape:connector-curvature="0"
           sodipodi:nodetypes="ccssccscccsccsccsscscsc"
           style="fill:#747474;fill-opacity:1" /><path
           d="m 79.099285,40.285337 c 0.01302,-1.421874 0.03125,-2.411458 0.05469,-2.96875 0.367187,-0.02604 1.082031,-0.04167 2.144531,-0.04687 0.252605,-0.0026 0.476563,-0.0026 0.671875,0 0.625,0 0.953125,0.0078 0.984375,0.02344 0.02604,0.06771 0.04037,0.255208 0.04297,0.5625 v 0.101562 c 0,0.255209 -0.0091,0.440105 -0.02734,0.554688 -0.114583,0.01563 -0.473958,0.02344 -1.078125,0.02344 h -0.195312 c -0.510417,0 -0.91276,-0.0052 -1.207031,-0.01563 l 0.01953,0.976563 c 0.143229,-0.0026 0.286458,-0.0039 0.429687,-0.0039 0.255209,0.0026 0.515625,0.0065 0.78125,0.01172 0.416667,0.01042 0.634115,0.02344 0.652344,0.03906 0.01302,0.01042 0.02344,0.04687 0.03125,0.109375 0.0078,0.05729 0.01172,0.127604 0.01172,0.210937 v 0.132813 0.140625 c 0,0.09896 -0.0026,0.1875 -0.0078,0.265625 -0.0026,0.07552 -0.0052,0.143229 -0.0078,0.203125 -0.0026,0.05729 -0.0039,0.08724 -0.0039,0.08984 -0.0026,0.01823 -0.222657,0.02865 -0.660157,0.03125 H 81.52116 c -0.356771,0 -0.694011,-0.0052 -1.011719,-0.01563 0,0.401042 -0.0039,0.742188 -0.01172,1.023438 0.377604,-0.0078 0.833333,-0.01302 1.367188,-0.01563 h 0.363281 c 0.325521,0 0.536458,0.0026 0.632812,0.0078 0.02865,0.135417 0.04297,0.338542 0.04297,0.609375 -0.0026,0.01302 -0.0039,0.02604 -0.0039,0.03906 0,0.291667 -0.01042,0.475261 -0.03125,0.550781 0.02083,0.01563 -0.236979,0.02604 -0.773438,0.03125 -0.268229,0.0026 -0.546874,0.0039 -0.835937,0.0039 -0.291667,0.0026 -0.595052,0.0013 -0.910156,-0.0039 -0.630209,-0.0052 -1.044271,-0.01823 -1.242188,-0.03906 -0.01042,-0.195312 -0.01563,-0.575521 -0.01563,-1.140625 0,-0.403646 0.0026,-0.901042 0.0078,-1.492188 z"
           id="path4368"
           inkscape:connector-curvature="0"
           sodipodi:nodetypes="ccccccscssccccccscsccccscccsccscscccsc"
           style="fill:#747474;fill-opacity:1" /><path
           d="m 83.283856,43.017925 q 0.128906,-0.484375 0.925781,-2.980469 0.796875,-2.496094 0.847657,-2.527344 0.05859,-0.03516 0.871093,-0.05859 0.375,-0.01172 0.609375,-0.01172 0.273438,0 0.351563,0.01563 0.01563,0.0039 0.441406,1.199218 0.425781,1.191407 0.886719,2.578125 0.464844,1.386719 0.539062,1.792969 -0.07422,0.04687 -0.4375,0.08594 -0.367187,0.03125 -0.695312,0.04687 -0.210938,0.0078 -0.292969,0.01172 -0.04687,0 -0.05469,-0.0039 -0.128907,-0.300781 -0.425782,-1.199219 h -1.703125 q -0.02344,0.07813 -0.121093,0.40625 -0.09766,0.324219 -0.167969,0.535157 -0.06641,0.210937 -0.08594,0.242187 -0.01172,0.0078 -0.09375,0.0078 -0.164062,0 -0.632812,-0.03906 -0.695313,-0.05469 -0.761719,-0.101562 z m 2.078125,-2.144532 q 0.546875,-0.01563 1.328125,-0.01563 -0.261719,-0.726562 -0.640625,-2.097656 -0.0078,0 -0.02344,0.0039 -0.01563,0.0039 -0.02344,0.0039 -0.425781,1.496093 -0.640625,2.105468 z"
           id="path4370"
           style="fill:#747474;fill-opacity:1"
           inkscape:connector-curvature="0" /><path
           d="m 89.106941,40.464458 q 0.01172,-2.453125 0.05078,-2.664063 0.03125,-0.03516 0.710937,-0.05469 0.242188,-0.0078 0.398438,-0.0078 0.285156,0 0.292969,0.02344 0.0039,0.09375 0.0039,0.550781 0.0039,0.535156 -0.0039,1.558594 -0.01563,1.90625 -0.03125,2.277343 0.585937,-0.01953 1.273437,-0.02344 0.113281,0 0.21875,0 0.511719,0 0.714844,0.01563 0.04297,0.191406 0.05078,0.667969 0.0039,0.113281 0.0039,0.207031 0,0.296875 -0.02344,0.371094 0,0.03125 -1.523438,0.03125 -0.09766,0 -0.199218,0 -1.71875,0 -1.917969,-0.03906 -0.02344,-0.332031 -0.02344,-1.722656 0,-0.523438 0.0039,-1.191406 z"
           id="path4374"
           style="fill:#747474;fill-opacity:1"
           inkscape:connector-curvature="0" /></g><path
         style="display:inline;opacity:1;vector-effect:none;fill:#ffffff;fill-opacity:1;fill-rule:nonzero;stroke:none;stroke-width:4;stroke-linecap:round;stroke-linejoin:round;stroke-miterlimit:4;stroke-dasharray:none;stroke-dashoffset:0;stroke-opacity:1;paint-order:fill markers stroke"
         d="m -554.62184,1190.2512 c 3.40091,0.5881 2.87589,9.2663 2.68237,16.3298 6.19271,-1.0643 17.41135,-2.6604 17.41135,2.0889 0,-5.8519 -14.82958,-18.4187 -20.09372,-18.4187 z"
         id="path4335"
         inkscape:connector-curvature="0"
         sodipodi:nodetypes="cccc" /><path
         sodipodi:nodetypes="scssscsccs"
         inkscape:connector-curvature="0"
         id="path4333"
         d="m -574.5012,1189.8909 c -16.44279,0 -32.8836,0.6377 -37.87112,1.9116 -1.27389,4.9876 -1.91158,21.4284 -1.91158,37.8711 0,12.5494 1.67562,19.9614 6.64547,21.3026 4.96986,1.3411 21.42833,1.9115 37.87112,1.9115 16.44279,0 32.83264,-0.8571 37.87112,-1.9115 -3.02296,-0.3994 -2.8223,-5.7759 -2.8223,-21.3026 0,-8.0648 0.0423,-14.8913 0.19037,-21.0037 0,-5.8519 -14.82958,-18.4187 -20.09372,-18.4187 -6.36387,-0.2114 -13.34587,-0.3603 -19.87936,-0.3603 z"
         style="display:inline;opacity:1;vector-effect:none;fill:none;fill-opacity:1;fill-rule:nonzero;stroke:#4c4c4c;stroke-width:4;stroke-linecap:round;stroke-linejoin:round;stroke-miterlimit:4;stroke-dasharray:none;stroke-dashoffset:0;stroke-opacity:1;paint-order:fill markers stroke" /><path
         style="display:inline;opacity:1;vector-effect:none;fill:none;fill-opacity:1;fill-rule:nonzero;stroke:#747474;stroke-width:2;stroke-linecap:round;stroke-linejoin:round;stroke-miterlimit:4;stroke-dasharray:4, 4;stroke-dashoffset:0;stroke-opacity:1;paint-order:fill markers stroke"
         d="m -571.26314,1210.2222 c 2.79757,-2.4735 -0.0122,3.1571 1.15163,3.343 2.11259,0.3373 1.85467,-5.8155 3.87618,-5.1153 1.36718,0.4735 -1.16486,3.3824 -0.0801,4.3398 0.79647,0.703 2.44097,0.3328 3.15436,-0.4543 1.04332,-1.1511 -1.29596,-4.2699 0.20889,-4.6561 2.02246,-0.519 1.17814,5.5191 3.25921,5.3493 1.97259,-0.161 0.24949,-5.4089 2.22634,-5.5043 1.59265,-0.077 0.63097,4.4476 2.21208,4.2413 0.55995,-0.073 -0.14256,-1.4198 0.37184,-1.6527 1.01565,-0.46 1.82248,1.5657 2.93686,1.6008 0.78537,0.025 1.44201,-1.3631 2.13662,-0.9958 0.57221,0.3026 0.91128,1.67 0.31277,1.9165 -1.40902,0.5804 -2.94828,-2.2262 -2.65508,-3.7216 0.15011,-0.7655 1.20153,-1.3257 1.97806,-1.2508 2.51263,0.2421 3.02435,5.636 5.50981,5.1951 1.71686,-0.3046 3.53642,-3.411 2.33931,-4.6788 -0.95592,-1.0124 -4.25083,0.3214 -3.83702,1.6508 0.6453,2.0731 5.27289,0.2784 6.38739,-1.2763"
         id="path4381"
         inkscape:connector-curvature="0"
         sodipodi:nodetypes="caaaaaaaaaaaaaaaaac" /><path
         style="display:inline;opacity:1;vector-effect:none;fill:none;fill-opacity:1;fill-rule:nonzero;stroke:#4c4c4c;stroke-width:4;stroke-linecap:round;stroke-linejoin:round;stroke-miterlimit:4;stroke-dasharray:none;stroke-dashoffset:0;stroke-opacity:1;paint-order:fill markers stroke"
         d="m -554.62184,1190.2512 c 3.40091,0.5881 2.87589,9.2663 2.68237,16.3298 6.19271,-1.0643 17.41135,-2.6604 17.41135,2.0889"
         id="path4331"
         inkscape:connector-curvature="0"
         sodipodi:nodetypes="ccc" /><g
         transform="translate(-635.89619,1157.5062)"
         style="display:inline"
         inkscape:groupmode="maskhelper"
         id="g14564"
         clip-path="url(#clipPath14567)"><rect
           y="49.316444"
           x="25.110317"
           height="23.262964"
           width="36.810219"
           id="rect14562"
           style="opacity:1;vector-effect:none;fill:#c2c2c2;fill-opacity:1;fill-rule:nonzero;stroke:none;stroke-width:1;stroke-linecap:round;stroke-linejoin:round;stroke-miterlimit:4;stroke-dasharray:2, 4;stroke-dashoffset:0;stroke-opacity:1;paint-order:fill markers stroke" /><path
           style="opacity:1;vector-effect:none;fill:#8f8f8f;fill-opacity:1;fill-rule:nonzero;stroke:none;stroke-width:1;stroke-linecap:round;stroke-linejoin:round;stroke-miterlimit:4;stroke-dasharray:2, 4;stroke-dashoffset:0;stroke-opacity:1;paint-order:fill markers stroke"
           d="m 18.952474,75.453068 c 5.069321,-8.780321 17.515644,-21.757714 18.610372,-21.757714 1.094728,0 9.990335,9.847168 18.063008,18.473531"
           id="path14571"
           inkscape:connector-curvature="0"
           sodipodi:nodetypes="csc" /><path
           sodipodi:nodetypes="csc"
           inkscape:connector-curvature="0"
           id="path14573"
           d="m 28.952474,77.453068 c 5.069321,-8.780321 17.515644,-21.757714 18.610372,-21.757714 1.094728,0 9.990335,9.847168 18.063008,18.473531"
           style="opacity:1;vector-effect:none;fill:#8f8f8f;fill-opacity:1;fill-rule:nonzero;stroke:none;stroke-width:1;stroke-linecap:round;stroke-linejoin:round;stroke-miterlimit:4;stroke-dasharray:2, 4;stroke-dashoffset:0;stroke-opacity:1;paint-order:fill markers stroke" /><path
           style="opacity:1;vector-effect:none;fill:#8f8f8f;fill-opacity:1;fill-rule:nonzero;stroke:none;stroke-width:1;stroke-linecap:round;stroke-linejoin:round;stroke-miterlimit:4;stroke-dasharray:2, 4;stroke-dashoffset:0;stroke-opacity:1;paint-order:fill markers stroke"
           d="m 37.241974,75.863588 c 5.069321,-8.780321 17.515644,-21.757714 18.610372,-21.757714 1.094728,0 9.990335,9.847168 18.063008,18.473531"
           id="path14575"
           inkscape:connector-curvature="0"
           sodipodi:nodetypes="csc" /><path
           style="opacity:1;vector-effect:none;fill:#9d9d9d;fill-opacity:1;fill-rule:nonzero;stroke:none;stroke-width:1;stroke-linecap:round;stroke-linejoin:round;stroke-miterlimit:4;stroke-dasharray:2, 4;stroke-dashoffset:0;stroke-opacity:1;paint-order:fill markers stroke"
           d="m 26.136625,65.737359 c 5.131536,3.078922 24.415503,4.705208 31.952366,6.568367 7.536863,1.863159 -10.878857,7.457833 -32.636571,-4.515752"
           id="path14577"
           inkscape:connector-curvature="0" /></g><path
         style="display:inline;opacity:1;vector-effect:none;fill:none;fill-opacity:1;fill-rule:nonzero;stroke:#747474;stroke-width:1;stroke-linecap:round;stroke-linejoin:round;stroke-miterlimit:4;stroke-dasharray:4, 2, 1, 2;stroke-dashoffset:0;stroke-opacity:1;paint-order:fill markers stroke"
         d="m -572.55475,1216.5383 33.42194,-0.4789"
         id="path14524"
         inkscape:connector-curvature="0"
         sodipodi:nodetypes="cc" /><path
         style="display:inline;opacity:1;vector-effect:none;fill:none;fill-opacity:1;fill-rule:nonzero;stroke:#747474;stroke-width:1;stroke-linecap:round;stroke-linejoin:round;stroke-miterlimit:4;stroke-dasharray:8, 2, 1, 2;stroke-dashoffset:0;stroke-opacity:1;paint-order:fill markers stroke"
         d="m -539.13281,1218.4541 -33.42194,0.4447"
         id="path14526"
         inkscape:connector-curvature="0"
         sodipodi:nodetypes="cc" /><path
         style="display:inline;opacity:1;vector-effect:none;fill:none;fill-opacity:1;fill-rule:nonzero;stroke:#747474;stroke-width:1;stroke-linecap:round;stroke-linejoin:round;stroke-miterlimit:4;stroke-dasharray:2, 4;stroke-dashoffset:0;stroke-opacity:1;paint-order:fill markers stroke"
         d="m -572.55475,1221.2593 33.42194,-0.4105"
         id="path14528"
         inkscape:connector-curvature="0"
         sodipodi:nodetypes="cc" /><path
         style="display:inline;opacity:1;vector-effect:none;fill:none;fill-opacity:1;fill-rule:nonzero;stroke:#747474;stroke-width:1;stroke-linecap:round;stroke-linejoin:round;stroke-miterlimit:4;stroke-dasharray:2, 2;stroke-dashoffset:0;stroke-opacity:1;paint-order:fill markers stroke"
         d="m -572.55475,1223.6199 33.42194,-0.3764"
         id="path14530"
         inkscape:connector-curvature="0"
         sodipodi:nodetypes="cc" /><path
         style="display:inline;opacity:1;vector-effect:none;fill:none;fill-opacity:1;fill-rule:nonzero;stroke:#747474;stroke-width:1;stroke-linecap:round;stroke-linejoin:round;stroke-miterlimit:4;stroke-dasharray:4, 2;stroke-dashoffset:0;stroke-opacity:1;paint-order:fill markers stroke"
         d="m -572.55475,1225.9804 33.42194,-0.3421"
         id="path14532"
         inkscape:connector-curvature="0"
         sodipodi:nodetypes="cc" /><path
         sodipodi:nodetypes="cc"
         inkscape:connector-curvature="0"
         id="path14534"
         d="m -608.78026,1232.0594 33.42194,-0.3919"
         style="display:inline;opacity:1;vector-effect:none;fill:none;fill-opacity:1;fill-rule:nonzero;stroke:#747474;stroke-width:1;stroke-linecap:round;stroke-linejoin:round;stroke-miterlimit:4;stroke-dasharray:4, 2, 1, 2;stroke-dashoffset:0;stroke-opacity:1;paint-order:fill markers stroke" /><path
         sodipodi:nodetypes="cc"
         inkscape:connector-curvature="0"
         id="path14536"
         d="m -575.35832,1234.2457 -33.42194,0.2084"
         style="display:inline;opacity:1;vector-effect:none;fill:none;fill-opacity:1;fill-rule:nonzero;stroke:#747474;stroke-width:1;stroke-linecap:round;stroke-linejoin:round;stroke-miterlimit:4;stroke-dasharray:8, 2, 1, 2;stroke-dashoffset:0;stroke-opacity:1;paint-order:fill markers stroke" /><path
         sodipodi:nodetypes="cc"
         inkscape:connector-curvature="0"
         id="path14538"
         d="m -608.48997,1239.2435 33.13165,0.1586"
         style="display:inline;opacity:1;vector-effect:none;fill:none;fill-opacity:1;fill-rule:nonzero;stroke:#747474;stroke-width:1;stroke-linecap:round;stroke-linejoin:round;stroke-miterlimit:4;stroke-dasharray:2, 4;stroke-dashoffset:0;stroke-opacity:1;paint-order:fill markers stroke" /><path
         sodipodi:nodetypes="cc"
         inkscape:connector-curvature="0"
         id="path14540"
         d="m -575.35832,1236.8239 -33.42194,0.025"
         style="display:inline;opacity:1;vector-effect:none;fill:none;fill-opacity:1;fill-rule:nonzero;stroke:#747474;stroke-width:1;stroke-linecap:round;stroke-linejoin:round;stroke-miterlimit:4;stroke-dasharray:2, 2;stroke-dashoffset:0;stroke-opacity:1;paint-order:fill markers stroke" /><path
         sodipodi:nodetypes="cc"
         inkscape:connector-curvature="0"
         id="path14542"
         d="m -575.35832,1241.9804 -32.64785,-0.3421"
         style="display:inline;opacity:1;vector-effect:none;fill:none;fill-opacity:1;fill-rule:nonzero;stroke:#747474;stroke-width:1;stroke-linecap:round;stroke-linejoin:round;stroke-miterlimit:4;stroke-dasharray:4, 2;stroke-dashoffset:0;stroke-opacity:1;paint-order:fill markers stroke" /><path
         id="path14552"
         style="display:inline;opacity:1;vector-effect:none;fill:#9d9d9d;fill-opacity:1;fill-rule:nonzero;stroke:none;stroke-width:1;stroke-linecap:round;stroke-linejoin:round;stroke-miterlimit:4;stroke-dasharray:none;stroke-dashoffset:0;stroke-opacity:1;paint-order:fill markers stroke"
         sodipodi:type="arc"
         sodipodi:cx="-564.87573"
         sodipodi:cy="1236.1592"
         sodipodi:rx="7.6288838"
         sodipodi:ry="7.6288838"
         sodipodi:start="1.5707963"
         sodipodi:end="2.8569604"
         d="m -564.87573,1243.7881 a 7.6288838,7.6288838 0 0 1 -7.32194,-5.4867 l 7.32194,-2.1422 z"
         sodipodi:arc-type="slice" /><path
         d="m -557.24685,1236.1592 a 7.6288838,7.6288838 0 0 1 -4.70944,7.0481 7.6288838,7.6288838 0 0 1 -8.31388,-1.6537 l 5.39444,-5.3944 z"
         sodipodi:end="2.3561945"
         sodipodi:start="0"
         sodipodi:ry="7.6288838"
         sodipodi:rx="7.6288838"
         sodipodi:cy="1236.1592"
         sodipodi:cx="-564.87573"
         sodipodi:type="arc"
         style="display:inline;opacity:1;vector-effect:none;fill:#858585;fill-opacity:1;fill-rule:nonzero;stroke:none;stroke-width:1;stroke-linecap:round;stroke-linejoin:round;stroke-miterlimit:4;stroke-dasharray:none;stroke-dashoffset:0;stroke-opacity:1;paint-order:fill markers stroke"
         id="path14550"
         sodipodi:arc-type="slice" /><circle
         style="display:inline;opacity:1;vector-effect:none;fill:none;fill-opacity:1;fill-rule:nonzero;stroke:#747474;stroke-width:0.5;stroke-linecap:round;stroke-linejoin:round;stroke-miterlimit:4;stroke-dasharray:none;stroke-dashoffset:0;stroke-opacity:1;paint-order:fill markers stroke"
         id="path14544"
         cx="-564.87573"
         cy="1236.1592"
         r="7.6288838" /><path
         style="display:inline;opacity:1;vector-effect:none;fill:none;fill-opacity:1;fill-rule:nonzero;stroke:#747474;stroke-width:1.43853;stroke-linecap:round;stroke-linejoin:round;stroke-miterlimit:4;stroke-dasharray:2.87706, 1.43853, 0.719265, 1.43853;stroke-dashoffset:0;stroke-opacity:1;paint-order:fill markers stroke"
         d="m -556.32476,1230.2369 c 0,0 0.0962,1.5616 0.68898,1.6732 1.0034,0.1889 1.11728,-2.003 2.11614,-2.2146 0.59007,-0.125 1.18499,0.3348 1.67322,0.689 0.59337,0.4305 0.69416,1.6829 1.42716,1.6732 0.99138,-0.013 0.88905,-2.4565 1.87008,-2.3129 0.68422,0.1001 0.15606,1.6371 0.7874,1.9192 0.49264,0.2202 1.09528,-0.2157 1.52558,-0.5413 0.38474,-0.2911 0.35415,-1.1813 0.83662,-1.1811 0.8238,3e-4 0.62595,1.8261 1.42716,2.0177 0.64943,0.1554 1.27593,-0.4876 1.77165,-0.935 0.39517,-0.3567 0.35356,-1.3362 0.88582,-1.3288 0.80274,0.011 1.27953,2.0405 1.27953,2.0405"
         id="path14546"
         inkscape:connector-curvature="0"
         sodipodi:nodetypes="caaaaaaaaaaac" /><path
         id="circle14548"
         style="display:inline;opacity:1;vector-effect:none;fill:#747474;fill-opacity:1;fill-rule:nonzero;stroke:none;stroke-width:1;stroke-linecap:round;stroke-linejoin:round;stroke-miterlimit:4;stroke-dasharray:none;stroke-dashoffset:0;stroke-opacity:1;paint-order:fill markers stroke"
         sodipodi:type="arc"
         sodipodi:cx="-564.87573"
         sodipodi:cy="1236.1592"
         sodipodi:rx="7.6288838"
         sodipodi:ry="7.6288838"
         sodipodi:start="4.712389"
         sodipodi:end="1.0471976"
         d="m -564.87573,1228.5303 a 7.6288838,7.6288838 0 0 1 7.36893,5.6544 7.6288838,7.6288838 0 0 1 -3.55449,8.5813 l -3.81444,-6.6068 z"
         sodipodi:arc-type="slice" /><path
         style="display:inline;opacity:1;vector-effect:none;fill:none;fill-opacity:1;fill-rule:nonzero;stroke:#747474;stroke-width:1;stroke-linecap:round;stroke-linejoin:round;stroke-miterlimit:4;stroke-dasharray:2, 1;stroke-dashoffset:0;stroke-opacity:1;paint-order:fill markers stroke"
         d="m -555.25721,1234.4966 c 0.27839,1.4267 0.96466,0.1325 1.43795,0.2436 0.49543,0.1162 0.95842,0.5176 1.46153,0.4411 0.4846,-0.074 0.74054,-0.7129 1.21795,-0.8239 1.152,-0.268 2.35269,0.2664 3.51465,0.4872 0.38695,0.074 0.75642,0.3174 1.14835,0.2783 0.38211,-0.038 1.04395,-0.6611 1.04395,-0.4871"
         id="path14556"
         inkscape:connector-curvature="0"
         sodipodi:nodetypes="caaaaac" /><path
         sodipodi:nodetypes="caaaasac"
         inkscape:connector-curvature="0"
         id="path14558"
         d="m -555.25721,1237.5536 c 1.39114,-1.1526 1.65708,0.3643 2.47813,0.2427 0.57317,-0.085 1.03605,-0.7639 1.60668,-0.6633 0.17586,0.031 0.22665,0.3031 0.39548,0.3613 0.88915,0.3064 1.90387,-0.4562 2.81312,-0.2159 0.30533,0.081 0.56712,0.4544 0.7855,0.5297 0.27901,0.096 0.58131,-0.6446 0.97907,-0.7092 0.58977,-0.096 0.0891,0.9702 1.70982,0.5381"
         style="display:inline;opacity:1;vector-effect:none;fill:none;fill-opacity:1;fill-rule:nonzero;stroke:#747474;stroke-width:1;stroke-linecap:round;stroke-linejoin:round;stroke-miterlimit:4;stroke-dasharray:2, 1;stroke-dashoffset:0;stroke-opacity:1;paint-order:fill markers stroke" /><path
         sodipodi:nodetypes="caassaaaac"
         inkscape:connector-curvature="0"
         id="path14560"
         d="m -555.69264,1239.6015 c 0.10906,0.7253 0.96466,0.1326 1.43795,0.2436 0.49544,0.1163 1.60344,-0.047 1.46154,0.4412 -0.0926,0.3188 -1.00219,0.062 -0.95918,-0.2676 0.115,-0.88 1.15401,0.2839 1.74375,0.3073 0.69963,0.028 1.47738,-0.306 2.21648,-0.2315 0.57596,0.058 1.44855,1.0615 1.65655,0.5213 0.3025,-0.7857 -2.29565,-1.0533 -2.29565,-1.0533 0,0 1.45413,1.0272 2.29565,1.0533 0.80971,0.025 -2.29565,-1.0533 2.2673,-0.8751"
         style="display:inline;opacity:1;vector-effect:none;fill:none;fill-opacity:1;fill-rule:nonzero;stroke:#747474;stroke-width:1;stroke-linecap:round;stroke-linejoin:round;stroke-miterlimit:4;stroke-dasharray:2, 4;stroke-dashoffset:0;stroke-opacity:1;paint-order:fill markers stroke" /></g></g></svg>
