<?xml version="1.0" encoding="UTF-8" standalone="no"?>
<!-- Created with Inkscape (http://www.inkscape.org/) -->

<svg
   width="94.852478"
   height="86"
   viewBox="0 0 94.852478 86"
   version="1.1"
   id="svg8"
   inkscape:version="1.3 (0e150ed6c4, 2023-07-21)"
   sodipodi:docname="dollphone feature graphic.svg"
   inkscape:export-filename="dollphone feature graphic.png"
   inkscape:export-xdpi="96"
   inkscape:export-ydpi="96"
   xml:space="preserve"
   xmlns:inkscape="http://www.inkscape.org/namespaces/inkscape"
   xmlns:sodipodi="http://sodipodi.sourceforge.net/DTD/sodipodi-0.dtd"
   xmlns="http://www.w3.org/2000/svg"
   xmlns:svg="http://www.w3.org/2000/svg"
   xmlns:rdf="http://www.w3.org/1999/02/22-rdf-syntax-ns#"
   xmlns:cc="http://creativecommons.org/ns#"
   xmlns:dc="http://purl.org/dc/elements/1.1/"><defs
     id="defs2"><clipPath
       clipPathUnits="userSpaceOnUse"
       id="clipPath1899"><path
         style="color:#000000;font-style:normal;font-variant:normal;font-weight:normal;font-stretch:normal;font-size:medium;line-height:normal;font-family:sans-serif;font-variant-ligatures:normal;font-variant-position:normal;font-variant-caps:normal;font-variant-numeric:normal;font-variant-alternates:normal;font-feature-settings:normal;text-indent:0;text-align:start;text-decoration:none;text-decoration-line:none;text-decoration-style:solid;text-decoration-color:#000000;letter-spacing:normal;word-spacing:normal;text-transform:none;writing-mode:lr-tb;direction:ltr;text-orientation:mixed;dominant-baseline:auto;baseline-shift:baseline;text-anchor:start;white-space:normal;shape-padding:0;clip-rule:nonzero;display:inline;overflow:visible;visibility:visible;opacity:1;isolation:auto;mix-blend-mode:normal;color-interpolation:sRGB;color-interpolation-filters:linearRGB;solid-color:#000000;solid-opacity:1;vector-effect:none;fill:#ffffff;fill-opacity:1;fill-rule:nonzero;stroke:none;stroke-width:4;stroke-linecap:butt;stroke-linejoin:round;stroke-miterlimit:4;stroke-dasharray:none;stroke-dashoffset:0;stroke-opacity:1;paint-order:normal;color-rendering:auto;image-rendering:auto;shape-rendering:auto;text-rendering:auto;enable-background:accumulate"
         d="m 175.94141,90.001953 c -0.74355,-0.02172 -1.3958,0.367751 -1.75782,0.957031 -2.0925,1.97566 -3.98059,4.533937 -5.05078,7.326172 -0.0733,0.191436 -0.11681,0.393009 -0.1289,0.597656 -0.35803,6.108528 0.0262,13.170508 1.01367,20.388668 0.0868,0.63108 0.46908,1.18306 1.0293,1.48633 1.3023,0.7063 2.90286,1.16701 4.63281,1.22071 0.0679,0.007 0.13339,0.0215 0.20312,0.0215 0.02,0 0.0387,-0.004 0.0586,-0.004 0.0199,1.2e-4 0.0386,0.004 0.0586,0.004 0.0697,-1e-5 0.13524,-0.0145 0.20312,-0.0215 1.72995,-0.0537 3.33052,-0.51441 4.63282,-1.22071 0.56021,-0.30327 0.94249,-0.85525 1.02929,-1.48633 0.98747,-7.21816 1.37171,-14.28014 1.01368,-20.388668 -0.0121,-0.204647 -0.0556,-0.40622 -0.12891,-0.597656 -1.07019,-2.792235 -2.95827,-5.350512 -5.05078,-7.326172 -0.36202,-0.58928 -1.01426,-0.978746 -1.75781,-0.957031 z"
         id="path1901"
         inkscape:connector-curvature="0" /></clipPath><clipPath
       clipPathUnits="userSpaceOnUse"
       id="clipPath1909"><path
         style="opacity:1;vector-effect:none;fill:#e8e8e8;fill-opacity:1;fill-rule:nonzero;stroke:none;stroke-width:4;stroke-linecap:butt;stroke-linejoin:round;stroke-miterlimit:4;stroke-dasharray:none;stroke-dashoffset:0;stroke-opacity:1;paint-order:normal"
         d="m 156,92 c -2.05694,1.825589 -4,4.390878 -5,7 -0.34778,5.93366 0.0269,12.88695 1,20 1.074,0.58248 2.52104,1 4,1 1.47896,0 2.926,-0.41752 4,-1 0.9731,-7.11305 1.34778,-14.06634 1,-20 -1,-2.609122 -2.94306,-5.174411 -5,-7 z"
         id="path1911"
         inkscape:connector-curvature="0" /></clipPath></defs><sodipodi:namedview
     id="base"
     pagecolor="#ffffff"
     bordercolor="#666666"
     borderopacity="1.0"
     inkscape:pageopacity="0.0"
     inkscape:pageshadow="2"
     inkscape:zoom="0.85837285"
     inkscape:cx="654.72714"
     inkscape:cy="318.04361"
     inkscape:document-units="px"
     inkscape:current-layer="layer6"
     showgrid="true"
     units="px"
     inkscape:pagecheckerboard="true"
     borderlayer="true"
     gridtolerance="10"
     inkscape:snap-smooth-nodes="true"
     inkscape:snap-text-baseline="true"
     inkscape:snap-page="true"
     showguides="false"
     inkscape:guide-bbox="true"
     inkscape:snap-global="false"
     inkscape:showpageshadow="0"
     inkscape:deskcolor="#d1d1d1"
     inkscape:window-width="1858"
     inkscape:window-height="1057"
     inkscape:window-x="54"
     inkscape:window-y="-8"
     inkscape:window-maximized="1"><inkscape:grid
       type="xygrid"
       id="grid4131"
       empspacing="4"
       originx="-358.92325"
       originy="-150.2106"
       spacingy="1"
       spacingx="1"
       units="px"
       visible="true" /></sodipodi:namedview><metadata
     id="metadata5"><rdf:RDF><cc:Work
         rdf:about=""><dc:format>image/svg+xml</dc:format><dc:type
           rdf:resource="http://purl.org/dc/dcmitype/StillImage" /></cc:Work></rdf:RDF></metadata><g
     inkscape:groupmode="layer"
     id="layer6"
     inkscape:label="icons"
     transform="translate(-358.92325,-150.2106)"><g
       transform="translate(971.81944,-1030.2956)"
       id="g1413"><path
         sodipodi:nodetypes="szszszszszszszszs"
         inkscape:connector-curvature="0"
         id="path2551"
         d="m -541.80861,1188.8931 c -9.17819,-1.9677 -18.08758,-2.3869 -28.08758,-2.3869 -10,0 -18.90939,0.4192 -28.08758,2.3869 -2.16677,0.4645 -4.12842,1.5051 -5.57442,2.9511 -1.446,1.446 -2.48655,3.4076 -2.95107,5.5744 -1.9677,9.1782 -2.38693,18.0876 -2.38693,28.0876 0,10 0.41923,18.9094 2.38693,28.0876 0.46452,2.1667 1.50507,4.1284 2.95107,5.5744 1.446,1.446 3.40765,2.4865 5.57442,2.9511 9.17819,1.9676 18.08758,2.3869 28.08758,2.3869 10,0 18.90939,-0.4193 28.08758,-2.3869 2.16677,-0.4646 4.12842,-1.5051 5.57442,-2.9511 1.446,-1.446 2.48655,-3.4077 2.95107,-5.5744 1.9677,-9.1782 2.38693,-18.0876 2.38693,-28.0876 0,-10 -0.41923,-18.9094 -2.38693,-28.0876 -0.46452,-2.1668 -1.50507,-4.1284 -2.95107,-5.5744 -1.446,-1.446 -3.40765,-2.4866 -5.57442,-2.9511 z"
         style="display:inline;opacity:0.5;vector-effect:none;fill:#4c4c4c;fill-opacity:1;fill-rule:nonzero;stroke:#4c4c4c;stroke-width:4;stroke-linecap:round;stroke-linejoin:miter;stroke-miterlimit:4;stroke-dasharray:none;stroke-dashoffset:0;stroke-opacity:1;paint-order:stroke fill markers" /><path
         style="display:inline;opacity:1;vector-effect:none;fill:#f8f8f8;fill-opacity:1;fill-rule:nonzero;stroke:#646464;stroke-width:4;stroke-linecap:butt;stroke-linejoin:round;stroke-miterlimit:4;stroke-dasharray:none;stroke-dashoffset:0;stroke-opacity:1;paint-order:normal"
         d="m -543.80861,1184.8931 c -9.17819,-1.9677 -18.08758,-2.3869 -28.08758,-2.3869 -10,0 -18.90939,0.4192 -28.08758,2.3869 -2.16677,0.4645 -4.12842,1.5051 -5.57442,2.9511 -1.446,1.446 -2.48655,3.4076 -2.95107,5.5744 -1.9677,9.1782 -2.38693,18.0876 -2.38693,28.0876 0,10 0.41923,18.9094 2.38693,28.0876 0.46452,2.1667 1.50507,4.1284 2.95107,5.5744 1.446,1.446 3.40765,2.4865 5.57442,2.9511 9.17819,1.9676 18.08758,2.3869 28.08758,2.3869 10,0 18.90939,-0.4193 28.08758,-2.3869 2.16677,-0.4646 4.12842,-1.5051 5.57442,-2.9511 1.446,-1.446 2.48655,-3.4077 2.95107,-5.5744 1.9677,-9.1782 2.38693,-18.0876 2.38693,-28.0876 0,-10 -0.41923,-18.9094 -2.38693,-28.0876 -0.46452,-2.1668 -1.50507,-4.1284 -2.95107,-5.5744 -1.446,-1.446 -3.40765,-2.4866 -5.57442,-2.9511 z"
         id="path952-9"
         inkscape:connector-curvature="0"
         sodipodi:nodetypes="szszszszszszszszs" /><path
         style="display:inline;opacity:1;vector-effect:none;fill:none;fill-opacity:1;fill-rule:nonzero;stroke:#5e5e5e;stroke-width:4;stroke-linecap:butt;stroke-linejoin:round;stroke-miterlimit:4;stroke-dasharray:none;stroke-dashoffset:0;stroke-opacity:1;paint-order:normal"
         d="m -600.36407,1213.0277 c 6.0104,15.2028 28.46104,-2.1213 15.73312,-2.4748 -12.72792,-0.3536 -5.13059,19.6784 4.7169,12.4154 9.84748,-7.2631 15.25887,-11.3548 24.45126,-9.0567"
         id="path1927"
         inkscape:connector-curvature="0"
         sodipodi:nodetypes="cssc" /><path
         style="display:inline;opacity:1;vector-effect:none;fill:none;fill-opacity:1;fill-rule:nonzero;stroke:#5e5e5e;stroke-width:4;stroke-linecap:butt;stroke-linejoin:round;stroke-miterlimit:4;stroke-dasharray:none;stroke-dashoffset:0;stroke-opacity:1;paint-order:normal"
         d="m -600.1873,1236.1855 c 8.13173,4.0659 9.261,-11.0499 13.61181,0.7071 3.31839,8.9671 8.48087,-3.5702 18.87054,-1.7152"
         id="path1929"
         inkscape:connector-curvature="0"
         sodipodi:nodetypes="csc" /><path
         style="display:inline;opacity:1;vector-effect:none;fill:none;fill-opacity:1;fill-rule:nonzero;stroke:#5e5e5e;stroke-width:4;stroke-linecap:butt;stroke-linejoin:round;stroke-miterlimit:4;stroke-dasharray:none;stroke-dashoffset:0;stroke-opacity:1;paint-order:normal"
         d="m -601.42473,1200.6534 c 6.0104,-8.1318 13.09075,4.5311 19.44543,2.8284 4.01905,-1.0769 1.3225,-7.2478 7.07107,-7.2478 6.5622,0 2.29159,8.203 7.26266,8.2005 6.01045,0 9.53113,-2.8973 10.06146,-8.7309 0.17677,3.3588 9.36916,8.6621 12.37437,8.6621"
         id="path1925"
         inkscape:connector-curvature="0"
         sodipodi:nodetypes="cssscc" /><g
         style="display:inline"
         id="g1923"
         transform="translate(-627.42731,1152.6409)"><g
           transform="matrix(-1.4258808,-1.4258808,1.4258808,-1.4258808,180.92223,463.24662)"
           clip-path="url(#clipPath1899)"
           id="g1893"
           inkscape:groupmode="maskhelper"><g
             id="g1874"
             transform="translate(20)"><path
               style="opacity:1;vector-effect:none;fill:#3b7e4f;fill-opacity:1;fill-rule:nonzero;stroke:none;stroke-width:4;stroke-linecap:butt;stroke-linejoin:round;stroke-miterlimit:4;stroke-dasharray:none;stroke-dashoffset:0;stroke-opacity:1;paint-order:normal"
               d="m 148.34375,97 0.24414,11 -0.58789,14 8,1 8,-1 -0.58789,-14 0.24414,-11 L 156,99 Z"
               id="path1846"
               inkscape:connector-curvature="0"
               sodipodi:nodetypes="ccccccccc" /><path
               style="opacity:1;vector-effect:none;fill:#936f23;fill-opacity:1;fill-rule:nonzero;stroke:none;stroke-width:4;stroke-linecap:butt;stroke-linejoin:round;stroke-miterlimit:4;stroke-dasharray:none;stroke-dashoffset:0;stroke-opacity:1;paint-order:normal"
               d="m 147.4375,91 -1.875,6 c 0.78125,0.40625 2.80294,1.294071 5.4375,2 1,0.267949 4,0.46875 5,0.46875 1,0 4,-0.200801 5,-0.46875 2.63456,-0.705929 4.65625,-1.59375 5.4375,-2 l -1.875,-6 H 156 Z"
               id="path1848"
               inkscape:connector-curvature="0" /><path
               style="opacity:1;vector-effect:none;fill:#484848;fill-opacity:1;fill-rule:nonzero;stroke:none;stroke-width:4;stroke-linecap:butt;stroke-linejoin:round;stroke-miterlimit:4;stroke-dasharray:none;stroke-dashoffset:0;stroke-opacity:1;paint-order:normal"
               d="m 156,86 -7,7 c 1.18652,0.226403 6,1.046721 7,1 1,0.04672 5.81348,-0.773597 7,-1 z"
               id="path1850"
               inkscape:connector-curvature="0" /></g></g><g
           transform="matrix(-1.4258808,-1.4258808,1.4258808,-1.4258808,152.40461,434.72901)"
           clip-path="url(#clipPath1909)"
           id="g1903"
           inkscape:groupmode="maskhelper"><g
             id="g1891"><path
               sodipodi:nodetypes="ccccccccc"
               inkscape:connector-curvature="0"
               id="path1885"
               d="m 148.34375,97 0.24414,11 -0.58789,14 8,1 8,-1 -0.58789,-14 0.24414,-11 L 156,99 Z"
               style="opacity:1;vector-effect:none;fill:#67a954;fill-opacity:1;fill-rule:nonzero;stroke:none;stroke-width:4;stroke-linecap:butt;stroke-linejoin:round;stroke-miterlimit:4;stroke-dasharray:none;stroke-dashoffset:0;stroke-opacity:1;paint-order:normal" /><path
               inkscape:connector-curvature="0"
               id="path1887"
               d="m 147.4375,91 -1.875,6 c 0.78125,0.40625 2.80294,1.294071 5.4375,2 1,0.267949 4,0.46875 5,0.46875 1,0 4,-0.200801 5,-0.46875 2.63456,-0.705929 4.65625,-1.59375 5.4375,-2 l -1.875,-6 H 156 Z"
               style="opacity:1;vector-effect:none;fill:#f4eaaa;fill-opacity:1;fill-rule:nonzero;stroke:none;stroke-width:4;stroke-linecap:butt;stroke-linejoin:round;stroke-miterlimit:4;stroke-dasharray:none;stroke-dashoffset:0;stroke-opacity:1;paint-order:normal" /><path
               inkscape:connector-curvature="0"
               id="path1889"
               d="m 156,86 -7,7 c 1.18652,0.226403 6,1.046721 7,1 1,0.04672 5.81348,-0.773597 7,-1 z"
               style="opacity:1;vector-effect:none;fill:#5e5e5e;fill-opacity:1;fill-rule:nonzero;stroke:none;stroke-width:4;stroke-linecap:butt;stroke-linejoin:round;stroke-miterlimit:4;stroke-dasharray:none;stroke-dashoffset:0;stroke-opacity:1;paint-order:normal" /></g></g></g></g></g></svg>
