<?xml version="1.0" encoding="UTF-8" standalone="no"?>
<!-- Created with Inkscape (http://www.inkscape.org/) -->

<svg
   width="58"
   height="102.99998"
   viewBox="0 0 58 102.99998"
   version="1.1"
   id="svg8"
   inkscape:version="1.3 (0e150ed6c4, 2023-07-21)"
   sodipodi:docname="phone.svg"
   inkscape:export-filename="dollphone feature graphic.png"
   inkscape:export-xdpi="96"
   inkscape:export-ydpi="96"
   xml:space="preserve"
   xmlns:inkscape="http://www.inkscape.org/namespaces/inkscape"
   xmlns:sodipodi="http://sodipodi.sourceforge.net/DTD/sodipodi-0.dtd"
   xmlns="http://www.w3.org/2000/svg"
   xmlns:svg="http://www.w3.org/2000/svg"
   xmlns:rdf="http://www.w3.org/1999/02/22-rdf-syntax-ns#"
   xmlns:cc="http://creativecommons.org/ns#"
   xmlns:dc="http://purl.org/dc/elements/1.1/"><defs
     id="defs2" /><sodipodi:namedview
     id="base"
     pagecolor="#ffffff"
     bordercolor="#666666"
     borderopacity="1.0"
     inkscape:pageopacity="0.0"
     inkscape:pageshadow="2"
     inkscape:zoom="4.8556901"
     inkscape:cx="59.105914"
     inkscape:cy="34.186696"
     inkscape:document-units="px"
     inkscape:current-layer="layer6"
     showgrid="true"
     units="px"
     inkscape:pagecheckerboard="true"
     borderlayer="true"
     gridtolerance="10"
     inkscape:snap-smooth-nodes="true"
     inkscape:snap-text-baseline="true"
     inkscape:snap-page="true"
     showguides="false"
     inkscape:guide-bbox="true"
     inkscape:snap-global="false"
     inkscape:showpageshadow="0"
     inkscape:deskcolor="#d1d1d1"
     inkscape:window-width="1858"
     inkscape:window-height="1057"
     inkscape:window-x="54"
     inkscape:window-y="-8"
     inkscape:window-maximized="1"><inkscape:grid
       type="xygrid"
       id="grid4131"
       empspacing="4"
       originx="-775.75555"
       originy="-198.19698"
       spacingy="1"
       spacingx="1"
       units="px"
       visible="true" /></sodipodi:namedview><metadata
     id="metadata5"><rdf:RDF><cc:Work
         rdf:about=""><dc:format>image/svg+xml</dc:format><dc:type
           rdf:resource="http://purl.org/dc/dcmitype/StillImage" /></cc:Work></rdf:RDF></metadata><g
     inkscape:groupmode="layer"
     id="layer6"
     inkscape:label="icons"
     transform="translate(-775.75555,-198.19698)"><g
       id="g1"
       transform="translate(122.9482,161.2823)"><path
         style="display:inline;opacity:0.5;vector-effect:none;fill:#4c4c4c;fill-opacity:1;fill-rule:nonzero;stroke:#4c4c4c;stroke-width:4;stroke-linecap:butt;stroke-linejoin:round;stroke-miterlimit:4;stroke-dasharray:none;stroke-dashoffset:0;stroke-opacity:1;paint-order:stroke fill markers"
         d="m 682.80737,42.91467 c -7.71429,0 -21.42857,1 -24,4 -1.24612,1.45381 -2,20 -2,36 0,24 5.11646,50.9692 6,52 1.71429,2 9.71429,3 20,3 10.28571,0 18.28571,-1 20,-3 0.88354,-1.0308 6,-28 6,-52 0,-16 -0.75388,-34.54619 -2,-36 -2.57143,-3 -16.28571,-4 -24,-4 z"
         id="path1123-5"
         inkscape:connector-curvature="0"
         sodipodi:nodetypes="ssscscsss" /><path
         inkscape:connector-curvature="0"
         id="path1000"
         d="m 680.80737,38.91467 c -7.71429,0 -21.42857,1 -24,4 -1.24612,1.45381 -2,20 -2,36 0,24 5.11646,50.9692 6,52 1.71429,2 9.71429,3 20,3 10.28571,0 18.28571,-1 20,-3 0.88354,-1.0308 6,-28 6,-52 0,-16 -0.75388,-34.54619 -2,-36 -2.57143,-3 -16.28571,-4 -24,-4 z"
         style="opacity:1;vector-effect:none;fill:#ff7dba;fill-opacity:1;fill-rule:nonzero;stroke:none;stroke-width:8;stroke-linecap:butt;stroke-linejoin:round;stroke-miterlimit:4;stroke-dasharray:none;stroke-dashoffset:0;stroke-opacity:1;paint-order:stroke fill markers" /><path
         inkscape:connector-curvature="0"
         id="path1002"
         d="m 680.80737,37.91467 c -8.61217,0 -20.00792,1.51317 -25,4 -1.00647,3.94957 -1.91281,27.40829 0.24023,42.39844 2.2106,15.39086 10.75977,21.60156 24.75977,21.60156 14,0 22.54917,-6.2107 24.75977,-21.60156 2.15304,-14.99015 1.2467,-38.44887 0.24023,-42.39844 -4.99208,-2.48683 -16.38783,-4 -25,-4 z m 0,5 c 7.0664,0 15.33558,0.48296 19.43164,2.52344 0.82582,3.24067 2.65137,20.55195 0.88477,32.85156 l -20.31641,0.625 -20.31641,-0.625 c -1.7666,-12.29961 0.0589,-29.61089 0.88477,-32.85156 4.09606,-2.04048 12.36524,-2.52344 19.43164,-2.52344 z"
         style="display:inline;opacity:1;vector-effect:none;fill:#f2dde7;fill-opacity:1;fill-rule:nonzero;stroke:none;stroke-width:4.24264;stroke-linecap:butt;stroke-linejoin:round;stroke-miterlimit:4;stroke-dasharray:none;stroke-dashoffset:0;stroke-opacity:1;paint-order:stroke fill markers" /><path
         inkscape:connector-curvature="0"
         id="path1005"
         d="m 680.80766,59.914991 c -7,0 -13.66159,0.32774 -20,1 -1,7 -0.75586,21.796875 0.24414,24.796875 4.06008,0.71819 10.75586,1.203125 19.75586,1.203125 9,0 15.69384,-0.484935 19.75391,-1.203125 1,-3 1.24609,-17.796875 0.24609,-24.796875 -6.3384,-0.67226 -13,-1 -20,-1 z"
         style="opacity:1;vector-effect:none;fill:#b2bac3;fill-opacity:1;fill-rule:nonzero;stroke:#7c104f;stroke-width:4;stroke-linecap:butt;stroke-linejoin:round;stroke-miterlimit:4;stroke-dasharray:none;stroke-dashoffset:0;stroke-opacity:1;paint-order:stroke fill markers" /><path
         style="opacity:1;vector-effect:none;fill:#f2dde7;fill-opacity:1;fill-rule:nonzero;stroke:none;stroke-width:4;stroke-linecap:butt;stroke-linejoin:round;stroke-miterlimit:4;stroke-dasharray:none;stroke-dashoffset:0;stroke-opacity:1;paint-order:stroke fill markers"
         d="m 690.91799,110.91467 c 0.21603,0.80621 2.5102,0.89198 5.12419,0.19157 2.61398,-0.70042 4.55791,-1.92178 4.34189,-2.728 -0.21603,-0.80621 -2.5102,-0.89198 -5.12419,-0.19156 -2.61398,0.70041 -4.55791,1.92178 -4.34189,2.72799 z"
         id="path1007"
         inkscape:connector-curvature="0"
         sodipodi:nodetypes="sssss" /><path
         style="opacity:1;vector-effect:none;fill:#f2dde7;fill-opacity:1;fill-rule:nonzero;stroke:none;stroke-width:4;stroke-linecap:butt;stroke-linejoin:round;stroke-miterlimit:4;stroke-dasharray:none;stroke-dashoffset:0;stroke-opacity:1;paint-order:stroke fill markers"
         d="m 691.30045,117.03731 c 0.21602,0.80622 2.25072,0.96151 4.54462,0.34686 2.29391,-0.61465 3.97836,-1.76649 3.76234,-2.5727 -0.21603,-0.80621 -2.25073,-0.96151 -4.54463,-0.34686 -2.2939,0.61465 -3.97836,1.76649 -3.76233,2.5727 z"
         id="path1009"
         inkscape:connector-curvature="0"
         sodipodi:nodetypes="sssss" /><path
         style="opacity:1;vector-effect:none;fill:#f2dde7;fill-opacity:1;fill-rule:nonzero;stroke:none;stroke-width:4;stroke-linecap:butt;stroke-linejoin:round;stroke-miterlimit:4;stroke-dasharray:none;stroke-dashoffset:0;stroke-opacity:1;paint-order:stroke fill markers"
         d="m 690.80737,122.96235 c 0.18696,0.81344 2.09871,1.06831 4.27002,0.56925 2.1713,-0.49905 3.77993,-1.56305 3.59296,-2.37649 -0.18696,-0.81344 -2.09871,-1.06831 -4.27001,-0.56925 -2.17131,0.49905 -3.77993,1.56304 -3.59297,2.37649 z"
         id="path1011"
         inkscape:connector-curvature="0"
         sodipodi:nodetypes="sssss" /><path
         style="opacity:1;vector-effect:none;fill:#f2dde7;fill-opacity:1;fill-rule:nonzero;stroke:none;stroke-width:4;stroke-linecap:butt;stroke-linejoin:round;stroke-miterlimit:4;stroke-dasharray:none;stroke-dashoffset:0;stroke-opacity:1;paint-order:stroke fill markers"
         d="m 690.41908,127.91467 c 0.11382,0.82685 1.80779,1.27667 3.7836,1.00469 1.9758,-0.27198 3.48524,-1.16276 3.37142,-1.98961 -0.11382,-0.82686 -1.8078,-1.27668 -3.7836,-1.0047 -1.97581,0.27198 -3.48524,1.16276 -3.37142,1.98962 z"
         id="path1013"
         inkscape:connector-curvature="0"
         sodipodi:nodetypes="sssss" /><path
         sodipodi:nodetypes="sssss"
         inkscape:connector-curvature="0"
         id="ellipse1027"
         d="m 670.69675,110.91467 c -0.21603,0.80621 -2.5102,0.89198 -5.12419,0.19157 -2.61398,-0.70042 -4.55791,-1.92178 -4.34189,-2.728 0.21603,-0.80621 2.5102,-0.89198 5.12419,-0.19156 2.61398,0.70041 4.55791,1.92178 4.34189,2.72799 z"
         style="opacity:1;vector-effect:none;fill:#f2dde7;fill-opacity:1;fill-rule:nonzero;stroke:none;stroke-width:4;stroke-linecap:butt;stroke-linejoin:round;stroke-miterlimit:4;stroke-dasharray:none;stroke-dashoffset:0;stroke-opacity:1;paint-order:stroke fill markers" /><path
         sodipodi:nodetypes="sssss"
         inkscape:connector-curvature="0"
         id="ellipse1029"
         d="m 670.31429,117.03731 c -0.21602,0.80622 -2.25072,0.96151 -4.54462,0.34686 -2.29391,-0.61465 -3.97836,-1.76649 -3.76234,-2.5727 0.21603,-0.80621 2.25073,-0.96151 4.54463,-0.34686 2.2939,0.61465 3.97836,1.76649 3.76233,2.5727 z"
         style="opacity:1;vector-effect:none;fill:#f2dde7;fill-opacity:1;fill-rule:nonzero;stroke:none;stroke-width:4;stroke-linecap:butt;stroke-linejoin:round;stroke-miterlimit:4;stroke-dasharray:none;stroke-dashoffset:0;stroke-opacity:1;paint-order:stroke fill markers" /><path
         sodipodi:nodetypes="sssss"
         inkscape:connector-curvature="0"
         id="ellipse1031"
         d="m 670.80737,122.96235 c -0.18696,0.81344 -2.09871,1.06831 -4.27002,0.56925 -2.1713,-0.49905 -3.77993,-1.56305 -3.59296,-2.37649 0.18696,-0.81344 2.09871,-1.06831 4.27001,-0.56925 2.17131,0.49905 3.77993,1.56304 3.59297,2.37649 z"
         style="opacity:1;vector-effect:none;fill:#f2dde7;fill-opacity:1;fill-rule:nonzero;stroke:none;stroke-width:4;stroke-linecap:butt;stroke-linejoin:round;stroke-miterlimit:4;stroke-dasharray:none;stroke-dashoffset:0;stroke-opacity:1;paint-order:stroke fill markers" /><path
         sodipodi:nodetypes="sssss"
         inkscape:connector-curvature="0"
         id="ellipse1033"
         d="m 671.19566,127.91467 c -0.11382,0.82685 -1.80779,1.27667 -3.7836,1.00469 -1.9758,-0.27198 -3.48524,-1.16276 -3.37142,-1.98961 0.11382,-0.82686 1.8078,-1.27668 3.7836,-1.0047 1.97581,0.27198 3.48524,1.16276 3.37142,1.98962 z"
         style="opacity:1;vector-effect:none;fill:#f2dde7;fill-opacity:1;fill-rule:nonzero;stroke:none;stroke-width:4;stroke-linecap:butt;stroke-linejoin:round;stroke-miterlimit:4;stroke-dasharray:none;stroke-dashoffset:0;stroke-opacity:1;paint-order:stroke fill markers" /><path
         sodipodi:nodetypes="cssscsssc"
         inkscape:connector-curvature="0"
         id="path1123"
         d="m 680.80737,133.91467 c -10.28571,0 -18.28571,-1 -20,-3 -0.88354,-1.0308 -6,-28 -6,-52 0,-16 0.75388,-34.54619 2,-36 2.57143,-3 16.28571,-4 24,-4 7.71429,0 21.42857,1 24,4 1.24612,1.45381 2,20 2,36 0,24 -5.11646,50.9692 -6,52 -1.71429,2 -9.71429,3 -20,3"
         style="opacity:1;vector-effect:none;fill:none;fill-opacity:1;fill-rule:nonzero;stroke:#7c104f;stroke-width:4;stroke-linecap:butt;stroke-linejoin:round;stroke-miterlimit:4;stroke-dasharray:none;stroke-dashoffset:0;stroke-opacity:1;paint-order:stroke fill markers" /><path
         style="display:inline;opacity:1;vector-effect:none;fill:#7c104f;fill-opacity:1;fill-rule:nonzero;stroke:none;stroke-width:4.90667;stroke-linecap:butt;stroke-linejoin:round;stroke-miterlimit:4;stroke-dasharray:none;stroke-dashoffset:0;stroke-opacity:1;paint-order:stroke fill markers"
         d="m 690.80737,97.93353 c 0,3.32412 -4.47715,6.01886 -10,6.01886 -5.52285,0 -10,-2.69474 -10,-6.01886 0,-3.32412 4.47715,-6.01886 10,-6.01886 5.52285,0 10,2.69474 10,6.01886 z"
         id="ellipse1008"
         inkscape:connector-curvature="0"
         sodipodi:nodetypes="sssss" /><path
         style="display:inline;opacity:1;vector-effect:none;fill:#f2dde7;fill-opacity:1;fill-rule:nonzero;stroke:none;stroke-width:4;stroke-linecap:butt;stroke-linejoin:round;stroke-miterlimit:4;stroke-dasharray:none;stroke-dashoffset:0;stroke-opacity:1;paint-order:stroke fill markers"
         d="m 684.80737,97.93353 c 0,1.10457 -1.79086,2 -4,2 -2.20914,0 -4,-0.89543 -4,-2 0,-1.10457 1.79086,-2 4,-2 2.20914,0 4,0.89543 4,2 z"
         id="ellipse1025"
         inkscape:connector-curvature="0"
         sodipodi:nodetypes="sssss" /><path
         style="display:inline;opacity:1;vector-effect:none;fill:#f2dde7;fill-opacity:1;fill-rule:nonzero;stroke:none;stroke-width:4;stroke-linecap:butt;stroke-linejoin:round;stroke-miterlimit:4;stroke-dasharray:none;stroke-dashoffset:0;stroke-opacity:1;paint-order:stroke fill markers"
         d="m 685.10737,117.4172 c 0,0.83466 -1.92518,1.51128 -4.3,1.51128 -2.37482,0 -4.3,-0.67662 -4.3,-1.51128 0,-0.83465 1.92518,-1.51127 4.3,-1.51127 2.37482,0 4.3,0.67662 4.3,1.51127 z"
         id="ellipse1029-8"
         inkscape:connector-curvature="0"
         sodipodi:nodetypes="sssss" /><path
         style="display:inline;opacity:1;vector-effect:none;fill:#f2dde7;fill-opacity:1;fill-rule:nonzero;stroke:none;stroke-width:4;stroke-linecap:butt;stroke-linejoin:round;stroke-miterlimit:4;stroke-dasharray:none;stroke-dashoffset:0;stroke-opacity:1;paint-order:stroke fill markers"
         d="m 685.70737,110.91467 c 0,0.83465 -2.19381,1.51127 -4.9,1.51127 -2.7062,0 -4.9,-0.67662 -4.9,-1.51127 0,-0.83465 2.1938,-1.51127 4.9,-1.51127 2.70619,0 4.9,0.67662 4.9,1.51127 z"
         id="ellipse1058"
         inkscape:connector-curvature="0"
         sodipodi:nodetypes="sssss" /><path
         style="display:inline;opacity:1;vector-effect:none;fill:#f2dde7;fill-opacity:1;fill-rule:nonzero;stroke:none;stroke-width:4;stroke-linecap:butt;stroke-linejoin:round;stroke-miterlimit:4;stroke-dasharray:none;stroke-dashoffset:0;stroke-opacity:1;paint-order:stroke fill markers"
         d="m 684.84137,123.05873 c 0,0.83465 -1.80608,1.51127 -4.034,1.51127 -2.22792,0 -4.034,-0.67662 -4.034,-1.51127 0,-0.83466 1.80608,-1.51128 4.034,-1.51128 2.22792,0 4.034,0.67662 4.034,1.51128 z"
         id="ellipse1060"
         inkscape:connector-curvature="0"
         sodipodi:nodetypes="sssss" /><path
         style="display:inline;opacity:1;vector-effect:none;fill:#f2dde7;fill-opacity:1;fill-rule:nonzero;stroke:none;stroke-width:4;stroke-linecap:butt;stroke-linejoin:round;stroke-miterlimit:4;stroke-dasharray:none;stroke-dashoffset:0;stroke-opacity:1;paint-order:stroke fill markers"
         d="m 684.41862,128.42221 c 0,0.83465 -1.61682,1.51127 -3.61125,1.51127 -1.99443,0 -3.61125,-0.67662 -3.61125,-1.51127 0,-0.83466 1.61682,-1.51128 3.61125,-1.51128 1.99443,0 3.61125,0.67662 3.61125,1.51128 z"
         id="ellipse1062"
         inkscape:connector-curvature="0"
         sodipodi:nodetypes="sssss" /><path
         sodipodi:nodetypes="sssss"
         inkscape:connector-curvature="0"
         id="path1120"
         d="m 681.80737,50.43353 c 0,3.04798 -0.44772,5.51886 -1,5.51886 -0.55229,0 -1,-2.47088 -1,-5.51886 0,-3.04798 0.44771,-5.51886 1,-5.51886 0.55228,0 1,2.47088 1,5.51886 z"
         style="display:inline;opacity:1;vector-effect:none;fill:#7c104f;fill-opacity:1;fill-rule:nonzero;stroke:none;stroke-width:4.90667;stroke-linecap:butt;stroke-linejoin:round;stroke-miterlimit:4;stroke-dasharray:none;stroke-dashoffset:0;stroke-opacity:1;paint-order:stroke fill markers" /><path
         id="text1127"
         style="font-style:normal;font-variant:normal;font-weight:bold;font-stretch:normal;font-size:21.5021px;line-height:1;font-family:Mikado;-inkscape-font-specification:'Mikado Bold';font-variant-ligatures:normal;font-variant-caps:normal;font-variant-numeric:normal;font-feature-settings:normal;text-align:center;writing-mode:lr-tb;text-anchor:middle;display:inline;opacity:1;vector-effect:none;fill:#3f5a65;fill-opacity:1;fill-rule:nonzero;stroke:none;stroke-width:6.61603;stroke-linecap:butt;stroke-linejoin:round;stroke-miterlimit:4;stroke-dasharray:none;stroke-dashoffset:0;stroke-opacity:1;paint-order:stroke fill markers"
         d="M 692.09446 65.742805 C 691.0553 65.724663 689.00322 65.810108 688.92258 65.906868 C 688.77207 66.680942 688.72914 79.237536 688.83665 80.893196 C 689.56772 81.022208 698.59835 81.02219 698.61985 80.91468 C 698.72736 80.527643 698.70593 78.270733 698.53391 77.561164 C 697.88885 77.475156 694.46905 77.518143 692.59837 77.582649 C 692.66287 76.206516 692.72731 66.509014 692.6843 65.799446 C 692.67355 65.767193 692.44084 65.748852 692.09446 65.742805 z M 672.20383 65.750618 C 668.93417 65.760697 663.22207 65.922888 663.01243 66.035774 C 662.90492 66.164786 662.90485 68.550868 663.09837 69.19593 C 663.65742 69.260436 665.44096 69.238916 666.8386 69.217414 C 666.7956 73.087789 666.81704 79.732066 666.90305 80.91468 C 666.92456 81.108199 670.53771 80.979257 670.66672 80.828743 C 670.75273 79.968659 670.70971 73.410284 670.68821 69.260383 C 672.49438 69.195877 674.04135 69.153014 674.4929 69.088508 C 674.64341 69.067006 674.66502 65.885454 674.36399 65.799446 C 674.11134 65.761817 673.29372 65.747258 672.20383 65.750618 z M 682.17454 65.785774 C 679.90069 65.799213 677.40681 65.842361 676.40696 65.906868 C 676.27795 68.809648 676.17054 79.258985 676.27805 80.957649 C 677.99822 81.129665 686.55554 81.086644 686.38352 80.979133 C 686.49103 80.613598 686.53405 78.464092 686.36204 77.754524 C 685.75998 77.71152 681.95543 77.733004 680.02024 77.776008 C 680.04174 77.023435 680.04172 75.991649 680.04172 75.024055 C 682.08442 75.088561 685.11594 75.086644 685.11594 74.979133 C 685.11594 74.893125 685.28801 72.076949 685.05149 71.88343 C 684.92248 71.77592 681.93391 71.733022 680.04172 71.754524 L 679.99876 69.131477 C 681.76193 69.195983 686.06271 69.174499 686.66477 69.109993 C 686.77228 68.400424 686.77232 66.229452 686.6218 65.842414 C 686.50354 65.788659 684.44838 65.772335 682.17454 65.785774 z " /></g></g></svg>
