<?xml version="1.0" encoding="UTF-8" standalone="no"?>
<!-- Created with Inkscape (http://www.inkscape.org/) -->

<svg
   width="79.557251"
   height="81.557205"
   viewBox="0 0 79.557251 81.557205"
   version="1.1"
   id="svg8"
   inkscape:version="1.3 (0e150ed6c4, 2023-07-21)"
   sodipodi:docname="qr.svg"
   inkscape:export-filename="dollphone feature graphic.png"
   inkscape:export-xdpi="96"
   inkscape:export-ydpi="96"
   xml:space="preserve"
   xmlns:inkscape="http://www.inkscape.org/namespaces/inkscape"
   xmlns:sodipodi="http://sodipodi.sourceforge.net/DTD/sodipodi-0.dtd"
   xmlns="http://www.w3.org/2000/svg"
   xmlns:svg="http://www.w3.org/2000/svg"
   xmlns:rdf="http://www.w3.org/1999/02/22-rdf-syntax-ns#"
   xmlns:cc="http://creativecommons.org/ns#"
   xmlns:dc="http://purl.org/dc/elements/1.1/"><defs
     id="defs2" /><sodipodi:namedview
     id="base"
     pagecolor="#ffffff"
     bordercolor="#666666"
     borderopacity="1.0"
     inkscape:pageopacity="0.0"
     inkscape:pageshadow="2"
     inkscape:zoom="0.85837285"
     inkscape:cx="654.72714"
     inkscape:cy="318.04361"
     inkscape:document-units="px"
     inkscape:current-layer="layer6"
     showgrid="true"
     units="px"
     inkscape:pagecheckerboard="true"
     borderlayer="true"
     gridtolerance="10"
     inkscape:snap-smooth-nodes="true"
     inkscape:snap-text-baseline="true"
     inkscape:snap-page="true"
     showguides="false"
     inkscape:guide-bbox="true"
     inkscape:snap-global="false"
     inkscape:showpageshadow="0"
     inkscape:deskcolor="#d1d1d1"
     inkscape:window-width="1858"
     inkscape:window-height="1057"
     inkscape:window-x="54"
     inkscape:window-y="-8"
     inkscape:window-maximized="1"><inkscape:grid
       type="xygrid"
       id="grid4131"
       empspacing="4"
       originx="-862.7453"
       originy="-160.69153"
       spacingy="1"
       spacingx="1"
       units="px"
       visible="true" /></sodipodi:namedview><metadata
     id="metadata5"><rdf:RDF><cc:Work
         rdf:about=""><dc:format>image/svg+xml</dc:format><dc:type
           rdf:resource="http://purl.org/dc/dcmitype/StillImage" /></cc:Work></rdf:RDF></metadata><g
     inkscape:groupmode="layer"
     id="layer6"
     inkscape:label="icons"
     transform="translate(-862.7453,-160.69153)"><g
       transform="translate(1472.4201,-1023.0361)"
       id="g1561"><path
         d="m -534.37794,1189.988 c 3.01382,3.0138 3.01382,68.0226 0,71.0365 -3.01383,3.0138 -68.02265,3.0138 -71.03647,0 -3.01383,-3.0139 -3.01383,-68.0227 0,-71.0365 3.01382,-3.0138 68.02264,-3.0138 71.03647,0 z"
         inkscape:randomized="0"
         inkscape:rounded="0.06"
         inkscape:flatsided="true"
         sodipodi:arg2="0"
         sodipodi:arg1="-0.78539816"
         sodipodi:r2="44.220825"
         sodipodi:r1="50.23037"
         sodipodi:cy="1225.5062"
         sodipodi:cx="-569.89618"
         sodipodi:sides="4"
         id="path2655"
         style="display:inline;opacity:0.5;vector-effect:none;fill:#4c4c4c;fill-opacity:1;fill-rule:nonzero;stroke:#000000;stroke-width:4;stroke-linecap:round;stroke-linejoin:miter;stroke-miterlimit:4;stroke-dasharray:none;stroke-dashoffset:0;stroke-opacity:0;paint-order:stroke fill markers"
         sodipodi:type="star" /><path
         sodipodi:type="star"
         style="display:inline;opacity:1;vector-effect:none;fill:#ffffff;fill-opacity:1;fill-rule:nonzero;stroke:none;stroke-width:4;stroke-linecap:round;stroke-linejoin:miter;stroke-miterlimit:4;stroke-dasharray:none;stroke-dashoffset:0;stroke-opacity:1;paint-order:stroke fill markers"
         id="path2585"
         sodipodi:sides="4"
         sodipodi:cx="-571.89618"
         sodipodi:cy="1221.5062"
         sodipodi:r1="50.23037"
         sodipodi:r2="44.220825"
         sodipodi:arg1="-0.78539816"
         sodipodi:arg2="0"
         inkscape:flatsided="true"
         inkscape:rounded="0.06"
         inkscape:randomized="0"
         d="m -536.37794,1185.988 c 3.01382,3.0138 3.01382,68.0226 0,71.0365 -3.01383,3.0138 -68.02265,3.0138 -71.03647,0 -3.01383,-3.0139 -3.01383,-68.0227 0,-71.0365 3.01382,-3.0138 68.02264,-3.0138 71.03647,0 z" /><path
         style="display:inline;opacity:1;vector-effect:none;fill:#404040;fill-opacity:1;fill-rule:nonzero;stroke:none;stroke-width:10.5239;stroke-linecap:round;stroke-linejoin:miter;stroke-miterlimit:4;stroke-dasharray:none;stroke-dashoffset:0;stroke-opacity:1;paint-order:stroke fill markers"
         d="m -595.11349,1188.5923 c -4.22459,0.2168 -8.45711,0.5883 -8.78268,0.9139 -0.65113,0.6511 -1.48672,16.9301 -0.89917,17.5177 0.58755,0.5875 17.27428,0.2082 17.94966,-0.4672 0.67539,-0.6754 1.05475,-17.3621 0.4672,-17.9497 -0.29378,-0.2938 -4.51042,-0.2316 -8.73501,-0.015 z m -0.13523,2.6345 c 3.01756,-0.1549 6.02942,-0.1987 6.23926,0.011 0.41968,0.4197 0.18375,12.3738 -0.29871,12.8562 -0.48241,0.4824 -12.43651,0.7184 -12.85619,0.2987 -0.41968,-0.4196 0.17717,-12.0475 0.64227,-12.5126 0.23254,-0.2326 3.25581,-0.4986 6.27337,-0.6535 z m -0.13535,2.6369 c -1.81053,0.093 -3.62442,0.2511 -3.76395,0.3906 -0.27906,0.2791 -0.63717,7.2558 -0.38536,7.5076 0.25181,0.2518 7.47327,0.1592 7.76272,-0.1302 0.28946,-0.2895 0.38203,-7.5109 0.13022,-7.7627 -0.12591,-0.1259 -1.93309,-0.098 -3.74363,-0.01 z"
         id="path2587"
         inkscape:connector-curvature="0"
         sodipodi:nodetypes="sssssssssssssccssssc"
         inkscape:transform-center-x="23.690741"
         inkscape:transform-center-y="-23.6907" /><path
         inkscape:transform-center-y="-23.6907"
         inkscape:transform-center-x="-23.69074"
         sodipodi:nodetypes="sssssssssssssccssssc"
         inkscape:connector-curvature="0"
         id="path2594"
         d="m -548.67885,1188.5923 c 4.22459,0.2168 8.45711,0.5883 8.78268,0.9139 0.65113,0.6511 1.48673,16.9301 0.89917,17.5177 -0.58755,0.5875 -17.27428,0.2082 -17.94966,-0.4672 -0.67539,-0.6754 -1.05475,-17.3621 -0.4672,-17.9497 0.29378,-0.2938 4.51042,-0.2316 8.73501,-0.015 z m 0.13523,2.6345 c -3.01756,-0.1549 -6.02942,-0.1987 -6.23926,0.011 -0.41968,0.4197 -0.18375,12.3738 0.29871,12.8562 0.48241,0.4824 12.43651,0.7184 12.85619,0.2987 0.41968,-0.4196 -0.17717,-12.0475 -0.64226,-12.5126 -0.23255,-0.2326 -3.25582,-0.4986 -6.27338,-0.6535 z m 0.13535,2.6369 c 1.81054,0.093 3.62442,0.2511 3.76395,0.3906 0.27906,0.2791 0.63717,7.2558 0.38536,7.5076 -0.25181,0.2518 -7.47327,0.1592 -7.76272,-0.1302 -0.28946,-0.2895 -0.38203,-7.5109 -0.13022,-7.7627 0.12591,-0.1259 1.93309,-0.098 3.74363,-0.01 z"
         style="display:inline;opacity:1;vector-effect:none;fill:#404040;fill-opacity:1;fill-rule:nonzero;stroke:none;stroke-width:10.5239;stroke-linecap:round;stroke-linejoin:miter;stroke-miterlimit:4;stroke-dasharray:none;stroke-dashoffset:0;stroke-opacity:1;paint-order:stroke fill markers" /><path
         inkscape:transform-center-y="23.69074"
         inkscape:transform-center-x="23.6907"
         sodipodi:nodetypes="sssssssssssssccssssc"
         inkscape:connector-curvature="0"
         id="path2596"
         d="m -604.81009,1244.7235 c 0.21684,4.2246 0.58835,8.4571 0.91392,8.7827 0.65114,0.6511 16.93014,1.4867 17.51769,0.8991 0.58755,-0.5875 0.20795,-17.2742 -0.4672,-17.9496 -0.67538,-0.6754 -17.36211,-1.0548 -17.94966,-0.4672 -0.29378,0.2938 -0.2316,4.5104 -0.0147,8.735 z m 2.6345,0.1352 c -0.15489,-3.0175 -0.19861,-6.0294 0.0112,-6.2392 0.41968,-0.4197 12.37377,-0.1837 12.85619,0.2987 0.48241,0.4824 0.71839,12.4365 0.29871,12.8562 -0.41968,0.4196 -12.04754,-0.1772 -12.51264,-0.6423 -0.23255,-0.2325 -0.49861,-3.2558 -0.6535,-6.2734 z m 2.63694,0.1354 c 0.0929,1.8105 0.2511,3.6244 0.39063,3.7639 0.27906,0.2791 7.25577,0.6372 7.50758,0.3854 0.25181,-0.2518 0.15925,-7.4733 -0.13021,-7.7627 -0.28945,-0.2895 -7.51092,-0.3821 -7.76273,-0.1303 -0.1259,0.126 -0.0982,1.9331 -0.005,3.7437 z"
         style="display:inline;opacity:1;vector-effect:none;fill:#404040;fill-opacity:1;fill-rule:nonzero;stroke:none;stroke-width:10.5239;stroke-linecap:round;stroke-linejoin:miter;stroke-miterlimit:4;stroke-dasharray:none;stroke-dashoffset:0;stroke-opacity:1;paint-order:stroke fill markers" /><path
         style="display:inline;opacity:1;vector-effect:none;fill:#404040;fill-opacity:1;fill-rule:nonzero;stroke:none;stroke-width:10.5239;stroke-linecap:round;stroke-linejoin:miter;stroke-miterlimit:4;stroke-dasharray:none;stroke-dashoffset:0;stroke-opacity:1;paint-order:stroke fill markers"
         d="m -548.88711,1236.1923 c -2.61154,-0.078 -7.63182,0.047 -7.94026,0.3553 -0.41126,0.4113 -0.56385,9.1308 -0.17464,9.52 0.3892,0.3892 9.02229,0.1502 9.43355,-0.261 0.41125,-0.4113 0.65026,-9.0444 0.26105,-9.4336 -0.0973,-0.097 -0.70918,-0.1547 -1.5797,-0.1807 z m -1.63994,2.5235 c 0.43361,0.013 0.73915,0.043 0.78762,0.091 0.19387,0.1938 0.0755,4.494 -0.12941,4.6989 -0.20485,0.2048 -4.50505,0.3233 -4.69892,0.1294 -0.19388,-0.1939 -0.16188,-4.5805 0.043,-4.7853 0.15363,-0.1537 2.69689,-0.1734 3.99771,-0.1345 z"
         id="path2598"
         inkscape:connector-curvature="0"
         sodipodi:nodetypes="ccccccccccccc" /><path
         style="display:inline;opacity:1;vector-effect:none;fill:none;fill-opacity:1;fill-rule:nonzero;stroke:#80909b;stroke-width:2.63098;stroke-linecap:round;stroke-linejoin:miter;stroke-miterlimit:4;stroke-dasharray:none;stroke-dashoffset:0;stroke-opacity:1;paint-order:stroke fill markers"
         d="m -582.42009,1189.9344 h 21.04784"
         id="path2603"
         inkscape:connector-curvature="0"
         sodipodi:nodetypes="cc" /><path
         style="display:inline;opacity:1;vector-effect:none;fill:none;fill-opacity:1;fill-rule:nonzero;stroke:#80909b;stroke-width:2.63098;stroke-linecap:round;stroke-linejoin:miter;stroke-miterlimit:4;stroke-dasharray:none;stroke-dashoffset:0;stroke-opacity:1;paint-order:stroke fill markers"
         d="m -582.42009,1195.1964 h 5.26196"
         id="path2605"
         inkscape:connector-curvature="0"
         sodipodi:nodetypes="cc" /><path
         style="display:inline;opacity:1;vector-effect:none;fill:none;fill-opacity:1;fill-rule:nonzero;stroke:#80909b;stroke-width:2.63098;stroke-linecap:round;stroke-linejoin:round;stroke-miterlimit:4;stroke-dasharray:none;stroke-dashoffset:0;stroke-opacity:1;paint-order:stroke fill markers"
         d="m -571.89617,1195.1964 h 3.94647 v -3.9465"
         id="path2607"
         inkscape:connector-curvature="0"
         sodipodi:nodetypes="ccc" /><path
         style="display:inline;opacity:1;vector-effect:none;fill:none;fill-opacity:1;fill-rule:nonzero;stroke:#80909b;stroke-width:2.63098;stroke-linecap:round;stroke-linejoin:round;stroke-miterlimit:4;stroke-dasharray:none;stroke-dashoffset:0;stroke-opacity:1;paint-order:stroke fill markers"
         d="m -582.42009,1204.4048 v -3.9465 h 10.52392 v 7.893 h 5.26196"
         id="path2609"
         inkscape:connector-curvature="0"
         sodipodi:nodetypes="ccccc" /><path
         style="display:inline;opacity:1;vector-effect:none;fill:none;fill-opacity:1;fill-rule:nonzero;stroke:#80909b;stroke-width:2.63098;stroke-linecap:round;stroke-linejoin:round;stroke-miterlimit:4;stroke-dasharray:none;stroke-dashoffset:0;stroke-opacity:1;paint-order:stroke fill markers"
         d="m -566.63421,1203.0893 h 5.26196 v 3.9465"
         id="path2611"
         inkscape:connector-curvature="0"
         sodipodi:nodetypes="ccc" /><path
         style="display:inline;opacity:1;vector-effect:none;fill:none;fill-opacity:1;fill-rule:nonzero;stroke:#80909b;stroke-width:2.63098;stroke-linecap:round;stroke-linejoin:round;stroke-miterlimit:4;stroke-dasharray:none;stroke-dashoffset:0;stroke-opacity:1;paint-order:stroke fill markers"
         d="m -571.89617,1205.7203 h -2.63098"
         id="path2613"
         inkscape:connector-curvature="0" /><path
         style="display:inline;opacity:1;vector-effect:none;fill:none;fill-opacity:1;fill-rule:nonzero;stroke:#80909b;stroke-width:2.63098;stroke-linecap:round;stroke-linejoin:round;stroke-miterlimit:4;stroke-dasharray:none;stroke-dashoffset:0;stroke-opacity:1;paint-order:stroke fill markers"
         d="m -603.46793,1210.9823 v 7.8929 h 5.26196 v 7.8929 h -2.63098"
         id="path2615"
         inkscape:connector-curvature="0"
         sodipodi:nodetypes="ccccc" /><path
         style="display:inline;opacity:1;vector-effect:none;fill:none;fill-opacity:1;fill-rule:nonzero;stroke:#80909b;stroke-width:2.63098;stroke-linecap:round;stroke-linejoin:round;stroke-miterlimit:4;stroke-dasharray:none;stroke-dashoffset:0;stroke-opacity:1;paint-order:stroke fill markers"
         d="m -598.20597,1232.0301 h 5.26196 v -5.262"
         id="path2617"
         inkscape:connector-curvature="0" /><path
         style="display:inline;opacity:1;vector-effect:none;fill:none;fill-opacity:1;fill-rule:nonzero;stroke:#80909b;stroke-width:2.63098;stroke-linecap:round;stroke-linejoin:round;stroke-miterlimit:4;stroke-dasharray:none;stroke-dashoffset:0;stroke-opacity:1;paint-order:stroke fill markers"
         d="m -592.94401,1229.3991 h 5.26196 v 2.631"
         id="path2619"
         inkscape:connector-curvature="0" /><path
         style="display:inline;opacity:1;vector-effect:none;fill:none;fill-opacity:1;fill-rule:nonzero;stroke:#80909b;stroke-width:2.63098;stroke-linecap:round;stroke-linejoin:round;stroke-miterlimit:4;stroke-dasharray:none;stroke-dashoffset:0;stroke-opacity:1;paint-order:stroke fill markers"
         d="m -598.20597,1213.6132 h 5.26196 v 2.631"
         id="path2621"
         inkscape:connector-curvature="0"
         sodipodi:nodetypes="ccc" /><path
         id="text2627"
         style="font-style:normal;font-variant:normal;font-weight:bold;font-stretch:normal;font-size:26.3098px;line-height:0.8;font-family:Mikado;-inkscape-font-specification:'Mikado Bold';font-variant-ligatures:normal;font-variant-position:normal;font-variant-caps:normal;font-variant-numeric:normal;font-variant-alternates:normal;font-feature-settings:normal;text-indent:0;text-align:center;text-decoration:none;text-decoration-line:none;text-decoration-style:solid;text-decoration-color:#000000;letter-spacing:0px;word-spacing:normal;text-transform:none;writing-mode:lr-tb;direction:ltr;text-orientation:mixed;dominant-baseline:auto;baseline-shift:baseline;text-anchor:middle;white-space:normal;shape-padding:0;display:inline;opacity:1;vector-effect:none;fill:#404040;fill-opacity:1;fill-rule:nonzero;stroke:none;stroke-width:2.63098;stroke-linecap:round;stroke-linejoin:round;stroke-miterlimit:4;stroke-dasharray:none;stroke-dashoffset:0;stroke-opacity:1;paint-order:stroke fill markers"
         d="M -580.69238 1210.6143 C -586.87517 1210.6143 -589.74316 1215.3229 -589.74316 1220.0323 C -589.74316 1224.9786 -587.24477 1228.6632 -583.06152 1229.5577 C -582.32485 1229.7156 -581.56083 1229.8194 -580.79785 1229.8194 C -579.74546 1231.8979 -577.53521 1234.2674 -575.32519 1235.0304 C -574.74638 1234.741 -572.66906 1232.7937 -572.27441 1231.7413 C -573.48466 1231.1362 -575.1416 1230.0831 -576.03613 1228.7413 C -573.0105 1227.1101 -571.58886 1223.7692 -571.58886 1220.4542 C -571.58886 1214.324 -575.14102 1210.6143 -580.69238 1210.6143 z M -562.56543 1210.8761 C -564.61759 1210.8761 -567.45995 1211.0092 -568.80175 1211.1671 C -569.03854 1212.9825 -569.14229 1228.2157 -569.01074 1229.4522 C -568.98443 1229.6101 -564.77579 1229.4774 -564.51269 1229.3722 C -564.40745 1228.6092 -564.40814 1225.0313 -564.38183 1223.2159 C -564.06611 1223.2422 -563.43457 1223.2686 -562.9873 1223.2686 C -562.88206 1223.2686 -562.74879 1223.2696 -562.64355 1223.2433 C -560.45984 1226.111 -558.1717 1229.8194 -558.09277 1229.8194 C -557.30348 1229.8457 -554.27866 1228.5832 -553.98925 1228.1886 C -553.91032 1228.0833 -555.96237 1224.8747 -557.96191 1222.4542 C -555.90975 1221.6123 -554.62011 1220.0068 -554.62011 1217.2706 C -554.62011 1212.8769 -557.51395 1210.8761 -562.56543 1210.8761 z M -580.56152 1214.8507 C -578.0884 1214.8507 -576.48339 1217.0068 -576.48339 1220.0851 C -576.48339 1223.3475 -577.90354 1225.505 -580.69238 1225.505 C -583.06026 1225.505 -584.74511 1223.6635 -584.74511 1220.2433 C -584.74511 1216.9808 -583.32404 1214.8507 -580.56152 1214.8507 z M -562.38183 1214.9542 C -560.09288 1214.9542 -559.3291 1215.9027 -559.3291 1217.3761 C -559.3291 1218.9547 -560.51349 1219.6378 -562.22363 1219.6378 C -562.82875 1219.6378 -563.61827 1219.6123 -564.11816 1219.5597 C -564.11816 1218.6388 -564.09185 1215.7446 -564.11816 1215.0343 C -563.59196 1214.9817 -562.88172 1214.9542 -562.38183 1214.9542 z " /><path
         style="display:inline;opacity:1;vector-effect:none;fill:none;fill-opacity:1;fill-rule:nonzero;stroke:#80909b;stroke-width:2.63098;stroke-linecap:round;stroke-linejoin:round;stroke-miterlimit:4;stroke-dasharray:none;stroke-dashoffset:0;stroke-opacity:1;paint-order:stroke fill markers"
         d="m -582.42009,1237.2921 v 5.2619 h 5.26196 v -5.2619"
         id="path2629"
         inkscape:connector-curvature="0" /><path
         style="display:inline;opacity:1;vector-effect:none;fill:none;fill-opacity:1;fill-rule:nonzero;stroke:#80909b;stroke-width:2.63098;stroke-linecap:round;stroke-linejoin:round;stroke-miterlimit:4;stroke-dasharray:none;stroke-dashoffset:0;stroke-opacity:1;paint-order:stroke fill markers"
         d="m -577.15813,1239.923 h 5.26196 v -2.6309"
         id="path2631"
         inkscape:connector-curvature="0" /><path
         style="display:inline;opacity:1;vector-effect:none;fill:none;fill-opacity:1;fill-rule:nonzero;stroke:#80909b;stroke-width:2.63098;stroke-linecap:round;stroke-linejoin:round;stroke-miterlimit:4;stroke-dasharray:none;stroke-dashoffset:0;stroke-opacity:1;paint-order:stroke fill markers"
         d="m -566.63421,1237.2921 v -2.631 h 5.26196 v 13.1549 h 2.63098"
         id="path2633"
         inkscape:connector-curvature="0" /><path
         style="display:inline;opacity:1;vector-effect:none;fill:none;fill-opacity:1;fill-rule:nonzero;stroke:#80909b;stroke-width:2.63098;stroke-linecap:round;stroke-linejoin:round;stroke-miterlimit:4;stroke-dasharray:none;stroke-dashoffset:0;stroke-opacity:1;paint-order:stroke fill markers"
         d="m -556.11029,1232.0301 h 5.26196 v -5.262 h 2.63098"
         id="path2635"
         inkscape:connector-curvature="0"
         sodipodi:nodetypes="cccc" /><path
         style="display:inline;opacity:1;vector-effect:none;fill:none;fill-opacity:1;fill-rule:nonzero;stroke:#80909b;stroke-width:2.63098;stroke-linecap:round;stroke-linejoin:round;stroke-miterlimit:4;stroke-dasharray:none;stroke-dashoffset:0;stroke-opacity:1;paint-order:stroke fill markers"
         d="m -561.37225,1245.185 h -5.26196 v 2.631"
         id="path2637"
         inkscape:connector-curvature="0" /><path
         style="display:inline;opacity:1;vector-effect:none;fill:none;fill-opacity:1;fill-rule:nonzero;stroke:#80909b;stroke-width:2.63098;stroke-linecap:round;stroke-linejoin:round;stroke-miterlimit:4;stroke-dasharray:none;stroke-dashoffset:0;stroke-opacity:1;paint-order:stroke fill markers"
         d="m -571.89617,1245.185 v 7.8929 h -5.26196 v -2.6309 h -5.26196 v 2.6309"
         id="path2639"
         inkscape:connector-curvature="0"
         sodipodi:nodetypes="cccccc" /><path
         style="display:inline;opacity:1;vector-effect:none;fill:none;fill-opacity:1;fill-rule:nonzero;stroke:#80909b;stroke-width:2.63098;stroke-linecap:round;stroke-linejoin:round;stroke-miterlimit:4;stroke-dasharray:none;stroke-dashoffset:0;stroke-opacity:1;paint-order:stroke fill markers"
         d="m -579.78911,1242.554 v 2.631"
         id="path2641"
         inkscape:connector-curvature="0"
         sodipodi:nodetypes="cc" /><path
         style="display:inline;opacity:1;vector-effect:none;fill:none;fill-opacity:1;fill-rule:nonzero;stroke:#80909b;stroke-width:2.63098;stroke-linecap:round;stroke-linejoin:round;stroke-miterlimit:4;stroke-dasharray:none;stroke-dashoffset:0;stroke-opacity:1;paint-order:stroke fill markers"
         d="m -564.00323,1253.0779 h 7.89294 v -2.6309 h 5.26196"
         id="path2643"
         inkscape:connector-curvature="0" /><path
         style="display:inline;opacity:1;vector-effect:none;fill:none;fill-opacity:1;fill-rule:nonzero;stroke:#80909b;stroke-width:2.63098;stroke-linecap:round;stroke-linejoin:round;stroke-miterlimit:4;stroke-dasharray:none;stroke-dashoffset:0;stroke-opacity:1;paint-order:stroke fill markers"
         d="m -548.21735,1253.0779 h 5.26196 v -2.6309 h 2.63099 v -5.262 h -2.63099"
         id="path2645"
         inkscape:connector-curvature="0" /><path
         style="display:inline;opacity:1;vector-effect:none;fill:none;fill-opacity:1;fill-rule:nonzero;stroke:#80909b;stroke-width:2.63098;stroke-linecap:round;stroke-linejoin:round;stroke-miterlimit:4;stroke-dasharray:none;stroke-dashoffset:0;stroke-opacity:1;paint-order:stroke fill markers"
         d="m -540.3244,1245.185 v -5.262 h -2.63099 v -7.8929"
         id="path2647"
         inkscape:connector-curvature="0" /><path
         style="display:inline;opacity:1;vector-effect:none;fill:none;fill-opacity:1;fill-rule:nonzero;stroke:#80909b;stroke-width:2.63098;stroke-linecap:round;stroke-linejoin:round;stroke-miterlimit:4;stroke-dasharray:none;stroke-dashoffset:0;stroke-opacity:1;paint-order:stroke fill markers"
         d="m -545.58637,1232.0301 h 5.26197 v -10.5239 h -10.52393"
         id="path2649"
         inkscape:connector-curvature="0" /><path
         style="display:inline;opacity:1;vector-effect:none;fill:none;fill-opacity:1;fill-rule:nonzero;stroke:#80909b;stroke-width:2.63098;stroke-linecap:round;stroke-linejoin:round;stroke-miterlimit:4;stroke-dasharray:none;stroke-dashoffset:0;stroke-opacity:1;paint-order:stroke fill markers"
         d="m -540.3244,1224.1372 h -2.63099 v -7.893 h -5.26196 v -2.631 h -2.63098 v -2.6309"
         id="path2651"
         inkscape:connector-curvature="0" /><path
         style="display:inline;opacity:1;vector-effect:none;fill:none;fill-opacity:1;fill-rule:nonzero;stroke:#80909b;stroke-width:2.63098;stroke-linecap:round;stroke-linejoin:round;stroke-miterlimit:4;stroke-dasharray:none;stroke-dashoffset:0;stroke-opacity:1;paint-order:stroke fill markers"
         d="m -545.58637,1210.9823 h 5.26197 v 2.6309"
         id="path2653"
         inkscape:connector-curvature="0" /></g></g></svg>
