<?xml version="1.0" encoding="UTF-8" standalone="no"?>
<!-- Created with Inkscape (http://www.inkscape.org/) -->

<svg
   width="82.38208"
   height="88.945709"
   viewBox="0 0 82.38208 88.945709"
   version="1.1"
   id="svg8"
   inkscape:version="1.3 (0e150ed6c4, 2023-07-21)"
   sodipodi:docname="dollphone feature graphic.svg"
   inkscape:export-filename="dollphone feature graphic.png"
   inkscape:export-xdpi="96"
   inkscape:export-ydpi="96"
   xml:space="preserve"
   xmlns:inkscape="http://www.inkscape.org/namespaces/inkscape"
   xmlns:sodipodi="http://sodipodi.sourceforge.net/DTD/sodipodi-0.dtd"
   xmlns="http://www.w3.org/2000/svg"
   xmlns:svg="http://www.w3.org/2000/svg"
   xmlns:rdf="http://www.w3.org/1999/02/22-rdf-syntax-ns#"
   xmlns:cc="http://creativecommons.org/ns#"
   xmlns:dc="http://purl.org/dc/elements/1.1/"><defs
     id="defs2"><clipPath
       clipPathUnits="userSpaceOnUse"
       id="clipPath3642"><path
         style="color:#000000;font-style:normal;font-variant:normal;font-weight:normal;font-stretch:normal;font-size:medium;line-height:normal;font-family:sans-serif;font-variant-ligatures:normal;font-variant-position:normal;font-variant-caps:normal;font-variant-numeric:normal;font-variant-alternates:normal;font-feature-settings:normal;text-indent:0;text-align:start;text-decoration:none;text-decoration-line:none;text-decoration-style:solid;text-decoration-color:#000000;letter-spacing:normal;word-spacing:normal;text-transform:none;writing-mode:lr-tb;direction:ltr;text-orientation:mixed;dominant-baseline:auto;baseline-shift:baseline;text-anchor:start;white-space:normal;shape-padding:0;clip-rule:nonzero;display:inline;overflow:visible;visibility:visible;opacity:1;isolation:auto;mix-blend-mode:normal;color-interpolation:sRGB;color-interpolation-filters:linearRGB;solid-color:#000000;solid-opacity:1;vector-effect:none;fill:#614840;fill-opacity:1;fill-rule:nonzero;stroke:none;stroke-width:4;stroke-linecap:butt;stroke-linejoin:round;stroke-miterlimit:4;stroke-dasharray:none;stroke-dashoffset:0;stroke-opacity:1;paint-order:stroke fill markers;color-rendering:auto;image-rendering:auto;shape-rendering:auto;text-rendering:auto;enable-background:accumulate"
         d="m 64,40.371094 c 7.689209,-10e-7 15.382709,0.127311 21.25,0.380859 2.933646,0.126774 5.416055,0.28672 7.175781,0.470703 0.839103,0.08773 1.486841,0.18306 1.931641,0.269532 0.08661,0.386534 0.182646,0.924072 0.271484,1.634765 0.117849,0.942769 0.200124,2.453923 0.294922,3.796875 -0.364289,-0.02894 -0.637824,-0.06333 -1.068359,-0.08984 C 91.908353,46.714063 89.290974,46.615523 86.207031,46.537109 80.039147,46.380281 72.020372,46.302734 64,46.302734 c -8.020371,0 -16.037679,0.07755 -22.205078,0.234375 -3.0837,0.07841 -5.7015,0.176953 -7.648438,0.296875 -0.432059,0.02661 -0.706925,0.06079 -1.072265,0.08984 0.09492,-1.34213 0.17887,-2.852592 0.296875,-3.794922 0.08904,-0.711001 0.184727,-1.250011 0.271484,-1.636718 0.444789,-0.08647 1.092544,-0.181802 1.931641,-0.269532 C 37.333932,41.038674 39.81636,40.878727 42.75,40.751953 48.61728,40.498405 56.310792,40.371094 64,40.371094 Z"
         id="path3644"
         inkscape:connector-curvature="0" /></clipPath></defs><sodipodi:namedview
     id="base"
     pagecolor="#ffffff"
     bordercolor="#666666"
     borderopacity="1.0"
     inkscape:pageopacity="0.0"
     inkscape:pageshadow="2"
     inkscape:zoom="0.85837285"
     inkscape:cx="654.72714"
     inkscape:cy="318.04361"
     inkscape:document-units="px"
     inkscape:current-layer="layer6"
     showgrid="true"
     units="px"
     inkscape:pagecheckerboard="true"
     borderlayer="true"
     gridtolerance="10"
     inkscape:snap-smooth-nodes="true"
     inkscape:snap-text-baseline="true"
     inkscape:snap-page="true"
     showguides="false"
     inkscape:guide-bbox="true"
     inkscape:snap-global="false"
     inkscape:showpageshadow="0"
     inkscape:deskcolor="#d1d1d1"
     inkscape:window-width="1858"
     inkscape:window-height="1057"
     inkscape:window-x="54"
     inkscape:window-y="-8"
     inkscape:window-maximized="1"><inkscape:grid
       type="xygrid"
       id="grid4131"
       empspacing="4"
       originx="-524.70221"
       originy="-423.24496"
       spacingy="1"
       spacingx="1"
       units="px"
       visible="true" /></sodipodi:namedview><metadata
     id="metadata5"><rdf:RDF><cc:Work
         rdf:about=""><dc:format>image/svg+xml</dc:format><dc:type
           rdf:resource="http://purl.org/dc/dcmitype/StillImage" /></cc:Work></rdf:RDF></metadata><g
     inkscape:groupmode="layer"
     id="layer6"
     inkscape:label="icons"
     transform="translate(-524.70221,-423.24496)"><g
       id="g4664"
       style="display:inline;opacity:1"
       transform="translate(500.89324,412.00669)"><path
         sodipodi:nodetypes="sssssssss"
         inkscape:connector-curvature="0"
         id="path3578"
         d="m 29.808968,67.993308 c 0,-12.690108 0.563,-25.379406 1.6875,-26.503906 1.1245,-1.1245 17.814203,-1.68675 34.503906,-1.68675 16.689704,-1e-6 33.379407,0.562249 34.503906,1.68675 1.1245,1.1245 1.68675,13.814203 1.68675,26.503906 0,12.689703 -0.56225,25.379406 -1.68675,26.503906 -1.124499,1.124501 -17.814202,1.686751 -34.503906,1.68675 -16.689703,0 -33.379406,-0.56225 -34.503906,-1.68675 -1.1245,-1.1245 -1.6875,-13.813798 -1.6875,-26.503906 z"
         style="display:inline;opacity:0.5;vector-effect:none;fill:#4c4c4c;fill-opacity:1;fill-rule:nonzero;stroke:#4c4c4c;stroke-width:8;stroke-linecap:butt;stroke-linejoin:round;stroke-miterlimit:4;stroke-dasharray:none;stroke-dashoffset:0;stroke-opacity:1;paint-order:stroke fill markers" /><path
         id="path7389"
         d="m 71.75,15.238281 c -1.97335,0 -3.605469,1.632119 -3.605469,3.605469 0,0.112945 0.02275,0.21961 0.0332,0.330078 l -33.2832,19.216797 a 1.50015,1.50015 0 1 0 1.5,2.597656 l 33.28125,-19.214843 c 0.589657,0.420897 1.303624,0.675781 2.074219,0.675781 1.97335,0 3.605469,-1.632119 3.605469,-3.605469 0,-1.97335 -1.632119,-3.605469 -3.605469,-3.605469 z"
         style="color:#000000;font-style:normal;font-variant:normal;font-weight:normal;font-stretch:normal;font-size:medium;line-height:normal;font-family:sans-serif;font-variant-ligatures:normal;font-variant-position:normal;font-variant-caps:normal;font-variant-numeric:normal;font-variant-alternates:normal;font-feature-settings:normal;text-indent:0;text-align:start;text-decoration:none;text-decoration-line:none;text-decoration-style:solid;text-decoration-color:#000000;letter-spacing:normal;word-spacing:normal;text-transform:none;writing-mode:lr-tb;direction:ltr;text-orientation:mixed;dominant-baseline:auto;baseline-shift:baseline;text-anchor:start;white-space:normal;shape-padding:0;clip-rule:nonzero;display:inline;overflow:visible;visibility:visible;opacity:0.5;isolation:auto;mix-blend-mode:normal;color-interpolation:sRGB;color-interpolation-filters:linearRGB;solid-color:#000000;solid-opacity:1;vector-effect:none;fill:#4c4c4c;fill-opacity:1;fill-rule:nonzero;stroke:none;stroke-width:3;stroke-linecap:round;stroke-linejoin:round;stroke-miterlimit:4;stroke-dasharray:none;stroke-dashoffset:0;stroke-opacity:1;paint-order:fill markers stroke;color-rendering:auto;image-rendering:auto;shape-rendering:auto;text-rendering:auto;enable-background:accumulate"
         inkscape:connector-curvature="0" /><path
         style="color:#000000;font-style:normal;font-variant:normal;font-weight:normal;font-stretch:normal;font-size:medium;line-height:normal;font-family:sans-serif;font-variant-ligatures:normal;font-variant-position:normal;font-variant-caps:normal;font-variant-numeric:normal;font-variant-alternates:normal;font-feature-settings:normal;text-indent:0;text-align:start;text-decoration:none;text-decoration-line:none;text-decoration-style:solid;text-decoration-color:#000000;letter-spacing:normal;word-spacing:normal;text-transform:none;writing-mode:lr-tb;direction:ltr;text-orientation:mixed;dominant-baseline:auto;baseline-shift:baseline;text-anchor:start;white-space:normal;shape-padding:0;clip-rule:nonzero;display:inline;overflow:visible;visibility:visible;opacity:1;isolation:auto;mix-blend-mode:normal;color-interpolation:sRGB;color-interpolation-filters:linearRGB;solid-color:#000000;solid-opacity:1;vector-effect:none;fill:#d6d6d6;fill-opacity:1;fill-rule:nonzero;stroke:none;stroke-width:3;stroke-linecap:round;stroke-linejoin:round;stroke-miterlimit:4;stroke-dasharray:none;stroke-dashoffset:0;stroke-opacity:1;paint-order:fill markers stroke;color-rendering:auto;image-rendering:auto;shape-rendering:auto;text-rendering:auto;enable-background:accumulate"
         d="m 69.75,11.238281 c -1.97335,0 -3.605469,1.632119 -3.605469,3.605469 0,0.112945 0.02275,0.21961 0.0332,0.330078 l -33.2832,19.216797 a 1.50015,1.50015 0 1 0 1.5,2.597656 l 33.28125,-19.214843 c 0.589657,0.420897 1.303624,0.675781 2.074219,0.675781 1.97335,0 3.605469,-1.632119 3.605469,-3.605469 0,-1.97335 -1.632119,-3.605469 -3.605469,-3.605469 z"
         id="path7380"
         inkscape:connector-curvature="0" /><path
         style="display:inline;opacity:1;vector-effect:none;fill:#9e6545;fill-opacity:1;fill-rule:nonzero;stroke:#614840;stroke-width:8;stroke-linecap:butt;stroke-linejoin:round;stroke-miterlimit:4;stroke-dasharray:none;stroke-dashoffset:0;stroke-opacity:1;paint-order:stroke fill markers"
         d="m 27.808968,63.993308 c 0,-12.690108 0.563,-25.379406 1.6875,-26.503906 1.1245,-1.1245 17.814203,-1.68675 34.503906,-1.68675 16.689704,-1e-6 33.379407,0.562249 34.503906,1.68675 1.124499,1.1245 1.68675,13.814203 1.68675,26.503906 0,12.689703 -0.562251,25.379406 -1.68675,26.503906 -1.124499,1.124501 -17.814202,1.686751 -34.503906,1.68675 -16.689703,0 -33.379406,-0.56225 -34.503906,-1.68675 -1.1245,-1.1245 -1.6875,-13.813798 -1.6875,-26.503906 z"
         id="path3580"
         inkscape:connector-curvature="0"
         sodipodi:nodetypes="sssssssss" /><path
         style="display:inline;opacity:1;vector-effect:none;fill:#c7d0d2;fill-opacity:1;fill-rule:nonzero;stroke:none;stroke-width:8;stroke-linecap:butt;stroke-linejoin:round;stroke-miterlimit:4;stroke-dasharray:none;stroke-dashoffset:0;stroke-opacity:1;paint-order:stroke fill markers"
         d="m 64,38.371094 c -15.422606,0 -30.845639,0.51115 -31.884766,1.533203 -0.564735,0.555455 -0.97051,4.2643 -1.228515,9.341797 0.002,-0.0012 0.0038,-0.0047 0.0059,-0.0059 1.079027,-0.625922 17.092621,-0.9375 33.107422,-0.9375 16.014804,-1e-6 32.030348,0.311578 33.109375,0.9375 6.81e-4,3.95e-4 0.0013,0.0016 0.002,0.002 C 96.853581,44.167343 96.449396,40.45957 95.884854,39.904303 94.84564,38.882243 79.422608,38.371093 64,38.371094 Z"
         id="path3612"
         inkscape:connector-curvature="0"
         sodipodi:nodetypes="ssccsccss" /><g
         inkscape:groupmode="maskhelper"
         id="g3639"
         clip-path="url(#clipPath3642)"
         style="opacity:1"><rect
           y="38.286167"
           x="30.449432"
           height="12.167665"
           width="67.376175"
           id="rect3637"
           style="opacity:1;vector-effect:none;fill:#f3f3f3;fill-opacity:1;fill-rule:nonzero;stroke:none;stroke-width:4;stroke-linecap:round;stroke-linejoin:round;stroke-miterlimit:4;stroke-dasharray:none;stroke-dashoffset:0;stroke-opacity:1;paint-order:stroke fill markers" /><path
           style="color:#000000;font-style:normal;font-variant:normal;font-weight:normal;font-stretch:normal;font-size:medium;line-height:normal;font-family:sans-serif;font-variant-ligatures:normal;font-variant-position:normal;font-variant-caps:normal;font-variant-numeric:normal;font-variant-alternates:normal;font-feature-settings:normal;text-indent:0;text-align:start;text-decoration:none;text-decoration-line:none;text-decoration-style:solid;text-decoration-color:#000000;letter-spacing:normal;word-spacing:normal;text-transform:none;writing-mode:lr-tb;direction:ltr;text-orientation:mixed;dominant-baseline:auto;baseline-shift:baseline;text-anchor:start;white-space:normal;shape-padding:0;clip-rule:nonzero;display:inline;overflow:visible;visibility:visible;opacity:1;isolation:auto;mix-blend-mode:normal;color-interpolation:sRGB;color-interpolation-filters:linearRGB;solid-color:#000000;solid-opacity:1;vector-effect:none;fill:#828282;fill-opacity:1;fill-rule:nonzero;stroke:none;stroke-width:4;stroke-linecap:butt;stroke-linejoin:round;stroke-miterlimit:4;stroke-dasharray:0.666667, 2;stroke-dashoffset:0;stroke-opacity:1;paint-order:stroke fill markers;color-rendering:auto;image-rendering:auto;shape-rendering:auto;text-rendering:auto;enable-background:accumulate"
           d="m 63.455975,39.913745 0.03035,4 0.308594,-0.002 h 0.01758 0.01758 l 0.28711,0.002 0.02878,-4 -0.317126,-0.002 h -0.0346 z m -2.623493,0.02148 -0.01412,4 0.667969,-0.0039 0.0016,-4 z m 5.284706,3.998047 0.666015,0.0059 -0.01183,-3.998047 -0.657315,-0.0078 z m -7.910121,-3.974609 -0.05473,4 0.666015,-0.0059 0.04602,-4 z m 10.576136,4 0.666016,0.0078 -0.05435,-4 -0.655392,-0.0078 z M 55.877636,39.978198 h -0.0346 l -0.294062,0.0078 -0.0275,3.998047 0.263672,-0.0059 0.367188,-0.0039 0.08663,-4 z m 15.571583,4.007812 0.332031,0.002 h 0.03516 l 0.263672,0.0078 -0.02712,-3.998047 -0.294061,-0.0078 -0.03652,-0.002 -0.35941,-0.002 z m -18.523734,-3.929687 -0.06806,3.998047 0.666016,-0.01758 0.05744,-3.998047 z m 21.154593,3.994141 0.666016,0.01953 -0.06964,-4 -0.655393,-0.01758 z m -23.778085,-3.923828 -0.110587,3.998046 0.666016,-0.01758 0.09996,-3.998047 z m 26.444101,3.998046 0.666015,0.01758 -0.112162,-3.998046 -0.655393,-0.01953 z M 47.90337,40.191089 h -0.0346 l -0.226793,0.01172 -0.07948,3.996094 0.191406,-0.0098 0.03711,-0.002 0.40039,-0.0098 0.142486,-3.998047 z m 31.508739,4.005859 0.367188,0.0098 0.263672,0.01172 -0.08493,-3.996093 -0.294061,-0.01172 -0.0346,-0.002 -0.361331,-0.0098 z m -34.391699,-3.876953 -0.121972,3.996094 0.666015,-0.0293 0.11135,-3.996094 z m 37.020606,3.988281 0.666015,0.03125 -0.127424,-3.996094 -0.655393,-0.03125 z m -39.642176,-3.86914 -0.164465,3.996093 0.666016,-0.0293 0.153841,-3.996093 z m 42.306238,3.990234 0.666016,0.0293 -0.169916,-3.996094 -0.655392,-0.0293 z m -44.799038,-3.876953 -0.03652,0.002 -0.12685,0.0078 -0.137204,3.992188 0.09375,-0.0059 h 0.01563 l 0.02148,-0.002 0.5,-0.02148 0.196333,-3.996094 z m 47.463101,3.996093 0.318359,0.01367 0.02148,0.002 h 0.01367 L 88,44.581714 l -0.144577,-3.992188 -0.307516,-0.01953 -0.03267,-0.002 -0.347878,-0.01563 z m -50.246118,-3.818359 -0.177711,3.992188 0.664063,-0.04102 0.169041,-3.992187 z m 52.873071,3.976563 0.666015,0.04102 -0.187037,-3.992187 -0.655392,-0.04297 z m -55.49272,-3.808594 -0.220171,3.992187 0.666016,-0.04297 0.209548,-3.992188 z m 58.154829,3.972656 0.664063,0.04297 -0.229467,-3.992188 -0.653471,-0.04297 z m -60.772556,-3.804687 -0.2626,3.992187 0.664062,-0.04297 0.25393,-3.992187 z m 63.432712,3.970703 0.324219,0.02148 -0.264553,-3.992187 -0.319048,-0.02148 z"
           id="path3646"
           inkscape:connector-curvature="0"
           sodipodi:nodetypes="cccccccccccccccccccccccccccccccccccccccccccccccccccccccccccccccccccccccccccccccccccccccccccccccccccccccccccccccccccccccccccccccccccccccccccccccccccccccccc" /><path
           style="opacity:1;vector-effect:none;fill:#f3f3f3;fill-opacity:1;fill-rule:nonzero;stroke:#eb6d6d;stroke-width:3;stroke-linecap:round;stroke-linejoin:round;stroke-miterlimit:4;stroke-dasharray:none;stroke-dashoffset:0;stroke-opacity:1;paint-order:stroke fill markers"
           d="M 71.704477,42.826341 V 47.42705"
           id="path7355"
           inkscape:connector-curvature="0"
           sodipodi:nodetypes="cc" /></g><path
         style="color:#000000;font-style:normal;font-variant:normal;font-weight:normal;font-stretch:normal;font-size:medium;line-height:normal;font-family:sans-serif;font-variant-ligatures:normal;font-variant-position:normal;font-variant-caps:normal;font-variant-numeric:normal;font-variant-alternates:normal;font-feature-settings:normal;text-indent:0;text-align:start;text-decoration:none;text-decoration-line:none;text-decoration-style:solid;text-decoration-color:#000000;letter-spacing:normal;word-spacing:normal;text-transform:none;writing-mode:lr-tb;direction:ltr;text-orientation:mixed;dominant-baseline:auto;baseline-shift:baseline;text-anchor:start;white-space:normal;shape-padding:0;clip-rule:nonzero;display:inline;overflow:visible;visibility:visible;opacity:1;isolation:auto;mix-blend-mode:normal;color-interpolation:sRGB;color-interpolation-filters:linearRGB;solid-color:#000000;solid-opacity:1;vector-effect:none;fill:#614840;fill-opacity:1;fill-rule:nonzero;stroke:none;stroke-width:4;stroke-linecap:butt;stroke-linejoin:round;stroke-miterlimit:4;stroke-dasharray:none;stroke-dashoffset:0;stroke-opacity:1;paint-order:stroke fill markers;color-rendering:auto;image-rendering:auto;shape-rendering:auto;text-rendering:auto;enable-background:accumulate"
         d="m 29.857422,47.53125 0.002,0.002 c -0.01968,0.0137 -0.04266,0.02727 -0.08203,0.05469 0.03205,-0.02328 0.08015,-0.05668 0.08008,-0.05664 z"
         id="path3631"
         inkscape:connector-curvature="0" /><path
         style="color:#000000;font-style:normal;font-variant:normal;font-weight:normal;font-stretch:normal;font-size:medium;line-height:normal;font-family:sans-serif;font-variant-ligatures:normal;font-variant-position:normal;font-variant-caps:normal;font-variant-numeric:normal;font-variant-alternates:normal;font-feature-settings:normal;text-indent:0;text-align:start;text-decoration:none;text-decoration-line:none;text-decoration-style:solid;text-decoration-color:#000000;letter-spacing:normal;word-spacing:normal;text-transform:none;writing-mode:lr-tb;direction:ltr;text-orientation:mixed;dominant-baseline:auto;baseline-shift:baseline;text-anchor:start;white-space:normal;shape-padding:0;clip-rule:nonzero;display:inline;overflow:visible;visibility:visible;opacity:1;isolation:auto;mix-blend-mode:normal;color-interpolation:sRGB;color-interpolation-filters:linearRGB;solid-color:#000000;solid-opacity:1;vector-effect:none;fill:#614840;fill-opacity:1;fill-rule:nonzero;stroke:none;stroke-width:4;stroke-linecap:butt;stroke-linejoin:round;stroke-miterlimit:4;stroke-dasharray:none;stroke-dashoffset:0;stroke-opacity:1;paint-order:stroke fill markers;color-rendering:auto;image-rendering:auto;shape-rendering:auto;text-rendering:auto;enable-background:accumulate"
         d="m 98.355469,47.701172 c 0.100882,0.079 0.2032,0.160235 0.203125,0.160156 -1.1e-5,-1.1e-5 0.0051,0.007 0.0059,0.0078 -7.6e-5,-8.2e-5 -0.104401,-0.08506 -0.208984,-0.167969 z"
         id="path3629"
         inkscape:connector-curvature="0" /><path
         style="color:#000000;font-style:normal;font-variant:normal;font-weight:normal;font-stretch:normal;font-size:medium;line-height:normal;font-family:sans-serif;font-variant-ligatures:normal;font-variant-position:normal;font-variant-caps:normal;font-variant-numeric:normal;font-variant-alternates:normal;font-feature-settings:normal;text-indent:0;text-align:start;text-decoration:none;text-decoration-line:none;text-decoration-style:solid;text-decoration-color:#000000;letter-spacing:normal;word-spacing:normal;text-transform:none;writing-mode:lr-tb;direction:ltr;text-orientation:mixed;dominant-baseline:auto;baseline-shift:baseline;text-anchor:start;white-space:normal;shape-padding:0;clip-rule:nonzero;display:inline;overflow:visible;visibility:visible;opacity:1;isolation:auto;mix-blend-mode:normal;color-interpolation:sRGB;color-interpolation-filters:linearRGB;solid-color:#000000;solid-opacity:1;vector-effect:none;fill:#614840;fill-opacity:1;fill-rule:nonzero;stroke:none;stroke-width:4;stroke-linecap:butt;stroke-linejoin:round;stroke-miterlimit:4;stroke-dasharray:none;stroke-dashoffset:0;stroke-opacity:1;paint-order:stroke fill markers;color-rendering:auto;image-rendering:auto;shape-rendering:auto;text-rendering:auto;enable-background:accumulate"
         d="m 29.443359,47.861328 c -0.06668,0.07021 -0.09855,0.111561 -0.101562,0.115234 -0.0032,0.0039 0.01863,-0.02772 0.08594,-0.09961 0.0037,-0.0039 0.01033,-0.01029 0.01563,-0.01563 z"
         id="path3627"
         inkscape:connector-curvature="0" /><path
         style="color:#000000;font-style:normal;font-variant:normal;font-weight:normal;font-stretch:normal;font-size:medium;line-height:normal;font-family:sans-serif;font-variant-ligatures:normal;font-variant-position:normal;font-variant-caps:normal;font-variant-numeric:normal;font-variant-alternates:normal;font-feature-settings:normal;text-indent:0;text-align:start;text-decoration:none;text-decoration-line:none;text-decoration-style:solid;text-decoration-color:#000000;letter-spacing:normal;word-spacing:normal;text-transform:none;writing-mode:lr-tb;direction:ltr;text-orientation:mixed;dominant-baseline:auto;baseline-shift:baseline;text-anchor:start;white-space:normal;shape-padding:0;clip-rule:nonzero;display:inline;overflow:visible;visibility:visible;opacity:1;isolation:auto;mix-blend-mode:normal;color-interpolation:sRGB;color-interpolation-filters:linearRGB;solid-color:#000000;solid-opacity:1;vector-effect:none;fill:#614840;fill-opacity:1;fill-rule:nonzero;stroke:none;stroke-width:4;stroke-linecap:butt;stroke-linejoin:round;stroke-miterlimit:4;stroke-dasharray:none;stroke-dashoffset:0;stroke-opacity:1;paint-order:stroke fill markers;color-rendering:auto;image-rendering:auto;shape-rendering:auto;text-rendering:auto;enable-background:accumulate"
         d="m 32.347656,50.611328 c -0.0082,0.0088 -0.0038,0.0054 -0.01367,0.01563 -0.01685,0.01754 -0.0401,0.03672 -0.07227,0.06641 0.03557,-0.03366 0.06623,-0.06099 0.08594,-0.08203 z"
         id="path3625"
         inkscape:connector-curvature="0" /><path
         style="color:#000000;font-style:normal;font-variant:normal;font-weight:normal;font-stretch:normal;font-size:medium;line-height:normal;font-family:sans-serif;font-variant-ligatures:normal;font-variant-position:normal;font-variant-caps:normal;font-variant-numeric:normal;font-variant-alternates:normal;font-feature-settings:normal;text-indent:0;text-align:start;text-decoration:none;text-decoration-line:none;text-decoration-style:solid;text-decoration-color:#000000;letter-spacing:normal;word-spacing:normal;text-transform:none;writing-mode:lr-tb;direction:ltr;text-orientation:mixed;dominant-baseline:auto;baseline-shift:baseline;text-anchor:start;white-space:normal;shape-padding:0;clip-rule:nonzero;display:inline;overflow:visible;visibility:visible;opacity:1;isolation:auto;mix-blend-mode:normal;color-interpolation:sRGB;color-interpolation-filters:linearRGB;solid-color:#000000;solid-opacity:1;vector-effect:none;fill:#614840;fill-opacity:1;fill-rule:nonzero;stroke:none;stroke-width:4;stroke-linecap:butt;stroke-linejoin:round;stroke-miterlimit:4;stroke-dasharray:none;stroke-dashoffset:0;stroke-opacity:1;paint-order:stroke fill markers;color-rendering:auto;image-rendering:auto;shape-rendering:auto;text-rendering:auto;enable-background:accumulate"
         d="m 95.822266,50.746094 c 0.133349,0.104442 0.288568,0.227046 0.292968,0.230468 -0.01505,-0.0085 0.0069,0.0038 -0.0098,-0.0059 1.07e-4,6.2e-5 -0.150715,-0.119599 -0.283203,-0.224609 z"
         id="path3623"
         inkscape:connector-curvature="0" /><path
         style="color:#000000;font-style:normal;font-variant:normal;font-weight:normal;font-stretch:normal;font-size:medium;line-height:normal;font-family:sans-serif;font-variant-ligatures:normal;font-variant-position:normal;font-variant-caps:normal;font-variant-numeric:normal;font-variant-alternates:normal;font-feature-settings:normal;text-indent:0;text-align:start;text-decoration:none;text-decoration-line:none;text-decoration-style:solid;text-decoration-color:#000000;letter-spacing:normal;word-spacing:normal;text-transform:none;writing-mode:lr-tb;direction:ltr;text-orientation:mixed;dominant-baseline:auto;baseline-shift:baseline;text-anchor:start;white-space:normal;shape-padding:0;clip-rule:nonzero;display:inline;overflow:visible;visibility:visible;opacity:1;isolation:auto;mix-blend-mode:normal;color-interpolation:sRGB;color-interpolation-filters:linearRGB;solid-color:#000000;solid-opacity:1;vector-effect:none;fill:#614840;fill-opacity:1;fill-rule:nonzero;stroke:none;stroke-width:4;stroke-linecap:butt;stroke-linejoin:round;stroke-miterlimit:4;stroke-dasharray:none;stroke-dashoffset:0;stroke-opacity:1;paint-order:stroke fill markers;color-rendering:auto;image-rendering:auto;shape-rendering:auto;text-rendering:auto;enable-background:accumulate"
         d="m 32.1875,50.761719 c -0.0013,0.0012 -0.01174,0.01174 -0.01172,0.01172 6.3e-5,-5.3e-5 -0.04515,0.0319 -0.07227,0.05078 0.03798,-0.02759 0.07739,-0.0577 0.08398,-0.0625 z"
         id="path3617"
         inkscape:connector-curvature="0" /><circle
         style="display:inline;opacity:1;vector-effect:none;fill:#a4a4a4;fill-opacity:1;fill-rule:nonzero;stroke:#614840;stroke-width:3;stroke-linecap:round;stroke-linejoin:round;stroke-miterlimit:4;stroke-dasharray:none;stroke-dashoffset:0;stroke-opacity:1;paint-order:fill markers stroke"
         id="path7357"
         cx="49.217804"
         cy="70.553993"
         r="16.344625" /><circle
         r="7.0130982"
         cy="70.553993"
         cx="49.217804"
         id="circle7374"
         style="display:inline;opacity:1;vector-effect:none;fill:#7e7e7e;fill-opacity:1;fill-rule:nonzero;stroke:none;stroke-width:3;stroke-linecap:round;stroke-linejoin:round;stroke-miterlimit:4;stroke-dasharray:none;stroke-dashoffset:0;stroke-opacity:1;paint-order:fill markers stroke" /><circle
         style="opacity:1;vector-effect:none;fill:#7e7e7e;fill-opacity:1;fill-rule:nonzero;stroke:#614840;stroke-width:3;stroke-linecap:round;stroke-linejoin:round;stroke-miterlimit:4;stroke-dasharray:none;stroke-dashoffset:0;stroke-opacity:1;paint-order:fill markers stroke"
         id="path7376"
         cx="87.493767"
         cy="61.395157"
         r="7.2768788" /><circle
         r="7.2768788"
         cy="79.715767"
         cx="87.151329"
         id="circle7378"
         style="opacity:1;vector-effect:none;fill:#7e7e7e;fill-opacity:1;fill-rule:nonzero;stroke:#614840;stroke-width:3;stroke-linecap:round;stroke-linejoin:round;stroke-miterlimit:4;stroke-dasharray:none;stroke-dashoffset:0;stroke-opacity:1;paint-order:fill markers stroke" /></g></g></svg>
