<?xml version="1.0" encoding="UTF-8" standalone="no"?>
<!-- Created with Inkscape (http://www.inkscape.org/) -->

<svg
   width="57"
   height="107.0003"
   viewBox="0 0 57 107.0003"
   version="1.1"
   id="svg8"
   inkscape:version="1.3 (0e150ed6c4, 2023-07-21)"
   sodipodi:docname="dollphone feature graphic.svg"
   inkscape:export-filename="dollphone feature graphic.png"
   inkscape:export-xdpi="96"
   inkscape:export-ydpi="96"
   xml:space="preserve"
   xmlns:inkscape="http://www.inkscape.org/namespaces/inkscape"
   xmlns:sodipodi="http://sodipodi.sourceforge.net/DTD/sodipodi-0.dtd"
   xmlns="http://www.w3.org/2000/svg"
   xmlns:svg="http://www.w3.org/2000/svg"
   xmlns:rdf="http://www.w3.org/1999/02/22-rdf-syntax-ns#"
   xmlns:cc="http://creativecommons.org/ns#"
   xmlns:dc="http://purl.org/dc/elements/1.1/"><defs
     id="defs2" /><sodipodi:namedview
     id="base"
     pagecolor="#ffffff"
     bordercolor="#666666"
     borderopacity="1.0"
     inkscape:pageopacity="0.0"
     inkscape:pageshadow="2"
     inkscape:zoom="0.85837285"
     inkscape:cx="654.72714"
     inkscape:cy="318.04361"
     inkscape:document-units="px"
     inkscape:current-layer="layer6"
     showgrid="true"
     units="px"
     inkscape:pagecheckerboard="true"
     borderlayer="true"
     gridtolerance="10"
     inkscape:snap-smooth-nodes="true"
     inkscape:snap-text-baseline="true"
     inkscape:snap-page="true"
     showguides="false"
     inkscape:guide-bbox="true"
     inkscape:snap-global="false"
     inkscape:showpageshadow="0"
     inkscape:deskcolor="#d1d1d1"
     inkscape:window-width="1858"
     inkscape:window-height="1057"
     inkscape:window-x="54"
     inkscape:window-y="-8"
     inkscape:window-maximized="1"><inkscape:grid
       type="xygrid"
       id="grid4131"
       empspacing="4"
       originx="-888.77979"
       originy="-5.8120003"
       spacingy="1"
       spacingx="1"
       units="px"
       visible="true" /></sodipodi:namedview><metadata
     id="metadata5"><rdf:RDF><cc:Work
         rdf:about=""><dc:format>image/svg+xml</dc:format><dc:type
           rdf:resource="http://purl.org/dc/dcmitype/StillImage" /></cc:Work></rdf:RDF></metadata><g
     inkscape:groupmode="layer"
     id="layer6"
     inkscape:label="icons"
     transform="translate(-888.77979,-5.8120003)"><g
       transform="translate(1488.176,-1176.6941)"
       id="g1321"><path
         inkscape:connector-curvature="0"
         id="path2566"
         d="m -569.89619,1189.5062 a 24,24 0 0 0 -23.22461,18.0683 c -0.0462,-0.013 -0.25426,-0.063 -0.27539,-0.068 -0.5,-0.134 -1,1.784 -1,4 v 4 c 0,2.216 0.5,3.866 1,4 0.0795,0.021 0.21401,0.054 0.29687,0.076 a 24,24 0 0 0 5.2129,9.7637 c 1.70635,11.6021 0.99221,50.1641 1.99023,52.1602 1,2 8,5 16,5 8,0 15,-3 16,-5 0.99762,-1.9953 0.28453,-40.5257 1.98828,-52.1446 a 24,24 0 0 0 5.19727,-9.7753 c 0.088,-0.024 0.23032,-0.058 0.31445,-0.08 0.5,-0.134 1,-1.784 1,-4 v -4 c 0,-2.216 -0.5,-4.134 -1,-4 -0.0204,0.01 -0.22188,0.054 -0.26562,0.066 a 24,24 0 0 0 -23.23438,-18.0664 z"
         style="display:inline;opacity:0.5;vector-effect:none;fill:none;fill-opacity:1;fill-rule:nonzero;stroke:#5a5c5c;stroke-width:6;stroke-linecap:butt;stroke-linejoin:round;stroke-miterlimit:4;stroke-dasharray:none;stroke-dashoffset:0;stroke-opacity:1;paint-order:stroke fill markers" /><path
         style="display:inline;opacity:1;vector-effect:none;fill:#b3bcbe;fill-opacity:1;fill-rule:nonzero;stroke:#5a5c5c;stroke-width:6;stroke-linecap:butt;stroke-linejoin:round;stroke-miterlimit:4;stroke-dasharray:none;stroke-dashoffset:0;stroke-opacity:1;paint-order:stroke fill markers"
         d="m -571.89619,1185.5062 a 24,24 0 0 0 -23.22461,18.0683 c -0.0462,-0.013 -0.25426,-0.063 -0.27539,-0.068 -0.5,-0.134 -1,1.784 -1,4 v 4 c 0,2.216 0.5,3.866 1,4 0.0795,0.021 0.21401,0.054 0.29687,0.076 a 24,24 0 0 0 5.2129,9.7637 c 1.70635,11.6021 0.99221,50.1641 1.99023,52.1602 1,2 8,5 16,5 8,0 15,-3 16,-5 0.99762,-1.9953 0.28453,-40.5257 1.98828,-52.1446 a 24,24 0 0 0 5.19727,-9.7753 c 0.088,-0.024 0.23032,-0.058 0.31445,-0.08 0.5,-0.134 1,-1.784 1,-4 v -4 c 0,-2.216 -0.5,-4.134 -1,-4 -0.0204,0.01 -0.22188,0.054 -0.26562,0.066 a 24,24 0 0 0 -23.23438,-18.0664 z"
         id="circle1961"
         inkscape:connector-curvature="0" /><circle
         style="display:inline;opacity:1;vector-effect:none;fill:#b3bcbe;fill-opacity:1;fill-rule:nonzero;stroke:#5a5c5c;stroke-width:2;stroke-linecap:butt;stroke-linejoin:round;stroke-miterlimit:4;stroke-dasharray:none;stroke-dashoffset:0;stroke-opacity:1;paint-order:fill markers stroke"
         id="path1947"
         cx="-571.89618"
         cy="1209.5061"
         r="24" /><path
         style="display:inline;opacity:1;vector-effect:none;fill:#8ba8ec;fill-opacity:1;fill-rule:nonzero;stroke:#5a5c5c;stroke-width:2;stroke-linecap:butt;stroke-linejoin:round;stroke-miterlimit:4;stroke-dasharray:none;stroke-dashoffset:0;stroke-opacity:1;paint-order:fill markers stroke"
         d="m -589.89619,1225.2679 c 1.71941,11.5174 1,50.2383 2,52.2383 1,2 8,5 16,5 8,0 15,-3 16,-5 1,-2 0.28059,-40.7209 2,-52.2383 -2,2 -12,4.2383 -18,4.2383 -6,0 -16,-2.2383 -18,-4.2383 z"
         id="path1949"
         inkscape:connector-curvature="0" /><circle
         style="display:inline;opacity:1;vector-effect:none;fill:#cbd1d2;fill-opacity:1;fill-rule:nonzero;stroke:none;stroke-width:3.66568;stroke-linecap:butt;stroke-linejoin:round;stroke-miterlimit:4;stroke-dasharray:none;stroke-dashoffset:0;stroke-opacity:1;paint-order:fill markers stroke"
         id="circle1970"
         cx="-573.89618"
         cy="1206.5836"
         r="15.077506" /><circle
         r="8.226306"
         cy="1197.5061"
         cx="-579.89618"
         id="circle1968"
         style="display:inline;opacity:1;vector-effect:none;fill:#e4e7e8;fill-opacity:1;fill-rule:nonzero;stroke:none;stroke-width:2;stroke-linecap:butt;stroke-linejoin:round;stroke-miterlimit:4;stroke-dasharray:none;stroke-dashoffset:0;stroke-opacity:1;paint-order:fill markers stroke" /><path
         style="display:inline;opacity:1;vector-effect:none;fill:#81737b;fill-opacity:1;fill-rule:nonzero;stroke:#5a5c5c;stroke-width:2;stroke-linecap:butt;stroke-linejoin:round;stroke-miterlimit:4;stroke-dasharray:none;stroke-dashoffset:0;stroke-opacity:1;paint-order:fill markers stroke"
         d="m -595.39619,1203.5062 c -0.5,-0.134 -1,1.784 -1,4 v 4 c 0,2.216 0.5,3.866 1,4 2.5,0.6698 6.5,2 23.5,2 17,0 21,-1.3302 23.5,-2 0.5,-0.134 1,-1.784 1,-4 v -4 c 0,-2.216 -0.5,-4.134 -1,-4 -0.45127,0.1209 -6.5,2 -23.5,2 -17,0 -23.04873,-1.8791 -23.5,-2 z"
         id="rect1955"
         inkscape:connector-curvature="0" /><rect
         style="display:inline;opacity:1;vector-effect:none;fill:#cbd1d2;fill-opacity:1;fill-rule:nonzero;stroke:#5a5c5c;stroke-width:2;stroke-linecap:butt;stroke-linejoin:round;stroke-miterlimit:4;stroke-dasharray:none;stroke-dashoffset:0;stroke-opacity:1;paint-order:fill markers stroke"
         id="rect1972"
         width="8"
         height="16"
         x="-575.89618"
         y="1237.5061"
         rx="2"
         ry="2" /></g></g></svg>
