<?xml version="1.0" encoding="UTF-8" standalone="no"?>
<!-- Created with Inkscape (http://www.inkscape.org/) -->

<svg
   width="87.469421"
   height="89.476501"
   viewBox="0 0 87.469421 89.476501"
   version="1.1"
   id="svg8"
   inkscape:version="1.3 (0e150ed6c4, 2023-07-21)"
   sodipodi:docname="dollphone feature graphic.svg"
   inkscape:export-filename="dollphone feature graphic.png"
   inkscape:export-xdpi="96"
   inkscape:export-ydpi="96"
   xml:space="preserve"
   xmlns:inkscape="http://www.inkscape.org/namespaces/inkscape"
   xmlns:sodipodi="http://sodipodi.sourceforge.net/DTD/sodipodi-0.dtd"
   xmlns="http://www.w3.org/2000/svg"
   xmlns:svg="http://www.w3.org/2000/svg"
   xmlns:rdf="http://www.w3.org/1999/02/22-rdf-syntax-ns#"
   xmlns:cc="http://creativecommons.org/ns#"
   xmlns:dc="http://purl.org/dc/elements/1.1/"><defs
     id="defs2" /><sodipodi:namedview
     id="base"
     pagecolor="#ffffff"
     bordercolor="#666666"
     borderopacity="1.0"
     inkscape:pageopacity="0.0"
     inkscape:pageshadow="2"
     inkscape:zoom="0.85837285"
     inkscape:cx="654.72714"
     inkscape:cy="318.04361"
     inkscape:document-units="px"
     inkscape:current-layer="layer6"
     showgrid="true"
     units="px"
     inkscape:pagecheckerboard="true"
     borderlayer="true"
     gridtolerance="10"
     inkscape:snap-smooth-nodes="true"
     inkscape:snap-text-baseline="true"
     inkscape:snap-page="true"
     showguides="false"
     inkscape:guide-bbox="true"
     inkscape:snap-global="false"
     inkscape:showpageshadow="0"
     inkscape:deskcolor="#d1d1d1"
     inkscape:window-width="1858"
     inkscape:window-height="1057"
     inkscape:window-x="54"
     inkscape:window-y="-8"
     inkscape:window-maximized="1"><inkscape:grid
       type="xygrid"
       id="grid4131"
       empspacing="4"
       originx="-916.09918"
       originy="-387.77557"
       spacingy="1"
       spacingx="1"
       units="px"
       visible="true" /></sodipodi:namedview><metadata
     id="metadata5"><rdf:RDF><cc:Work
         rdf:about=""><dc:format>image/svg+xml</dc:format><dc:type
           rdf:resource="http://purl.org/dc/dcmitype/StillImage" /></cc:Work></rdf:RDF></metadata><g
     inkscape:groupmode="layer"
     id="layer6"
     inkscape:label="icons"
     transform="translate(-916.09918,-387.77557)"><g
       transform="translate(1530.7301,-790.98882)"
       id="g1462"><path
         sodipodi:nodetypes="sccccccccccccccccccccccccccccccccccccccccccccccccccscccccccccccccscccccccccccccccc"
         inkscape:connector-curvature="0"
         id="path1457"
         d="m -563.8083,1185.7679 c -0.93001,-0.057 -1.7979,0.544 -2.04882,1.4805 l -1.69922,6.3457 c -4.44051,-0.3303 -8.80665,0.2765 -12.85938,1.6914 l -3.2832,-5.6895 c -0.277,-0.4797 -0.7211,-0.8013 -1.21485,-0.9336 -0.49374,-0.1323 -1.03779,-0.074 -1.51757,0.2032 l -6.92969,4 c -0.95956,0.554 -1.28642,1.7728 -0.73242,2.7324 l 3.28515,5.6875 c -3.25167,2.8023 -5.96032,6.2803 -7.89453,10.291 l -6.3457,-1.7012 c -1.07025,-0.2867 -2.16245,0.3438 -2.44922,1.4141 l -2.07031,7.7285 c -0.28677,1.0702 0.34381,2.1625 1.41406,2.4492 l 6.3457,1.6992 c -0.33029,4.4406 0.27654,8.8067 1.69141,12.8594 l -5.68945,3.2832 c -0.95956,0.554 -1.28447,1.7729 -0.73047,2.7324 l 4,6.9297 c 0.554,0.9596 1.77286,1.2865 2.73242,0.7325 l 5.6875,-3.2852 c 2.80233,3.2517 6.28027,5.9603 10.29101,7.8945 l -1.70117,6.3457 c -0.28677,1.0703 0.34382,2.1625 1.41407,2.4492 l 7.72851,2.0704 c 1.07025,0.2867 2.16245,-0.3439 2.44922,-1.4141 l 1.69922,-6.3457 c 4.44051,0.3303 8.80664,-0.2765 12.85937,-1.6914 l 3.28321,5.6894 c 0.554,0.9596 1.77286,1.2845 2.73242,0.7305 l 6.92969,-4 c 0.95956,-0.554 1.28642,-1.7728 0.73242,-2.7324 l -3.28516,-5.6875 c 3.25167,-2.8023 5.96031,-6.2803 7.89453,-10.291 l 6.34571,1.7011 c 1.07023,0.2868 2.16244,-0.3438 2.44921,-1.414 l 2.07032,-7.7285 c 0.28677,-1.0703 -0.34383,-2.1625 -1.41407,-2.4493 l -6.3457,-1.6992 c 0.3303,-4.4405 -0.27653,-8.8066 -1.6914,-12.8593 l 5.68945,-3.2832 c 0.95956,-0.554 1.28447,-1.7729 0.73046,-2.7325 l -3.99999,-6.9297 c -0.277,-0.4797 -0.72111,-0.8013 -1.21485,-0.9336 -0.49375,-0.1323 -1.03779,-0.076 -1.51757,0.2012 l -5.6875,3.2852 c -2.80233,-3.2517 -6.28028,-5.9603 -10.29102,-7.8946 l 1.70117,-6.3457 c 0.28677,-1.0702 -0.34381,-2.1624 -1.41406,-2.4492 l -7.72852,-2.0703 c -0.13378,-0.036 -0.26753,-0.058 -0.40039,-0.066 z m -6.36523,19.7402 c 1.79795,-0.027 3.62918,0.191 5.45312,0.6797 5.10983,1.3692 9.20807,4.6082 11.79493,8.7735 l -13.63868,7.875 c -0.49901,-0.5104 -1.12549,-0.8779 -1.81445,-1.0645 -0.68939,-0.1822 -1.41495,-0.1768 -2.10156,0.016 l -8.21289,-14.2246 c 2.61947,-1.2855 5.52294,-2.0098 8.51953,-2.0547 z m -10.26758,3.0274 8.22852,14.2519 c -0.51006,0.4985 -0.87756,1.1242 -1.06446,1.8125 -0.18257,0.69 -0.17717,1.4164 0.0156,2.1036 l -14.25195,8.2285 c -2.3138,-4.323 -3.07034,-9.4918 -1.70117,-14.6016 1.36917,-5.1098 4.60817,-9.2081 8.77344,-11.7949 z m 28.48828,8.1738 c 2.05691,4.1912 2.67826,9.1088 1.375,13.9727 -1.30327,4.8638 -4.30081,8.8128 -8.17773,11.414 l -7.85742,-13.6113 c 0.50965,-0.4993 0.87649,-1.1257 1.0625,-1.8145 0.18283,-0.6892 0.17811,-1.4147 -0.0137,-2.1015 z m -20.30859,11.7266 c 0.4987,0.5093 1.12445,0.8762 1.8125,1.0625 0.68983,0.1832 1.41612,0.1785 2.10351,-0.014 l 7.875,13.6387 c -4.32292,2.3138 -9.49173,3.0703 -14.60156,1.7011 -4.86386,-1.3032 -8.81287,-4.3008 -11.41406,-8.1777 z"
         style="display:inline;opacity:0.5;vector-effect:none;fill:#4c4c4c;fill-opacity:1;fill-rule:nonzero;stroke:#4c4c4c;stroke-width:6;stroke-linecap:butt;stroke-linejoin:round;stroke-miterlimit:4;stroke-dasharray:none;stroke-dashoffset:0;stroke-opacity:1;paint-order:fill markers stroke" /><path
         style="display:inline;opacity:1;vector-effect:none;fill:#f7ffff;fill-opacity:1;fill-rule:nonzero;stroke:#657580;stroke-width:6;stroke-linecap:butt;stroke-linejoin:round;stroke-miterlimit:4;stroke-dasharray:none;stroke-dashoffset:0;stroke-opacity:1;paint-order:fill markers stroke"
         d="m -565.8083,1181.7679 c -0.93001,-0.057 -1.7979,0.544 -2.04882,1.4805 l -1.69922,6.3457 c -4.44051,-0.3303 -8.80665,0.2765 -12.85938,1.6914 l -3.2832,-5.6895 c -0.277,-0.4797 -0.7211,-0.8013 -1.21485,-0.9336 -0.49374,-0.1323 -1.03779,-0.074 -1.51757,0.2032 l -6.92969,4 c -0.95956,0.554 -1.28642,1.7728 -0.73242,2.7324 l 3.28515,5.6875 c -3.25167,2.8023 -5.96032,6.2803 -7.89453,10.291 l -6.3457,-1.7012 c -1.07025,-0.2867 -2.16245,0.3438 -2.44922,1.4141 l -2.07031,7.7285 c -0.28677,1.0702 0.34381,2.1625 1.41406,2.4492 l 6.3457,1.6992 c -0.33029,4.4406 0.27654,8.8067 1.69141,12.8594 l -5.68945,3.2832 c -0.95956,0.554 -1.28447,1.7729 -0.73047,2.7324 l 4,6.9297 c 0.554,0.9596 1.77286,1.2865 2.73242,0.7325 l 5.6875,-3.2852 c 2.80233,3.2517 6.28027,5.9603 10.29101,7.8945 l -1.70117,6.3457 c -0.28677,1.0703 0.34382,2.1625 1.41407,2.4492 l 7.72851,2.0704 c 1.07025,0.2867 2.16245,-0.3439 2.44922,-1.4141 l 1.69922,-6.3457 c 4.44051,0.3303 8.80664,-0.2765 12.85937,-1.6914 l 3.28321,5.6894 c 0.554,0.9596 1.77286,1.2845 2.73242,0.7305 l 6.92969,-4 c 0.95956,-0.554 1.28642,-1.7728 0.73242,-2.7324 l -3.28516,-5.6875 c 3.25167,-2.8023 5.96031,-6.2803 7.89453,-10.291 l 6.34571,1.7011 c 1.07023,0.2868 2.16244,-0.3438 2.44921,-1.414 l 2.07032,-7.7285 c 0.28677,-1.0703 -0.34383,-2.1625 -1.41407,-2.4493 l -6.3457,-1.6992 c 0.3303,-4.4405 -0.27653,-8.8066 -1.6914,-12.8593 l 5.68945,-3.2832 c 0.95956,-0.554 1.28447,-1.7729 0.73046,-2.7325 l -3.99999,-6.9297 c -0.277,-0.4797 -0.72111,-0.8013 -1.21485,-0.9336 -0.49375,-0.1323 -1.03779,-0.076 -1.51757,0.2012 l -5.6875,3.2852 c -2.80233,-3.2517 -6.28028,-5.9603 -10.29102,-7.8946 l 1.70117,-6.3457 c 0.28677,-1.0702 -0.34381,-2.1624 -1.41406,-2.4492 l -7.72852,-2.0703 c -0.13378,-0.036 -0.26753,-0.058 -0.40039,-0.066 z m -6.36523,19.7402 c 1.79795,-0.027 3.62918,0.191 5.45312,0.6797 5.10983,1.3692 9.20807,4.6082 11.79493,8.7735 l -13.63868,7.875 c -0.49901,-0.5104 -1.12549,-0.8779 -1.81445,-1.0645 -0.68939,-0.1822 -1.41495,-0.1768 -2.10156,0.016 l -8.21289,-14.2246 c 2.61947,-1.2855 5.52294,-2.0098 8.51953,-2.0547 z m -10.26758,3.0274 8.22852,14.2519 c -0.51006,0.4985 -0.87756,1.1242 -1.06446,1.8125 -0.18257,0.69 -0.17717,1.4164 0.0156,2.1036 l -14.25195,8.2285 c -2.3138,-4.323 -3.07034,-9.4918 -1.70117,-14.6016 1.36917,-5.1098 4.60817,-9.2081 8.77344,-11.7949 z m 28.48828,8.1738 c 2.05691,4.1912 2.67826,9.1088 1.375,13.9727 -1.30327,4.8638 -4.30081,8.8128 -8.17773,11.414 l -7.85742,-13.6113 c 0.50965,-0.4993 0.87649,-1.1257 1.0625,-1.8145 0.18283,-0.6892 0.17811,-1.4147 -0.0137,-2.1015 z m -20.30859,11.7266 c 0.4987,0.5093 1.12445,0.8762 1.8125,1.0625 0.68983,0.1832 1.41612,0.1785 2.10351,-0.014 l 7.875,13.6387 c -4.32292,2.3138 -9.49173,3.0703 -14.60156,1.7011 -4.86386,-1.3032 -8.81287,-4.3008 -11.41406,-8.1777 z"
         id="path1890"
         inkscape:connector-curvature="0"
         sodipodi:nodetypes="sccccccccccccccccccccccccccccccccccccccccccccccccccscccccccccccccscccccccccccccccc" /><path
         inkscape:connector-curvature="0"
         id="path1854"
         d="m -565.40714,1181.8339 c -1.07025,-0.2868 -2.16272,0.3439 -2.44949,1.4142 l -1.70052,6.3464 c -4.44051,-0.3303 -8.80539,0.2758 -12.85811,1.6906 l -3.28418,-5.6883 c -0.277,-0.4798 -0.71998,-0.8016 -1.21373,-0.9339 -0.49374,-0.1323 -1.03825,-0.075 -1.51803,0.2019 l -6.92986,4.001 c -0.95955,0.554 -1.28597,1.7722 -0.73197,2.7317 l 3.28418,5.6884 c -3.25168,2.8023 -5.95897,6.2794 -7.89318,10.2901 l -6.34643,-1.7005 c -1.07025,-0.2868 -2.16272,0.344 -2.44949,1.4142 l -2.07055,7.7274 c -0.28678,1.0703 0.34396,2.1627 1.41421,2.4495 l 6.34643,1.7005 c -0.33029,4.4405 0.27575,8.8054 1.69062,12.8582 l -5.68836,3.2841 c -0.95956,0.554 -1.28598,1.7722 -0.73198,2.7318 l 4.00096,6.9298 c 0.554,0.9596 1.7722,1.286 2.73176,0.732 l 5.68836,-3.2842 c 2.80233,3.2517 6.27941,5.959 10.29015,7.8932 l -1.70053,6.3465 c -0.28677,1.0702 0.34397,2.1627 1.41422,2.4494 l 7.72741,2.0706 c 1.07024,0.2868 2.16271,-0.344 2.44948,-1.4142 l 1.70052,-6.3465 c 4.44051,0.3303 8.80539,-0.2757 12.85812,-1.6906 l 3.28418,5.6884 c 0.554,0.9596 1.7722,1.286 2.73176,0.732 l 6.92985,-4.001 c 0.95956,-0.554 1.28598,-1.7722 0.73198,-2.7318 l -3.28418,-5.6883 c 3.25167,-2.8023 5.95896,-6.2794 7.89318,-10.2902 l 6.34643,1.7006 c 1.07024,0.2867 2.16272,-0.344 2.44949,-1.4142 l 2.07055,-7.7275 c 0.28677,-1.0702 -0.34397,-2.1627 -1.41421,-2.4494 l -6.34644,-1.7006 c 0.3303,-4.4405 -0.27575,-8.8054 -1.69062,-12.8581 l 5.68837,-3.2842 c 0.95956,-0.554 1.28598,-1.7722 0.73197,-2.7317 l -4.00095,-6.9299 c -0.277,-0.4798 -0.71998,-0.8015 -1.21372,-0.9338 -0.49375,-0.1323 -1.03826,-0.075 -1.51804,0.2019 l -5.68837,3.2841 c -2.80233,-3.2516 -6.2794,-5.9589 -10.29014,-7.8931 l 1.70052,-6.3465 c 0.28677,-1.0702 -0.34397,-2.1627 -1.41422,-2.4495 z m -1.31268,20.3538 c 5.10983,1.3691 9.20833,4.6084 11.79519,8.7736 l -13.63964,7.8749 a 4,4 0 0 0 -1.81369,-1.0643 4,4 0 0 0 -2.10284,0.015 l -8.21183,-14.2233 c 4.19116,-2.0569 9.10895,-2.679 13.97281,-1.3757 z m -15.72124,2.3469 8.2284,14.252 a 4,4 0 0 0 -1.06428,1.8137 4,4 0 0 0 0.0149,2.1029 l -14.25201,8.2284 c -2.3138,-4.323 -3.06978,-9.492 -1.70061,-14.6018 1.36918,-5.1098 4.60838,-9.2083 8.77365,-11.7952 z m 28.48762,8.1752 c 2.05691,4.1911 2.67902,9.1089 1.37576,13.9728 -1.30327,4.8638 -4.30093,8.8117 -8.17785,11.4129 l -7.85828,-13.6109 a 4,4 0 0 0 1.06428,-1.8137 4,4 0 0 0 -0.0148,-2.1029 z m -20.30876,11.7252 a 4,4 0 0 0 1.81369,1.0643 4,4 0 0 0 2.10284,-0.015 l 7.87484,13.6396 c -4.32292,2.3138 -9.49192,3.0698 -14.60175,1.7006 -4.86385,-1.3032 -8.81174,-4.3009 -11.41293,-8.1778 z"
         style="display:inline;opacity:1;vector-effect:none;fill:#f7ffff;fill-opacity:1;fill-rule:nonzero;stroke:#657580;stroke-width:1;stroke-linecap:butt;stroke-linejoin:round;stroke-miterlimit:4;stroke-dasharray:none;stroke-dashoffset:0;stroke-opacity:1;paint-order:fill markers stroke" /></g></g></svg>
