<?xml version="1.0" encoding="UTF-8" standalone="no"?>
<!-- Created with Inkscape (http://www.inkscape.org/) -->

<svg
   width="136.33456"
   height="75.4534"
   viewBox="0 0 136.33456 75.4534"
   version="1.1"
   id="svg8"
   inkscape:version="1.3 (0e150ed6c4, 2023-07-21)"
   sodipodi:docname="dollphone feature graphic.svg"
   inkscape:export-filename="dollphone feature graphic.png"
   inkscape:export-xdpi="96"
   inkscape:export-ydpi="96"
   xml:space="preserve"
   xmlns:inkscape="http://www.inkscape.org/namespaces/inkscape"
   xmlns:sodipodi="http://sodipodi.sourceforge.net/DTD/sodipodi-0.dtd"
   xmlns="http://www.w3.org/2000/svg"
   xmlns:svg="http://www.w3.org/2000/svg"
   xmlns:rdf="http://www.w3.org/1999/02/22-rdf-syntax-ns#"
   xmlns:cc="http://creativecommons.org/ns#"
   xmlns:dc="http://purl.org/dc/elements/1.1/"><defs
     id="defs2"><filter
       style="color-interpolation-filters:sRGB"
       inkscape:label="Drop Shadow"
       id="filter4260"
       x="-0.016666667"
       y="-0.016666667"
       width="1.0650538"
       height="1.101773"><feFlood
         flood-opacity="0.498039"
         flood-color="rgb(76,76,76)"
         result="flood"
         id="feFlood4250" /><feComposite
         in="flood"
         in2="SourceGraphic"
         operator="in"
         result="composite1"
         id="feComposite4252" /><feOffset
         dx="2"
         dy="4"
         result="offset"
         id="feOffset4256" /><feComposite
         in="SourceGraphic"
         in2="offset"
         operator="over"
         result="composite2"
         id="feComposite4258" /></filter></defs><sodipodi:namedview
     id="base"
     pagecolor="#ffffff"
     bordercolor="#666666"
     borderopacity="1.0"
     inkscape:pageopacity="0.0"
     inkscape:pageshadow="2"
     inkscape:zoom="0.85837285"
     inkscape:cx="654.72714"
     inkscape:cy="318.04361"
     inkscape:document-units="px"
     inkscape:current-layer="layer6"
     showgrid="true"
     units="px"
     inkscape:pagecheckerboard="true"
     borderlayer="true"
     gridtolerance="10"
     inkscape:snap-smooth-nodes="true"
     inkscape:snap-text-baseline="true"
     inkscape:snap-page="true"
     showguides="false"
     inkscape:guide-bbox="true"
     inkscape:snap-global="false"
     inkscape:showpageshadow="0"
     inkscape:deskcolor="#d1d1d1"
     inkscape:window-width="1858"
     inkscape:window-height="1057"
     inkscape:window-x="54"
     inkscape:window-y="-8"
     inkscape:window-maximized="1"><inkscape:grid
       type="xygrid"
       id="grid4131"
       empspacing="4"
       originx="-405.70395"
       originy="-250.11923"
       spacingy="1"
       spacingx="1"
       units="px"
       visible="true" /></sodipodi:namedview><metadata
     id="metadata5"><rdf:RDF><cc:Work
         rdf:about=""><dc:format>image/svg+xml</dc:format><dc:type
           rdf:resource="http://purl.org/dc/dcmitype/StillImage" /></cc:Work></rdf:RDF></metadata><g
     inkscape:groupmode="layer"
     id="layer6"
     inkscape:label="icons"
     transform="translate(-405.70395,-250.11923)"><g
       style="filter:url(#filter4260)"
       transform="translate(1043.7355,-936.00497)"
       id="g1785"><path
         inkscape:connector-curvature="0"
         id="path2085"
         d="m -571.95703,1187.2656 c -12.91641,0.2 -42.18436,0.185 -48.52344,0.25 -3.16954,0.033 -5.59882,0.082 -7.4707,0.1992 -1.87188,0.1174 -2.82465,-0.1576 -4.94141,1.0411 -0.83177,0.4715 -1.46714,1.2254 -1.79101,2.125 -0.54126,1.5017 -0.49671,2.2523 -0.62891,3.8086 -0.1322,1.5562 -0.24369,3.5708 -0.33398,6.0742 -0.18036,5.0002 -0.27639,11.9459 -0.2461,20.7285 -2e-5,0.01 2e-5,0.01 0,0.014 2e-5,0.01 -2e-5,0.01 0,0.014 -0.0303,8.7826 0.0657,15.7303 0.2461,20.7305 0.0903,2.5034 0.20178,4.516 0.33398,6.0723 0.1322,1.5562 0.0876,2.3087 0.62891,3.8105 0.32426,0.8989 0.95959,1.652 1.79101,2.1231 2.11682,1.1988 3.06952,0.9236 4.94141,1.041 1.87189,0.1174 4.30116,0.1667 7.4707,0.1992 6.33908,0.065 35.60704,0.052 48.52344,0.2519 0.0417,7e-4 0.0833,7e-4 0.125,0 12.9164,-0.2 42.18436,-0.1869 48.52344,-0.2519 3.16954,-0.033 5.59881,-0.082 7.4707,-0.1992 1.87189,-0.1174 2.8246,0.1578 4.94141,-1.041 0.83142,-0.4711 1.46675,-1.2242 1.79101,-2.1231 0.54132,-1.5018 0.49671,-2.2543 0.62891,-3.8105 0.1322,-1.5563 0.24368,-3.5689 0.33398,-6.0723 0.18048,-5.0035 0.27658,-11.9533 0.2461,-20.7441 0.0305,-8.7909 -0.0656,-15.7387 -0.2461,-20.7422 -0.0903,-2.5034 -0.20178,-4.518 -0.33398,-6.0742 -0.13221,-1.5563 -0.0877,-2.3069 -0.62891,-3.8086 -0.32387,-0.8996 -0.95924,-1.6535 -1.79101,-2.125 -2.11675,-1.1987 -3.06953,-0.9237 -4.94141,-1.0411 -1.87188,-0.1173 -4.30116,-0.1667 -7.4707,-0.1992 -6.33908,-0.065 -35.60704,-0.05 -48.52344,-0.25 -0.0417,-7e-4 -0.0833,-7e-4 -0.125,0 z"
         style="color:#000000;font-style:normal;font-variant:normal;font-weight:normal;font-stretch:normal;font-size:medium;line-height:normal;font-family:sans-serif;font-variant-ligatures:normal;font-variant-position:normal;font-variant-caps:normal;font-variant-numeric:normal;font-variant-alternates:normal;font-feature-settings:normal;text-indent:0;text-align:start;text-decoration:none;text-decoration-line:none;text-decoration-style:solid;text-decoration-color:#000000;letter-spacing:normal;word-spacing:normal;text-transform:none;writing-mode:lr-tb;direction:ltr;text-orientation:mixed;dominant-baseline:auto;baseline-shift:baseline;text-anchor:start;white-space:normal;shape-padding:0;clip-rule:nonzero;display:inline;overflow:visible;visibility:visible;opacity:1;isolation:auto;mix-blend-mode:normal;color-interpolation:sRGB;color-interpolation-filters:linearRGB;solid-color:#000000;solid-opacity:1;vector-effect:none;fill:#9a6fc7;fill-opacity:1;fill-rule:nonzero;stroke:none;stroke-width:8;stroke-linecap:round;stroke-linejoin:round;stroke-miterlimit:4;stroke-dasharray:none;stroke-dashoffset:0;stroke-opacity:1;paint-order:stroke fill markers;color-rendering:auto;image-rendering:auto;shape-rendering:auto;text-rendering:auto;enable-background:accumulate" /><path
         inkscape:connector-curvature="0"
         id="path7401"
         d="m -571.89453,1191.2645 c -25.89773,0.401 -37.21433,-0.054 -39.0265,0.9718 -0.58378,1.6197 -1.03293,11.7455 -0.97185,29.2699 -0.0611,17.5244 0.38807,27.6502 0.97185,29.2698 1.81217,1.0263 13.12877,0.5708 39.0265,0.9719 25.89772,-0.4011 37.21431,0.054 39.02649,-0.9719 0.58378,-1.6196 1.03293,-11.7454 0.97185,-29.2698 0.0611,-17.5244 -0.38807,-27.6502 -0.97185,-29.2699 -1.81218,-1.0262 -13.12877,-0.5708 -39.02649,-0.9718 z"
         style="display:inline;opacity:1;vector-effect:none;fill:#fac5ff;fill-opacity:1;fill-rule:nonzero;stroke:#9a6fc7;stroke-width:8;stroke-linecap:round;stroke-linejoin:round;stroke-miterlimit:4;stroke-dasharray:none;stroke-dashoffset:0;stroke-opacity:1;paint-order:stroke fill markers" /><path
         style="display:inline;opacity:1;vector-effect:none;fill:#6b5a83;fill-opacity:1;fill-rule:nonzero;stroke:none;stroke-width:4;stroke-linecap:round;stroke-linejoin:round;stroke-miterlimit:4;stroke-dasharray:none;stroke-dashoffset:0;stroke-opacity:1;paint-order:fill markers stroke"
         d="m -624.09541,1215.307 c -5.30875,0.082 -7.62852,-0.011 -8,0.1992 -0.11967,0.332 -0.21174,2.4077 -0.19922,6 -0.0125,3.5923 0.0796,5.668 0.19922,6 0.37148,0.2103 2.69125,0.117 8,0.1992 5.30875,-0.082 7.62852,0.011 8,-0.1992 0.11967,-0.332 0.21174,-2.4077 0.19922,-6 0.0125,-3.5923 -0.0795,-5.668 -0.19922,-6 -0.37148,-0.2104 -2.69125,-0.117 -8,-0.1992 z"
         id="rect7369"
         inkscape:connector-curvature="0" /><path
         inkscape:connector-curvature="0"
         id="path7381"
         d="m -624.09541,1195.307 c -5.30875,0.082 -7.62852,-0.011 -8,0.1992 -0.11967,0.332 -0.21174,2.4077 -0.19922,6 -0.0125,3.5923 0.0796,5.668 0.19922,6 0.37148,0.2103 2.69125,0.117 8,0.1992 5.30875,-0.082 7.62852,0.011 8,-0.1992 0.11967,-0.332 0.21174,-2.4077 0.19922,-6 0.0125,-3.5923 -0.0795,-5.668 -0.19922,-6 -0.37148,-0.2104 -2.69125,-0.117 -8,-0.1992 z"
         style="display:inline;opacity:1;vector-effect:none;fill:#6b5a83;fill-opacity:1;fill-rule:nonzero;stroke:none;stroke-width:4;stroke-linecap:round;stroke-linejoin:round;stroke-miterlimit:4;stroke-dasharray:none;stroke-dashoffset:0;stroke-opacity:1;paint-order:fill markers stroke" /><path
         inkscape:connector-curvature="0"
         id="path7385"
         d="m -624.09541,1235.307 c -5.30875,0.082 -7.62852,-0.011 -8,0.1992 -0.11967,0.332 -0.21174,2.4077 -0.19922,6 -0.0125,3.5923 0.0796,5.668 0.19922,6 0.37148,0.2103 2.69125,0.117 8,0.1992 5.30875,-0.082 7.62852,0.011 8,-0.1992 0.11967,-0.332 0.21174,-2.4077 0.19922,-6 0.0125,-3.5923 -0.0795,-5.668 -0.19922,-6 -0.37148,-0.2104 -2.69125,-0.117 -8,-0.1992 z"
         style="display:inline;opacity:1;vector-effect:none;fill:#6b5a83;fill-opacity:1;fill-rule:nonzero;stroke:none;stroke-width:4;stroke-linecap:round;stroke-linejoin:round;stroke-miterlimit:4;stroke-dasharray:none;stroke-dashoffset:0;stroke-opacity:1;paint-order:fill markers stroke" /><path
         inkscape:connector-curvature="0"
         id="path7390"
         d="m -520.09541,1215.307 c -5.30875,0.082 -7.62852,-0.011 -8,0.1992 -0.11967,0.332 -0.21174,2.4077 -0.19922,6 -0.0125,3.5923 0.0795,5.668 0.19922,6 0.37148,0.2103 2.69125,0.117 8,0.1992 5.30875,-0.082 7.62853,0.011 8,-0.1992 0.11967,-0.332 0.21174,-2.4077 0.19922,-6 0.0125,-3.5923 -0.0795,-5.668 -0.19922,-6 -0.37147,-0.2104 -2.69125,-0.117 -8,-0.1992 z"
         style="display:inline;opacity:1;vector-effect:none;fill:#6b5a83;fill-opacity:1;fill-rule:nonzero;stroke:none;stroke-width:4;stroke-linecap:round;stroke-linejoin:round;stroke-miterlimit:4;stroke-dasharray:none;stroke-dashoffset:0;stroke-opacity:1;paint-order:fill markers stroke" /><path
         style="display:inline;opacity:1;vector-effect:none;fill:#6b5a83;fill-opacity:1;fill-rule:nonzero;stroke:none;stroke-width:4;stroke-linecap:round;stroke-linejoin:round;stroke-miterlimit:4;stroke-dasharray:none;stroke-dashoffset:0;stroke-opacity:1;paint-order:fill markers stroke"
         d="m -520.09541,1195.307 c -5.30875,0.082 -7.62852,-0.011 -8,0.1992 -0.11967,0.332 -0.21174,2.4077 -0.19922,6 -0.0125,3.5923 0.0795,5.668 0.19922,6 0.37148,0.2103 2.69125,0.117 8,0.1992 5.30875,-0.082 7.62853,0.011 8,-0.1992 0.11967,-0.332 0.21174,-2.4077 0.19922,-6 0.0125,-3.5923 -0.0795,-5.668 -0.19922,-6 -0.37147,-0.2104 -2.69125,-0.117 -8,-0.1992 z"
         id="path7393"
         inkscape:connector-curvature="0" /><path
         style="display:inline;opacity:1;vector-effect:none;fill:#6b5a83;fill-opacity:1;fill-rule:nonzero;stroke:none;stroke-width:4;stroke-linecap:round;stroke-linejoin:round;stroke-miterlimit:4;stroke-dasharray:none;stroke-dashoffset:0;stroke-opacity:1;paint-order:fill markers stroke"
         d="m -520.09541,1235.307 c -5.30875,0.082 -7.62852,-0.011 -8,0.1992 -0.11967,0.332 -0.21174,2.4077 -0.19922,6 -0.0125,3.5923 0.0795,5.668 0.19922,6 0.37148,0.2103 2.69125,0.117 8,0.1992 5.30875,-0.082 7.62853,0.011 8,-0.1992 0.11967,-0.332 0.21174,-2.4077 0.19922,-6 0.0125,-3.5923 -0.0795,-5.668 -0.19922,-6 -0.37147,-0.2104 -2.69125,-0.117 -8,-0.1992 z"
         id="path7397"
         inkscape:connector-curvature="0" /><path
         sodipodi:type="star"
         style="display:inline;opacity:1;vector-effect:none;fill:#6b5a83;fill-opacity:0.25098;fill-rule:nonzero;stroke:none;stroke-width:8;stroke-linecap:butt;stroke-linejoin:round;stroke-miterlimit:4;stroke-dasharray:none;stroke-dashoffset:0;stroke-opacity:1;paint-order:stroke fill markers"
         id="path7423"
         sodipodi:sides="3"
         sodipodi:cx="-572.39569"
         sodipodi:cy="1225.5062"
         sodipodi:r1="22"
         sodipodi:r2="36.982452"
         sodipodi:arg1="0"
         sodipodi:arg2="1.0471976"
         inkscape:flatsided="true"
         inkscape:rounded="0.07"
         inkscape:randomized="0"
         d="m -550.39569,1225.5062 c 0,2.6674 -30.69,20.3863 -33,19.0526 -2.31,-1.3337 -2.31,-36.7715 0,-38.1051 2.31,-1.3337 33,16.3852 33,19.0525 z" /><path
         d="m -552.39569,1221.5062 c 0,2.6674 -30.69,20.3863 -33,19.0526 -2.31,-1.3337 -2.31,-36.7715 0,-38.1051 2.31,-1.3337 33,16.3852 33,19.0525 z"
         inkscape:randomized="0"
         inkscape:rounded="0.07"
         inkscape:flatsided="true"
         sodipodi:arg2="1.0471976"
         sodipodi:arg1="0"
         sodipodi:r2="36.982452"
         sodipodi:r1="22"
         sodipodi:cy="1221.5062"
         sodipodi:cx="-574.39569"
         sodipodi:sides="3"
         id="path2437-7"
         style="display:inline;opacity:1;vector-effect:none;fill:#6b5a83;fill-opacity:1;fill-rule:nonzero;stroke:none;stroke-width:8;stroke-linecap:butt;stroke-linejoin:round;stroke-miterlimit:4;stroke-dasharray:none;stroke-dashoffset:0;stroke-opacity:1;paint-order:stroke fill markers"
         sodipodi:type="star" /></g></g></svg>
