<svg xmlns="http://www.w3.org/2000/svg" xmlns:xlink="http://www.w3.org/1999/xlink" height="128" width="128" xmlns:v="https://vecta.io/nano"><style><![CDATA[.J{stroke-linejoin:round}.K{stroke-width:4}.L{stroke:#5b9323}.M{fill:#b7ed50}.N{stroke-linecap:round}]]></style><defs><filter id="A" x="-.058" y="-.055" width="1.145" height="1.166" color-interpolation-filters="sRGB"><feFlood flood-color="#3a7c4b" flood-opacity=".498"/><feComposite operator="in" in2="SourceGraphic"/><feOffset dy="4" dx="2"/><feComposite in="SourceGraphic"/></filter><path id="B" d="M121.205-58.959c7.129.052 16.433 1.183 20.569 1.856l9.552-17.074c-4.341-1.679-16.001-1.491-20.813-.624-1.296 1.894-4.047 6.874-9.309 15.842z"/></defs><circle cx="64" cy="64" r="60" fill="#68a955" stroke="#3a7c4b" paint-order="fill markers stroke" class="J K"/><g filter="url(#A)"><g transform="matrix(1.157321 0 0 1.157321 -79.676211 115.26924)"><g stroke="#29abe0" stroke-width="6.913" class="J"><use xlink:href="#B" fill="none" paint-order="stroke markers fill"/><path d="M126.865-74.885c-1.943-.369-5.693-.521-8.801-.521h0c-14 0-23.738 8.521-23.738 21.129 0 8.608 2.682 15.576 10.12 18.814 6.292-11.959 14.315-25.649 22.419-39.421zm-6.71 61.022c2.415.365 7.76.714 9.462.714 16.782 0 24.348-10.868 24.348-20.781 0-9.478-3.211-16.466-10.53-19.431-8.672 15.855-17.125 28.145-23.28 39.498zm-.667-42.582l-12.586 21.658-11.613 20.67c2.934 1.042 16.867 1.239 21.238-.457 1.108-1.484 5.532-8.831 10.793-17.738l12.859-22.031c-4.749-1.041-14.298-1.681-20.691-2.102z" fill="#7fdeed" paint-order="stroke markers fill"/></g><use xlink:href="#B" fill="#e2db53" paint-order="stroke markers fill"/></g><g transform="translate(0 1.264)"><use xlink:href="#C" transform="matrix(-1 0 0 1 128 0)"/><path d="M52.186 78.998c-1.912 6.929.248 11.811 4.375 11.811s5.956-2.002 3.629-9.56" id="C" paint-order="stroke markers fill" class="J K L M N"/><path d="M78.655 54.407c1.38 10.171.474 22.961-1.841 27.591-1.61 1.51-6.372 2.584-12.814 2.584s-11.203-1.074-12.814-2.584c-2.315-4.63-3.221-17.42-1.841-27.591z" paint-order="stroke markers fill" class="J K L M"/><use xlink:href="#D" transform="matrix(-1 0 0 1 128 0)"/><path d="M47.061 59.256c-6.332 9.845-6.149 15.804-4.74 17.774 1.447 2.022 4.653 2.024 5.68-.03 1-2 1.474-6.937 2.473-16.347" id="D" paint-order="stroke markers fill" class="J K L M N"/><path d="M52.47 37.093L54.819 43" id="E" fill="#5b9323" stroke-width="8" paint-order="stroke markers fill" class="J L N"/><use xlink:href="#E" transform="matrix(-1 0 0 1 128 0)"/><path d="M80.939 58.256C83.734 43.954 74.34 37.473 64 37.473s-19.734 6.48-16.939 20.783c1.993 1.779 9.11 2.776 16.939 2.776s14.946-.996 16.939-2.776z" paint-order="stroke markers fill" class="J K L M"/><path d="M52.47 37.093L54.819 43" id="F" fill="none" stroke="#b7ed50" paint-order="stroke markers fill" class="J K N"/><g fill="#5b9323"><circle cx="55" cy="50" r="2" paint-order="stroke markers fill"/><circle cx="73" cy="50" r="2" paint-order="stroke markers fill"/></g><use xlink:href="#F" transform="matrix(-1 0 0 1 128 0)"/></g></g></svg>