<svg xmlns="http://www.w3.org/2000/svg" height="128" width="128" xmlns:v="https://vecta.io/nano"><style><![CDATA[.J{stroke-linejoin:round}.K{stroke-width:4}.L{fill:#6d9fe9}.M{stroke-linecap:round}.N{stroke-miterlimit:4}.O{stroke-dasharray:none}.P{stroke-dashoffset:0}.Q{stroke-width:5.783}]]></style><defs><clipPath id="A"><circle cx="84" cy="84" r="60" opacity="1" fill="#68a955" fill-opacity="1" fill-rule="nonzero" stroke="none" stroke-linecap="butt" stroke-opacity="1" paint-order="fill markers stroke" class="J K N O P"/></clipPath><filter id="B" x="-.042" y="-.025" width="1.116" height="1.085" color-interpolation-filters="sRGB"><feFlood flood-color="#3a3a3a" flood-opacity=".498"/><feComposite operator="in" in2="SourceGraphic"/><feOffset dy="4" dx="2"/><feComposite in="SourceGraphic"/></filter><clipPath id="C"><circle cx="64" cy="52" r="28" opacity="1" fill-opacity="1" stroke="none" stroke-opacity="1" paint-order="fill markers stroke" class="J K L M N O P"/></clipPath></defs><g clip-path="url(#A)" transform="translate(-20 -20)"><circle cx="84" cy="84" r="60" paint-order="fill markers stroke" class="L"/><path d="M82 131c-3.587-2.217.58-9.535 4-12 2.163-1.559 6.98-2.464 8 0 2.165 5.226-7.188 14.974-12 12zM60 84c-1.567-2.536 1.118-7.235 4-8 4.646-1.234 13.393 3.399 12 8-.386 1.276-2.667 0-4 0-4 0-9.897 3.403-12 0zm-22.392 22.928c1.658-4.512 6.292-9.358 11.097-9.212 2.98.091 3.716 5.114 6.522 6.12 4.016 1.439 9.54-3.621 12.772-.836 5.546 4.779 5.921 15.824 1.818 21.886-2.694 3.981-9.687 6.746-13.786 4.235-2.542-1.557.997-7.253-1.546-8.81-4.1-2.511-9.687 6.746-13.786 4.235-5.085-3.114-5.148-12.022-3.091-17.619zM92 36c6.325 2.108 9.675 9.892 16 12 1.265.422 3.057-.943 4 0 4.714 4.714-4.714 15.286 0 20 1.886 1.886 6.301-2.055 8 0 6.055 7.324-6.659 18.587-5.359 28 .408 2.953 3.103 5.157 4 8 3.651 11.57-6.269 32.537 5.359 36 15.388 4.582 26.294-20.993 32-36 5.686-14.956 6.931-33.579 0-48-7.397-15.39-22.941-31.26-40-32-4.803-.208-7.604 6.055-12 8-5.028 2.224-16.672-1.456-16 4 .163 1.323 2.735-.422 4 0zM52 72c9.897 3.239 10.569-19.583 20-24 2.415-1.131 6.98 2.464 8 0 1.443-3.484-8.604-4.277-8-8 .478-2.943 7.522-1.057 8-4 .302-1.861-2.283-3.221-4-4-18.253-8.283-45.797-18.144-60-4C.854 43.083 3.055 78.971 20 92c5.39 4.144 14.632.172 20-4 7.005-5.444 2.795-25.696 11.503-24 2.623.511-2.042 7.169.497 8z" fill="#68a955" paint-order="stroke fill markers"/><g class="J K"><path d="M34.098 84c-2.11-14.804 5.561-32.738 18.754-41.686m0 0c2.007 10.106 9.823 29.138 14.991 38.341m0 0L68 104m52-40c-1.355 22.385-8.767 34.551-34 55m0 0c-9.323-.79-15.524-5.536-18-15m52-40c-13.788-18.232-41.828-33.638-67.148-21.686m14.991 38.341L34.098 84S20 87.222 20 111.921m110.664-8.414C122.928 120.584 106.071 121.268 86 119c4.235 15.806 19.798 29 34.489 29m36.079-63.199c-3.592 9.812-10.065 20.507-25.905 18.706C133.948 91.039 128.2 71.867 120 64l19.376-23.511" fill="none" stroke="#e2db53" paint-order="stroke fill markers" class="M"/><g fill="#e2db53" stroke="#b9a400"><circle cy="42.314" cx="52.852" r="4" paint-order="stroke fill markers"/><circle r="4" cx="120" cy="64" paint-order="stroke fill markers"/><circle cy="103.506" cx="130.664" r="3" paint-order="stroke fill markers"/><circle r="4" cx="86" cy="119" paint-order="stroke fill markers"/><circle cy="104" cx="68" r="4" paint-order="stroke fill markers"/><circle cx="34.098" cy="84" r="3" paint-order="stroke fill markers"/><circle cy="80" cx="68" r="3" paint-order="stroke fill markers"/></g></g></g><circle cx="64" cy="64" r="60" fill="none" stroke="#3a7c4b" paint-order="fill markers stroke" class="J K"/><g transform="matrix(.489084 -.489084 .489084 .489084 13.335339 39.515314)" filter="url(#B)"><circle cx="63.432" cy="51.82" r="31.82" paint-order="fill markers stroke" class="L"/><path d="M57.432 83v13h12V83" fill="#f1f2f3" stroke="#646464" paint-order="fill markers stroke" class="J M Q"/><g clip-path="url(#C)" transform="translate(-.568)"><circle cx="64" cy="52" r="32" fill="#94b9ef" paint-order="fill markers stroke"/><path d="M64 24a28 28 0 0 0-24.291 14.213A28.875 25.5 0 0 1 64 26.5a28.875 25.5 0 0 1 24.68 12.277A28 28 0 0 0 64 24zM39.709 65.787A28 28 0 0 0 64 80a28 28 0 0 0 24.291-14.213A28.875 25.5 0 0 1 64 77.5a28.875 25.5 0 0 1-24.291-11.713z" fill="#fff" paint-order="fill markers stroke"/></g><g class="J Q"><circle cx="63.432" cy="51.82" r="31.82" fill="none" stroke="#646464" paint-order="fill markers stroke"/><path d="M63.432 93c-5 0-8.583.198-12 1 .78 14.474.833 27.123 0 40 6 2.199 18.022 2.305 24 0-.833-12.877-.78-25.526 0-40-3.417-.802-7-1-12-1z" fill="#e5865e" stroke="#876443" paint-order="fill markers stroke"/></g></g></svg>